<?xml version="1.0" encoding="utf-8"?>
<!-- Generator: Adobe Illustrator 19.2.1, SVG Export Plug-In . SVG Version: 6.00 Build 0)  -->
<svg version="1.1" id="Слой_1" xmlns="http://www.w3.org/2000/svg" xmlns:xlink="http://www.w3.org/1999/xlink" x="0px" y="0px"
	 viewBox="0 0 1915 945" style="enable-background:new 0 0 1915 945;" xml:space="preserve">
<g>
	<g>
		<g id="Browser-Dark_6_">
			<path style="fill:none;stroke:#009F4B;stroke-width:0.5071;stroke-miterlimit:10;" d="M720.7-7.8"/>
			<path style="fill:none;stroke:#009F4B;stroke-width:0.5071;stroke-miterlimit:10;" d="M663.1,94.7"/>
			<path style="fill:none;stroke:#009F4B;stroke-width:0.5071;stroke-miterlimit:10;" d="M674.2,373.6"/>
			<g>
				<g>
					<path style="fill:#A2A2A4;" d="M643,29"/>
				</g>
			</g>
		</g>
		<g>
			<rect x="220" y="3" style="fill:#F2F2F2;" width="1695" height="65"/>
		</g>
		<g>
			<rect y="2" style="fill:#91CFF9;" width="220" height="65.5"/>
		</g>
		<line style="fill:none;stroke:#EDEDED;stroke-miterlimit:10;" x1="219.5" y1="945" x2="219.5" y2="2"/>
		<g id="taskmanager_6_">
			
				<circle style="fill:none;stroke:#828282;stroke-linecap:round;stroke-linejoin:round;stroke-miterlimit:10;" cx="26" cy="93.3" r="5.8"/>
			
				<line style="fill:none;stroke:#828282;stroke-linecap:round;stroke-linejoin:round;stroke-miterlimit:10;" x1="25.6" y1="95.2" x2="29.3" y2="91.5"/>
			
				<line style="fill:none;stroke:#828282;stroke-linecap:round;stroke-linejoin:round;stroke-miterlimit:10;" x1="25.6" y1="95.2" x2="23.7" y2="93.4"/>
			
				<circle style="fill:none;stroke:#828282;stroke-linecap:round;stroke-linejoin:round;stroke-miterlimit:10;" cx="26" cy="106.7" r="5.8"/>
		</g>
		<g id="access_11_">
			<g id="access_12_">
				<path style="fill:none;stroke:#828282;stroke-linecap:round;stroke-linejoin:round;stroke-miterlimit:10;" d="M26.1,193.3
					l6.2-6.2c1.6-1.6,4.1-1.6,5.7,0l0.8,0.8c1.6,1.6,1.6,4.1,0,5.7l-6.2,6.2c-1.6,1.6-4.1,1.6-5.7,0l-0.8-0.8"/>
				<path style="fill:none;stroke:#828282;stroke-linecap:round;stroke-linejoin:round;stroke-miterlimit:10;" d="M28.8,203.6
					l-6.2,6.2c-1.6,1.6-4.1,1.6-5.7,0l-0.8-0.8c-1.6-1.6-1.6-4.1,0-5.7l6.2-6.2c1.6-1.6,4.1-1.6,5.7,0l0.8,0.8"/>
			</g>
		</g>
		<g>
			
				<line style="fill:none;stroke:#828282;stroke-linecap:round;stroke-linejoin:round;stroke-miterlimit:10;" x1="18" y1="138.5" x2="35" y2="138.5"/>
			<path style="fill:none;stroke:#828282;stroke-linecap:round;stroke-linejoin:round;stroke-miterlimit:10;" d="M35.6,142.3
				c0-2.1-1.4-1.8-3.6-1.8H20.7c-2.2,0-3.6-0.4-3.6,1.7l1.1,13.1c0.5,3.2,2.5,4.2,3.9,4.2h8.5c1.4,0,3.5,0,4-4.3L35.6,142.3z"/>
			<path style="fill:none;stroke:#828282;stroke-linecap:round;stroke-linejoin:round;stroke-miterlimit:10;" d="M28.8,138.1
				c0-1.4-1.1-2.5-2.5-2.5s-2.5,1.1-2.5,2.5"/>
			<rect x="23.3" y="146" style="fill:none;" width="8.5" height="13.3"/>
			<text transform="matrix(1 0 0 1 23.3333 153.5996)" style="fill:#828282; font-family:'OpenSans-Light'; font-size:10px;">2</text>
		</g>
		<g>
			<path style="fill:#828282;" d="M65.5,101.7h-0.8V91H61v-0.8h8.2V91h-3.7V101.7z"/>
			<path style="fill:#828282;" d="M75.9,101.7l-0.2-1.3h-0.1c-0.4,0.5-0.9,0.9-1.3,1.2s-1,0.3-1.6,0.3c-0.8,0-1.5-0.2-1.9-0.6
				c-0.5-0.4-0.7-1-0.7-1.8s0.3-1.5,1-1.9c0.7-0.5,1.7-0.7,3-0.7h1.6v-0.6c0-0.8-0.2-1.4-0.5-1.8s-0.9-0.6-1.6-0.6
				c-0.8,0-1.6,0.2-2.4,0.7l-0.3-0.7c0.9-0.4,1.9-0.7,2.8-0.7s1.6,0.2,2.1,0.7s0.7,1.2,0.7,2.3v5.6L75.9,101.7L75.9,101.7z
				 M72.7,101.1c0.9,0,1.6-0.3,2.1-0.8s0.8-1.2,0.8-2.2v-0.8l-1.5,0.1c-1.2,0.1-2,0.2-2.6,0.6c-0.5,0.3-0.8,0.8-0.8,1.5
				c0,0.5,0.2,0.9,0.5,1.2C71.7,101,72.1,101.1,72.7,101.1z"/>
			<path style="fill:#828282;" d="M84.4,99.4c0,0.8-0.3,1.3-0.9,1.8c-0.6,0.4-1.4,0.6-2.5,0.6s-2-0.2-2.7-0.5v-0.8
				c0.9,0.4,1.8,0.6,2.7,0.6c0.8,0,1.5-0.1,1.9-0.4s0.7-0.6,0.7-1.1c0-0.4-0.2-0.8-0.5-1.1s-0.9-0.6-1.7-0.9
				c-0.8-0.3-1.4-0.6-1.8-0.8c-0.3-0.2-0.6-0.5-0.8-0.8c-0.2-0.3-0.3-0.6-0.3-1c0-0.6,0.3-1.1,0.8-1.5s1.3-0.6,2.2-0.6
				c0.9,0,1.8,0.2,2.6,0.5l-0.3,0.7c-0.8-0.3-1.6-0.5-2.3-0.5c-0.7,0-1.2,0.1-1.6,0.3s-0.6,0.5-0.6,1c0,0.4,0.2,0.8,0.5,1.1
				s0.9,0.6,1.8,0.9c0.8,0.3,1.3,0.5,1.7,0.7c0.3,0.2,0.6,0.5,0.8,0.8S84.4,99.1,84.4,99.4z"/>
			<path style="fill:#828282;" d="M87.4,97.9l4.3-4.8h0.9l-3.3,3.6l3.6,4.9H92l-3.2-4.3l-1.4,1.3v3h-0.8V89.4h0.8v6.1V97.9
				L87.4,97.9z"/>
			<path style="fill:#828282;" d="M103.8,101.7l-4.3-10.5h-0.1c0,0.6,0.1,1.3,0.1,2v8.6h-0.8V90.4h1.2l4,10l0,0l4-10h1.2v11.4h-0.8
				V93c0-0.6,0-1.2,0.1-1.9h-0.1l-4.3,10.5L103.8,101.7L103.8,101.7z"/>
			<path style="fill:#828282;" d="M117.5,101.7l-0.2-1.3h-0.1c-0.4,0.5-0.9,0.9-1.3,1.2s-1,0.3-1.6,0.3c-0.8,0-1.5-0.2-1.9-0.6
				c-0.5-0.4-0.7-1-0.7-1.8s0.3-1.5,1-1.9c0.7-0.5,1.7-0.7,3-0.7h1.6v-0.6c0-0.8-0.2-1.4-0.5-1.8s-0.9-0.6-1.6-0.6
				c-0.8,0-1.6,0.2-2.4,0.7l-0.3-0.7c0.9-0.4,1.9-0.7,2.8-0.7s1.6,0.2,2.1,0.7s0.7,1.2,0.7,2.3v5.6L117.5,101.7L117.5,101.7z
				 M114.4,101.1c0.9,0,1.6-0.3,2.1-0.8s0.8-1.2,0.8-2.2v-0.8l-1.5,0.1c-1.2,0.1-2,0.2-2.6,0.6c-0.5,0.3-0.8,0.8-0.8,1.5
				c0,0.5,0.2,0.9,0.5,1.2C113.3,101,113.8,101.1,114.4,101.1z"/>
			<path style="fill:#828282;" d="M126.7,101.7v-5.5c0-0.9-0.2-1.5-0.5-1.9c-0.4-0.4-0.9-0.6-1.7-0.6c-1,0-1.8,0.3-2.2,0.8
				c-0.5,0.5-0.7,1.3-0.7,2.5v4.7h-0.8v-8.5h0.7l0.1,1.2l0,0c0.6-0.9,1.5-1.3,2.9-1.3c1.9,0,2.9,1,2.9,3.1v5.6L126.7,101.7
				C126.7,101.8,126.7,101.7,126.7,101.7z"/>
			<path style="fill:#828282;" d="M135.4,101.7l-0.2-1.3h-0.1c-0.4,0.5-0.9,0.9-1.3,1.2s-1,0.3-1.6,0.3c-0.8,0-1.5-0.2-1.9-0.6
				c-0.5-0.4-0.7-1-0.7-1.8s0.3-1.5,1-1.9c0.7-0.5,1.7-0.7,3-0.7h1.6v-0.6c0-0.8-0.2-1.4-0.5-1.8s-0.9-0.6-1.6-0.6
				c-0.8,0-1.6,0.2-2.4,0.7l-0.3-0.7c0.9-0.4,1.9-0.7,2.8-0.7c0.9,0,1.6,0.2,2.1,0.7s0.7,1.2,0.7,2.3v5.6L135.4,101.7L135.4,101.7z
				 M132.3,101.1c0.9,0,1.6-0.3,2.1-0.8s0.8-1.2,0.8-2.2v-0.8l-1.5,0.1c-1.2,0.1-2,0.2-2.6,0.6c-0.5,0.3-0.8,0.8-0.8,1.5
				c0,0.5,0.2,0.9,0.5,1.2C131.2,101,131.7,101.1,132.3,101.1z"/>
			<path style="fill:#828282;" d="M145.4,93.2v0.5l-1.8,0.1c0.5,0.6,0.7,1.2,0.7,1.9c0,0.8-0.3,1.5-0.8,2s-1.3,0.8-2.2,0.8
				c-0.4,0-0.7,0-0.8,0c-0.3,0.2-0.5,0.4-0.7,0.6s-0.2,0.5-0.2,0.7c0,0.3,0.1,0.5,0.3,0.6s0.6,0.2,1,0.2h1.5c0.9,0,1.6,0.2,2.1,0.6
				s0.7,0.9,0.7,1.7c0,0.9-0.4,1.6-1.1,2.1c-0.7,0.5-1.8,0.7-3.1,0.7c-1.1,0-1.9-0.2-2.5-0.6s-0.9-1-0.9-1.7c0-0.6,0.2-1.1,0.5-1.5
				c0.4-0.4,0.9-0.6,1.5-0.8c-0.3-0.1-0.5-0.3-0.6-0.5c-0.2-0.2-0.2-0.4-0.2-0.7c0-0.6,0.4-1.1,1.1-1.5c-0.5-0.2-0.9-0.5-1.2-1
				c-0.3-0.4-0.4-0.9-0.4-1.5c0-0.8,0.3-1.5,0.8-2s1.3-0.8,2.2-0.8c0.6,0,1,0.1,1.3,0.2L145.4,93.2L145.4,93.2L145.4,93.2z
				 M138.5,103.1c0,1.2,0.9,1.8,2.6,1.8c2.2,0,3.3-0.7,3.3-2.1c0-0.5-0.2-0.9-0.5-1.1s-0.9-0.3-1.7-0.3h-1.4
				C139.3,101.3,138.5,101.9,138.5,103.1z M139.1,95.8c0,0.7,0.2,1.2,0.6,1.5c0.4,0.4,0.9,0.5,1.6,0.5c0.7,0,1.3-0.2,1.6-0.5
				s0.6-0.9,0.6-1.6s-0.2-1.3-0.6-1.6c-0.4-0.4-0.9-0.5-1.6-0.5c-0.7,0-1.2,0.2-1.6,0.6S139.1,95.1,139.1,95.8z"/>
			<path style="fill:#828282;" d="M150.5,101.8c-1.2,0-2.2-0.4-2.9-1.1c-0.7-0.8-1-1.8-1-3.2s0.3-2.4,1-3.3c0.7-0.8,1.6-1.2,2.7-1.2
				c1,0,1.8,0.3,2.4,1c0.6,0.7,0.9,1.6,0.9,2.8v0.6h-6.1c0,1.2,0.3,2.1,0.8,2.7s1.3,0.9,2.3,0.9c0.5,0,0.9,0,1.3-0.1
				c0.4-0.1,0.8-0.2,1.4-0.4v0.7c-0.5,0.2-0.9,0.4-1.3,0.4C151.5,101.8,151,101.8,150.5,101.8z M150.3,93.7c-0.8,0-1.5,0.3-2,0.8
				s-0.8,1.3-0.9,2.3h5.3c0-1-0.2-1.8-0.6-2.3S151.1,93.7,150.3,93.7z"/>
			<path style="fill:#828282;" d="M159.2,93c0.4,0,0.7,0,1.2,0.1l-0.1,0.7c-0.4-0.1-0.7-0.1-1.1-0.1c-0.7,0-1.3,0.3-1.8,0.9
				s-0.7,1.4-0.7,2.3v4.7h-0.8v-8.5h0.7l0.1,1.5h0.1c0.3-0.6,0.7-1.1,1.1-1.3C158.2,93.1,158.7,93,159.2,93z"/>
		</g>
		<g>
			<path style="fill:#828282;" d="M251.9,30.3c-1.4,0-2.6,0.5-3.4,1.4c-0.8,0.9-1.2,2.2-1.2,3.8s0.4,2.9,1.2,3.8
				c0.8,0.9,1.9,1.4,3.3,1.4c1,0,1.8-0.1,2.6-0.4V41c-0.8,0.3-1.7,0.4-2.8,0.4c-1.6,0-2.9-0.5-3.8-1.6c-0.9-1-1.4-2.5-1.4-4.3
				c0-1.2,0.2-2.2,0.7-3.1c0.4-0.9,1.1-1.6,1.9-2.1c0.8-0.5,1.8-0.7,2.9-0.7c1.1,0,2.1,0.2,3,0.6l-0.3,0.7
				C253.7,30.5,252.8,30.3,251.9,30.3z"/>
			<path style="fill:#828282;" d="M260.1,32.5c0.4,0,0.7,0,1.2,0.1l-0.1,0.7c-0.4-0.1-0.7-0.1-1.1-0.1c-0.7,0-1.3,0.3-1.8,0.9
				c-0.5,0.6-0.7,1.4-0.7,2.3v4.7h-0.8v-8.5h0.7l0.1,1.5h0.1c0.3-0.6,0.7-1.1,1.1-1.3C259.1,32.6,259.5,32.5,260.1,32.5z"/>
			<path style="fill:#828282;" d="M266.4,41.3c-1.2,0-2.2-0.4-2.9-1.1c-0.7-0.8-1-1.8-1-3.2s0.3-2.4,1-3.3c0.7-0.8,1.6-1.2,2.7-1.2
				c1,0,1.8,0.3,2.4,1s0.9,1.6,0.9,2.8v0.6h-6.1c0,1.2,0.3,2.1,0.8,2.7c0.5,0.6,1.3,0.9,2.3,0.9c0.5,0,0.9,0,1.3-0.1
				s0.8-0.2,1.4-0.4v0.7c-0.5,0.2-0.9,0.4-1.3,0.4S266.9,41.3,266.4,41.3z M266.2,33.2c-0.8,0-1.5,0.3-2,0.8s-0.8,1.3-0.9,2.3h5.3
				c0-1-0.2-1.8-0.6-2.3C267.5,33.5,266.9,33.2,266.2,33.2z"/>
			<path style="fill:#828282;" d="M276.9,41.2l-0.2-1.3h-0.1c-0.4,0.5-0.9,0.9-1.3,1.2c-0.5,0.2-1,0.3-1.6,0.3
				c-0.8,0-1.5-0.2-1.9-0.6c-0.5-0.4-0.7-1-0.7-1.8s0.3-1.5,1-1.9c0.7-0.5,1.7-0.7,3-0.7h1.6v-0.6c0-0.8-0.2-1.4-0.5-1.8
				c-0.3-0.4-0.9-0.6-1.6-0.6c-0.8,0-1.6,0.2-2.4,0.7l-0.3-0.7c0.9-0.4,1.9-0.7,2.8-0.7s1.6,0.2,2.1,0.7s0.7,1.2,0.7,2.3v5.6
				L276.9,41.2L276.9,41.2z M273.8,40.6c0.9,0,1.6-0.3,2.1-0.8s0.8-1.2,0.8-2.2v-0.8l-1.5,0.1c-1.2,0.1-2,0.2-2.6,0.6
				c-0.5,0.3-0.8,0.8-0.8,1.5c0,0.5,0.2,0.9,0.5,1.2C272.7,40.5,273.2,40.6,273.8,40.6z"/>
			<path style="fill:#828282;" d="M282.5,40.6c0.5,0,0.9,0,1.3-0.1v0.6c-0.4,0.1-0.8,0.2-1.3,0.2c-0.8,0-1.3-0.2-1.7-0.6
				c-0.4-0.4-0.5-1-0.5-1.9v-5.5H279v-0.5l1.3-0.4l0.4-1.9h0.4v2.1h2.5v0.7h-2.5v5.4c0,0.7,0.1,1.1,0.3,1.4
				C281.6,40.5,282,40.6,282.5,40.6z"/>
			<path style="fill:#828282;" d="M289,41.3c-1.2,0-2.2-0.4-2.9-1.1c-0.7-0.8-1-1.8-1-3.2s0.3-2.4,1-3.3c0.7-0.8,1.6-1.2,2.7-1.2
				c1,0,1.8,0.3,2.4,1s0.9,1.6,0.9,2.8v0.6H286c0,1.2,0.3,2.1,0.8,2.7c0.5,0.6,1.3,0.9,2.3,0.9c0.5,0,0.9,0,1.3-0.1s0.8-0.2,1.4-0.4
				v0.7c-0.5,0.2-0.9,0.4-1.3,0.4S289.5,41.3,289,41.3z M288.8,33.2c-0.8,0-1.5,0.3-2,0.8s-0.8,1.3-0.9,2.3h5.3c0-1-0.2-1.8-0.6-2.3
				C290.2,33.5,289.6,33.2,288.8,33.2z"/>
			<path style="fill:#828282;" d="M305.6,33c0,1.1-0.4,2-1.1,2.5c-0.8,0.6-1.8,0.9-3.2,0.9h-1.8v4.7h-0.8V29.7h2.8
				C304.3,29.7,305.6,30.8,305.6,33z M299.5,35.8h1.6c1.3,0,2.2-0.2,2.8-0.6c0.6-0.4,0.9-1.1,0.9-2.1c0-0.9-0.3-1.5-0.8-2
				c-0.5-0.4-1.4-0.6-2.5-0.6h-1.9v5.3C299.6,35.8,299.5,35.8,299.5,35.8z"/>
			<path style="fill:#828282;" d="M311.2,32.5c0.4,0,0.7,0,1.2,0.1l-0.1,0.7c-0.4-0.1-0.7-0.1-1.1-0.1c-0.7,0-1.3,0.3-1.8,0.9
				c-0.5,0.6-0.7,1.4-0.7,2.3v4.7h-0.8v-8.5h0.7l0.1,1.5h0.1c0.3-0.6,0.7-1.1,1.1-1.3C310.2,32.6,310.7,32.5,311.2,32.5z"/>
			<path style="fill:#828282;" d="M321.1,36.9c0,1.4-0.3,2.5-1,3.2c-0.7,0.8-1.6,1.2-2.8,1.2c-0.7,0-1.4-0.2-2-0.5
				c-0.6-0.4-1-0.9-1.3-1.5c-0.3-0.7-0.5-1.4-0.5-2.3c0-1.4,0.3-2.5,1-3.2s1.6-1.2,2.8-1.2c1.2,0,2.1,0.4,2.7,1.2
				C320.8,34.5,321.1,35.5,321.1,36.9z M314.4,36.9c0,1.2,0.3,2.1,0.8,2.7c0.5,0.7,1.2,1,2.2,1s1.7-0.3,2.2-1s0.8-1.6,0.8-2.7
				c0-1.2-0.3-2.1-0.8-2.7c-0.5-0.6-1.2-1-2.2-1s-1.7,0.3-2.2,1C314.7,34.8,314.4,35.7,314.4,36.9z"/>
			<path style="fill:#828282;" d="M322.4,45c-0.4,0-0.8-0.1-1.1-0.2v-0.7c0.4,0.1,0.7,0.2,1,0.2c0.8,0,1.2-0.5,1.2-1.4V32.6h0.8
				v10.1c0,0.7-0.2,1.2-0.5,1.6C323.4,44.8,323,45,322.4,45z M323.4,30.3c0-0.5,0.2-0.8,0.5-0.8c0.2,0,0.3,0.1,0.4,0.2
				s0.1,0.3,0.1,0.6c0,0.2,0,0.4-0.1,0.6c-0.1,0.1-0.2,0.2-0.4,0.2C323.6,31.1,323.4,30.8,323.4,30.3z"/>
			<path style="fill:#828282;" d="M330.5,41.3c-1.2,0-2.2-0.4-2.9-1.1c-0.7-0.8-1-1.8-1-3.2s0.3-2.4,1-3.3c0.7-0.8,1.6-1.2,2.7-1.2
				c1,0,1.8,0.3,2.4,1s0.9,1.6,0.9,2.8v0.6h-6.1c0,1.2,0.3,2.1,0.8,2.7c0.5,0.6,1.3,0.9,2.3,0.9c0.5,0,0.9,0,1.3-0.1
				s0.8-0.2,1.4-0.4v0.7c-0.5,0.2-0.9,0.4-1.3,0.4S331,41.3,330.5,41.3z M330.3,33.2c-0.8,0-1.5,0.3-2,0.8s-0.8,1.3-0.9,2.3h5.3
				c0-1-0.2-1.8-0.6-2.3C331.7,33.5,331.1,33.2,330.3,33.2z"/>
			<path style="fill:#828282;" d="M339.3,41.3c-1.2,0-2.2-0.4-2.9-1.1s-1-1.8-1-3.2s0.4-2.5,1.1-3.3s1.7-1.2,2.9-1.2
				c0.7,0,1.4,0.1,2.1,0.4l-0.2,0.7c-0.7-0.2-1.4-0.4-1.9-0.4c-1,0-1.8,0.3-2.4,1c-0.5,0.6-0.8,1.6-0.8,2.8c0,1.1,0.3,2,0.8,2.7
				c0.5,0.6,1.3,1,2.3,1c0.8,0,1.5-0.1,2.1-0.4V41C340.9,41.2,340.2,41.3,339.3,41.3z"/>
			<path style="fill:#828282;" d="M345.7,40.6c0.5,0,0.9,0,1.3-0.1v0.6c-0.4,0.1-0.8,0.2-1.3,0.2c-0.8,0-1.3-0.2-1.7-0.6
				c-0.4-0.4-0.5-1-0.5-1.9v-5.5h-1.3v-0.5l1.3-0.4l0.4-1.9h0.4v2.1h2.5v0.7h-2.5v5.4c0,0.7,0.1,1.1,0.3,1.4
				C344.9,40.5,345.3,40.6,345.7,40.6z"/>
		</g>
		<g>
			<path style="fill:#828282;" d="M395.6,35.4c0,1.8-0.5,3.2-1.4,4.3s-2.2,1.6-3.8,1.6c-1.6,0-2.8-0.5-3.7-1.6s-1.4-2.5-1.4-4.3
				s0.5-3.2,1.4-4.3c0.9-1,2.2-1.6,3.7-1.6c1.6,0,2.8,0.5,3.7,1.6C395.2,32.2,395.6,33.6,395.6,35.4z M386.3,35.4
				c0,1.6,0.4,2.9,1.1,3.8c0.7,0.9,1.8,1.3,3.1,1.3c1.4,0,2.4-0.4,3.2-1.3c0.7-0.9,1.1-2.2,1.1-3.8s-0.4-2.9-1.1-3.8
				c-0.7-0.9-1.8-1.3-3.1-1.3c-1.4,0-2.4,0.4-3.1,1.3C386.6,32.5,386.3,33.8,386.3,35.4z"/>
			<path style="fill:#828282;" d="M401.7,41.3c-1.3,0-2.3-0.5-2.9-1.5h-0.1v0.7c0,0.4,0,0.8,0,1.3V45H398V32.7h0.7l0.1,1.2l0,0
				c0.6-0.9,1.5-1.4,2.8-1.4c1.1,0,2,0.4,2.6,1.1c0.6,0.8,0.9,1.8,0.9,3.3c0,1.4-0.3,2.5-0.9,3.2C403.6,40.9,402.8,41.3,401.7,41.3z
				 M401.7,40.6c0.9,0,1.5-0.3,2-1c0.5-0.6,0.7-1.5,0.7-2.7c0-2.5-0.9-3.7-2.7-3.7c-1,0-1.7,0.3-2.2,0.8s-0.7,1.4-0.7,2.7V37
				c0,1.3,0.2,2.3,0.7,2.8C399.9,40.3,400.7,40.6,401.7,40.6z"/>
			<path style="fill:#828282;" d="M411,41.3c-1.2,0-2.2-0.4-2.9-1.1c-0.7-0.8-1-1.8-1-3.2s0.3-2.4,1-3.3c0.7-0.8,1.6-1.2,2.7-1.2
				c1,0,1.8,0.3,2.4,1s0.9,1.6,0.9,2.8v0.6H408c0,1.2,0.3,2.1,0.8,2.7c0.5,0.6,1.3,0.9,2.3,0.9c0.5,0,0.9,0,1.3-0.1s0.8-0.2,1.4-0.4
				v0.7c-0.5,0.2-0.9,0.4-1.3,0.4S411.5,41.3,411,41.3z M410.8,33.2c-0.8,0-1.5,0.3-2,0.8s-0.8,1.3-0.9,2.3h5.3c0-1-0.2-1.8-0.6-2.3
				S411.5,33.2,410.8,33.2z"/>
			<path style="fill:#828282;" d="M422.3,41.2v-5.5c0-0.9-0.2-1.5-0.5-1.9c-0.4-0.4-0.9-0.6-1.7-0.6c-1,0-1.8,0.3-2.2,0.8
				c-0.5,0.5-0.7,1.3-0.7,2.5v4.7h-0.8v-8.5h0.7l0.1,1.2l0,0c0.6-0.9,1.5-1.3,2.9-1.3c1.9,0,2.9,1,2.9,3.1v5.6L422.3,41.2
				L422.3,41.2L422.3,41.2z"/>
			<path style="fill:#828282;" d="M437,33c0,1.1-0.4,2-1.1,2.5c-0.8,0.6-1.8,0.9-3.2,0.9h-1.8v4.7h-0.8V29.7h2.8
				C435.7,29.7,437,30.8,437,33z M430.9,35.8h1.6c1.3,0,2.2-0.2,2.8-0.6c0.6-0.4,0.9-1.1,0.9-2.1c0-0.9-0.3-1.5-0.8-2
				c-0.5-0.4-1.4-0.6-2.5-0.6H431v5.3C431,35.8,430.9,35.8,430.9,35.8z"/>
			<path style="fill:#828282;" d="M442.6,32.5c0.4,0,0.7,0,1.2,0.1l-0.1,0.7c-0.4-0.1-0.7-0.1-1.1-0.1c-0.7,0-1.3,0.3-1.8,0.9
				c-0.5,0.6-0.7,1.4-0.7,2.3v4.7h-0.8v-8.5h0.7l0.1,1.5h0.1c0.3-0.6,0.7-1.1,1.1-1.3C441.6,32.6,442.1,32.5,442.6,32.5z"/>
			<path style="fill:#828282;" d="M452.6,36.9c0,1.4-0.3,2.5-1,3.2c-0.7,0.8-1.6,1.2-2.8,1.2c-0.7,0-1.4-0.2-2-0.5s-1-0.9-1.3-1.5
				S445,37.9,445,37c0-1.4,0.3-2.5,1-3.2s1.6-1.2,2.8-1.2c1.2,0,2.1,0.4,2.7,1.2C452.2,34.5,452.6,35.5,452.6,36.9z M445.9,36.9
				c0,1.2,0.3,2.1,0.8,2.7c0.5,0.7,1.2,1,2.2,1s1.7-0.3,2.2-1s0.8-1.6,0.8-2.7c0-1.2-0.3-2.1-0.8-2.7c-0.5-0.6-1.2-1-2.2-1
				s-1.7,0.3-2.2,1C446.1,34.8,445.9,35.7,445.9,36.9z"/>
			<path style="fill:#828282;" d="M453.8,45c-0.4,0-0.8-0.1-1.1-0.2v-0.7c0.4,0.1,0.7,0.2,1,0.2c0.8,0,1.2-0.5,1.2-1.4V32.6h0.8
				v10.1c0,0.7-0.2,1.2-0.5,1.6C454.9,44.8,454.4,45,453.8,45z M454.8,30.3c0-0.5,0.2-0.8,0.5-0.8c0.2,0,0.3,0.1,0.4,0.2
				s0.1,0.3,0.1,0.6c0,0.2,0,0.4-0.1,0.6c-0.1,0.1-0.2,0.2-0.4,0.2C455,31.1,454.8,30.8,454.8,30.3z"/>
			<path style="fill:#828282;" d="M462,41.3c-1.2,0-2.2-0.4-2.9-1.1c-0.7-0.8-1-1.8-1-3.2s0.3-2.4,1-3.3c0.7-0.8,1.6-1.2,2.7-1.2
				c1,0,1.8,0.3,2.4,1s0.9,1.6,0.9,2.8v0.6H459c0,1.2,0.3,2.1,0.8,2.7c0.5,0.6,1.3,0.9,2.3,0.9c0.5,0,0.9,0,1.3-0.1s0.8-0.2,1.4-0.4
				v0.7c-0.5,0.2-0.9,0.4-1.3,0.4S462.4,41.3,462,41.3z M461.7,33.2c-0.8,0-1.5,0.3-2,0.8s-0.8,1.3-0.9,2.3h5.3c0-1-0.2-1.8-0.6-2.3
				S462.5,33.2,461.7,33.2z"/>
			<path style="fill:#828282;" d="M470.7,41.3c-1.2,0-2.2-0.4-2.9-1.1s-1-1.8-1-3.2s0.4-2.5,1.1-3.3s1.7-1.2,2.9-1.2
				c0.7,0,1.4,0.1,2.1,0.4l-0.2,0.7c-0.7-0.2-1.4-0.4-1.9-0.4c-1,0-1.8,0.3-2.4,1c-0.5,0.6-0.8,1.6-0.8,2.8c0,1.1,0.3,2,0.8,2.7
				s1.3,1,2.3,1c0.8,0,1.5-0.1,2.1-0.4V41C472.3,41.2,471.6,41.3,470.7,41.3z"/>
			<path style="fill:#828282;" d="M477.1,40.6c0.5,0,0.9,0,1.3-0.1v0.6c-0.4,0.1-0.8,0.2-1.3,0.2c-0.8,0-1.3-0.2-1.7-0.6
				c-0.4-0.4-0.5-1-0.5-1.9v-5.5h-1.3v-0.5l1.3-0.4l0.4-1.9h0.4v2.1h2.5v0.7h-2.5v5.4c0,0.7,0.1,1.1,0.3,1.4S476.7,40.6,477.1,40.6z
				"/>
		</g>
		<g>
			<path style="fill:#828282;" d="M62.5,140.2h3.1c1.4,0,2.4,0.2,3.1,0.7s1,1.2,1,2.2c0,0.7-0.2,1.2-0.6,1.7c-0.4,0.4-1,0.7-1.8,0.8
				l0,0c0.9,0.1,1.6,0.4,2,0.9c0.4,0.4,0.6,1.1,0.6,1.8c0,1.1-0.3,1.9-1,2.4c-0.7,0.6-1.7,0.9-3,0.9h-3.5v-11.4L62.5,140.2
				L62.5,140.2z M63.3,145.3h2.5c1.1,0,1.9-0.2,2.3-0.5c0.5-0.4,0.7-0.9,0.7-1.7s-0.3-1.3-0.8-1.7s-1.4-0.5-2.5-0.5h-2.3L63.3,145.3
				L63.3,145.3z M63.3,146v4.9H66c2.1,0,3.2-0.9,3.2-2.6c0-1.6-1.1-2.4-3.3-2.4h-2.6C63.3,145.9,63.3,146,63.3,146z"/>
			<path style="fill:#828282;" d="M72.2,140.8c0-0.5,0.2-0.8,0.5-0.8c0.2,0,0.3,0.1,0.4,0.2s0.1,0.3,0.1,0.6c0,0.2,0,0.4-0.1,0.6
				c-0.1,0.1-0.2,0.2-0.4,0.2C72.4,141.6,72.2,141.3,72.2,140.8z M73.1,151.7h-0.8v-8.5h0.8V151.7z"/>
			<path style="fill:#828282;" d="M81.9,151.7v-5.5c0-0.9-0.2-1.5-0.5-1.9c-0.4-0.4-0.9-0.6-1.7-0.6c-1,0-1.8,0.3-2.2,0.8
				c-0.5,0.5-0.7,1.3-0.7,2.5v4.7H76v-8.5h0.7l0.1,1.2l0,0c0.6-0.9,1.5-1.3,2.9-1.3c1.9,0,2.9,1,2.9,3.1v5.6h-0.7V151.7z"/>
		</g>
		<g>
			<path style="fill:#828282;" d="M62.5,200.7v-11.4h0.8V200h5.4v0.8h-6.2C62.5,200.8,62.5,200.7,62.5,200.7z"/>
			<path style="fill:#828282;" d="M70.4,189.8c0-0.5,0.2-0.8,0.5-0.8c0.2,0,0.3,0.1,0.4,0.2s0.1,0.3,0.1,0.6c0,0.2,0,0.4-0.1,0.6
				c-0.1,0.1-0.2,0.2-0.4,0.2C70.6,190.6,70.4,190.3,70.4,189.8z M71.3,200.7h-0.8v-8.5h0.8V200.7z"/>
			<path style="fill:#828282;" d="M80.1,200.7v-5.5c0-0.9-0.2-1.5-0.5-1.9c-0.4-0.4-0.9-0.6-1.7-0.6c-1,0-1.8,0.3-2.2,0.8
				c-0.5,0.5-0.7,1.3-0.7,2.5v4.7h-0.8v-8.5h0.7l0.1,1.2l0,0c0.6-0.9,1.5-1.3,2.9-1.3c1.9,0,2.9,1,2.9,3.1v5.6h-0.7
				C80.1,200.8,80.1,200.7,80.1,200.7z"/>
			<path style="fill:#828282;" d="M84.3,196.9l4.3-4.8h0.9l-3.3,3.6l3.6,4.9H89l-3.2-4.3l-1.4,1.3v3h-0.8v-12.2h0.8v6.1L84.3,196.9
				L84.3,196.9z"/>
		</g>
		<g>
			<path style="fill:#828282;" d="M63.3,294.2v5h-0.8v-11.4h2.7c1.4,0,2.5,0.3,3.1,0.8s1,1.3,1,2.4c0,0.8-0.2,1.4-0.6,1.9
				s-1,0.9-1.8,1.1l3.1,5.2h-1l-2.9-5H63.3z M63.3,293.5h2.2c1,0,1.7-0.2,2.2-0.6s0.8-1.1,0.8-1.9c0-0.9-0.3-1.5-0.8-1.9
				s-1.4-0.6-2.5-0.6h-1.9C63.3,288.5,63.3,293.5,63.3,293.5z"/>
			<path style="fill:#828282;" d="M75.3,299.3c-1.2,0-2.2-0.4-2.9-1.1c-0.7-0.8-1-1.8-1-3.2c0-1.4,0.3-2.4,1-3.3
				c0.7-0.8,1.6-1.2,2.7-1.2c1,0,1.8,0.3,2.4,1s0.9,1.6,0.9,2.8v0.6h-6.1c0,1.2,0.3,2.1,0.8,2.7s1.3,0.9,2.3,0.9
				c0.5,0,0.9,0,1.3-0.1s0.8-0.2,1.4-0.4v0.7c-0.5,0.2-0.9,0.4-1.3,0.4C76.2,299.3,75.7,299.3,75.3,299.3z M75,291.2
				c-0.8,0-1.5,0.3-2,0.8s-0.8,1.3-0.9,2.3h5.3c0-1-0.2-1.8-0.6-2.3S75.8,291.2,75,291.2z"/>
			<path style="fill:#828282;" d="M86.5,299.2v-5.5c0-0.9-0.2-1.5-0.5-1.9c-0.4-0.4-0.9-0.6-1.7-0.6c-1,0-1.8,0.3-2.2,0.8
				c-0.5,0.5-0.7,1.3-0.7,2.5v4.7h-0.8v-8.5h0.7l0.1,1.2l0,0c0.6-0.9,1.5-1.3,2.9-1.3c1.9,0,2.9,1,2.9,3.1v5.6h-0.7
				C86.5,299.3,86.5,299.2,86.5,299.2z"/>
			<path style="fill:#828282;" d="M95.2,299.2l-0.2-1.3h-0.1c-0.4,0.5-0.9,0.9-1.3,1.2s-1,0.3-1.6,0.3c-0.8,0-1.5-0.2-1.9-0.6
				c-0.5-0.4-0.7-1-0.7-1.8s0.3-1.5,1-1.9c0.7-0.5,1.7-0.7,3-0.7H95v-0.6c0-0.8-0.2-1.4-0.5-1.8s-0.9-0.6-1.6-0.6
				c-0.8,0-1.6,0.2-2.4,0.7l-0.3-0.7c0.9-0.4,1.9-0.7,2.8-0.7s1.6,0.2,2.1,0.7s0.7,1.2,0.7,2.3v5.6h-0.6V299.2z M92.1,298.6
				c0.9,0,1.6-0.3,2.1-0.8s0.8-1.2,0.8-2.2v-0.8l-1.5,0.1c-1.2,0.1-2,0.2-2.6,0.6c-0.5,0.3-0.8,0.8-0.8,1.5c0,0.5,0.2,0.9,0.5,1.2
				C91,298.5,91.5,298.6,92.1,298.6z"/>
			<path style="fill:#828282;" d="M109.1,299.2v-5.6c0-0.8-0.2-1.4-0.5-1.8s-0.8-0.6-1.5-0.6c-0.9,0-1.5,0.2-1.9,0.7
				s-0.6,1.2-0.6,2.3v5h-0.8v-5.8c0-1.4-0.7-2.1-2-2.1c-0.9,0-1.5,0.3-1.9,0.8s-0.6,1.3-0.6,2.5v4.7h-0.8v-8.5h0.6l0.2,1.2l0,0
				c0.2-0.4,0.6-0.7,1-1c0.4-0.2,0.9-0.3,1.4-0.3c1.3,0,2.2,0.5,2.6,1.5l0,0c0.3-0.5,0.6-0.9,1.1-1.1c0.5-0.3,1-0.4,1.6-0.4
				c0.9,0,1.6,0.2,2.1,0.7s0.7,1.3,0.7,2.4v5.6h-0.7L109.1,299.2L109.1,299.2z"/>
			<path style="fill:#828282;" d="M116.1,299.3c-1.2,0-2.2-0.4-2.9-1.1c-0.7-0.8-1-1.8-1-3.2c0-1.4,0.3-2.4,1-3.3
				c0.7-0.8,1.6-1.2,2.7-1.2c1,0,1.8,0.3,2.4,1s0.9,1.6,0.9,2.8v0.6H113c0,1.2,0.3,2.1,0.8,2.7s1.3,0.9,2.3,0.9c0.5,0,0.9,0,1.3-0.1
				s0.8-0.2,1.4-0.4v0.7c-0.5,0.2-0.9,0.4-1.3,0.4C117,299.3,116.6,299.3,116.1,299.3z M115.9,291.2c-0.8,0-1.5,0.3-2,0.8
				s-0.8,1.3-0.9,2.3h5.3c0-1-0.2-1.8-0.6-2.3S116.6,291.2,115.9,291.2z"/>
		</g>
		<g>
			<path style="fill:#828282;" d="M71.2,342.8c0,1.9-0.5,3.4-1.5,4.3c-1,1-2.5,1.5-4.4,1.5h-2.7v-11.4h3.1c1.8,0,3.2,0.5,4.2,1.4
				S71.2,341,71.2,342.8z M70.3,342.9c0-1.6-0.4-2.9-1.2-3.7c-0.8-0.8-2.1-1.2-3.7-1.2h-2.1v10h1.9C68.6,348,70.3,346.3,70.3,342.9z
				"/>
			<path style="fill:#828282;" d="M77,348.8c-1.2,0-2.2-0.4-2.9-1.1c-0.7-0.8-1-1.8-1-3.2c0-1.4,0.3-2.4,1-3.3
				c0.7-0.8,1.6-1.2,2.7-1.2c1,0,1.8,0.3,2.4,1s0.9,1.6,0.9,2.8v0.6H74c0,1.2,0.3,2.1,0.8,2.7s1.3,0.9,2.3,0.9c0.5,0,0.9,0,1.3-0.1
				s0.8-0.2,1.4-0.4v0.7c-0.5,0.2-0.9,0.4-1.3,0.4C78,348.8,77.5,348.8,77,348.8z M76.8,340.7c-0.8,0-1.5,0.3-2,0.8
				s-0.8,1.3-0.9,2.3h5.3c0-1-0.2-1.8-0.6-2.3S77.6,340.7,76.8,340.7z"/>
			<path style="fill:#828282;" d="M83.2,348.7h-0.8v-12.2h0.8V348.7z"/>
			<path style="fill:#828282;" d="M89.4,348.8c-1.2,0-2.2-0.4-2.9-1.1c-0.7-0.8-1-1.8-1-3.2c0-1.4,0.3-2.4,1-3.3
				c0.7-0.8,1.6-1.2,2.7-1.2c1,0,1.8,0.3,2.4,1s0.9,1.6,0.9,2.8v0.6h-6.1c0,1.2,0.3,2.1,0.8,2.7s1.3,0.9,2.3,0.9
				c0.5,0,0.9,0,1.3-0.1s0.8-0.2,1.4-0.4v0.7c-0.5,0.2-0.9,0.4-1.3,0.4C90.4,348.8,89.9,348.8,89.4,348.8z M89.2,340.7
				c-0.8,0-1.5,0.3-2,0.8s-0.8,1.3-0.9,2.3h5.3c0-1-0.2-1.8-0.6-2.3S90,340.7,89.2,340.7z"/>
			<path style="fill:#828282;" d="M97,348.1c0.5,0,0.9,0,1.3-0.1v0.6c-0.4,0.1-0.8,0.2-1.3,0.2c-0.8,0-1.3-0.2-1.7-0.6
				c-0.4-0.4-0.5-1-0.5-1.9v-5.5h-1.3v-0.5l1.3-0.4l0.4-1.9h0.4v2.1h2.5v0.7h-2.5v5.4c0,0.7,0.1,1.1,0.3,1.4S96.6,348.1,97,348.1z"
				/>
			<path style="fill:#828282;" d="M103.6,348.8c-1.2,0-2.2-0.4-2.9-1.1c-0.7-0.8-1-1.8-1-3.2c0-1.4,0.3-2.4,1-3.3
				c0.7-0.8,1.6-1.2,2.7-1.2c1,0,1.8,0.3,2.4,1s0.9,1.6,0.9,2.8v0.6h-6.1c0,1.2,0.3,2.1,0.8,2.7s1.3,0.9,2.3,0.9
				c0.5,0,0.9,0,1.3-0.1s0.8-0.2,1.4-0.4v0.7c-0.5,0.2-0.9,0.4-1.3,0.4C104.5,348.8,104.1,348.8,103.6,348.8z M103.4,340.7
				c-0.8,0-1.5,0.3-2,0.8s-0.8,1.3-0.9,2.3h5.3c0-1-0.2-1.8-0.6-2.3S104.1,340.7,103.4,340.7z"/>
		</g>
		<g>
			<g>
				<path style="fill:#FFFFFF;" d="M33.9,29.2c1.2,0,2.2,0.2,3,0.6s1.6,1.2,2.3,2.2h0.1c-0.1-1.2-0.1-2.5-0.1-3.7v-5.8h1.5v23.1h-1
					l-0.4-2.5h-0.1c-1.2,1.8-3,2.8-5.3,2.8c-2.2,0-3.9-0.7-5.1-2.1s-1.8-3.4-1.8-6c0-2.8,0.6-4.9,1.8-6.4
					C30,29.9,31.7,29.2,33.9,29.2z M33.9,30.5c-1.8,0-3.1,0.6-4,1.9c-0.9,1.2-1.3,3-1.3,5.4c0,4.6,1.8,6.9,5.3,6.9
					c1.8,0,3.2-0.5,4-1.6c0.9-1.1,1.3-2.8,1.3-5.2v-0.3c0-2.5-0.4-4.3-1.3-5.4C37.2,31.1,35.8,30.5,33.9,30.5z"/>
				<path style="fill:#FFFFFF;" d="M53.4,45.9c-2.3,0-4.2-0.7-5.5-2.2c-1.3-1.4-2-3.5-2-6.1s0.6-4.6,1.9-6.2c1.3-1.5,3-2.3,5.1-2.3
					c1.9,0,3.4,0.7,4.5,2s1.6,3.1,1.6,5.4v1.2H47.5c0,2.2,0.5,3.9,1.5,5.1c1,1.2,2.5,1.8,4.4,1.8c0.9,0,1.7-0.1,2.4-0.2
					c0.7-0.1,1.6-0.4,2.6-0.8v1.3c-0.9,0.4-1.8,0.7-2.5,0.8C55.2,45.9,54.3,45.9,53.4,45.9z M52.9,30.5c-1.6,0-2.8,0.5-3.7,1.5
					s-1.5,2.5-1.6,4.4h10c0-1.9-0.4-3.3-1.2-4.4C55.5,31,54.4,30.5,52.9,30.5z"/>
				<path style="fill:#FFFFFF;" d="M74.3,41.4c0,1.4-0.5,2.6-1.6,3.3c-1.1,0.8-2.7,1.2-4.7,1.2c-2.2,0-3.9-0.3-5.1-1v-1.6
					c1.6,0.8,3.3,1.2,5.1,1.2c1.6,0,2.8-0.3,3.6-0.8c0.8-0.5,1.2-1.2,1.2-2.1c0-0.8-0.3-1.5-1-2c-0.7-0.6-1.7-1.1-3.2-1.6
					c-1.6-0.6-2.7-1.1-3.4-1.5c-0.7-0.4-1.1-0.9-1.5-1.4c-0.3-0.5-0.5-1.2-0.5-1.9c0-1.2,0.5-2.2,1.5-2.9s2.4-1.1,4.2-1.1
					c1.7,0,3.4,0.3,5,1l-0.5,1.3c-1.6-0.7-3-1-4.4-1c-1.3,0-2.4,0.2-3.1,0.7c-0.8,0.4-1.2,1-1.2,1.8s0.3,1.5,0.9,2s1.8,1.1,3.5,1.7
					c1.5,0.5,2.5,1,3.2,1.4s1.2,0.9,1.5,1.4C74.1,40.1,74.3,40.7,74.3,41.4z"/>
				<path style="fill:#FFFFFF;" d="M79,25c0-0.9,0.3-1.4,0.9-1.4c0.3,0,0.5,0.1,0.7,0.4s0.3,0.6,0.3,1.1c0,0.4-0.1,0.8-0.3,1.1
					s-0.4,0.4-0.7,0.4C79.3,26.5,79,26,79,25z M80.7,45.6h-1.5V29.5h1.5V45.6z"/>
				<path style="fill:#FFFFFF;" d="M99.4,29.5v1l-3.3,0.2c0.9,1.1,1.3,2.3,1.3,3.6c0,1.6-0.5,2.8-1.5,3.8s-2.4,1.4-4.2,1.4
					c-0.7,0-1.2,0-1.5-0.1c-0.6,0.3-1,0.7-1.3,1.1c-0.3,0.4-0.5,0.9-0.5,1.3c0,0.5,0.2,0.9,0.6,1.1s1,0.4,2,0.4h2.8
					c1.8,0,3.1,0.4,4,1.1c0.9,0.7,1.4,1.8,1.4,3.1c0,1.7-0.7,3-2.1,3.9s-3.3,1.4-5.9,1.4c-2,0-3.6-0.4-4.7-1.2s-1.7-1.9-1.7-3.3
					c0-1.1,0.3-2,1-2.8c0.7-0.7,1.6-1.2,2.8-1.5c-0.5-0.2-0.9-0.5-1.2-0.9c-0.3-0.4-0.4-0.8-0.4-1.3c0-1.1,0.7-2,2.1-2.8
					c-0.9-0.4-1.7-1-2.2-1.8s-0.8-1.8-0.8-2.8c0-1.6,0.5-2.9,1.5-3.9S90,29,91.7,29c1.1,0,1.9,0.1,2.5,0.3h5.2
					C99.4,29.3,99.4,29.5,99.4,29.5z M86.3,48.4c0,2.2,1.6,3.3,4.9,3.3c4.2,0,6.3-1.3,6.3-4c0-1-0.3-1.7-1-2.1
					c-0.7-0.4-1.7-0.7-3.2-0.7h-2.6C87.8,44.9,86.3,46,86.3,48.4z M87.6,34.5c0,1.2,0.4,2.2,1.1,2.9c0.8,0.7,1.8,1,3,1
					c1.3,0,2.4-0.3,3.1-1s1.1-1.7,1.1-3c0-1.4-0.4-2.4-1.1-3.1c-0.7-0.7-1.8-1-3.1-1c-1.3,0-2.3,0.4-3,1.1
					C87.9,32.2,87.6,33.2,87.6,34.5z"/>
				<path style="fill:#FFFFFF;" d="M114.7,45.6V35.1c0-1.6-0.3-2.8-1-3.5s-1.7-1.1-3.2-1.1c-1.9,0-3.3,0.5-4.2,1.5
					c-0.9,1-1.3,2.6-1.3,4.7v8.9h-1.5V29.5h1.2l0.3,2.2h0.1c1-1.7,2.9-2.5,5.6-2.5c3.7,0,5.5,2,5.5,5.9v10.5L114.7,45.6L114.7,45.6z
					"/>
				<path style="fill:#FFFFFF;" d="M150.9,45.6V35c0-1.6-0.3-2.7-0.9-3.4s-1.6-1.1-2.8-1.1c-1.7,0-2.9,0.5-3.7,1.4s-1.2,2.3-1.2,4.3
					v9.4h-1.5v-11c0-2.7-1.2-4.1-3.7-4.1c-1.7,0-2.9,0.5-3.7,1.5c-0.8,1-1.2,2.6-1.2,4.7v8.9h-1.5V29.5h1.2l0.3,2.2h0.1
					c0.4-0.8,1.1-1.4,1.9-1.9c0.8-0.4,1.7-0.7,2.7-0.7c2.5,0,4.2,1,4.9,2.9h0.1c0.5-0.9,1.2-1.6,2.1-2.1s1.9-0.7,3-0.7
					c1.8,0,3.1,0.5,4,1.4s1.3,2.4,1.3,4.5v10.5H150.9L150.9,45.6z"/>
				<path style="fill:#FFFFFF;" d="M168.1,45.6l-0.4-2.6h-0.1c-0.8,1-1.6,1.8-2.5,2.2s-1.9,0.6-3,0.6c-1.6,0-2.8-0.4-3.7-1.2
					s-1.3-1.9-1.3-3.4c0-1.6,0.7-2.8,2-3.7s3.2-1.3,5.7-1.4l3.1-0.1v-1.1c0-1.5-0.3-2.7-0.9-3.5c-0.6-0.8-1.6-1.2-3-1.2
					c-1.5,0-3,0.4-4.6,1.2l-0.5-1.3c1.8-0.8,3.5-1.2,5.2-1.2c1.8,0,3.1,0.5,4,1.4s1.3,2.4,1.3,4.3v10.7h-1.3V45.6z M162.2,44.6
					c1.7,0,3.1-0.5,4.1-1.5s1.5-2.3,1.5-4.1v-1.6l-2.8,0.1c-2.3,0.1-3.9,0.5-4.8,1.1c-1,0.6-1.4,1.5-1.4,2.8c0,1,0.3,1.8,0.9,2.4
					C160.2,44.3,161.1,44.6,162.2,44.6z"/>
				<path style="fill:#FFFFFF;" d="M182.1,45.9c-2.5,0-4.3-0.9-5.4-2.8h-0.1v1.2c0,0.7,0.1,1.5,0.1,2.4v6.1h-1.5V29.4h1.2l0.3,2.3
					h0.1c1.1-1.7,2.9-2.6,5.3-2.6c2.2,0,3.8,0.7,5,2.1s1.7,3.5,1.7,6.2c0,2.6-0.6,4.7-1.8,6.2S184.2,45.9,182.1,45.9z M182.1,44.6
					c1.7,0,2.9-0.6,3.8-1.8s1.4-2.9,1.4-5.1c0-4.7-1.7-7.1-5.1-7.1c-1.9,0-3.3,0.5-4.1,1.5c-0.8,1-1.3,2.7-1.3,5v0.5
					c0,2.5,0.4,4.3,1.3,5.4C178.8,44.1,180.2,44.6,182.1,44.6z"/>
			</g>
			<g>
				<circle style="fill:#FFFFFF;" cx="123.8" cy="42" r="2"/>
			</g>
			<g>
				<circle style="fill:#FFFFFF;" cx="123.8" cy="34.5" r="2"/>
			</g>
			<g>
				<circle style="fill:#FFFFFF;" cx="18" cy="42" r="2"/>
			</g>
			<g>
				<circle style="fill:#FFFFFF;" cx="18" cy="34.5" r="2"/>
			</g>
		</g>
		<g>
			
				<line style="fill:none;stroke:#828282;stroke-linecap:round;stroke-linejoin:round;stroke-miterlimit:10;" x1="32.4" y1="349.1" x2="16.9" y2="333.6"/>
			
				<line style="fill:none;stroke:#828282;stroke-linecap:round;stroke-linejoin:round;stroke-miterlimit:10;" x1="32.4" y1="332.9" x2="16.9" y2="348.4"/>
		</g>
		<g>
			<g>
				<path style="fill:none;stroke:#828282;stroke-linecap:round;stroke-linejoin:round;stroke-miterlimit:10;" d="M36,284.6
					c-1.2-1.2-3.1-1.2-4.2,0l-10.1,10.1c-1.2,1.2-2.7,3.3-3.5,4.8l-2.3,4.4c-0.8,1.5-0.2,2,1.3,1.3l4.4-2.3c1.5-0.8,3.6-2.3,4.8-3.5
					l10.1-10.1c1.2-1.2,1.2-3.1,0-4.2L36,284.6z"/>
			</g>
			
				<line style="fill:none;stroke:#828282;stroke-linecap:round;stroke-linejoin:round;stroke-miterlimit:10;" x1="30.5" y1="285.8" x2="35.2" y2="290.5"/>
			
				<line style="fill:none;stroke:#828282;stroke-linecap:round;stroke-linejoin:round;stroke-miterlimit:10;" x1="18.7" y1="299.3" x2="21.7" y2="302.3"/>
		</g>
		<g>
			<g>
				<polyline style="fill:#FFFFFF;stroke:#69BFFF;stroke-linecap:round;stroke-linejoin:round;stroke-miterlimit:10;" points="
					457.5,90 457.5,87.5 466.5,87.5 466.5,90 				"/>
				<path style="fill:#69BFFF;stroke:#69BFFF;stroke-linecap:round;stroke-linejoin:round;stroke-miterlimit:10;" d="M476.6,106.5
					h-16.1c-1.7,0-3-1.4-3-3.1V89.8v0.7h19c1.7,0,2.9,0.6,2.9,2.2v10.7C479.5,105.1,478.2,106.5,476.6,106.5z"/>
				<path style="fill:#69BFFF;stroke:#69BFFF;stroke-linecap:round;stroke-linejoin:round;stroke-miterlimit:10;" d="M538.5,108.5
					c-1.4,0-3-2.1-3-3.5V91.6l5-4.1h8.5c1.4,0,2.5,0.4,2.5,1.8V105c0,1.4-1,3.5-2.5,3.5H538.5z"/>
				
					<line style="fill:none;stroke:#FFFFFF;stroke-linecap:round;stroke-linejoin:round;stroke-miterlimit:10;" x1="468.5" y1="93" x2="468.5" y2="103"/>
				
					<line style="fill:none;stroke:#FFFFFF;stroke-linecap:round;stroke-linejoin:round;stroke-miterlimit:10;" x1="464" y1="98.5" x2="473" y2="98.5"/>
				<path style="fill:#FFFFFF;" d="M541,87v2.9c0,1.1-0.5,2.1-1.6,2.1H536"/>
				
					<line style="fill:none;stroke:#FFFFFF;stroke-linecap:round;stroke-linejoin:round;stroke-miterlimit:10;" x1="543.5" y1="93" x2="543.5" y2="103"/>
				
					<line style="fill:none;stroke:#FFFFFF;stroke-linecap:round;stroke-linejoin:round;stroke-miterlimit:10;" x1="540" y1="98.5" x2="549" y2="98.5"/>
			</g>
		</g>
		<g>
			<path style="fill:#6EBAF9;" d="M255.5,105.9l-6.4-15.8H249c0.1,1,0.1,2,0.1,3v12.8H248V88.8h1.9l6.1,15.1h0.1l6.1-15.1h1.8v17.1
				h-1.2v-13c0-0.9,0-1.8,0.1-2.8h-0.1l-6.4,15.8H255.5z"/>
			<path style="fill:#6EBAF9;" d="M265.7,93.2h1.2l2.7,7.1c0.8,2.2,1.3,3.7,1.6,4.4h0.1c0.3-1,0.9-2.5,1.6-4.5l2.7-7.1h1.2L271,108
				c-0.5,1.2-0.8,2-1.2,2.4s-0.7,0.7-1.1,0.9s-0.9,0.3-1.5,0.3c-0.4,0-0.9-0.1-1.5-0.2v-1c0.5,0.1,0.9,0.2,1.5,0.2
				c0.4,0,0.8-0.1,1.1-0.3s0.6-0.5,0.8-0.9s0.5-1,0.9-1.9s0.5-1.4,0.6-1.7L265.7,93.2z"/>
			<path style="fill:#6EBAF9;" d="M288.9,94.2h-3v11.7h-1.2V94.2h-2.4v-0.7l2.4-0.4v-1c0-1.6,0.3-2.7,0.9-3.4s1.5-1.1,2.8-1.1
				c0.7,0,1.4,0.1,2.1,0.3l-0.3,1c-0.6-0.2-1.2-0.3-1.9-0.3c-0.9,0-1.5,0.3-1.9,0.8s-0.6,1.4-0.6,2.6v1.2h3v1H288.9z"/>
			<path style="fill:#6EBAF9;" d="M290.7,89.6c0-0.8,0.2-1.1,0.7-1.1c0.2,0,0.4,0.1,0.6,0.3s0.2,0.5,0.2,0.8c0,0.4-0.1,0.6-0.2,0.8
				s-0.3,0.3-0.6,0.3C290.9,90.8,290.7,90.4,290.7,89.6z M292,105.9h-1.2V93.2h1.2V105.9z"/>
			<path style="fill:#6EBAF9;" d="M300.8,92.9c0.5,0,1.1,0.1,1.7,0.2l-0.2,1.1c-0.5-0.1-1.1-0.2-1.7-0.2c-1.1,0-2,0.5-2.7,1.4
				s-1,2.1-1,3.5v7h-1.2V93.2h1l0.1,2.3h0.1c0.5-0.9,1.1-1.6,1.7-2S300,92.9,300.8,92.9z"/>
			<path style="fill:#6EBAF9;" d="M312.6,102.6c0,1.1-0.4,2-1.3,2.6s-2.1,0.9-3.7,0.9c-1.7,0-3.1-0.3-4.1-0.8V104
				c1.3,0.6,2.6,1,4.1,1c1.3,0,2.2-0.2,2.9-0.6s1-1,1-1.7c0-0.6-0.3-1.2-0.8-1.6s-1.4-0.9-2.6-1.3c-1.3-0.5-2.2-0.9-2.7-1.2
				s-0.9-0.7-1.2-1.1s-0.4-0.9-0.4-1.5c0-1,0.4-1.7,1.2-2.3s1.9-0.8,3.4-0.8c1.4,0,2.7,0.3,3.9,0.8l-0.4,1.1
				c-1.3-0.5-2.4-0.8-3.5-0.8c-1,0-1.9,0.2-2.5,0.5s-0.9,0.8-0.9,1.4c0,0.7,0.2,1.2,0.7,1.6s1.4,0.8,2.8,1.3c1.1,0.4,2,0.8,2.5,1.1
				s0.9,0.7,1.2,1.1S312.6,102,312.6,102.6z"/>
			<path style="fill:#6EBAF9;" d="M318.7,105.1c0.7,0,1.4-0.1,1.9-0.2v0.9c-0.6,0.2-1.2,0.3-1.9,0.3c-1.1,0-2-0.3-2.5-0.9
				s-0.8-1.5-0.8-2.8v-8.2h-1.9v-0.7l1.9-0.5l0.6-2.9h0.6v3.1h3.7v1h-3.7v8.1c0,1,0.2,1.7,0.5,2.2S318,105.1,318.7,105.1z"/>
			<path style="fill:#6EBAF9;" d="M339.3,93.7c0,1.7-0.6,2.9-1.7,3.8s-2.7,1.3-4.8,1.3h-2.6v7.1H329V88.8h4.2
				C337.3,88.8,339.3,90.4,339.3,93.7z M330.2,97.8h2.4c1.9,0,3.3-0.3,4.2-1s1.3-1.7,1.3-3.1c0-1.3-0.4-2.3-1.2-2.9s-2.1-1-3.8-1
				h-2.8v8H330.2z"/>
			<path style="fill:#6EBAF9;" d="M347.3,92.9c0.5,0,1.1,0.1,1.7,0.2l-0.2,1.1c-0.5-0.1-1.1-0.2-1.7-0.2c-1.1,0-2,0.5-2.7,1.4
				s-1,2.1-1,3.5v7h-1.2V93.2h1l0.1,2.3h0.1c0.5-0.9,1.1-1.6,1.7-2S346.4,92.9,347.3,92.9z"/>
			<path style="fill:#6EBAF9;" d="M361.6,99.5c0,2.1-0.5,3.7-1.5,4.9s-2.4,1.8-4.2,1.8c-1.1,0-2.1-0.3-3-0.8s-1.5-1.3-2-2.3
				s-0.7-2.2-0.7-3.5c0-2.1,0.5-3.7,1.5-4.9s2.4-1.7,4.1-1.7c1.8,0,3.1,0.6,4.1,1.8S361.6,97.5,361.6,99.5z M351.6,99.5
				c0,1.8,0.4,3.1,1.2,4.1s1.9,1.5,3.3,1.5s2.5-0.5,3.3-1.5s1.2-2.3,1.2-4.1s-0.4-3.1-1.2-4.1s-1.9-1.5-3.3-1.5s-2.5,0.5-3.3,1.4
				S351.6,97.8,351.6,99.5z"/>
			<path style="fill:#6EBAF9;" d="M363,111.7c-0.6,0-1.2-0.1-1.6-0.3v-1c0.5,0.2,1,0.2,1.5,0.2c1.2,0,1.8-0.7,1.8-2.1V93.1h1.2v15.2
				c0,1.1-0.2,1.9-0.7,2.4S363.9,111.7,363,111.7z M364.5,89.6c0-0.8,0.2-1.1,0.7-1.1c0.2,0,0.4,0.1,0.6,0.3s0.2,0.5,0.2,0.8
				c0,0.4-0.1,0.6-0.2,0.8s-0.3,0.3-0.6,0.3C364.8,90.8,364.5,90.4,364.5,89.6z"/>
			<path style="fill:#6EBAF9;" d="M374.8,106.1c-1.9,0-3.3-0.6-4.3-1.7s-1.6-2.7-1.6-4.8c0-2,0.5-3.7,1.5-4.9s2.3-1.8,4-1.8
				c1.5,0,2.7,0.5,3.6,1.6s1.3,2.5,1.3,4.3v0.9h-9.2c0,1.8,0.4,3.1,1.2,4s1.9,1.4,3.4,1.4c0.7,0,1.4-0.1,1.9-0.2s1.2-0.3,2.1-0.7
				v1.1c-0.7,0.3-1.4,0.5-2,0.6S375.5,106.1,374.8,106.1z M374.4,94c-1.2,0-2.2,0.4-3,1.2s-1.2,2-1.3,3.5h7.9c0-1.5-0.3-2.6-1-3.5
				S375.6,94,374.4,94z"/>
			<path style="fill:#6EBAF9;" d="M387.4,106.1c-1.8,0-3.2-0.6-4.3-1.7s-1.5-2.8-1.5-4.8c0-2.1,0.5-3.8,1.6-4.9s2.5-1.8,4.4-1.8
				c1.1,0,2.2,0.2,3.2,0.6l-0.3,1c-1.1-0.4-2.1-0.6-2.9-0.6c-1.6,0-2.7,0.5-3.6,1.4s-1.2,2.4-1.2,4.2c0,1.7,0.4,3.1,1.2,4
				s1.9,1.5,3.4,1.5c1.2,0,2.2-0.2,3.2-0.6v1.1C389.8,105.9,388.7,106.1,387.4,106.1z"/>
			<path style="fill:#6EBAF9;" d="M396.6,105.1c0.7,0,1.4-0.1,1.9-0.2v0.9c-0.6,0.2-1.2,0.3-1.9,0.3c-1.1,0-2-0.3-2.5-0.9
				s-0.8-1.5-0.8-2.8v-8.2h-1.9v-0.7l1.9-0.5l0.6-2.9h0.6v3.1h3.7v1h-3.7v8.1c0,1,0.2,1.7,0.5,2.2S395.9,105.1,396.6,105.1z"/>
		</g>
		<g>
			<rect x="1646.4" y="30" style="fill:none;" width="238.6" height="52.2"/>
			<text transform="matrix(1 0 0 1 1646.3828 42.1597)" style="fill:#848484; font-family:'OpenSans-Light'; font-size:16px;">designmap.ru@gmail.com</text>
		</g>
		<g>
			<ellipse style="fill:#CA6600;stroke:#FFFFFF;stroke-width:2;stroke-miterlimit:10;" cx="1870.4" cy="35.3" rx="22.6" ry="22.5"/>
			<g>
				<g>
					<path style="fill:#F5E6D2;" d="M1878.4,34.1c0.3-0.4,1.6-0.7,2.1-0.4c0.9,0.5,0.8,1.7,0.6,2.4c-0.2,1-0.7,2.1-1.3,3
						c-0.2,0.3-1.4,1.4-1.8,1.5"/>
				</g>
				<g>
					<path style="fill:#F5E6D2;" d="M1863.4,34c-0.3-0.4-1.5-0.6-1.9-0.3c-0.8,0.5-0.7,1.7-0.5,2.4c0.2,1,0.6,2.1,1.2,3
						c0.2,0.3,1.2,1.1,1.5,1.3"/>
				</g>
				<g>
					<path style="fill:#F5E6D2;" d="M1878.9,35c0,2.2-0.2,6.7-1,8.5c-1.7,3.4-4.1,5.9-7.1,5.9s-5.7-2.5-6.9-6c-0.6-1.8-1-6-1-8.2
						c0-6.5,2.5-12,7.9-12S1878.9,28.5,1878.9,35z"/>
				</g>
				<g>
					<path style="fill:#5E3800;" d="M1873.2,33.4c-0.1,0-0.2-0.1-0.2-0.2c0-0.1,0.1-0.3,0.2-0.3l3.1-0.7c0.1,0,0.3,0.1,0.3,0.2
						c0,0.1-0.1,0.3-0.2,0.3L1873.2,33.4C1873.3,33.4,1873.3,33.4,1873.2,33.4z"/>
				</g>
				<g>
					<path style="fill:#5E3800;" d="M1868.1,33.4L1868.1,33.4l-3.2-0.7c-0.1,0-0.2-0.2-0.2-0.3s0.2-0.2,0.3-0.2l3.1,0.7
						c0.1,0,0.2,0.2,0.2,0.3S1868.2,33.4,1868.1,33.4z"/>
				</g>
				<g>
					<path style="fill:#E3B295;" d="M1870.8,44.8c-0.3,0-1.7-0.1-2.2-0.7l-0.1,0.1c-0.1,0.1-0.2,0.1-0.3,0c-0.1-0.1-0.1-0.2,0-0.3
						l0.3-0.3c0.1-0.1,0.1-0.1,0.2-0.1s0.1,0.1,0.2,0.2c0.1,0.4,1.2,0.6,2,0.7c0.7,0,1.7-0.2,1.8-0.6c0-0.1,0.1-0.1,0.2-0.2
						c0.1,0,0.2,0,0.2,0l0.3,0.2c0.1,0.1,0.1,0.2,0.1,0.3c-0.1,0.1-0.2,0.1-0.3,0.1l-0.1-0.1C1872.4,44.7,1871,44.8,1870.8,44.8z"/>
				</g>
				<g>
					<g>
						<path style="fill:#5E3800;" d="M1875.1,37.2c-0.9,0-1.5-0.5-1.8-1.4h-0.4c-0.1,0-0.2-0.1-0.2-0.3c0-0.1,0.1-0.2,0.2-0.2h0.7
							v0.2c0.2,0.8,0.6,1.2,1.4,1.2c0.9,0,1.1-0.6,1.3-1.3l0.1-0.3h0.9c0.1,0,0.2,0.4,0.2,0.5s-0.1,0.5-0.2,0.5h-0.5
							C1876.5,36,1876.2,37.2,1875.1,37.2z"/>
					</g>
				</g>
				<g>
					<g>
						<path style="fill:#5E3800;" d="M1866.3,37.2c-0.9,0-1.5-0.5-1.8-1.4h-0.4c-0.1,0-0.2-0.1-0.2-0.3c0-0.1,0.1-0.2,0.2-0.2h0.7
							v0.2c0.2,0.8,0.6,1.2,1.4,1.2c0.9,0,1.1-0.6,1.3-1.3l0.1-0.3h0.9c0.1,0,0.2,0.4,0.2,0.5s-0.1,0.5-0.2,0.5h-0.5
							C1867.8,36,1867.4,37.2,1866.3,37.2z"/>
					</g>
				</g>
				<g>
					<path style="fill:#5D2C42;" d="M1878.9,35.7c0.2-1.2,2.5-6.3,1.2-9.2c-1.8-4.1-4.3-6.4-9.3-7c-1-0.1-3.1-1.5-3.7-0.6
						c-0.7,1-1,1.8-1.9,2.5c-1.1,0.8-2.3,3-2.9,4.2c-2,3.7,0.6,9.6,0.6,9.8c-0.1-3.1,0.7-5.5,2.3-7.8c1.2-1.8,9.7-1.1,11.1-0.1
						C1879.5,29.6,1878.2,32.7,1878.9,35.7z"/>
				</g>
				<g>
					<path style="fill:#5D2C42;" d="M1873.7,49.4c-1.2,1.4-5.2,1.2-6.2,0c-0.6-0.6-0.7-1.3-1-2.1c2.6,1.1,5.6,1.5,8.4,0
						C1874.8,47.4,1874.2,48.8,1873.7,49.4z"/>
				</g>
			</g>
		</g>
		<g>
			<g>
				<g>
					<path style="fill:#848484;" d="M1627,39v-0.4c0-1.1,0.2-2,0.5-2.7s1-1.5,1.9-2.3l1.2-1.1c0.7-0.6,1.1-1.1,1.4-1.7
						c0.3-0.5,0.4-1.2,0.4-1.9c0-1.2-0.4-2.1-1.1-2.8c-0.8-0.7-1.8-1-3-1c-0.7,0-1.4,0.1-2,0.2c-0.6,0.2-1.3,0.4-2,0.8l-0.5-1.1
						c1-0.4,1.8-0.7,2.5-0.9c0.7-0.1,1.4-0.2,2.1-0.2c1.7,0,3,0.4,3.9,1.3c1,0.9,1.4,2.1,1.4,3.7c0,0.6-0.1,1.2-0.2,1.6
						s-0.4,0.9-0.7,1.3c-0.3,0.4-0.7,0.8-1.1,1.1c-0.4,0.4-0.9,0.8-1.4,1.2c-0.6,0.5-1,0.9-1.3,1.3c-0.3,0.4-0.6,0.8-0.7,1.3
						c-0.1,0.4-0.3,1.1-0.3,2v0.1h-1L1627,39L1627,39z M1626.5,43.2c0-0.9,0.4-1.3,1.1-1.3s1.1,0.4,1.1,1.3c0,0.9-0.4,1.3-1.1,1.3
						C1626.9,44.6,1626.5,44.1,1626.5,43.2z"/>
				</g>
			</g>
		</g>
	</g>
</g>
<rect x="484.8" y="132.3" style="fill:#F2F2F2;" width="248.7" height="208"/>
<rect x="751.8" y="132.3" style="fill:#F2F2F2;" width="248.7" height="208"/>
<rect x="251" y="170" style="fill:#E0E0E0;" width="192" height="125"/>
<rect x="251" y="159" style="fill:#CCCCCC;" width="74" height="11"/>
<g>
	<rect x="250.8" y="307" style="fill:none;" width="159.5" height="38.6"/>
	<text transform="matrix(1 0 0 1 250.772 317.584)" style="fill:#848484; font-family:'OpenSans-Light'; font-size:13.9134px;">Folder 1</text>
</g>
<rect x="512" y="170" style="fill:#E0E0E0;" width="192" height="125"/>
<rect x="512" y="159" style="fill:#CCCCCC;" width="73" height="11"/>
<g>
	<rect x="511.6" y="307" style="fill:none;" width="159.5" height="38.6"/>
	<text transform="matrix(1 0 0 1 511.6338 317.584)" style="fill:#848484; font-family:'OpenSans-Light'; font-size:13.9134px;">Папка 2</text>
</g>
<rect x="775" y="170" style="fill:#E0E0E0;" width="192" height="125"/>
<rect x="775" y="159" style="fill:#CCCCCC;" width="73" height="11"/>
<g>
	<rect x="774.5" y="307" style="fill:none;" width="159.5" height="38.6"/>
	<text transform="matrix(1 0 0 1 774.4971 317.584)" style="fill:#848484; font-family:'OpenSans-Light'; font-size:13.9134px;">Папка 3</text>
</g>
<g>
	<g>
		<rect x="1" y="-2" style="opacity:0.5;enable-background:new    ;" width="1920" height="956"/>
		<rect x="1801" y="-5" style="opacity:0.3;enable-background:new    ;" width="120" height="956"/>
		<g>
			<line style="fill:none;stroke:#FFFFFF;stroke-width:2;stroke-miterlimit:10;" x1="1839" y1="386.5" x2="1909" y2="456.5"/>
			<line style="fill:none;stroke:#FFFFFF;stroke-width:2;stroke-miterlimit:10;" x1="1909" y1="455.5" x2="1839" y2="525.5"/>
		</g>
		<g>
			<rect x="5" style="fill-opacity:0;" width="120" height="956"/>
			<g style="opacity:0.4;">
				<line style="fill:none;stroke:#FFFFFF;stroke-width:2;stroke-miterlimit:10;" x1="98" y1="386.5" x2="28" y2="456.5"/>
				<line style="fill:none;stroke:#FFFFFF;stroke-width:2;stroke-miterlimit:10;" x1="28" y1="455.5" x2="98" y2="525.5"/>
			</g>
		</g>
		<g>
			<circle style="opacity:0.3;enable-background:new    ;" cx="985" cy="61" r="32"/>
			<g id="unlock_2px_small_1_">
				
					<line style="fill:none;stroke:#FFFFFF;stroke-width:2;stroke-linecap:round;stroke-miterlimit:10;" x1="979" y1="77" x2="999" y2="77"/>
				
					<line style="fill:none;stroke:#FFFFFF;stroke-width:2;stroke-linecap:round;stroke-miterlimit:10;" x1="974" y1="61" x2="974" y2="72"/>
				
					<line style="fill:none;stroke:#FFFFFF;stroke-width:2;stroke-linecap:round;stroke-miterlimit:10;" x1="1004" y1="61" x2="1004" y2="72"/>
				<path style="fill:none;stroke:#FFFFFF;stroke-width:2;stroke-linecap:round;stroke-miterlimit:10;" d="M974,72c0,4,1.9,5,5.9,5"
					/>
				<path style="fill:none;stroke:#FFFFFF;stroke-width:2;stroke-linecap:round;stroke-miterlimit:10;" d="M1004,72c0,4-1,5-5,5"/>
				
					<line style="fill:none;stroke:#FFFFFF;stroke-width:2;stroke-linecap:round;stroke-miterlimit:10;" x1="979" y1="56" x2="1000" y2="56"/>
				<path style="fill:none;stroke:#FFFFFF;stroke-width:2;stroke-linecap:round;stroke-miterlimit:10;" d="M974,61c0-4,1.9-5,6-5"/>
				<path style="fill:none;stroke:#FFFFFF;stroke-width:2;stroke-linecap:round;stroke-miterlimit:10;" d="M1004,61c0-4-1-5-5-5"/>
				<path style="fill:none;stroke:#FFFFFF;stroke-width:2;stroke-linecap:round;stroke-miterlimit:10;" d="M981.4,54.9
					c0-7.8-2-13-8-13s-8,5.2-8,13"/>
				<path style="fill:none;stroke:#FFFFFF;stroke-width:2;stroke-linecap:round;stroke-miterlimit:10;" d="M991,69c0,0.6-0.4,1-1,1
					h-2c-0.6,0-1-0.4-1-1v-4c0-0.6,0.4-1,1-1h2c0.6,0,1,0.4,1,1V69z"/>
			</g>
		</g>
		<g>
			<circle style="opacity:0.3;enable-background:new    ;" cx="898" cy="61" r="32"/>
			<g id="download_2px_small_1_">
				<g>
					
						<line style="fill:none;stroke:#FFFFFF;stroke-width:2;stroke-linecap:round;stroke-miterlimit:10;" x1="890.8" y1="61.8" x2="899.2" y2="70.2"/>
					
						<line style="fill:none;stroke:#FFFFFF;stroke-width:2;stroke-linecap:round;stroke-miterlimit:10;" x1="899.5" y1="69.9" x2="907.9" y2="61.4"/>
				</g>
				
					<line style="fill:none;stroke:#FFFFFF;stroke-width:2;stroke-linecap:round;stroke-miterlimit:10;" x1="899" y1="70" x2="899" y2="44"/>
				
					<line style="fill:none;stroke:#FFFFFF;stroke-width:2;stroke-linecap:round;stroke-miterlimit:10;" x1="908" y1="74" x2="890" y2="74"/>
			</g>
		</g>
		<g>
			<circle style="opacity:0.3;enable-background:new    ;" cx="811" cy="61" r="32"/>
			<g id="del_2px_small_2_">
				
					<line style="fill:none;stroke:#FFFFFF;stroke-width:2;stroke-linecap:round;stroke-miterlimit:10;" x1="806" y1="76" x2="818" y2="76"/>
				
					<line style="fill:none;stroke:#FFFFFF;stroke-width:2;stroke-linecap:round;stroke-miterlimit:10;" x1="799.4" y1="53.9" x2="801.4" y2="70.9"/>
				
					<line style="fill:none;stroke:#FFFFFF;stroke-width:2;stroke-linecap:round;stroke-miterlimit:10;" x1="825.4" y1="53.9" x2="823.4" y2="70.9"/>
				<path style="fill:none;stroke:#FFFFFF;stroke-width:2;stroke-linecap:round;stroke-miterlimit:10;" d="M801.4,70.9c1,5,3,5,5,5"
					/>
				<path style="fill:none;stroke:#FFFFFF;stroke-width:2;stroke-linecap:round;stroke-miterlimit:10;" d="M823.4,70.9c-1,5-3,5-5,5
					"/>
				
					<line style="fill:none;stroke:#FFFFFF;stroke-width:2;stroke-linecap:round;stroke-miterlimit:10;" x1="804" y1="51" x2="820" y2="51"/>
				
					<line style="fill:none;stroke:#FFFFFF;stroke-width:2;stroke-linecap:round;stroke-miterlimit:10;" x1="800" y1="48" x2="824" y2="48"/>
				<path style="fill:none;stroke:#FFFFFF;stroke-width:2;stroke-linecap:round;stroke-miterlimit:10;" d="M799.4,53.9c0-3,2-3,5-3"
					/>
				<path style="fill:none;stroke:#FFFFFF;stroke-width:2;stroke-linecap:round;stroke-miterlimit:10;" d="M825.4,53.9c0-3-2-3-5-3"
					/>
				<path style="fill:none;stroke:#FFFFFF;stroke-width:2;stroke-linecap:round;stroke-miterlimit:10;" d="M815.4,47.4
					c0-1.9-1.6-3.5-3.5-3.5s-3.5,1.6-3.5,3.5"/>
				
					<line style="fill:none;stroke:#FFFFFF;stroke-width:2;stroke-linecap:round;stroke-miterlimit:10;" x1="808.9" y1="68.5" x2="816" y2="61.5"/>
				
					<line style="fill:none;stroke:#FFFFFF;stroke-width:2;stroke-linecap:round;stroke-miterlimit:10;" x1="808.9" y1="61.5" x2="816" y2="68.5"/>
			</g>
		</g>
		<circle style="opacity:0.3;enable-background:new    ;" cx="1121.7" cy="905" r="20"/>
		<g>
			<circle style="opacity:0.3;enable-background:new    ;" cx="784.3" cy="905" r="20"/>
		</g>
		<g style="display:none;">
			<path style="display:inline;opacity:0.3;enable-background:new    ;" d="M1163,94h-64c-17.7,0-32-14.3-32-32l0,0
				c0-17.7,14.3-32,32-32h64c17.7,0,32,14.3,32,32l0,0C1195,79.7,1180.7,94,1163,94z"/>
			<g style="display:inline;">
				<g>
					<circle style="opacity:0.5;fill:#79B9EF;enable-background:new    ;" cx="1163" cy="62" r="32"/>
				</g>
			</g>
			<g style="display:inline;">
				
					<line style="fill:none;stroke:#FFFFFF;stroke-width:2;stroke-linecap:round;stroke-miterlimit:10;" x1="1161.8" y1="55" x2="1176.1" y2="40.8"/>
				
					<line style="fill:none;stroke:#FFFFFF;stroke-width:2;stroke-linecap:round;stroke-miterlimit:10;" x1="1177.3" y1="43.2" x2="1176.1" y2="40.8"/>
				
					<line style="fill:none;stroke:#FFFFFF;stroke-width:2;stroke-linecap:round;stroke-miterlimit:10;" x1="1167.8" y1="62.2" x2="1182" y2="47.9"/>
				
					<line style="fill:none;stroke:#FFFFFF;stroke-width:2;stroke-linecap:round;stroke-miterlimit:10;" x1="1177.3" y1="43.2" x2="1180.8" y2="43.8"/>
				
					<line style="fill:none;stroke:#FFFFFF;stroke-width:2;stroke-linecap:round;stroke-miterlimit:10;" x1="1180.8" y1="43.8" x2="1182" y2="47.9"/>
				
					<line style="fill:none;stroke:#FFFFFF;stroke-width:2;stroke-linecap:round;stroke-miterlimit:10;" x1="1164.2" y1="58.6" x2="1166.6" y2="58"/>
				
					<line style="fill:none;stroke:#FFFFFF;stroke-width:2;stroke-linecap:round;stroke-miterlimit:10;" x1="1166.6" y1="58" x2="1167.8" y2="62.2"/>
				
					<line style="fill:none;stroke:#FFFFFF;stroke-width:2;stroke-linecap:round;stroke-miterlimit:10;" x1="1164.2" y1="58.6" x2="1163.6" y2="56.2"/>
				
					<line style="fill:none;stroke:#FFFFFF;stroke-width:2;stroke-linecap:round;stroke-miterlimit:10;" x1="1161.8" y1="55" x2="1163.6" y2="56.2"/>
			</g>
			<path style="display:inline;fill:none;stroke:#FFFFFF;stroke-width:2;stroke-linecap:round;stroke-miterlimit:10;" d="M1178.1,52
				c4,0,4.9,1,4.9,5v13c0,4-1,5-5,5h-29.1c-4.1,0-5.9-1-5.9-5V57c0-4,1.9-5,6-5l0,0h15"/>
			<rect x="1151" y="59" style="display:inline;fill:none;" width="21" height="26"/>
			
				<text transform="matrix(1 0 0 1 1151 67.52)" style="display:inline;fill:#FFFFFF; font-family:'MyriadPro-Regular'; font-size:12px;">1</text>
		</g>
		<g>
			<path style="opacity:0.3;enable-background:new    ;" d="M1139,93h-64c-17.7,0-32-14.3-32-32l0,0c0-17.7,14.3-32,32-32h64
				c17.7,0,32,14.3,32,32l0,0C1171,78.7,1156.7,93,1139,93z"/>
			<g>
				<circle style="opacity:0.3;enable-background:new    ;" cx="1076" cy="61" r="32"/>
			</g>
			
				<line style="fill:none;stroke:#FFFFFF;stroke-width:2;stroke-linecap:round;stroke-miterlimit:10;" x1="1062" y1="75" x2="1092" y2="75"/>
			
				<line style="fill:none;stroke:#FFFFFF;stroke-width:2;stroke-linecap:round;stroke-miterlimit:10;" x1="1057" y1="57" x2="1057" y2="70"/>
			
				<line style="fill:none;stroke:#FFFFFF;stroke-width:2;stroke-linecap:round;stroke-miterlimit:10;" x1="1097" y1="57" x2="1097" y2="70"/>
			<path style="fill:none;stroke:#FFFFFF;stroke-width:2;stroke-linecap:round;stroke-miterlimit:10;" d="M1057,70c0,4,1.9,5,5.9,5"
				/>
			<path style="fill:none;stroke:#FFFFFF;stroke-width:2;stroke-linecap:round;stroke-miterlimit:10;" d="M1097,70c0,4-1,5-5,5"/>
			
				<line style="fill:none;stroke:#FFFFFF;stroke-width:2;stroke-linecap:round;stroke-miterlimit:10;" x1="1062" y1="52" x2="1076" y2="52"/>
			<path style="fill:none;stroke:#FFFFFF;stroke-width:2;stroke-linecap:round;stroke-miterlimit:10;" d="M1057,57c0-4,1.9-5,6-5"/>
			<path style="fill:none;stroke:#FFFFFF;stroke-width:2;stroke-linecap:round;stroke-miterlimit:10;" d="M1097,57c0-4-1-5-5-5"/>
			
				<line style="fill:none;stroke:#FFFFFF;stroke-width:2;stroke-linecap:round;stroke-miterlimit:10;" x1="1080.9" y1="55.5" x2="1088" y2="48.5"/>
			
				<line style="fill:none;stroke:#FFFFFF;stroke-width:2;stroke-linecap:round;stroke-miterlimit:10;" x1="1080.9" y1="48.5" x2="1088" y2="55.5"/>
			<circle style="fill:none;stroke:#FFFFFF;stroke-width:2;stroke-linecap:round;stroke-miterlimit:10;" cx="1084" cy="52" r="8"/>
			<rect x="1063" y="58" style="fill:none;" width="21" height="26"/>
			<text transform="matrix(1 0 0 1 1063 66.52)" style="fill:#FFFFFF; font-family:'MyriadPro-Regular'; font-size:12px;">0</text>
		</g>
		<g>
			<circle style="opacity:0.3;enable-background:new    ;" cx="166" cy="51" r="32"/>
			<g>
				
					<line style="fill:none;stroke:#FFFFFF;stroke-width:2;stroke-linecap:round;stroke-miterlimit:10;" x1="149.6" y1="68.2" x2="159.4" y2="58.3"/>
				
					<line style="fill:none;stroke:#FFFFFF;stroke-width:2;stroke-linecap:round;stroke-miterlimit:10;" x1="162.6" y1="49.1" x2="169.3" y2="31.9"/>
				
					<line style="fill:none;stroke:#FFFFFF;stroke-width:2;stroke-linecap:round;stroke-miterlimit:10;" x1="168.4" y1="55.3" x2="162.6" y2="49.5"/>
				
					<line style="fill:none;stroke:#FFFFFF;stroke-width:2;stroke-linecap:round;stroke-miterlimit:10;" x1="184.5" y1="46.7" x2="169.5" y2="31.7"/>
				
					<line style="fill:none;stroke:#FFFFFF;stroke-width:2;stroke-linecap:round;stroke-miterlimit:10;" x1="165.8" y1="63.2" x2="154.7" y2="52.2"/>
				
					<line style="fill:none;stroke:#FFFFFF;stroke-width:2;stroke-linecap:round;stroke-miterlimit:10;" x1="162.6" y1="49.1" x2="154.7" y2="52.2"/>
				
					<line style="fill:none;stroke:#FFFFFF;stroke-width:2;stroke-linecap:round;stroke-miterlimit:10;" x1="168.4" y1="55.3" x2="184.5" y2="46.7"/>
				
					<line style="fill:none;stroke:#FFFFFF;stroke-width:2;stroke-linecap:round;stroke-miterlimit:10;" x1="168.4" y1="55.3" x2="165.8" y2="63.2"/>
			</g>
		</g>
		<g>
			<circle style="opacity:0.3;enable-background:new    ;" cx="1741" cy="61" r="32"/>
			<g id="close_2_px_small_1_">
				
					<line style="fill:none;stroke:#FFFFFF;stroke-width:2;stroke-linecap:round;stroke-miterlimit:10;" x1="1734" y1="53.4" x2="1750.9" y2="70.4"/>
				
					<line style="fill:none;stroke:#FFFFFF;stroke-width:2;stroke-linecap:round;stroke-miterlimit:10;" x1="1734" y1="70.4" x2="1750.9" y2="53.4"/>
			</g>
		</g>
		<rect y="-5" style="opacity:0.1;enable-background:new    ;" width="120" height="956"/>
		<path style="opacity:0.3;enable-background:new    ;" d="M1056,924.5H846c-11,0-20-9-20-20l0,0c0-11,9-20,20-20h210
			c11,0,20,9,20,20l0,0C1076,915.5,1067,924.5,1056,924.5z"/>
		<g>
			<rect x="854" y="900" style="fill:none;" width="387" height="36"/>
			<text transform="matrix(1 0 0 1 854 911.3594)" style="fill:#FFFFFF; font-family:'MyriadPro-Regular'; font-size:16px;">2/2 Avatars for DesignMap.jpg</text>
		</g>
		<g id="close_2_px_small_2_">
			
				<line style="fill:none;stroke:#FFFFFF;stroke-width:2;stroke-linecap:round;stroke-miterlimit:10;" x1="1110" y1="905" x2="1134" y2="905"/>
			
				<line style="fill:none;stroke:#FFFFFF;stroke-width:2;stroke-linecap:round;stroke-miterlimit:10;" x1="1122" y1="917" x2="1122" y2="893"/>
		</g>
		<g id="close_2_px_small_3_">
			
				<line style="fill:none;stroke:#FFFFFF;stroke-width:2;stroke-linecap:round;stroke-miterlimit:10;" x1="772" y1="905" x2="796" y2="905"/>
		</g>
	</g>
	<g>
		<rect x="519.9" y="175.8" style="fill:#FFFFFF;stroke:#000000;stroke-miterlimit:10;" width="837.6" height="563.5"/>
		<g id="_x30_9_2_">
			<circle id="SVGID_8_" style="fill:#97CFFD;" cx="1148.9" cy="564.3" r="89.6"/>
			
				<line style="fill:none;stroke:#FFFFFF;stroke-width:3.5801;stroke-linecap:round;stroke-miterlimit:10;" x1="1121.1" y1="626.9" x2="1176.4" y2="626.9"/>
			
				<line style="fill:none;stroke:#FFFFFF;stroke-width:3.5801;stroke-linecap:round;stroke-miterlimit:10;" x1="1090.1" y1="525.2" x2="1099.2" y2="603.6"/>
			
				<line style="fill:none;stroke:#FFFFFF;stroke-width:3.5801;stroke-linecap:round;stroke-miterlimit:10;" x1="1210" y1="525.2" x2="1200.7" y2="603.6"/>
			<path style="fill:none;stroke:#FFFFFF;stroke-width:3.5801;stroke-linecap:round;stroke-miterlimit:10;" d="M1099.2,603.6
				c4.7,23.1,13.8,23.1,23.1,23.1"/>
			<path style="fill:none;stroke:#FFFFFF;stroke-width:3.5801;stroke-linecap:round;stroke-miterlimit:10;" d="M1200.7,603.6
				c-4.7,23.1-13.8,23.1-23.1,23.1"/>
			<path style="fill:none;stroke:#FFFFFF;stroke-width:3.5801;stroke-linecap:round;stroke-miterlimit:10;" d="M1210,525.2
				c0-13.8-9.1-13.8-23.1-13.8h-73.8c-14,0-23.1,0-23.1,13.8"/>
			
				<path style="fill:none;stroke:#FFFFFF;stroke-width:3.5801;stroke-linecap:round;stroke-linejoin:round;stroke-miterlimit:10;" d="
				M1169.3,553.5c2.2-2.2,5.5-3.6,8.3-3.6c3.2,0,6.3,1.4,8.5,3.9"/>
			
				<path style="fill:none;stroke:#FFFFFF;stroke-width:3.5801;stroke-linecap:round;stroke-linejoin:round;stroke-miterlimit:10;" d="
				M1174,574c-6.1,6.1-13.6,9.3-22.1,9.3c-8.1,0-16.2-3.9-22.5-9.9"/>
			
				<ellipse style="fill:none;stroke:#FFFFFF;stroke-width:3.5801;stroke-linecap:round;stroke-linejoin:round;stroke-miterlimit:10;" cx="1126.8" cy="554.8" rx="6.9" ry="6.1"/>
			
				<path style="fill:none;stroke:#FFFFFF;stroke-width:3.5801;stroke-linecap:round;stroke-linejoin:round;stroke-miterlimit:10;" d="
				M1138.7,598.5c-31.4-5.3-55.7-32.6-55.7-65.7h8.1"/>
			
				<path style="fill:none;stroke:#FFFFFF;stroke-width:3.5801;stroke-linecap:round;stroke-linejoin:round;stroke-miterlimit:10;" d="
				M1209,532.9h6.9c0,32.8-23.7,60-54.9,65.5"/>
			
				<path style="fill:#F7AA47;stroke:#FFFFFF;stroke-width:3.5801;stroke-linecap:round;stroke-linejoin:round;stroke-miterlimit:10;" d="
				M1164.3,511.8v24.5c0,3.2-2.6,5.9-5.9,5.9s-5.9-2.6-5.9-5.9v-24.5H1164.3z"/>
			
				<path style="fill:#F7AA47;stroke:#FFFFFF;stroke-width:3.5801;stroke-linecap:round;stroke-linejoin:round;stroke-miterlimit:10;" d="
				M1129,511.8v0.4h-11.1h-12v14.6c0,3.2,2.6,5.9,5.9,5.9c3.2,0,5.9-2.6,5.9-5.9v7.3c0,3.2,2.6,5.9,5.9,5.9s5.9-2.6,5.9-5.9v-13.8
				c1,1.8,2.8,3,5.3,3c3.2,0,5.9-2.6,5.9-5.9V512L1129,511.8L1129,511.8z"/>
			
				<path style="fill:none;stroke:#FFFFFF;stroke-width:3.5801;stroke-linecap:round;stroke-linejoin:round;stroke-miterlimit:10;" d="
				M1157.2,603.6h-14.4c-2.2,0-4.1-1.8-4.1-4.1l0,0c0-2.2,1.8-4.1,4.1-4.1h14.4c2.2,0,4.1,1.8,4.1,4.1l0,0
				C1161.2,601.8,1159.4,603.6,1157.2,603.6z"/>
		</g>
		<g id="_x30_8_2_">
			<circle id="SVGID_6_" style="fill:#97CFFD;" cx="937.1" cy="564.3" r="89.6"/>
			
				<polyline style="fill:none;stroke:#FFFFFF;stroke-width:3.5801;stroke-linecap:round;stroke-linejoin:round;stroke-miterlimit:10;" points="
				873.7,626.1 873.7,516.1 999.5,516.1 999.5,626.1 			"/>
			
				<line style="fill:none;stroke:#FFFFFF;stroke-width:3.5801;stroke-linecap:round;stroke-linejoin:round;stroke-miterlimit:10;" x1="873.7" y1="547.7" x2="999.5" y2="547.7"/>
			
				<path style="fill:none;stroke:#FFFFFF;stroke-width:3.5801;stroke-linecap:round;stroke-linejoin:round;stroke-miterlimit:10;" d="
				M988.4,515.9v-5.5c0-4.1-3.4-7.5-7.5-7.5s-7.5,3.4-7.5,7.5v11.3c0,4.1,3.4,7.5,7.5,7.5"/>
			
				<path style="fill:none;stroke:#FFFFFF;stroke-width:3.5801;stroke-linecap:round;stroke-linejoin:round;stroke-miterlimit:10;" d="
				M967.5,515.9v-5.5c0-4.1-3.4-7.5-7.5-7.5s-7.5,3.4-7.5,7.5v11.3c0,4.1,3.4,7.5,7.5,7.5"/>
			
				<path style="fill:none;stroke:#FFFFFF;stroke-width:3.5801;stroke-linecap:round;stroke-linejoin:round;stroke-miterlimit:10;" d="
				M946.6,515.9v-5.5c0-4.1-3.4-7.5-7.5-7.5s-7.5,3.4-7.5,7.5v11.3c0,4.1,3.4,7.5,7.5,7.5"/>
			
				<path style="fill:none;stroke:#FFFFFF;stroke-width:3.5801;stroke-linecap:round;stroke-linejoin:round;stroke-miterlimit:10;" d="
				M925.6,515.9v-5.5c0-4.1-3.4-7.5-7.5-7.5s-7.5,3.4-7.5,7.5v11.3c0,4.1,3.4,7.5,7.5,7.5"/>
			
				<path style="fill:none;stroke:#FFFFFF;stroke-width:3.5801;stroke-linecap:round;stroke-linejoin:round;stroke-miterlimit:10;" d="
				M904.9,515.9v-5.5c0-4.1-3.4-7.5-7.5-7.5s-7.5,3.4-7.5,7.5v11.3c0,4.1,3.4,7.5,7.5,7.5"/>
			
				<ellipse style="fill:none;stroke:#FFFFFF;stroke-width:3.5801;stroke-linecap:round;stroke-linejoin:round;stroke-miterlimit:10;" cx="906.1" cy="588" rx="9.9" ry="9.5"/>
			
				<ellipse style="fill:none;stroke:#FFFFFF;stroke-width:3.5801;stroke-linecap:round;stroke-linejoin:round;stroke-miterlimit:10;" cx="968.9" cy="588" rx="9.9" ry="9.5"/>
			
				<path style="fill:none;stroke:#FFFFFF;stroke-width:3.5801;stroke-linecap:round;stroke-linejoin:round;stroke-miterlimit:10;" d="
				M961.2,620.8c-6.9,6.3-15.4,10.3-23.7,10.3c-8.9,0-17.2-3.6-23.5-9.9"/>
			
				<path style="fill:#F7AA47;stroke:#FFFFFF;stroke-width:3.5801;stroke-linecap:round;stroke-linejoin:round;stroke-miterlimit:10;" d="
				M990.4,585.4c2.2,0,4.1-1.8,4.1-3.9c0-2.2-2.4-3.9-5.5-3.9l-7.7-0.2c-2.8-0.2-5.5-1.8-5.5-3.6c-0.2-2-2.6-3.4-5.5-3.4h-18.8
				c-2.8,0-5.5,1.8-5.5,3.9c0,2.2,2.4,3.9,5.5,3.9h0.8c2.8,0,5.5,1.6,5.5,3.6s-2.4,3.6-5.5,3.6h-9.5c-2.8,0-5.5,1.8-5.5,3.9
				c0,2.2,2.4,3.9,5.5,3.9l9.5,0.2c2.8,0,5.5,2.4,5.5,5.5v3.9c0,2.8,2.4,5.5,5.5,5.5h2c2.8,0,5.5-1.8,5.5-3.9c0-2.2,2.4-3.9,5.5-3.9
				h5.5c2.8,0,5.5-2.4,5.5-5.5v-4C986.3,587.8,988.4,585.4,990.4,585.4z"/>
		</g>
		<g id="_x30_7_2_">
			<circle id="SVGID_5_" style="fill:#97CFFD;" cx="731" cy="564.3" r="89.6"/>
			
				<line style="fill:none;stroke:#FFFFFF;stroke-width:3.5801;stroke-linecap:round;stroke-linejoin:round;stroke-miterlimit:10;" x1="730.8" y1="505.7" x2="730.8" y2="492.6"/>
			
				<line style="fill:none;stroke:#FFFFFF;stroke-width:3.5801;stroke-linecap:round;stroke-linejoin:round;stroke-miterlimit:10;" x1="730.8" y1="562.1" x2="730.8" y2="530.8"/>
			
				<ellipse style="fill:none;stroke:#FFFFFF;stroke-width:3.5801;stroke-linecap:round;stroke-linejoin:round;stroke-miterlimit:10;" cx="711.8" cy="586.6" rx="6.3" ry="8.1"/>
			
				<ellipse style="fill:none;stroke:#FFFFFF;stroke-width:3.5801;stroke-linecap:round;stroke-linejoin:round;stroke-miterlimit:10;" cx="749.7" cy="586.6" rx="6.3" ry="8.1"/>
			
				<path style="fill:none;stroke:#FFFFFF;stroke-width:3.5801;stroke-linecap:round;stroke-linejoin:round;stroke-miterlimit:10;" d="
				M743,614.1c-3.4,3.4-7.5,5.3-12.2,5.3c-4.5,0-8.9-2.2-12.4-5.5"/>
			
				<path style="fill:none;stroke:#FFFFFF;stroke-width:3.5801;stroke-linecap:round;stroke-linejoin:round;stroke-miterlimit:10;" d="
				M730.8,637.6L730.8,637.6c-24.7,0-44.8-20.1-44.8-44.8v-55.7c0-24.7,20.1-44.8,44.8-44.8l0,0c24.7,0,44.8,20.1,44.8,44.8v55.5
				C775.6,617.6,755.3,637.6,730.8,637.6z"/>
			
				<path style="fill:#F7AA47;stroke:#FFFFFF;stroke-width:3.5801;stroke-linecap:round;stroke-linejoin:round;stroke-miterlimit:10;" d="
				M730.6,530.8L730.6,530.8c-3.9,0-7.1-3.2-7.1-7.1v-9.9c0-3.9,3.2-7.1,7.1-7.1l0,0c3.9,0,7.1,3.2,7.1,7.1v9.9
				C737.9,527.6,734.7,530.8,730.6,530.8z"/>
		</g>
		<g id="_x30_6_2_">
			<circle id="SVGID_4_" style="fill:#85D0FE;" cx="1136.5" cy="343.4" r="89.6"/>
			<g>
				<g>
					<circle id="SVGID_3_" style="fill:#97CFFD;" cx="1136.5" cy="343.4" r="89.6"/>
				</g>
				<g>
					<g>
						<g>
							<g>
								<defs>
									<circle id="SVGID_7_" cx="1136.5" cy="343.4" r="89.6"/>
								</defs>
								<clipPath id="SVGID_9_">
									<use xlink:href="#SVGID_7_"  style="overflow:visible;"/>
								</clipPath>
								
									<rect x="1143.2" y="370" style="clip-path:url(#SVGID_9_);fill:#F7AA47;stroke:#FFFFFF;stroke-width:3.5801;stroke-linecap:round;stroke-linejoin:round;stroke-miterlimit:10;" width="14.6" height="77.8"/>
							</g>
						</g>
					</g>
				</g>
				<g>
					<g>
						<g>
							<g>
								<defs>
									<circle id="SVGID_10_" cx="1136.5" cy="343.4" r="89.6"/>
								</defs>
								<clipPath id="SVGID_11_">
									<use xlink:href="#SVGID_10_"  style="overflow:visible;"/>
								</clipPath>
								
									<rect x="1187.6" y="370" style="clip-path:url(#SVGID_11_);fill:#F7AA47;stroke:#FFFFFF;stroke-width:3.5801;stroke-linecap:round;stroke-linejoin:round;stroke-miterlimit:10;" width="14.6" height="77.8"/>
							</g>
						</g>
					</g>
				</g>
				<g>
					<g>
						<g>
							<g>
								<defs>
									<circle id="SVGID_12_" cx="1136.5" cy="343.4" r="89.6"/>
								</defs>
								<clipPath id="SVGID_13_">
									<use xlink:href="#SVGID_12_"  style="overflow:visible;"/>
								</clipPath>
								
									<rect x="1157.6" y="370" style="clip-path:url(#SVGID_13_);fill:#F7AA47;stroke:#FFFFFF;stroke-width:3.5801;stroke-linecap:round;stroke-linejoin:round;stroke-miterlimit:10;" width="29.6" height="77.8"/>
							</g>
						</g>
					</g>
				</g>
				<g>
					<g>
						<g>
							<g>
								<defs>
									<circle id="SVGID_14_" cx="1136.5" cy="343.4" r="89.6"/>
								</defs>
								<clipPath id="SVGID_15_">
									<use xlink:href="#SVGID_14_"  style="overflow:visible;"/>
								</clipPath>
								
									<rect x="1076.1" y="290.1" style="clip-path:url(#SVGID_15_);fill:none;stroke:#FFFFFF;stroke-width:3.5801;stroke-linecap:round;stroke-linejoin:round;stroke-miterlimit:10;" width="59" height="169.6"/>
							</g>
						</g>
					</g>
				</g>
			</g>
			
				<path style="fill:none;stroke:#FFFFFF;stroke-width:3.5801;stroke-linecap:round;stroke-linejoin:round;stroke-miterlimit:10;" d="
				M1186.5,357.4c-2.6,1.8-6.9,2.4-9.5,2.6c-2.4,0.2-9.9,0-9.9,0"/>
			
				<polygon style="fill:none;stroke:#FFFFFF;stroke-width:3.5801;stroke-linecap:round;stroke-linejoin:round;stroke-miterlimit:10;" points="
				1172.8,264.6 1202.1,370 1143.2,370 			"/>
			
				<ellipse style="fill:none;stroke:#FFFFFF;stroke-width:3.5801;stroke-linecap:round;stroke-linejoin:round;stroke-miterlimit:10;" cx="1161.8" cy="341.6" rx="3.9" ry="5.5"/>
			
				<ellipse style="fill:none;stroke:#FFFFFF;stroke-width:3.5801;stroke-linecap:round;stroke-linejoin:round;stroke-miterlimit:10;" cx="1180.3" cy="341.6" rx="3.9" ry="5.5"/>
			
				<polygon style="fill:#FFFFFF;stroke:#FFFFFF;stroke-width:3.5801;stroke-linecap:round;stroke-linejoin:round;stroke-miterlimit:10;" points="
				1172.8,264.6 1183.5,303.7 1161.8,303.7 			"/>
			
				<ellipse style="fill:none;stroke:#FFFFFF;stroke-width:3.5801;stroke-linecap:round;stroke-linejoin:round;stroke-miterlimit:10;" cx="1105.9" cy="341.6" rx="3.9" ry="5.5"/>
			
				<ellipse style="fill:none;stroke:#FFFFFF;stroke-width:3.5801;stroke-linecap:round;stroke-linejoin:round;stroke-miterlimit:10;" cx="1124.3" cy="341.6" rx="3.9" ry="5.5"/>
			
				<line style="fill:none;stroke:#FFFFFF;stroke-width:3.5801;stroke-linecap:round;stroke-linejoin:round;stroke-miterlimit:10;" x1="1076.7" y1="290.3" x2="1085.2" y2="290.3"/>
			
				<line style="fill:none;stroke:#FFFFFF;stroke-width:3.5801;stroke-linecap:round;stroke-linejoin:round;stroke-miterlimit:10;" x1="1076.7" y1="309.4" x2="1089.7" y2="309.4"/>
			
				<line style="fill:none;stroke:#FFFFFF;stroke-width:3.5801;stroke-linecap:round;stroke-linejoin:round;stroke-miterlimit:10;" x1="1076.7" y1="326.8" x2="1085.2" y2="326.8"/>
			
				<line style="fill:none;stroke:#FFFFFF;stroke-width:3.5801;stroke-linecap:round;stroke-linejoin:round;stroke-miterlimit:10;" x1="1076.7" y1="345.6" x2="1089.7" y2="345.6"/>
			
				<line style="fill:none;stroke:#FFFFFF;stroke-width:3.5801;stroke-linecap:round;stroke-linejoin:round;stroke-miterlimit:10;" x1="1076.7" y1="363.1" x2="1085.2" y2="363.1"/>
			
				<line style="fill:none;stroke:#FFFFFF;stroke-width:3.5801;stroke-linecap:round;stroke-linejoin:round;stroke-miterlimit:10;" x1="1076.7" y1="382.1" x2="1089.7" y2="382.1"/>
			
				<line style="fill:none;stroke:#FFFFFF;stroke-width:3.5801;stroke-linecap:round;stroke-linejoin:round;stroke-miterlimit:10;" x1="1076.7" y1="399.5" x2="1085.2" y2="399.5"/>
			
				<path style="fill:none;stroke:#FFFFFF;stroke-width:3.5801;stroke-linecap:round;stroke-linejoin:round;stroke-miterlimit:10;" d="
				M1122.3,360.6c-3.4,3.2-7.7,5.3-12.2,5.3c-4.7,0-9.1-2.2-12.6-5.5L1122.3,360.6z"/>
		</g>
		<g id="_x30_5_2_">
			<circle id="SVGID_2_" style="fill:#97CFFD;" cx="930.8" cy="343.4" r="89.6"/>
			
				<ellipse style="fill:none;stroke:#FFFFFF;stroke-width:3.5801;stroke-linecap:round;stroke-linejoin:round;stroke-miterlimit:10;" cx="902.9" cy="349.9" rx="6.9" ry="6.7"/>
			
				<ellipse style="fill:none;stroke:#FFFFFF;stroke-width:3.5801;stroke-linecap:round;stroke-linejoin:round;stroke-miterlimit:10;" cx="959.4" cy="349.9" rx="6.9" ry="6.7"/>
			
				<path style="fill:none;stroke:#FFFFFF;stroke-width:3.5801;stroke-linecap:round;stroke-linejoin:round;stroke-miterlimit:10;" d="
				M939.7,353.1c-2.4,2.2-5.5,3.9-8.5,3.9c-3.2,0-6.1-1.2-8.5-3.6"/>
			
				<path style="fill:#F7AA47;stroke:#FFFFFF;stroke-width:3.5801;stroke-linecap:round;stroke-linejoin:round;stroke-miterlimit:10;" d="
				M894.1,337.5c3.4-17.6,18.8-31.2,37.5-31.2s34.2,13.4,37.5,31.2h33c-3.6-35.9-33.8-64-70.7-64s-67.1,28.2-70.7,64H894.1z"/>
			
				<rect x="853.4" y="337.5" style="fill:none;stroke:#FFFFFF;stroke-width:3.5801;stroke-linecap:round;stroke-linejoin:round;stroke-miterlimit:10;" width="156.2" height="32.8"/>
			
				<line style="fill:none;stroke:#FFFFFF;stroke-width:3.5801;stroke-linecap:round;stroke-linejoin:round;stroke-miterlimit:10;" x1="931.6" y1="274.3" x2="931.6" y2="289.7"/>
			
				<line style="fill:none;stroke:#FFFFFF;stroke-width:3.5801;stroke-linecap:round;stroke-linejoin:round;stroke-miterlimit:10;" x1="874.5" y1="354.2" x2="874.5" y2="369.6"/>
			
				<line style="fill:none;stroke:#FFFFFF;stroke-width:3.5801;stroke-linecap:round;stroke-linejoin:round;stroke-miterlimit:10;" x1="893.9" y1="362.5" x2="893.9" y2="370"/>
			
				<line style="fill:none;stroke:#FFFFFF;stroke-width:3.5801;stroke-linecap:round;stroke-linejoin:round;stroke-miterlimit:10;" x1="956.4" y1="279.4" x2="952.5" y2="285.9"/>
			
				<line style="fill:none;stroke:#FFFFFF;stroke-width:3.5801;stroke-linecap:round;stroke-linejoin:round;stroke-miterlimit:10;" x1="910.6" y1="285.9" x2="906.9" y2="279.4"/>
			
				<line style="fill:none;stroke:#FFFFFF;stroke-width:3.5801;stroke-linecap:round;stroke-linejoin:round;stroke-miterlimit:10;" x1="969.7" y1="362.5" x2="969.7" y2="370"/>
			
				<line style="fill:none;stroke:#FFFFFF;stroke-width:3.5801;stroke-linecap:round;stroke-linejoin:round;stroke-miterlimit:10;" x1="987.8" y1="354.2" x2="987.8" y2="369.6"/>
			
				<line style="fill:none;stroke:#FFFFFF;stroke-width:3.5801;stroke-linecap:round;stroke-linejoin:round;stroke-miterlimit:10;" x1="977" y1="290.5" x2="966.1" y2="301.5"/>
			
				<line style="fill:none;stroke:#FFFFFF;stroke-width:3.5801;stroke-linecap:round;stroke-linejoin:round;stroke-miterlimit:10;" x1="887.1" y1="291.5" x2="898" y2="302.3"/>
		</g>
		<g id="_x30_4_2_">
			<circle id="SVGID_1_" style="fill:#97CFFD;" cx="725.1" cy="343.4" r="89.6"/>
			<g>
				<g>
					<g>
						<g>
							<g>
								<defs>
									<circle id="SVGID_16_" cx="725.1" cy="343.4" r="89.6"/>
								</defs>
								<clipPath id="SVGID_17_">
									<use xlink:href="#SVGID_16_"  style="overflow:visible;"/>
								</clipPath>
								
									<path style="clip-path:url(#SVGID_17_);fill:#F7AA47;stroke:#FFFFFF;stroke-width:3.5801;stroke-linecap:round;stroke-linejoin:round;stroke-miterlimit:10;" d="
									M724.9,732.1c0,0,17.6,2,20.9-7.5c4.1-11.6,6.3-35.5,6.3-71.7c0-82.1-13-246.4-13-246.4h-28.4c0,0-13,164.3-13,246.4
									c0,36.3,2.2,60.4,6.3,71.7C707.7,733.7,724.9,732.1,724.9,732.1z"/>
							</g>
						</g>
					</g>
				</g>
			</g>
			
				<ellipse style="fill:none;stroke:#FFFFFF;stroke-width:3.5801;stroke-linecap:round;stroke-linejoin:round;stroke-miterlimit:10;" cx="749.7" cy="344.2" rx="6.3" ry="4.5"/>
			
				<ellipse style="fill:none;stroke:#FFFFFF;stroke-width:3.5801;stroke-linecap:round;stroke-linejoin:round;stroke-miterlimit:10;" cx="714.4" cy="344.2" rx="6.3" ry="4.5"/>
			
				<path style="fill:#F7AA47;stroke:#FFFFFF;stroke-width:3.5801;stroke-linecap:round;stroke-linejoin:round;stroke-miterlimit:10;" d="
				M741,387.8h-31.8c0,0,0.8,14.2-0.8,36.3h33C739.9,401.8,741,387.8,741,387.8z"/>
			
				<path style="fill:none;stroke:#FFFFFF;stroke-width:3.5801;stroke-linecap:round;stroke-linejoin:round;stroke-miterlimit:10;" d="
				M729,264.6c0,0,70.9,73.2,11.6,123.2h-31.4c0,0-34.9-21.3-18.8-61.6C704.9,289.1,729,293.8,729,264.6z"/>
			
				<path style="fill:none;stroke:#FFFFFF;stroke-width:3.5801;stroke-linecap:round;stroke-linejoin:round;stroke-miterlimit:10;" d="
				M743.4,367.9c-3.4,3.4-7.5,5.3-12.2,5.3c-4.5,0-8.9-2.2-12.4-5.5L743.4,367.9z"/>
			
				<path style="fill:none;stroke:#FFFFFF;stroke-width:3.5801;stroke-linecap:round;stroke-linejoin:round;stroke-miterlimit:10;" d="
				M721.5,298c2.4-2.6,13.2-15.6,9.7-28.6c-0.4-1.2-0.8-2.6-1.6-4.1"/>
		</g>
	</g>
</g>
</svg>
