<?xml version="1.0" encoding="utf-8"?>
<!-- Generator: Adobe Illustrator 19.2.1, SVG Export Plug-In . SVG Version: 6.00 Build 0)  -->
<svg version="1.1" id="Слой_1" xmlns="http://www.w3.org/2000/svg" xmlns:xlink="http://www.w3.org/1999/xlink" x="0px" y="0px"
	 viewBox="0 0 1100 330" style="enable-background:new 0 0 1100 330;" xml:space="preserve">
<g id="Browser-Dark_1_">
	<rect y="0.5" style="fill:#8ECDF7;" width="1100" height="65.5"/>
	<line style="fill:none;stroke:#EBEBEB;stroke-miterlimit:10;" x1="220.5" y1="315" x2="220.5" y2="67"/>
	<g id="taskmanager_1_">
		
			<circle style="fill:none;stroke:#808080;stroke-linecap:round;stroke-linejoin:round;stroke-miterlimit:10;" cx="26" cy="93.8" r="5.8"/>
		
			<line style="fill:none;stroke:#808080;stroke-linecap:round;stroke-linejoin:round;stroke-miterlimit:10;" x1="25.6" y1="95.7" x2="29.3" y2="92"/>
		
			<line style="fill:none;stroke:#808080;stroke-linecap:round;stroke-linejoin:round;stroke-miterlimit:10;" x1="25.6" y1="95.7" x2="23.7" y2="93.9"/>
		
			<circle style="fill:none;stroke:#808080;stroke-linecap:round;stroke-linejoin:round;stroke-miterlimit:10;" cx="26" cy="107.2" r="5.8"/>
	</g>
	<g id="access_1_">
		<g id="access_2_">
			<path style="fill:none;stroke:#808080;stroke-linecap:round;stroke-linejoin:round;stroke-miterlimit:10;" d="M26.1,193.8
				l6.2-6.2c1.6-1.6,4.1-1.6,5.7,0l0.8,0.8c1.6,1.6,1.6,4.1,0,5.7l-6.2,6.2c-1.6,1.6-4.1,1.6-5.7,0l-0.8-0.8"/>
			<path style="fill:none;stroke:#808080;stroke-linecap:round;stroke-linejoin:round;stroke-miterlimit:10;" d="M28.8,204.1
				l-6.2,6.2c-1.6,1.6-4.1,1.6-5.7,0l-0.8-0.8c-1.6-1.6-1.6-4.1,0-5.7l6.2-6.2c1.6-1.6,4.1-1.6,5.7,0l0.8,0.8"/>
		</g>
	</g>
	<g>
		
			<line style="fill:none;stroke:#808080;stroke-linecap:round;stroke-linejoin:round;stroke-miterlimit:10;" x1="18" y1="139.5" x2="35" y2="139.5"/>
		<path style="fill:none;stroke:#808080;stroke-linecap:round;stroke-linejoin:round;stroke-miterlimit:10;" d="M35.6,143.1
			c0-2.1-1.4-1.6-3.6-1.6H20.7c-2.2,0-3.6-0.6-3.6,1.5l1.1,13.2c0.5,3.2,2.5,4.3,3.9,4.3h8.5c1.4,0,3.5-0.1,4-4.4L35.6,143.1z"/>
		<path style="fill:none;stroke:#808080;stroke-linecap:round;stroke-linejoin:round;stroke-miterlimit:10;" d="M28.8,138.6
			c0-1.4-1.1-2.5-2.5-2.5s-2.5,1.1-2.5,2.5"/>
		<rect x="23.3" y="146.5" style="fill:none;" width="8.5" height="13.3"/>
		<text transform="matrix(1 0 0 1 23.3335 154.0996)" style="fill:#808080; font-family:'OpenSans-Light'; font-size:10px;">2</text>
	</g>
	<rect x="486.8" y="120.3" style="fill:#F2F2F2;" width="248.7" height="208"/>
	<rect x="753.8" y="120.3" style="fill:#F2F2F2;" width="248.7" height="208"/>
	<rect x="253" y="158" style="fill:#E0E0E0;" width="192" height="125"/>
	<rect x="253" y="147" style="fill:#CCCCCC;" width="74" height="11"/>
	<g>
		<rect x="252.8" y="295" style="fill:none;" width="159.5" height="38.6"/>
		<text transform="matrix(1 0 0 1 252.772 305.584)" style="fill:#848484; font-family:'OpenSans-Light'; font-size:13.9134px;">Папка 1</text>
	</g>
	<rect x="514" y="158" style="fill:#E0E0E0;" width="192" height="125"/>
	<rect x="514" y="147" style="fill:#CCCCCC;" width="73" height="11"/>
	<g>
		<rect x="513.6" y="295" style="fill:none;" width="159.5" height="38.6"/>
		<text transform="matrix(1 0 0 1 513.6338 305.584)" style="fill:#848484; font-family:'OpenSans-Light'; font-size:13.9134px;">Папка 2</text>
	</g>
	<rect x="777" y="158" style="fill:#E0E0E0;" width="192" height="125"/>
	<rect x="777" y="147" style="fill:#CCCCCC;" width="73" height="11"/>
	<g>
		<rect x="776.5" y="295" style="fill:none;" width="159.5" height="38.6"/>
		<text transform="matrix(1 0 0 1 776.4971 305.584)" style="fill:#848484; font-family:'OpenSans-Light'; font-size:13.9134px;">Папка 3</text>
	</g>
	<g>
		<g>
			<polyline style="fill:#FFFFFF;stroke:#69BFFF;stroke-linecap:round;stroke-linejoin:round;stroke-miterlimit:10;" points="
				445.6,88.1 445.6,85.8 453.9,85.8 453.9,88.1 			"/>
			<path style="fill:#69BFFF;stroke:#69BFFF;stroke-linecap:round;stroke-linejoin:round;stroke-miterlimit:10;" d="M463.2,103.3
				h-14.8c-1.6,0-2.8-1.3-2.8-2.8V87.9v0.6h17.5c1.6,0,2.7,0.6,2.7,2v9.8C465.9,102,464.7,103.3,463.2,103.3z"/>
			<path style="fill:#69BFFF;stroke:#69BFFF;stroke-linecap:round;stroke-linejoin:round;stroke-miterlimit:10;" d="M520.1,105.1
				c-1.3,0-2.8-1.9-2.8-3.2V89.6l4.6-3.8h7.8c1.3,0,2.3,0.4,2.3,1.7v14.4c0,1.3-0.9,3.2-2.3,3.2
				C529.7,105.1,520.1,105.1,520.1,105.1z"/>
			
				<line style="fill:none;stroke:#FFFFFF;stroke-linecap:round;stroke-linejoin:round;stroke-miterlimit:10;" x1="455.7" y1="90.8" x2="455.7" y2="100"/>
			
				<line style="fill:none;stroke:#FFFFFF;stroke-linecap:round;stroke-linejoin:round;stroke-miterlimit:10;" x1="451.6" y1="95.9" x2="459.9" y2="95.9"/>
			<path style="fill:#FFFFFF;" d="M522.4,85.3V88c0,1-0.5,1.9-1.5,1.9h-3.1"/>
			
				<line style="fill:none;stroke:#FFFFFF;stroke-linecap:round;stroke-linejoin:round;stroke-miterlimit:10;" x1="524.7" y1="90.8" x2="524.7" y2="100"/>
			
				<line style="fill:none;stroke:#FFFFFF;stroke-linecap:round;stroke-linejoin:round;stroke-miterlimit:10;" x1="521.5" y1="95.9" x2="529.7" y2="95.9"/>
		</g>
	</g>
	<g>
		<g>
			<path style="fill:none;stroke:#828282;stroke-linecap:round;stroke-linejoin:round;stroke-miterlimit:10;" d="M38,302.6
				c-1.2-1.2-3.1-1.2-4.2,0l-10.1,10.1c-1.2,1.2-2.7,3.3-3.5,4.8l-2.3,4.4c-0.8,1.5-0.2,2,1.3,1.3l4.4-2.3c1.5-0.8,3.6-2.3,4.8-3.5
				l10.1-10.1c1.2-1.2,1.2-3.1,0-4.2L38,302.6z"/>
		</g>
		
			<line style="fill:none;stroke:#828282;stroke-linecap:round;stroke-linejoin:round;stroke-miterlimit:10;" x1="32.5" y1="303.8" x2="37.2" y2="308.5"/>
		
			<line style="fill:none;stroke:#828282;stroke-linecap:round;stroke-linejoin:round;stroke-miterlimit:10;" x1="20.7" y1="317.3" x2="23.7" y2="320.3"/>
	</g>
	<line style="fill:none;stroke:#FFFFFF;stroke-width:0.5732;stroke-miterlimit:10;" x1="40.3" y1="43.5" x2="57.2" y2="26.3"/>
	<line style="fill:none;stroke:#FFFFFF;stroke-width:0.5732;stroke-miterlimit:10;" x1="57.2" y1="43.5" x2="40.3" y2="26.3"/>
	<g style="enable-background:new    ;">
		<path style="fill:#828282;" d="M69,105.3l-4.3-10.5h-0.1c0,0.6,0.1,1.3,0.1,2v8.6h-0.8V94h1.2l4,10l0,0l4-10h1.2v11.4h-0.8v-8.8
			c0-0.6,0-1.2,0.1-1.9h-0.1l-4,10.6C69.5,105.3,69,105.3,69,105.3z"/>
		<path style="fill:#828282;" d="M81.1,105.4c-1.2,0-2.2-0.4-2.9-1.1c-0.7-0.8-1-1.8-1-3.2s0.3-2.4,1-3.3c0.7-0.8,1.6-1.2,2.7-1.2
			c1,0,1.8,0.3,2.4,1s0.9,1.6,0.9,2.8v0.6h-6.1c0,1.2,0.3,2.1,0.8,2.7s1.3,0.9,2.3,0.9c0.5,0,0.9,0,1.3-0.1s0.8-0.2,1.4-0.4v0.7
			c-0.5,0.2-0.9,0.4-1.3,0.4S81.5,105.4,81.1,105.4z M80.8,97.3c-0.8,0-1.5,0.3-2,0.8s-0.8,1.3-0.9,2.3h5.3c0-1-0.2-1.8-0.6-2.3
			C82.2,97.6,81.6,97.3,80.8,97.3z"/>
		<path style="fill:#828282;" d="M87.2,96.8v3.7h5.4v-3.7h0.8v8.5h-0.8v-4.1h-5.4v4.1h-0.8v-8.5H87.2z"/>
		<path style="fill:#828282;" d="M99.6,105.4c-1.2,0-2.2-0.4-2.9-1.1c-0.7-0.8-1-1.8-1-3.2s0.3-2.4,1-3.3c0.7-0.8,1.6-1.2,2.7-1.2
			c1,0,1.8,0.3,2.4,1s0.9,1.6,0.9,2.8v0.6h-6.2c0,1.2,0.3,2.1,0.8,2.7s1.3,0.9,2.3,0.9c0.5,0,0.9,0,1.3-0.1s0.8-0.2,1.4-0.4v0.7
			c-0.5,0.2-0.9,0.4-1.3,0.4S100.1,105.4,99.6,105.4z M99.4,97.3c-0.8,0-1.5,0.3-2,0.8s-0.8,1.3-0.9,2.3h5.3c0-1-0.2-1.8-0.6-2.3
			C100.7,97.6,100.1,97.3,99.4,97.3z"/>
		<path style="fill:#828282;" d="M111.9,108.1h-0.8v-2.9h-6.5v2.9h-0.8v-3.6h0.6c0.7-1,1.3-2.1,1.6-3.5c0.4-1.3,0.6-2.7,0.6-4.3h4.1
			v7.8h1.1v3.6H111.9z M110,104.5v-7h-2.6c-0.1,2.8-0.8,5.2-2,7H110z"/>
		<path style="fill:#828282;" d="M117.2,96.8h0.8v4.1l3.6-4.1h0.9l-3.7,4.1l4,4.4h-1l-3.9-4.3v4.3h-0.8V101l-3.9,4.3h-1l4-4.3
			l-3.7-4.2h0.9l3.6,4.1v-4.1H117.2z"/>
		<path style="fill:#828282;" d="M127.8,105.4c-1.2,0-2.2-0.4-2.9-1.1s-1-1.8-1-3.2s0.3-2.4,1-3.3s1.6-1.2,2.7-1.2
			c1,0,1.8,0.3,2.4,1s0.9,1.6,0.9,2.8v0.6h-6.1c0,1.2,0.3,2.1,0.8,2.7s1.3,0.9,2.3,0.9c0.5,0,0.9,0,1.3-0.1s0.8-0.2,1.4-0.4v0.7
			c-0.5,0.2-0.9,0.4-1.3,0.4S128.3,105.4,127.8,105.4z M127.5,97.3c-0.8,0-1.5,0.3-2,0.8s-0.8,1.3-0.9,2.3h5.3c0-1-0.2-1.8-0.6-2.3
			C128.9,97.6,128.3,97.3,127.5,97.3z"/>
		<path style="fill:#828282;" d="M136.8,105.4c-1.3,0-2.3-0.5-2.9-1.5h-0.1v0.7c0,0.4,0,0.8,0,1.3v3.2H133V96.8h0.7l0.1,1.2l0,0
			c0.6-0.9,1.5-1.4,2.8-1.4c1.1,0,2,0.4,2.6,1.1s0.9,1.8,0.9,3.3c0,1.4-0.3,2.5-0.9,3.2S137.8,105.4,136.8,105.4z M136.7,104.7
			c0.9,0,1.5-0.3,2-1s0.7-1.5,0.7-2.7c0-2.5-0.9-3.7-2.7-3.7c-1,0-1.7,0.3-2.2,0.8s-0.7,1.4-0.7,2.7v0.3c0,1.3,0.2,2.3,0.7,2.8
			S135.7,104.7,136.7,104.7z"/>
		<path style="fill:#828282;" d="M153.2,96.5c0,1.5-0.8,2.4-2.4,2.8l0,0c1.7,0.4,2.6,1.3,2.6,2.8c0,1-0.4,1.9-1.1,2.4
			s-1.8,0.9-3.1,0.9s-2.3-0.2-3.2-0.7v-0.8c0.5,0.2,1,0.4,1.6,0.6s1.1,0.2,1.6,0.2c1,0,1.9-0.2,2.5-0.7s0.9-1.1,0.9-1.9
			s-0.3-1.4-0.9-1.8s-1.5-0.6-2.6-0.6h-1.7v-0.8h1.8c1.1,0,1.9-0.2,2.4-0.6s0.8-1,0.8-1.8c0-0.7-0.2-1.2-0.7-1.6s-1.1-0.6-1.9-0.6
			c-0.6,0-1.1,0.1-1.6,0.2s-1,0.4-1.6,0.8l-0.5-0.6c1.1-0.8,2.3-1.2,3.6-1.2c1.1,0,1.9,0.3,2.5,0.8S153.2,95.6,153.2,96.5z"/>
		<path style="fill:#828282;" d="M160.9,105.3l-0.2-1.3h-0.1c-0.4,0.5-0.9,0.9-1.3,1.2s-1,0.3-1.6,0.3c-0.8,0-1.5-0.2-1.9-0.6
			s-0.7-1-0.7-1.8s0.3-1.5,1-1.9s1.7-0.7,3-0.7h1.6v-0.6c0-0.8-0.2-1.4-0.5-1.8s-0.9-0.6-1.6-0.6c-0.8,0-1.6,0.2-2.4,0.7l-0.3-0.7
			c0.9-0.4,1.9-0.7,2.8-0.7c0.9,0,1.6,0.2,2.1,0.7s0.7,1.2,0.7,2.3v5.6L160.9,105.3L160.9,105.3z M157.8,104.7
			c0.9,0,1.6-0.3,2.1-0.8s0.8-1.2,0.8-2.2v-0.8l-1.5,0.1c-1.2,0.1-2,0.2-2.6,0.6s-0.8,0.8-0.8,1.5c0,0.5,0.2,0.9,0.5,1.2
			S157.2,104.7,157.8,104.7z"/>
		<path style="fill:#828282;" d="M171.1,108.1h-0.8v-2.9h-6.5v2.9H163v-3.6h0.6c0.7-1,1.3-2.1,1.6-3.5s0.6-2.7,0.6-4.3h4.1v7.8h1.1
			L171.1,108.1L171.1,108.1z M169.2,104.5v-7h-2.6c-0.1,2.8-0.8,5.2-2,7H169.2z"/>
		<path style="fill:#828282;" d="M178.1,105.3l-0.2-1.3h-0.1c-0.4,0.5-0.9,0.9-1.3,1.2s-1,0.3-1.6,0.3c-0.8,0-1.5-0.2-1.9-0.6
			s-0.7-1-0.7-1.8s0.3-1.5,1-1.9s1.7-0.7,3-0.7h1.6v-0.6c0-0.8-0.2-1.4-0.5-1.8s-0.9-0.6-1.6-0.6c-0.8,0-1.6,0.2-2.4,0.7l-0.3-0.7
			c0.9-0.4,1.9-0.7,2.8-0.7c0.9,0,1.6,0.2,2.1,0.7s0.7,1.2,0.7,2.3v5.6L178.1,105.3L178.1,105.3z M175,104.7c0.9,0,1.6-0.3,2.1-0.8
			s0.8-1.2,0.8-2.2v-0.8l-1.5,0.1c-1.2,0.1-2,0.2-2.6,0.6s-0.8,0.8-0.8,1.5c0,0.5,0.2,0.9,0.5,1.2S174.4,104.7,175,104.7z"/>
		<path style="fill:#828282;" d="M182.1,96.8v2.8c0,0.7,0.2,1.2,0.5,1.6s0.9,0.5,1.6,0.5c0.5,0,1-0.1,1.5-0.3s0.9-0.5,1.4-0.9v-3.7
			h0.8v8.5h-0.8v-4c-0.5,0.4-1,0.7-1.5,0.9s-1,0.3-1.6,0.3c-0.9,0-1.5-0.2-2-0.7s-0.7-1.1-0.7-2v-2.9h0.8V96.8z"/>
	</g>
	<g style="enable-background:new    ;">
		<path style="fill:#828282;" d="M71.5,155.3h-1l-5.6-5.8v5.8h-0.8v-11.4h0.8v5.5l5.5-5.5h1.1l-5.5,5.5L71.5,155.3z"/>
		<path style="fill:#828282;" d="M80,151c0,1.4-0.3,2.5-1,3.2c-0.7,0.8-1.6,1.2-2.8,1.2c-0.7,0-1.4-0.2-2-0.5
			c-0.6-0.4-1-0.9-1.3-1.5c-0.3-0.7-0.5-1.4-0.5-2.3c0-1.4,0.3-2.5,1-3.2s1.6-1.2,2.8-1.2c1.2,0,2.1,0.4,2.7,1.2
			C79.7,148.6,80,149.6,80,151z M73.3,151c0,1.2,0.3,2.1,0.8,2.7c0.5,0.7,1.2,1,2.2,1s1.7-0.3,2.2-1s0.8-1.6,0.8-2.7
			c0-1.2-0.3-2.1-0.8-2.7s-1.2-1-2.2-1s-1.7,0.3-2.2,1C73.5,148.9,73.3,149.8,73.3,151z"/>
		<path style="fill:#828282;" d="M86,155.4c-1.3,0-2.3-0.5-2.9-1.5H83v0.7c0,0.4,0,0.8,0,1.3v3.2h-0.8v-12.3h0.7L83,148l0,0
			c0.6-0.9,1.5-1.4,2.8-1.4c1.1,0,2,0.4,2.6,1.1c0.6,0.8,0.9,1.8,0.9,3.3c0,1.4-0.3,2.5-0.9,3.2C87.9,155,87.1,155.4,86,155.4z
			 M86,154.7c0.9,0,1.5-0.3,2-1c0.5-0.6,0.7-1.5,0.7-2.7c0-2.5-0.9-3.7-2.7-3.7c-1,0-1.7,0.3-2.2,0.8s-0.7,1.4-0.7,2.7v0.3
			c0,1.3,0.2,2.3,0.7,2.8C84.2,154.4,85,154.7,86,154.7z"/>
		<path style="fill:#828282;" d="M93.5,150.4c1.5,0,2.3-0.5,2.3-1.6c0-0.5-0.2-0.9-0.5-1.2c-0.4-0.3-0.9-0.4-1.5-0.4
			c-0.4,0-0.8,0-1.2,0.1c-0.4,0.1-0.7,0.2-1.2,0.4l-0.3-0.6c0.9-0.4,1.8-0.6,2.6-0.6c0.9,0,1.6,0.2,2.1,0.6s0.7,0.9,0.7,1.6
			c0,1-0.5,1.6-1.5,1.9l0,0c0.6,0.2,1.1,0.4,1.4,0.8s0.4,0.8,0.4,1.4c0,0.8-0.3,1.4-0.9,1.9s-1.4,0.7-2.4,0.7
			c-0.6,0-1.1-0.1-1.5-0.2c-0.5-0.1-0.8-0.2-1.1-0.4V154c0.5,0.3,1,0.4,1.4,0.5s0.8,0.1,1.3,0.1c0.8,0,1.4-0.2,1.8-0.5
			s0.6-0.8,0.6-1.4s-0.2-1-0.6-1.3s-1-0.4-1.9-0.4h-1.2v-0.7L93.5,150.4C93.5,150.3,93.5,150.4,93.5,150.4z"/>
		<path style="fill:#828282;" d="M99.8,146.8v6.1v1.6l5-7.7h1v8.5h-0.7v-6.1v-1.6l-5,7.7h-1v-8.5H99.8z"/>
		<path style="fill:#828282;" d="M109.5,146.8v3.7h5.4v-3.7h0.8v8.5h-0.8v-4.1h-5.4v4.1h-0.8v-8.5H109.5z"/>
		<path style="fill:#828282;" d="M123.6,155.3l-0.2-1.3h-0.1c-0.4,0.5-0.9,0.9-1.3,1.2s-1,0.3-1.6,0.3c-0.8,0-1.5-0.2-1.9-0.6
			c-0.5-0.4-0.7-1-0.7-1.8s0.3-1.5,1-1.9c0.7-0.5,1.7-0.7,3-0.7h1.6v-0.6c0-0.8-0.2-1.4-0.5-1.8s-0.9-0.6-1.6-0.6
			c-0.8,0-1.6,0.2-2.4,0.7l-0.3-0.7c0.9-0.4,1.9-0.7,2.8-0.7s1.6,0.2,2.1,0.7s0.7,1.2,0.7,2.3v5.6L123.6,155.3L123.6,155.3z
			 M120.5,154.7c0.9,0,1.6-0.3,2.1-0.8s0.8-1.2,0.8-2.2v-0.8l-1.5,0.1c-1.2,0.1-2,0.2-2.6,0.6c-0.5,0.3-0.8,0.8-0.8,1.5
			c0,0.5,0.2,0.9,0.5,1.2C119.5,154.6,119.9,154.7,120.5,154.7z"/>
	</g>
	<g style="enable-background:new    ;">
		<path style="fill:#828282;" d="M72.4,207.1h-0.8v-2.9h-8.3v2.9h-0.8v-3.6h0.8c0.8-1.3,1.4-3,2-5.1s0.9-3.9,1-5.6h4.9v10.7h1.2
			V207.1z M70.4,203.5v-9.9H67c-0.1,1.6-0.5,3.4-1,5.3s-1.1,3.4-1.8,4.6L70.4,203.5L70.4,203.5z"/>
		<path style="fill:#828282;" d="M81.3,200c0,1.4-0.3,2.5-1,3.2c-0.7,0.8-1.6,1.2-2.8,1.2c-0.7,0-1.4-0.2-2-0.5
			c-0.6-0.4-1-0.9-1.3-1.5c-0.3-0.7-0.5-1.4-0.5-2.3c0-1.4,0.3-2.5,1-3.2s1.6-1.2,2.8-1.2c1.2,0,2.1,0.4,2.7,1.2
			C81,197.6,81.3,198.6,81.3,200z M74.6,200c0,1.2,0.3,2.1,0.8,2.7c0.5,0.7,1.2,1,2.2,1s1.7-0.3,2.2-1s0.8-1.6,0.8-2.7
			c0-1.2-0.3-2.1-0.8-2.7s-1.2-1-2.2-1s-1.7,0.3-2.2,1C74.8,197.9,74.6,198.8,74.6,200z"/>
		<path style="fill:#828282;" d="M87,204.4c-1.2,0-2.2-0.4-2.9-1.1s-1-1.8-1-3.2s0.4-2.5,1.1-3.3s1.7-1.2,2.9-1.2
			c0.7,0,1.4,0.1,2.1,0.4l-0.2,0.7c-0.7-0.2-1.4-0.4-1.9-0.4c-1,0-1.8,0.3-2.4,1c-0.5,0.6-0.8,1.6-0.8,2.8c0,1.1,0.3,2,0.8,2.7
			c0.5,0.6,1.3,1,2.3,1c0.8,0,1.5-0.1,2.1-0.4v0.7C88.6,204.3,87.9,204.4,87,204.4z"/>
		<path style="fill:#828282;" d="M96.6,196.4h-2.8v7.8H93v-7.8h-2.9v-0.7h6.5V196.4z"/>
		<path style="fill:#828282;" d="M97,195.8h0.8l1.8,4.8c0.5,1.5,0.9,2.5,1,3l0,0c0.2-0.7,0.6-1.7,1.1-3l1.8-4.7h0.8l-3.8,9.7
			c-0.3,0.8-0.6,1.3-0.8,1.6c-0.2,0.3-0.5,0.5-0.7,0.6c-0.3,0.1-0.6,0.2-1,0.2c-0.3,0-0.6-0.1-1-0.2v-0.7c0.3,0.1,0.6,0.1,1,0.1
			c0.3,0,0.5-0.1,0.7-0.2s0.4-0.3,0.6-0.6s0.4-0.7,0.6-1.3s0.4-0.9,0.4-1.1L97,195.8z"/>
		<path style="fill:#828282;" d="M106.5,204.3h-0.8v-8.5h6.8v8.5h-0.8v-7.8h-5.2V204.3z"/>
		<path style="fill:#828282;" d="M124.1,195.8h1l-3.8,4.1l4.1,4.4h-1l-4-4.3v4.3h-0.9v-8.5h0.8v4.1L124.1,195.8z"/>
		<path style="fill:#828282;" d="M139.4,204.3h-0.8v-10.7H132v10.7h-0.8v-11.4h8.2V204.3L139.4,204.3z"/>
		<path style="fill:#828282;" d="M146,204.4c-1.3,0-2.3-0.5-2.9-1.5H143v0.7c0,0.4,0,0.8,0,1.3v3.2h-0.8v-12.3h0.7l0.1,1.2l0,0
			c0.6-0.9,1.5-1.4,2.8-1.4c1.1,0,2,0.4,2.6,1.1c0.6,0.8,0.9,1.8,0.9,3.3c0,1.4-0.3,2.5-0.9,3.2C148,204,147.1,204.4,146,204.4z
			 M146,203.7c0.9,0,1.5-0.3,2-1c0.5-0.6,0.7-1.5,0.7-2.7c0-2.5-0.9-3.7-2.7-3.7c-1,0-1.7,0.3-2.2,0.8s-0.7,1.4-0.7,2.7v0.3
			c0,1.3,0.2,2.3,0.7,2.8C144.3,203.4,145,203.7,146,203.7z"/>
		<path style="fill:#828282;" d="M159,200c0,1.4-0.3,2.5-1,3.2c-0.7,0.8-1.6,1.2-2.8,1.2c-0.7,0-1.4-0.2-2-0.5s-1-0.9-1.3-1.5
			s-0.5-1.4-0.5-2.3c0-1.4,0.3-2.5,1-3.2s1.6-1.2,2.8-1.2s2.1,0.4,2.7,1.2C158.6,197.6,159,198.6,159,200z M152.3,200
			c0,1.2,0.3,2.1,0.8,2.7c0.5,0.7,1.2,1,2.2,1s1.7-0.3,2.2-1s0.8-1.6,0.8-2.7c0-1.2-0.3-2.1-0.8-2.7s-1.2-1-2.2-1s-1.7,0.3-2.2,1
			C152.5,197.9,152.3,198.8,152.3,200z"/>
		<path style="fill:#828282;" d="M164.7,204.4c-1.2,0-2.2-0.4-2.9-1.1c-0.7-0.8-1-1.8-1-3.2s0.3-2.4,1-3.3c0.7-0.8,1.6-1.2,2.7-1.2
			c1,0,1.8,0.3,2.4,1c0.6,0.7,0.9,1.6,0.9,2.8v0.6h-6.1c0,1.2,0.3,2.1,0.8,2.7s1.3,0.9,2.3,0.9c0.5,0,0.9,0,1.3-0.1
			c0.4-0.1,0.8-0.2,1.4-0.4v0.7c-0.5,0.2-0.9,0.4-1.3,0.4C165.7,204.4,165.2,204.4,164.7,204.4z M164.5,196.3c-0.8,0-1.5,0.3-2,0.8
			s-0.8,1.3-0.9,2.3h5.3c0-1-0.2-1.8-0.6-2.3S165.3,196.3,164.5,196.3z"/>
		<path style="fill:#828282;" d="M174.7,195.8h1l-3.8,4.1l4.1,4.4h-1l-4-4.3v4.3h-0.8v-8.5h0.8v4.1L174.7,195.8z"/>
		<path style="fill:#828282;" d="M182.8,196.4H180v7.8h-0.8v-7.8h-2.9v-0.7h6.5V196.4z"/>
		<path style="fill:#828282;" d="M183.1,195.8h0.8l1.8,4.8c0.5,1.5,0.9,2.5,1,3l0,0c0.2-0.7,0.6-1.7,1.1-3l1.8-4.7h0.8l-3.8,9.9
			c-0.3,0.8-0.6,1.3-0.8,1.6s-0.5,0.5-0.7,0.6s-0.6,0.2-1,0.2c-0.3,0-0.6-0.1-1-0.2v-0.7c0.3,0.1,0.6,0.1,1,0.1
			c0.3,0,0.5-0.1,0.7-0.2s0.4-0.3,0.6-0.6c0.2-0.3,0.4-0.7,0.6-1.3s0.4-0.9,0.4-1.1L183.1,195.8z"/>
	</g>
	<g style="enable-background:new    ;">
		<path style="fill:#828282;" d="M72.2,318.1h-0.8v-10.7h-6.6v10.7H64v-11.4h8.2V318.1z"/>
		<path style="fill:#828282;" d="M78.7,318.2c-1.2,0-2.2-0.4-2.9-1.1c-0.7-0.8-1-1.8-1-3.2c0-1.4,0.3-2.4,1-3.3
			c0.7-0.8,1.6-1.2,2.7-1.2c1,0,1.8,0.3,2.4,1s0.9,1.6,0.9,2.8v0.6h-6.1c0,1.2,0.3,2.1,0.8,2.7s1.3,0.9,2.3,0.9c0.5,0,0.9,0,1.3-0.1
			s0.8-0.2,1.4-0.4v0.7c-0.5,0.2-0.9,0.4-1.3,0.4C79.6,318.2,79.2,318.2,78.7,318.2z M78.4,310.1c-0.8,0-1.5,0.3-2,0.8
			s-0.8,1.3-0.9,2.3h5.3c0-1-0.2-1.8-0.6-2.3S79.2,310.1,78.4,310.1z"/>
		<path style="fill:#828282;" d="M87.7,318.2c-1.3,0-2.3-0.5-2.9-1.5h-0.1v0.7c0,0.4,0,0.8,0,1.3v3.2h-0.8v-12.3h0.7l0.1,1.2l0,0
			c0.6-0.9,1.5-1.4,2.8-1.4c1.1,0,2,0.4,2.6,1.1c0.6,0.8,0.9,1.8,0.9,3.3c0,1.4-0.3,2.5-0.9,3.2C89.6,317.8,88.8,318.2,87.7,318.2z
			 M87.6,317.5c0.9,0,1.5-0.3,2-1c0.5-0.6,0.7-1.5,0.7-2.7c0-2.5-0.9-3.7-2.7-3.7c-1,0-1.7,0.3-2.2,0.8s-0.7,1.4-0.7,2.7v0.3
			c0,1.3,0.2,2.3,0.7,2.8C85.9,317.2,86.6,317.5,87.6,317.5z"/>
		<path style="fill:#828282;" d="M97,318.2c-1.2,0-2.2-0.4-2.9-1.1c-0.7-0.8-1-1.8-1-3.2c0-1.4,0.3-2.4,1-3.3
			c0.7-0.8,1.6-1.2,2.7-1.2c1,0,1.8,0.3,2.4,1s0.9,1.6,0.9,2.8v0.6H94c0,1.2,0.3,2.1,0.8,2.7s1.3,0.9,2.3,0.9c0.5,0,0.9,0,1.3-0.1
			s0.8-0.2,1.4-0.4v0.7c-0.5,0.2-0.9,0.4-1.3,0.4C97.9,318.2,97.5,318.2,97,318.2z M96.8,310.1c-0.8,0-1.5,0.3-2,0.8
			s-0.8,1.3-0.9,2.3h5.3c0-1-0.2-1.8-0.6-2.3C98.1,310.4,97.5,310.1,96.8,310.1z"/>
		<path style="fill:#828282;" d="M103.1,309.6v6.1v1.6l5-7.7h1v8.5h-0.7V312v-1.6l-5,7.7h-1v-8.5H103.1z"/>
		<path style="fill:#828282;" d="M115.9,317.2l0.5-1.4l2.4-6.3h1.1v8.5h-0.7v-7.6c-0.1,0.3-0.2,0.7-0.4,1s-1,2.5-2.6,6.5h-0.7
			l-2.4-6c-0.1-0.2-0.2-0.5-0.3-0.8s-0.2-0.6-0.3-0.9v7.6h-0.7v-8.5h1l2.5,6.3C115.6,316.3,115.8,316.8,115.9,317.2z"/>
		<path style="fill:#828282;" d="M126.2,318.2c-1.2,0-2.2-0.4-2.9-1.1c-0.7-0.8-1-1.8-1-3.2c0-1.4,0.3-2.4,1-3.3
			c0.7-0.8,1.6-1.2,2.7-1.2c1,0,1.8,0.3,2.4,1c0.6,0.7,0.9,1.6,0.9,2.8v0.6h-6.1c0,1.2,0.3,2.1,0.8,2.7s1.3,0.9,2.3,0.9
			c0.5,0,0.9,0,1.3-0.1s0.8-0.2,1.4-0.4v0.7c-0.5,0.2-0.9,0.4-1.3,0.4C127.1,318.2,126.6,318.2,126.2,318.2z M125.9,310.1
			c-0.8,0-1.5,0.3-2,0.8s-0.8,1.3-0.9,2.3h5.3c0-1-0.2-1.8-0.6-2.3S126.7,310.1,125.9,310.1z"/>
		<path style="fill:#828282;" d="M132.3,309.6v3.7h5.4v-3.7h0.8v8.5h-0.8V314h-5.4v4.1h-0.8v-8.5H132.3z"/>
		<path style="fill:#828282;" d="M148.3,313.8c0,1.4-0.3,2.5-1,3.2c-0.7,0.8-1.6,1.2-2.8,1.2c-0.7,0-1.4-0.2-2-0.5s-1-0.9-1.3-1.5
			s-0.5-1.4-0.5-2.3c0-1.4,0.3-2.5,1-3.2s1.6-1.2,2.8-1.2s2.1,0.4,2.7,1.2C148,311.4,148.3,312.4,148.3,313.8z M141.6,313.8
			c0,1.2,0.3,2.1,0.8,2.7c0.5,0.7,1.2,1,2.2,1s1.7-0.3,2.2-1s0.8-1.6,0.8-2.7c0-1.2-0.3-2.1-0.8-2.7s-1.2-1-2.2-1s-1.7,0.3-2.2,1
			C141.9,311.7,141.6,312.6,141.6,313.8z"/>
		<path style="fill:#828282;" d="M157.2,311.6c0,0.5-0.1,1-0.4,1.3s-0.7,0.5-1.3,0.6v0.1c0.7,0.1,1.2,0.3,1.5,0.6
			c0.3,0.3,0.5,0.8,0.5,1.4c0,0.8-0.3,1.4-0.8,1.9c-0.5,0.4-1.3,0.7-2.4,0.7h-3.6v-8.5h3.6c1,0,1.7,0.2,2.2,0.5
			C156.9,310.4,157.2,310.9,157.2,311.6z M156.4,311.7c0-0.5-0.2-0.8-0.5-1.1s-0.9-0.3-1.6-0.3h-2.8v2.9h2.7c0.8,0,1.4-0.1,1.7-0.4
			C156.2,312.6,156.4,312.2,156.4,311.7z M156.6,315.5c0-1-0.8-1.6-2.4-1.6h-2.8v3.4h2.9C155.8,317.3,156.6,316.7,156.6,315.5z"/>
		<path style="fill:#828282;" d="M164.9,318.1l-0.2-1.3h-0.1c-0.4,0.5-0.9,0.9-1.3,1.2s-1,0.3-1.6,0.3c-0.8,0-1.5-0.2-1.9-0.6
			c-0.5-0.4-0.7-1-0.7-1.8s0.3-1.5,1-1.9c0.7-0.5,1.7-0.7,3-0.7h1.6v-0.6c0-0.8-0.2-1.4-0.5-1.8s-0.9-0.6-1.6-0.6
			c-0.8,0-1.6,0.2-2.4,0.7l-0.3-0.7c0.9-0.4,1.9-0.7,2.8-0.7c0.9,0,1.6,0.2,2.1,0.7s0.7,1.2,0.7,2.3v5.6h-0.6V318.1z M161.7,317.5
			c0.9,0,1.6-0.3,2.1-0.8s0.8-1.2,0.8-2.2v-0.8l-1.5,0.1c-1.2,0.1-2,0.2-2.6,0.6c-0.5,0.3-0.8,0.8-0.8,1.5c0,0.5,0.2,0.9,0.5,1.2
			C160.7,317.4,161.1,317.5,161.7,317.5z"/>
		<path style="fill:#828282;" d="M173.6,310.2h-2.8v7.8H170v-7.8h-2.9v-0.7h6.5V310.2z"/>
		<path style="fill:#828282;" d="M176.1,313.1h3c2,0,3,0.8,3,2.4c0,0.8-0.3,1.4-0.8,1.9c-0.6,0.5-1.4,0.7-2.4,0.7h-3.5v-8.5h0.8v3.5
			H176.1z M176.1,313.9v3.4h2.9c0.7,0,1.3-0.2,1.7-0.5s0.6-0.8,0.6-1.4s-0.2-1-0.5-1.2c-0.3-0.3-1-0.4-1.8-0.4h-2.9V313.9z"/>
	</g>
	<g>
		<path style="fill:#69BFFF;" d="M260.7,103.8L254.3,88h-0.1c0.1,1,0.1,2,0.1,3v12.8h-1.1V86.7h1.9l6.1,15.1h0.1l6.1-15.1h1.8v17.1
			H268v-13c0-0.9,0-1.8,0.1-2.8H268l-6.4,15.8C261.6,103.8,260.7,103.8,260.7,103.8z"/>
		<path style="fill:#69BFFF;" d="M284.1,97.4c0,2.1-0.5,3.7-1.5,4.9s-2.4,1.8-4.2,1.8c-1.1,0-2.1-0.3-3-0.8s-1.5-1.3-2-2.3
			s-0.7-2.2-0.7-3.5c0-2.1,0.5-3.7,1.5-4.9s2.4-1.7,4.1-1.7c1.8,0,3.1,0.6,4.1,1.8S284.1,95.4,284.1,97.4z M274.1,97.4
			c0,1.8,0.4,3.1,1.2,4.1s1.9,1.5,3.3,1.5s2.5-0.5,3.3-1.5s1.2-2.3,1.2-4.1c0-1.8-0.4-3.1-1.2-4.1s-1.9-1.5-3.3-1.5
			s-2.5,0.5-3.3,1.4S274.1,95.7,274.1,97.4z"/>
		<path style="fill:#69BFFF;" d="M288.7,91.1v9.2l-0.1,2.4l7.6-11.6h1.5v12.7h-1.1v-9.2v-2.5l-7.6,11.6h-1.5V91.1H288.7z
			 M292.7,89.3c-1.2,0-2.1-0.3-2.7-0.8s-1-1.4-1.1-2.5h1c0.1,0.9,0.4,1.5,0.8,1.8s1.1,0.5,1.9,0.5c0.9,0,1.5-0.2,1.9-0.6
			s0.7-1,0.8-1.8h1C296.3,88.2,295,89.3,292.7,89.3z"/>
		<path style="fill:#69BFFF;" d="M320.9,103.8h-1.2v-16h-9.9v16h-1.2V86.7h12.3L320.9,103.8L320.9,103.8z"/>
		<path style="fill:#69BFFF;" d="M330.9,104.1c-2,0-3.4-0.7-4.3-2.2h-0.1v1c0,0.6,0,1.2,0,1.9v4.9h-1.2V91.1h1l0.2,1.8h0.1
			c0.9-1.4,2.3-2.1,4.2-2.1c1.7,0,3,0.6,3.9,1.7s1.4,2.8,1.4,4.9s-0.5,3.7-1.4,4.9S332.5,104.1,330.9,104.1z M330.8,103
			c1.3,0,2.3-0.5,3-1.5s1.1-2.3,1.1-4.1c0-3.7-1.4-5.6-4.1-5.6c-1.5,0-2.6,0.4-3.3,1.2s-1,2.1-1,4v0.4c0,2,0.3,3.4,1,4.3
			S329.3,103,330.8,103z"/>
		<path style="fill:#69BFFF;" d="M350.2,97.4c0,2.1-0.5,3.7-1.5,4.9s-2.4,1.8-4.2,1.8c-1.1,0-2.1-0.3-3-0.8s-1.5-1.3-2-2.3
			s-0.7-2.2-0.7-3.5c0-2.1,0.5-3.7,1.5-4.9s2.4-1.7,4.1-1.7c1.8,0,3.1,0.6,4.1,1.8S350.2,95.4,350.2,97.4z M340.2,97.4
			c0,1.8,0.4,3.1,1.2,4.1s1.9,1.5,3.3,1.5s2.5-0.5,3.3-1.5s1.2-2.3,1.2-4.1c0-1.8-0.4-3.1-1.2-4.1s-1.9-1.5-3.3-1.5
			s-2.5,0.5-3.3,1.4S340.2,95.7,340.2,97.4z"/>
		<path style="fill:#69BFFF;" d="M358.9,104.1c-1.9,0-3.3-0.6-4.3-1.7s-1.6-2.7-1.6-4.8c0-2,0.5-3.7,1.5-4.9s2.3-1.8,4-1.8
			c1.5,0,2.7,0.5,3.6,1.6s1.3,2.5,1.3,4.3v0.9h-9.2c0,1.8,0.4,3.1,1.2,4s1.9,1.4,3.4,1.4c0.7,0,1.4-0.1,1.9-0.2s1.2-0.3,2.1-0.7v1.1
			c-0.7,0.3-1.4,0.5-2,0.6S359.6,104.1,358.9,104.1z M358.6,91.9c-1.2,0-2.2,0.4-3,1.2s-1.2,2-1.3,3.5h7.9c0-1.5-0.3-2.6-1-3.5
			S359.7,91.9,358.6,91.9z"/>
		<path style="fill:#69BFFF;" d="M373.8,91.1h1.4l-5.7,6.2l6.1,6.6H374l-6-6.5v6.5h-1.2V91.1h1.2v6.2L373.8,91.1z"/>
		<path style="fill:#69BFFF;" d="M386,92.1h-4.2v11.7h-1.1V92.1h-4.3v-1h9.7v1H386z"/>
	</g>
</g>
<title>designmap_1_ru</title>
<g>
	<g>
		<g>
			<path style="fill:#FFFFFF;" d="M301,20v27h-90V20H301 M302,19h-92v29h92V19L302,19z"/>
		</g>
	</g>
	<g>
		<g>
			<path style="fill:#FFFFFF;" d="M401,20v27h-90V20H401 M402,19h-92v29h92V19L402,19z"/>
		</g>
	</g>
	<g style="enable-background:new    ;">
		<path style="fill:#FFFDFC;" d="M98.6,33.5c0,0.5-0.2,0.9-0.5,1.2s-0.7,0.5-1.2,0.6l0,0c0.6,0.1,1.1,0.3,1.4,0.6s0.5,0.7,0.5,1.3
			c0,0.7-0.3,1.3-0.8,1.7s-1.2,0.6-2.2,0.6c-0.8,0-1.5-0.1-2.1-0.4v-0.5c0.3,0.2,0.6,0.3,1,0.4c0.4,0.1,0.7,0.1,1.1,0.1
			c0.8,0,1.4-0.2,1.8-0.5s0.6-0.8,0.6-1.3s-0.2-0.9-0.6-1.2s-1-0.4-1.8-0.4H95v-0.5h0.9c0.7,0,1.2-0.2,1.6-0.5S98,34,98,33.4
			c0-0.4-0.2-0.8-0.5-1S96.8,32,96.3,32c-0.4,0-0.7,0.1-1.1,0.2c-0.3,0.1-0.7,0.3-1.1,0.6l-0.3-0.4c0.3-0.3,0.7-0.5,1.1-0.6
			s0.9-0.2,1.3-0.2c0.7,0,1.3,0.2,1.7,0.5C98.4,32.4,98.6,32.9,98.6,33.5z"/>
		<path style="fill:#FFFDFC;" d="M108,35.1c0,0.4-0.1,0.7-0.3,0.9c-0.2,0.2-0.5,0.4-0.9,0.4l0,0c0.5,0.1,0.8,0.2,1,0.4
			s0.3,0.5,0.3,0.9c0,0.6-0.2,1-0.6,1.3s-0.9,0.4-1.6,0.4h-2.5v-5.8h2.5c0.7,0,1.2,0.1,1.5,0.4C107.8,34.3,108,34.6,108,35.1z
			 M107.4,35.1c0-0.3-0.1-0.6-0.4-0.7s-0.6-0.2-1.1-0.2H104v2h1.9c0.5,0,0.9-0.1,1.2-0.3C107.3,35.7,107.4,35.5,107.4,35.1z
			 M107.6,37.7c0-0.7-0.6-1.1-1.7-1.1H104v2.3h2C107,38.9,107.6,38.5,107.6,37.7z"/>
		<path style="fill:#FFFDFC;" d="M110.2,36.1h1.9c1.4,0,2.1,0.5,2.1,1.6c0,0.5-0.2,1-0.6,1.3s-0.9,0.5-1.7,0.5h-2.2v-5.8h0.5
			C110.2,33.7,110.2,36.1,110.2,36.1z M110.2,36.6v2.3h1.8c0.5,0,0.9-0.1,1.2-0.3c0.3-0.2,0.4-0.5,0.4-0.9s-0.1-0.7-0.4-0.8
			c-0.2-0.2-0.7-0.3-1.2-0.3H110.2z M115.7,39.4h-0.5v-5.8h0.5V39.4z"/>
		<path style="fill:#FFFDFC;" d="M117.4,36c0-2.5,0.7-3.9,2.1-4.3c0.5-0.1,1-0.2,1.4-0.3c0.5-0.1,0.9-0.2,1.2-0.2l0.1,0.5l-0.6,0.1
			c-1.1,0.2-1.8,0.4-2.1,0.5c-0.5,0.1-0.9,0.5-1.1,1c-0.3,0.5-0.4,1.2-0.5,2.2l0,0c0.4-0.5,0.8-0.8,1.1-1c0.4-0.2,0.7-0.3,1.1-0.3
			c0.7,0,1.3,0.2,1.6,0.7c0.4,0.5,0.6,1.1,0.6,2s-0.2,1.6-0.7,2.1c-0.4,0.5-1.1,0.8-1.8,0.8c-0.8,0-1.4-0.3-1.9-0.9
			C117.6,38,117.4,37.1,117.4,36z M119.9,39.1c0.6,0,1.1-0.2,1.4-0.6c0.3-0.4,0.5-1,0.5-1.7s-0.1-1.3-0.4-1.6
			c-0.3-0.4-0.7-0.6-1.3-0.6c-0.4,0-0.8,0.1-1.2,0.4c-0.4,0.3-0.7,0.6-1,1.1c0,0.6,0.1,1.2,0.2,1.7c0.2,0.5,0.4,0.8,0.7,1.1
			S119.5,39.1,119.9,39.1z"/>
		<path style="fill:#FFFDFC;" d="M126.5,39.6c-0.9,0-1.6-0.3-2-1l0,0V39c0,0.3,0,0.5,0,0.9v2.2H124v-8.4h0.5l0.1,0.8l0,0
			c0.4-0.6,1-0.9,1.9-0.9c0.8,0,1.4,0.3,1.8,0.8c0.4,0.5,0.6,1.3,0.6,2.2c0,1-0.2,1.7-0.7,2.2C127.9,39.3,127.3,39.6,126.5,39.6z
			 M126.5,39.1c0.6,0,1.1-0.2,1.4-0.7c0.3-0.4,0.5-1.1,0.5-1.8c0-1.7-0.6-2.5-1.9-2.5c-0.7,0-1.2,0.2-1.5,0.6
			c-0.3,0.4-0.5,1-0.5,1.8v0.2c0,0.9,0.2,1.5,0.5,1.9C125.3,38.9,125.8,39.1,126.5,39.1z"/>
		<path style="fill:#FFFDFC;" d="M134.1,39.4l-0.1-0.9l0,0c-0.3,0.4-0.6,0.6-0.9,0.8s-0.7,0.2-1.1,0.2c-0.6,0-1-0.1-1.3-0.4
			c-0.3-0.3-0.5-0.7-0.5-1.2c0-0.6,0.2-1,0.7-1.3s1.2-0.5,2.1-0.5h1.1v-0.4c0-0.5-0.1-1-0.3-1.2s-0.6-0.4-1.1-0.4s-1.1,0.1-1.7,0.4
			l-0.2-0.5c0.6-0.3,1.3-0.4,1.9-0.4c0.6,0,1.1,0.2,1.4,0.5c0.3,0.3,0.5,0.8,0.5,1.5v3.8C134.6,39.4,134.1,39.4,134.1,39.4z
			 M132,39.1c0.6,0,1.1-0.2,1.5-0.5c0.4-0.4,0.5-0.8,0.5-1.5v-0.6h-1c-0.8,0-1.4,0.2-1.8,0.4s-0.5,0.5-0.5,1c0,0.4,0.1,0.6,0.3,0.8
			C131.3,39,131.6,39.1,132,39.1z"/>
		<path style="fill:#FFFDFC;" d="M137,33.7v2.5h3.7v-2.5h0.5v5.8h-0.5v-2.8H137v2.8h-0.5v-5.8H137z"/>
		<path style="fill:#FFFDFC;" d="M148,36.5c0,0.9-0.2,1.7-0.7,2.2s-1.1,0.8-1.9,0.8c-0.5,0-1-0.1-1.4-0.4c-0.4-0.2-0.7-0.6-0.9-1.1
			s-0.3-1-0.3-1.6c0-0.9,0.2-1.7,0.7-2.2s1.1-0.8,1.9-0.8c0.8,0,1.4,0.3,1.9,0.8C147.8,34.9,148,35.6,148,36.5z M143.4,36.5
			c0,0.8,0.2,1.4,0.5,1.9s0.9,0.7,1.5,0.7s1.1-0.2,1.5-0.7s0.5-1.1,0.5-1.9c0-0.8-0.2-1.4-0.5-1.9c-0.4-0.4-0.9-0.7-1.5-0.7
			s-1.1,0.2-1.5,0.7C143.6,35.1,143.4,35.7,143.4,36.5z"/>
	</g>
	<g style="enable-background:new    ;">
		<path style="fill:#FFFDFC;" d="M321.6,30.5h2.1c1,0,1.7,0.2,2.1,0.5s0.7,0.8,0.7,1.5c0,0.5-0.1,0.8-0.4,1.1s-0.7,0.5-1.2,0.6l0,0
			c0.6,0.1,1.1,0.3,1.4,0.6s0.4,0.7,0.4,1.3c0,0.7-0.2,1.3-0.7,1.7s-1.1,0.6-2,0.6h-2.4V30.5z M322.2,34h1.7c0.7,0,1.3-0.1,1.6-0.4
			c0.3-0.2,0.5-0.6,0.5-1.1s-0.2-0.9-0.6-1.1s-0.9-0.4-1.7-0.4h-1.6v3H322.2z M322.2,34.5v3.4h1.8c1.4,0,2.2-0.6,2.2-1.8
			c0-1.1-0.8-1.6-2.3-1.6C323.9,34.5,322.2,34.5,322.2,34.5z"/>
		<path style="fill:#FFFDFC;" d="M333.1,35.4c0,0.9-0.2,1.7-0.7,2.2s-1.1,0.8-1.9,0.8c-0.5,0-1-0.1-1.3-0.4
			c-0.4-0.2-0.7-0.6-0.9-1.1s-0.3-1-0.3-1.6c0-0.9,0.2-1.7,0.7-2.2s1.1-0.8,1.9-0.8s1.4,0.3,1.9,0.8
			C332.9,33.7,333.1,34.5,333.1,35.4z M328.5,35.4c0,0.8,0.2,1.4,0.5,1.9c0.3,0.4,0.8,0.7,1.5,0.7s1.1-0.2,1.5-0.7
			c0.3-0.4,0.5-1.1,0.5-1.9c0-0.8-0.2-1.4-0.5-1.9c-0.4-0.4-0.8-0.7-1.5-0.7s-1.1,0.2-1.5,0.7C328.7,34,328.5,34.6,328.5,35.4z"/>
		<path style="fill:#FFFDFC;" d="M337,38.4c-0.8,0-1.5-0.3-1.9-0.8c-0.5-0.5-0.7-1.2-0.7-2.2s0.2-1.7,0.7-2.2s1.2-0.8,2-0.8
			c0.5,0,1,0.1,1.4,0.3l-0.1,0.5c-0.5-0.2-0.9-0.3-1.3-0.3c-0.7,0-1.2,0.2-1.6,0.7c-0.4,0.4-0.5,1.1-0.5,1.9c0,0.8,0.2,1.4,0.5,1.8
			c0.4,0.4,0.9,0.7,1.5,0.7c0.5,0,1-0.1,1.5-0.3v0.5C338.1,38.3,337.6,38.4,337,38.4z"/>
		<path style="fill:#FFFDFC;" d="M342.2,38.4c-0.8,0-1.5-0.3-1.9-0.8c-0.5-0.5-0.7-1.2-0.7-2.2s0.2-1.7,0.7-2.2s1.2-0.8,2-0.8
			c0.5,0,1,0.1,1.4,0.3l-0.1,0.5c-0.5-0.2-0.9-0.3-1.3-0.3c-0.7,0-1.2,0.2-1.6,0.7c-0.4,0.4-0.5,1.1-0.5,1.9c0,0.8,0.2,1.4,0.5,1.8
			c0.4,0.4,0.9,0.7,1.5,0.7c0.5,0,1-0.1,1.5-0.3v0.5C343.3,38.3,342.8,38.4,342.2,38.4z"/>
		<path style="fill:#FFFDFC;" d="M348.7,33h-1.9v5.3h-0.5V33h-2v-0.5h4.4V33z"/>
		<path style="fill:#FFFDFC;" d="M353.4,38.3l-0.1-0.9l0,0c-0.3,0.4-0.6,0.6-0.9,0.8s-0.7,0.2-1.1,0.2c-0.6,0-1-0.1-1.3-0.4
			c-0.3-0.3-0.5-0.7-0.5-1.2c0-0.6,0.2-1,0.7-1.3s1.1-0.5,2-0.5h1.1v-0.4c0-0.5-0.1-1-0.3-1.2c-0.2-0.3-0.6-0.4-1.1-0.4
			s-1.1,0.1-1.7,0.4l-0.2-0.5c0.6-0.3,1.3-0.4,1.9-0.4s1.1,0.2,1.4,0.5s0.5,0.8,0.5,1.5v3.8C353.8,38.3,353.4,38.3,353.4,38.3z
			 M351.3,37.9c0.6,0,1.1-0.2,1.5-0.5s0.5-0.8,0.5-1.5v-0.6h-1c-0.8,0-1.4,0.2-1.7,0.4c-0.3,0.2-0.5,0.5-0.5,1
			c0,0.4,0.1,0.6,0.3,0.8C350.6,37.8,350.9,37.9,351.3,37.9z"/>
		<path style="fill:#FFFDFC;" d="M356.2,32.5V35h3.7v-2.5h0.5v5.8h-0.5v-2.8h-3.7v2.8h-0.5v-5.8H356.2z"/>
		<path style="fill:#FFFDFC;" d="M367.1,35.4c0,0.9-0.2,1.7-0.7,2.2s-1.1,0.8-1.9,0.8c-0.5,0-1-0.1-1.3-0.4
			c-0.4-0.2-0.7-0.6-0.9-1.1s-0.3-1-0.3-1.6c0-0.9,0.2-1.7,0.7-2.2s1.1-0.8,1.9-0.8s1.4,0.3,1.9,0.8
			C366.9,33.7,367.1,34.5,367.1,35.4z M362.5,35.4c0,0.8,0.2,1.4,0.5,1.9c0.3,0.4,0.8,0.7,1.5,0.7s1.1-0.2,1.5-0.7
			c0.3-0.4,0.5-1.1,0.5-1.9c0-0.8-0.2-1.4-0.5-1.9c-0.4-0.4-0.8-0.7-1.5-0.7s-1.1,0.2-1.5,0.7C362.7,34,362.5,34.6,362.5,35.4z"/>
		<path style="fill:#FFFDFC;" d="M373.1,33.9c0,0.4-0.1,0.7-0.3,0.9c-0.2,0.2-0.5,0.4-0.9,0.4l0,0c0.5,0.1,0.8,0.2,1,0.4
			s0.3,0.5,0.3,0.9c0,0.6-0.2,1-0.6,1.3s-0.9,0.4-1.6,0.4h-2.4v-5.8h2.5c0.7,0,1.2,0.1,1.5,0.4C373,33.1,373.1,33.5,373.1,33.9z
			 M372.6,34c0-0.3-0.1-0.6-0.4-0.7c-0.2-0.1-0.6-0.2-1.1-0.2h-1.9v2h1.8c0.5,0,0.9-0.1,1.2-0.3C372.5,34.6,372.6,34.3,372.6,34z
			 M372.7,36.6c0-0.7-0.5-1.1-1.6-1.1h-1.9v2.3h2C372.2,37.8,372.7,37.4,372.7,36.6z"/>
		<path style="fill:#FFFDFC;" d="M375.4,32.5v4.2v1.1l3.4-5.3h0.7v5.8H379v-4.2V33l-3.4,5.3h-0.7v-5.8H375.4z"/>
		<path style="fill:#FFFDFC;" d="M385.1,33h-1.9v5.3h-0.5V33h-2v-0.5h4.4V33z"/>
		<path style="fill:#FFFDFC;" d="M386.8,35h2c1.4,0,2,0.5,2,1.6c0,0.5-0.2,1-0.6,1.3s-0.9,0.5-1.6,0.5h-2.4v-5.8h0.5V35H386.8z
			 M386.8,35.5v2.3h2c0.5,0,0.9-0.1,1.2-0.3c0.3-0.2,0.4-0.5,0.4-0.9s-0.1-0.7-0.4-0.8c-0.2-0.2-0.6-0.3-1.2-0.3H386.8z"/>
	</g>
	<g style="enable-background:new    ;">
		<path style="fill:#FFFDFC;" d="M236.1,37.8c-0.4,0-0.8-0.1-1-0.2v-0.5c0.3,0.1,0.6,0.2,1,0.2c0.3,0,0.5,0,0.7-0.1s0.4-0.2,0.5-0.4
			c0.2-0.2,0.3-0.5,0.6-1l-3.1-5.9h0.6l2.4,4.5c0.1,0.2,0.2,0.5,0.3,0.8l0,0l0.1-0.3l2.2-5h0.6l-2.5,5.5c-0.2,0.4-0.3,0.7-0.5,1
			c-0.1,0.3-0.3,0.6-0.5,0.8s-0.4,0.4-0.6,0.5S236.4,37.8,236.1,37.8z"/>
		<path style="fill:#FFFDFC;" d="M246.7,39.7h-0.5v-2h-4.4v2h-0.5v-2.5h0.4c0.5-0.7,0.9-1.5,1.1-2.4c0.3-0.9,0.4-1.9,0.4-2.9h2.8
			v5.3h0.8v2.5H246.7z M245.4,37.2v-4.8h-1.8c-0.1,1.9-0.5,3.5-1.4,4.8H245.4z"/>
		<path style="fill:#FFFDFC;" d="M251.4,37.7l-0.1-0.9l0,0c-0.3,0.4-0.6,0.6-0.9,0.8s-0.7,0.2-1.1,0.2c-0.6,0-1-0.1-1.3-0.4
			c-0.3-0.3-0.5-0.7-0.5-1.2c0-0.6,0.2-1,0.7-1.3s1.1-0.5,2-0.5h1.1V34c0-0.5-0.1-1-0.3-1.2c-0.2-0.3-0.6-0.4-1.1-0.4
			s-1.1,0.1-1.7,0.4l-0.2-0.5c0.6-0.3,1.3-0.4,1.9-0.4c0.6,0,1.1,0.2,1.4,0.5c0.3,0.3,0.5,0.8,0.5,1.5v3.8
			C251.8,37.7,251.4,37.7,251.4,37.7z M249.3,37.4c0.6,0,1.1-0.2,1.5-0.5s0.5-0.8,0.5-1.5v-0.6h-1c-0.8,0-1.4,0.2-1.7,0.4
			s-0.5,0.5-0.5,1c0,0.4,0.1,0.6,0.3,0.8C248.6,37.3,248.9,37.4,249.3,37.4z"/>
		<path style="fill:#FFFDFC;" d="M257.7,37.7h-0.5v-5.3h-2c-0.1,1.4-0.2,2.5-0.4,3.2s-0.4,1.3-0.6,1.6c-0.2,0.3-0.6,0.5-0.9,0.5
			c-0.1,0-0.3,0-0.4,0v-0.5c0.1,0,0.2,0,0.3,0c0.4,0,0.7-0.4,1-1.3c0.2-0.8,0.4-2.2,0.6-4.1h3v5.9H257.7z"/>
		<path style="fill:#FFFDFC;" d="M260.1,31.9v4.2v1.1l3.4-5.3h0.7v5.8h-0.5v-4.2v-1.1l-3.4,5.3h-0.7v-5.8
			C259.6,31.9,260.1,31.9,260.1,31.9z"/>
		<path style="fill:#FFFDFC;" d="M269.8,32.4h-1.9v5.3h-0.5v-5.3h-2v-0.5h4.4V32.4z"/>
		<path style="fill:#FFFDFC;" d="M271.5,34.4h2c1.4,0,2,0.5,2,1.6c0,0.5-0.2,1-0.6,1.3s-0.9,0.5-1.6,0.5H271V32h0.5V34.4z
			 M271.5,34.9v2.3h2c0.5,0,0.9-0.1,1.2-0.3c0.3-0.2,0.4-0.5,0.4-0.9s-0.1-0.7-0.4-0.8c-0.2-0.2-0.6-0.3-1.2-0.3H271.5z"/>
	</g>
</g>
</svg>
