<?xml version="1.0" encoding="utf-8"?>
<!-- Generator: Adobe Illustrator 19.2.1, SVG Export Plug-In . SVG Version: 6.00 Build 0)  -->
<svg version="1.1" id="Слой_1" xmlns="http://www.w3.org/2000/svg" xmlns:xlink="http://www.w3.org/1999/xlink" x="0px" y="0px"
	 viewBox="0 0 423.9 167" style="enable-background:new 0 0 423.9 167;" xml:space="preserve">
<style type="text/css">
	.st0{fill:#FFFFFF;}
	.st1{fill:none;stroke:#B9BBBC;stroke-width:0.8943;stroke-linecap:round;stroke-linejoin:round;stroke-miterlimit:10;}
	.st2{fill:none;}
	.st3{enable-background:new    ;}
	.st4{fill:#B9BBBC;}
	.st5{fill:#B9BBBC;stroke:#B9BBBC;stroke-width:0.8943;stroke-linecap:round;stroke-linejoin:round;stroke-miterlimit:10;}
	.st6{fill:none;stroke:#B9BBBC;stroke-linecap:round;stroke-linejoin:round;stroke-miterlimit:10;}
	.st7{fill:#F1F1F1;}
	.st8{fill:#B7B9BA;}
	.st9{fill:none;stroke:#B7B9BA;stroke-width:0.8943;stroke-linecap:round;stroke-linejoin:round;stroke-miterlimit:10;}
	.st10{fill:none;stroke:#BBBBBB;stroke-width:0.5;stroke-linecap:round;stroke-linejoin:round;stroke-miterlimit:10;}
	.st11{fill:#BBBBBB;}
	.st12{fill:none;stroke:#B7B9BA;stroke-width:0.5;stroke-linecap:round;stroke-linejoin:round;stroke-miterlimit:10;}
</style>
<rect class="st0" width="423" height="167"/>
<g id="status_x5F_menu_1_">
	<g id="status_x5F_menu">
		<g id="completed_4_">
			<g>
				<circle class="st1" cx="120.7" cy="19.7" r="5.6"/>
				<line class="st1" x1="120.3" y1="21.5" x2="123.9" y2="18"/>
				<line class="st1" x1="120.3" y1="21.6" x2="118.5" y2="19.8"/>
			</g>
			<rect x="133.2" y="16.5" class="st2" width="44.7" height="16.5"/>
			<g class="st3">
				<path class="st4" d="M135.4,22.3c-0.6,0-1-0.2-1.4-0.5c-0.3-0.4-0.5-0.9-0.5-1.5c0-0.7,0.2-1.2,0.5-1.6s0.8-0.6,1.4-0.6
					c0.3,0,0.7,0.1,1,0.2l-0.1,0.3c-0.3-0.1-0.7-0.2-0.9-0.2c-0.5,0-0.9,0.2-1.1,0.5s-0.4,0.7-0.4,1.3c0,0.5,0.1,1,0.4,1.3
					c0.3,0.3,0.6,0.5,1.1,0.5c0.4,0,0.7-0.1,1-0.2v0.3C136.2,22.3,135.8,22.3,135.4,22.3z"/>
				<path class="st4" d="M140.8,20.3c0,0.7-0.2,1.2-0.5,1.5c-0.3,0.4-0.8,0.6-1.3,0.6c-0.4,0-0.7-0.1-0.9-0.3
					c-0.3-0.2-0.5-0.4-0.6-0.7s-0.2-0.7-0.2-1.1c0-0.7,0.2-1.2,0.5-1.5c0.3-0.4,0.8-0.6,1.3-0.6c0.6,0,1,0.2,1.3,0.6
					S140.8,19.6,140.8,20.3z M137.6,20.3c0,0.6,0.1,1,0.4,1.3s0.6,0.5,1,0.5s0.8-0.2,1-0.5s0.4-0.7,0.4-1.3c0-0.6-0.1-1-0.4-1.3
					s-0.6-0.5-1-0.5c-0.4,0-0.8,0.2-1,0.5S137.6,19.7,137.6,20.3z"/>
				<path class="st4" d="M146.9,22.3v-2.6c0-0.4-0.1-0.7-0.2-0.9c-0.2-0.2-0.4-0.3-0.7-0.3c-0.4,0-0.7,0.1-0.9,0.3
					c-0.2,0.2-0.3,0.6-0.3,1.1v2.4h-0.4v-2.8c0-0.7-0.3-1-0.9-1c-0.4,0-0.7,0.1-0.9,0.4s-0.3,0.6-0.3,1.2v2.2h-0.4v-4h0.3l0.1,0.6h0
					c0.1-0.2,0.3-0.4,0.5-0.5s0.4-0.2,0.7-0.2c0.6,0,1,0.2,1.2,0.7h0c0.1-0.2,0.3-0.4,0.5-0.5c0.2-0.1,0.5-0.2,0.8-0.2
					c0.4,0,0.8,0.1,1,0.4s0.3,0.6,0.3,1.1v2.6H146.9z"/>
				<path class="st4" d="M150.3,22.3c-0.6,0-1.1-0.2-1.4-0.7h0l0,0.3c0,0.2,0,0.4,0,0.6v1.5h-0.4v-5.9h0.3l0.1,0.6h0
					c0.3-0.4,0.7-0.7,1.3-0.7c0.5,0,1,0.2,1.2,0.5c0.3,0.4,0.4,0.9,0.4,1.6c0,0.7-0.1,1.2-0.5,1.5C151.3,22.2,150.8,22.3,150.3,22.3
					z M150.3,22c0.4,0,0.7-0.2,1-0.5c0.2-0.3,0.3-0.7,0.3-1.3c0-1.2-0.4-1.8-1.3-1.8c-0.5,0-0.8,0.1-1,0.4s-0.3,0.7-0.3,1.3v0.1
					c0,0.6,0.1,1.1,0.3,1.4S149.8,22,150.3,22z"/>
				<path class="st4" d="M153.5,22.3h-0.4v-5.8h0.4V22.3z"/>
				<path class="st4" d="M156.5,22.3c-0.6,0-1-0.2-1.4-0.5c-0.3-0.4-0.5-0.9-0.5-1.5c0-0.6,0.2-1.2,0.5-1.5c0.3-0.4,0.7-0.6,1.3-0.6
					c0.5,0,0.9,0.2,1.1,0.5c0.3,0.3,0.4,0.8,0.4,1.4v0.3H155c0,0.6,0.1,1,0.4,1.3c0.3,0.3,0.6,0.4,1.1,0.4c0.2,0,0.4,0,0.6,0
					s0.4-0.1,0.7-0.2v0.3c-0.2,0.1-0.4,0.2-0.6,0.2S156.7,22.3,156.5,22.3z M156.4,18.5c-0.4,0-0.7,0.1-0.9,0.4
					c-0.2,0.3-0.4,0.6-0.4,1.1h2.5c0-0.5-0.1-0.8-0.3-1.1C157,18.6,156.7,18.5,156.4,18.5z"/>
				<path class="st4" d="M160.1,22c0.2,0,0.4,0,0.6-0.1v0.3c-0.2,0.1-0.4,0.1-0.6,0.1c-0.4,0-0.6-0.1-0.8-0.3
					c-0.2-0.2-0.3-0.5-0.3-0.9v-2.6h-0.6v-0.2l0.6-0.2l0.2-0.9h0.2v1h1.2v0.3h-1.2v2.6c0,0.3,0.1,0.5,0.2,0.7
					C159.7,21.9,159.8,22,160.1,22z"/>
				<path class="st4" d="M163.2,22.3c-0.6,0-1-0.2-1.4-0.5c-0.3-0.4-0.5-0.9-0.5-1.5c0-0.6,0.2-1.2,0.5-1.5c0.3-0.4,0.7-0.6,1.3-0.6
					c0.5,0,0.9,0.2,1.1,0.5c0.3,0.3,0.4,0.8,0.4,1.4v0.3h-2.9c0,0.6,0.1,1,0.4,1.3c0.3,0.3,0.6,0.4,1.1,0.4c0.2,0,0.4,0,0.6,0
					s0.4-0.1,0.7-0.2v0.3c-0.2,0.1-0.4,0.2-0.6,0.2S163.4,22.3,163.2,22.3z M163.1,18.5c-0.4,0-0.7,0.1-0.9,0.4
					c-0.2,0.3-0.4,0.6-0.4,1.1h2.5c0-0.5-0.1-0.8-0.3-1.1C163.7,18.6,163.4,18.5,163.1,18.5z"/>
				<path class="st4" d="M167.2,18.2c0.3,0,0.5,0.1,0.8,0.2c0.2,0.1,0.4,0.3,0.6,0.5h0c0-0.3,0-0.6,0-0.9v-1.5h0.4v5.8h-0.2
					l-0.1-0.6h0c-0.3,0.5-0.7,0.7-1.3,0.7c-0.6,0-1-0.2-1.3-0.5s-0.4-0.9-0.4-1.5c0-0.7,0.1-1.2,0.4-1.6
					C166.2,18.3,166.6,18.2,167.2,18.2z M167.2,18.5c-0.4,0-0.8,0.2-1,0.5c-0.2,0.3-0.3,0.8-0.3,1.3c0,1.1,0.4,1.7,1.3,1.7
					c0.5,0,0.8-0.1,1-0.4s0.3-0.7,0.3-1.3v-0.1c0-0.6-0.1-1.1-0.3-1.3C168,18.6,167.7,18.5,167.2,18.5z"/>
			</g>
		</g>
		<g id="incomplete_2_">
			<rect x="48" y="16.9" class="st2" width="44.7" height="16.5"/>
			<g class="st3">
				<path class="st4" d="M48.8,22.7v-5.4h0.4v5.4H48.8z"/>
				<path class="st4" d="M53.4,22.7v-2.6c0-0.4-0.1-0.7-0.3-0.9c-0.2-0.2-0.4-0.3-0.8-0.3c-0.5,0-0.8,0.1-1.1,0.4
					c-0.2,0.2-0.3,0.6-0.3,1.2v2.2h-0.4v-4h0.3l0.1,0.6h0c0.3-0.4,0.7-0.6,1.4-0.6c0.9,0,1.4,0.5,1.4,1.5v2.6H53.4z"/>
				<path class="st4" d="M56.7,22.8c-0.6,0-1-0.2-1.4-0.5c-0.3-0.4-0.5-0.9-0.5-1.5c0-0.7,0.2-1.2,0.5-1.6s0.8-0.6,1.4-0.6
					c0.3,0,0.7,0.1,1,0.2l-0.1,0.3c-0.3-0.1-0.7-0.2-0.9-0.2c-0.5,0-0.9,0.2-1.1,0.5s-0.4,0.7-0.4,1.3c0,0.5,0.1,1,0.4,1.3
					c0.3,0.3,0.6,0.5,1.1,0.5c0.4,0,0.7-0.1,1-0.2v0.3C57.5,22.7,57.1,22.8,56.7,22.8z"/>
				<path class="st4" d="M62,20.7c0,0.7-0.2,1.2-0.5,1.5c-0.3,0.4-0.8,0.6-1.3,0.6c-0.4,0-0.7-0.1-0.9-0.3c-0.3-0.2-0.5-0.4-0.6-0.7
					s-0.2-0.7-0.2-1.1c0-0.7,0.2-1.2,0.5-1.5c0.3-0.4,0.8-0.6,1.3-0.6c0.6,0,1,0.2,1.3,0.6S62,20.1,62,20.7z M58.9,20.7
					c0,0.6,0.1,1,0.4,1.3s0.6,0.5,1,0.5s0.8-0.2,1-0.5s0.4-0.7,0.4-1.3c0-0.6-0.1-1-0.4-1.3s-0.6-0.5-1-0.5c-0.4,0-0.8,0.2-1,0.5
					S58.9,20.1,58.9,20.7z"/>
				<path class="st4" d="M68.2,22.7v-2.6c0-0.4-0.1-0.7-0.2-0.9c-0.2-0.2-0.4-0.3-0.7-0.3c-0.4,0-0.7,0.1-0.9,0.3
					c-0.2,0.2-0.3,0.6-0.3,1.1v2.4h-0.4V20c0-0.7-0.3-1-0.9-1c-0.4,0-0.7,0.1-0.9,0.4s-0.3,0.6-0.3,1.2v2.2h-0.4v-4h0.3l0.1,0.6h0
					c0.1-0.2,0.3-0.4,0.5-0.5s0.4-0.2,0.7-0.2c0.6,0,1,0.2,1.2,0.7h0c0.1-0.2,0.3-0.4,0.5-0.5c0.2-0.1,0.5-0.2,0.8-0.2
					c0.4,0,0.8,0.1,1,0.4s0.3,0.6,0.3,1.1v2.6H68.2z"/>
				<path class="st4" d="M71.6,22.8c-0.6,0-1.1-0.2-1.4-0.7h0l0,0.3c0,0.2,0,0.4,0,0.6v1.5h-0.4v-5.9h0.3l0.1,0.6h0
					c0.3-0.4,0.7-0.7,1.3-0.7c0.5,0,1,0.2,1.2,0.5c0.3,0.4,0.4,0.9,0.4,1.6c0,0.7-0.1,1.2-0.5,1.5C72.5,22.6,72.1,22.8,71.6,22.8z
					 M71.6,22.5c0.4,0,0.7-0.2,1-0.5c0.2-0.3,0.3-0.7,0.3-1.3c0-1.2-0.4-1.8-1.3-1.8c-0.5,0-0.8,0.1-1,0.4s-0.3,0.7-0.3,1.3v0.1
					c0,0.6,0.1,1.1,0.3,1.4S71.1,22.5,71.6,22.5z"/>
				<path class="st4" d="M74.8,22.7h-0.4v-5.8h0.4V22.7z"/>
				<path class="st4" d="M77.7,22.8c-0.6,0-1-0.2-1.4-0.5c-0.3-0.4-0.5-0.9-0.5-1.5c0-0.6,0.2-1.2,0.5-1.5c0.3-0.4,0.7-0.6,1.3-0.6
					c0.5,0,0.9,0.2,1.1,0.5c0.3,0.3,0.4,0.8,0.4,1.4v0.3h-2.9c0,0.6,0.1,1,0.4,1.3c0.3,0.3,0.6,0.4,1.1,0.4c0.2,0,0.4,0,0.6,0
					s0.4-0.1,0.7-0.2v0.3c-0.2,0.1-0.4,0.2-0.6,0.2S78,22.8,77.7,22.8z M77.6,18.9c-0.4,0-0.7,0.1-0.9,0.4c-0.2,0.3-0.4,0.6-0.4,1.1
					h2.5c0-0.5-0.1-0.8-0.3-1.1C78.3,19.1,78,18.9,77.6,18.9z"/>
				<path class="st4" d="M81.4,22.5c0.2,0,0.4,0,0.6-0.1v0.3c-0.2,0.1-0.4,0.1-0.6,0.1c-0.4,0-0.6-0.1-0.8-0.3
					c-0.2-0.2-0.3-0.5-0.3-0.9V19h-0.6v-0.2l0.6-0.2l0.2-0.9h0.2v1h1.2V19h-1.2v2.6c0,0.3,0.1,0.5,0.2,0.7
					C81,22.4,81.1,22.5,81.4,22.5z"/>
				<path class="st4" d="M84.5,22.8c-0.6,0-1-0.2-1.4-0.5c-0.3-0.4-0.5-0.9-0.5-1.5c0-0.6,0.2-1.2,0.5-1.5c0.3-0.4,0.7-0.6,1.3-0.6
					c0.5,0,0.9,0.2,1.1,0.5c0.3,0.3,0.4,0.8,0.4,1.4v0.3H83c0,0.6,0.1,1,0.4,1.3c0.3,0.3,0.6,0.4,1.1,0.4c0.2,0,0.4,0,0.6,0
					s0.4-0.1,0.7-0.2v0.3c-0.2,0.1-0.4,0.2-0.6,0.2S84.7,22.8,84.5,22.8z M84.4,18.9c-0.4,0-0.7,0.1-0.9,0.4
					c-0.2,0.3-0.4,0.6-0.4,1.1h2.5c0-0.5-0.1-0.8-0.3-1.1C85,19.1,84.7,18.9,84.4,18.9z"/>
				<path class="st4" d="M88.5,18.6c0.3,0,0.5,0.1,0.8,0.2c0.2,0.1,0.4,0.3,0.6,0.5h0c0-0.3,0-0.6,0-0.9v-1.5h0.4v5.8h-0.2l-0.1-0.6
					h0c-0.3,0.5-0.7,0.7-1.3,0.7c-0.6,0-1-0.2-1.3-0.5s-0.4-0.9-0.4-1.5c0-0.7,0.1-1.2,0.4-1.6C87.5,18.8,87.9,18.6,88.5,18.6z
					 M88.5,18.9c-0.4,0-0.8,0.2-1,0.5c-0.2,0.3-0.3,0.8-0.3,1.3c0,1.1,0.4,1.7,1.3,1.7c0.5,0,0.8-0.1,1-0.4s0.3-0.7,0.3-1.3v-0.1
					c0-0.6-0.1-1.1-0.3-1.3C89.3,19.1,89,18.9,88.5,18.9z"/>
			</g>
			<g>
				<g>
					<circle class="st1" cx="36.9" cy="20.1" r="5.6"/>
				</g>
				<line class="st1" x1="36.9" y1="20.2" x2="36.8" y2="23.6"/>
				<line class="st1" x1="36.8" y1="20.2" x2="38.5" y2="18.3"/>
				<path class="st1" d="M36,14.4c0-0.6,0.5-1.1,1.1-1.1s1.1,0.5,1.1,1.1"/>
			</g>
		</g>
		<g id="in_prosses_4_">
			<rect x="218.3" y="16.5" class="st2" width="44.7" height="16.5"/>
			<g class="st3">
				<path class="st4" d="M218.9,17.1c0-0.2,0.1-0.4,0.2-0.4c0.1,0,0.1,0,0.2,0.1s0.1,0.1,0.1,0.3c0,0.1,0,0.2-0.1,0.3
					s-0.1,0.1-0.2,0.1C219,17.5,218.9,17.4,218.9,17.1z M219.3,22.3h-0.4v-4h0.4V22.3z"/>
				<path class="st4" d="M223.5,22.3v-2.6c0-0.4-0.1-0.7-0.3-0.9c-0.2-0.2-0.4-0.3-0.8-0.3c-0.5,0-0.8,0.1-1.1,0.4
					c-0.2,0.2-0.3,0.6-0.3,1.2v2.2h-0.4v-4h0.3l0.1,0.6h0c0.3-0.4,0.7-0.6,1.4-0.6c0.9,0,1.4,0.5,1.4,1.5v2.6H223.5z"/>
				<path class="st4" d="M228.8,22.3c-0.6,0-1.1-0.2-1.4-0.7h0l0,0.3c0,0.2,0,0.4,0,0.6v1.5h-0.4v-5.9h0.3l0.1,0.6h0
					c0.3-0.4,0.7-0.7,1.3-0.7c0.5,0,1,0.2,1.2,0.5c0.3,0.4,0.4,0.9,0.4,1.6c0,0.7-0.1,1.2-0.5,1.5C229.8,22.2,229.4,22.3,228.8,22.3
					z M228.8,22c0.4,0,0.7-0.2,1-0.5c0.2-0.3,0.3-0.7,0.3-1.3c0-1.2-0.4-1.8-1.3-1.8c-0.5,0-0.8,0.1-1,0.4c-0.2,0.3-0.3,0.7-0.3,1.3
					v0.1c0,0.6,0.1,1.1,0.3,1.4C228,21.9,228.4,22,228.8,22z"/>
				<path class="st4" d="M233.2,18.2c0.2,0,0.4,0,0.5,0.1l-0.1,0.4c-0.2,0-0.3-0.1-0.5-0.1c-0.3,0-0.6,0.1-0.8,0.4
					c-0.2,0.3-0.3,0.7-0.3,1.1v2.2h-0.4v-4h0.3l0,0.7h0c0.2-0.3,0.3-0.5,0.5-0.6C232.7,18.2,233,18.2,233.2,18.2z"/>
				<path class="st4" d="M237.9,20.3c0,0.7-0.2,1.2-0.5,1.5s-0.8,0.6-1.3,0.6c-0.4,0-0.7-0.1-0.9-0.3s-0.5-0.4-0.6-0.7
					s-0.2-0.7-0.2-1.1c0-0.7,0.2-1.2,0.5-1.5c0.3-0.4,0.8-0.6,1.3-0.6c0.6,0,1,0.2,1.3,0.6S237.9,19.6,237.9,20.3z M234.7,20.3
					c0,0.6,0.1,1,0.4,1.3c0.2,0.3,0.6,0.5,1,0.5s0.8-0.2,1-0.5c0.2-0.3,0.4-0.7,0.4-1.3c0-0.6-0.1-1-0.4-1.3s-0.6-0.5-1-0.5
					c-0.4,0-0.8,0.2-1,0.5S234.7,19.7,234.7,20.3z"/>
				<path class="st4" d="M241.6,21.2c0,0.4-0.1,0.6-0.4,0.8c-0.3,0.2-0.7,0.3-1.2,0.3c-0.5,0-1-0.1-1.3-0.2v-0.4
					c0.4,0.2,0.8,0.3,1.3,0.3c0.4,0,0.7-0.1,0.9-0.2c0.2-0.1,0.3-0.3,0.3-0.5c0-0.2-0.1-0.4-0.2-0.5c-0.2-0.1-0.4-0.3-0.8-0.4
					c-0.4-0.1-0.7-0.3-0.8-0.4c-0.2-0.1-0.3-0.2-0.4-0.4c-0.1-0.1-0.1-0.3-0.1-0.5c0-0.3,0.1-0.5,0.4-0.7c0.3-0.2,0.6-0.3,1.1-0.3
					c0.4,0,0.8,0.1,1.2,0.2l-0.1,0.3c-0.4-0.2-0.8-0.2-1.1-0.2c-0.3,0-0.6,0.1-0.8,0.2c-0.2,0.1-0.3,0.3-0.3,0.5
					c0,0.2,0.1,0.4,0.2,0.5s0.4,0.3,0.9,0.4c0.4,0.1,0.6,0.2,0.8,0.4c0.2,0.1,0.3,0.2,0.4,0.4S241.6,21,241.6,21.2z"/>
				<path class="st4" d="M245.1,21.2c0,0.4-0.1,0.6-0.4,0.8c-0.3,0.2-0.7,0.3-1.2,0.3c-0.5,0-1-0.1-1.3-0.2v-0.4
					c0.4,0.2,0.8,0.3,1.3,0.3c0.4,0,0.7-0.1,0.9-0.2c0.2-0.1,0.3-0.3,0.3-0.5c0-0.2-0.1-0.4-0.2-0.5c-0.2-0.1-0.4-0.3-0.8-0.4
					c-0.4-0.1-0.7-0.3-0.8-0.4c-0.2-0.1-0.3-0.2-0.4-0.4c-0.1-0.1-0.1-0.3-0.1-0.5c0-0.3,0.1-0.5,0.4-0.7c0.3-0.2,0.6-0.3,1.1-0.3
					c0.4,0,0.8,0.1,1.2,0.2l-0.1,0.3c-0.4-0.2-0.8-0.2-1.1-0.2c-0.3,0-0.6,0.1-0.8,0.2c-0.2,0.1-0.3,0.3-0.3,0.5
					c0,0.2,0.1,0.4,0.2,0.5s0.4,0.3,0.9,0.4c0.4,0.1,0.6,0.2,0.8,0.4c0.2,0.1,0.3,0.2,0.4,0.4S245.1,21,245.1,21.2z"/>
				<path class="st4" d="M247.8,22.3c-0.6,0-1-0.2-1.4-0.5s-0.5-0.9-0.5-1.5c0-0.6,0.2-1.2,0.5-1.5c0.3-0.4,0.7-0.6,1.3-0.6
					c0.5,0,0.9,0.2,1.1,0.5c0.3,0.3,0.4,0.8,0.4,1.4v0.3h-2.9c0,0.6,0.1,1,0.4,1.3c0.3,0.3,0.6,0.4,1.1,0.4c0.2,0,0.4,0,0.6,0
					c0.2,0,0.4-0.1,0.7-0.2v0.3c-0.2,0.1-0.4,0.2-0.6,0.2C248.2,22.3,248,22.3,247.8,22.3z M247.7,18.5c-0.4,0-0.7,0.1-0.9,0.4
					c-0.2,0.3-0.4,0.6-0.4,1.1h2.5c0-0.5-0.1-0.8-0.3-1.1S248,18.5,247.7,18.5z"/>
				<path class="st4" d="M252.8,21.2c0,0.4-0.1,0.6-0.4,0.8s-0.7,0.3-1.2,0.3c-0.5,0-1-0.1-1.3-0.2v-0.4c0.4,0.2,0.8,0.3,1.3,0.3
					c0.4,0,0.7-0.1,0.9-0.2c0.2-0.1,0.3-0.3,0.3-0.5c0-0.2-0.1-0.4-0.2-0.5c-0.2-0.1-0.4-0.3-0.8-0.4c-0.4-0.1-0.7-0.3-0.8-0.4
					s-0.3-0.2-0.4-0.4c-0.1-0.1-0.1-0.3-0.1-0.5c0-0.3,0.1-0.5,0.4-0.7s0.6-0.3,1.1-0.3c0.4,0,0.8,0.1,1.2,0.2l-0.1,0.3
					c-0.4-0.2-0.8-0.2-1.1-0.2c-0.3,0-0.6,0.1-0.8,0.2c-0.2,0.1-0.3,0.3-0.3,0.5c0,0.2,0.1,0.4,0.2,0.5c0.1,0.1,0.4,0.3,0.9,0.4
					c0.4,0.1,0.6,0.2,0.8,0.4s0.3,0.2,0.4,0.4S252.8,21,252.8,21.2z"/>
			</g>
			<g>
				<g>
					<line class="st1" x1="207.2" y1="14" x2="208.1" y2="16"/>
					<line class="st1" x1="206" y1="16.2" x2="208.1" y2="16"/>
				</g>
				<path class="st1" d="M200.5,16.2c1.1-1.3,2.9-2,4.7-1.7c1.1,0.2,2.1,0.7,2.9,1.5"/>
				<g>
					<line class="st1" x1="198.3" y1="19.8" x2="199.6" y2="18"/>
					<line class="st1" x1="200.9" y1="19.8" x2="199.6" y2="18"/>
				</g>
				<path class="st1" d="M203.7,24.5c-1.7-0.3-3.2-1.5-3.9-3.2c-0.4-1.1-0.5-2.2-0.2-3.2"/>
				<g>
					<line class="st1" x1="207.8" y1="24.6" x2="205.6" y2="24.5"/>
					<line class="st1" x1="206.5" y1="22.4" x2="205.6" y2="24.5"/>
				</g>
				<path class="st1" d="M209,17.3c0.7,1.7,0.5,3.8-0.7,5.4c-0.7,0.9-1.7,1.5-2.7,1.8"/>
			</g>
		</g>
		<g id="expired_4_">
			<rect x="292.7" y="16.5" class="st2" width="44.7" height="16.5"/>
			<g class="st3">
				<path class="st4" d="M295,22.3c-0.6,0-1-0.2-1.4-0.5c-0.3-0.4-0.5-0.9-0.5-1.5c0-0.6,0.2-1.2,0.5-1.5c0.3-0.4,0.7-0.6,1.3-0.6
					c0.5,0,0.8,0.2,1.1,0.5c0.3,0.3,0.4,0.8,0.4,1.4v0.3h-2.9c0,0.6,0.1,1,0.4,1.3c0.3,0.3,0.6,0.4,1.1,0.4c0.2,0,0.4,0,0.6,0
					c0.2,0,0.4-0.1,0.7-0.2v0.3c-0.2,0.1-0.4,0.2-0.6,0.2C295.4,22.3,295.2,22.3,295,22.3z M294.8,18.5c-0.4,0-0.7,0.1-0.9,0.4
					c-0.2,0.3-0.4,0.6-0.4,1.1h2.5c0-0.5-0.1-0.8-0.3-1.1C295.5,18.6,295.2,18.5,294.8,18.5z"/>
				<path class="st4" d="M298.5,20.2l-1.4-2h0.4l1.2,1.7l1.2-1.7h0.4l-1.4,2l1.5,2.1H300l-1.3-1.8l-1.3,1.8H297L298.5,20.2z"/>
				<path class="st4" d="M303,22.3c-0.6,0-1.1-0.2-1.4-0.7h0l0,0.3c0,0.2,0,0.4,0,0.6v1.5h-0.4v-5.9h0.3l0.1,0.6h0
					c0.3-0.4,0.7-0.7,1.3-0.7c0.5,0,1,0.2,1.2,0.5s0.4,0.9,0.4,1.6c0,0.7-0.2,1.2-0.5,1.5C303.9,22.2,303.5,22.3,303,22.3z M303,22
					c0.4,0,0.7-0.2,1-0.5s0.3-0.7,0.3-1.3c0-1.2-0.4-1.8-1.3-1.8c-0.5,0-0.8,0.1-1,0.4c-0.2,0.3-0.3,0.7-0.3,1.3v0.1
					c0,0.6,0.1,1.1,0.3,1.4C302.2,21.9,302.5,22,303,22z"/>
				<path class="st4" d="M305.8,17.1c0-0.2,0.1-0.4,0.2-0.4c0.1,0,0.1,0,0.2,0.1c0,0.1,0.1,0.1,0.1,0.3c0,0.1,0,0.2-0.1,0.3
					c0,0.1-0.1,0.1-0.2,0.1C305.8,17.5,305.8,17.4,305.8,17.1z M306.2,22.3h-0.4v-4h0.4V22.3z"/>
				<path class="st4" d="M309.1,18.2c0.2,0,0.4,0,0.5,0.1l-0.1,0.4c-0.2,0-0.3-0.1-0.5-0.1c-0.3,0-0.6,0.1-0.8,0.4
					c-0.2,0.3-0.3,0.7-0.3,1.1v2.2h-0.4v-4h0.3l0,0.7h0c0.2-0.3,0.3-0.5,0.5-0.6C308.6,18.2,308.8,18.2,309.1,18.2z"/>
				<path class="st4" d="M312.1,22.3c-0.6,0-1-0.2-1.4-0.5s-0.5-0.9-0.5-1.5c0-0.6,0.2-1.2,0.5-1.5c0.3-0.4,0.7-0.6,1.3-0.6
					c0.5,0,0.9,0.2,1.1,0.5c0.3,0.3,0.4,0.8,0.4,1.4v0.3h-2.9c0,0.6,0.1,1,0.4,1.3c0.3,0.3,0.6,0.4,1.1,0.4c0.2,0,0.4,0,0.6,0
					c0.2,0,0.4-0.1,0.7-0.2v0.3c-0.2,0.1-0.4,0.2-0.6,0.2C312.6,22.3,312.3,22.3,312.1,22.3z M312,18.5c-0.4,0-0.7,0.1-0.9,0.4
					c-0.2,0.3-0.4,0.6-0.4,1.1h2.5c0-0.5-0.1-0.8-0.3-1.1S312.4,18.5,312,18.5z"/>
				<path class="st4" d="M316.1,18.2c0.3,0,0.5,0.1,0.8,0.2s0.4,0.3,0.6,0.5h0c0-0.3,0-0.6,0-0.9v-1.5h0.4v5.8h-0.2l-0.1-0.6h0
					c-0.3,0.5-0.7,0.7-1.3,0.7c-0.6,0-1-0.2-1.3-0.5c-0.3-0.3-0.4-0.9-0.4-1.5c0-0.7,0.1-1.2,0.4-1.6
					C315.2,18.3,315.6,18.2,316.1,18.2z M316.1,18.5c-0.4,0-0.8,0.2-1,0.5s-0.3,0.8-0.3,1.3c0,1.1,0.4,1.7,1.3,1.7
					c0.5,0,0.8-0.1,1-0.4s0.3-0.7,0.3-1.3v-0.1c0-0.6-0.1-1.1-0.3-1.3S316.6,18.5,316.1,18.5z"/>
			</g>
			<g>
				<g>
					<path class="st5" d="M280.9,20.3c-0.5-1.1-0.2-1.7,0.2-2.3c0.4-0.6,0.6-1.3,0.6-1.3s0.3,0.4,0.2,1.2c0.6-0.7,0.7-1.8,0.6-2.2
						c1.4,1,2,3.1,1.2,4.6c4.2-2.4,1.1-6,0.5-6.4c0.2,0.4,0.2,1.1-0.2,1.4c-0.6-2.4-2.2-2.9-2.2-2.9c0.2,1.2-0.7,2.6-1.5,3.6
						c0-0.5-0.1-0.8-0.3-1.3c-0.1,0.9-0.7,1.6-0.9,2.5C278.8,18.5,279.2,19.4,280.9,20.3z"/>
				</g>
				<path class="st1" d="M284.6,21.2c0,0.2-0.1,0.5-0.2,0.7c-0.6,2-2.4,3.4-4.6,3.4c-2.6,0-4.8-2.1-4.8-4.8c0-2.1,1.4-3.9,3.2-4.5"
					/>
			</g>
		</g>
		<g id="all_2_">
			<g>
				<rect x="361.7" y="16" class="st2" width="44.7" height="16.5"/>
				<g class="st3">
					<path class="st4" d="M364.8,21.8l-0.1-0.6h0c-0.2,0.3-0.4,0.4-0.6,0.6c-0.2,0.1-0.5,0.2-0.8,0.2c-0.4,0-0.7-0.1-0.9-0.3
						c-0.2-0.2-0.3-0.5-0.3-0.8c0-0.4,0.2-0.7,0.5-0.9s0.8-0.3,1.4-0.3l0.8,0v-0.3c0-0.4-0.1-0.7-0.2-0.9c-0.2-0.2-0.4-0.3-0.8-0.3
						c-0.4,0-0.8,0.1-1.2,0.3l-0.1-0.3c0.4-0.2,0.9-0.3,1.3-0.3c0.4,0,0.8,0.1,1,0.3s0.3,0.6,0.3,1.1v2.7H364.8z M363.3,21.6
						c0.4,0,0.8-0.1,1-0.4s0.4-0.6,0.4-1v-0.4l-0.7,0c-0.6,0-1,0.1-1.2,0.3c-0.2,0.2-0.4,0.4-0.4,0.7c0,0.3,0.1,0.4,0.2,0.6
						C362.8,21.5,363,21.6,363.3,21.6z"/>
					<path class="st4" d="M366.7,21.8h-0.4v-5.8h0.4V21.8z"/>
					<path class="st4" d="M368.5,21.8h-0.4v-5.8h0.4V21.8z"/>
				</g>
			</g>
			<g>
				<g>
					<circle class="st1" cx="353.7" cy="16.6" r="2"/>
					<circle class="st1" cx="357.2" cy="22" r="2"/>
					<circle class="st1" cx="350.1" cy="22" r="2"/>
				</g>
			</g>
		</g>
	</g>
</g>
<g>
	<rect x="20" y="121.6" class="st2" width="204.7" height="18.5"/>
	<g class="st3">
		<path class="st4" d="M25.3,127.7h-3.5l-1.2,3H20l3.4-8.6h0.4l3.4,8.6h-0.7L25.3,127.7z M22.1,127.1h3.1l-1.2-3.1
			c-0.1-0.2-0.2-0.6-0.4-1c-0.1,0.4-0.2,0.7-0.3,1L22.1,127.1z"/>
		<path class="st4" d="M30.6,124.2c0.5,0,0.9,0.1,1.2,0.3s0.6,0.5,0.9,0.9h0c0-0.5,0-1,0-1.4v-2.3h0.6v9.1h-0.4l-0.1-1h0
			c-0.5,0.7-1.2,1.1-2.1,1.1c-0.9,0-1.6-0.3-2-0.8s-0.7-1.3-0.7-2.4c0-1.1,0.2-1.9,0.7-2.5S29.7,124.2,30.6,124.2z M30.6,124.7
			c-0.7,0-1.2,0.2-1.6,0.7s-0.5,1.2-0.5,2.1c0,1.8,0.7,2.7,2.1,2.7c0.7,0,1.2-0.2,1.6-0.6s0.5-1.1,0.5-2.1v-0.1c0-1-0.2-1.7-0.5-2.1
			S31.3,124.7,30.6,124.7z"/>
		<path class="st4" d="M37.7,124.2c0.5,0,0.9,0.1,1.2,0.3s0.6,0.5,0.9,0.9h0c0-0.5,0-1,0-1.4v-2.3h0.6v9.1H40l-0.1-1h0
			c-0.5,0.7-1.2,1.1-2.1,1.1c-0.9,0-1.6-0.3-2-0.8s-0.7-1.3-0.7-2.4c0-1.1,0.2-1.9,0.7-2.5S36.9,124.2,37.7,124.2z M37.7,124.7
			c-0.7,0-1.2,0.2-1.6,0.7s-0.5,1.2-0.5,2.1c0,1.8,0.7,2.7,2.1,2.7c0.7,0,1.2-0.2,1.6-0.6s0.5-1.1,0.5-2.1v-0.1c0-1-0.2-1.7-0.5-2.1
			S38.5,124.7,37.7,124.7z"/>
		<path class="st4" d="M47.4,130.3c0.4,0,0.7,0,1-0.1v0.5c-0.3,0.1-0.6,0.1-1,0.1c-0.6,0-1-0.2-1.2-0.5s-0.4-0.8-0.4-1.4v-4.1h-0.9
			v-0.3l0.9-0.3l0.3-1.4h0.3v1.5h1.9v0.5h-1.9v4c0,0.5,0.1,0.8,0.3,1.1S47,130.3,47.4,130.3z"/>
		<path class="st4" d="M53.6,130.7l-0.1-1h0c-0.3,0.4-0.6,0.7-1,0.9s-0.7,0.3-1.2,0.3c-0.6,0-1.1-0.2-1.5-0.5s-0.5-0.8-0.5-1.3
			c0-0.6,0.3-1.1,0.8-1.4s1.3-0.5,2.2-0.5l1.2,0v-0.4c0-0.6-0.1-1.1-0.4-1.4s-0.6-0.5-1.2-0.5c-0.6,0-1.2,0.2-1.8,0.5l-0.2-0.5
			c0.7-0.3,1.4-0.5,2.1-0.5c0.7,0,1.2,0.2,1.6,0.5s0.5,0.9,0.5,1.7v4.2H53.6z M51.2,130.3c0.7,0,1.2-0.2,1.6-0.6s0.6-0.9,0.6-1.6
			v-0.6l-1.1,0c-0.9,0-1.5,0.2-1.9,0.4s-0.6,0.6-0.6,1.1c0,0.4,0.1,0.7,0.4,0.9S50.8,130.3,51.2,130.3z"/>
		<path class="st4" d="M60,129c0,0.6-0.2,1-0.7,1.3s-1,0.5-1.8,0.5c-0.9,0-1.5-0.1-2-0.4v-0.6c0.6,0.3,1.3,0.5,2,0.5
			c0.6,0,1.1-0.1,1.4-0.3s0.5-0.5,0.5-0.8c0-0.3-0.1-0.6-0.4-0.8s-0.7-0.4-1.3-0.6c-0.6-0.2-1.1-0.4-1.3-0.6s-0.5-0.4-0.6-0.6
			s-0.2-0.5-0.2-0.8c0-0.5,0.2-0.9,0.6-1.1s1-0.4,1.7-0.4c0.7,0,1.3,0.1,2,0.4l-0.2,0.5c-0.6-0.3-1.2-0.4-1.7-0.4
			c-0.5,0-0.9,0.1-1.2,0.3s-0.5,0.4-0.5,0.7c0,0.3,0.1,0.6,0.4,0.8s0.7,0.4,1.4,0.7c0.6,0.2,1,0.4,1.3,0.6s0.5,0.4,0.6,0.6
			S60,128.8,60,129z"/>
		<path class="st4" d="M62.2,127.9l3.3-3.6h0.7l-2.5,2.7l2.7,3.7h-0.7l-2.4-3.2l-1,0.9v2.3h-0.6v-9.1h0.6v4.6L62.2,127.9L62.2,127.9
			z"/>
	</g>
	<g id="del_2px_small_11_">
		<line class="st6" x1="13.7" y1="136.5" x2="407.9" y2="136.5"/>
	</g>
	<g>
		<line class="st6" x1="401.9" y1="127.1" x2="389.1" y2="127.1"/>
		<polyline class="st6" points="398.5,130.7 402.1,127.1 398.5,123.6 		"/>
	</g>
</g>
<polygon class="st7" points="423.9,72.8 0.5,72.4 0.5,43.8 423.9,44.2 "/>
<g>
	<rect x="34.9" y="51.6" class="st2" width="183" height="16.5"/>
	<g class="st3">
		<path class="st8" d="M38,59.7h-0.5v-7.2H35v-0.5h5.5v0.5H38V59.7z"/>
		<path class="st8" d="M45,59.7l-0.1-0.9h0c-0.3,0.4-0.6,0.6-0.9,0.8s-0.7,0.2-1.1,0.2c-0.6,0-1-0.1-1.3-0.4
			c-0.3-0.3-0.5-0.7-0.5-1.2c0-0.6,0.2-1,0.7-1.3c0.5-0.3,1.1-0.5,2-0.5l1.1,0V56c0-0.5-0.1-1-0.3-1.2c-0.2-0.3-0.6-0.4-1.1-0.4
			c-0.5,0-1.1,0.1-1.6,0.4l-0.2-0.5c0.6-0.3,1.2-0.4,1.9-0.4c0.6,0,1.1,0.2,1.4,0.5c0.3,0.3,0.5,0.8,0.5,1.5v3.8H45z M42.9,59.4
			c0.6,0,1.1-0.2,1.4-0.5s0.5-0.8,0.5-1.4v-0.6l-1,0c-0.8,0-1.4,0.2-1.7,0.4c-0.3,0.2-0.5,0.5-0.5,1c0,0.4,0.1,0.6,0.3,0.8
			S42.5,59.4,42.9,59.4z"/>
		<path class="st8" d="M50.7,58.3c0,0.5-0.2,0.9-0.6,1.2s-0.9,0.4-1.7,0.4c-0.8,0-1.4-0.1-1.8-0.4v-0.6c0.6,0.3,1.2,0.4,1.8,0.4
			c0.6,0,1-0.1,1.3-0.3c0.3-0.2,0.4-0.4,0.4-0.7c0-0.3-0.1-0.5-0.3-0.7c-0.2-0.2-0.6-0.4-1.1-0.6c-0.6-0.2-1-0.4-1.2-0.5
			c-0.2-0.1-0.4-0.3-0.5-0.5c-0.1-0.2-0.2-0.4-0.2-0.7c0-0.4,0.2-0.8,0.5-1s0.9-0.4,1.5-0.4c0.6,0,1.2,0.1,1.8,0.3l-0.2,0.5
			c-0.6-0.2-1.1-0.3-1.6-0.3c-0.5,0-0.8,0.1-1.1,0.2s-0.4,0.4-0.4,0.6c0,0.3,0.1,0.5,0.3,0.7c0.2,0.2,0.6,0.4,1.2,0.6
			c0.5,0.2,0.9,0.4,1.1,0.5s0.4,0.3,0.5,0.5C50.7,57.8,50.7,58,50.7,58.3z"/>
		<path class="st8" d="M52.7,57.2l2.9-3.2h0.6L54,56.5l2.4,3.3h-0.6l-2.2-2.9l-0.9,0.8v2h-0.5v-8.2h0.5v4.1L52.7,57.2L52.7,57.2z"/>
		<path class="st8" d="M65.6,59.7H65L60.8,53h0c0,0.8,0.1,1.4,0.1,1.8v5h-0.5v-7.7h0.5l4.2,6.8h0c0-0.8,0-1.4,0-1.8v-5h0.5V59.7z
			 M69.5,56.5c0,0.6-0.1,1-0.4,1.3c-0.3,0.3-0.7,0.4-1.1,0.4c-0.5,0-0.8-0.1-1.1-0.4s-0.4-0.7-0.4-1.3c0-0.6,0.1-1,0.4-1.3
			c0.3-0.3,0.7-0.5,1.1-0.5c0.5,0,0.9,0.2,1.1,0.5C69.4,55.5,69.5,56,69.5,56.5z M66.7,59.7v-0.5h2.5v0.5H66.7z M66.9,56.5
			c0,0.4,0.1,0.8,0.3,1c0.2,0.2,0.4,0.3,0.8,0.3c0.3,0,0.6-0.1,0.8-0.3s0.3-0.5,0.3-1c0-0.4-0.1-0.8-0.3-1c-0.2-0.2-0.4-0.3-0.8-0.3
			C67.3,55.2,66.9,55.7,66.9,56.5z"/>
		<path class="st8" d="M73.7,59.7h-0.5v-5.6c0-0.5,0-1,0.1-1.6c-0.1,0.1-0.1,0.1-0.2,0.2s-0.6,0.5-1.6,1.3l-0.3-0.4l2.1-1.6h0.5
			V59.7z"/>
	</g>
</g>
<g>
	<g>
		<circle class="st9" cx="18.5" cy="58.4" r="5.6"/>
	</g>
	<line class="st9" x1="18.4" y1="58.5" x2="18.4" y2="61.9"/>
	<line class="st9" x1="18.4" y1="58.5" x2="20.1" y2="56.6"/>
	<path class="st9" d="M17.5,52.3c0-0.6,0.5-1.1,1.1-1.1s1.1,0.5,1.1,1.1"/>
</g>
<g>
	<g>
		<circle class="st9" cx="18.5" cy="86.4" r="5.6"/>
	</g>
	<line class="st9" x1="18.4" y1="86.5" x2="18.4" y2="89.9"/>
	<line class="st9" x1="18.4" y1="86.5" x2="20.1" y2="84.6"/>
	<path class="st9" d="M17.5,80.3c0-0.6,0.5-1.1,1.1-1.1s1.1,0.5,1.1,1.1"/>
</g>
<g>
	<rect x="34.9" y="80.6" class="st2" width="183" height="16.5"/>
	<g class="st3">
		<path class="st8" d="M38,88.8h-0.5v-7.2H35v-0.5h5.5v0.5H38V88.8z"/>
		<path class="st8" d="M45,88.8l-0.1-0.9h0c-0.3,0.4-0.6,0.6-0.9,0.8s-0.7,0.2-1.1,0.2c-0.6,0-1-0.1-1.3-0.4
			c-0.3-0.3-0.5-0.7-0.5-1.2c0-0.6,0.2-1,0.7-1.3c0.5-0.3,1.1-0.5,2-0.5l1.1,0v-0.4c0-0.5-0.1-1-0.3-1.2c-0.2-0.3-0.6-0.4-1.1-0.4
			c-0.5,0-1.1,0.1-1.6,0.4l-0.2-0.5c0.6-0.3,1.2-0.4,1.9-0.4c0.6,0,1.1,0.2,1.4,0.5c0.3,0.3,0.5,0.8,0.5,1.5v3.8H45z M42.9,88.4
			c0.6,0,1.1-0.2,1.4-0.5s0.5-0.8,0.5-1.4v-0.6l-1,0c-0.8,0-1.4,0.2-1.7,0.4c-0.3,0.2-0.5,0.5-0.5,1c0,0.4,0.1,0.6,0.3,0.8
			S42.5,88.4,42.9,88.4z"/>
		<path class="st8" d="M50.7,87.3c0,0.5-0.2,0.9-0.6,1.2s-0.9,0.4-1.7,0.4c-0.8,0-1.4-0.1-1.8-0.4V88c0.6,0.3,1.2,0.4,1.8,0.4
			c0.6,0,1-0.1,1.3-0.3c0.3-0.2,0.4-0.4,0.4-0.7c0-0.3-0.1-0.5-0.3-0.7c-0.2-0.2-0.6-0.4-1.1-0.6c-0.6-0.2-1-0.4-1.2-0.5
			c-0.2-0.1-0.4-0.3-0.5-0.5c-0.1-0.2-0.2-0.4-0.2-0.7c0-0.4,0.2-0.8,0.5-1s0.9-0.4,1.5-0.4c0.6,0,1.2,0.1,1.8,0.3l-0.2,0.5
			c-0.6-0.2-1.1-0.3-1.6-0.3c-0.5,0-0.8,0.1-1.1,0.2s-0.4,0.4-0.4,0.6c0,0.3,0.1,0.5,0.3,0.7c0.2,0.2,0.6,0.4,1.2,0.6
			c0.5,0.2,0.9,0.4,1.1,0.5s0.4,0.3,0.5,0.5C50.7,86.8,50.7,87.1,50.7,87.3z"/>
		<path class="st8" d="M52.7,86.3l2.9-3.2h0.6L54,85.5l2.4,3.3h-0.6l-2.2-2.9l-0.9,0.8v2h-0.5v-8.2h0.5v4.1L52.7,86.3L52.7,86.3z"/>
		<path class="st8" d="M65.6,88.8H65L60.8,82h0c0,0.8,0.1,1.4,0.1,1.8v5h-0.5v-7.7h0.5l4.2,6.8h0c0-0.8,0-1.4,0-1.8v-5h0.5V88.8z
			 M69.5,85.6c0,0.6-0.1,1-0.4,1.3c-0.3,0.3-0.7,0.4-1.1,0.4c-0.5,0-0.8-0.1-1.1-0.4s-0.4-0.7-0.4-1.3c0-0.6,0.1-1,0.4-1.3
			c0.3-0.3,0.7-0.5,1.1-0.5c0.5,0,0.9,0.2,1.1,0.5C69.4,84.6,69.5,85,69.5,85.6z M66.7,88.8v-0.5h2.5v0.5H66.7z M66.9,85.6
			c0,0.4,0.1,0.8,0.3,1c0.2,0.2,0.4,0.3,0.8,0.3c0.3,0,0.6-0.1,0.8-0.3s0.3-0.5,0.3-1c0-0.4-0.1-0.8-0.3-1c-0.2-0.2-0.4-0.3-0.8-0.3
			C67.3,84.3,66.9,84.7,66.9,85.6z"/>
		<path class="st8" d="M75.5,88.8h-4.8v-0.5l2-2.1c0.6-0.6,1-1,1.2-1.4s0.4-0.6,0.5-0.9c0.1-0.3,0.2-0.6,0.2-0.9
			c0-0.5-0.2-0.8-0.5-1.1c-0.3-0.3-0.7-0.4-1.2-0.4c-0.6,0-1.3,0.2-1.8,0.7l-0.3-0.4c0.6-0.5,1.3-0.8,2.1-0.8c0.7,0,1.2,0.2,1.6,0.5
			s0.6,0.8,0.6,1.5c0,0.5-0.1,1-0.4,1.5c-0.3,0.5-0.7,1.1-1.4,1.8l-2,2v0h4.1V88.8z"/>
	</g>
</g>
<rect x="300.5" y="81.7" class="st2" width="72.8" height="16.5"/>
<g class="st3">
	<path class="st8" d="M319.9,87.5l2.2-4.9h-3v-0.6h3.6v0.5l-2.2,4.9H319.9z"/>
	<path class="st8" d="M328.6,87L328.6,87c-0.3,0.4-0.7,0.6-1.3,0.6c-0.5,0-0.9-0.2-1.2-0.5c-0.3-0.4-0.4-0.9-0.4-1.6
		c0-0.7,0.1-1.2,0.4-1.6s0.7-0.6,1.2-0.6c0.6,0,1,0.2,1.3,0.6h0l0-0.3l0-0.3v-1.7h0.6v5.8h-0.5L328.6,87z M327.4,87.1
		c0.4,0,0.7-0.1,0.9-0.3c0.2-0.2,0.3-0.6,0.3-1.1v-0.1c0-0.6-0.1-1-0.3-1.2c-0.2-0.2-0.5-0.4-0.9-0.4c-0.4,0-0.6,0.1-0.8,0.4
		c-0.2,0.3-0.3,0.7-0.3,1.2c0,0.5,0.1,0.9,0.3,1.2S327,87.1,327.4,87.1z"/>
	<path class="st8" d="M333,87.5l-0.1-0.6h0c-0.2,0.3-0.4,0.4-0.6,0.5c-0.2,0.1-0.5,0.1-0.8,0.1c-0.4,0-0.7-0.1-0.9-0.3
		s-0.3-0.5-0.3-0.9c0-0.8,0.7-1.3,2-1.3l0.7,0v-0.3c0-0.3-0.1-0.6-0.2-0.7c-0.1-0.2-0.4-0.2-0.7-0.2c-0.3,0-0.7,0.1-1.2,0.3
		l-0.2-0.5c0.2-0.1,0.4-0.2,0.7-0.3c0.2-0.1,0.5-0.1,0.7-0.1c0.5,0,0.8,0.1,1.1,0.3c0.2,0.2,0.4,0.6,0.4,1v2.8H333z M331.6,87.1
		c0.4,0,0.7-0.1,0.9-0.3c0.2-0.2,0.3-0.5,0.3-0.9v-0.4l-0.6,0c-0.5,0-0.8,0.1-1.1,0.2c-0.2,0.1-0.3,0.3-0.3,0.6
		c0,0.2,0.1,0.4,0.2,0.5S331.4,87.1,331.6,87.1z"/>
	<path class="st8" d="M334.1,83.5h0.7l0.9,2.3c0.2,0.5,0.3,0.9,0.4,1.1h0c0-0.1,0.1-0.3,0.2-0.6s0.4-1.2,1-2.8h0.7l-1.7,4.6
		c-0.2,0.5-0.4,0.8-0.6,1c-0.2,0.2-0.5,0.3-0.9,0.3c-0.2,0-0.4,0-0.6-0.1v-0.5c0.1,0,0.3,0,0.5,0c0.4,0,0.7-0.2,0.9-0.7l0.2-0.6
		L334.1,83.5z"/>
	<path class="st8" d="M341.2,86.4c0,0.4-0.1,0.7-0.4,0.9c-0.3,0.2-0.7,0.3-1.2,0.3c-0.5,0-1-0.1-1.3-0.3v-0.6
		c0.2,0.1,0.4,0.2,0.6,0.2c0.2,0.1,0.4,0.1,0.6,0.1c0.3,0,0.6-0.1,0.7-0.2c0.2-0.1,0.3-0.3,0.3-0.5c0-0.2-0.1-0.3-0.2-0.4
		c-0.1-0.1-0.4-0.2-0.8-0.4c-0.4-0.1-0.6-0.3-0.8-0.4c-0.2-0.1-0.3-0.2-0.4-0.4s-0.1-0.3-0.1-0.5c0-0.3,0.1-0.6,0.4-0.8
		c0.3-0.2,0.6-0.3,1.1-0.3c0.4,0,0.9,0.1,1.3,0.3l-0.2,0.5c-0.4-0.2-0.8-0.3-1.1-0.3c-0.3,0-0.5,0-0.7,0.1c-0.1,0.1-0.2,0.2-0.2,0.4
		c0,0.1,0,0.2,0.1,0.3c0.1,0.1,0.1,0.1,0.3,0.2c0.1,0.1,0.4,0.2,0.7,0.3c0.5,0.2,0.8,0.4,1,0.5C341.1,85.9,341.2,86.1,341.2,86.4z"
		/>
	<path class="st8" d="M344.8,87.5h-0.6v-5.8h0.6V87.5z"/>
	<path class="st8" d="M347.8,87.6c-0.6,0-1.1-0.2-1.4-0.5s-0.5-0.9-0.5-1.5c0-0.7,0.2-1.2,0.5-1.6c0.3-0.4,0.8-0.6,1.3-0.6
		c0.5,0,0.9,0.2,1.2,0.5c0.3,0.3,0.4,0.8,0.4,1.3v0.4h-2.8c0,0.5,0.1,0.8,0.4,1.1c0.2,0.2,0.6,0.4,1,0.4c0.4,0,0.9-0.1,1.3-0.3v0.5
		c-0.2,0.1-0.4,0.2-0.6,0.2S348.1,87.6,347.8,87.6z M347.6,83.9c-0.3,0-0.6,0.1-0.8,0.3s-0.3,0.5-0.3,0.9h2.1c0-0.4-0.1-0.7-0.3-0.9
		C348.2,84,348,83.9,347.6,83.9z"/>
	<path class="st8" d="M352.2,83.9h-1v3.6h-0.6v-3.6h-0.7v-0.3l0.7-0.2v-0.2c0-1,0.4-1.5,1.3-1.5c0.2,0,0.5,0,0.8,0.1l-0.2,0.5
		c-0.2-0.1-0.4-0.1-0.6-0.1c-0.2,0-0.4,0.1-0.5,0.2c-0.1,0.2-0.2,0.4-0.2,0.7v0.3h1V83.9z"/>
	<path class="st8" d="M354.2,87.1c0.1,0,0.2,0,0.3,0c0.1,0,0.2,0,0.2-0.1v0.5c-0.1,0-0.2,0.1-0.3,0.1c-0.1,0-0.2,0-0.4,0
		c-0.8,0-1.2-0.4-1.2-1.2v-2.4h-0.6v-0.3l0.6-0.3l0.3-0.9h0.4v0.9h1.2v0.5h-1.2v2.4c0,0.2,0.1,0.4,0.2,0.6S354,87.1,354.2,87.1z"/>
</g>
<rect x="300.5" y="55.8" class="st2" width="72.8" height="16.5"/>
<g class="st3">
	<path class="st8" d="M319.9,61.5l2.2-4.9h-3v-0.6h3.6v0.5l-2.2,4.9H319.9z"/>
	<path class="st8" d="M328.6,61L328.6,61c-0.3,0.4-0.7,0.6-1.3,0.6c-0.5,0-0.9-0.2-1.2-0.5c-0.3-0.4-0.4-0.9-0.4-1.6
		c0-0.7,0.1-1.2,0.4-1.6s0.7-0.6,1.2-0.6c0.6,0,1,0.2,1.3,0.6h0l0-0.3l0-0.3v-1.7h0.6v5.8h-0.5L328.6,61z M327.4,61.1
		c0.4,0,0.7-0.1,0.9-0.3c0.2-0.2,0.3-0.6,0.3-1.1v-0.1c0-0.6-0.1-1-0.3-1.2c-0.2-0.2-0.5-0.4-0.9-0.4c-0.4,0-0.6,0.1-0.8,0.4
		c-0.2,0.3-0.3,0.7-0.3,1.2c0,0.5,0.1,0.9,0.3,1.2S327,61.1,327.4,61.1z"/>
	<path class="st8" d="M333,61.5l-0.1-0.6h0c-0.2,0.3-0.4,0.4-0.6,0.5c-0.2,0.1-0.5,0.1-0.8,0.1c-0.4,0-0.7-0.1-0.9-0.3
		s-0.3-0.5-0.3-0.9c0-0.8,0.7-1.3,2-1.3l0.7,0v-0.3c0-0.3-0.1-0.6-0.2-0.7c-0.1-0.2-0.4-0.2-0.7-0.2c-0.3,0-0.7,0.1-1.2,0.3
		l-0.2-0.5c0.2-0.1,0.4-0.2,0.7-0.3c0.2-0.1,0.5-0.1,0.7-0.1c0.5,0,0.8,0.1,1.1,0.3c0.2,0.2,0.4,0.6,0.4,1v2.8H333z M331.6,61.1
		c0.4,0,0.7-0.1,0.9-0.3c0.2-0.2,0.3-0.5,0.3-0.9v-0.4l-0.6,0c-0.5,0-0.8,0.1-1.1,0.2c-0.2,0.1-0.3,0.3-0.3,0.6
		c0,0.2,0.1,0.4,0.2,0.5S331.4,61.1,331.6,61.1z"/>
	<path class="st8" d="M334.1,57.5h0.7l0.9,2.3c0.2,0.5,0.3,0.9,0.4,1.1h0c0-0.1,0.1-0.3,0.2-0.6s0.4-1.2,1-2.8h0.7l-1.7,4.6
		c-0.2,0.5-0.4,0.8-0.6,1c-0.2,0.2-0.5,0.3-0.9,0.3c-0.2,0-0.4,0-0.6-0.1v-0.5c0.1,0,0.3,0,0.5,0c0.4,0,0.7-0.2,0.9-0.7l0.2-0.6
		L334.1,57.5z"/>
	<path class="st8" d="M341.2,60.4c0,0.4-0.1,0.7-0.4,0.9c-0.3,0.2-0.7,0.3-1.2,0.3c-0.5,0-1-0.1-1.3-0.3v-0.6
		c0.2,0.1,0.4,0.2,0.6,0.2c0.2,0.1,0.4,0.1,0.6,0.1c0.3,0,0.6-0.1,0.7-0.2c0.2-0.1,0.3-0.3,0.3-0.5c0-0.2-0.1-0.3-0.2-0.4
		c-0.1-0.1-0.4-0.2-0.8-0.4c-0.4-0.1-0.6-0.3-0.8-0.4c-0.2-0.1-0.3-0.2-0.4-0.4s-0.1-0.3-0.1-0.5c0-0.3,0.1-0.6,0.4-0.8
		c0.3-0.2,0.6-0.3,1.1-0.3c0.4,0,0.9,0.1,1.3,0.3l-0.2,0.5c-0.4-0.2-0.8-0.3-1.1-0.3c-0.3,0-0.5,0-0.7,0.1c-0.1,0.1-0.2,0.2-0.2,0.4
		c0,0.1,0,0.2,0.1,0.3c0.1,0.1,0.1,0.1,0.3,0.2c0.1,0.1,0.4,0.2,0.7,0.3c0.5,0.2,0.8,0.4,1,0.5C341.1,59.9,341.2,60.2,341.2,60.4z"
		/>
	<path class="st8" d="M344.8,61.5h-0.6v-5.8h0.6V61.5z"/>
	<path class="st8" d="M347.8,61.6c-0.6,0-1.1-0.2-1.4-0.5s-0.5-0.9-0.5-1.5c0-0.7,0.2-1.2,0.5-1.6c0.3-0.4,0.8-0.6,1.3-0.6
		c0.5,0,0.9,0.2,1.2,0.5c0.3,0.3,0.4,0.8,0.4,1.3v0.4h-2.8c0,0.5,0.1,0.8,0.4,1.1c0.2,0.2,0.6,0.4,1,0.4c0.4,0,0.9-0.1,1.3-0.3v0.5
		c-0.2,0.1-0.4,0.2-0.6,0.2S348.1,61.6,347.8,61.6z M347.6,57.9c-0.3,0-0.6,0.1-0.8,0.3s-0.3,0.5-0.3,0.9h2.1c0-0.4-0.1-0.7-0.3-0.9
		C348.2,58,348,57.9,347.6,57.9z"/>
	<path class="st8" d="M352.2,58h-1v3.6h-0.6V58h-0.7v-0.3l0.7-0.2v-0.2c0-1,0.4-1.5,1.3-1.5c0.2,0,0.5,0,0.8,0.1l-0.2,0.5
		c-0.2-0.1-0.4-0.1-0.6-0.1c-0.2,0-0.4,0.1-0.5,0.2c-0.1,0.2-0.2,0.4-0.2,0.7v0.3h1V58z"/>
	<path class="st8" d="M354.2,61.1c0.1,0,0.2,0,0.3,0c0.1,0,0.2,0,0.2-0.1v0.5c-0.1,0-0.2,0.1-0.3,0.1c-0.1,0-0.2,0-0.4,0
		c-0.8,0-1.2-0.4-1.2-1.2V58h-0.6v-0.3l0.6-0.3l0.3-0.9h0.4v0.9h1.2V58h-1.2v2.4c0,0.2,0.1,0.4,0.2,0.6S354,61.1,354.2,61.1z"/>
</g>
<g>
	<circle class="st7" cx="388.4" cy="86.9" r="12.1"/>
</g>
<g>
	<line class="st10" x1="405" y1="84.4" x2="410" y2="84.4"/>
	<polyline class="st10" points="404.8,81.7 404.9,91.4 404.9,91.4 410,91.4 	"/>
	<circle class="st10" cx="413.6" cy="84" r="3.4"/>
	<circle class="st10" cx="412.5" cy="91.1" r="2.2"/>
	<rect x="409.8" y="82.1" class="st2" width="7.5" height="5.2"/>
	<g class="st3">
		<path class="st11" d="M414.7,83.9c0,0.6-0.1,1-0.3,1.2s-0.5,0.4-0.8,0.4c-0.4,0-0.6-0.1-0.8-0.4c-0.2-0.3-0.3-0.7-0.3-1.2
			c0-0.6,0.1-1,0.3-1.2c0.2-0.3,0.4-0.4,0.8-0.4c0.4,0,0.6,0.1,0.8,0.4S414.7,83.4,414.7,83.9z M413,83.9c0,0.4,0,0.7,0.1,0.9
			c0.1,0.2,0.2,0.3,0.4,0.3c0.2,0,0.3-0.1,0.4-0.3c0.1-0.2,0.1-0.5,0.1-0.9c0-0.4,0-0.7-0.1-0.9c-0.1-0.2-0.2-0.3-0.4-0.3
			c-0.2,0-0.3,0.1-0.4,0.3C413.1,83.2,413,83.5,413,83.9z"/>
	</g>
</g>
<g>
	<line class="st10" x1="405" y1="54.9" x2="410" y2="54.9"/>
	<polyline class="st10" points="404.8,52.3 404.9,61.9 404.9,61.9 410,61.9 	"/>
	<circle class="st10" cx="413.6" cy="54.6" r="3.4"/>
	<circle class="st10" cx="412.5" cy="61.7" r="2.2"/>
	<rect x="409.8" y="52.7" class="st2" width="7.5" height="5.2"/>
	<g class="st3">
		<path class="st11" d="M414.7,54.5c0,0.6-0.1,1-0.3,1.2s-0.5,0.4-0.8,0.4c-0.4,0-0.6-0.1-0.8-0.4c-0.2-0.3-0.3-0.7-0.3-1.2
			c0-0.6,0.1-1,0.3-1.2c0.2-0.3,0.4-0.4,0.8-0.4c0.4,0,0.6,0.1,0.8,0.4S414.7,53.9,414.7,54.5z M413,54.5c0,0.4,0,0.7,0.1,0.9
			c0.1,0.2,0.2,0.3,0.4,0.3c0.2,0,0.3-0.1,0.4-0.3c0.1-0.2,0.1-0.5,0.1-0.9c0-0.4,0-0.7-0.1-0.9c-0.1-0.2-0.2-0.3-0.4-0.3
			c-0.2,0-0.3,0.1-0.4,0.3C413.1,53.7,413,54,413,54.5z"/>
	</g>
</g>
<g>
	<g>
		<path class="st12" d="M390.5,88.1c-2,0-4-6,0-6S392.5,88.1,390.5,88.1z"/>
		<path class="st12" d="M386.9,91.8c-0.4-1.7,0.5-3.4,3.8-3.4c3.2,0,4,1.7,3.7,3.4"/>
		<line class="st12" x1="384.7" y1="81.4" x2="384.7" y2="86.4"/>
		<line class="st12" x1="382.2" y1="83.9" x2="387.2" y2="83.9"/>
	</g>
</g>
<g>
	<g>
		<path class="st12" d="M390.5,59.1c-2,0-4-6,0-6S392.5,59.1,390.5,59.1z"/>
		<path class="st12" d="M386.9,62.8c-0.4-1.7,0.5-3.4,3.8-3.4c3.2,0,4,1.7,3.7,3.4"/>
		<line class="st12" x1="384.7" y1="52.4" x2="384.7" y2="57.4"/>
		<line class="st12" x1="382.2" y1="54.9" x2="387.2" y2="54.9"/>
	</g>
</g>
</svg>
