<?xml version="1.0" encoding="utf-8"?>
<!-- Generator: Adobe Illustrator 19.2.1, SVG Export Plug-In . SVG Version: 6.00 Build 0)  -->
<svg version="1.1" id="Слой_1" xmlns="http://www.w3.org/2000/svg" xmlns:xlink="http://www.w3.org/1999/xlink" x="0px" y="0px"
	 viewBox="0 0 250.9 117" style="enable-background:new 0 0 250.9 117;" xml:space="preserve">
<style type="text/css">
	.st0{fill:#FFFFFF;}
	.st1{fill:none;}
	.st2{enable-background:new    ;}
	.st3{fill:#A0CAFC;}
	.st4{fill:none;stroke:#B9BBBC;stroke-linecap:round;stroke-linejoin:round;stroke-miterlimit:10;}
	.st5{fill:none;stroke:#A0CAFC;stroke-width:0.6464;stroke-linecap:round;stroke-linejoin:round;stroke-miterlimit:10;}
	.st6{fill:#0067D0;}
</style>
<rect y="0.5" class="st0" width="239" height="117"/>
<g>
	<g>
		<rect x="43" y="21.6" class="st1" width="284.6" height="20"/>
		<g class="st2">
			<path class="st3" d="M49.4,28.8c0,0.8-0.3,1.4-0.9,1.9c-0.6,0.4-1.4,0.7-2.4,0.7c-1.1,0-1.9-0.1-2.5-0.4v-1
				c0.4,0.2,0.8,0.3,1.2,0.4c0.4,0.1,0.9,0.1,1.3,0.1c0.7,0,1.2-0.1,1.6-0.4c0.4-0.3,0.5-0.6,0.5-1.1c0-0.3-0.1-0.6-0.2-0.8
				c-0.1-0.2-0.3-0.4-0.6-0.6c-0.3-0.2-0.7-0.4-1.4-0.6c-0.8-0.3-1.4-0.7-1.8-1.1c-0.4-0.4-0.5-1-0.5-1.6c0-0.7,0.3-1.3,0.8-1.7
				c0.5-0.4,1.2-0.6,2.1-0.6c0.9,0,1.7,0.2,2.5,0.5l-0.3,0.9c-0.7-0.3-1.5-0.5-2.2-0.5c-0.6,0-1,0.1-1.3,0.4s-0.5,0.6-0.5,1
				c0,0.3,0.1,0.6,0.2,0.8c0.1,0.2,0.3,0.4,0.6,0.6c0.3,0.2,0.7,0.4,1.3,0.6c1,0.3,1.6,0.7,2,1.1C49.2,27.7,49.4,28.2,49.4,28.8z"/>
			<path class="st3" d="M52,24.5v4.4c0,0.6,0.1,1,0.4,1.2s0.6,0.4,1.2,0.4c0.7,0,1.2-0.2,1.6-0.6s0.5-1,0.5-1.9v-3.6h1v6.8h-0.9
				l-0.1-0.9h-0.1c-0.2,0.3-0.5,0.6-0.9,0.8s-0.8,0.3-1.3,0.3c-0.8,0-1.4-0.2-1.9-0.6c-0.4-0.4-0.6-1-0.6-1.9v-4.5H52z"/>
			<path class="st3" d="M62,24.3c0.9,0,1.6,0.3,2.1,0.9c0.5,0.6,0.7,1.5,0.7,2.6s-0.2,2-0.7,2.6c-0.5,0.6-1.2,0.9-2.1,0.9
				c-0.4,0-0.8-0.1-1.2-0.2s-0.7-0.4-0.9-0.8h-0.1l-0.2,0.9h-0.7v-9.7h1v2.3c0,0.5,0,1,0,1.4h0C60.4,24.7,61.1,24.3,62,24.3z
				 M61.9,25.2c-0.7,0-1.2,0.2-1.5,0.6c-0.3,0.4-0.5,1.1-0.5,2s0.2,1.6,0.5,2.1c0.3,0.4,0.8,0.6,1.5,0.6c0.6,0,1.1-0.2,1.4-0.7
				c0.3-0.5,0.5-1.1,0.5-2c0-0.9-0.2-1.5-0.5-2C63,25.4,62.5,25.2,61.9,25.2z"/>
			<path class="st3" d="M68.9,30.5c0.2,0,0.4,0,0.5,0c0.2,0,0.3-0.1,0.4-0.1v0.8c-0.1,0.1-0.3,0.1-0.5,0.1s-0.4,0.1-0.6,0.1
				c-1.3,0-2-0.7-2-2.1v-4h-1v-0.5l1-0.4l0.4-1.5h0.6v1.6h2v0.8h-2v4c0,0.4,0.1,0.7,0.3,0.9C68.2,30.4,68.5,30.5,68.9,30.5z"/>
			<path class="st3" d="M75.3,31.3l-0.2-1h0c-0.3,0.4-0.7,0.7-1,0.9s-0.8,0.2-1.3,0.2c-0.7,0-1.2-0.2-1.6-0.5s-0.6-0.8-0.6-1.5
				c0-1.4,1.1-2.1,3.3-2.2l1.2,0v-0.4c0-0.5-0.1-0.9-0.3-1.2c-0.2-0.3-0.6-0.4-1.1-0.4c-0.6,0-1.2,0.2-1.9,0.5l-0.3-0.8
				c0.3-0.2,0.7-0.3,1.1-0.4s0.8-0.2,1.2-0.2c0.8,0,1.4,0.2,1.8,0.5c0.4,0.4,0.6,0.9,0.6,1.7v4.6H75.3z M73,30.5
				c0.6,0,1.1-0.2,1.5-0.5s0.5-0.8,0.5-1.5v-0.6l-1,0c-0.8,0-1.4,0.2-1.8,0.4c-0.4,0.2-0.5,0.6-0.5,1.1c0,0.4,0.1,0.7,0.3,0.9
				C72.3,30.4,72.6,30.5,73,30.5z"/>
			<path class="st3" d="M82.6,29.4c0,0.6-0.2,1.1-0.7,1.5c-0.5,0.3-1.1,0.5-2,0.5c-0.9,0-1.6-0.1-2.1-0.4v-1
				c0.3,0.2,0.7,0.3,1.1,0.4c0.4,0.1,0.7,0.1,1.1,0.1c0.5,0,1-0.1,1.2-0.3c0.3-0.2,0.4-0.4,0.4-0.8c0-0.3-0.1-0.5-0.3-0.7
				c-0.2-0.2-0.7-0.4-1.3-0.7c-0.6-0.2-1.1-0.4-1.4-0.6c-0.3-0.2-0.5-0.4-0.6-0.6s-0.2-0.5-0.2-0.8c0-0.6,0.2-1,0.7-1.3
				c0.5-0.3,1.1-0.5,1.9-0.5c0.7,0,1.4,0.1,2.1,0.4l-0.4,0.8c-0.7-0.3-1.3-0.4-1.9-0.4c-0.5,0-0.9,0.1-1.1,0.2
				c-0.2,0.2-0.4,0.4-0.4,0.6c0,0.2,0,0.3,0.1,0.5c0.1,0.1,0.2,0.3,0.5,0.4s0.6,0.3,1.2,0.5c0.8,0.3,1.4,0.6,1.6,0.9
				C82.5,28.6,82.6,29,82.6,29.4z"/>
			<path class="st3" d="M85.3,27.8c0.2-0.3,0.4-0.6,0.8-1l2.2-2.3h1.2l-2.8,2.9l2.9,3.9h-1.2L86.1,28l-0.8,0.7v2.5h-1v-9.7h1v5.1
				C85.3,26.9,85.3,27.3,85.3,27.8L85.3,27.8z"/>
			<path class="st3" d="M97.6,31.3h-1v-6.5c0-0.5,0-1,0-1.5c-0.1,0.1-0.2,0.2-0.3,0.3c-0.1,0.1-0.6,0.5-1.5,1.2L94.3,24l2.4-1.9h0.9
				V31.3z"/>
			<path class="st3" d="M101.4,30.6c0-0.3,0.1-0.5,0.2-0.6c0.1-0.1,0.3-0.2,0.5-0.2c0.2,0,0.4,0.1,0.6,0.2s0.2,0.4,0.2,0.6
				c0,0.3-0.1,0.5-0.2,0.6c-0.1,0.1-0.3,0.2-0.6,0.2c-0.2,0-0.4-0.1-0.5-0.2C101.4,31.1,101.4,30.9,101.4,30.6z"/>
			<path class="st3" d="M107.3,25.7c1,0,1.7,0.2,2.3,0.7c0.5,0.5,0.8,1.1,0.8,1.9c0,0.9-0.3,1.7-0.9,2.2c-0.6,0.5-1.4,0.8-2.5,0.8
				c-1,0-1.8-0.2-2.3-0.5v-1c0.3,0.2,0.6,0.3,1.1,0.4c0.4,0.1,0.9,0.2,1.3,0.2c0.7,0,1.3-0.2,1.7-0.5c0.4-0.3,0.6-0.8,0.6-1.5
				c0-1.3-0.8-1.9-2.3-1.9c-0.4,0-0.9,0.1-1.6,0.2l-0.5-0.3l0.3-4.2h4.5v0.9h-3.6l-0.2,2.7C106.3,25.8,106.8,25.7,107.3,25.7z"/>
		</g>
	</g>
</g>
<g>
	<rect x="42.1" y="44.8" class="st1" width="284.6" height="20"/>
	<g class="st2">
		<path class="st3" d="M45.4,48.6h-2.2l-0.7,1.9h-0.4l2.1-5.3h0.2l2.1,5.3h-0.4L45.4,48.6z M43.4,48.3h1.9l-0.7-1.9
			c-0.1-0.2-0.1-0.4-0.2-0.6c-0.1,0.2-0.1,0.4-0.2,0.6L43.4,48.3z"/>
		<path class="st3" d="M48.7,46.5c0.3,0,0.5,0.1,0.7,0.2c0.2,0.1,0.4,0.3,0.6,0.5h0c0-0.3,0-0.6,0-0.9v-1.4h0.4v5.7h-0.2L50,49.9h0
			c-0.3,0.5-0.7,0.7-1.3,0.7c-0.5,0-1-0.2-1.3-0.5c-0.3-0.3-0.4-0.8-0.4-1.5c0-0.7,0.1-1.2,0.4-1.6C47.7,46.6,48.2,46.5,48.7,46.5z
			 M48.7,46.8c-0.4,0-0.8,0.2-1,0.5c-0.2,0.3-0.3,0.7-0.3,1.3c0,1.1,0.4,1.7,1.3,1.7c0.4,0,0.8-0.1,1-0.4c0.2-0.3,0.3-0.7,0.3-1.3
			v-0.1c0-0.6-0.1-1.1-0.3-1.3C49.5,46.9,49.2,46.8,48.7,46.8z"/>
		<path class="st3" d="M53.1,46.5c0.3,0,0.5,0.1,0.7,0.2c0.2,0.1,0.4,0.3,0.6,0.5h0c0-0.3,0-0.6,0-0.9v-1.4h0.4v5.7h-0.2l-0.1-0.6h0
			c-0.3,0.5-0.7,0.7-1.3,0.7c-0.5,0-1-0.2-1.3-0.5c-0.3-0.3-0.4-0.8-0.4-1.5c0-0.7,0.1-1.2,0.4-1.6C52.2,46.6,52.6,46.5,53.1,46.5z
			 M53.1,46.8c-0.4,0-0.8,0.2-1,0.5c-0.2,0.3-0.3,0.7-0.3,1.3c0,1.1,0.4,1.7,1.3,1.7c0.4,0,0.8-0.1,1-0.4c0.2-0.3,0.3-0.7,0.3-1.3
			v-0.1c0-0.6-0.1-1.1-0.3-1.3C53.9,46.9,53.6,46.8,53.1,46.8z"/>
		<path class="st3" d="M59.5,46.5c0.3,0,0.5,0.1,0.7,0.2c0.2,0.1,0.4,0.3,0.6,0.5h0c0-0.3,0-0.6,0-0.9v-1.4h0.4v5.7h-0.2l-0.1-0.6h0
			c-0.3,0.5-0.7,0.7-1.3,0.7c-0.5,0-1-0.2-1.3-0.5c-0.3-0.3-0.4-0.8-0.4-1.5c0-0.7,0.1-1.2,0.4-1.6C58.5,46.6,59,46.5,59.5,46.5z
			 M59.5,46.8c-0.4,0-0.8,0.2-1,0.5c-0.2,0.3-0.3,0.7-0.3,1.3c0,1.1,0.4,1.7,1.3,1.7c0.4,0,0.8-0.1,1-0.4c0.2-0.3,0.3-0.7,0.3-1.3
			v-0.1c0-0.6-0.1-1.1-0.3-1.3C60.3,46.9,60,46.8,59.5,46.8z"/>
		<path class="st3" d="M64.1,50.6c-0.6,0-1-0.2-1.3-0.5c-0.3-0.4-0.5-0.8-0.5-1.5c0-0.6,0.2-1.1,0.5-1.5c0.3-0.4,0.7-0.6,1.3-0.6
			c0.5,0,0.8,0.2,1.1,0.5s0.4,0.8,0.4,1.3v0.3h-2.8c0,0.5,0.1,1,0.4,1.2c0.2,0.3,0.6,0.4,1.1,0.4c0.2,0,0.4,0,0.6,0
			c0.2,0,0.4-0.1,0.6-0.2v0.3c-0.2,0.1-0.4,0.2-0.6,0.2C64.5,50.5,64.3,50.6,64.1,50.6z M64,46.8c-0.4,0-0.7,0.1-0.9,0.4
			s-0.4,0.6-0.4,1.1h2.4c0-0.5-0.1-0.8-0.3-1.1C64.6,46.9,64.3,46.8,64,46.8z"/>
		<path class="st3" d="M69,49.5c0,0.4-0.1,0.6-0.4,0.8c-0.3,0.2-0.7,0.3-1.1,0.3c-0.5,0-0.9-0.1-1.3-0.2v-0.4
			c0.4,0.2,0.8,0.3,1.3,0.3c0.4,0,0.7-0.1,0.9-0.2c0.2-0.1,0.3-0.3,0.3-0.5c0-0.2-0.1-0.4-0.2-0.5c-0.2-0.1-0.4-0.3-0.8-0.4
			c-0.4-0.1-0.7-0.3-0.8-0.4s-0.3-0.2-0.4-0.3c-0.1-0.1-0.1-0.3-0.1-0.5c0-0.3,0.1-0.5,0.4-0.7s0.6-0.3,1-0.3c0.4,0,0.8,0.1,1.2,0.2
			L68.8,47c-0.4-0.2-0.7-0.2-1.1-0.2c-0.3,0-0.6,0.1-0.8,0.2c-0.2,0.1-0.3,0.3-0.3,0.4c0,0.2,0.1,0.4,0.2,0.5
			c0.1,0.1,0.4,0.3,0.9,0.4c0.4,0.1,0.6,0.2,0.8,0.3c0.2,0.1,0.3,0.2,0.4,0.4C69,49.1,69,49.3,69,49.5z"/>
		<path class="st3" d="M71.6,50.6c-0.6,0-1-0.2-1.3-0.5c-0.3-0.4-0.5-0.9-0.5-1.5c0-0.7,0.2-1.2,0.5-1.5c0.3-0.4,0.8-0.5,1.4-0.5
			c0.3,0,0.7,0.1,1,0.2L72.6,47c-0.3-0.1-0.6-0.2-0.9-0.2c-0.5,0-0.9,0.1-1.1,0.4c-0.3,0.3-0.4,0.7-0.4,1.3c0,0.5,0.1,1,0.4,1.3
			c0.2,0.3,0.6,0.5,1,0.5c0.4,0,0.7-0.1,1-0.2v0.3C72.4,50.5,72,50.6,71.6,50.6z"/>
		<path class="st3" d="M75.2,46.5c0.2,0,0.3,0,0.5,0.1l-0.1,0.3c-0.2,0-0.3-0.1-0.5-0.1c-0.3,0-0.6,0.1-0.8,0.4
			c-0.2,0.3-0.3,0.6-0.3,1.1v2.2h-0.4v-4h0.3l0,0.7h0c0.2-0.3,0.3-0.5,0.5-0.6C74.7,46.5,74.9,46.5,75.2,46.5z"/>
		<path class="st3" d="M76.4,45.4c0-0.2,0.1-0.3,0.2-0.3c0.1,0,0.1,0,0.2,0.1s0.1,0.1,0.1,0.3c0,0.1,0,0.2-0.1,0.3
			c0,0.1-0.1,0.1-0.2,0.1C76.5,45.8,76.4,45.7,76.4,45.4z M76.9,50.5h-0.4v-4h0.4V50.5z"/>
		<path class="st3" d="M79.9,50.6c-0.6,0-1.1-0.2-1.3-0.7h0l0,0.3c0,0.2,0,0.4,0,0.6v1.5h-0.4v-5.7h0.3l0.1,0.6h0
			c0.3-0.4,0.7-0.6,1.3-0.6c0.5,0,0.9,0.2,1.2,0.5s0.4,0.9,0.4,1.5c0,0.6-0.1,1.2-0.4,1.5C80.8,50.4,80.4,50.6,79.9,50.6z
			 M79.9,50.2c0.4,0,0.7-0.2,0.9-0.5c0.2-0.3,0.3-0.7,0.3-1.3c0-1.2-0.4-1.7-1.3-1.7c-0.5,0-0.8,0.1-1,0.4c-0.2,0.3-0.3,0.7-0.3,1.2
			v0.1c0,0.6,0.1,1.1,0.3,1.3C79.1,50.1,79.4,50.2,79.9,50.2z"/>
		<path class="st3" d="M83.7,50.2c0.2,0,0.4,0,0.6-0.1v0.3c-0.2,0.1-0.4,0.1-0.6,0.1c-0.3,0-0.6-0.1-0.8-0.3
			c-0.2-0.2-0.2-0.5-0.2-0.9v-2.6H82v-0.2l0.6-0.2l0.2-0.9H83v1h1.2v0.3H83v2.5c0,0.3,0.1,0.5,0.2,0.7
			C83.3,50.2,83.4,50.2,83.7,50.2z"/>
		<path class="st3" d="M85.1,45.4c0-0.2,0.1-0.3,0.2-0.3c0.1,0,0.1,0,0.2,0.1s0.1,0.1,0.1,0.3c0,0.1,0,0.2-0.1,0.3
			c0,0.1-0.1,0.1-0.2,0.1C85.1,45.8,85.1,45.7,85.1,45.4z M85.5,50.5h-0.4v-4h0.4V50.5z"/>
		<path class="st3" d="M90.1,48.5c0,0.6-0.2,1.1-0.5,1.5c-0.3,0.4-0.7,0.5-1.3,0.5c-0.3,0-0.7-0.1-0.9-0.3c-0.3-0.2-0.5-0.4-0.6-0.7
			c-0.1-0.3-0.2-0.7-0.2-1.1c0-0.6,0.2-1.1,0.5-1.5s0.7-0.5,1.3-0.5c0.5,0,1,0.2,1.3,0.5C89.9,47.4,90.1,47.9,90.1,48.5z M86.9,48.5
			c0,0.5,0.1,1,0.4,1.3c0.2,0.3,0.6,0.5,1,0.5c0.4,0,0.8-0.2,1-0.5c0.2-0.3,0.4-0.7,0.4-1.3c0-0.5-0.1-1-0.4-1.3
			c-0.2-0.3-0.6-0.5-1-0.5c-0.4,0-0.8,0.1-1,0.4C87.1,47.5,86.9,48,86.9,48.5z"/>
		<path class="st3" d="M93.9,50.5v-2.6c0-0.4-0.1-0.7-0.3-0.9s-0.4-0.3-0.8-0.3c-0.5,0-0.8,0.1-1,0.4c-0.2,0.2-0.3,0.6-0.3,1.2v2.2
			h-0.4v-4h0.3l0.1,0.5h0c0.3-0.4,0.7-0.6,1.4-0.6c0.9,0,1.3,0.5,1.3,1.4v2.6H93.9z"/>
	</g>
</g>
<g>
	<g>
		<path class="st4" d="M26.3,29.9c-2.1,0-4.2-6.7,0-6.7C30.2,23.1,28.3,29.9,26.3,29.9z"/>
		<path class="st4" d="M21.2,33.4c-0.5-1.7,0.7-3.3,5.1-3.3c4.2,0,5.4,1.6,4.9,3.3"/>
		<line class="st4" x1="17.5" y1="22.5" x2="17.5" y2="27.5"/>
		<line class="st4" x1="15" y1="25" x2="20" y2="25"/>
	</g>
</g>
<g>
	<path class="st3" d="M213.3,97.9h-65.5c-1.5,0-2.8-1.2-2.8-2.8v-8.6c0-1.5,1.2-2.8,2.8-2.8h65.5c1.5,0,2.8,1.2,2.8,2.8v8.6
		C216.1,96.6,214.8,97.9,213.3,97.9z"/>
	<g>
		<rect x="79" y="86.5" class="st1" width="75.5" height="14.7"/>
		<g class="st2">
			<path class="st3" d="M84.5,92.7c0,0.7-0.3,1.2-0.8,1.6c-0.5,0.4-1.2,0.6-2,0.6c-0.9,0-1.6-0.1-2.1-0.4v-0.9
				c0.3,0.1,0.7,0.2,1.1,0.3c0.4,0.1,0.8,0.1,1.1,0.1c0.6,0,1.1-0.1,1.4-0.3s0.5-0.6,0.5-1c0-0.3-0.1-0.5-0.2-0.7
				c-0.1-0.2-0.3-0.3-0.5-0.5c-0.3-0.1-0.6-0.3-1.2-0.5c-0.7-0.3-1.3-0.6-1.6-0.9s-0.5-0.8-0.5-1.4c0-0.6,0.2-1.1,0.7-1.4
				s1.1-0.5,1.8-0.5c0.8,0,1.5,0.1,2.2,0.4L84,88.1c-0.6-0.3-1.3-0.4-1.9-0.4c-0.5,0-0.9,0.1-1.1,0.3c-0.3,0.2-0.4,0.5-0.4,0.9
				c0,0.3,0.1,0.5,0.2,0.7c0.1,0.2,0.3,0.3,0.5,0.5c0.2,0.1,0.6,0.3,1.1,0.5c0.8,0.3,1.4,0.6,1.7,0.9C84.3,91.8,84.5,92.2,84.5,92.7
				z"/>
			<path class="st3" d="M86.8,88.9v3.8c0,0.5,0.1,0.8,0.3,1.1s0.6,0.4,1,0.4c0.6,0,1.1-0.2,1.3-0.5c0.3-0.3,0.4-0.9,0.4-1.6v-3.1
				h0.9v5.9h-0.7L90,94h0c-0.2,0.3-0.4,0.5-0.8,0.7s-0.7,0.2-1.1,0.2c-0.7,0-1.3-0.2-1.6-0.5s-0.5-0.9-0.5-1.6v-3.8H86.8z"/>
			<path class="st3" d="M95.4,88.8c0.8,0,1.4,0.3,1.8,0.8c0.4,0.5,0.6,1.3,0.6,2.2c0,1-0.2,1.7-0.6,2.3c-0.4,0.5-1,0.8-1.8,0.8
				c-0.4,0-0.7-0.1-1-0.2c-0.3-0.1-0.6-0.4-0.8-0.7h-0.1l-0.2,0.8h-0.6v-8.3h0.9v2c0,0.5,0,0.9,0,1.2h0C94,89.1,94.6,88.8,95.4,88.8
				z M95.3,89.6c-0.6,0-1,0.2-1.3,0.5c-0.3,0.3-0.4,0.9-0.4,1.8s0.1,1.4,0.4,1.8s0.7,0.5,1.3,0.5c0.5,0,1-0.2,1.2-0.6
				c0.3-0.4,0.4-1,0.4-1.7c0-0.8-0.1-1.3-0.4-1.7C96.3,89.8,95.9,89.6,95.3,89.6z"/>
			<path class="st3" d="M101.3,94.2c0.2,0,0.3,0,0.5,0c0.1,0,0.3,0,0.3-0.1v0.7c-0.1,0-0.2,0.1-0.4,0.1c-0.2,0-0.4,0-0.5,0
				c-1.1,0-1.7-0.6-1.7-1.8v-3.5h-0.8v-0.4l0.8-0.4l0.4-1.3h0.5v1.4h1.7v0.7h-1.7v3.5c0,0.4,0.1,0.6,0.3,0.8S101,94.2,101.3,94.2z"
				/>
			<path class="st3" d="M106.9,94.8l-0.2-0.8h0c-0.3,0.4-0.6,0.6-0.9,0.7s-0.7,0.2-1.1,0.2c-0.6,0-1-0.2-1.4-0.5
				c-0.3-0.3-0.5-0.7-0.5-1.3c0-1.2,0.9-1.8,2.8-1.9l1,0v-0.4c0-0.5-0.1-0.8-0.3-1c-0.2-0.2-0.5-0.3-1-0.3c-0.5,0-1,0.2-1.7,0.5
				l-0.3-0.7c0.3-0.2,0.6-0.3,1-0.4s0.7-0.1,1-0.1c0.7,0,1.2,0.2,1.6,0.5s0.5,0.8,0.5,1.5v4H106.9z M104.9,94.2c0.6,0,1-0.2,1.3-0.5
				c0.3-0.3,0.5-0.7,0.5-1.3v-0.5l-0.9,0c-0.7,0-1.2,0.1-1.5,0.3s-0.5,0.5-0.5,0.9c0,0.3,0.1,0.6,0.3,0.7
				C104.3,94.1,104.6,94.2,104.9,94.2z"/>
			<path class="st3" d="M113.2,93.2c0,0.5-0.2,1-0.6,1.3s-1,0.4-1.7,0.4c-0.8,0-1.4-0.1-1.8-0.4v-0.8c0.3,0.1,0.6,0.3,0.9,0.3
				s0.6,0.1,0.9,0.1c0.5,0,0.8-0.1,1.1-0.2s0.4-0.4,0.4-0.7c0-0.2-0.1-0.4-0.3-0.6c-0.2-0.2-0.6-0.4-1.2-0.6
				c-0.5-0.2-0.9-0.4-1.2-0.5c-0.2-0.2-0.4-0.3-0.5-0.5s-0.2-0.4-0.2-0.7c0-0.5,0.2-0.9,0.6-1.1c0.4-0.3,0.9-0.4,1.6-0.4
				c0.6,0,1.3,0.1,1.9,0.4l-0.3,0.7c-0.6-0.2-1.1-0.4-1.6-0.4c-0.4,0-0.7,0.1-1,0.2c-0.2,0.1-0.3,0.3-0.3,0.5c0,0.2,0,0.3,0.1,0.4
				c0.1,0.1,0.2,0.2,0.4,0.3c0.2,0.1,0.5,0.2,1,0.4c0.7,0.3,1.2,0.5,1.4,0.8C113.1,92.5,113.2,92.8,113.2,93.2z"/>
			<path class="st3" d="M115.6,91.8c0.2-0.2,0.4-0.5,0.7-0.9l1.9-2h1.1l-2.4,2.5l2.5,3.4h-1.1l-2.1-2.8l-0.7,0.6v2.2h-0.9v-8.3h0.9
				v4.4C115.6,91.1,115.5,91.4,115.6,91.8L115.6,91.8z"/>
			<path class="st3" d="M126.2,94.8h-0.9v-5.6c0-0.5,0-0.9,0-1.3c-0.1,0.1-0.2,0.2-0.3,0.2c-0.1,0.1-0.5,0.4-1.3,1l-0.5-0.6l2.1-1.6
				h0.8V94.8z"/>
		</g>
	</g>
	<rect x="151.3" y="86.5" class="st1" width="136.6" height="13.3"/>
	<g class="st2">
		<path class="st0" d="M156.8,92.7c0,0.7-0.3,1.2-0.8,1.6c-0.5,0.4-1.2,0.6-2,0.6c-0.9,0-1.6-0.1-2.1-0.4v-0.9
			c0.3,0.1,0.7,0.2,1.1,0.3c0.4,0.1,0.8,0.1,1.1,0.1c0.6,0,1.1-0.1,1.4-0.3s0.5-0.6,0.5-1c0-0.3-0.1-0.5-0.2-0.7
			c-0.1-0.2-0.3-0.3-0.5-0.5c-0.3-0.1-0.6-0.3-1.2-0.5c-0.7-0.3-1.3-0.6-1.6-0.9c-0.3-0.4-0.5-0.8-0.5-1.4c0-0.6,0.2-1.1,0.7-1.4
			s1.1-0.5,1.8-0.5c0.8,0,1.5,0.1,2.2,0.4l-0.3,0.8c-0.6-0.3-1.3-0.4-1.9-0.4c-0.5,0-0.9,0.1-1.1,0.3c-0.3,0.2-0.4,0.5-0.4,0.9
			c0,0.3,0.1,0.5,0.2,0.7c0.1,0.2,0.3,0.3,0.5,0.5c0.2,0.1,0.6,0.3,1.1,0.5c0.8,0.3,1.4,0.6,1.7,0.9
			C156.6,91.8,156.8,92.2,156.8,92.7z"/>
		<path class="st0" d="M159.1,88.9v3.8c0,0.5,0.1,0.8,0.3,1.1c0.2,0.2,0.6,0.4,1,0.4c0.6,0,1.1-0.2,1.3-0.5s0.4-0.9,0.4-1.6v-3.1
			h0.9v5.9h-0.7l-0.1-0.8h0c-0.2,0.3-0.4,0.5-0.8,0.7c-0.3,0.2-0.7,0.2-1.1,0.2c-0.7,0-1.3-0.2-1.6-0.5c-0.4-0.3-0.5-0.9-0.5-1.6
			v-3.8H159.1z"/>
		<path class="st0" d="M167.7,88.8c0.8,0,1.4,0.3,1.8,0.8s0.6,1.3,0.6,2.2c0,1-0.2,1.7-0.6,2.3c-0.4,0.5-1,0.8-1.8,0.8
			c-0.4,0-0.7-0.1-1-0.2c-0.3-0.1-0.6-0.4-0.8-0.7h-0.1l-0.2,0.8H165v-8.3h0.9v2c0,0.5,0,0.9,0,1.2h0
			C166.3,89.1,166.9,88.8,167.7,88.8z M167.6,89.6c-0.6,0-1,0.2-1.3,0.5c-0.3,0.3-0.4,0.9-0.4,1.8s0.1,1.4,0.4,1.8s0.7,0.5,1.3,0.5
			c0.5,0,1-0.2,1.2-0.6c0.3-0.4,0.4-1,0.4-1.7c0-0.8-0.1-1.3-0.4-1.7C168.6,89.8,168.2,89.6,167.6,89.6z"/>
		<path class="st0" d="M173.6,94.2c0.2,0,0.3,0,0.5,0c0.1,0,0.3,0,0.3-0.1v0.7c-0.1,0-0.2,0.1-0.4,0.1c-0.2,0-0.4,0-0.5,0
			c-1.1,0-1.7-0.6-1.7-1.8v-3.5h-0.8v-0.4l0.8-0.4l0.4-1.3h0.5v1.4h1.7v0.7h-1.7v3.5c0,0.4,0.1,0.6,0.3,0.8S173.3,94.2,173.6,94.2z"
			/>
		<path class="st0" d="M179.2,94.8L179,94h0c-0.3,0.4-0.6,0.6-0.9,0.7c-0.3,0.1-0.7,0.2-1.1,0.2c-0.6,0-1-0.2-1.4-0.5
			c-0.3-0.3-0.5-0.7-0.5-1.3c0-1.2,0.9-1.8,2.8-1.9l1,0v-0.4c0-0.5-0.1-0.8-0.3-1c-0.2-0.2-0.5-0.3-1-0.3c-0.5,0-1,0.2-1.7,0.5
			l-0.3-0.7c0.3-0.2,0.6-0.3,1-0.4c0.3-0.1,0.7-0.1,1-0.1c0.7,0,1.2,0.2,1.6,0.5s0.5,0.8,0.5,1.5v4H179.2z M177.2,94.2
			c0.6,0,1-0.2,1.3-0.5c0.3-0.3,0.5-0.7,0.5-1.3v-0.5l-0.9,0c-0.7,0-1.2,0.1-1.5,0.3c-0.3,0.2-0.5,0.5-0.5,0.9
			c0,0.3,0.1,0.6,0.3,0.7S176.9,94.2,177.2,94.2z"/>
		<path class="st0" d="M185.5,93.2c0,0.5-0.2,1-0.6,1.3c-0.4,0.3-1,0.4-1.7,0.4c-0.8,0-1.4-0.1-1.8-0.4v-0.8
			c0.3,0.1,0.6,0.3,0.9,0.3c0.3,0.1,0.6,0.1,0.9,0.1c0.5,0,0.8-0.1,1.1-0.2c0.3-0.1,0.4-0.4,0.4-0.7c0-0.2-0.1-0.4-0.3-0.6
			c-0.2-0.2-0.6-0.4-1.2-0.6c-0.5-0.2-0.9-0.4-1.2-0.5c-0.2-0.2-0.4-0.3-0.5-0.5c-0.1-0.2-0.2-0.4-0.2-0.7c0-0.5,0.2-0.9,0.6-1.1
			c0.4-0.3,0.9-0.4,1.6-0.4c0.6,0,1.3,0.1,1.9,0.4l-0.3,0.7c-0.6-0.2-1.1-0.4-1.6-0.4c-0.4,0-0.7,0.1-1,0.2s-0.3,0.3-0.3,0.5
			c0,0.2,0,0.3,0.1,0.4c0.1,0.1,0.2,0.2,0.4,0.3c0.2,0.1,0.5,0.2,1,0.4c0.7,0.3,1.2,0.5,1.4,0.8C185.4,92.5,185.5,92.8,185.5,93.2z"
			/>
		<path class="st0" d="M187.8,91.8c0.2-0.2,0.4-0.5,0.7-0.9l1.9-2h1.1l-2.4,2.5l2.5,3.4h-1.1l-2.1-2.8l-0.7,0.6v2.2H187v-8.3h0.9
			v4.4C187.8,91.1,187.8,91.4,187.8,91.8L187.8,91.8z"/>
		<path class="st0" d="M198.5,94.8h-0.9v-5.6c0-0.5,0-0.9,0-1.3c-0.1,0.1-0.2,0.2-0.3,0.2s-0.5,0.4-1.3,1l-0.5-0.6l2.1-1.6h0.8V94.8
			z"/>
		<path class="st0" d="M201.7,94.3c0-0.2,0.1-0.4,0.2-0.5c0.1-0.1,0.3-0.2,0.5-0.2c0.2,0,0.4,0.1,0.5,0.2s0.2,0.3,0.2,0.5
			c0,0.2-0.1,0.4-0.2,0.5c-0.1,0.1-0.3,0.2-0.5,0.2c-0.2,0-0.3-0.1-0.5-0.2C201.8,94.7,201.7,94.5,201.7,94.3z"/>
		<path class="st0" d="M206.8,90c0.8,0,1.5,0.2,2,0.6c0.5,0.4,0.7,1,0.7,1.7c0,0.8-0.3,1.4-0.8,1.9s-1.2,0.7-2.1,0.7
			c-0.9,0-1.6-0.1-2-0.4v-0.9c0.3,0.2,0.6,0.3,0.9,0.4c0.4,0.1,0.7,0.1,1.1,0.1c0.6,0,1.1-0.1,1.5-0.4s0.5-0.7,0.5-1.3
			c0-1.1-0.7-1.6-2-1.6c-0.3,0-0.8,0.1-1.4,0.2l-0.5-0.3L205,87h3.9v0.8h-3.1l-0.2,2.4C206,90.1,206.4,90,206.8,90z"/>
	</g>
	<line class="st5" x1="135.1" y1="91" x2="139.6" y2="91"/>
	<line class="st5" x1="68.3" y1="91" x2="72.9" y2="91"/>
	<g>
		<rect x="17.5" y="86.5" class="st1" width="89.4" height="14.7"/>
		<g class="st2">
			<path class="st3" d="M21,94.8h-0.9v-7h-2.5V87h5.9v0.8H21V94.8z"/>
			<path class="st3" d="M28.1,94.8L28,94h0c-0.3,0.4-0.6,0.6-0.9,0.7s-0.7,0.2-1.1,0.2c-0.6,0-1-0.2-1.4-0.5
				c-0.3-0.3-0.5-0.7-0.5-1.3c0-1.2,0.9-1.8,2.8-1.9l1,0v-0.4c0-0.5-0.1-0.8-0.3-1c-0.2-0.2-0.5-0.3-1-0.3c-0.5,0-1,0.2-1.7,0.5
				l-0.3-0.7c0.3-0.2,0.6-0.3,1-0.4s0.7-0.1,1-0.1c0.7,0,1.2,0.2,1.6,0.5s0.5,0.8,0.5,1.5v4H28.1z M26.1,94.2c0.6,0,1-0.2,1.3-0.5
				c0.3-0.3,0.5-0.7,0.5-1.3v-0.5L27,92c-0.7,0-1.2,0.1-1.5,0.3S25,92.8,25,93.2c0,0.3,0.1,0.6,0.3,0.7
				C25.5,94.1,25.8,94.2,26.1,94.2z"/>
			<path class="st3" d="M34.4,93.2c0,0.5-0.2,1-0.6,1.3s-1,0.4-1.7,0.4c-0.8,0-1.4-0.1-1.8-0.4v-0.8c0.3,0.1,0.6,0.3,0.9,0.3
				s0.6,0.1,0.9,0.1c0.5,0,0.8-0.1,1.1-0.2s0.4-0.4,0.4-0.7c0-0.2-0.1-0.4-0.3-0.6c-0.2-0.2-0.6-0.4-1.2-0.6
				c-0.5-0.2-0.9-0.4-1.2-0.5c-0.2-0.2-0.4-0.3-0.5-0.5s-0.2-0.4-0.2-0.7c0-0.5,0.2-0.9,0.6-1.1c0.4-0.3,0.9-0.4,1.6-0.4
				c0.6,0,1.3,0.1,1.9,0.4L34,89.9c-0.6-0.2-1.1-0.4-1.6-0.4c-0.4,0-0.7,0.1-1,0.2c-0.2,0.1-0.3,0.3-0.3,0.5c0,0.2,0,0.3,0.1,0.4
				c0.1,0.1,0.2,0.2,0.4,0.3c0.2,0.1,0.5,0.2,1,0.4c0.7,0.3,1.2,0.5,1.4,0.8C34.3,92.5,34.4,92.8,34.4,93.2z"/>
			<path class="st3" d="M36.8,91.8c0.2-0.2,0.4-0.5,0.7-0.9l1.9-2h1.1L38,91.4l2.5,3.4h-1.1L37.4,92l-0.7,0.6v2.2h-0.9v-8.3h0.9v4.4
				C36.8,91.1,36.7,91.4,36.8,91.8L36.8,91.8z"/>
			<path class="st3" d="M50.1,94.8h-1l-3.7-6.6h0c0.1,1,0.1,1.7,0.1,2.1v4.5h-0.8V87h1l3.7,6.6h0c-0.1-0.9-0.1-1.6-0.1-2.1V87h0.8
				V94.8z M54.2,91.5c0,0.6-0.1,1-0.4,1.4c-0.3,0.3-0.7,0.5-1.2,0.5c-0.5,0-0.9-0.2-1.2-0.5c-0.3-0.3-0.4-0.8-0.4-1.4
				c0-0.6,0.1-1,0.4-1.4s0.7-0.5,1.2-0.5c0.5,0,0.9,0.2,1.2,0.5S54.2,90.9,54.2,91.5z M51.2,94.8v-0.7h2.7v0.7H51.2z M51.6,91.5
				c0,0.4,0.1,0.7,0.2,0.9s0.4,0.3,0.7,0.3c0.3,0,0.6-0.1,0.7-0.3c0.1-0.2,0.2-0.5,0.2-0.9c0-0.4-0.1-0.7-0.2-0.9
				c-0.1-0.2-0.4-0.3-0.7-0.3c-0.3,0-0.6,0.1-0.7,0.3C51.7,90.8,51.6,91.1,51.6,91.5z"/>
			<path class="st3" d="M58.6,94.8h-0.9v-5.6c0-0.5,0-0.9,0-1.3c-0.1,0.1-0.2,0.2-0.3,0.2c-0.1,0.1-0.5,0.4-1.3,1l-0.5-0.6l2.1-1.6
				h0.8V94.8z"/>
		</g>
	</g>
</g>
<g>
	<path class="st6" d="M248.8,15.2c-0.6-0.8-1.1-1.5-1.6-2.3c-13.2,4.8-25.3,12.5-35.5,22.2c-9.5,9.1-17.2,19.9-23.1,31.7
		c-1.2-3.5-1.7-7.2-1.9-11.1c-0.1-3.9-6.2-3.7-6.1,0.2c0.3,7.1,1.7,13.5,5.2,19.7c0.5,0.8,1.3,1.3,2.1,1.4c1.2,0.4,2.5,0.1,3.2-1.4
		c2.3-3.6,10.4-7.3,14.5-7.4c3.9-0.1,3.9-6.4,0-6.2c-2.6,0.1-5.7,1-8.7,2.3c11.7-20.1,29-36.6,50.8-45.1
		C249.2,18.5,249.8,16.6,248.8,15.2z"/>
</g>
<g>
	<path class="st6" d="M213.8,34.5c-23,8.2-47.9,6.5-70.5-2.1c3.2-0.9,6.2-2.1,8.2-3.7c3.1-2.4-0.8-7.2-3.9-4.8
		c-3.3,2.5-12,4.8-16,3.4c-1.5-0.7-2.7-0.2-3.3,0.9c-0.6,0.6-0.9,1.5-0.7,2.4c1.2,7,4.1,12.9,8.3,18.6c2.4,3.1,7.2-0.6,4.8-3.7
		c-2.3-3.1-4.3-6.4-5.5-9.8c12,5.4,24.8,8.9,37.9,10c13.8,1.1,27.7-0.5,40.7-4.8V34.5z"/>
</g>
</svg>
