<?xml version="1.0" encoding="utf-8"?>
<!-- Generator: Adobe Illustrator 19.2.1, SVG Export Plug-In . SVG Version: 6.00 Build 0)  -->
<svg version="1.1" id="Слой_1" xmlns="http://www.w3.org/2000/svg" xmlns:xlink="http://www.w3.org/1999/xlink" x="0px" y="0px"
	 viewBox="0 0 344.3 37.3" style="enable-background:new 0 0 344.3 37.3;" xml:space="preserve">
<style type="text/css">
	.st0{fill:#FFFFFF;}
	.st1{fill:#EAA92A;}
	.st2{fill:none;stroke:#FFFFFF;stroke-width:0.8943;stroke-linecap:round;stroke-linejoin:round;stroke-miterlimit:10;}
	.st3{fill:none;}
	.st4{fill:#B9BBBC;}
	.st5{fill:#CDE37A;}
	.st6{fill:#D46C57;}
	.st7{enable-background:new    ;}
</style>
<rect class="st0" width="344.3" height="37.3"/>
<circle class="st1" cx="121.2" cy="19.5" r="10"/>
<g>
	<circle class="st2" cx="121.2" cy="19" r="5.6"/>
	<line class="st2" x1="120.8" y1="20.8" x2="124.4" y2="17.3"/>
	<line class="st2" x1="120.8" y1="20.9" x2="119" y2="19.1"/>
</g>
<rect x="133.7" y="15.8" class="st3" width="44.7" height="16.5"/>
<circle class="st4" cx="37.4" cy="19.5" r="10"/>
<rect x="48.5" y="16.2" class="st3" width="44.7" height="16.5"/>
<g>
	<g>
		<circle class="st2" cx="37.4" cy="19.4" r="5.6"/>
	</g>
	<line class="st2" x1="37.4" y1="19.5" x2="37.3" y2="22.9"/>
	<line class="st2" x1="37.3" y1="19.5" x2="39" y2="17.6"/>
	<path class="st2" d="M36.5,13.7c0-0.6,0.5-1.1,1.1-1.1s1.1,0.5,1.1,1.1"/>
</g>
<circle class="st5" cx="204.8" cy="19.5" r="10"/>
<rect x="218.8" y="15.8" class="st3" width="44.7" height="16.5"/>
<g>
	<g>
		<line class="st2" x1="207.7" y1="14.3" x2="208.6" y2="16.3"/>
		<line class="st2" x1="206.5" y1="16.5" x2="208.6" y2="16.3"/>
	</g>
	<path class="st2" d="M201,16.5c1.1-1.3,2.9-2,4.7-1.7c1.1,0.2,2.1,0.7,2.9,1.5"/>
	<g>
		<line class="st2" x1="198.8" y1="20.1" x2="200.1" y2="18.3"/>
		<line class="st2" x1="201.4" y1="20.1" x2="200.1" y2="18.3"/>
	</g>
	<path class="st2" d="M204.2,24.8c-1.7-0.3-3.2-1.5-3.9-3.2c-0.4-1.1-0.5-2.2-0.2-3.2"/>
	<g>
		<line class="st2" x1="208.3" y1="24.9" x2="206.1" y2="24.8"/>
		<line class="st2" x1="207" y1="22.7" x2="206.1" y2="24.8"/>
	</g>
	<path class="st2" d="M209.5,17.6c0.7,1.7,0.5,3.8-0.7,5.4c-0.7,0.9-1.7,1.5-2.7,1.8"/>
</g>
<circle class="st6" cx="280.3" cy="19.5" r="10"/>
<rect x="293.2" y="15.8" class="st3" width="55.7" height="16.5"/>
<g>
	<g>
		<path class="st0" d="M281.4,19.6c-0.5-1.1-0.2-1.7,0.2-2.3c0.4-0.6,0.6-1.3,0.6-1.3s0.3,0.4,0.2,1.2c0.6-0.7,0.7-1.8,0.6-2.2
			c1.4,1,2,3.1,1.2,4.6c4.2-2.4,1.1-6,0.5-6.4c0.2,0.4,0.2,1.1-0.2,1.4c-0.6-2.4-2.2-2.9-2.2-2.9c0.2,1.2-0.7,2.6-1.5,3.6
			c0-0.5-0.1-0.8-0.3-1.3c-0.1,0.9-0.7,1.6-0.9,2.5C279.3,17.8,279.7,18.7,281.4,19.6z"/>
	</g>
	<path class="st2" d="M285.1,20.5c0,0.2-0.1,0.5-0.2,0.7c-0.6,2-2.4,3.4-4.6,3.4c-2.6,0-4.8-2.1-4.8-4.8c0-2.1,1.4-3.9,3.2-4.5"/>
</g>
<g class="st7">
	<path class="st4" d="M137.9,21.8c-0.6,0-1-0.2-1.4-0.5c-0.3-0.4-0.5-0.9-0.5-1.5c0-0.7,0.2-1.2,0.5-1.6s0.8-0.6,1.4-0.6
		c0.3,0,0.7,0.1,1,0.2l-0.1,0.3c-0.3-0.1-0.7-0.2-0.9-0.2c-0.5,0-0.9,0.2-1.1,0.5s-0.4,0.7-0.4,1.3c0,0.5,0.1,1,0.4,1.3
		c0.3,0.3,0.6,0.5,1.1,0.5c0.4,0,0.7-0.1,1-0.2v0.3C138.7,21.7,138.3,21.8,137.9,21.8z"/>
	<path class="st4" d="M143.2,19.7c0,0.7-0.2,1.2-0.5,1.5c-0.3,0.4-0.8,0.6-1.3,0.6c-0.4,0-0.7-0.1-0.9-0.3c-0.3-0.2-0.5-0.4-0.6-0.7
		s-0.2-0.7-0.2-1.1c0-0.7,0.2-1.2,0.5-1.5c0.3-0.4,0.8-0.6,1.3-0.6c0.6,0,1,0.2,1.3,0.6S143.2,19,143.2,19.7z M140.1,19.7
		c0,0.6,0.1,1,0.4,1.3s0.6,0.5,1,0.5s0.8-0.2,1-0.5s0.4-0.7,0.4-1.3c0-0.6-0.1-1-0.4-1.3s-0.6-0.5-1-0.5c-0.4,0-0.8,0.2-1,0.5
		S140.1,19.1,140.1,19.7z"/>
	<path class="st4" d="M149.4,21.7v-2.6c0-0.4-0.1-0.7-0.2-0.9c-0.2-0.2-0.4-0.3-0.7-0.3c-0.4,0-0.7,0.1-0.9,0.3
		c-0.2,0.2-0.3,0.6-0.3,1.1v2.4h-0.4V19c0-0.7-0.3-1-0.9-1c-0.4,0-0.7,0.1-0.9,0.4s-0.3,0.6-0.3,1.2v2.2h-0.4v-4h0.3l0.1,0.6h0
		c0.1-0.2,0.3-0.4,0.5-0.5s0.4-0.2,0.7-0.2c0.6,0,1,0.2,1.2,0.7h0c0.1-0.2,0.3-0.4,0.5-0.5c0.2-0.1,0.5-0.2,0.8-0.2
		c0.4,0,0.8,0.1,1,0.4s0.3,0.6,0.3,1.1v2.6H149.4z"/>
	<path class="st4" d="M152.8,21.8c-0.6,0-1.1-0.2-1.4-0.7h0l0,0.3c0,0.2,0,0.4,0,0.6v1.5h-0.4v-5.9h0.3l0.1,0.6h0
		c0.3-0.4,0.7-0.7,1.3-0.7c0.5,0,1,0.2,1.2,0.5c0.3,0.4,0.4,0.9,0.4,1.6c0,0.7-0.1,1.2-0.5,1.5C153.7,21.6,153.3,21.8,152.8,21.8z
		 M152.8,21.5c0.4,0,0.7-0.2,1-0.5c0.2-0.3,0.3-0.7,0.3-1.3c0-1.2-0.4-1.8-1.3-1.8c-0.5,0-0.8,0.1-1,0.4s-0.3,0.7-0.3,1.3v0.1
		c0,0.6,0.1,1.1,0.3,1.4S152.3,21.5,152.8,21.5z"/>
	<path class="st4" d="M156,21.7h-0.4v-5.8h0.4V21.7z"/>
	<path class="st4" d="M158.9,21.8c-0.6,0-1-0.2-1.4-0.5c-0.3-0.4-0.5-0.9-0.5-1.5c0-0.6,0.2-1.2,0.5-1.5c0.3-0.4,0.7-0.6,1.3-0.6
		c0.5,0,0.9,0.2,1.1,0.5c0.3,0.3,0.4,0.8,0.4,1.4v0.3h-2.9c0,0.6,0.1,1,0.4,1.3c0.3,0.3,0.6,0.4,1.1,0.4c0.2,0,0.4,0,0.6,0
		s0.4-0.1,0.7-0.2v0.3c-0.2,0.1-0.4,0.2-0.6,0.2S159.2,21.8,158.9,21.8z M158.8,17.9c-0.4,0-0.7,0.1-0.9,0.4
		c-0.2,0.3-0.4,0.6-0.4,1.1h2.5c0-0.5-0.1-0.8-0.3-1.1C159.5,18.1,159.2,17.9,158.8,17.9z"/>
	<path class="st4" d="M162.5,21.5c0.2,0,0.4,0,0.6-0.1v0.3c-0.2,0.1-0.4,0.1-0.6,0.1c-0.4,0-0.6-0.1-0.8-0.3
		c-0.2-0.2-0.3-0.5-0.3-0.9V18h-0.6v-0.2l0.6-0.2l0.2-0.9h0.2v1h1.2V18h-1.2v2.6c0,0.3,0.1,0.5,0.2,0.7
		C162.1,21.4,162.3,21.5,162.5,21.5z"/>
	<path class="st4" d="M165.7,21.8c-0.6,0-1-0.2-1.4-0.5c-0.3-0.4-0.5-0.9-0.5-1.5c0-0.6,0.2-1.2,0.5-1.5c0.3-0.4,0.7-0.6,1.3-0.6
		c0.5,0,0.9,0.2,1.1,0.5c0.3,0.3,0.4,0.8,0.4,1.4v0.3h-2.9c0,0.6,0.1,1,0.4,1.3c0.3,0.3,0.6,0.4,1.1,0.4c0.2,0,0.4,0,0.6,0
		s0.4-0.1,0.7-0.2v0.3c-0.2,0.1-0.4,0.2-0.6,0.2S165.9,21.8,165.7,21.8z M165.6,17.9c-0.4,0-0.7,0.1-0.9,0.4
		c-0.2,0.3-0.4,0.6-0.4,1.1h2.5c0-0.5-0.1-0.8-0.3-1.1C166.2,18.1,165.9,17.9,165.6,17.9z"/>
	<path class="st4" d="M169.7,17.6c0.3,0,0.5,0.1,0.8,0.2c0.2,0.1,0.4,0.3,0.6,0.5h0c0-0.3,0-0.6,0-0.9v-1.5h0.4v5.8h-0.2l-0.1-0.6h0
		c-0.3,0.5-0.7,0.7-1.3,0.7c-0.6,0-1-0.2-1.3-0.5s-0.4-0.9-0.4-1.5c0-0.7,0.1-1.2,0.4-1.6C168.7,17.8,169.1,17.6,169.7,17.6z
		 M169.7,17.9c-0.4,0-0.8,0.2-1,0.5c-0.2,0.3-0.3,0.8-0.3,1.3c0,1.1,0.4,1.7,1.3,1.7c0.5,0,0.8-0.1,1-0.4s0.3-0.7,0.3-1.3v-0.1
		c0-0.6-0.1-1.1-0.3-1.3C170.5,18.1,170.1,17.9,169.7,17.9z"/>
</g>
<g class="st7">
	<path class="st4" d="M53.6,22.2l-0.1-0.6h0c-0.2,0.3-0.4,0.4-0.6,0.6c-0.2,0.1-0.5,0.2-0.8,0.2c-0.4,0-0.7-0.1-0.9-0.3
		c-0.2-0.2-0.3-0.5-0.3-0.8c0-0.4,0.2-0.7,0.5-0.9c0.3-0.2,0.8-0.3,1.4-0.3l0.8,0v-0.3c0-0.4-0.1-0.7-0.2-0.9
		c-0.2-0.2-0.4-0.3-0.8-0.3c-0.4,0-0.8,0.1-1.2,0.3l-0.1-0.3c0.4-0.2,0.9-0.3,1.3-0.3c0.4,0,0.8,0.1,1,0.3c0.2,0.2,0.3,0.6,0.3,1.1
		v2.7H53.6z M52.1,21.9c0.4,0,0.8-0.1,1-0.4c0.2-0.2,0.4-0.6,0.4-1v-0.4l-0.7,0c-0.6,0-1,0.1-1.2,0.3c-0.2,0.2-0.4,0.4-0.4,0.7
		c0,0.3,0.1,0.4,0.2,0.6S51.9,21.9,52.1,21.9z"/>
	<path class="st4" d="M58.4,22.2l-0.9-2.7c-0.1-0.2-0.1-0.5-0.2-0.8h0l-0.1,0.3l-0.2,0.5l-0.9,2.7h-0.4l-1.2-4H55l0.6,2.3
		c0.2,0.6,0.3,1,0.3,1.3h0c0.1-0.6,0.3-1,0.3-1.2l0.8-2.5h0.3l0.8,2.5c0.2,0.6,0.3,1,0.3,1.2h0c0-0.2,0.1-0.6,0.3-1.3l0.6-2.3h0.4
		l-1.1,4H58.4z"/>
	<path class="st4" d="M63.1,22.2l-0.1-0.6h0c-0.2,0.3-0.4,0.4-0.6,0.6c-0.2,0.1-0.5,0.2-0.8,0.2c-0.4,0-0.7-0.1-0.9-0.3
		c-0.2-0.2-0.3-0.5-0.3-0.8c0-0.4,0.2-0.7,0.5-0.9c0.3-0.2,0.8-0.3,1.4-0.3l0.8,0v-0.3c0-0.4-0.1-0.7-0.2-0.9
		c-0.2-0.2-0.4-0.3-0.8-0.3c-0.4,0-0.8,0.1-1.2,0.3l-0.1-0.3c0.4-0.2,0.9-0.3,1.3-0.3c0.4,0,0.8,0.1,1,0.3c0.2,0.2,0.3,0.6,0.3,1.1
		v2.7H63.1z M61.7,21.9c0.4,0,0.8-0.1,1-0.4c0.2-0.2,0.4-0.6,0.4-1v-0.4l-0.7,0c-0.6,0-1,0.1-1.2,0.3c-0.2,0.2-0.4,0.4-0.4,0.7
		c0,0.3,0.1,0.4,0.2,0.6S61.4,21.9,61.7,21.9z"/>
	<path class="st4" d="M64.7,17c0-0.2,0.1-0.4,0.2-0.4c0.1,0,0.1,0,0.2,0.1c0,0.1,0.1,0.1,0.1,0.3c0,0.1,0,0.2-0.1,0.3
		c0,0.1-0.1,0.1-0.2,0.1C64.8,17.4,64.7,17.2,64.7,17z M65.1,22.2h-0.4v-4h0.4V22.2z"/>
	<path class="st4" d="M67.5,21.9c0.2,0,0.4,0,0.6-0.1v0.3c-0.2,0.1-0.4,0.1-0.6,0.1c-0.4,0-0.6-0.1-0.8-0.3
		c-0.2-0.2-0.3-0.5-0.3-0.9v-2.6h-0.6v-0.2l0.6-0.2l0.2-0.9h0.2v1H68v0.3h-1.2V21c0,0.3,0.1,0.5,0.2,0.7
		C67.1,21.8,67.3,21.9,67.5,21.9z"/>
	<path class="st4" d="M68.9,17c0-0.2,0.1-0.4,0.2-0.4c0.1,0,0.1,0,0.2,0.1c0,0.1,0.1,0.1,0.1,0.3c0,0.1,0,0.2-0.1,0.3
		c0,0.1-0.1,0.1-0.2,0.1C69,17.4,68.9,17.2,68.9,17z M69.4,22.2H69v-4h0.4V22.2z"/>
	<path class="st4" d="M73.5,22.2v-2.6c0-0.4-0.1-0.7-0.3-0.9c-0.2-0.2-0.4-0.3-0.8-0.3c-0.5,0-0.8,0.1-1.1,0.4
		c-0.2,0.2-0.3,0.6-0.3,1.2v2.2h-0.4v-4H71l0.1,0.6h0c0.3-0.4,0.7-0.6,1.4-0.6c0.9,0,1.4,0.5,1.4,1.5v2.6H73.5z"/>
	<path class="st4" d="M78.3,18.1v0.3l-0.8,0.1c0.2,0.3,0.3,0.6,0.3,0.9c0,0.4-0.1,0.7-0.4,0.9c-0.3,0.2-0.6,0.4-1,0.4
		c-0.2,0-0.3,0-0.4,0c-0.1,0.1-0.3,0.2-0.3,0.3c-0.1,0.1-0.1,0.2-0.1,0.3c0,0.1,0,0.2,0.1,0.3c0.1,0.1,0.3,0.1,0.5,0.1h0.7
		c0.4,0,0.8,0.1,1,0.3s0.3,0.4,0.3,0.8c0,0.4-0.2,0.8-0.5,1c-0.3,0.2-0.8,0.3-1.5,0.3c-0.5,0-0.9-0.1-1.2-0.3
		c-0.3-0.2-0.4-0.5-0.4-0.8c0-0.3,0.1-0.5,0.3-0.7c0.2-0.2,0.4-0.3,0.7-0.4c-0.1-0.1-0.2-0.1-0.3-0.2c-0.1-0.1-0.1-0.2-0.1-0.3
		c0-0.3,0.2-0.5,0.5-0.7c-0.2-0.1-0.4-0.2-0.5-0.5c-0.1-0.2-0.2-0.4-0.2-0.7c0-0.4,0.1-0.7,0.4-1c0.3-0.2,0.6-0.4,1-0.4
		c0.3,0,0.5,0,0.6,0.1H78.3z M75.1,22.8c0,0.6,0.4,0.8,1.2,0.8c1.1,0,1.6-0.3,1.6-1c0-0.2-0.1-0.4-0.2-0.5C77.5,22,77.2,22,76.8,22
		h-0.7C75.4,22,75.1,22.3,75.1,22.8z M75.4,19.4c0,0.3,0.1,0.6,0.3,0.7c0.2,0.2,0.4,0.3,0.8,0.3c0.3,0,0.6-0.1,0.8-0.3
		c0.2-0.2,0.3-0.4,0.3-0.7c0-0.3-0.1-0.6-0.3-0.8c-0.2-0.2-0.4-0.3-0.8-0.3c-0.3,0-0.6,0.1-0.8,0.3C75.5,18.8,75.4,19.1,75.4,19.4z"
		/>
</g>
<g class="st7">
	<path class="st4" d="M221.4,16.6c0-0.2,0.1-0.4,0.2-0.4c0.1,0,0.1,0,0.2,0.1s0.1,0.1,0.1,0.3c0,0.1,0,0.2-0.1,0.3s-0.1,0.1-0.2,0.1
		C221.4,16.9,221.4,16.8,221.4,16.6z M221.8,21.7h-0.4v-4h0.4V21.7z"/>
	<path class="st4" d="M225.9,21.7v-2.6c0-0.4-0.1-0.7-0.3-0.9c-0.2-0.2-0.4-0.3-0.8-0.3c-0.5,0-0.8,0.1-1.1,0.4
		c-0.2,0.2-0.3,0.6-0.3,1.2v2.2h-0.4v-4h0.3l0.1,0.6h0c0.3-0.4,0.7-0.6,1.4-0.6c0.9,0,1.4,0.5,1.4,1.5v2.6H225.9z"/>
	<path class="st4" d="M231.3,21.8c-0.6,0-1.1-0.2-1.4-0.7h0l0,0.3c0,0.2,0,0.4,0,0.6v1.5h-0.4v-5.9h0.3l0.1,0.6h0
		c0.3-0.4,0.7-0.7,1.3-0.7c0.5,0,1,0.2,1.2,0.5c0.3,0.4,0.4,0.9,0.4,1.6c0,0.7-0.1,1.2-0.5,1.5C232.2,21.6,231.8,21.8,231.3,21.8z
		 M231.3,21.5c0.4,0,0.7-0.2,1-0.5c0.2-0.3,0.3-0.7,0.3-1.3c0-1.2-0.4-1.8-1.3-1.8c-0.5,0-0.8,0.1-1,0.4c-0.2,0.3-0.3,0.7-0.3,1.3
		v0.1c0,0.6,0.1,1.1,0.3,1.4C230.5,21.3,230.8,21.5,231.3,21.5z"/>
	<path class="st4" d="M235.7,17.6c0.2,0,0.4,0,0.5,0.1l-0.1,0.4c-0.2,0-0.3-0.1-0.5-0.1c-0.3,0-0.6,0.1-0.8,0.4
		c-0.2,0.3-0.3,0.7-0.3,1.1v2.2h-0.4v-4h0.3l0,0.7h0c0.2-0.3,0.3-0.5,0.5-0.6C235.2,17.7,235.4,17.6,235.7,17.6z"/>
	<path class="st4" d="M240.4,19.7c0,0.7-0.2,1.2-0.5,1.5s-0.8,0.6-1.3,0.6c-0.4,0-0.7-0.1-0.9-0.3s-0.5-0.4-0.6-0.7
		s-0.2-0.7-0.2-1.1c0-0.7,0.2-1.2,0.5-1.5c0.3-0.4,0.8-0.6,1.3-0.6c0.6,0,1,0.2,1.3,0.6S240.4,19,240.4,19.7z M237.2,19.7
		c0,0.6,0.1,1,0.4,1.3c0.2,0.3,0.6,0.5,1,0.5s0.8-0.2,1-0.5c0.2-0.3,0.4-0.7,0.4-1.3c0-0.6-0.1-1-0.4-1.3s-0.6-0.5-1-0.5
		c-0.4,0-0.8,0.2-1,0.5S237.2,19.1,237.2,19.7z"/>
	<path class="st4" d="M244.7,17.7v0.3l-0.8,0.1c0.2,0.3,0.3,0.6,0.3,0.9c0,0.4-0.1,0.7-0.4,0.9c-0.3,0.2-0.6,0.4-1,0.4
		c-0.2,0-0.3,0-0.4,0c-0.1,0.1-0.3,0.2-0.3,0.3c-0.1,0.1-0.1,0.2-0.1,0.3c0,0.1,0,0.2,0.1,0.3c0.1,0.1,0.3,0.1,0.5,0.1h0.7
		c0.4,0,0.8,0.1,1,0.3s0.3,0.4,0.3,0.8c0,0.4-0.2,0.8-0.5,1c-0.3,0.2-0.8,0.3-1.5,0.3c-0.5,0-0.9-0.1-1.2-0.3
		c-0.3-0.2-0.4-0.5-0.4-0.8c0-0.3,0.1-0.5,0.3-0.7c0.2-0.2,0.4-0.3,0.7-0.4c-0.1-0.1-0.2-0.1-0.3-0.2c-0.1-0.1-0.1-0.2-0.1-0.3
		c0-0.3,0.2-0.5,0.5-0.7c-0.2-0.1-0.4-0.2-0.5-0.5s-0.2-0.4-0.2-0.7c0-0.4,0.1-0.7,0.4-1c0.3-0.2,0.6-0.4,1-0.4c0.3,0,0.5,0,0.6,0.1
		H244.7z M241.4,22.4c0,0.6,0.4,0.8,1.2,0.8c1.1,0,1.6-0.3,1.6-1c0-0.2-0.1-0.4-0.2-0.5c-0.2-0.1-0.4-0.2-0.8-0.2h-0.7
		C241.8,21.5,241.4,21.8,241.4,22.4z M241.7,18.9c0,0.3,0.1,0.6,0.3,0.7c0.2,0.2,0.4,0.3,0.8,0.3c0.3,0,0.6-0.1,0.8-0.3
		s0.3-0.4,0.3-0.7c0-0.3-0.1-0.6-0.3-0.8c-0.2-0.2-0.4-0.3-0.8-0.3c-0.3,0-0.6,0.1-0.8,0.3C241.8,18.4,241.7,18.6,241.7,18.9z"/>
	<path class="st4" d="M247.1,17.6c0.2,0,0.4,0,0.5,0.1l-0.1,0.4c-0.2,0-0.3-0.1-0.5-0.1c-0.3,0-0.6,0.1-0.8,0.4
		c-0.2,0.3-0.3,0.7-0.3,1.1v2.2h-0.4v-4h0.3l0,0.7h0c0.2-0.3,0.3-0.5,0.5-0.6C246.6,17.7,246.8,17.6,247.1,17.6z"/>
	<path class="st4" d="M250.1,21.8c-0.6,0-1-0.2-1.4-0.5s-0.5-0.9-0.5-1.5c0-0.6,0.2-1.2,0.5-1.5c0.3-0.4,0.7-0.6,1.3-0.6
		c0.5,0,0.9,0.2,1.1,0.5c0.3,0.3,0.4,0.8,0.4,1.4v0.3h-2.9c0,0.6,0.1,1,0.4,1.3c0.3,0.3,0.6,0.4,1.1,0.4c0.2,0,0.4,0,0.6,0
		c0.2,0,0.4-0.1,0.7-0.2v0.3c-0.2,0.1-0.4,0.2-0.6,0.2C250.5,21.8,250.3,21.8,250.1,21.8z M250,17.9c-0.4,0-0.7,0.1-0.9,0.4
		c-0.2,0.3-0.4,0.6-0.4,1.1h2.5c0-0.5-0.1-0.8-0.3-1.1S250.3,17.9,250,17.9z"/>
	<path class="st4" d="M255.1,20.7c0,0.4-0.1,0.6-0.4,0.8s-0.7,0.3-1.2,0.3c-0.5,0-1-0.1-1.3-0.2v-0.4c0.4,0.2,0.8,0.3,1.3,0.3
		c0.4,0,0.7-0.1,0.9-0.2c0.2-0.1,0.3-0.3,0.3-0.5c0-0.2-0.1-0.4-0.2-0.5c-0.2-0.1-0.4-0.3-0.8-0.4c-0.4-0.1-0.7-0.3-0.8-0.4
		s-0.3-0.2-0.4-0.4c-0.1-0.1-0.1-0.3-0.1-0.5c0-0.3,0.1-0.5,0.4-0.7s0.6-0.3,1.1-0.3c0.4,0,0.8,0.1,1.2,0.2l-0.1,0.3
		c-0.4-0.2-0.8-0.2-1.1-0.2c-0.3,0-0.6,0.1-0.8,0.2c-0.2,0.1-0.3,0.3-0.3,0.5c0,0.2,0.1,0.4,0.2,0.5c0.1,0.1,0.4,0.3,0.9,0.4
		c0.4,0.1,0.6,0.2,0.8,0.4s0.3,0.2,0.4,0.4S255.1,20.5,255.1,20.7z"/>
	<path class="st4" d="M258.7,20.7c0,0.4-0.1,0.6-0.4,0.8s-0.7,0.3-1.2,0.3c-0.5,0-1-0.1-1.3-0.2v-0.4c0.4,0.2,0.8,0.3,1.3,0.3
		c0.4,0,0.7-0.1,0.9-0.2c0.2-0.1,0.3-0.3,0.3-0.5c0-0.2-0.1-0.4-0.2-0.5c-0.2-0.1-0.4-0.3-0.8-0.4c-0.4-0.1-0.7-0.3-0.8-0.4
		s-0.3-0.2-0.4-0.4c-0.1-0.1-0.1-0.3-0.1-0.5c0-0.3,0.1-0.5,0.4-0.7s0.6-0.3,1.1-0.3c0.4,0,0.8,0.1,1.2,0.2l-0.1,0.3
		c-0.4-0.2-0.8-0.2-1.1-0.2c-0.3,0-0.6,0.1-0.8,0.2c-0.2,0.1-0.3,0.3-0.3,0.5c0,0.2,0.1,0.4,0.2,0.5c0.1,0.1,0.4,0.3,0.9,0.4
		c0.4,0.1,0.6,0.2,0.8,0.4s0.3,0.2,0.4,0.4S258.7,20.5,258.7,20.7z"/>
</g>
<g class="st7">
	<path class="st4" d="M297.4,21.8c-0.6,0-1-0.2-1.4-0.5c-0.3-0.4-0.5-0.9-0.5-1.5c0-0.6,0.2-1.2,0.5-1.5c0.3-0.4,0.7-0.6,1.3-0.6
		c0.5,0,0.8,0.2,1.1,0.5c0.3,0.3,0.4,0.8,0.4,1.4v0.3H296c0,0.6,0.1,1,0.4,1.3c0.3,0.3,0.6,0.4,1.1,0.4c0.2,0,0.4,0,0.6,0
		c0.2,0,0.4-0.1,0.7-0.2v0.3c-0.2,0.1-0.4,0.2-0.6,0.2C297.9,21.8,297.7,21.8,297.4,21.8z M297.3,17.9c-0.4,0-0.7,0.1-0.9,0.4
		c-0.2,0.3-0.4,0.6-0.4,1.1h2.5c0-0.5-0.1-0.8-0.3-1.1C298,18.1,297.7,17.9,297.3,17.9z"/>
	<path class="st4" d="M301,19.6l-1.4-2h0.4l1.2,1.7l1.2-1.7h0.4l-1.4,2l1.5,2.1h-0.4l-1.3-1.8l-1.3,1.8h-0.4L301,19.6z"/>
	<path class="st4" d="M305.5,21.8c-0.6,0-1.1-0.2-1.4-0.7h0l0,0.3c0,0.2,0,0.4,0,0.6v1.5h-0.4v-5.9h0.3l0.1,0.6h0
		c0.3-0.4,0.7-0.7,1.3-0.7c0.5,0,1,0.2,1.2,0.5s0.4,0.9,0.4,1.6c0,0.7-0.2,1.2-0.5,1.5C306.4,21.6,306,21.8,305.5,21.8z M305.5,21.5
		c0.4,0,0.7-0.2,1-0.5s0.3-0.7,0.3-1.3c0-1.2-0.4-1.8-1.3-1.8c-0.5,0-0.8,0.1-1,0.4c-0.2,0.3-0.3,0.7-0.3,1.3v0.1
		c0,0.6,0.1,1.1,0.3,1.4C304.7,21.3,305,21.5,305.5,21.5z"/>
	<path class="st4" d="M308.2,16.6c0-0.2,0.1-0.4,0.2-0.4c0.1,0,0.1,0,0.2,0.1c0,0.1,0.1,0.1,0.1,0.3c0,0.1,0,0.2-0.1,0.3
		c0,0.1-0.1,0.1-0.2,0.1C308.3,16.9,308.2,16.8,308.2,16.6z M308.6,21.7h-0.4v-4h0.4V21.7z"/>
	<path class="st4" d="M311.6,17.6c0.2,0,0.4,0,0.5,0.1l-0.1,0.4c-0.2,0-0.3-0.1-0.5-0.1c-0.3,0-0.6,0.1-0.8,0.4
		c-0.2,0.3-0.3,0.7-0.3,1.1v2.2H310v-4h0.3l0,0.7h0c0.2-0.3,0.3-0.5,0.5-0.6C311.1,17.7,311.3,17.6,311.6,17.6z"/>
	<path class="st4" d="M314.6,21.8c-0.6,0-1-0.2-1.4-0.5s-0.5-0.9-0.5-1.5c0-0.6,0.2-1.2,0.5-1.5c0.3-0.4,0.7-0.6,1.3-0.6
		c0.5,0,0.9,0.2,1.1,0.5c0.3,0.3,0.4,0.8,0.4,1.4v0.3h-2.9c0,0.6,0.1,1,0.4,1.3c0.3,0.3,0.6,0.4,1.1,0.4c0.2,0,0.4,0,0.6,0
		c0.2,0,0.4-0.1,0.7-0.2v0.3c-0.2,0.1-0.4,0.2-0.6,0.2C315,21.8,314.8,21.8,314.6,21.8z M314.5,17.9c-0.4,0-0.7,0.1-0.9,0.4
		c-0.2,0.3-0.4,0.6-0.4,1.1h2.5c0-0.5-0.1-0.8-0.3-1.1S314.8,17.9,314.5,17.9z"/>
	<path class="st4" d="M318.6,17.6c0.3,0,0.5,0.1,0.8,0.2s0.4,0.3,0.6,0.5h0c0-0.3,0-0.6,0-0.9v-1.5h0.4v5.8h-0.2l-0.1-0.6h0
		c-0.3,0.5-0.7,0.7-1.3,0.7c-0.6,0-1-0.2-1.3-0.5c-0.3-0.3-0.4-0.9-0.4-1.5c0-0.7,0.1-1.2,0.4-1.6C317.6,17.8,318,17.6,318.6,17.6z
		 M318.6,17.9c-0.4,0-0.8,0.2-1,0.5s-0.3,0.8-0.3,1.3c0,1.1,0.4,1.7,1.3,1.7c0.5,0,0.8-0.1,1-0.4s0.3-0.7,0.3-1.3v-0.1
		c0-0.6-0.1-1.1-0.3-1.3S319.1,17.9,318.6,17.9z"/>
</g>
</svg>
