<?xml version="1.0" encoding="utf-8"?>
<!-- Generator: Adobe Illustrator 19.2.1, SVG Export Plug-In . SVG Version: 6.00 Build 0)  -->
<svg version="1.1" id="Слой_1" xmlns="http://www.w3.org/2000/svg" xmlns:xlink="http://www.w3.org/1999/xlink" x="0px" y="0px"
	 viewBox="0 0 354.5 246" style="enable-background:new 0 0 354.5 246;" xml:space="preserve">
<rect style="fill:#FFFFFF;" width="354.5" height="246"/>
<g id="_x30_9_1_">
	<circle id="SVGID_21_" style="fill:#97CFFD;" cx="280.2" cy="172.5" r="44.2"/>
	
		<line style="fill:none;stroke:#FFFFFF;stroke-width:1.7668;stroke-linecap:round;stroke-miterlimit:10;" x1="266.5" y1="203.4" x2="293.8" y2="203.4"/>
	
		<line style="fill:none;stroke:#FFFFFF;stroke-width:1.7668;stroke-linecap:round;stroke-miterlimit:10;" x1="251.2" y1="153.2" x2="255.7" y2="191.9"/>
	
		<line style="fill:none;stroke:#FFFFFF;stroke-width:1.7668;stroke-linecap:round;stroke-miterlimit:10;" x1="310.4" y1="153.2" x2="305.8" y2="191.9"/>
	<path style="fill:none;stroke:#FFFFFF;stroke-width:1.7668;stroke-linecap:round;stroke-miterlimit:10;" d="M255.7,191.9
		c2.3,11.4,6.8,11.4,11.4,11.4"/>
	<path style="fill:none;stroke:#FFFFFF;stroke-width:1.7668;stroke-linecap:round;stroke-miterlimit:10;" d="M305.8,191.9
		c-2.3,11.4-6.8,11.4-11.4,11.4"/>
	<path style="fill:none;stroke:#FFFFFF;stroke-width:1.7668;stroke-linecap:round;stroke-miterlimit:10;" d="M310.4,153.2
		c0-6.8-4.5-6.8-11.4-6.8h-36.4c-6.9,0-11.4,0-11.4,6.8"/>
	<path style="fill:none;stroke:#FFFFFF;stroke-width:1.7668;stroke-linecap:round;stroke-linejoin:round;stroke-miterlimit:10;" d="
		M290.3,167.2c1.1-1.1,2.7-1.8,4.1-1.8c1.6,0,3.1,0.7,4.2,1.9"/>
	<path style="fill:none;stroke:#FFFFFF;stroke-width:1.7668;stroke-linecap:round;stroke-linejoin:round;stroke-miterlimit:10;" d="
		M292.6,177.3c-3,3-6.7,4.6-10.9,4.6c-4,0-8-1.9-11.1-4.9"/>
	
		<ellipse style="fill:none;stroke:#FFFFFF;stroke-width:1.7668;stroke-linecap:round;stroke-linejoin:round;stroke-miterlimit:10;" cx="269.3" cy="167.8" rx="3.4" ry="3"/>
	<path style="fill:none;stroke:#FFFFFF;stroke-width:1.7668;stroke-linecap:round;stroke-linejoin:round;stroke-miterlimit:10;" d="
		M275.2,189.4c-15.5-2.6-27.5-16.1-27.5-32.4h4"/>
	<path style="fill:none;stroke:#FFFFFF;stroke-width:1.7668;stroke-linecap:round;stroke-linejoin:round;stroke-miterlimit:10;" d="
		M309.9,157h3.4c0,16.2-11.7,29.6-27.1,32.3"/>
	
		<path style="fill:#F7AA47;stroke:#FFFFFF;stroke-width:1.7668;stroke-linecap:round;stroke-linejoin:round;stroke-miterlimit:10;" d="
		M287.8,146.6v12.1c0,1.6-1.3,2.9-2.9,2.9s-2.9-1.3-2.9-2.9v-12.1H287.8z"/>
	
		<path style="fill:#F7AA47;stroke:#FFFFFF;stroke-width:1.7668;stroke-linecap:round;stroke-linejoin:round;stroke-miterlimit:10;" d="
		M270.4,146.6v0.2h-5.5H259v7.2c0,1.6,1.3,2.9,2.9,2.9s2.9-1.3,2.9-2.9v3.6c0,1.6,1.3,2.9,2.9,2.9s2.9-1.3,2.9-2.9v-6.8
		c0.5,0.9,1.4,1.5,2.6,1.5c1.6,0,2.9-1.3,2.9-2.9v-2.7L270.4,146.6L270.4,146.6z"/>
	<path style="fill:none;stroke:#FFFFFF;stroke-width:1.7668;stroke-linecap:round;stroke-linejoin:round;stroke-miterlimit:10;" d="
		M284.3,191.9h-7.1c-1.1,0-2-0.9-2-2l0,0c0-1.1,0.9-2,2-2h7.1c1.1,0,2,0.9,2,2l0,0C286.3,191,285.4,191.9,284.3,191.9z"/>
</g>
<g id="_x30_8_1_">
	<circle id="SVGID_20_" style="fill:#97CFFD;" cx="175.7" cy="172.5" r="44.2"/>
	
		<polyline style="fill:none;stroke:#FFFFFF;stroke-width:1.7668;stroke-linecap:round;stroke-linejoin:round;stroke-miterlimit:10;" points="
		144.4,203 144.4,148.7 206.5,148.7 206.5,203 	"/>
	
		<line style="fill:none;stroke:#FFFFFF;stroke-width:1.7668;stroke-linecap:round;stroke-linejoin:round;stroke-miterlimit:10;" x1="144.4" y1="164.3" x2="206.5" y2="164.3"/>
	<path style="fill:none;stroke:#FFFFFF;stroke-width:1.7668;stroke-linecap:round;stroke-linejoin:round;stroke-miterlimit:10;" d="
		M201,148.6v-2.7c0-2-1.7-3.7-3.7-3.7s-3.7,1.7-3.7,3.7v5.6c0,2,1.7,3.7,3.7,3.7"/>
	<path style="fill:none;stroke:#FFFFFF;stroke-width:1.7668;stroke-linecap:round;stroke-linejoin:round;stroke-miterlimit:10;" d="
		M190.7,148.6v-2.7c0-2-1.7-3.7-3.7-3.7s-3.7,1.7-3.7,3.7v5.6c0,2,1.7,3.7,3.7,3.7"/>
	<path style="fill:none;stroke:#FFFFFF;stroke-width:1.7668;stroke-linecap:round;stroke-linejoin:round;stroke-miterlimit:10;" d="
		M180.4,148.6v-2.7c0-2-1.7-3.7-3.7-3.7s-3.7,1.7-3.7,3.7v5.6c0,2,1.7,3.7,3.7,3.7"/>
	<path style="fill:none;stroke:#FFFFFF;stroke-width:1.7668;stroke-linecap:round;stroke-linejoin:round;stroke-miterlimit:10;" d="
		M170,148.6v-2.7c0-2-1.7-3.7-3.7-3.7s-3.7,1.7-3.7,3.7v5.6c0,2,1.7,3.7,3.7,3.7"/>
	<path style="fill:none;stroke:#FFFFFF;stroke-width:1.7668;stroke-linecap:round;stroke-linejoin:round;stroke-miterlimit:10;" d="
		M159.8,148.6v-2.7c0-2-1.7-3.7-3.7-3.7s-3.7,1.7-3.7,3.7v5.6c0,2,1.7,3.7,3.7,3.7"/>
	
		<ellipse style="fill:none;stroke:#FFFFFF;stroke-width:1.7668;stroke-linecap:round;stroke-linejoin:round;stroke-miterlimit:10;" cx="160.4" cy="184.2" rx="4.9" ry="4.7"/>
	
		<ellipse style="fill:none;stroke:#FFFFFF;stroke-width:1.7668;stroke-linecap:round;stroke-linejoin:round;stroke-miterlimit:10;" cx="191.4" cy="184.2" rx="4.9" ry="4.7"/>
	<path style="fill:none;stroke:#FFFFFF;stroke-width:1.7668;stroke-linecap:round;stroke-linejoin:round;stroke-miterlimit:10;" d="
		M187.6,200.4c-3.4,3.1-7.6,5.1-11.7,5.1c-4.4,0-8.5-1.8-11.6-4.9"/>
	
		<path style="fill:#F7AA47;stroke:#FFFFFF;stroke-width:1.7668;stroke-linecap:round;stroke-linejoin:round;stroke-miterlimit:10;" d="
		M202,182.9c1.1,0,2-0.9,2-1.9c0-1.1-1.2-1.9-2.7-1.9l-3.8-0.1c-1.4-0.1-2.7-0.9-2.7-1.8c-0.1-1-1.3-1.7-2.7-1.7h-9.3
		c-1.4,0-2.7,0.9-2.7,1.9c0,1.1,1.2,1.9,2.7,1.9h0.4c1.4,0,2.7,0.8,2.7,1.8s-1.2,1.8-2.7,1.8h-4.7c-1.4,0-2.7,0.9-2.7,1.9
		c0,1.1,1.2,1.9,2.7,1.9l4.7,0.1c1.4,0,2.7,1.2,2.7,2.7v1.9c0,1.4,1.2,2.7,2.7,2.7h1c1.4,0,2.7-0.9,2.7-1.9c0-1.1,1.2-1.9,2.7-1.9
		h2.7c1.4,0,2.7-1.2,2.7-2.7v-1.9C200,184.1,201,182.9,202,182.9z"/>
</g>
<g id="_x30_7_1_">
	<circle id="SVGID_16_" style="fill:#97CFFD;" cx="74" cy="172.5" r="44.2"/>
	
		<line style="fill:none;stroke:#FFFFFF;stroke-width:1.7668;stroke-linecap:round;stroke-linejoin:round;stroke-miterlimit:10;" x1="73.9" y1="143.6" x2="73.9" y2="137.1"/>
	
		<line style="fill:none;stroke:#FFFFFF;stroke-width:1.7668;stroke-linecap:round;stroke-linejoin:round;stroke-miterlimit:10;" x1="73.9" y1="171.4" x2="73.9" y2="156"/>
	
		<ellipse style="fill:none;stroke:#FFFFFF;stroke-width:1.7668;stroke-linecap:round;stroke-linejoin:round;stroke-miterlimit:10;" cx="64.5" cy="183.5" rx="3.1" ry="4"/>
	
		<ellipse style="fill:none;stroke:#FFFFFF;stroke-width:1.7668;stroke-linecap:round;stroke-linejoin:round;stroke-miterlimit:10;" cx="83.2" cy="183.5" rx="3.1" ry="4"/>
	<path style="fill:none;stroke:#FFFFFF;stroke-width:1.7668;stroke-linecap:round;stroke-linejoin:round;stroke-miterlimit:10;" d="
		M79.9,197.1c-1.7,1.7-3.7,2.6-6,2.6c-2.2,0-4.4-1.1-6.1-2.7"/>
	<path style="fill:none;stroke:#FFFFFF;stroke-width:1.7668;stroke-linecap:round;stroke-linejoin:round;stroke-miterlimit:10;" d="
		M73.9,208.7L73.9,208.7c-12.2,0-22.1-9.9-22.1-22.1v-27.5c0-12.2,9.9-22.1,22.1-22.1l0,0c12.2,0,22.1,9.9,22.1,22.1v27.4
		C96,198.8,86,208.7,73.9,208.7z"/>
	
		<path style="fill:#F7AA47;stroke:#FFFFFF;stroke-width:1.7668;stroke-linecap:round;stroke-linejoin:round;stroke-miterlimit:10;" d="
		M73.8,156L73.8,156c-1.9,0-3.5-1.6-3.5-3.5v-4.9c0-1.9,1.6-3.5,3.5-3.5l0,0c1.9,0,3.5,1.6,3.5,3.5v4.9
		C77.4,154.4,75.8,156,73.8,156z"/>
</g>
<g id="_x30_6_1_">
	<circle id="SVGID_14_" style="fill:#85D0FE;" cx="274.1" cy="63.5" r="44.2"/>
	<g>
		<g>
			<circle id="SVGID_47_" style="fill:#97CFFD;" cx="274.1" cy="63.5" r="44.2"/>
		</g>
		<g>
			<g>
				<g>
					<g>
						<g>
							<defs>
								<circle id="SVGID_1_" cx="274.1" cy="63.5" r="44.2"/>
							</defs>
							<clipPath id="SVGID_2_">
								<use xlink:href="#SVGID_1_"  style="overflow:visible;"/>
							</clipPath>
							
								<rect x="277.4" y="76.6" style="clip-path:url(#SVGID_2_);fill:#F7AA47;stroke:#FFFFFF;stroke-width:1.7668;stroke-linecap:round;stroke-linejoin:round;stroke-miterlimit:10;" width="7.2" height="38.4"/>
						</g>
					</g>
				</g>
			</g>
		</g>
		<g>
			<g>
				<g>
					<g>
						<g>
							<defs>
								<circle id="SVGID_3_" cx="274.1" cy="63.5" r="44.2"/>
							</defs>
							<clipPath id="SVGID_4_">
								<use xlink:href="#SVGID_3_"  style="overflow:visible;"/>
							</clipPath>
							
								<rect x="299.3" y="76.6" style="clip-path:url(#SVGID_4_);fill:#F7AA47;stroke:#FFFFFF;stroke-width:1.7668;stroke-linecap:round;stroke-linejoin:round;stroke-miterlimit:10;" width="7.2" height="38.4"/>
						</g>
					</g>
				</g>
			</g>
		</g>
		<g>
			<g>
				<g>
					<g>
						<g>
							<defs>
								<circle id="SVGID_5_" cx="274.1" cy="63.5" r="44.2"/>
							</defs>
							<clipPath id="SVGID_6_">
								<use xlink:href="#SVGID_5_"  style="overflow:visible;"/>
							</clipPath>
							
								<rect x="284.5" y="76.6" style="clip-path:url(#SVGID_6_);fill:#F7AA47;stroke:#FFFFFF;stroke-width:1.7668;stroke-linecap:round;stroke-linejoin:round;stroke-miterlimit:10;" width="14.6" height="38.4"/>
						</g>
					</g>
				</g>
			</g>
		</g>
		<g>
			<g>
				<g>
					<g>
						<g>
							<defs>
								<circle id="SVGID_8_" cx="274.1" cy="63.5" r="44.2"/>
							</defs>
							<clipPath id="SVGID_9_">
								<use xlink:href="#SVGID_8_"  style="overflow:visible;"/>
							</clipPath>
							
								<rect x="244.3" y="37.2" style="clip-path:url(#SVGID_9_);fill:none;stroke:#FFFFFF;stroke-width:1.7668;stroke-linecap:round;stroke-linejoin:round;stroke-miterlimit:10;" width="29.1" height="83.7"/>
						</g>
					</g>
				</g>
			</g>
		</g>
	</g>
	<path style="fill:none;stroke:#FFFFFF;stroke-width:1.7668;stroke-linecap:round;stroke-linejoin:round;stroke-miterlimit:10;" d="
		M298.8,70.4c-1.3,0.9-3.4,1.2-4.7,1.3c-1.2,0.1-4.9,0-4.9,0"/>
	
		<polygon style="fill:none;stroke:#FFFFFF;stroke-width:1.7668;stroke-linecap:round;stroke-linejoin:round;stroke-miterlimit:10;" points="
		292,24.6 306.5,76.6 277.4,76.6 	"/>
	
		<ellipse style="fill:none;stroke:#FFFFFF;stroke-width:1.7668;stroke-linecap:round;stroke-linejoin:round;stroke-miterlimit:10;" cx="286.6" cy="62.6" rx="1.9" ry="2.7"/>
	
		<ellipse style="fill:none;stroke:#FFFFFF;stroke-width:1.7668;stroke-linecap:round;stroke-linejoin:round;stroke-miterlimit:10;" cx="295.7" cy="62.6" rx="1.9" ry="2.7"/>
	
		<polygon style="fill:#FFFFFF;stroke:#FFFFFF;stroke-width:1.7668;stroke-linecap:round;stroke-linejoin:round;stroke-miterlimit:10;" points="
		292,24.6 297.3,43.9 286.6,43.9 	"/>
	
		<ellipse style="fill:none;stroke:#FFFFFF;stroke-width:1.7668;stroke-linecap:round;stroke-linejoin:round;stroke-miterlimit:10;" cx="259" cy="62.6" rx="1.9" ry="2.7"/>
	
		<ellipse style="fill:none;stroke:#FFFFFF;stroke-width:1.7668;stroke-linecap:round;stroke-linejoin:round;stroke-miterlimit:10;" cx="268.1" cy="62.6" rx="1.9" ry="2.7"/>
	
		<line style="fill:none;stroke:#FFFFFF;stroke-width:1.7668;stroke-linecap:round;stroke-linejoin:round;stroke-miterlimit:10;" x1="244.6" y1="37.3" x2="248.8" y2="37.3"/>
	
		<line style="fill:none;stroke:#FFFFFF;stroke-width:1.7668;stroke-linecap:round;stroke-linejoin:round;stroke-miterlimit:10;" x1="244.6" y1="46.7" x2="251" y2="46.7"/>
	
		<line style="fill:none;stroke:#FFFFFF;stroke-width:1.7668;stroke-linecap:round;stroke-linejoin:round;stroke-miterlimit:10;" x1="244.6" y1="55.3" x2="248.8" y2="55.3"/>
	
		<line style="fill:none;stroke:#FFFFFF;stroke-width:1.7668;stroke-linecap:round;stroke-linejoin:round;stroke-miterlimit:10;" x1="244.6" y1="64.6" x2="251" y2="64.6"/>
	
		<line style="fill:none;stroke:#FFFFFF;stroke-width:1.7668;stroke-linecap:round;stroke-linejoin:round;stroke-miterlimit:10;" x1="244.6" y1="73.2" x2="248.8" y2="73.2"/>
	
		<line style="fill:none;stroke:#FFFFFF;stroke-width:1.7668;stroke-linecap:round;stroke-linejoin:round;stroke-miterlimit:10;" x1="244.6" y1="82.6" x2="251" y2="82.6"/>
	
		<line style="fill:none;stroke:#FFFFFF;stroke-width:1.7668;stroke-linecap:round;stroke-linejoin:round;stroke-miterlimit:10;" x1="244.6" y1="91.2" x2="248.8" y2="91.2"/>
	<path style="fill:none;stroke:#FFFFFF;stroke-width:1.7668;stroke-linecap:round;stroke-linejoin:round;stroke-miterlimit:10;" d="
		M267.1,72c-1.7,1.6-3.8,2.6-6,2.6c-2.3,0-4.5-1.1-6.2-2.7L267.1,72z"/>
</g>
<g id="_x30_5_1_">
	<circle id="SVGID_11_" style="fill:#97CFFD;" cx="172.6" cy="63.5" r="44.2"/>
	
		<ellipse style="fill:none;stroke:#FFFFFF;stroke-width:1.7668;stroke-linecap:round;stroke-linejoin:round;stroke-miterlimit:10;" cx="158.8" cy="66.7" rx="3.4" ry="3.3"/>
	
		<ellipse style="fill:none;stroke:#FFFFFF;stroke-width:1.7668;stroke-linecap:round;stroke-linejoin:round;stroke-miterlimit:10;" cx="186.7" cy="66.7" rx="3.4" ry="3.3"/>
	<path style="fill:none;stroke:#FFFFFF;stroke-width:1.7668;stroke-linecap:round;stroke-linejoin:round;stroke-miterlimit:10;" d="
		M177,68.3c-1.2,1.1-2.7,1.9-4.2,1.9c-1.6,0-3-0.6-4.2-1.8"/>
	
		<path style="fill:#F7AA47;stroke:#FFFFFF;stroke-width:1.7668;stroke-linecap:round;stroke-linejoin:round;stroke-miterlimit:10;" d="
		M154.5,60.6c1.7-8.7,9.3-15.4,18.5-15.4s16.9,6.6,18.5,15.4h16.3C206,42.9,191.1,29,172.9,29S139.8,42.9,138,60.6H154.5z"/>
	
		<rect x="134.4" y="60.6" style="fill:none;stroke:#FFFFFF;stroke-width:1.7668;stroke-linecap:round;stroke-linejoin:round;stroke-miterlimit:10;" width="77.1" height="16.2"/>
	
		<line style="fill:none;stroke:#FFFFFF;stroke-width:1.7668;stroke-linecap:round;stroke-linejoin:round;stroke-miterlimit:10;" x1="173" y1="29.4" x2="173" y2="37"/>
	
		<line style="fill:none;stroke:#FFFFFF;stroke-width:1.7668;stroke-linecap:round;stroke-linejoin:round;stroke-miterlimit:10;" x1="144.8" y1="68.8" x2="144.8" y2="76.4"/>
	
		<line style="fill:none;stroke:#FFFFFF;stroke-width:1.7668;stroke-linecap:round;stroke-linejoin:round;stroke-miterlimit:10;" x1="154.4" y1="72.9" x2="154.4" y2="76.6"/>
	
		<line style="fill:none;stroke:#FFFFFF;stroke-width:1.7668;stroke-linecap:round;stroke-linejoin:round;stroke-miterlimit:10;" x1="185.2" y1="31.9" x2="183.3" y2="35.1"/>
	
		<line style="fill:none;stroke:#FFFFFF;stroke-width:1.7668;stroke-linecap:round;stroke-linejoin:round;stroke-miterlimit:10;" x1="162.6" y1="35.1" x2="160.8" y2="31.9"/>
	
		<line style="fill:none;stroke:#FFFFFF;stroke-width:1.7668;stroke-linecap:round;stroke-linejoin:round;stroke-miterlimit:10;" x1="191.8" y1="72.9" x2="191.8" y2="76.6"/>
	
		<line style="fill:none;stroke:#FFFFFF;stroke-width:1.7668;stroke-linecap:round;stroke-linejoin:round;stroke-miterlimit:10;" x1="200.7" y1="68.8" x2="200.7" y2="76.4"/>
	
		<line style="fill:none;stroke:#FFFFFF;stroke-width:1.7668;stroke-linecap:round;stroke-linejoin:round;stroke-miterlimit:10;" x1="195.4" y1="37.4" x2="190" y2="42.8"/>
	
		<line style="fill:none;stroke:#FFFFFF;stroke-width:1.7668;stroke-linecap:round;stroke-linejoin:round;stroke-miterlimit:10;" x1="151" y1="37.9" x2="156.4" y2="43.2"/>
</g>
<g id="_x30_4_1_">
	<circle id="SVGID_7_" style="fill:#97CFFD;" cx="71.1" cy="63.5" r="44.2"/>
	<g>
		<g>
			<g>
				<g>
					<g>
						<g>
							<defs>
								<circle id="SVGID_10_" cx="71.1" cy="63.5" r="44.2"/>
							</defs>
							<clipPath id="SVGID_12_">
								<use xlink:href="#SVGID_10_"  style="overflow:visible;"/>
							</clipPath>
							
								<path style="clip-path:url(#SVGID_12_);fill:#F7AA47;stroke:#FFFFFF;stroke-width:1.7668;stroke-linecap:round;stroke-linejoin:round;stroke-miterlimit:10;" d="
								M71,255.3c0,0,8.7,1,10.3-3.7c2-5.7,3.1-17.5,3.1-35.4c0-40.5-6.4-121.6-6.4-121.6H64c0,0-6.4,81.1-6.4,121.6
								c0,17.9,1.1,29.8,3.1,35.4C62.5,256.1,71,255.3,71,255.3z"/>
						</g>
					</g>
				</g>
			</g>
		</g>
	</g>
	
		<ellipse style="fill:none;stroke:#FFFFFF;stroke-width:1.7668;stroke-linecap:round;stroke-linejoin:round;stroke-miterlimit:10;" cx="83.2" cy="63.9" rx="3.1" ry="2.2"/>
	
		<ellipse style="fill:none;stroke:#FFFFFF;stroke-width:1.7668;stroke-linecap:round;stroke-linejoin:round;stroke-miterlimit:10;" cx="65.8" cy="63.9" rx="3.1" ry="2.2"/>
	
		<path style="fill:#F7AA47;stroke:#FFFFFF;stroke-width:1.7668;stroke-linecap:round;stroke-linejoin:round;stroke-miterlimit:10;" d="
		M78.9,85.4H63.2c0,0,0.4,7-0.4,17.9h16.3C78.4,92.3,78.9,85.4,78.9,85.4z"/>
	<path style="fill:none;stroke:#FFFFFF;stroke-width:1.7668;stroke-linecap:round;stroke-linejoin:round;stroke-miterlimit:10;" d="
		M73,24.6c0,0,35,36.1,5.7,60.8H63.2c0,0-17.2-10.5-9.3-30.4C61.1,36.7,73,39,73,24.6z"/>
	<path style="fill:none;stroke:#FFFFFF;stroke-width:1.7668;stroke-linecap:round;stroke-linejoin:round;stroke-miterlimit:10;" d="
		M80.1,75.6c-1.7,1.7-3.7,2.6-6,2.6c-2.2,0-4.4-1.1-6.1-2.7L80.1,75.6z"/>
	<path style="fill:none;stroke:#FFFFFF;stroke-width:1.7668;stroke-linecap:round;stroke-linejoin:round;stroke-miterlimit:10;" d="
		M69.3,41.1c1.2-1.3,6.5-7.7,4.8-14.1c-0.2-0.6-0.4-1.3-0.8-2"/>
</g>
<g>
	<rect x="71" y="38" style="opacity:0.6;enable-background:new    ;" width="259.6" height="163.5"/>
	<rect x="94.2" y="174.1" style="fill:none;" width="272.5" height="43.9"/>
	<g style="enable-background:new    ;">
		<path style="fill:#FFFFFF;" d="M96.3,184.2h-0.7v-9.4h5.2v0.6h-4.5v4h4.3v0.6h-4.3V184.2z"/>
		<path style="fill:#FFFFFF;" d="M104.9,177.1c0.3,0,0.6,0,1,0.1l-0.1,0.6c-0.3-0.1-0.6-0.1-0.9-0.1c-0.6,0-1.1,0.3-1.5,0.8
			s-0.6,1.2-0.6,1.9v3.9h-0.6v-7h0.5l0.1,1.3l0,0c0.3-0.5,0.6-0.9,0.9-1.1S104.4,177.1,104.9,177.1z"/>
		<path style="fill:#FFFFFF;" d="M113.1,180.7c0,1.1-0.3,2-0.8,2.7c-0.6,0.6-1.3,1-2.3,1c-0.6,0-1.2-0.1-1.6-0.4
			c-0.5-0.3-0.8-0.7-1.1-1.3s-0.4-1.2-0.4-1.9c0-1.1,0.3-2,0.8-2.7c0.6-0.6,1.3-1,2.3-1s1.7,0.3,2.3,1S113.1,179.6,113.1,180.7z
			 M107.5,180.7c0,1,0.2,1.7,0.6,2.3c0.4,0.5,1,0.8,1.8,0.8s1.4-0.3,1.8-0.8s0.6-1.3,0.6-2.3s-0.2-1.7-0.6-2.3
			c-0.4-0.5-1-0.8-1.8-0.8s-1.4,0.3-1.8,0.8C107.7,179,107.5,179.7,107.5,180.7z"/>
		<path style="fill:#FFFFFF;" d="M123.8,184.2v-4.6c0-0.7-0.1-1.2-0.4-1.5s-0.7-0.5-1.2-0.5c-0.7,0-1.3,0.2-1.6,0.6s-0.5,1-0.5,1.9
			v4.1h-0.7v-4.8c0-1.2-0.5-1.8-1.6-1.8c-0.7,0-1.3,0.2-1.6,0.6s-0.5,1.1-0.5,2.1v3.9H115v-7h0.5l0.1,1l0,0c0.2-0.3,0.5-0.6,0.8-0.8
			c0.4-0.2,0.8-0.3,1.2-0.3c1.1,0,1.8,0.4,2.1,1.2l0,0c0.2-0.4,0.5-0.7,0.9-0.9s0.8-0.3,1.3-0.3c0.8,0,1.3,0.2,1.7,0.6
			c0.4,0.4,0.6,1.1,0.6,2v4.6h-0.4V184.2z"/>
		<path style="fill:#FFFFFF;" d="M126.6,178c0-0.4,0.2-0.6,0.5-0.6c0.4,0,0.5,0.2,0.5,0.6c0,0.2-0.1,0.4-0.2,0.5s-0.2,0.1-0.4,0.1
			c-0.1,0-0.3,0-0.4-0.1C126.6,178.4,126.6,178.2,126.6,178z M126.6,183.7c0-0.4,0.2-0.6,0.5-0.6c0.4,0,0.5,0.2,0.5,0.6
			c0,0.4-0.2,0.6-0.5,0.6C126.7,184.4,126.6,184.2,126.6,183.7z"/>
	</g>
	<g style="enable-background:new    ;">
		<path style="fill:#FFFFFF;" d="M140.7,184.2h-1.6V180h-4.4v4.3h-1.5v-9.4h1.5v3.9h4.4v-3.9h1.6V184.2z"/>
		<path style="fill:#FFFFFF;" d="M146.1,184.4c-1.1,0-2-0.3-2.6-1s-0.9-1.5-0.9-2.7s0.3-2.1,0.9-2.8c0.6-0.7,1.4-1,2.4-1
			c0.9,0,1.7,0.3,2.2,0.9s0.8,1.4,0.8,2.4v0.8h-4.8c0,0.7,0.2,1.2,0.6,1.6c0.4,0.4,0.9,0.6,1.5,0.6c0.4,0,0.8,0,1.2-0.1
			s0.8-0.2,1.2-0.4v1.2c-0.4,0.2-0.7,0.3-1.1,0.4S146.6,184.4,146.1,184.4z M145.9,178.1c-0.5,0-0.9,0.2-1.2,0.5s-0.5,0.8-0.5,1.3
			h3.2c0-0.6-0.2-1-0.4-1.3S146.3,178.1,145.9,178.1z"/>
		<path style="fill:#FFFFFF;" d="M152.2,184.2h-1.5v-10.1h1.5V184.2z"/>
		<path style="fill:#FFFFFF;" d="M157.5,184.4c-1.1,0-2-0.3-2.6-1s-0.9-1.5-0.9-2.7s0.3-2.1,0.9-2.8c0.6-0.7,1.4-1,2.4-1
			c0.9,0,1.7,0.3,2.2,0.9s0.8,1.4,0.8,2.4v0.8h-4.8c0,0.7,0.2,1.2,0.6,1.6c0.4,0.4,0.9,0.6,1.5,0.6c0.4,0,0.8,0,1.2-0.1
			s0.8-0.2,1.2-0.4v1.2c-0.4,0.2-0.7,0.3-1.1,0.4S157.9,184.4,157.5,184.4z M157.2,178.1c-0.5,0-0.9,0.2-1.2,0.5s-0.5,0.8-0.5,1.3
			h3.2c0-0.6-0.2-1-0.4-1.3S157.7,178.1,157.2,178.1z"/>
		<path style="fill:#FFFFFF;" d="M168.3,184.2h-1.5v-4.4c0-0.6-0.1-1-0.3-1.2c-0.2-0.3-0.6-0.4-1.1-0.4c-0.6,0-1.1,0.2-1.4,0.6
			c-0.3,0.4-0.4,1-0.4,1.9v3.6H162v-7.1h1.2l0.2,0.9h0.1c0.2-0.3,0.5-0.6,0.9-0.8s0.8-0.3,1.3-0.3c1.7,0,2.6,0.9,2.6,2.6V184.2z"/>
		<path style="fill:#FFFFFF;" d="M178.1,184.2l-2.7-7.9h-0.1c0.1,1.2,0.1,2.3,0.1,3.3v4.6H174v-9.4h2.2l2.6,7.5l0,0l2.7-7.5h2.2v9.4
			h-1.5v-4.7c0-0.5,0-1.1,0-1.8c0-0.8,0-1.2,0.1-1.4h-0.1l-2.8,7.9L178.1,184.2L178.1,184.2z"/>
		<path style="fill:#FFFFFF;" d="M192.4,180.7c0,1.2-0.3,2.1-0.9,2.7c-0.6,0.7-1.4,1-2.5,1c-0.7,0-1.3-0.2-1.8-0.5s-0.9-0.7-1.2-1.3
			s-0.4-1.2-0.4-2c0-1.2,0.3-2.1,0.9-2.7c0.6-0.7,1.4-1,2.5-1c1,0,1.9,0.3,2.5,1S192.4,179.5,192.4,180.7z M187.2,180.7
			c0,1.7,0.6,2.5,1.8,2.5s1.8-0.8,1.8-2.5c0-1.6-0.6-2.5-1.8-2.5c-0.6,0-1.1,0.2-1.4,0.6C187.3,179.3,187.2,179.9,187.2,180.7z"/>
		<path style="fill:#FFFFFF;" d="M195.6,184.2h-1.5v-10.1h1.5V184.2z"/>
		<path style="fill:#FFFFFF;" d="M201.5,177c0.9,0,1.6,0.3,2.1,1s0.7,1.6,0.7,2.7c0,1.2-0.3,2.1-0.8,2.7c-0.5,0.7-1.2,1-2.1,1
			c-0.9,0-1.6-0.3-2.1-1h-0.1l-0.3,0.8h-1.1v-10.1h1.5v2.4c0,0.2,0,0.4,0,0.8c0,0.3,0,0.6,0,0.7h0.1
			C199.8,177.3,200.5,177,201.5,177z M201.1,178.2c-0.6,0-1.1,0.2-1.3,0.5s-0.4,1-0.4,1.8v0.1c0,0.9,0.1,1.5,0.4,1.9
			c0.3,0.4,0.7,0.6,1.4,0.6c0.5,0,0.9-0.2,1.2-0.6c0.3-0.4,0.4-1,0.4-1.8C202.7,179,202.2,178.2,201.1,178.2z"/>
		<path style="fill:#FFFFFF;" d="M209.2,184.4c-1.1,0-2-0.3-2.6-1s-0.9-1.5-0.9-2.7s0.3-2.1,0.9-2.8c0.6-0.7,1.4-1,2.4-1
			c0.9,0,1.7,0.3,2.2,0.9s0.8,1.4,0.8,2.4v0.8h-4.8c0,0.7,0.2,1.2,0.6,1.6c0.4,0.4,0.9,0.6,1.5,0.6c0.4,0,0.8,0,1.2-0.1
			s0.8-0.2,1.2-0.4v1.2c-0.4,0.2-0.7,0.3-1.1,0.4S209.7,184.4,209.2,184.4z M208.9,178.1c-0.5,0-0.9,0.2-1.2,0.5s-0.5,0.8-0.5,1.3
			h3.2c0-0.6-0.2-1-0.4-1.3S209.4,178.1,208.9,178.1z"/>
		<path style="fill:#FFFFFF;" d="M217.3,177c0.3,0,0.6,0,0.8,0.1l-0.1,1.4c-0.2-0.1-0.4-0.1-0.7-0.1c-0.6,0-1.1,0.2-1.5,0.6
			s-0.6,0.9-0.6,1.5v3.7h-1.5v-7.1h1.2l0.2,1.3h0.1c0.2-0.4,0.5-0.8,0.9-1C216.5,177.1,216.9,177,217.3,177z"/>
		<path style="fill:#FFFFFF;" d="M222,183.1c0.4,0,0.7-0.1,1.1-0.2v1.1c-0.2,0.1-0.4,0.1-0.6,0.2s-0.5,0.1-0.8,0.1
			c-1.4,0-2.2-0.8-2.2-2.3v-3.9h-1v-0.7l1-0.6l0.5-1.5h0.9v1.6h2v1.2h-2v3.8c0,0.4,0.1,0.6,0.3,0.8
			C221.5,183.1,221.7,183.1,222,183.1z"/>
		<path style="fill:#FFFFFF;" d="M224.5,175.2c0-0.3,0.1-0.5,0.2-0.6c0.1-0.1,0.4-0.2,0.6-0.2c0.3,0,0.5,0.1,0.6,0.2
			s0.2,0.4,0.2,0.6c0,0.3-0.1,0.5-0.2,0.6s-0.4,0.2-0.6,0.2c-0.3,0-0.5-0.1-0.6-0.2C224.6,175.7,224.5,175.5,224.5,175.2z
			 M226.1,184.2h-1.5v-7.1h1.5V184.2z"/>
		<path style="fill:#FFFFFF;" d="M234.6,184.2H233v-4.4c0-0.6-0.1-1-0.3-1.2s-0.6-0.4-1.1-0.4c-0.6,0-1.1,0.2-1.4,0.6
			c-0.3,0.4-0.4,1-0.4,1.9v3.6h-1.5v-7.1h1.2l0.2,0.9h0.1c0.2-0.3,0.5-0.6,0.9-0.8s0.8-0.3,1.3-0.3c1.7,0,2.6,0.9,2.6,2.6V184.2z"/>
		<path style="fill:#FFFFFF;" d="M241.1,184.2l-0.3-1h-0.1c-0.3,0.4-0.7,0.7-1,0.9s-0.8,0.2-1.3,0.2c-0.7,0-1.3-0.2-1.6-0.6
			c-0.4-0.4-0.6-0.9-0.6-1.6c0-0.7,0.3-1.3,0.8-1.7s1.4-0.6,2.5-0.6h1.2v-0.4c0-0.5-0.1-0.8-0.3-1s-0.5-0.3-1-0.3
			c-0.4,0-0.7,0.1-1.1,0.2c-0.3,0.1-0.7,0.2-1,0.4l-0.5-1.1c0.4-0.2,0.8-0.4,1.3-0.5s0.9-0.2,1.3-0.2c0.9,0,1.6,0.2,2.1,0.6
			c0.5,0.4,0.7,1,0.7,1.9v4.8L241.1,184.2L241.1,184.2z M238.9,183.2c0.6,0,1-0.2,1.3-0.5s0.5-0.7,0.5-1.3v-0.6h-0.9
			c-0.7,0-1.2,0.1-1.6,0.4c-0.3,0.2-0.5,0.5-0.5,1c0,0.3,0.1,0.6,0.3,0.7S238.5,183.2,238.9,183.2z"/>
	</g>
	<rect x="98.3" y="80.3" style="fill:none;" width="274.5" height="107.8"/>
	<g style="enable-background:new    ;">
		<path style="fill:#FFFFFF;" d="M103.3,85.6h3.5V90c-0.9,0.4-1.9,0.6-3.1,0.6c-1.5,0-2.6-0.4-3.4-1.3s-1.2-2-1.2-3.6
			c0-1,0.2-1.8,0.6-2.6c0.4-0.7,1-1.3,1.7-1.7c0.7-0.4,1.6-0.6,2.5-0.6c1,0,2,0.2,2.8,0.6l-0.3,0.6c-0.8-0.4-1.7-0.6-2.5-0.6
			c-1.2,0-2.2,0.4-3,1.2c-0.7,0.8-1.1,1.8-1.1,3.1c0,1.4,0.3,2.5,1,3.2s1.7,1.1,3.1,1.1c0.9,0,1.6-0.1,2.2-0.4v-3.3h-2.8
			C103.3,86.3,103.3,85.6,103.3,85.6z"/>
		<path style="fill:#FFFFFF;" d="M111.8,83.2c0.3,0,0.6,0,1,0.1l-0.1,0.6c-0.3-0.1-0.6-0.1-0.9-0.1c-0.6,0-1.1,0.3-1.5,0.8
			s-0.6,1.2-0.6,1.9v3.9H109v-7h0.5l0.1,1.3l0,0c0.3-0.5,0.6-0.9,0.9-1.1S111.3,83.2,111.8,83.2z"/>
		<path style="fill:#FFFFFF;" d="M117,90.5c-1,0-1.8-0.3-2.4-0.9s-0.9-1.5-0.9-2.6s0.3-2,0.8-2.7c0.6-0.7,1.3-1,2.2-1
			c0.8,0,1.5,0.3,2,0.9s0.7,1.4,0.7,2.4V87h-5.1c0,1,0.2,1.7,0.7,2.2c0.4,0.5,1.1,0.8,1.9,0.8c0.4,0,0.8,0,1.1-0.1
			c0.3-0.1,0.7-0.2,1.2-0.4v0.6c-0.4,0.2-0.8,0.3-1.1,0.4S117.4,90.5,117,90.5z M116.8,83.8c-0.7,0-1.2,0.2-1.6,0.7
			c-0.4,0.4-0.6,1.1-0.7,1.9h4.3c0-0.8-0.2-1.5-0.5-1.9C117.9,84,117.5,83.8,116.8,83.8z"/>
		<path style="fill:#FFFFFF;" d="M125.7,90.4l-0.2-1.1h-0.1c-0.4,0.5-0.7,0.8-1.1,1s-0.8,0.3-1.3,0.3c-0.7,0-1.2-0.2-1.6-0.5
			c-0.4-0.4-0.6-0.8-0.6-1.5s0.3-1.2,0.9-1.6s1.4-0.6,2.5-0.6h1.3v-0.5c0-0.7-0.1-1.2-0.4-1.5s-0.7-0.5-1.3-0.5
			c-0.7,0-1.3,0.2-2,0.5l-0.2-0.6c0.8-0.4,1.5-0.5,2.3-0.5s1.3,0.2,1.7,0.6c0.4,0.4,0.6,1,0.6,1.9v4.7h-0.5V90.4z M123.1,90
			c0.7,0,1.3-0.2,1.8-0.6c0.4-0.4,0.6-1,0.6-1.8v-0.7l-1.2,0.1c-1,0-1.7,0.2-2.1,0.5s-0.6,0.7-0.6,1.2c0,0.4,0.1,0.8,0.4,1
			C122.3,89.8,122.6,90,123.1,90z"/>
		<path style="fill:#FFFFFF;" d="M130.3,90c0.4,0,0.8,0,1.1-0.1v0.5c-0.3,0.1-0.7,0.2-1.1,0.2c-0.6,0-1.1-0.2-1.4-0.5
			c-0.3-0.3-0.4-0.9-0.4-1.6V84h-1v-0.4l1-0.3l0.3-1.6h0.3v1.7h2.1V84h-2.1v4.4c0,0.5,0.1,0.9,0.3,1.2C129.6,89.8,129.9,90,130.3,90
			z"/>
		<path style="fill:#FFFFFF;" d="M141.9,90.4l-1.5-4.7c-0.1-0.3-0.2-0.8-0.4-1.4l0,0l-0.1,0.5l-0.3,0.9l-1.6,4.7h-0.6l-2-7h0.7
			l1.1,4.1c0.3,1,0.4,1.7,0.5,2.2l0,0c0.3-1,0.4-1.7,0.6-2l1.4-4.3h0.6l1.4,4.3c0.3,1,0.5,1.7,0.6,2l0,0c0-0.3,0.2-1,0.5-2.2l1.1-4
			h0.6l-1.9,7L141.9,90.4L141.9,90.4z"/>
		<path style="fill:#FFFFFF;" d="M151.7,86.9c0,1.1-0.3,2-0.8,2.7c-0.6,0.6-1.3,1-2.3,1c-0.6,0-1.2-0.1-1.6-0.4
			c-0.5-0.3-0.8-0.7-1.1-1.3c-0.3-0.6-0.4-1.2-0.4-1.9c0-1.1,0.3-2,0.8-2.7c0.6-0.6,1.3-1,2.3-1s1.7,0.3,2.3,1
			C151.4,84.9,151.7,85.8,151.7,86.9z M146.2,86.9c0,1,0.2,1.7,0.6,2.3c0.4,0.5,1,0.8,1.8,0.8s1.4-0.3,1.8-0.8
			c0.4-0.5,0.6-1.3,0.6-2.3s-0.2-1.7-0.6-2.3c-0.4-0.5-1-0.8-1.8-0.8s-1.4,0.3-1.8,0.8C146.4,85.2,146.2,85.9,146.2,86.9z"/>
		<path style="fill:#FFFFFF;" d="M156.4,83.2c0.3,0,0.6,0,1,0.1l-0.1,0.6c-0.3-0.1-0.6-0.1-0.9-0.1c-0.6,0-1.1,0.3-1.5,0.8
			s-0.6,1.2-0.6,1.9v3.9h-0.6v-7h0.5l0.1,1.3l0,0c0.3-0.5,0.6-0.9,0.9-1.1S156,83.2,156.4,83.2z"/>
		<path style="fill:#FFFFFF;" d="M159.4,87.3l3.6-3.9h0.8l-2.8,3l3,4h-0.8l-2.7-3.5l-1.2,1v2.5h-0.6V80.3h0.6v5L159.4,87.3
			L159.4,87.3z"/>
		<path style="fill:#FFFFFF;" d="M165.9,88.9L166,89c-0.3,1.1-0.7,2.2-1.1,3.1h-0.4c0.3-1.2,0.6-2.3,0.7-3.2H165.9z"/>
		<path style="fill:#FFFFFF;" d="M173.3,90c0.4,0,0.8,0,1.1-0.1v0.5c-0.3,0.1-0.7,0.2-1.1,0.2c-0.6,0-1.1-0.2-1.4-0.5
			c-0.3-0.3-0.4-0.9-0.4-1.6V84h-1v-0.4l1-0.3l0.3-1.6h0.3v1.7h2.1V84h-2.1v4.4c0,0.5,0.1,0.9,0.3,1.2C172.6,89.8,172.9,90,173.3,90
			z"/>
		<path style="fill:#FFFFFF;" d="M180.8,90.4v-4.6c0-0.7-0.1-1.2-0.4-1.5c-0.3-0.3-0.8-0.5-1.4-0.5c-0.8,0-1.5,0.2-1.8,0.6
			c-0.4,0.4-0.6,1.1-0.6,2.1v3.9H176V80.3h0.6v3.2v0.9l0,0c0.3-0.4,0.6-0.7,1-0.9c0.4-0.2,0.9-0.3,1.5-0.3c1.6,0,2.4,0.9,2.4,2.6
			v4.6C181.5,90.4,180.8,90.4,180.8,90.4z"/>
		<path style="fill:#FFFFFF;" d="M188,90.4l-0.2-1.1h-0.1c-0.4,0.5-0.7,0.8-1.1,1c-0.4,0.2-0.8,0.3-1.3,0.3c-0.7,0-1.2-0.2-1.6-0.5
			c-0.4-0.4-0.6-0.8-0.6-1.5s0.3-1.2,0.9-1.6c0.6-0.4,1.4-0.6,2.5-0.6h1.3v-0.5c0-0.7-0.1-1.2-0.4-1.5s-0.7-0.5-1.3-0.5
			c-0.7,0-1.3,0.2-2,0.5l-0.2-0.6c0.8-0.4,1.5-0.5,2.3-0.5s1.3,0.2,1.7,0.6s0.6,1,0.6,1.9v4.7H188V90.4z M185.4,90
			c0.8,0,1.3-0.2,1.8-0.6c0.4-0.4,0.6-1,0.6-1.8v-0.7l-1.2,0.1c-1,0-1.7,0.2-2.1,0.5s-0.6,0.7-0.6,1.2c0,0.4,0.1,0.8,0.4,1
			C184.5,89.8,184.9,90,185.4,90z"/>
		<path style="fill:#FFFFFF;" d="M195.6,90.4v-4.6c0-0.7-0.1-1.2-0.4-1.5c-0.3-0.3-0.8-0.5-1.4-0.5c-0.8,0-1.5,0.2-1.8,0.6
			c-0.4,0.4-0.6,1.1-0.6,2.1v3.9h-0.6v-7h0.5l0.1,1l0,0c0.5-0.7,1.3-1.1,2.4-1.1c1.6,0,2.4,0.9,2.4,2.6v4.6L195.6,90.4L195.6,90.4z"
			/>
		<path style="fill:#FFFFFF;" d="M199.2,87.3l3.6-3.9h0.8l-2.8,3l3,4H203l-2.7-3.5l-1.2,1v2.5h-0.6V80.3h0.6v5L199.2,87.3
			L199.2,87.3z"/>
		<path style="fill:#FFFFFF;" d="M209.3,88.6c0,0.6-0.2,1.1-0.7,1.5s-1.2,0.5-2,0.5c-0.9,0-1.7-0.1-2.2-0.4v-0.7
			c0.7,0.4,1.5,0.5,2.2,0.5s1.2-0.1,1.6-0.3c0.4-0.2,0.5-0.5,0.5-0.9s-0.1-0.7-0.4-0.9c-0.3-0.2-0.8-0.5-1.4-0.7
			c-0.7-0.3-1.2-0.5-1.5-0.7s-0.5-0.4-0.6-0.6s-0.2-0.5-0.2-0.8c0-0.5,0.2-0.9,0.7-1.2c0.4-0.3,1.1-0.5,1.9-0.5
			c0.8,0,1.5,0.1,2.2,0.4l-0.2,0.6c-0.7-0.3-1.3-0.4-1.9-0.4c-0.6,0-1,0.1-1.4,0.3s-0.5,0.5-0.5,0.8c0,0.4,0.1,0.7,0.4,0.9
			s0.8,0.5,1.5,0.7c0.6,0.2,1.1,0.4,1.4,0.6c0.3,0.2,0.5,0.4,0.6,0.6C209.2,88,209.3,88.3,209.3,88.6z"/>
		<path style="fill:#FFFFFF;" d="M211,89.9c0-0.4,0.2-0.6,0.5-0.6c0.4,0,0.5,0.2,0.5,0.6s-0.2,0.6-0.5,0.6S211,90.3,211,89.9z
			 M211.7,88h-0.4l-0.2-7h0.8L211.7,88z"/>
	</g>
	<line style="fill:none;stroke:#FFFFFF;stroke-width:1.2978;stroke-miterlimit:10;" x1="93.1" y1="159.3" x2="315" y2="159.3"/>
	<g>
		
			<line style="fill:none;stroke:#FFFFFF;stroke-width:0.9982;stroke-linecap:round;stroke-miterlimit:10;" x1="89.9" y1="59.8" x2="96.3" y2="53.4"/>
		
			<line style="fill:none;stroke:#FFFFFF;stroke-width:0.9982;stroke-linecap:round;stroke-miterlimit:10;" x1="89.9" y1="53.4" x2="96.3" y2="59.8"/>
	</g>
	
		<circle style="fill:none;stroke:#FFFFFF;stroke-width:0.9982;stroke-linecap:round;stroke-miterlimit:10;" cx="93.3" cy="56.4" r="9"/>
	<g id="del_2px_small_5_">
		
			<line style="fill:none;stroke:#FFFFFF;stroke-width:1.2978;stroke-linecap:round;stroke-miterlimit:10;" x1="302.4" y1="47.5" x2="319" y2="47.5"/>
		<path style="fill:none;stroke:#FFFFFF;stroke-width:1.2978;stroke-miterlimit:10;" d="M316.3,50.6c2.1,0,3.8,0.4,3.8,2.5
			l-1.4,11.7c-0.6,3.5-2.5,3.8-3.8,3.8v0.1h-8.3v-0.1c-1.4,0-3.1-0.4-3.8-3.8l-1.4-11.7c0-2.1,1.7-2.5,3.8-2.5v0.1L316.3,50.6"/>
		<path style="fill:none;stroke:#FFFFFF;stroke-width:1.2978;stroke-linecap:round;stroke-miterlimit:10;" d="M313.2,47
			c0-1.6-1.3-2.7-2.9-2.7s-2.9,1.2-2.9,2.7"/>
		
			<path style="opacity:0.5;fill:none;stroke:#FFFFFF;stroke-width:1.2978;stroke-linecap:round;stroke-linejoin:round;stroke-miterlimit:10;enable-background:new    ;" d="
			M316.3,50.6c2.1,0,3.8,0.4,3.8,2.5l-1.4,11.7c-0.6,3.5-2.5,3.8-3.8,3.8v0.1h-8.3v-0.1c-1.4,0-3.1-0.4-3.8-3.8l-1.4-11.7
			c0-2.1,1.7-2.5,3.8-2.5v0.1L316.3,50.6"/>
	</g>
	
		<rect x="92.4" y="73.7" style="fill:none;stroke:#FFFFFF;stroke-width:1.2978;stroke-miterlimit:10;" width="197.3" height="76.6"/>
	<g>
		
			<line style="fill:none;stroke:#FFFFFF;stroke-width:1.2978;stroke-linecap:round;stroke-linejoin:round;stroke-miterlimit:10;" x1="323.4" y1="140.9" x2="298" y2="140.9"/>
		
			<polyline style="fill:none;stroke:#FFFFFF;stroke-width:1.2978;stroke-linecap:round;stroke-linejoin:round;stroke-miterlimit:10;" points="
			314.6,150.3 323.9,141 314.6,131.8 		"/>
	</g>
</g>
</svg>
