<?xml version="1.0" encoding="utf-8"?>
<!-- Generator: Adobe Illustrator 19.2.1, SVG Export Plug-In . SVG Version: 6.00 Build 0)  -->
<svg version="1.1" id="Слой_1" xmlns="http://www.w3.org/2000/svg" xmlns:xlink="http://www.w3.org/1999/xlink" x="0px" y="0px"
	 viewBox="0 0 500 200" style="enable-background:new 0 0 500 200;" xml:space="preserve">
<g>
	<g>
		<rect y="18.8" style="fill:none;" width="500" height="19.8"/>
		<g style="enable-background:new    ;">
			<path style="fill:#828282;" d="M225.2,20.1c-1.4,0-2.5,0.4-3.3,1.3s-1.2,2.1-1.2,3.7s0.4,2.8,1.1,3.7c0.8,0.9,1.8,1.3,3.2,1.3
				c0.9,0,1.8-0.1,2.6-0.4v0.7c-0.7,0.3-1.7,0.4-2.8,0.4c-1.6,0-2.8-0.5-3.7-1.5s-1.3-2.4-1.3-4.2c0-1.1,0.2-2.1,0.6-3s1-1.5,1.9-2
				c0.8-0.5,1.7-0.7,2.8-0.7s2.1,0.2,2.9,0.6l-0.3,0.7C226.9,20.3,226.1,20.1,225.2,20.1z"/>
			<path style="fill:#828282;" d="M235.2,23h-2.8v7.6h-0.7V23h-2.8v-0.7h6.3V23z"/>
			<path style="fill:#828282;" d="M237.6,22.4v6V30l4.9-7.5h1v8.3h-0.7v-5.9v-1.6l-4.9,7.5h-1v-8.3h0.7V22.4z"/>
			<path style="fill:#828282;" d="M250.7,22.4h0.9l-3.7,4l4,4.3h-1l-3.9-4.2v4.2h-0.8v-8.3h0.8v4L250.7,22.4z"/>
			<path style="fill:#828282;" d="M256.7,30.8c-1.2,0-2.1-0.4-2.8-1.1s-1-1.8-1-3.1c0-1.3,0.3-2.4,1-3.2s1.5-1.2,2.6-1.2
				c1,0,1.7,0.3,2.3,1c0.6,0.7,0.8,1.6,0.8,2.8v0.6h-6c0,1.1,0.3,2,0.8,2.6s1.3,0.9,2.2,0.9c0.5,0,0.9,0,1.2-0.1
				c0.4-0.1,0.8-0.2,1.4-0.4v0.7c-0.5,0.2-0.9,0.3-1.3,0.4S257.2,30.8,256.7,30.8z M256.5,22.9c-0.8,0-1.4,0.3-1.9,0.8
				s-0.8,1.3-0.8,2.3h5.1c0-1-0.2-1.7-0.6-2.3C257.8,23.2,257.3,22.9,256.5,22.9z"/>
			<path style="fill:#828282;" d="M265.5,30.8c-1.3,0-2.2-0.5-2.8-1.4h-0.1V30c0,0.4,0,0.8,0,1.2v3.2H262v-12h0.6l0.1,1.2l0,0
				c0.6-0.9,1.5-1.3,2.7-1.3c1.1,0,2,0.4,2.6,1.1s0.9,1.8,0.9,3.2c0,1.4-0.3,2.4-0.9,3.2C267.4,30.4,266.6,30.8,265.5,30.8z
				 M265.5,30.1c0.8,0,1.5-0.3,2-0.9s0.7-1.5,0.7-2.6c0-2.4-0.9-3.6-2.6-3.6c-1,0-1.7,0.3-2.1,0.8c-0.5,0.5-0.7,1.4-0.7,2.6v0.2
				c0,1.3,0.2,2.2,0.7,2.8C263.8,29.9,264.5,30.1,265.5,30.1z"/>
			<path style="fill:#828282;" d="M272,25.9h2.6c1.9,0,2.9,0.8,2.9,2.3c0,0.8-0.3,1.4-0.8,1.8s-1.3,0.7-2.3,0.7h-3.2v-8.3h0.8V25.9z
				 M272,26.6V30h2.5c0.7,0,1.3-0.2,1.7-0.4c0.4-0.3,0.6-0.7,0.6-1.3c0-0.5-0.2-0.9-0.5-1.2c-0.3-0.2-0.9-0.4-1.8-0.4H272V26.6z
				 M279.8,30.7H279v-8.3h0.7L279.8,30.7L279.8,30.7z"/>
		</g>
	</g>
</g>
<g>
	<g>
		<rect x="29" y="75.7" style="fill:none;" width="232.5" height="21.5"/>
		<g style="enable-background:new    ;">
			<path style="fill:#828282;" d="M33.5,83.9l-2.9-7.1l0,0c0,0.4,0,0.9,0,1.3v5.8h-0.5v-7.7h0.8l2.7,6.8l0,0l2.7-6.8h0.8v7.7h-0.5
				V78c0-0.4,0-0.8,0.1-1.3l0,0l-2.9,7.1h-0.3C33.5,83.8,33.5,83.9,33.5,83.9z"/>
			<path style="fill:#828282;" d="M42.8,83.9L42.7,83l0,0c-0.3,0.4-0.6,0.6-0.9,0.8C41.5,84,41.1,84,40.7,84c-0.6,0-1-0.1-1.3-0.4
				s-0.5-0.7-0.5-1.2c0-0.6,0.2-1,0.7-1.3s1.1-0.5,2-0.5h1.1v-0.4c0-0.5-0.1-1-0.3-1.2c-0.2-0.3-0.6-0.4-1.1-0.4s-1.1,0.1-1.7,0.4
				l-0.2-0.5c0.6-0.3,1.3-0.4,1.9-0.4c0.6,0,1.1,0.2,1.4,0.5c0.3,0.3,0.5,0.8,0.5,1.5v3.8H42.8z M40.7,83.5c0.6,0,1.1-0.2,1.5-0.5
				s0.5-0.8,0.5-1.5v-0.6h-1c-0.8,0-1.4,0.2-1.7,0.4c-0.3,0.2-0.5,0.5-0.5,1c0,0.4,0.1,0.6,0.3,0.8C40,83.4,40.3,83.5,40.7,83.5z"/>
			<path style="fill:#828282;" d="M46.5,80.9l-2-2.8h0.6l1.7,2.4l1.7-2.4h0.6l-2,2.8l2.1,3h-0.6l-1.8-2.6L45,83.9h-0.6L46.5,80.9z"
				/>
			<path style="fill:#828282;" d="M56.4,78.1H57l-2.6,2.8l2.8,3h-0.7L53.8,81v2.9h-0.5v-5.8h0.5v2.8L56.4,78.1z"/>
			<path style="fill:#828282;" d="M63,81c0,0.9-0.2,1.7-0.7,2.2S61.2,84,60.4,84c-0.5,0-0.9-0.1-1.3-0.4c-0.4-0.2-0.7-0.6-0.9-1
				s-0.3-1-0.3-1.6c0-0.9,0.2-1.7,0.7-2.2s1.1-0.8,1.9-0.8c0.8,0,1.4,0.3,1.9,0.8C62.8,79.3,63,80.1,63,81z M58.5,81
				c0,0.8,0.2,1.4,0.5,1.8s0.8,0.7,1.5,0.7c0.6,0,1.1-0.2,1.5-0.7c0.3-0.4,0.5-1.1,0.5-1.8c0-0.8-0.2-1.4-0.5-1.8
				c-0.4-0.4-0.8-0.7-1.5-0.7c-0.6,0-1.1,0.2-1.5,0.7C58.6,79.6,58.5,80.2,58.5,81z"/>
			<path style="fill:#828282;" d="M68.6,83.9h-0.5v-5.3h-2c-0.1,1.4-0.2,2.5-0.4,3.2c-0.2,0.7-0.4,1.3-0.6,1.6
				c-0.2,0.3-0.6,0.5-0.9,0.5c-0.1,0-0.3,0-0.4,0v-0.5c0.1,0,0.2,0,0.3,0c0.4,0,0.7-0.4,1-1.3c0.2-0.8,0.4-2.2,0.6-4.1h3L68.6,83.9
				L68.6,83.9z"/>
			<path style="fill:#828282;" d="M71,78.1v4.2v1.1l3.4-5.2h0.7V84h-0.5v-4.1v-1.1L71.2,84h-0.7v-5.8L71,78.1L71,78.1z"/>
			<path style="fill:#828282;" d="M77.4,78.1V80c0,0.5,0.1,0.8,0.4,1.1c0.2,0.2,0.6,0.3,1.1,0.3c0.3,0,0.7-0.1,1-0.2s0.6-0.3,1-0.6
				v-2.5h0.5v5.8h-0.5v-2.7c-0.4,0.3-0.7,0.5-1,0.6S79.2,82,78.8,82c-0.6,0-1-0.2-1.3-0.5S77,80.8,77,80.2v-2L77.4,78.1L77.4,78.1z"
				/>
			<path style="fill:#828282;" d="M85.6,84c-0.8,0-1.5-0.3-2-0.8C83.2,82.7,83,82,83,81c0-0.9,0.2-1.7,0.7-2.2
				c0.5-0.6,1.1-0.8,1.8-0.8c0.7,0,1.2,0.2,1.6,0.7s0.6,1.1,0.6,1.9V81h-4.1c0,0.8,0.2,1.4,0.6,1.8s0.9,0.6,1.6,0.6
				c0.3,0,0.6,0,0.9-0.1c0.2,0,0.6-0.1,0.9-0.3v0.5c-0.3,0.1-0.6,0.2-0.9,0.3C86.2,84,85.9,84,85.6,84z M85.5,78.5
				c-0.6,0-1,0.2-1.3,0.5c-0.3,0.4-0.5,0.9-0.6,1.6h3.6c0-0.7-0.1-1.2-0.4-1.6C86.4,78.7,86,78.5,85.5,78.5z"/>
			<path style="fill:#828282;" d="M91.5,84c-0.8,0-1.5-0.3-1.9-0.8S88.9,82,88.9,81s0.2-1.7,0.7-2.2s1.1-0.8,2-0.8
				c0.5,0,1,0.1,1.4,0.3l-0.1,0.5c-0.5-0.2-0.9-0.2-1.3-0.2c-0.7,0-1.2,0.2-1.6,0.7c-0.4,0.4-0.5,1.1-0.5,1.9s0.2,1.4,0.5,1.8
				c0.4,0.4,0.9,0.7,1.5,0.7c0.5,0,1-0.1,1.5-0.3v0.5C92.6,83.9,92.1,84,91.5,84z"/>
			<path style="fill:#828282;" d="M98,78.6h-1.9v5.3h-0.5v-5.3h-2v-0.5H98V78.6z"/>
			<path style="fill:#828282;" d="M103.6,79.5c0,0.4-0.1,0.6-0.3,0.9c-0.2,0.2-0.5,0.4-0.9,0.4l0,0c0.5,0.1,0.8,0.2,1,0.4
				c0.2,0.2,0.3,0.5,0.3,0.9c0,0.6-0.2,1-0.5,1.3c-0.4,0.3-0.9,0.4-1.6,0.4h-2.4V78h2.4c0.7,0,1.1,0.1,1.5,0.4
				C103.5,78.7,103.6,79.1,103.6,79.5z M103.1,79.5c0-0.3-0.1-0.6-0.4-0.7c-0.2-0.1-0.6-0.2-1.1-0.2h-1.9v2h1.8
				c0.5,0,0.9-0.1,1.2-0.2C103,80.2,103.1,79.9,103.1,79.5z M103.2,82.1c0-0.7-0.5-1.1-1.6-1.1h-1.9v2.3h1.9
				C102.7,83.4,103.2,83,103.2,82.1z"/>
			<path style="fill:#828282;" d="M110.1,81c0,0.9-0.2,1.7-0.7,2.2s-1.1,0.8-1.9,0.8c-0.5,0-0.9-0.1-1.3-0.4c-0.4-0.2-0.7-0.6-0.9-1
				s-0.3-1-0.3-1.6c0-0.9,0.2-1.7,0.7-2.2s1.1-0.8,1.9-0.8s1.4,0.3,1.9,0.8C109.9,79.3,110.1,80.1,110.1,81z M105.6,81
				c0,0.8,0.2,1.4,0.5,1.8s0.8,0.7,1.5,0.7c0.6,0,1.1-0.2,1.5-0.7c0.3-0.4,0.5-1.1,0.5-1.8c0-0.8-0.2-1.4-0.5-1.8
				c-0.4-0.4-0.8-0.7-1.5-0.7c-0.6,0-1.1,0.2-1.5,0.7C105.7,79.6,105.6,80.2,105.6,81z"/>
			<path style="fill:#828282;" d="M119.2,85.8h-0.5v-2h-4.4v2h-0.5v-2.5h0.4c0.5-0.7,0.9-1.5,1.1-2.3c0.3-0.9,0.4-1.9,0.4-2.9h2.8
				v5.3h0.8v2.4H119.2z M117.9,83.4v-4.8h-1.8c-0.1,1.9-0.5,3.5-1.4,4.8H117.9z"/>
			<path style="fill:#828282;" d="M124.4,83.9h-0.5v-5.3h-2c-0.1,1.4-0.2,2.5-0.4,3.2c-0.2,0.7-0.4,1.3-0.6,1.6
				c-0.2,0.3-0.6,0.5-0.9,0.5c-0.1,0-0.3,0-0.4,0v-0.5c0.1,0,0.2,0,0.3,0c0.4,0,0.7-0.4,1-1.3c0.2-0.8,0.4-2.2,0.6-4.1h3L124.4,83.9
				L124.4,83.9z"/>
			<path style="fill:#828282;" d="M126.2,83.9h-0.7l1.7-2.5c-0.5-0.1-0.9-0.3-1.1-0.6c-0.2-0.3-0.4-0.6-0.4-1c0-0.5,0.2-0.9,0.5-1.2
				c0.4-0.3,0.8-0.5,1.4-0.5h2.4v5.8h-0.5v-2.4h-1.8L126.2,83.9z M126.4,79.8c0,0.4,0.1,0.7,0.4,0.9c0.3,0.2,0.6,0.3,1.2,0.3h1.7
				v-2.3h-1.9c-0.4,0-0.8,0.1-1,0.3S126.4,79.4,126.4,79.8z"/>
			<path style="fill:#828282;" d="M139.6,81c0,0.9-0.2,1.7-0.7,2.2S137.8,84,137,84c-0.5,0-0.9-0.1-1.3-0.4c-0.4-0.2-0.7-0.6-0.9-1
				s-0.3-1-0.3-1.6c0-0.9,0.2-1.7,0.7-2.2s1.1-0.8,1.9-0.8c0.8,0,1.4,0.3,1.9,0.8C139.4,79.3,139.6,80.1,139.6,81z M135.1,81
				c0,0.8,0.2,1.4,0.5,1.8s0.8,0.7,1.5,0.7c0.6,0,1.1-0.2,1.5-0.7c0.3-0.4,0.5-1.1,0.5-1.8c0-0.8-0.2-1.4-0.5-1.8
				c-0.4-0.4-0.8-0.7-1.5-0.7c-0.6,0-1.1,0.2-1.5,0.7C135.3,79.6,135.1,80.2,135.1,81z"/>
			<path style="fill:#828282;" d="M145.9,85.8h-0.5v-2H141v2h-0.5v-2.5h0.4c0.5-0.7,0.9-1.5,1.1-2.3c0.3-0.9,0.4-1.9,0.4-2.9h2.8
				v5.3h0.8v2.4H145.9z M144.6,83.4v-4.8h-1.8c-0.1,1.9-0.5,3.5-1.4,4.8H144.6z"/>
			<path style="fill:#828282;" d="M147.7,78.1v2.5h3.7v-2.5h0.5v5.8h-0.5v-2.8h-3.7v2.8h-0.5v-5.8H147.7z"/>
			<path style="fill:#828282;" d="M158.5,81c0,0.9-0.2,1.7-0.7,2.2s-1,0.8-1.8,0.8c-0.5,0-0.9-0.1-1.3-0.4c-0.4-0.2-0.7-0.6-0.9-1
				s-0.3-1-0.3-1.6c0-0.9,0.2-1.7,0.7-2.2s1.1-0.8,1.9-0.8c0.8,0,1.4,0.3,1.9,0.8C158.3,79.3,158.5,80.1,158.5,81z M154,81
				c0,0.8,0.2,1.4,0.5,1.8s0.8,0.7,1.5,0.7c0.6,0,1.1-0.2,1.5-0.7c0.3-0.4,0.5-1.1,0.5-1.8c0-0.8-0.2-1.4-0.5-1.8
				c-0.4-0.4-0.8-0.7-1.5-0.7c-0.6,0-1.1,0.2-1.5,0.7C154.2,79.6,154,80.2,154,81z"/>
			<path style="fill:#828282;" d="M163.5,78.6h-2.9v5.3h-0.5v-5.8h3.4V78.6z"/>
			<path style="fill:#828282;" d="M169.4,81c0,0.9-0.2,1.7-0.7,2.2s-1.1,0.8-1.9,0.8c-0.5,0-0.9-0.1-1.3-0.4c-0.4-0.2-0.7-0.6-0.9-1
				s-0.3-1-0.3-1.6c0-0.9,0.2-1.7,0.7-2.2s1.1-0.8,1.9-0.8c0.8,0,1.4,0.3,1.9,0.8C169.2,79.3,169.4,80.1,169.4,81z M164.9,81
				c0,0.8,0.2,1.4,0.5,1.8s0.8,0.7,1.5,0.7c0.6,0,1.1-0.2,1.5-0.7c0.3-0.4,0.5-1.1,0.5-1.8c0-0.8-0.2-1.4-0.5-1.8
				c-0.4-0.4-0.8-0.7-1.5-0.7c-0.6,0-1.1,0.2-1.5,0.7C165.1,79.6,164.9,80.2,164.9,81z"/>
			<path style="fill:#828282;" d="M174.4,83.9h-0.5v-5.8h4.6v5.8H178v-5.3h-3.5v5.3H174.4z"/>
			<path style="fill:#828282;" d="M185.1,81c0,0.9-0.2,1.7-0.7,2.2s-1.1,0.8-1.9,0.8c-0.5,0-0.9-0.1-1.3-0.4c-0.4-0.2-0.7-0.6-0.9-1
				s-0.3-1-0.3-1.6c0-0.9,0.2-1.7,0.7-2.2s1.1-0.8,1.9-0.8c0.8,0,1.4,0.3,1.9,0.8C184.9,79.3,185.1,80.1,185.1,81z M180.6,81
				c0,0.8,0.2,1.4,0.5,1.8s0.8,0.7,1.5,0.7c0.6,0,1.1-0.2,1.5-0.7c0.3-0.4,0.5-1.1,0.5-1.8c0-0.8-0.2-1.4-0.5-1.8
				c-0.4-0.4-0.8-0.7-1.5-0.7c-0.6,0-1.1,0.2-1.5,0.7C180.7,79.6,180.6,80.2,180.6,81z"/>
			<path style="fill:#828282;" d="M190.7,83.9h-0.5v-5.3h-2c-0.1,1.4-0.2,2.5-0.4,3.2s-0.4,1.3-0.6,1.6c-0.2,0.3-0.6,0.5-0.9,0.5
				c-0.1,0-0.3,0-0.4,0v-0.5c0.1,0,0.2,0,0.3,0c0.4,0,0.7-0.4,1-1.3c0.2-0.8,0.4-2.2,0.6-4.1h3v5.9
				C190.8,83.9,190.7,83.9,190.7,83.9z"/>
			<path style="fill:#828282;" d="M193.1,80.5h2c1.4,0,2,0.5,2,1.6c0,0.5-0.2,1-0.6,1.3s-0.9,0.5-1.6,0.5h-2.4v-5.8h0.5v2.4H193.1z
				 M193.1,81v2.3h1.9c0.5,0,0.9-0.1,1.2-0.3c0.3-0.2,0.4-0.5,0.4-0.9s-0.1-0.7-0.4-0.8c-0.2-0.2-0.6-0.3-1.2-0.3
				C195,81,193.1,81,193.1,81z"/>
			<path style="fill:#828282;" d="M199.9,80.6c1,0,1.6-0.4,1.6-1.1c0-0.3-0.1-0.6-0.4-0.8c-0.2-0.2-0.6-0.3-1-0.3
				c-0.3,0-0.5,0-0.8,0.1c-0.2,0.1-0.5,0.2-0.8,0.3l-0.2-0.4c0.6-0.3,1.2-0.4,1.8-0.4s1.1,0.1,1.4,0.4c0.3,0.3,0.5,0.6,0.5,1.1
				c0,0.7-0.3,1.1-1,1.3l0,0c0.4,0.1,0.7,0.3,0.9,0.5s0.3,0.6,0.3,0.9c0,0.5-0.2,1-0.6,1.3c-0.4,0.3-0.9,0.5-1.6,0.5
				c-0.4,0-0.7,0-1-0.1s-0.6-0.2-0.8-0.3v-0.5c0.4,0.2,0.7,0.3,0.9,0.4c0.3,0.1,0.5,0.1,0.8,0.1c0.5,0,0.9-0.1,1.2-0.3
				c0.3-0.2,0.4-0.5,0.4-0.9s-0.1-0.7-0.4-0.9c-0.3-0.2-0.7-0.3-1.3-0.3H199v-0.5L199.9,80.6L199.9,80.6z"/>
			<path style="fill:#828282;" d="M208.4,81c0,0.9-0.2,1.7-0.7,2.2s-1.1,0.8-1.9,0.8c-0.5,0-0.9-0.1-1.3-0.4c-0.4-0.2-0.7-0.6-0.9-1
				s-0.3-1-0.3-1.6c0-0.9,0.2-1.7,0.7-2.2s1.1-0.8,1.9-0.8c0.8,0,1.4,0.3,1.9,0.8C208.2,79.3,208.4,80.1,208.4,81z M203.9,81
				c0,0.8,0.2,1.4,0.5,1.8s0.8,0.7,1.5,0.7c0.6,0,1.1-0.2,1.5-0.7c0.3-0.4,0.5-1.1,0.5-1.8c0-0.8-0.2-1.4-0.5-1.8
				c-0.4-0.4-0.8-0.7-1.5-0.7c-0.6,0-1.1,0.2-1.5,0.7C204.1,79.6,203.9,80.2,203.9,81z"/>
			<path style="fill:#828282;" d="M214.4,79.5c0,0.4-0.1,0.6-0.3,0.9c-0.2,0.2-0.5,0.4-0.9,0.4l0,0c0.5,0.1,0.8,0.2,1,0.4
				c0.2,0.2,0.3,0.5,0.3,0.9c0,0.6-0.2,1-0.5,1.3c-0.4,0.3-0.9,0.4-1.6,0.4H210V78h2.4c0.7,0,1.1,0.1,1.5,0.4
				C214.3,78.7,214.4,79.1,214.4,79.5z M213.9,79.5c0-0.3-0.1-0.6-0.4-0.7c-0.2-0.1-0.6-0.2-1.1-0.2h-1.9v2h1.8
				c0.5,0,0.9-0.1,1.2-0.2C213.8,80.2,213.9,79.9,213.9,79.5z M214,82.1c0-0.7-0.5-1.1-1.6-1.1h-1.9v2.3h1.9
				C213.5,83.4,214,83,214,82.1z"/>
			<path style="fill:#828282;" d="M219.7,83.9l-0.1-0.9l0,0c-0.3,0.4-0.6,0.6-0.9,0.8c-0.3,0.2-0.7,0.2-1.1,0.2
				c-0.6,0-1-0.1-1.3-0.4s-0.5-0.7-0.5-1.2c0-0.6,0.2-1,0.7-1.3s1.1-0.5,2-0.5h1.1v-0.4c0-0.5-0.1-1-0.3-1.2
				c-0.2-0.3-0.6-0.4-1.1-0.4s-1.1,0.1-1.7,0.4l-0.2-0.5c0.6-0.3,1.3-0.4,1.9-0.4c0.6,0,1.1,0.2,1.4,0.5c0.3,0.3,0.5,0.8,0.5,1.5
				v3.8H219.7z M217.5,83.5c0.6,0,1.1-0.2,1.5-0.5s0.5-0.8,0.5-1.5v-0.6h-1c-0.8,0-1.4,0.2-1.7,0.4c-0.3,0.2-0.5,0.5-0.5,1
				c0,0.4,0.1,0.6,0.3,0.8C216.8,83.4,217.1,83.5,217.5,83.5z"/>
			<path style="fill:#828282;" d="M225.6,78.6h-1.9v5.3h-0.5v-5.3h-2v-0.5h4.4V78.6z"/>
			<path style="fill:#828282;" d="M229.1,84c-0.8,0-1.5-0.3-2-0.8s-0.7-1.2-0.7-2.2c0-0.9,0.2-1.7,0.7-2.2c0.5-0.6,1.1-0.8,1.8-0.8
				s1.2,0.2,1.6,0.7s0.6,1.1,0.6,1.9V81H227c0,0.8,0.2,1.4,0.6,1.8c0.4,0.4,0.9,0.6,1.6,0.6c0.3,0,0.6,0,0.9-0.1
				c0.2,0,0.6-0.1,0.9-0.3v0.5c-0.3,0.1-0.6,0.2-0.9,0.3C229.7,84,229.4,84,229.1,84z M228.9,78.5c-0.6,0-1,0.2-1.3,0.5
				c-0.3,0.4-0.5,0.9-0.6,1.6h3.6c0-0.7-0.1-1.2-0.4-1.6C229.8,78.7,229.4,78.5,228.9,78.5z"/>
			<path style="fill:#828282;" d="M236.7,83.9h-0.5v-5.3h-2c-0.1,1.4-0.2,2.5-0.4,3.2s-0.4,1.3-0.6,1.6c-0.2,0.3-0.6,0.5-0.9,0.5
				c-0.1,0-0.3,0-0.4,0v-0.5c0.1,0,0.2,0,0.3,0c0.4,0,0.7-0.4,1-1.3c0.2-0.8,0.4-2.2,0.6-4.1h3v5.9
				C236.8,83.9,236.7,83.9,236.7,83.9z"/>
			<path style="fill:#828282;" d="M238.5,83.9h-0.7l1.7-2.5c-0.5-0.1-0.9-0.3-1.1-0.6c-0.2-0.3-0.4-0.6-0.4-1c0-0.5,0.2-0.9,0.5-1.2
				c0.4-0.3,0.8-0.5,1.4-0.5h2.4v5.8h-0.5v-2.4H240L238.5,83.9z M238.6,79.8c0,0.4,0.1,0.7,0.4,0.9c0.3,0.2,0.6,0.3,1.2,0.3h1.7
				v-2.3H240c-0.4,0-0.8,0.1-1,0.3S238.6,79.4,238.6,79.8z"/>
		</g>
	</g>
</g>
<g>
	<g>
		<rect x="231" y="59.6" style="fill:none;" width="43.5" height="19.8"/>
		<g style="enable-background:new    ;">
			<path style="fill:#BFBFBF;" d="M253.4,71.5h-0.7v-8.1c0-0.7,0-1.5,0.1-2.3c-0.1,0.1-0.2,0.1-0.2,0.2c-0.1,0.1-0.9,0.7-2.4,1.9
				l-0.4-0.5l3-2.3h0.7v11.1C253.5,71.5,253.4,71.5,253.4,71.5z"/>
		</g>
		<rect x="420.5" y="59.6" style="fill:none;" width="73.1" height="19.8"/>
		<g style="enable-background:new    ;">
			<path style="fill:#BFBFBF;" d="M453.3,71.5h-0.7v-8.1c0-0.7,0-1.5,0.1-2.3c-0.1,0.1-0.2,0.1-0.2,0.2s-0.9,0.7-2.4,1.9l-0.4-0.5
				l3-2.3h0.7v11.1C453.4,71.5,453.3,71.5,453.3,71.5z"/>
			<path style="fill:#BFBFBF;" d="M465,65.9c0,2-0.3,3.4-0.9,4.3s-1.5,1.4-2.7,1.4s-2-0.5-2.7-1.5c-0.6-1-0.9-2.4-0.9-4.3
				s0.3-3.4,0.9-4.3c0.6-0.9,1.5-1.4,2.7-1.4s2.1,0.5,2.7,1.5C464.7,62.6,465,64,465,65.9z M458.7,65.9c0,1.7,0.2,3,0.7,3.8
				s1.1,1.2,2.1,1.2s1.7-0.4,2.1-1.3s0.7-2.1,0.7-3.8c0-1.6-0.2-2.9-0.7-3.7c-0.4-0.9-1.1-1.3-2.1-1.3s-1.7,0.4-2.1,1.3
				C458.9,63,458.7,64.3,458.7,65.9z"/>
		</g>
		<line style="fill:none;stroke:#BFBFBF;stroke-miterlimit:10;" x1="254" y1="91.5" x2="457" y2="91.5"/>
		<circle style="fill:#828282;" cx="319" cy="92" r="6.6"/>
		<line style="fill:none;stroke:#828282;stroke-miterlimit:10;" x1="254" y1="91.5" x2="323" y2="91.5"/>
	</g>
</g>
<g>
	<g>
		<rect x="29" y="146.1" style="fill:none;" width="232.5" height="21.5"/>
		<g style="enable-background:new    ;">
			<path style="fill:#828282;" d="M33.5,154.3l-2.9-7.1l0,0c0,0.4,0,0.9,0,1.3v5.8h-0.5v-7.7h0.8l2.7,6.8l0,0l2.7-6.8h0.8v7.7h-0.5
				v-5.9c0-0.4,0-0.8,0.1-1.3l0,0l-2.9,7.1L33.5,154.3L33.5,154.3z"/>
			<path style="fill:#828282;" d="M42.8,154.3l-0.1-0.9l0,0c-0.3,0.4-0.6,0.6-0.9,0.8s-0.7,0.2-1.1,0.2c-0.6,0-1-0.1-1.3-0.4
				c-0.3-0.3-0.5-0.7-0.5-1.2c0-0.6,0.2-1,0.7-1.3s1.1-0.5,2-0.5h1.1v-0.4c0-0.5-0.1-1-0.3-1.2c-0.2-0.3-0.6-0.4-1.1-0.4
				s-1.1,0.1-1.7,0.4l-0.2-0.5c0.6-0.3,1.3-0.4,1.9-0.4c0.6,0,1.1,0.2,1.4,0.5c0.3,0.3,0.5,0.8,0.5,1.5v3.8L42.8,154.3L42.8,154.3z
				 M40.7,153.9c0.6,0,1.1-0.2,1.5-0.5c0.4-0.4,0.5-0.8,0.5-1.5v-0.6h-1c-0.8,0-1.4,0.2-1.7,0.4s-0.5,0.5-0.5,1
				c0,0.4,0.1,0.6,0.3,0.8C40,153.8,40.3,153.9,40.7,153.9z"/>
			<path style="fill:#828282;" d="M46.5,151.4l-2-2.8h0.6l1.7,2.4l1.7-2.4h0.6l-2,2.8l2.1,3h-0.6l-1.8-2.6l-1.8,2.6h-0.6L46.5,151.4
				z"/>
			<path style="fill:#828282;" d="M56.4,148.6H57l-2.6,2.8l2.8,3h-0.7l-2.7-2.9v2.9h-0.5v-5.8h0.5v2.8L56.4,148.6z"/>
			<path style="fill:#828282;" d="M63,151.4c0,0.9-0.2,1.7-0.7,2.2s-1.1,0.8-1.9,0.8c-0.5,0-0.9-0.1-1.3-0.4c-0.4-0.2-0.7-0.6-0.9-1
				s-0.3-1-0.3-1.6c0-0.9,0.2-1.7,0.7-2.2s1.1-0.8,1.9-0.8c0.8,0,1.4,0.3,1.9,0.8C62.8,149.8,63,150.5,63,151.4z M58.5,151.4
				c0,0.8,0.2,1.4,0.5,1.8c0.3,0.4,0.8,0.7,1.5,0.7c0.6,0,1.1-0.2,1.5-0.7c0.3-0.4,0.5-1.1,0.5-1.8c0-0.8-0.2-1.4-0.5-1.8
				c-0.4-0.4-0.8-0.7-1.5-0.7c-0.6,0-1.1,0.2-1.5,0.7C58.6,150,58.5,150.6,58.5,151.4z"/>
			<path style="fill:#828282;" d="M68.6,154.3h-0.5V149h-2c-0.1,1.4-0.2,2.5-0.4,3.2c-0.2,0.7-0.4,1.3-0.6,1.6s-0.6,0.5-0.9,0.5
				c-0.1,0-0.3,0-0.4,0v-0.5c0.1,0,0.2,0,0.3,0c0.4,0,0.7-0.4,1-1.3c0.2-0.8,0.4-2.2,0.6-4.1h3L68.6,154.3L68.6,154.3z"/>
			<path style="fill:#828282;" d="M71,148.6v4.2v1.1l3.4-5.2h0.7v5.8h-0.5v-4.1v-1.1l-3.4,5.2h-0.7v-5.8L71,148.6L71,148.6z"/>
			<path style="fill:#828282;" d="M77.4,148.6v1.9c0,0.5,0.1,0.8,0.4,1.1c0.2,0.2,0.6,0.3,1.1,0.3c0.3,0,0.7-0.1,1-0.2
				c0.3-0.1,0.6-0.3,1-0.6v-2.5h0.5v5.8h-0.5v-2.7c-0.4,0.3-0.7,0.5-1,0.6s-0.7,0.2-1.1,0.2c-0.6,0-1-0.2-1.3-0.5s-0.5-0.7-0.5-1.3
				v-2h0.4V148.6z"/>
			<path style="fill:#828282;" d="M85.6,154.4c-0.8,0-1.5-0.3-2-0.8s-0.7-1.2-0.7-2.2c0-0.9,0.2-1.7,0.7-2.2
				c0.5-0.6,1.1-0.8,1.8-0.8c0.7,0,1.2,0.2,1.6,0.7s0.6,1.1,0.6,1.9v0.4h-4.1c0,0.8,0.2,1.4,0.6,1.8c0.4,0.4,0.9,0.6,1.6,0.6
				c0.3,0,0.6,0,0.9-0.1c0.2,0,0.6-0.1,0.9-0.3v0.5c-0.3,0.1-0.6,0.2-0.9,0.3C86.2,154.4,85.9,154.4,85.6,154.4z M85.5,148.9
				c-0.6,0-1,0.2-1.3,0.5c-0.3,0.4-0.5,0.9-0.6,1.6h3.6c0-0.7-0.1-1.2-0.4-1.6C86.4,149.1,86,148.9,85.5,148.9z"/>
			<path style="fill:#828282;" d="M91.5,154.4c-0.8,0-1.5-0.3-1.9-0.8s-0.7-1.2-0.7-2.2s0.2-1.7,0.7-2.2s1.1-0.8,2-0.8
				c0.5,0,1,0.1,1.4,0.3l-0.1,0.5c-0.5-0.2-0.9-0.2-1.3-0.2c-0.7,0-1.2,0.2-1.6,0.7s-0.5,1.1-0.5,1.9c0,0.8,0.2,1.4,0.5,1.8
				s0.9,0.7,1.5,0.7c0.5,0,1-0.1,1.5-0.3v0.5C92.6,154.3,92.1,154.4,91.5,154.4z"/>
			<path style="fill:#828282;" d="M98,149h-1.9v5.3h-0.5V149h-2v-0.5H98V149z"/>
			<path style="fill:#828282;" d="M103.6,149.9c0,0.4-0.1,0.6-0.3,0.9c-0.2,0.2-0.5,0.3-0.9,0.4l0,0c0.5,0.1,0.8,0.2,1,0.4
				s0.3,0.5,0.3,0.9c0,0.6-0.2,1-0.5,1.3s-0.9,0.4-1.6,0.4h-2.4v-5.8h2.4c0.7,0,1.1,0.1,1.5,0.4
				C103.5,149.2,103.6,149.5,103.6,149.9z M103.1,150c0-0.3-0.1-0.6-0.4-0.7c-0.2-0.1-0.6-0.2-1.1-0.2h-1.9v2h1.8
				c0.5,0,0.9-0.1,1.2-0.2C103,150.6,103.1,150.3,103.1,150z M103.2,152.6c0-0.7-0.5-1.1-1.6-1.1h-1.9v2.3h1.9
				C102.7,153.8,103.2,153.4,103.2,152.6z"/>
			<path style="fill:#828282;" d="M110.1,151.4c0,0.9-0.2,1.7-0.7,2.2s-1.1,0.8-1.9,0.8c-0.5,0-0.9-0.1-1.3-0.4
				c-0.4-0.2-0.7-0.6-0.9-1s-0.3-1-0.3-1.6c0-0.9,0.2-1.7,0.7-2.2s1.1-0.8,1.9-0.8s1.4,0.3,1.9,0.8
				C109.9,149.8,110.1,150.5,110.1,151.4z M105.6,151.4c0,0.8,0.2,1.4,0.5,1.8c0.3,0.4,0.8,0.7,1.5,0.7c0.6,0,1.1-0.2,1.5-0.7
				c0.3-0.4,0.5-1.1,0.5-1.8c0-0.8-0.2-1.4-0.5-1.8c-0.4-0.4-0.8-0.7-1.5-0.7c-0.6,0-1.1,0.2-1.5,0.7
				C105.7,150,105.6,150.6,105.6,151.4z"/>
			<path style="fill:#828282;" d="M115,148.6v2.5h3.7v-2.5h0.5v5.8h-0.5v-2.8H115v2.8h-0.5v-5.8H115z"/>
			<path style="fill:#828282;" d="M124.6,154.3l-0.1-0.9l0,0c-0.3,0.4-0.6,0.6-0.9,0.8s-0.7,0.2-1.1,0.2c-0.6,0-1-0.1-1.3-0.4
				c-0.3-0.3-0.5-0.7-0.5-1.2c0-0.6,0.2-1,0.7-1.3s1.1-0.5,2-0.5h1.1v-0.4c0-0.5-0.1-1-0.3-1.2c-0.2-0.3-0.6-0.4-1.1-0.4
				s-1.1,0.1-1.7,0.4l-0.2-0.5c0.6-0.3,1.3-0.4,1.9-0.4s1.1,0.2,1.4,0.5s0.5,0.8,0.5,1.5v3.8L124.6,154.3L124.6,154.3z M122.5,153.9
				c0.6,0,1.1-0.2,1.5-0.5c0.4-0.4,0.5-0.8,0.5-1.5v-0.6h-1c-0.8,0-1.4,0.2-1.7,0.4c-0.3,0.2-0.5,0.5-0.5,1c0,0.4,0.1,0.6,0.3,0.8
				C121.8,153.8,122.1,153.9,122.5,153.9z"/>
			<path style="fill:#828282;" d="M134.4,151.4c0,0.9-0.2,1.7-0.7,2.2s-1.1,0.8-1.9,0.8c-0.5,0-0.9-0.1-1.3-0.4
				c-0.4-0.2-0.7-0.6-0.9-1s-0.3-1-0.3-1.6c0-0.9,0.2-1.7,0.7-2.2s1.1-0.8,1.9-0.8c0.8,0,1.4,0.3,1.9,0.8
				C134.2,149.8,134.4,150.5,134.4,151.4z M129.9,151.4c0,0.8,0.2,1.4,0.5,1.8c0.3,0.4,0.8,0.7,1.5,0.7c0.6,0,1.1-0.2,1.5-0.7
				c0.3-0.4,0.5-1.1,0.5-1.8c0-0.8-0.2-1.4-0.5-1.8c-0.4-0.4-0.8-0.7-1.5-0.7c-0.6,0-1.1,0.2-1.5,0.7
				C130.1,150,129.9,150.6,129.9,151.4z"/>
			<path style="fill:#828282;" d="M140.7,156.3h-0.5v-2h-4.4v2h-0.5v-2.4h0.4c0.5-0.7,0.9-1.5,1.1-2.3c0.3-0.9,0.4-1.9,0.4-2.9h2.8
				v5.3h0.8v2.3L140.7,156.3L140.7,156.3z M139.4,153.8V149h-1.8c-0.1,1.9-0.5,3.5-1.4,4.8H139.4z"/>
			<path style="fill:#828282;" d="M142.5,148.6v2.5h3.7v-2.5h0.5v5.8h-0.5v-2.8h-3.7v2.8H142v-5.8H142.5z"/>
			<path style="fill:#828282;" d="M153.3,151.4c0,0.9-0.2,1.7-0.7,2.2s-1.1,0.8-1.9,0.8c-0.5,0-0.9-0.1-1.3-0.4
				c-0.4-0.2-0.7-0.6-0.9-1s-0.3-1-0.3-1.6c0-0.9,0.2-1.7,0.7-2.2s1.1-0.8,1.9-0.8c0.8,0,1.4,0.3,1.9,0.8
				C153.1,149.8,153.3,150.5,153.3,151.4z M148.8,151.4c0,0.8,0.2,1.4,0.5,1.8c0.3,0.4,0.8,0.7,1.5,0.7c0.6,0,1.1-0.2,1.5-0.7
				c0.3-0.4,0.5-1.1,0.5-1.8c0-0.8-0.2-1.4-0.5-1.8c-0.4-0.4-0.8-0.7-1.5-0.7c-0.6,0-1.1,0.2-1.5,0.7
				C149,150,148.8,150.6,148.8,151.4z"/>
			<path style="fill:#828282;" d="M158.2,148.6v4.2v1.1l3.4-5.2h0.7v5.8h-0.5v-4.1v-1.1l-3.4,5.2h-0.7v-5.8L158.2,148.6L158.2,148.6
				z"/>
			<path style="fill:#828282;" d="M165.3,151c1,0,1.6-0.4,1.6-1.1c0-0.3-0.1-0.6-0.4-0.8c-0.2-0.2-0.6-0.3-1-0.3
				c-0.3,0-0.5,0-0.8,0.1c-0.2,0.1-0.5,0.2-0.8,0.3l-0.2-0.4c0.6-0.3,1.2-0.4,1.8-0.4s1.1,0.1,1.4,0.4c0.3,0.3,0.5,0.6,0.5,1.1
				c0,0.7-0.3,1.1-1,1.3l0,0c0.4,0.1,0.7,0.3,0.9,0.5s0.3,0.6,0.3,0.9c0,0.5-0.2,1-0.6,1.3c-0.4,0.3-0.9,0.5-1.6,0.5
				c-0.4,0-0.7,0-1-0.1s-0.6-0.2-0.8-0.3v-0.5c0.4,0.2,0.7,0.3,0.9,0.4s0.5,0.1,0.8,0.1c0.5,0,0.9-0.1,1.2-0.3s0.4-0.5,0.4-0.9
				s-0.1-0.7-0.4-0.9c-0.3-0.2-0.7-0.3-1.3-0.3h-0.8V151H165.3z"/>
			<path style="fill:#828282;" d="M173.9,151.4c0,0.9-0.2,1.7-0.7,2.2s-1.1,0.8-1.9,0.8c-0.5,0-0.9-0.1-1.3-0.4
				c-0.4-0.2-0.7-0.6-0.9-1s-0.3-1-0.3-1.6c0-0.9,0.2-1.7,0.7-2.2s1.1-0.8,1.9-0.8c0.8,0,1.4,0.3,1.9,0.8
				C173.7,149.8,173.9,150.5,173.9,151.4z M169.4,151.4c0,0.8,0.2,1.4,0.5,1.8c0.3,0.4,0.8,0.7,1.5,0.7c0.6,0,1.1-0.2,1.5-0.7
				c0.3-0.4,0.5-1.1,0.5-1.8c0-0.8-0.2-1.4-0.5-1.8c-0.4-0.4-0.8-0.7-1.5-0.7c-0.6,0-1.1,0.2-1.5,0.7
				C169.5,150,169.4,150.6,169.4,151.4z"/>
			<path style="fill:#828282;" d="M175.2,150.9c0-2.5,0.7-3.9,2.1-4.3c0.5-0.1,1-0.2,1.4-0.3c0.5-0.1,0.9-0.2,1.2-0.2l0.1,0.5
				l-0.6,0.1c-1,0.2-1.7,0.3-2.1,0.5c-0.5,0.1-0.8,0.5-1.1,1s-0.4,1.2-0.5,2.1l0,0c0.4-0.4,0.7-0.8,1.1-1c0.4-0.2,0.7-0.3,1.1-0.3
				c0.7,0,1.2,0.2,1.6,0.7c0.4,0.5,0.6,1.1,0.6,1.9c0,0.9-0.2,1.6-0.6,2.1c-0.4,0.5-1,0.7-1.8,0.7s-1.4-0.3-1.8-0.9
				C175.4,152.9,175.2,152,175.2,150.9z M177.7,153.9c0.6,0,1.1-0.2,1.4-0.6s0.5-1,0.5-1.7s-0.1-1.3-0.4-1.6
				c-0.3-0.4-0.7-0.5-1.3-0.5c-0.4,0-0.8,0.1-1.2,0.4s-0.7,0.6-1,1.1c0,0.6,0.1,1.2,0.2,1.7c0.2,0.5,0.4,0.8,0.7,1.1
				C176.9,153.8,177.3,153.9,177.7,153.9z"/>
			<path style="fill:#828282;" d="M184.2,154.4c-0.9,0-1.5-0.3-1.9-1l0,0v0.4c0,0.3,0,0.5,0,0.9v2.2h-0.5v-8.4h0.4l0.1,0.8l0,0
				c0.4-0.6,1-0.9,1.9-0.9c0.8,0,1.4,0.3,1.8,0.8c0.4,0.5,0.6,1.3,0.6,2.2s-0.2,1.7-0.6,2.2S184.9,154.4,184.2,154.4z M184.2,154
				c0.6,0,1-0.2,1.4-0.7s0.5-1,0.5-1.8c0-1.7-0.6-2.5-1.8-2.5c-0.7,0-1.2,0.2-1.5,0.6c-0.3,0.4-0.5,1-0.5,1.8v0.2
				c0,0.9,0.2,1.5,0.5,1.9S183.5,154,184.2,154z"/>
			<path style="fill:#828282;" d="M191.7,154.3l-0.1-0.9l0,0c-0.3,0.4-0.6,0.6-0.9,0.8s-0.7,0.2-1.1,0.2c-0.6,0-1-0.1-1.3-0.4
				c-0.3-0.3-0.5-0.7-0.5-1.2c0-0.6,0.2-1,0.7-1.3s1.1-0.5,2-0.5h1.1v-0.4c0-0.5-0.1-1-0.3-1.2c-0.2-0.3-0.6-0.4-1.1-0.4
				s-1.1,0.1-1.7,0.4l-0.2-0.5c0.6-0.3,1.3-0.4,1.9-0.4c0.6,0,1.1,0.2,1.4,0.5c0.3,0.3,0.5,0.8,0.5,1.5v3.8L191.7,154.3L191.7,154.3
				z M189.5,153.9c0.6,0,1.1-0.2,1.5-0.5c0.4-0.4,0.5-0.8,0.5-1.5v-0.6h-1c-0.8,0-1.4,0.2-1.7,0.4s-0.5,0.5-0.5,1
				c0,0.4,0.1,0.6,0.3,0.8C188.8,153.8,189.1,153.9,189.5,153.9z"/>
			<path style="fill:#828282;" d="M196.3,148.6h0.5v2.8l2.5-2.8h0.6l-2.5,2.8l2.7,3h-0.7l-2.6-2.9v2.9h-0.5v-2.9l-2.6,2.9H193
				l2.7-2.9l-2.5-2.8h0.6l2.5,2.8V148.6z"/>
			<path style="fill:#828282;" d="M203.4,154.4c-0.8,0-1.5-0.3-2-0.8s-0.7-1.2-0.7-2.2c0-0.9,0.2-1.7,0.7-2.2
				c0.5-0.6,1.1-0.8,1.8-0.8s1.2,0.2,1.6,0.7s0.6,1.1,0.6,1.9v0.4h-4.1c0,0.8,0.2,1.4,0.6,1.8c0.4,0.4,0.9,0.6,1.6,0.6
				c0.3,0,0.6,0,0.9-0.1c0.2,0,0.6-0.1,0.9-0.3v0.5c-0.3,0.1-0.6,0.2-0.9,0.3C204.1,154.4,203.8,154.4,203.4,154.4z M203.3,148.9
				c-0.6,0-1,0.2-1.3,0.5c-0.3,0.4-0.5,0.9-0.6,1.6h3.6c0-0.7-0.1-1.2-0.4-1.6C204.2,149.1,203.8,148.9,203.3,148.9z"/>
			<path style="fill:#828282;" d="M207.6,148.6v2.5h3.7v-2.5h0.5v5.8h-0.5v-2.8h-3.7v2.8h-0.5v-5.8H207.6z"/>
			<path style="fill:#828282;" d="M214.2,148.6v4.2v1.1l3.4-5.2h0.7v5.8h-0.5v-4.1v-1.1l-3.4,5.2h-0.7v-5.8L214.2,148.6L214.2,148.6
				z"/>
			<path style="fill:#828282;" d="M222.5,154.4c-0.8,0-1.5-0.3-2-0.8s-0.7-1.2-0.7-2.2c0-0.9,0.2-1.7,0.7-2.2
				c0.5-0.6,1.1-0.8,1.8-0.8s1.2,0.2,1.6,0.7s0.6,1.1,0.6,1.9v0.4h-4.1c0,0.8,0.2,1.4,0.6,1.8c0.4,0.4,0.9,0.6,1.6,0.6
				c0.3,0,0.6,0,0.9-0.1c0.2,0,0.6-0.1,0.9-0.3v0.5c-0.3,0.1-0.6,0.2-0.9,0.3C223.1,154.4,222.8,154.4,222.5,154.4z M222.4,148.9
				c-0.6,0-1,0.2-1.3,0.5c-0.3,0.4-0.5,0.9-0.6,1.6h3.6c0-0.7-0.1-1.2-0.4-1.6C223.3,149.1,222.9,148.9,222.4,148.9z"/>
		</g>
	</g>
</g>
<g>
	<g>
		<rect x="231" y="124.6" style="fill:none;" width="43.5" height="19.8"/>
		<g style="enable-background:new    ;">
			<path style="fill:#BFBFBF;" d="M249,136.5h-0.7v-8.1c0-0.7,0-1.5,0.1-2.3c-0.1,0.1-0.2,0.1-0.2,0.2c-0.1,0.1-0.9,0.7-2.4,1.9
				l-0.4-0.5l3-2.3h0.7v11.1L249,136.5L249,136.5z"/>
			<path style="fill:#BFBFBF;" d="M260.7,130.9c0,2-0.3,3.4-0.9,4.3s-1.5,1.4-2.7,1.4c-1.2,0-2-0.5-2.7-1.5s-0.9-2.4-0.9-4.3
				c0-1.9,0.3-3.4,0.9-4.3c0.6-0.9,1.5-1.4,2.7-1.4c1.2,0,2.1,0.5,2.7,1.5C260.4,127.6,260.7,129,260.7,130.9z M254.4,130.9
				c0,1.7,0.2,3,0.7,3.8s1.1,1.2,2.1,1.2s1.7-0.4,2.1-1.3c0.4-0.9,0.7-2.1,0.7-3.8c0-1.6-0.2-2.9-0.7-3.7c-0.4-0.9-1.1-1.3-2.1-1.3
				s-1.7,0.4-2.1,1.3C254.6,128,254.4,129.3,254.4,130.9z"/>
		</g>
		<rect x="420.5" y="124.6" style="fill:none;" width="73.1" height="19.8"/>
		<g style="enable-background:new    ;">
			<path style="fill:#BFBFBF;" d="M455.6,128c0,0.7-0.2,1.3-0.7,1.7c-0.4,0.5-1,0.8-1.7,0.9l0,0c0.9,0.1,1.6,0.4,2,0.9
				c0.5,0.5,0.7,1.1,0.7,1.8c0,1-0.4,1.8-1.1,2.4c-0.7,0.6-1.7,0.9-3.1,0.9c-1.1,0-2.1-0.2-3-0.6v-0.8c0.4,0.2,0.9,0.4,1.4,0.5
				s1,0.2,1.5,0.2c1.1,0,2-0.2,2.5-0.7c0.6-0.5,0.8-1.1,0.8-1.9c0-0.7-0.3-1.3-0.9-1.7s-1.4-0.6-2.5-0.6h-1.2v-0.7h1.2
				c0.9,0,1.7-0.2,2.2-0.7c0.5-0.4,0.8-1,0.8-1.8c0-0.6-0.2-1.1-0.7-1.5s-1-0.6-1.7-0.6c-0.6,0-1.1,0.1-1.5,0.2
				c-0.5,0.2-1,0.4-1.5,0.8l-0.4-0.5c0.4-0.4,1-0.6,1.6-0.9s1.2-0.3,1.9-0.3c1,0,1.8,0.2,2.4,0.7S455.6,127.1,455.6,128z"/>
			<path style="fill:#BFBFBF;" d="M465,130.9c0,2-0.3,3.4-0.9,4.3s-1.5,1.4-2.7,1.4s-2-0.5-2.7-1.5c-0.6-1-0.9-2.4-0.9-4.3
				c0-1.9,0.3-3.4,0.9-4.3s1.5-1.4,2.7-1.4s2.1,0.5,2.7,1.5C464.7,127.6,465,129,465,130.9z M458.7,130.9c0,1.7,0.2,3,0.7,3.8
				s1.1,1.2,2.1,1.2s1.7-0.4,2.1-1.3c0.4-0.9,0.7-2.1,0.7-3.8c0-1.6-0.2-2.9-0.7-3.7c-0.4-0.9-1.1-1.3-2.1-1.3s-1.7,0.4-2.1,1.3
				C458.9,128,458.7,129.3,458.7,130.9z"/>
		</g>
		<line style="fill:none;stroke:#BFBFBF;stroke-miterlimit:10;" x1="254" y1="156.5" x2="457" y2="156.5"/>
		<circle style="fill:#828282;" cx="319" cy="157" r="6.6"/>
		<g>
			<path style="fill:#BFBFBF;" d="M327.6,128.5c0,4.7-8.6,16.4-8.6,16.4s-8.6-11.7-8.6-16.4s3.8-8.6,8.6-8.6
				C323.7,120,327.6,123.8,327.6,128.5z"/>
		</g>
		<line style="fill:none;stroke:#828282;stroke-miterlimit:10;" x1="254" y1="156.5" x2="323" y2="156.5"/>
		<rect x="296.2" y="124.6" style="fill:none;" width="43.5" height="19.8"/>
		<g style="enable-background:new    ;">
			<path style="fill:#FFFFFF;" d="M315.6,132.2h-0.5V127c0-0.5,0-1,0.1-1.5c0,0-0.1,0.1-0.2,0.1s-0.6,0.4-1.5,1.2l-0.3-0.3l1.9-1.4
				h0.4v7.1H315.6z"/>
			<path style="fill:#FFFFFF;" d="M322.8,126.8c0,0.4-0.1,0.8-0.4,1.1s-0.7,0.5-1.1,0.6l0,0c0.6,0.1,1,0.3,1.3,0.5
				c0.3,0.3,0.4,0.7,0.4,1.2c0,0.7-0.2,1.2-0.7,1.6c-0.5,0.4-1.1,0.5-2,0.5c-0.7,0-1.4-0.1-1.9-0.4v-0.5c0.3,0.1,0.6,0.3,0.9,0.3
				c0.3,0.1,0.7,0.1,1,0.1c0.7,0,1.3-0.1,1.6-0.4s0.5-0.7,0.5-1.2s-0.2-0.8-0.6-1.1s-0.9-0.4-1.6-0.4h-0.8v-0.5h0.8
				c0.6,0,1.1-0.1,1.4-0.4s0.5-0.7,0.5-1.1s-0.1-0.7-0.4-1c-0.3-0.2-0.7-0.4-1.1-0.4s-0.7,0.1-1,0.2s-0.6,0.3-1,0.5l-0.2-0.3
				c0.3-0.2,0.6-0.4,1-0.5s0.8-0.2,1.2-0.2c0.7,0,1.2,0.2,1.5,0.5C322.6,125.8,322.8,126.2,322.8,126.8z"/>
		</g>
	</g>
</g>
<g>
	<polygon style="fill:#FFFFFF;" points="327.2,167.3 327.2,166.5 326.4,166.5 326.4,167.3 325.7,167.3 325.7,166.5 325.7,166.5 
		325.7,165.7 324.1,165.7 324.1,167.3 323.4,167.3 323.4,165.7 323.4,165.7 323.4,165.7 321.9,165.7 321.9,167.3 321.1,167.3 
		321.1,161.1 319.6,161.1 319.6,165.7 319.6,165.7 319.6,171.1 318.8,171.1 318.8,168.8 318,168.8 318,171.9 318.8,171.9 
		318.8,173.4 319.6,173.4 319.6,175 320.3,175 320.3,176.5 326.4,176.5 326.4,175 327.2,175 327.2,172.7 328,172.7 328,167.3 	"/>
	<path style="fill:#272425;" d="M321.1,160.3h-1.5v0.8h1.5V160.3z M321.9,167.3v-1.6h1.5v-0.8h-1.5V161h-0.8v6.2h0.8V167.3z
		 M317.3,168.8v3.1h0.8v-3.1H317.3z M325.7,165.7v0.8l0,0v0.8h0.8v-0.8h0.8v-0.8H325.7z M324.1,165v0.8h-0.7v1.5h0.8v-1.5h1.5V165
		H324.1z M327.2,166.5v0.8h0.8v-0.8H327.2z M328,167.3v5.4h0.8v-5.4H328z M327.2,175h0.8v-2.3h-0.8V175z M326.4,176.5h-6.1V175h-0.8
		v2.3h7.7V175h-0.8L326.4,176.5L326.4,176.5z M318,171.9v1.5h0.8v-1.5H318z M318.8,173.4v1.5h0.8v-1.5H318.8z M318.8,171.1h0.8v-10
		h-0.8v7H318v0.8h0.8V171.1z"/>
</g>
</svg>
