<?xml version="1.0" encoding="utf-8"?>
<!-- Generator: Adobe Illustrator 19.2.1, SVG Export Plug-In . SVG Version: 6.00 Build 0)  -->
<svg version="1.1" id="Слой_1" xmlns="http://www.w3.org/2000/svg" xmlns:xlink="http://www.w3.org/1999/xlink" x="0px" y="0px"
	 viewBox="0 0 354.5 246" style="enable-background:new 0 0 354.5 246;" xml:space="preserve">
<rect style="fill:#FFFFFF;" width="354.5" height="246"/>
<g id="_x30_9_1_">
	<circle id="SVGID_21_" style="fill:#97CFFD;" cx="280.2" cy="172.5" r="44.2"/>
	
		<line style="fill:none;stroke:#FFFFFF;stroke-width:1.7668;stroke-linecap:round;stroke-miterlimit:10;" x1="266.5" y1="203.4" x2="293.8" y2="203.4"/>
	
		<line style="fill:none;stroke:#FFFFFF;stroke-width:1.7668;stroke-linecap:round;stroke-miterlimit:10;" x1="251.2" y1="153.2" x2="255.7" y2="191.9"/>
	
		<line style="fill:none;stroke:#FFFFFF;stroke-width:1.7668;stroke-linecap:round;stroke-miterlimit:10;" x1="310.4" y1="153.2" x2="305.8" y2="191.9"/>
	<path style="fill:none;stroke:#FFFFFF;stroke-width:1.7668;stroke-linecap:round;stroke-miterlimit:10;" d="M255.7,191.9
		c2.3,11.4,6.8,11.4,11.4,11.4"/>
	<path style="fill:none;stroke:#FFFFFF;stroke-width:1.7668;stroke-linecap:round;stroke-miterlimit:10;" d="M305.8,191.9
		c-2.3,11.4-6.8,11.4-11.4,11.4"/>
	<path style="fill:none;stroke:#FFFFFF;stroke-width:1.7668;stroke-linecap:round;stroke-miterlimit:10;" d="M310.4,153.2
		c0-6.8-4.5-6.8-11.4-6.8h-36.4c-6.9,0-11.4,0-11.4,6.8"/>
	<path style="fill:none;stroke:#FFFFFF;stroke-width:1.7668;stroke-linecap:round;stroke-linejoin:round;stroke-miterlimit:10;" d="
		M290.3,167.2c1.1-1.1,2.7-1.8,4.1-1.8c1.6,0,3.1,0.7,4.2,1.9"/>
	<path style="fill:none;stroke:#FFFFFF;stroke-width:1.7668;stroke-linecap:round;stroke-linejoin:round;stroke-miterlimit:10;" d="
		M292.6,177.3c-3,3-6.7,4.6-10.9,4.6c-4,0-8-1.9-11.1-4.9"/>
	
		<ellipse style="fill:none;stroke:#FFFFFF;stroke-width:1.7668;stroke-linecap:round;stroke-linejoin:round;stroke-miterlimit:10;" cx="269.3" cy="167.8" rx="3.4" ry="3"/>
	<path style="fill:none;stroke:#FFFFFF;stroke-width:1.7668;stroke-linecap:round;stroke-linejoin:round;stroke-miterlimit:10;" d="
		M275.2,189.4c-15.5-2.6-27.5-16.1-27.5-32.4h4"/>
	<path style="fill:none;stroke:#FFFFFF;stroke-width:1.7668;stroke-linecap:round;stroke-linejoin:round;stroke-miterlimit:10;" d="
		M309.9,157h3.4c0,16.2-11.7,29.6-27.1,32.3"/>
	
		<path style="fill:#F7AA47;stroke:#FFFFFF;stroke-width:1.7668;stroke-linecap:round;stroke-linejoin:round;stroke-miterlimit:10;" d="
		M287.8,146.6v12.1c0,1.6-1.3,2.9-2.9,2.9s-2.9-1.3-2.9-2.9v-12.1H287.8z"/>
	
		<path style="fill:#F7AA47;stroke:#FFFFFF;stroke-width:1.7668;stroke-linecap:round;stroke-linejoin:round;stroke-miterlimit:10;" d="
		M270.4,146.6v0.2h-5.5H259v7.2c0,1.6,1.3,2.9,2.9,2.9s2.9-1.3,2.9-2.9v3.6c0,1.6,1.3,2.9,2.9,2.9s2.9-1.3,2.9-2.9v-6.8
		c0.5,0.9,1.4,1.5,2.6,1.5c1.6,0,2.9-1.3,2.9-2.9v-2.7L270.4,146.6L270.4,146.6z"/>
	<path style="fill:none;stroke:#FFFFFF;stroke-width:1.7668;stroke-linecap:round;stroke-linejoin:round;stroke-miterlimit:10;" d="
		M284.3,191.9h-7.1c-1.1,0-2-0.9-2-2l0,0c0-1.1,0.9-2,2-2h7.1c1.1,0,2,0.9,2,2l0,0C286.3,191,285.4,191.9,284.3,191.9z"/>
</g>
<g id="_x30_8_1_">
	<circle id="SVGID_20_" style="fill:#97CFFD;" cx="175.7" cy="172.5" r="44.2"/>
	
		<polyline style="fill:none;stroke:#FFFFFF;stroke-width:1.7668;stroke-linecap:round;stroke-linejoin:round;stroke-miterlimit:10;" points="
		144.4,203 144.4,148.7 206.5,148.7 206.5,203 	"/>
	
		<line style="fill:none;stroke:#FFFFFF;stroke-width:1.7668;stroke-linecap:round;stroke-linejoin:round;stroke-miterlimit:10;" x1="144.4" y1="164.3" x2="206.5" y2="164.3"/>
	<path style="fill:none;stroke:#FFFFFF;stroke-width:1.7668;stroke-linecap:round;stroke-linejoin:round;stroke-miterlimit:10;" d="
		M201,148.6v-2.7c0-2-1.7-3.7-3.7-3.7s-3.7,1.7-3.7,3.7v5.6c0,2,1.7,3.7,3.7,3.7"/>
	<path style="fill:none;stroke:#FFFFFF;stroke-width:1.7668;stroke-linecap:round;stroke-linejoin:round;stroke-miterlimit:10;" d="
		M190.7,148.6v-2.7c0-2-1.7-3.7-3.7-3.7s-3.7,1.7-3.7,3.7v5.6c0,2,1.7,3.7,3.7,3.7"/>
	<path style="fill:none;stroke:#FFFFFF;stroke-width:1.7668;stroke-linecap:round;stroke-linejoin:round;stroke-miterlimit:10;" d="
		M180.4,148.6v-2.7c0-2-1.7-3.7-3.7-3.7s-3.7,1.7-3.7,3.7v5.6c0,2,1.7,3.7,3.7,3.7"/>
	<path style="fill:none;stroke:#FFFFFF;stroke-width:1.7668;stroke-linecap:round;stroke-linejoin:round;stroke-miterlimit:10;" d="
		M170,148.6v-2.7c0-2-1.7-3.7-3.7-3.7s-3.7,1.7-3.7,3.7v5.6c0,2,1.7,3.7,3.7,3.7"/>
	<path style="fill:none;stroke:#FFFFFF;stroke-width:1.7668;stroke-linecap:round;stroke-linejoin:round;stroke-miterlimit:10;" d="
		M159.8,148.6v-2.7c0-2-1.7-3.7-3.7-3.7s-3.7,1.7-3.7,3.7v5.6c0,2,1.7,3.7,3.7,3.7"/>
	
		<ellipse style="fill:none;stroke:#FFFFFF;stroke-width:1.7668;stroke-linecap:round;stroke-linejoin:round;stroke-miterlimit:10;" cx="160.4" cy="184.2" rx="4.9" ry="4.7"/>
	
		<ellipse style="fill:none;stroke:#FFFFFF;stroke-width:1.7668;stroke-linecap:round;stroke-linejoin:round;stroke-miterlimit:10;" cx="191.4" cy="184.2" rx="4.9" ry="4.7"/>
	<path style="fill:none;stroke:#FFFFFF;stroke-width:1.7668;stroke-linecap:round;stroke-linejoin:round;stroke-miterlimit:10;" d="
		M187.6,200.4c-3.4,3.1-7.6,5.1-11.7,5.1c-4.4,0-8.5-1.8-11.6-4.9"/>
	
		<path style="fill:#F7AA47;stroke:#FFFFFF;stroke-width:1.7668;stroke-linecap:round;stroke-linejoin:round;stroke-miterlimit:10;" d="
		M202,182.9c1.1,0,2-0.9,2-1.9c0-1.1-1.2-1.9-2.7-1.9l-3.8-0.1c-1.4-0.1-2.7-0.9-2.7-1.8c-0.1-1-1.3-1.7-2.7-1.7h-9.3
		c-1.4,0-2.7,0.9-2.7,1.9c0,1.1,1.2,1.9,2.7,1.9h0.4c1.4,0,2.7,0.8,2.7,1.8s-1.2,1.8-2.7,1.8h-4.7c-1.4,0-2.7,0.9-2.7,1.9
		c0,1.1,1.2,1.9,2.7,1.9l4.7,0.1c1.4,0,2.7,1.2,2.7,2.7v1.9c0,1.4,1.2,2.7,2.7,2.7h1c1.4,0,2.7-0.9,2.7-1.9c0-1.1,1.2-1.9,2.7-1.9
		h2.7c1.4,0,2.7-1.2,2.7-2.7v-1.9C200,184.1,201,182.9,202,182.9z"/>
</g>
<g id="_x30_7_1_">
	<circle id="SVGID_16_" style="fill:#97CFFD;" cx="74" cy="172.5" r="44.2"/>
	
		<line style="fill:none;stroke:#FFFFFF;stroke-width:1.7668;stroke-linecap:round;stroke-linejoin:round;stroke-miterlimit:10;" x1="73.9" y1="143.6" x2="73.9" y2="137.1"/>
	
		<line style="fill:none;stroke:#FFFFFF;stroke-width:1.7668;stroke-linecap:round;stroke-linejoin:round;stroke-miterlimit:10;" x1="73.9" y1="171.4" x2="73.9" y2="156"/>
	
		<ellipse style="fill:none;stroke:#FFFFFF;stroke-width:1.7668;stroke-linecap:round;stroke-linejoin:round;stroke-miterlimit:10;" cx="64.5" cy="183.5" rx="3.1" ry="4"/>
	
		<ellipse style="fill:none;stroke:#FFFFFF;stroke-width:1.7668;stroke-linecap:round;stroke-linejoin:round;stroke-miterlimit:10;" cx="83.2" cy="183.5" rx="3.1" ry="4"/>
	<path style="fill:none;stroke:#FFFFFF;stroke-width:1.7668;stroke-linecap:round;stroke-linejoin:round;stroke-miterlimit:10;" d="
		M79.9,197.1c-1.7,1.7-3.7,2.6-6,2.6c-2.2,0-4.4-1.1-6.1-2.7"/>
	<path style="fill:none;stroke:#FFFFFF;stroke-width:1.7668;stroke-linecap:round;stroke-linejoin:round;stroke-miterlimit:10;" d="
		M73.9,208.7L73.9,208.7c-12.2,0-22.1-9.9-22.1-22.1v-27.5c0-12.2,9.9-22.1,22.1-22.1l0,0c12.2,0,22.1,9.9,22.1,22.1v27.4
		C96,198.8,86,208.7,73.9,208.7z"/>
	
		<path style="fill:#F7AA47;stroke:#FFFFFF;stroke-width:1.7668;stroke-linecap:round;stroke-linejoin:round;stroke-miterlimit:10;" d="
		M73.8,156L73.8,156c-1.9,0-3.5-1.6-3.5-3.5v-4.9c0-1.9,1.6-3.5,3.5-3.5l0,0c1.9,0,3.5,1.6,3.5,3.5v4.9
		C77.4,154.4,75.8,156,73.8,156z"/>
</g>
<g id="_x30_6_1_">
	<circle id="SVGID_14_" style="fill:#85D0FE;" cx="274.1" cy="63.5" r="44.2"/>
	<g>
		<g>
			<circle id="SVGID_47_" style="fill:#97CFFD;" cx="274.1" cy="63.5" r="44.2"/>
		</g>
		<g>
			<g>
				<g>
					<g>
						<defs>
							<circle id="SVGID_1_" cx="274.1" cy="63.5" r="44.2"/>
						</defs>
						<clipPath id="SVGID_2_">
							<use xlink:href="#SVGID_1_"  style="overflow:visible;"/>
						</clipPath>
						
							<rect x="277.4" y="76.6" style="clip-path:url(#SVGID_2_);fill:#F7AA47;stroke:#FFFFFF;stroke-width:1.7668;stroke-linecap:round;stroke-linejoin:round;stroke-miterlimit:10;" width="7.2" height="38.4"/>
					</g>
				</g>
			</g>
		</g>
		<g>
			<g>
				<g>
					<g>
						<defs>
							<circle id="SVGID_3_" cx="274.1" cy="63.5" r="44.2"/>
						</defs>
						<clipPath id="SVGID_4_">
							<use xlink:href="#SVGID_3_"  style="overflow:visible;"/>
						</clipPath>
						
							<rect x="299.3" y="76.6" style="clip-path:url(#SVGID_4_);fill:#F7AA47;stroke:#FFFFFF;stroke-width:1.7668;stroke-linecap:round;stroke-linejoin:round;stroke-miterlimit:10;" width="7.2" height="38.4"/>
					</g>
				</g>
			</g>
		</g>
		<g>
			<g>
				<g>
					<g>
						<defs>
							<circle id="SVGID_5_" cx="274.1" cy="63.5" r="44.2"/>
						</defs>
						<clipPath id="SVGID_6_">
							<use xlink:href="#SVGID_5_"  style="overflow:visible;"/>
						</clipPath>
						
							<rect x="284.5" y="76.6" style="clip-path:url(#SVGID_6_);fill:#F7AA47;stroke:#FFFFFF;stroke-width:1.7668;stroke-linecap:round;stroke-linejoin:round;stroke-miterlimit:10;" width="14.6" height="38.4"/>
					</g>
				</g>
			</g>
		</g>
		<g>
			<g>
				<g>
					<g>
						<defs>
							<circle id="SVGID_8_" cx="274.1" cy="63.5" r="44.2"/>
						</defs>
						<clipPath id="SVGID_9_">
							<use xlink:href="#SVGID_8_"  style="overflow:visible;"/>
						</clipPath>
						
							<rect x="244.3" y="37.2" style="clip-path:url(#SVGID_9_);fill:none;stroke:#FFFFFF;stroke-width:1.7668;stroke-linecap:round;stroke-linejoin:round;stroke-miterlimit:10;" width="29.1" height="83.7"/>
					</g>
				</g>
			</g>
		</g>
	</g>
	<path style="fill:none;stroke:#FFFFFF;stroke-width:1.7668;stroke-linecap:round;stroke-linejoin:round;stroke-miterlimit:10;" d="
		M298.8,70.4c-1.3,0.9-3.4,1.2-4.7,1.3c-1.2,0.1-4.9,0-4.9,0"/>
	
		<polygon style="fill:none;stroke:#FFFFFF;stroke-width:1.7668;stroke-linecap:round;stroke-linejoin:round;stroke-miterlimit:10;" points="
		292,24.6 306.5,76.6 277.4,76.6 	"/>
	
		<ellipse style="fill:none;stroke:#FFFFFF;stroke-width:1.7668;stroke-linecap:round;stroke-linejoin:round;stroke-miterlimit:10;" cx="286.6" cy="62.6" rx="1.9" ry="2.7"/>
	
		<ellipse style="fill:none;stroke:#FFFFFF;stroke-width:1.7668;stroke-linecap:round;stroke-linejoin:round;stroke-miterlimit:10;" cx="295.7" cy="62.6" rx="1.9" ry="2.7"/>
	
		<polygon style="fill:#FFFFFF;stroke:#FFFFFF;stroke-width:1.7668;stroke-linecap:round;stroke-linejoin:round;stroke-miterlimit:10;" points="
		292,24.6 297.3,43.9 286.6,43.9 	"/>
	
		<ellipse style="fill:none;stroke:#FFFFFF;stroke-width:1.7668;stroke-linecap:round;stroke-linejoin:round;stroke-miterlimit:10;" cx="259" cy="62.6" rx="1.9" ry="2.7"/>
	
		<ellipse style="fill:none;stroke:#FFFFFF;stroke-width:1.7668;stroke-linecap:round;stroke-linejoin:round;stroke-miterlimit:10;" cx="268.1" cy="62.6" rx="1.9" ry="2.7"/>
	
		<line style="fill:none;stroke:#FFFFFF;stroke-width:1.7668;stroke-linecap:round;stroke-linejoin:round;stroke-miterlimit:10;" x1="244.6" y1="37.3" x2="248.8" y2="37.3"/>
	
		<line style="fill:none;stroke:#FFFFFF;stroke-width:1.7668;stroke-linecap:round;stroke-linejoin:round;stroke-miterlimit:10;" x1="244.6" y1="46.7" x2="251" y2="46.7"/>
	
		<line style="fill:none;stroke:#FFFFFF;stroke-width:1.7668;stroke-linecap:round;stroke-linejoin:round;stroke-miterlimit:10;" x1="244.6" y1="55.3" x2="248.8" y2="55.3"/>
	
		<line style="fill:none;stroke:#FFFFFF;stroke-width:1.7668;stroke-linecap:round;stroke-linejoin:round;stroke-miterlimit:10;" x1="244.6" y1="64.6" x2="251" y2="64.6"/>
	
		<line style="fill:none;stroke:#FFFFFF;stroke-width:1.7668;stroke-linecap:round;stroke-linejoin:round;stroke-miterlimit:10;" x1="244.6" y1="73.2" x2="248.8" y2="73.2"/>
	
		<line style="fill:none;stroke:#FFFFFF;stroke-width:1.7668;stroke-linecap:round;stroke-linejoin:round;stroke-miterlimit:10;" x1="244.6" y1="82.6" x2="251" y2="82.6"/>
	
		<line style="fill:none;stroke:#FFFFFF;stroke-width:1.7668;stroke-linecap:round;stroke-linejoin:round;stroke-miterlimit:10;" x1="244.6" y1="91.2" x2="248.8" y2="91.2"/>
	<path style="fill:none;stroke:#FFFFFF;stroke-width:1.7668;stroke-linecap:round;stroke-linejoin:round;stroke-miterlimit:10;" d="
		M267.1,72c-1.7,1.6-3.8,2.6-6,2.6c-2.3,0-4.5-1.1-6.2-2.7L267.1,72z"/>
</g>
<g id="_x30_5_1_">
	<circle id="SVGID_11_" style="fill:#97CFFD;" cx="172.6" cy="63.5" r="44.2"/>
	
		<ellipse style="fill:none;stroke:#FFFFFF;stroke-width:1.7668;stroke-linecap:round;stroke-linejoin:round;stroke-miterlimit:10;" cx="158.8" cy="66.7" rx="3.4" ry="3.3"/>
	
		<ellipse style="fill:none;stroke:#FFFFFF;stroke-width:1.7668;stroke-linecap:round;stroke-linejoin:round;stroke-miterlimit:10;" cx="186.7" cy="66.7" rx="3.4" ry="3.3"/>
	<path style="fill:none;stroke:#FFFFFF;stroke-width:1.7668;stroke-linecap:round;stroke-linejoin:round;stroke-miterlimit:10;" d="
		M177,68.3c-1.2,1.1-2.7,1.9-4.2,1.9c-1.6,0-3-0.6-4.2-1.8"/>
	
		<path style="fill:#F7AA47;stroke:#FFFFFF;stroke-width:1.7668;stroke-linecap:round;stroke-linejoin:round;stroke-miterlimit:10;" d="
		M154.5,60.6c1.7-8.7,9.3-15.4,18.5-15.4s16.9,6.6,18.5,15.4h16.3C206,42.9,191.1,29,172.9,29S139.8,42.9,138,60.6H154.5z"/>
	
		<rect x="134.4" y="60.6" style="fill:none;stroke:#FFFFFF;stroke-width:1.7668;stroke-linecap:round;stroke-linejoin:round;stroke-miterlimit:10;" width="77.1" height="16.2"/>
	
		<line style="fill:none;stroke:#FFFFFF;stroke-width:1.7668;stroke-linecap:round;stroke-linejoin:round;stroke-miterlimit:10;" x1="173" y1="29.4" x2="173" y2="37"/>
	
		<line style="fill:none;stroke:#FFFFFF;stroke-width:1.7668;stroke-linecap:round;stroke-linejoin:round;stroke-miterlimit:10;" x1="144.8" y1="68.8" x2="144.8" y2="76.4"/>
	
		<line style="fill:none;stroke:#FFFFFF;stroke-width:1.7668;stroke-linecap:round;stroke-linejoin:round;stroke-miterlimit:10;" x1="154.4" y1="72.9" x2="154.4" y2="76.6"/>
	
		<line style="fill:none;stroke:#FFFFFF;stroke-width:1.7668;stroke-linecap:round;stroke-linejoin:round;stroke-miterlimit:10;" x1="185.2" y1="31.9" x2="183.3" y2="35.1"/>
	
		<line style="fill:none;stroke:#FFFFFF;stroke-width:1.7668;stroke-linecap:round;stroke-linejoin:round;stroke-miterlimit:10;" x1="162.6" y1="35.1" x2="160.8" y2="31.9"/>
	
		<line style="fill:none;stroke:#FFFFFF;stroke-width:1.7668;stroke-linecap:round;stroke-linejoin:round;stroke-miterlimit:10;" x1="191.8" y1="72.9" x2="191.8" y2="76.6"/>
	
		<line style="fill:none;stroke:#FFFFFF;stroke-width:1.7668;stroke-linecap:round;stroke-linejoin:round;stroke-miterlimit:10;" x1="200.7" y1="68.8" x2="200.7" y2="76.4"/>
	
		<line style="fill:none;stroke:#FFFFFF;stroke-width:1.7668;stroke-linecap:round;stroke-linejoin:round;stroke-miterlimit:10;" x1="195.4" y1="37.4" x2="190" y2="42.8"/>
	
		<line style="fill:none;stroke:#FFFFFF;stroke-width:1.7668;stroke-linecap:round;stroke-linejoin:round;stroke-miterlimit:10;" x1="151" y1="37.9" x2="156.4" y2="43.2"/>
</g>
<g id="_x30_4_1_">
	<circle id="SVGID_7_" style="fill:#97CFFD;" cx="71.1" cy="63.5" r="44.2"/>
	<g>
		<g>
			<g>
				<g>
					<g>
						<defs>
							<circle id="SVGID_10_" cx="71.1" cy="63.5" r="44.2"/>
						</defs>
						<clipPath id="SVGID_12_">
							<use xlink:href="#SVGID_10_"  style="overflow:visible;"/>
						</clipPath>
						
							<path style="clip-path:url(#SVGID_12_);fill:#F7AA47;stroke:#FFFFFF;stroke-width:1.7668;stroke-linecap:round;stroke-linejoin:round;stroke-miterlimit:10;" d="
							M71,255.3c0,0,8.7,1,10.3-3.7c2-5.7,3.1-17.5,3.1-35.4c0-40.5-6.4-121.6-6.4-121.6H64c0,0-6.4,81.1-6.4,121.6
							c0,17.9,1.1,29.8,3.1,35.4C62.5,256.1,71,255.3,71,255.3z"/>
					</g>
				</g>
			</g>
		</g>
	</g>
	
		<ellipse style="fill:none;stroke:#FFFFFF;stroke-width:1.7668;stroke-linecap:round;stroke-linejoin:round;stroke-miterlimit:10;" cx="83.2" cy="63.9" rx="3.1" ry="2.2"/>
	
		<ellipse style="fill:none;stroke:#FFFFFF;stroke-width:1.7668;stroke-linecap:round;stroke-linejoin:round;stroke-miterlimit:10;" cx="65.8" cy="63.9" rx="3.1" ry="2.2"/>
	
		<path style="fill:#F7AA47;stroke:#FFFFFF;stroke-width:1.7668;stroke-linecap:round;stroke-linejoin:round;stroke-miterlimit:10;" d="
		M78.9,85.4H63.2c0,0,0.4,7-0.4,17.9h16.3C78.4,92.3,78.9,85.4,78.9,85.4z"/>
	<path style="fill:none;stroke:#FFFFFF;stroke-width:1.7668;stroke-linecap:round;stroke-linejoin:round;stroke-miterlimit:10;" d="
		M73,24.6c0,0,35,36.1,5.7,60.8H63.2c0,0-17.2-10.5-9.3-30.4C61.1,36.7,73,39,73,24.6z"/>
	<path style="fill:none;stroke:#FFFFFF;stroke-width:1.7668;stroke-linecap:round;stroke-linejoin:round;stroke-miterlimit:10;" d="
		M80.1,75.6c-1.7,1.7-3.7,2.6-6,2.6c-2.2,0-4.4-1.1-6.1-2.7L80.1,75.6z"/>
	<path style="fill:none;stroke:#FFFFFF;stroke-width:1.7668;stroke-linecap:round;stroke-linejoin:round;stroke-miterlimit:10;" d="
		M69.3,41.1c1.2-1.3,6.5-7.7,4.8-14.1c-0.2-0.6-0.4-1.3-0.8-2"/>
</g>
<g>
	<rect x="71" y="38" style="opacity:0.6;enable-background:new    ;" width="259.6" height="163.5"/>
	<rect x="94.2" y="174.1" style="fill:none;" width="272.5" height="43.9"/>
	<g style="enable-background:new    ;">
		<path style="fill:#FFFFFF;" d="M103.6,179.5c0,1.5-0.4,2.7-1.1,3.6c-0.7,0.9-1.8,1.3-3.1,1.3c-1.3,0-2.3-0.4-3.1-1.3
			c-0.8-0.9-1.1-2.1-1.1-3.6s0.4-2.7,1.1-3.6c0.8-0.9,1.8-1.3,3.1-1.3c1.3,0,2.4,0.4,3.1,1.3S103.6,178,103.6,179.5z M95.8,179.5
			c0,1.4,0.3,2.4,0.9,3.1c0.6,0.7,1.5,1.1,2.6,1.1s2-0.4,2.6-1.1s0.9-1.8,0.9-3.1c0-1.4-0.3-2.4-0.9-3.1c-0.6-0.7-1.5-1.1-2.6-1.1
			s-2,0.4-2.6,1.1S95.8,178.2,95.8,179.5z"/>
		<path style="fill:#FFFFFF;" d="M110,177.8h-2.3v6.5h-0.6v-6.5h-2.4v-0.6h5.4L110,177.8L110,177.8z"/>
		<path style="fill:#FFFFFF;" d="M111.3,178c0-0.4,0.2-0.6,0.5-0.6c0.4,0,0.5,0.2,0.5,0.6c0,0.2-0.1,0.4-0.2,0.5s-0.2,0.1-0.4,0.1
			c-0.1,0-0.3,0-0.4-0.1C111.4,178.4,111.3,178.2,111.3,178z M111.3,183.7c0-0.4,0.2-0.6,0.5-0.6c0.4,0,0.5,0.2,0.5,0.6
			c0,0.4-0.2,0.6-0.5,0.6C111.5,184.4,111.3,184.2,111.3,183.7z"/>
	</g>
	<g style="enable-background:new    ;">
		<path style="fill:#FFFFFF;" d="M123.5,184.2h-5.3v-9.4h5.3v1.3h-3.8v2.6h3.6v1.3h-3.6v3h3.8V184.2z"/>
		<path style="fill:#FFFFFF;" d="M131.2,184.2h-1.5v-6h-2c-0.1,1.5-0.3,2.7-0.5,3.6c-0.2,0.9-0.5,1.5-0.8,1.9s-0.8,0.6-1.3,0.6
			c-0.3,0-0.6,0-0.8-0.1V183c0.2,0.1,0.3,0.1,0.5,0.1c0.4,0,0.8-0.5,1-1.5c0.3-1,0.4-2.5,0.6-4.5h4.8L131.2,184.2L131.2,184.2z"/>
		<path style="fill:#FFFFFF;" d="M136.5,184.4c-1.1,0-2-0.3-2.6-1s-0.9-1.5-0.9-2.7s0.3-2.1,0.9-2.8c0.6-0.7,1.4-1,2.4-1
			c0.9,0,1.7,0.3,2.2,0.9s0.8,1.4,0.8,2.4v0.8h-4.8c0,0.7,0.2,1.2,0.6,1.6c0.4,0.4,0.9,0.6,1.5,0.6c0.4,0,0.8,0,1.2-0.1
			s0.8-0.2,1.2-0.4v1.2c-0.4,0.2-0.7,0.3-1.1,0.4S137,184.4,136.5,184.4z M136.2,178.1c-0.5,0-0.9,0.2-1.2,0.5s-0.5,0.8-0.5,1.3h3.2
			c0-0.6-0.2-1-0.4-1.3S136.7,178.1,136.2,178.1z"/>
		<path style="fill:#FFFFFF;" d="M142.5,177.1v2.9h3.4v-2.9h1.5v7.1h-1.5v-3.1h-3.4v3.1H141v-7.1H142.5z"/>
		<path style="fill:#FFFFFF;" d="M154.1,184.2l-0.3-1h-0.1c-0.3,0.4-0.7,0.7-1,0.9s-0.8,0.2-1.3,0.2c-0.7,0-1.3-0.2-1.6-0.6
			c-0.4-0.4-0.6-0.9-0.6-1.6c0-0.7,0.3-1.3,0.8-1.7s1.4-0.6,2.5-0.6h1.2v-0.4c0-0.5-0.1-0.8-0.3-1s-0.5-0.3-1-0.3
			c-0.4,0-0.7,0.1-1.1,0.2c-0.3,0.1-0.7,0.2-1,0.4l-0.5-1.1c0.4-0.2,0.8-0.4,1.3-0.5s0.9-0.2,1.3-0.2c0.9,0,1.6,0.2,2.1,0.6
			c0.5,0.4,0.7,1,0.7,1.9v4.8L154.1,184.2L154.1,184.2z M151.8,183.2c0.6,0,1-0.2,1.3-0.5s0.5-0.7,0.5-1.3v-0.6h-0.9
			c-0.7,0-1.2,0.1-1.6,0.4c-0.3,0.2-0.5,0.5-0.5,1c0,0.3,0.1,0.6,0.3,0.7C151.1,183.1,151.4,183.2,151.8,183.2z"/>
		<path style="fill:#FFFFFF;" d="M165,184.2l-2.7-7.9h-0.1c0.1,1.2,0.1,2.3,0.1,3.3v4.6h-1.4v-9.4h2.2l2.6,7.5l0,0l2.7-7.5h2.2v9.4
			h-1.5v-4.7c0-0.5,0-1.1,0-1.8c0-0.8,0-1.2,0.1-1.4h-0.1l-2.8,7.9L165,184.2L165,184.2z"/>
		<path style="fill:#FFFFFF;" d="M179.3,180.7c0,1.2-0.3,2.1-0.9,2.7c-0.6,0.7-1.4,1-2.5,1c-0.7,0-1.3-0.2-1.8-0.5s-0.9-0.7-1.2-1.3
			s-0.4-1.2-0.4-2c0-1.2,0.3-2.1,0.9-2.7s1.4-1,2.5-1c1,0,1.9,0.3,2.5,1C179,178.6,179.3,179.5,179.3,180.7z M174.1,180.7
			c0,1.7,0.6,2.5,1.8,2.5s1.8-0.8,1.8-2.5c0-1.6-0.6-2.5-1.8-2.5c-0.6,0-1.1,0.2-1.4,0.6C174.2,179.3,174.1,179.9,174.1,180.7z"/>
		<path style="fill:#FFFFFF;" d="M186.9,184.2h-1.5v-6h-2c-0.1,1.5-0.3,2.7-0.5,3.6c-0.2,0.9-0.5,1.5-0.8,1.9s-0.8,0.6-1.3,0.6
			c-0.3,0-0.6,0-0.8-0.1V183c0.2,0.1,0.3,0.1,0.5,0.1c0.4,0,0.8-0.5,1-1.5c0.3-1,0.4-2.5,0.6-4.5h4.8V184.2z"/>
		<path style="fill:#FFFFFF;" d="M190.6,180h1.8c2,0,3,0.7,3,2.1c0,0.7-0.3,1.3-0.8,1.7s-1.3,0.6-2.2,0.6h-3.3v-7.1h1.5V180z
			 M193.8,182.1c0-0.4-0.1-0.6-0.4-0.8c-0.3-0.1-0.7-0.2-1.2-0.2h-1.7v2h1.7c0.5,0,0.9-0.1,1.1-0.3
			C193.7,182.7,193.8,182.4,193.8,182.1z"/>
		<path style="fill:#FFFFFF;" d="M196.6,180c0-1.6,0.3-2.8,0.8-3.7s1.4-1.4,2.6-1.7c0.9-0.2,1.9-0.4,3.1-0.5l0.2,1.3
			c-1.4,0.2-2.4,0.4-3.1,0.5c-0.7,0.1-1.2,0.4-1.5,0.8c-0.3,0.4-0.5,1.1-0.5,1.9h0.1c0.2-0.4,0.6-0.6,1-0.8s0.8-0.3,1.3-0.3
			c0.9,0,1.6,0.3,2.1,0.8c0.5,0.6,0.7,1.3,0.7,2.3c0,1.2-0.3,2-0.9,2.7c-0.6,0.6-1.4,0.9-2.5,0.9c-1,0-1.9-0.4-2.5-1.2
			S196.6,181.3,196.6,180z M200.1,183.1c1.1,0,1.7-0.7,1.7-2.2c0-1.4-0.5-2.1-1.5-2.1c-0.3,0-0.6,0.1-0.8,0.2
			c-0.3,0.1-0.5,0.3-0.7,0.5s-0.4,0.4-0.5,0.6c0,1,0.2,1.8,0.5,2.3C199,182.9,199.5,183.1,200.1,183.1z"/>
		<path style="fill:#FFFFFF;" d="M208.2,184.4c-1.1,0-2-0.3-2.6-1s-0.9-1.5-0.9-2.7s0.3-2.1,0.9-2.8c0.6-0.7,1.4-1,2.4-1
			c0.9,0,1.7,0.3,2.2,0.9s0.8,1.4,0.8,2.4v0.8h-4.8c0,0.7,0.2,1.2,0.6,1.6c0.4,0.4,0.9,0.6,1.5,0.6c0.4,0,0.8,0,1.2-0.1
			s0.8-0.2,1.2-0.4v1.2c-0.4,0.2-0.7,0.3-1.1,0.4S208.7,184.4,208.2,184.4z M207.9,178.1c-0.5,0-0.9,0.2-1.2,0.5s-0.5,0.8-0.5,1.3
			h3.2c0-0.6-0.2-1-0.4-1.3S208.4,178.1,207.9,178.1z"/>
		<path style="fill:#FFFFFF;" d="M216.4,184.4c-0.9,0-1.6-0.3-2.1-1h-0.1c0.1,0.6,0.1,1,0.1,1.1v2.9h-1.5v-10.3h1.2
			c0,0.1,0.1,0.5,0.2,1h0.1c0.5-0.7,1.2-1.1,2.1-1.1c0.9,0,1.6,0.3,2.1,1s0.7,1.6,0.7,2.7c0,1.2-0.3,2.1-0.8,2.7
			C217.9,184,217.2,184.4,216.4,184.4z M216,178.2c-0.6,0-1,0.2-1.3,0.5c-0.3,0.4-0.4,0.9-0.4,1.7v0.2c0,0.9,0.1,1.5,0.4,1.9
			c0.3,0.4,0.7,0.6,1.4,0.6c0.5,0,0.9-0.2,1.2-0.6c0.3-0.4,0.4-1,0.4-1.8s-0.1-1.4-0.4-1.8C216.9,178.4,216.5,178.2,216,178.2z"/>
		<path style="fill:#FFFFFF;" d="M222.4,177.1v3.7c0,0.4,0,1.1-0.1,1.9l3.6-5.5h1.9v7.1h-1.5v-3.6c0-0.2,0-0.5,0-1
			c0-0.4,0-0.8,0.1-1l-3.6,5.5H221v-7.1L222.4,177.1L222.4,177.1z"/>
		<path style="fill:#FFFFFF;" d="M235.3,177.1v1.2H233v6h-1.5v-6h-2.3v-1.2H235.3z"/>
		<path style="fill:#FFFFFF;" d="M238.2,177.1v2.9h3.4v-2.9h1.5v7.1h-1.5v-3.1h-3.4v3.1h-1.5v-7.1H238.2z"/>
		<path style="fill:#FFFFFF;" d="M249.7,184.2l-0.3-1h-0.1c-0.3,0.4-0.7,0.7-1,0.9s-0.8,0.2-1.3,0.2c-0.7,0-1.3-0.2-1.6-0.6
			c-0.4-0.4-0.6-0.9-0.6-1.6c0-0.7,0.3-1.3,0.8-1.7s1.4-0.6,2.5-0.6h1.2v-0.4c0-0.5-0.1-0.8-0.3-1s-0.5-0.3-1-0.3
			c-0.4,0-0.7,0.1-1.1,0.2c-0.3,0.1-0.7,0.2-1,0.4l-0.5-1.1c0.4-0.2,0.8-0.4,1.3-0.5s0.9-0.2,1.3-0.2c0.9,0,1.6,0.2,2.1,0.6
			c0.5,0.4,0.7,1,0.7,1.9v4.8L249.7,184.2L249.7,184.2z M247.5,183.2c0.6,0,1-0.2,1.3-0.5s0.5-0.7,0.5-1.3v-0.6h-0.9
			c-0.7,0-1.2,0.1-1.6,0.4c-0.3,0.2-0.5,0.5-0.5,1c0,0.3,0.1,0.6,0.3,0.7S247.1,183.2,247.5,183.2z"/>
	</g>
	<rect x="98.3" y="80.3" style="fill:none;" width="274.5" height="107.8"/>
	<g style="enable-background:new    ;">
		<path style="fill:#FFFFFF;" d="M107.6,85.7c0,1.5-0.4,2.7-1.1,3.6s-1.8,1.3-3.1,1.3c-1.3,0-2.3-0.4-3.1-1.3
			c-0.8-0.9-1.1-2.1-1.1-3.6s0.4-2.7,1.1-3.6c0.8-0.9,1.8-1.3,3.1-1.3c1.3,0,2.4,0.4,3.1,1.3S107.6,84.2,107.6,85.7z M99.8,85.7
			c0,1.4,0.3,2.4,0.9,3.1s1.5,1.1,2.6,1.1s2-0.4,2.6-1.1s0.9-1.8,0.9-3.1c0-1.4-0.3-2.4-0.9-3.1s-1.5-1.1-2.6-1.1s-2,0.4-2.6,1.1
			C100.1,83.3,99.8,84.3,99.8,85.7z"/>
		<path style="fill:#FFFFFF;" d="M114,83.9h-2.3v6.5h-0.6v-6.5h-2.4v-0.6h5.4L114,83.9L114,83.9z"/>
		<path style="fill:#FFFFFF;" d="M120.3,90.4h-0.6V84h-2.5c-0.1,1.7-0.3,3-0.5,3.9s-0.4,1.6-0.7,2c-0.3,0.4-0.7,0.6-1.1,0.6
			c-0.2,0-0.3,0-0.4-0.1v-0.6c0.1,0,0.2,0,0.3,0c0.5,0,0.9-0.5,1.2-1.5c0.3-1,0.5-2.7,0.7-5h3.7L120.3,90.4L120.3,90.4z"/>
		<path style="fill:#FFFFFF;" d="M123.3,83.4v5.1v1.3l4.2-6.4h0.9v7h-0.6v-5V84l-4.2,6.4h-0.8v-7H123.3z"/>
		<path style="fill:#FFFFFF;" d="M131.1,83.4v2.4c0,0.6,0.1,1,0.4,1.3s0.7,0.4,1.3,0.4c0.4,0,0.8-0.1,1.2-0.2
			c0.4-0.2,0.8-0.4,1.2-0.7v-3.1h0.6v7h-0.6v-3.3c-0.4,0.3-0.9,0.6-1.3,0.7c-0.4,0.1-0.9,0.2-1.3,0.2c-0.7,0-1.3-0.2-1.6-0.6
			c-0.4-0.4-0.6-0.9-0.6-1.6v-2.4h0.7V83.4z"/>
		<path style="fill:#FFFFFF;" d="M138.9,83.4v3.1h4.5v-3.1h0.6v7h-0.6V87h-4.5v3.4h-0.6v-7H138.9z"/>
		<path style="fill:#FFFFFF;" d="M150.7,90.4l-0.2-1.1h-0.1c-0.4,0.5-0.7,0.8-1.1,1c-0.4,0.2-0.8,0.3-1.3,0.3
			c-0.7,0-1.2-0.2-1.6-0.5c-0.4-0.4-0.6-0.8-0.6-1.5s0.3-1.2,0.9-1.6s1.4-0.6,2.5-0.6h1.3v-0.5c0-0.7-0.1-1.2-0.4-1.5
			s-0.7-0.5-1.3-0.5c-0.7,0-1.3,0.2-2,0.5l-0.2-0.6c0.8-0.4,1.5-0.5,2.3-0.5s1.3,0.2,1.7,0.6s0.6,1,0.6,1.9v4.7h-0.5V90.4z
			 M148.1,90c0.7,0,1.3-0.2,1.8-0.6c0.4-0.4,0.6-1,0.6-1.8v-0.7l-1.2,0.1c-1,0-1.7,0.2-2.1,0.5c-0.4,0.3-0.6,0.7-0.6,1.2
			c0,0.4,0.1,0.8,0.4,1C147.2,89.8,147.6,90,148.1,90z"/>
		<path style="fill:#FFFFFF;" d="M153.3,90.4h-0.8l2.1-3c-0.6-0.1-1.1-0.3-1.4-0.7c-0.3-0.3-0.4-0.7-0.4-1.3c0-0.6,0.2-1.1,0.6-1.5
			c0.4-0.4,1-0.6,1.7-0.6h2.9v7h-0.6v-3h-2.1L153.3,90.4z M153.5,85.4c0,0.5,0.2,0.8,0.5,1.1c0.3,0.2,0.8,0.4,1.4,0.4h2.1V84h-2.3
			c-0.5,0-0.9,0.1-1.2,0.4C153.6,84.6,153.5,84.9,153.5,85.4z"/>
		<path style="fill:#FFFFFF;" d="M166.8,90.5c-1.1,0-1.9-0.4-2.4-1.2l0,0v0.5c0,0.3,0,0.7,0,1v2.7h-0.6V83.4h0.5l0.1,1l0,0
			c0.5-0.8,1.3-1.1,2.3-1.1c0.9,0,1.7,0.3,2.2,0.9s0.7,1.5,0.7,2.7s-0.3,2.1-0.8,2.7C168.5,90.2,167.8,90.5,166.8,90.5z M166.8,90
			c0.7,0,1.3-0.3,1.7-0.8s0.6-1.3,0.6-2.2c0-2.1-0.7-3.1-2.2-3.1c-0.8,0-1.4,0.2-1.8,0.7c-0.4,0.5-0.6,1.2-0.6,2.2V87
			c0,1.1,0.2,1.9,0.6,2.4C165.4,89.7,166,90,166.8,90z"/>
		<path style="fill:#FFFFFF;" d="M176,90.4l-0.2-1.1h-0.1c-0.4,0.5-0.7,0.8-1.1,1c-0.4,0.2-0.8,0.3-1.3,0.3c-0.7,0-1.2-0.2-1.6-0.5
			c-0.4-0.4-0.6-0.8-0.6-1.5s0.3-1.2,0.9-1.6s1.4-0.6,2.5-0.6h1.3v-0.5c0-0.7-0.1-1.2-0.4-1.5s-0.7-0.5-1.3-0.5
			c-0.7,0-1.3,0.2-2,0.5l-0.2-0.6c0.8-0.4,1.5-0.5,2.3-0.5s1.3,0.2,1.7,0.6s0.6,1,0.6,1.9v4.7H176V90.4z M173.4,90
			c0.7,0,1.3-0.2,1.8-0.6c0.4-0.4,0.6-1,0.6-1.8v-0.7l-1.2,0.1c-1,0-1.7,0.2-2.1,0.5c-0.4,0.3-0.6,0.7-0.6,1.2c0,0.4,0.1,0.8,0.4,1
			C172.5,89.8,172.9,90,173.4,90z"/>
		<path style="fill:#FFFFFF;" d="M178.4,86.2c0-3.1,0.9-4.8,2.6-5.2c0.6-0.2,1.2-0.3,1.7-0.4c0.6-0.1,1-0.2,1.5-0.3l0.1,0.6
			l-0.8,0.1c-1.3,0.2-2.1,0.4-2.5,0.6c-0.6,0.2-1,0.6-1.4,1.2c-0.3,0.6-0.5,1.5-0.6,2.6l0,0c0.5-0.5,0.9-0.9,1.3-1.2
			s0.9-0.4,1.3-0.4c0.9,0,1.5,0.3,2,0.8c0.5,0.6,0.7,1.3,0.7,2.4s-0.3,1.9-0.8,2.5s-1.3,0.9-2.2,0.9c-1,0-1.7-0.4-2.2-1.1
			S178.4,87.6,178.4,86.2z M181.4,90c0.7,0,1.3-0.2,1.7-0.7s0.6-1.2,0.6-2.1s-0.2-1.5-0.5-2c-0.3-0.4-0.9-0.7-1.5-0.7
			c-0.5,0-1,0.2-1.5,0.5s-0.9,0.7-1.2,1.3c0,0.8,0.1,1.4,0.3,2s0.5,1,0.8,1.3S180.9,90,181.4,90z"/>
		<path style="fill:#FFFFFF;" d="M192.1,86.9c0,1.1-0.3,2-0.8,2.7s-1.3,1-2.3,1c-0.6,0-1.2-0.1-1.6-0.4s-0.8-0.7-1.1-1.3
			c-0.2-0.6-0.4-1.2-0.4-1.9c0-1.1,0.3-2,0.8-2.7c0.6-0.6,1.3-1,2.3-1s1.7,0.3,2.3,1C191.9,84.9,192.1,85.8,192.1,86.9z M186.6,86.9
			c0,1,0.2,1.7,0.6,2.3c0.4,0.5,1,0.8,1.8,0.8s1.4-0.3,1.8-0.8c0.4-0.5,0.6-1.3,0.6-2.3s-0.2-1.7-0.6-2.3s-1-0.8-1.8-0.8
			s-1.4,0.3-1.8,0.8C186.8,85.2,186.6,85.9,186.6,86.9z"/>
		<path style="fill:#FFFFFF;" d="M198.5,83.9h-2.3v6.5h-0.6v-6.5h-2.4v-0.6h5.4L198.5,83.9L198.5,83.9z"/>
		<path style="fill:#FFFFFF;" d="M204.3,90.4l-0.2-1.1H204c-0.4,0.5-0.7,0.8-1.1,1c-0.4,0.2-0.8,0.3-1.3,0.3c-0.7,0-1.2-0.2-1.6-0.5
			c-0.4-0.4-0.6-0.8-0.6-1.5s0.3-1.2,0.9-1.6c0.6-0.4,1.4-0.6,2.5-0.6h1.3v-0.5c0-0.7-0.1-1.2-0.4-1.5s-0.7-0.5-1.3-0.5
			c-0.7,0-1.3,0.2-2,0.5l-0.2-0.6c0.8-0.4,1.5-0.5,2.3-0.5s1.3,0.2,1.7,0.6s0.6,1,0.6,1.9v4.7h-0.5V90.4z M201.7,90
			c0.8,0,1.3-0.2,1.8-0.6c0.4-0.4,0.6-1,0.6-1.8v-0.7l-1.2,0.1c-1,0-1.7,0.2-2.1,0.5s-0.6,0.7-0.6,1.2c0,0.4,0.1,0.8,0.4,1
			C200.8,89.8,201.2,90,201.7,90z"/>
		<path style="fill:#FFFFFF;" d="M207.7,88.9l0.1,0.1c-0.3,1.1-0.7,2.2-1.1,3.1h-0.4c0.3-1.2,0.6-2.3,0.7-3.2H207.7z"/>
		<path style="fill:#FFFFFF;" d="M216.1,90.5c-1,0-1.8-0.3-2.4-1c-0.6-0.6-0.9-1.5-0.9-2.6c0-1.2,0.3-2.1,0.9-2.7
			c0.6-0.6,1.4-1,2.4-1c0.6,0,1.2,0.1,1.7,0.3l-0.2,0.6c-0.6-0.2-1.1-0.3-1.6-0.3c-0.9,0-1.5,0.3-2,0.8c-0.4,0.5-0.7,1.3-0.7,2.3
			c0,0.9,0.2,1.7,0.7,2.2c0.4,0.5,1.1,0.8,1.9,0.8c0.6,0,1.2-0.1,1.8-0.3v0.6C217.4,90.4,216.8,90.5,216.1,90.5z"/>
		<path style="fill:#FFFFFF;" d="M220.2,90.4h-0.6v-7h5.6v7h-0.6V84h-4.3L220.2,90.4L220.2,90.4z"/>
		<path style="fill:#FFFFFF;" d="M231.8,90.4l-0.2-1.1h-0.1c-0.4,0.5-0.7,0.8-1.1,1c-0.4,0.2-0.8,0.3-1.3,0.3
			c-0.7,0-1.2-0.2-1.6-0.5c-0.4-0.4-0.6-0.8-0.6-1.5s0.3-1.2,0.9-1.6c0.6-0.4,1.4-0.6,2.5-0.6h1.3v-0.5c0-0.7-0.1-1.2-0.4-1.5
			s-0.7-0.5-1.3-0.5c-0.7,0-1.3,0.2-2,0.5l-0.2-0.6c0.8-0.4,1.5-0.5,2.3-0.5s1.3,0.2,1.7,0.6s0.6,1,0.6,1.9v4.7h-0.5V90.4z
			 M229.2,90c0.8,0,1.3-0.2,1.8-0.6c0.4-0.4,0.6-1,0.6-1.8v-0.7l-1.2,0.1c-1,0-1.7,0.2-2.1,0.5s-0.6,0.7-0.6,1.2
			c0,0.4,0.1,0.8,0.4,1C228.3,89.8,228.7,90,229.2,90z"/>
		<path style="fill:#FFFFFF;" d="M237.4,90.5c-1,0-1.8-0.3-2.4-1c-0.6-0.6-0.9-1.5-0.9-2.6c0-1.2,0.3-2.1,0.9-2.7
			c0.6-0.6,1.4-1,2.4-1c0.6,0,1.2,0.1,1.7,0.3l-0.2,0.6c-0.6-0.2-1.1-0.3-1.6-0.3c-0.9,0-1.5,0.3-2,0.8c-0.4,0.5-0.7,1.3-0.7,2.3
			c0,0.9,0.2,1.7,0.7,2.2c0.4,0.5,1.1,0.8,1.9,0.8c0.6,0,1.2-0.1,1.8-0.3v0.6C238.7,90.4,238.1,90.5,237.4,90.5z"/>
		<path style="fill:#FFFFFF;" d="M241.4,83.4v5.1v1.3l4.2-6.4h0.9v7h-0.6v-5V84l-4.2,6.4h-0.8v-7H241.4z"/>
		<path style="fill:#FFFFFF;" d="M248.4,86.2c0-3.1,0.9-4.8,2.6-5.2c0.6-0.2,1.2-0.3,1.7-0.4s1-0.2,1.5-0.3l0.1,0.6l-0.8,0.1
			c-1.3,0.2-2.1,0.4-2.5,0.6c-0.6,0.2-1,0.6-1.4,1.2c-0.3,0.6-0.5,1.5-0.6,2.6l0,0c0.5-0.5,0.9-0.9,1.3-1.2c0.4-0.2,0.9-0.4,1.3-0.4
			c0.9,0,1.5,0.3,2,0.8c0.5,0.6,0.7,1.3,0.7,2.4s-0.3,1.9-0.8,2.5s-1.3,0.9-2.2,0.9c-1,0-1.7-0.4-2.2-1.1
			C248.7,88.6,248.4,87.6,248.4,86.2z M251.5,90c0.7,0,1.3-0.2,1.7-0.7s0.6-1.2,0.6-2.1s-0.2-1.5-0.5-2c-0.3-0.4-0.9-0.7-1.5-0.7
			c-0.5,0-1,0.2-1.5,0.5s-0.9,0.7-1.2,1.3c0,0.8,0.1,1.4,0.3,2s0.5,1,0.8,1.3C250.5,89.8,251,90,251.5,90z"/>
		<path style="fill:#FFFFFF;" d="M262.2,86.9c0,1.1-0.3,2-0.8,2.7s-1.3,1-2.3,1c-0.6,0-1.2-0.1-1.6-0.4s-0.8-0.7-1.1-1.3
			c-0.2-0.6-0.4-1.2-0.4-1.9c0-1.1,0.3-2,0.8-2.7c0.6-0.6,1.3-1,2.3-1s1.7,0.3,2.3,1C261.9,84.9,262.2,85.8,262.2,86.9z M256.6,86.9
			c0,1,0.2,1.7,0.6,2.3c0.4,0.5,1,0.8,1.8,0.8s1.4-0.3,1.8-0.8s0.6-1.3,0.6-2.3s-0.2-1.7-0.6-2.3s-1-0.8-1.8-0.8s-1.4,0.3-1.8,0.8
			C256.9,85.2,256.6,85.9,256.6,86.9z"/>
		<path style="fill:#FFFFFF;" d="M264,89.9c0-0.4,0.2-0.6,0.5-0.6c0.4,0,0.5,0.2,0.5,0.6s-0.2,0.6-0.5,0.6S264,90.3,264,89.9z
			 M264.7,88h-0.4l-0.2-7h0.8L264.7,88z"/>
	</g>
	<line style="fill:none;stroke:#FFFFFF;stroke-width:1.2978;stroke-miterlimit:10;" x1="93.1" y1="159.3" x2="315" y2="159.3"/>
	<g>
		
			<line style="fill:none;stroke:#FFFFFF;stroke-width:0.9982;stroke-linecap:round;stroke-miterlimit:10;" x1="89.9" y1="59.8" x2="96.3" y2="53.4"/>
		
			<line style="fill:none;stroke:#FFFFFF;stroke-width:0.9982;stroke-linecap:round;stroke-miterlimit:10;" x1="89.9" y1="53.4" x2="96.3" y2="59.8"/>
	</g>
	
		<circle style="fill:none;stroke:#FFFFFF;stroke-width:0.9982;stroke-linecap:round;stroke-miterlimit:10;" cx="93.3" cy="56.4" r="9"/>
	<g id="del_2px_small_5_">
		
			<line style="fill:none;stroke:#FFFFFF;stroke-width:1.2978;stroke-linecap:round;stroke-miterlimit:10;" x1="302.4" y1="47.5" x2="319" y2="47.5"/>
		<path style="fill:none;stroke:#FFFFFF;stroke-width:1.2978;stroke-miterlimit:10;" d="M316.3,50.6c2.1,0,3.8,0.4,3.8,2.5
			l-1.4,11.7c-0.6,3.5-2.5,3.8-3.8,3.8v0.1h-8.3v-0.1c-1.4,0-3.1-0.4-3.8-3.8l-1.4-11.7c0-2.1,1.7-2.5,3.8-2.5v0.1L316.3,50.6"/>
		<path style="fill:none;stroke:#FFFFFF;stroke-width:1.2978;stroke-linecap:round;stroke-miterlimit:10;" d="M313.2,47
			c0-1.6-1.3-2.7-2.9-2.7s-2.9,1.2-2.9,2.7"/>
		
			<path style="opacity:0.5;fill:none;stroke:#FFFFFF;stroke-width:1.2978;stroke-linecap:round;stroke-linejoin:round;stroke-miterlimit:10;enable-background:new    ;" d="
			M316.3,50.6c2.1,0,3.8,0.4,3.8,2.5l-1.4,11.7c-0.6,3.5-2.5,3.8-3.8,3.8v0.1h-8.3v-0.1c-1.4,0-3.1-0.4-3.8-3.8l-1.4-11.7
			c0-2.1,1.7-2.5,3.8-2.5v0.1L316.3,50.6"/>
	</g>
	
		<rect x="92.4" y="73.7" style="fill:none;stroke:#FFFFFF;stroke-width:1.2978;stroke-miterlimit:10;" width="197.3" height="76.6"/>
	<g>
		
			<line style="fill:none;stroke:#FFFFFF;stroke-width:1.2978;stroke-linecap:round;stroke-linejoin:round;stroke-miterlimit:10;" x1="323.4" y1="140.9" x2="298" y2="140.9"/>
		
			<polyline style="fill:none;stroke:#FFFFFF;stroke-width:1.2978;stroke-linecap:round;stroke-linejoin:round;stroke-miterlimit:10;" points="
			314.6,150.3 323.9,141 314.6,131.8 		"/>
	</g>
</g>
</svg>
