<?xml version="1.0" encoding="utf-8"?>
<!-- Generator: Adobe Illustrator 19.2.1, SVG Export Plug-In . SVG Version: 6.00 Build 0)  -->
<svg version="1.1" id="Слой_1" xmlns="http://www.w3.org/2000/svg" xmlns:xlink="http://www.w3.org/1999/xlink" x="0px" y="0px"
	 viewBox="0 0 632.4 112.3" style="enable-background:new 0 0 632.4 112.3;" xml:space="preserve">
<g>
	<g>
		<path style="fill:#0067D0;" d="M299.9,78.5c7.6-5.1,12.2-10.8,14.6-19.7c-2.9-0.4-5.9-0.8-8.8-1.2c-1.3,11.8-4.9,23.2-6.3,35
			c-0.7,5.7,8.3,5.7,9,0c1.3-11.8,4.9-23.2,6.3-35c0.6-5.1-7.5-6-8.8-1.2c-1.9,6.7-4.8,10.5-10.6,14.3
			C290.6,73.9,295.1,81.7,299.9,78.5L299.9,78.5z"/>
	</g>
</g>
<g>
	<g>
		<path style="fill:#0067D0;" d="M358.5,67.9c0.2-6.2,9-2.6,7.1,3.3c-1.3,3.8-5.8,5.3-8.9,7.3c-4.1,2.7-12.8,9.6-10.3,15.5
			c1.7,3.8,7.3,3.3,10.7,3.3c5.1,0.1,10.4,0.2,15.4-0.9c5.6-1.3,3.3-10-2.4-8.7c-3.3,0.8-6.9,0.7-10.3,0.7c-1.7,0-3.4,0-5.1-0.1
			c-0.6,0-1.8-0.3-2.4-0.1c-0.9,0.2-0.4-0.4,0.5,0.3c0.7,1.3,1.5,2.6,2.2,3.9c-0.5,1.4-0.4,1.3,0.4-0.3c0.6-0.9,1.2-1.8,2-2.6
			c1.1-1.2,2.4-2.2,3.8-3.1c2.9-1.9,6.2-3.3,8.8-5.8c4.3-4.1,6.1-10.5,4-16.2c-4.8-13.1-24-10.4-24.6,3.6
			C349.3,73.7,358.3,73.7,358.5,67.9L358.5,67.9z"/>
	</g>
</g>
<g>
	<g>
		<path style="fill:#0067D0;" d="M554,85.9c0.2,6.2,4.6,11.9,11.2,12.4c6.4,0.4,11.6-4.3,14-9.9c3.6-8.3-0.6-14.2-8.2-17.5
			c-0.1-0.1-1.4-0.3-0.8-0.3c-0.2-0.1-0.5-0.2-0.7-0.3c-1.2,5.6-0.6,7.4,1.5,5.3c2.3-1.2,4.5-3.7,6.2-5.5c2.8-2.9,7.9-9.1,2.6-12.4
			c-2.7-1.7-7.4-1.2-10.5-1.2c-4.5,0-9.3-0.1-13.8,1c-5.6,1.3-3.3,10,2.4,8.7c3.3-0.8,6.9-0.7,10.3-0.7c1.7,0,3.4,0,5.1,0.1
			c0.6,0,1.8,0.3,2.4,0.1c0.9-0.2,0.4,0.4-0.5-0.3c-0.7-1.3-1.5-2.6-2.2-3.9c0.5-1.3,0.4-1.3-0.2-0.2c-0.5,0.6-1,1.2-1.6,1.8
			c-0.9,1-1.9,1.9-2.9,2.8c-1.7,1.5-4.3,2.9-5.5,4.8c-1.8,2.8-0.3,5.8,2.3,7.3c1.7,0.9,4.9,1.3,6,3.1c2.7,4.5-8,12.2-8.3,4.5
			C562.8,80.2,553.8,80.1,554,85.9L554,85.9z"/>
	</g>
</g>
<g>
	<g>
		<rect x="71.7" y="19" style="fill:none;" width="216.3" height="24.5"/>
		<text transform="matrix(1 0 0 1 71.6665 37.2402)" style="fill:#6EBAF9; font-family:'OpenSans-Light'; font-size:24px;">Bin for «Project»</text>
	</g>
	
		<line style="fill:none;stroke:#69BFFF;stroke-width:2;stroke-linecap:round;stroke-linejoin:round;stroke-miterlimit:10;" x1="27.7" y1="38" x2="19.6" y2="30"/>
	
		<line style="fill:none;stroke:#69BFFF;stroke-width:2;stroke-linecap:round;stroke-linejoin:round;stroke-miterlimit:10;" x1="20" y1="30.3" x2="42" y2="30.3"/>
	
		<line style="fill:none;stroke:#69BFFF;stroke-width:2;stroke-linecap:round;stroke-linejoin:round;stroke-miterlimit:10;" x1="19.6" y1="30.1" x2="27.6" y2="22"/>
	<g>
		
			<line style="fill:none;stroke:#69BFFF;stroke-width:2;stroke-linecap:round;stroke-linejoin:round;stroke-miterlimit:10;" x1="300" y1="21" x2="317" y2="21"/>
		<path style="fill:#69BFFF;stroke:#69BFFF;stroke-width:2;stroke-linecap:round;stroke-linejoin:round;stroke-miterlimit:10;" d="
			M317.6,27c0-2.1-1.4-3-3.6-3h-11.4c-2.2,0-3.6,0.8-3.6,3l1.1,8.8c0.5,3.2,2.5,4.3,3.9,4.3h8.5c1.4,0,3.5-0.1,4-4.4L317.6,27z"/>
		<path style="fill:#FFFFFF;stroke:#69BFFF;stroke-width:2;stroke-linecap:round;stroke-linejoin:round;stroke-miterlimit:10;" d="
			M310.8,20.1c0-1.4-1.1-2.5-2.5-2.5s-2.5,1.1-2.5,2.5"/>
		
			<line style="fill:none;stroke:#FFFFFF;stroke-width:2;stroke-linecap:round;stroke-linejoin:round;stroke-miterlimit:10;" x1="312" y1="28" x2="305.2" y2="35"/>
		
			<line style="fill:none;stroke:#FFFFFF;stroke-width:2;stroke-linecap:round;stroke-linejoin:round;stroke-miterlimit:10;" x1="305" y1="28.1" x2="312" y2="35"/>
		<g>
			
				<line style="fill:none;stroke:#69BFFF;stroke-width:2;stroke-linecap:round;stroke-linejoin:round;stroke-miterlimit:10;" x1="350" y1="21.3" x2="367" y2="21.3"/>
			<path style="fill:#69BFFF;stroke:#69BFFF;stroke-width:2;stroke-linecap:round;stroke-linejoin:round;stroke-miterlimit:10;" d="
				M367.6,26.7c0-2.1-1.4-2.4-3.6-2.4h-11.4c-2.2,0-3.6,0.2-3.6,2.3l1.1,9.3c0.5,3.2,2.5,4.4,3.9,4.4h8.5c1.4,0,3.5-0.2,4-4.5
				L367.6,26.7z"/>
			<path style="fill:#FFFFFF;stroke:#69BFFF;stroke-width:2;stroke-linecap:round;stroke-linejoin:round;stroke-miterlimit:10;" d="
				M360.8,20.1c0-1.4-1.1-2.5-2.5-2.5s-2.5,1.1-2.5,2.5"/>
			
				<line style="fill:none;stroke:#FFFFFF;stroke-width:2;stroke-linecap:round;stroke-linejoin:round;stroke-miterlimit:10;" x1="359" y1="28.3" x2="355" y2="28.3"/>
			
				<line style="fill:none;stroke:#FFFFFF;stroke-width:2;stroke-linecap:round;stroke-linejoin:round;stroke-miterlimit:10;" x1="355" y1="28.1" x2="362" y2="35"/>
			
				<line style="fill:none;stroke:#FFFFFF;stroke-width:2;stroke-linecap:round;stroke-linejoin:round;stroke-miterlimit:10;" x1="355" y1="32.3" x2="355" y2="28.3"/>
		</g>
	</g>
</g>
<g id="info_17_">
	
		<line style="fill:none;stroke:#70B9F6;stroke-width:2;stroke-linecap:round;stroke-linejoin:round;stroke-miterlimit:10;" x1="618" y1="19.3" x2="618" y2="32.3"/>
	<circle style="fill:#70B9F6;" cx="618.1" cy="15" r="1.5"/>
</g>
<g>
	
		<polyline style="fill:none;stroke:#70B9F6;stroke-width:2;stroke-linecap:round;stroke-linejoin:round;stroke-miterlimit:10;" points="
		573.6,31.7 566.1,14.7 566.1,14.7 558.6,31.7 	"/>
	
		<line style="fill:none;stroke:#70B9F6;stroke-width:2;stroke-linecap:round;stroke-linejoin:round;stroke-miterlimit:10;" x1="561" y1="27.3" x2="571" y2="27.3"/>
	
		<polyline style="fill:none;stroke:#70B9F6;stroke-width:2;stroke-linecap:round;stroke-linejoin:round;stroke-miterlimit:10;" points="
		578,19.3 585.9,19.3 577.3,31.3 586,31.3 	"/>
</g>
</svg>
