<?xml version="1.0" encoding="utf-8"?>
<!-- Generator: Adobe Illustrator 19.2.1, SVG Export Plug-In . SVG Version: 6.00 Build 0)  -->
<svg version="1.1" id="Слой_1" xmlns="http://www.w3.org/2000/svg" xmlns:xlink="http://www.w3.org/1999/xlink" x="0px" y="0px"
	 viewBox="0 0 446 90" style="enable-background:new 0 0 446 90;" xml:space="preserve">
<rect style="fill:#A0CAFC;" width="446" height="90"/>
<g>
	<g>
		<g>
			<rect x="-24.4" y="40.1" style="fill:none;" width="288" height="38.8"/>
			<g style="enable-background:new    ;">
				<path style="fill:#FFFDFC;" d="M99.6,42.5c0,0.5-0.2,0.9-0.5,1.2s-0.7,0.5-1.2,0.6l0,0c0.6,0.1,1.1,0.3,1.4,0.6s0.5,0.7,0.5,1.3
					c0,0.7-0.3,1.3-0.8,1.7s-1.2,0.6-2.2,0.6c-0.8,0-1.5-0.1-2.1-0.4v-0.5c0.3,0.2,0.6,0.3,1,0.4c0.4,0.1,0.7,0.1,1.1,0.1
					c0.8,0,1.4-0.2,1.8-0.5s0.6-0.8,0.6-1.3s-0.2-0.9-0.6-1.2s-1-0.4-1.8-0.4H96v-0.5h0.9c0.7,0,1.2-0.2,1.6-0.5s0.6-0.7,0.6-1.2
					c0-0.4-0.2-0.8-0.5-1S97.9,41,97.4,41c-0.4,0-0.7,0.1-1.1,0.2c-0.3,0.1-0.7,0.3-1.1,0.6l-0.3-0.4c0.3-0.3,0.7-0.5,1.1-0.6
					s0.9-0.2,1.3-0.2c0.7,0,1.3,0.2,1.7,0.5C99.4,41.4,99.6,41.9,99.6,42.5z"/>
				<path style="fill:#FFFDFC;" d="M108.1,46.9c0,0.5-0.2,0.9-0.6,1.2s-1,0.4-1.7,0.4c-0.8,0-1.4-0.1-1.9-0.4v-0.6
					c0.6,0.3,1.2,0.4,1.9,0.4c0.6,0,1-0.1,1.3-0.3s0.4-0.4,0.4-0.8c0-0.3-0.1-0.5-0.4-0.7c-0.2-0.2-0.6-0.4-1.2-0.6
					c-0.6-0.2-1-0.4-1.2-0.5c-0.2-0.2-0.4-0.3-0.5-0.5s-0.2-0.4-0.2-0.7c0-0.4,0.2-0.8,0.6-1c0.4-0.3,0.9-0.4,1.5-0.4
					s1.2,0.1,1.8,0.4l-0.2,0.5c-0.6-0.2-1.1-0.4-1.6-0.4s-0.9,0.1-1.1,0.2c-0.3,0.2-0.4,0.4-0.4,0.6c0,0.3,0.1,0.5,0.3,0.7
					c0.2,0.2,0.6,0.4,1.3,0.6c0.5,0.2,0.9,0.4,1.2,0.5c0.2,0.2,0.4,0.3,0.5,0.5C108,46.4,108.1,46.7,108.1,46.9z"/>
				<path style="fill:#FFFDFC;" d="M112,48.5c-0.9,0-1.5-0.3-2-0.8s-0.7-1.2-0.7-2.2c0-0.9,0.2-1.7,0.7-2.2c0.5-0.6,1.1-0.8,1.9-0.8
					c0.7,0,1.2,0.2,1.6,0.7s0.6,1.1,0.6,1.9v0.4h-4.2c0,0.8,0.2,1.4,0.6,1.8s0.9,0.6,1.6,0.6c0.3,0,0.6,0,0.9-0.1
					c0.3,0,0.6-0.1,1-0.3V48c-0.3,0.1-0.6,0.2-0.9,0.3C112.6,48.5,112.3,48.5,112,48.5z M111.8,43c-0.6,0-1,0.2-1.4,0.6
					c-0.3,0.4-0.5,0.9-0.6,1.6h3.6c0-0.7-0.1-1.2-0.4-1.6C112.8,43.2,112.3,43,111.8,43z"/>
				<path style="fill:#FFFDFC;" d="M116.2,48.4h-0.5v-8.3h0.5V48.4z"/>
				<path style="fill:#FFFDFC;" d="M120.5,48.5c-0.9,0-1.5-0.3-2-0.8s-0.7-1.2-0.7-2.2c0-0.9,0.2-1.7,0.7-2.2
					c0.5-0.6,1.1-0.8,1.9-0.8c0.7,0,1.2,0.2,1.6,0.7s0.6,1.1,0.6,1.9v0.4h-4.2c0,0.8,0.2,1.4,0.6,1.8s0.9,0.6,1.6,0.6
					c0.3,0,0.6,0,0.9-0.1c0.3,0,0.6-0.1,1-0.3V48c-0.3,0.1-0.6,0.2-0.9,0.3C121.2,48.5,120.9,48.5,120.5,48.5z M120.4,43
					c-0.6,0-1,0.2-1.4,0.6c-0.3,0.4-0.5,0.9-0.6,1.6h3.6c0-0.7-0.1-1.2-0.4-1.6C121.3,43.2,120.9,43,120.4,43z"/>
				<path style="fill:#FFFDFC;" d="M126.6,48.5c-0.8,0-1.5-0.3-2-0.8s-0.7-1.2-0.7-2.2s0.2-1.7,0.7-2.2s1.2-0.8,2-0.8
					c0.5,0,1,0.1,1.5,0.3l-0.1,0.5c-0.5-0.2-0.9-0.3-1.3-0.3c-0.7,0-1.3,0.2-1.6,0.7c-0.4,0.4-0.6,1.1-0.6,1.9
					c0,0.8,0.2,1.4,0.6,1.8c0.4,0.4,0.9,0.7,1.6,0.7c0.5,0,1-0.1,1.5-0.3v0.5C127.7,48.4,127.2,48.5,126.6,48.5z"/>
				<path style="fill:#FFFDFC;" d="M131,48.1c0.3,0,0.6,0,0.9-0.1v0.4c-0.3,0.1-0.6,0.1-0.9,0.1c-0.5,0-0.9-0.1-1.1-0.4
					c-0.2-0.3-0.4-0.7-0.4-1.3v-3.7h-0.9v-0.3l0.9-0.2l0.3-1.3h0.3v1.4h1.7v0.5H130v3.7c0,0.4,0.1,0.8,0.2,1
					C130.4,48,130.7,48.1,131,48.1z"/>
				<path style="fill:#FFFDFC;" d="M135.5,48.5c-0.9,0-1.5-0.3-2-0.8s-0.7-1.2-0.7-2.2c0-0.9,0.2-1.7,0.7-2.2
					c0.5-0.6,1.1-0.8,1.9-0.8c0.7,0,1.2,0.2,1.6,0.7c0.4,0.5,0.6,1.1,0.6,1.9v0.4h-4.2c0,0.8,0.2,1.4,0.6,1.8s0.9,0.6,1.6,0.6
					c0.3,0,0.6,0,0.9-0.1c0.3,0,0.6-0.1,1-0.3V48c-0.3,0.1-0.6,0.2-0.9,0.3C136.2,48.5,135.9,48.5,135.5,48.5z M135.4,43
					c-0.6,0-1,0.2-1.4,0.6c-0.3,0.4-0.5,0.9-0.6,1.6h3.6c0-0.7-0.1-1.2-0.4-1.6C136.3,43.2,135.9,43,135.4,43z"/>
				<path style="fill:#FFFDFC;" d="M141.3,42.5c0.4,0,0.8,0.1,1.1,0.2c0.3,0.2,0.6,0.4,0.8,0.8l0,0c0-0.4,0-0.9,0-1.3v-2.1h0.5v8.3
					h-0.4l-0.1-0.9l0,0c-0.4,0.7-1.1,1-1.9,1c-0.8,0-1.4-0.2-1.9-0.7s-0.6-1.2-0.6-2.2s0.2-1.8,0.6-2.3
					C139.9,42.8,140.5,42.5,141.3,42.5z M141.3,43c-0.6,0-1.1,0.2-1.4,0.7c-0.3,0.4-0.5,1.1-0.5,1.9c0,1.6,0.6,2.5,1.9,2.5
					c0.7,0,1.1-0.2,1.5-0.6c0.3-0.4,0.5-1,0.5-1.9v-0.1c0-0.9-0.2-1.5-0.5-1.9S142,43,141.3,43z"/>
			</g>
		</g>
	</g>
</g>
<g>
	<line style="fill:none;stroke:#FFFFFF;stroke-width:0.5732;stroke-miterlimit:10;" x1="42.9" y1="48.2" x2="52.6" y2="38.4"/>
	<line style="fill:none;stroke:#FFFFFF;stroke-width:0.5732;stroke-miterlimit:10;" x1="52.6" y1="48.2" x2="42.9" y2="38.4"/>
</g>
<g>
	<g>
		<path style="fill:#FFFFFF;" d="M300,30v27h-90V30H300 M301,29h-92v29h92V29L301,29z"/>
	</g>
</g>
<g>
	<g>
		<path style="fill:#FFFFFF;" d="M400,30v27h-90V30H400 M401,29h-92v29h92V29L401,29z"/>
	</g>
</g>
<g>
	<g>
		<polygon style="fill:none;" points="305.3,72.9 202.6,72.9 202.6,38.4 305.5,38.4 		"/>
		<g style="enable-background:new    ;">
			<path style="fill:#FFFDFC;" d="M245.1,42.7c0,1.3-0.3,2.3-1,3s-1.7,1-3,1h-1.9v-7.8h2.1c1.2,0,2.2,0.3,2.8,1
				C244.8,40.6,245.1,41.5,245.1,42.7z M244.6,42.8c0-1.1-0.3-2-0.8-2.5c-0.6-0.6-1.4-0.8-2.5-0.8h-1.4v6.8h1.3
				C243.4,46.2,244.6,45.1,244.6,42.8z"/>
			<path style="fill:#FFFDFC;" d="M249.1,46.8c-0.8,0-1.5-0.3-2-0.8s-0.7-1.2-0.7-2.2c0-0.9,0.2-1.7,0.7-2.2
				c0.5-0.6,1.1-0.8,1.8-0.8s1.2,0.2,1.6,0.7c0.4,0.5,0.6,1.1,0.6,1.9v0.4H247c0,0.8,0.2,1.4,0.6,1.8c0.4,0.4,0.9,0.6,1.6,0.6
				c0.3,0,0.6,0,0.9-0.1c0.2,0,0.6-0.1,0.9-0.3v0.5c-0.3,0.1-0.6,0.2-0.9,0.3S249.5,46.8,249.1,46.8z M249,41.3
				c-0.6,0-1,0.2-1.3,0.6s-0.5,0.9-0.6,1.6h3.6c0-0.7-0.1-1.2-0.4-1.6C249.9,41.5,249.5,41.3,249,41.3z"/>
			<path style="fill:#FFFDFC;" d="M253.3,46.7h-0.5v-8.3h0.5V46.7z"/>
			<path style="fill:#FFFDFC;" d="M257.6,46.8c-0.8,0-1.5-0.3-2-0.8s-0.7-1.2-0.7-2.2c0-0.9,0.2-1.7,0.7-2.2
				c0.5-0.6,1.1-0.8,1.8-0.8c0.7,0,1.2,0.2,1.6,0.7s0.6,1.1,0.6,1.9v0.4h-4.2c0,0.8,0.2,1.4,0.6,1.8c0.4,0.4,0.9,0.6,1.6,0.6
				c0.3,0,0.6,0,0.9-0.1c0.2,0,0.6-0.1,0.9-0.3v0.5c-0.3,0.1-0.6,0.2-0.9,0.3C258.2,46.8,257.9,46.8,257.6,46.8z M257.4,41.3
				c-0.6,0-1,0.2-1.3,0.6c-0.3,0.4-0.5,0.9-0.6,1.6h3.6c0-0.7-0.1-1.2-0.4-1.6C258.3,41.5,257.9,41.3,257.4,41.3z"/>
			<path style="fill:#FFFDFC;" d="M262.7,46.3c0.3,0,0.6,0,0.9-0.1v0.4c-0.3,0.1-0.5,0.1-0.9,0.1c-0.5,0-0.9-0.1-1.1-0.4
				c-0.2-0.3-0.4-0.7-0.4-1.3v-3.7h-0.9V41l0.9-0.2l0.3-1.3h0.3v1.4h1.7v0.5h-1.7V45c0,0.4,0.1,0.8,0.2,1
				C262.2,46.2,262.4,46.3,262.7,46.3z"/>
			<path style="fill:#FFFDFC;" d="M267.2,46.8c-0.8,0-1.5-0.3-2-0.8s-0.7-1.2-0.7-2.2c0-0.9,0.2-1.7,0.7-2.2
				c0.5-0.6,1.1-0.8,1.8-0.8c0.7,0,1.2,0.2,1.6,0.7s0.6,1.1,0.6,1.9v0.4H265c0,0.8,0.2,1.4,0.6,1.8c0.4,0.4,0.9,0.6,1.6,0.6
				c0.3,0,0.6,0,0.9-0.1s0.6-0.1,0.9-0.3v0.5c-0.3,0.1-0.6,0.2-0.9,0.3C267.8,46.8,267.5,46.8,267.2,46.8z M267,41.3
				c-0.6,0-1,0.2-1.3,0.6c-0.3,0.4-0.5,0.9-0.6,1.6h3.6c0-0.7-0.1-1.2-0.4-1.6C268,41.5,267.6,41.3,267,41.3z"/>
		</g>
	</g>
</g>
<g>
	<g>
		<g>
			<rect x="309.2" y="39" style="fill:none;" width="90.8" height="24.5"/>
			<g style="enable-background:new    ;">
				<path style="fill:#FFFDFC;" d="M337.3,43.9v3.4h-0.5v-7.8h1.9c1,0,1.7,0.2,2.1,0.5c0.5,0.4,0.7,0.9,0.7,1.6c0,0.5-0.1,1-0.4,1.3
					c-0.3,0.4-0.7,0.6-1.3,0.8l2.1,3.5h-0.6l-2-3.4h-2L337.3,43.9L337.3,43.9z M337.3,43.4h1.5c0.7,0,1.2-0.1,1.5-0.4
					c0.4-0.3,0.5-0.7,0.5-1.3s-0.2-1-0.5-1.3s-0.9-0.4-1.7-0.4h-1.3V43.4z"/>
				<path style="fill:#FFFDFC;" d="M345.5,47.4c-0.8,0-1.5-0.3-2-0.8s-0.7-1.2-0.7-2.2c0-0.9,0.2-1.7,0.7-2.2
					c0.5-0.6,1.1-0.8,1.8-0.8c0.7,0,1.2,0.2,1.6,0.7s0.6,1.1,0.6,1.9v0.4h-4.2c0,0.8,0.2,1.4,0.6,1.8c0.4,0.4,0.9,0.6,1.6,0.6
					c0.3,0,0.6,0,0.9-0.1s0.6-0.1,0.9-0.3V47c-0.3,0.1-0.6,0.2-0.9,0.3S345.8,47.4,345.5,47.4z M345.3,41.9c-0.6,0-1,0.2-1.3,0.6
					s-0.5,0.9-0.6,1.6h3.6c0-0.7-0.1-1.2-0.4-1.6C346.2,42,345.8,41.9,345.3,41.9z"/>
				<path style="fill:#FFFDFC;" d="M352.7,45.8c0,0.5-0.2,0.9-0.6,1.2s-1,0.4-1.7,0.4c-0.8,0-1.4-0.1-1.8-0.4v-0.6
					c0.6,0.3,1.2,0.4,1.8,0.4c0.6,0,1-0.1,1.3-0.3s0.4-0.4,0.4-0.8c0-0.3-0.1-0.5-0.4-0.7c-0.2-0.2-0.6-0.4-1.2-0.6
					c-0.6-0.2-1-0.4-1.2-0.5c-0.2-0.2-0.4-0.3-0.5-0.5s-0.2-0.4-0.2-0.7c0-0.4,0.2-0.8,0.5-1c0.4-0.3,0.9-0.4,1.5-0.4
					s1.2,0.1,1.8,0.4l-0.2,0.5c-0.6-0.2-1.1-0.4-1.6-0.4s-0.8,0.1-1.1,0.2c-0.3,0.2-0.4,0.4-0.4,0.6c0,0.3,0.1,0.5,0.3,0.7
					c0.2,0.2,0.6,0.4,1.3,0.6c0.5,0.2,0.9,0.4,1.1,0.5c0.2,0.2,0.4,0.3,0.5,0.5S352.7,45.5,352.7,45.8z"/>
				<path style="fill:#FFFDFC;" d="M355.7,46.9c0.3,0,0.6,0,0.9-0.1v0.4c-0.3,0.1-0.5,0.1-0.9,0.1c-0.5,0-0.9-0.1-1.1-0.4
					c-0.2-0.3-0.4-0.7-0.4-1.3V42h-0.9v-0.3l0.9-0.2l0.3-1.3h0.3v1.4h1.7V42h-1.7v3.7c0,0.4,0.1,0.8,0.2,1S355.4,46.9,355.7,46.9z"
					/>
				<path style="fill:#FFFDFC;" d="M362.6,44.4c0,0.9-0.2,1.7-0.7,2.2s-1.1,0.8-1.9,0.8c-0.5,0-1-0.1-1.3-0.4
					c-0.4-0.2-0.7-0.6-0.9-1.1c-0.2-0.5-0.3-1-0.3-1.6c0-0.9,0.2-1.7,0.7-2.2s1.1-0.8,1.9-0.8s1.4,0.3,1.9,0.8
					C362.4,42.7,362.6,43.4,362.6,44.4z M358,44.4c0,0.8,0.2,1.4,0.5,1.9c0.3,0.4,0.8,0.7,1.5,0.7c0.6,0,1.1-0.2,1.5-0.7
					c0.3-0.4,0.5-1.1,0.5-1.9c0-0.8-0.2-1.4-0.5-1.9c-0.4-0.4-0.8-0.7-1.5-0.7c-0.6,0-1.1,0.2-1.5,0.7C358.2,43,358,43.6,358,44.4z"
					/>
				<path style="fill:#FFFDFC;" d="M366.5,41.4c0.2,0,0.5,0,0.8,0.1l-0.1,0.5c-0.2-0.1-0.5-0.1-0.8-0.1c-0.5,0-0.9,0.2-1.2,0.6
					c-0.3,0.4-0.5,0.9-0.5,1.6v3.2h-0.5v-5.8h0.4l0.1,1l0,0c0.2-0.4,0.5-0.7,0.8-0.9S366.1,41.4,366.5,41.4z"/>
				<path style="fill:#FFFDFC;" d="M370.8,47.4c-0.8,0-1.5-0.3-2-0.8s-0.7-1.2-0.7-2.2c0-0.9,0.2-1.7,0.7-2.2
					c0.5-0.6,1.1-0.8,1.8-0.8c0.7,0,1.2,0.2,1.6,0.7s0.6,1.1,0.6,1.9v0.4h-4.2c0,0.8,0.2,1.4,0.6,1.8c0.4,0.4,0.9,0.6,1.6,0.6
					c0.3,0,0.6,0,0.9-0.1c0.2,0,0.6-0.1,0.9-0.3V47c-0.3,0.1-0.6,0.2-0.9,0.3S371.1,47.4,370.8,47.4z M370.6,41.9
					c-0.6,0-1,0.2-1.3,0.6s-0.5,0.9-0.6,1.6h3.6c0-0.7-0.1-1.2-0.4-1.6C371.5,42,371.1,41.9,370.6,41.9z"/>
			</g>
		</g>
	</g>
</g>
</svg>
