<?xml version="1.0" encoding="utf-8"?>
<!-- Generator: Adobe Illustrator 19.2.1, SVG Export Plug-In . SVG Version: 6.00 Build 0)  -->
<svg version="1.1" id="Layer_1" xmlns="http://www.w3.org/2000/svg" xmlns:xlink="http://www.w3.org/1999/xlink" x="0px" y="0px"
	 viewBox="0 0 1100 340" style="enable-background:new 0 0 1100 340;" xml:space="preserve">
<g id="Слой_1">
	<g id="Browser-Dark_1_">
		<rect y="0.5" style="fill:#8ECDF7;" width="1100" height="65.5"/>
		<line style="fill:none;stroke:#EBEBEB;stroke-miterlimit:10;" x1="220.5" y1="314.5" x2="220.5" y2="66.5"/>
		<g id="taskmanager_1_">
			
				<circle style="fill:none;stroke:#808080;stroke-linecap:round;stroke-linejoin:round;stroke-miterlimit:10;" cx="26" cy="93.8" r="5.8"/>
			
				<line style="fill:none;stroke:#808080;stroke-linecap:round;stroke-linejoin:round;stroke-miterlimit:10;" x1="25.6" y1="95.7" x2="29.3" y2="92"/>
			
				<line style="fill:none;stroke:#808080;stroke-linecap:round;stroke-linejoin:round;stroke-miterlimit:10;" x1="25.6" y1="95.7" x2="23.7" y2="93.9"/>
			
				<circle style="fill:none;stroke:#808080;stroke-linecap:round;stroke-linejoin:round;stroke-miterlimit:10;" cx="26" cy="107.2" r="5.8"/>
		</g>
		<g id="access_1_">
			<g id="access_2_">
				<path style="fill:none;stroke:#808080;stroke-linecap:round;stroke-linejoin:round;stroke-miterlimit:10;" d="M26.1,193.8
					l6.2-6.2c1.6-1.6,4.1-1.6,5.7,0l0.8,0.8c1.6,1.6,1.6,4.1,0,5.7l-6.2,6.2c-1.6,1.6-4.1,1.6-5.7,0l-0.8-0.8"/>
				<path style="fill:none;stroke:#808080;stroke-linecap:round;stroke-linejoin:round;stroke-miterlimit:10;" d="M28.8,204.1
					l-6.2,6.2c-1.6,1.6-4.1,1.6-5.7,0l-0.8-0.8c-1.6-1.6-1.6-4.1,0-5.7l6.2-6.2c1.6-1.6,4.1-1.6,5.7,0l0.8,0.8"/>
			</g>
		</g>
		<g>
			
				<line style="fill:none;stroke:#808080;stroke-linecap:round;stroke-linejoin:round;stroke-miterlimit:10;" x1="18" y1="139" x2="35" y2="139"/>
			<path style="fill:none;stroke:#808080;stroke-linecap:round;stroke-linejoin:round;stroke-miterlimit:10;" d="M35.6,142.8
				c0-2.1-1.4-1.8-3.6-1.8H20.7c-2.2,0-3.6-0.4-3.6,1.7l1.1,13.1c0.5,3.2,2.5,4.2,3.9,4.2h8.5c1.4,0,3.5,0,4-4.3L35.6,142.8z"/>
			<path style="fill:none;stroke:#808080;stroke-linecap:round;stroke-linejoin:round;stroke-miterlimit:10;" d="M28.8,138.6
				c0-1.4-1.1-2.5-2.5-2.5s-2.5,1.1-2.5,2.5"/>
			<rect x="23.3" y="146.5" style="fill:none;" width="8.5" height="13.3"/>
			<text transform="matrix(1 0 0 1 23.3335 154.0996)" style="fill:#808080; font-family:'OpenSans-Light'; font-size:10px;">2</text>
		</g>
		<rect x="60.9" y="90" style="fill:none;" width="138.6" height="27.5"/>
		<text transform="matrix(1 0 0 1 60.8997 102.1587)" style="fill:#808080; font-family:'OpenSans-Light'; font-size:16px;">Task Manager</text>
		<rect x="60.9" y="140" style="fill:none;" width="138.9" height="27.5"/>
		<text transform="matrix(1 0 0 1 60.8997 152.1587)" style="fill:#808080; font-family:'OpenSans-Light'; font-size:16px;">Bin</text>
		<rect x="60.9" y="189" style="fill:none;" width="137" height="27.5"/>
		<text transform="matrix(1 0 0 1 60.8997 201.1587)" style="fill:#808080; font-family:'OpenSans-Light'; font-size:16px;">Link</text>
		<rect x="486.8" y="120.3" style="fill:#F2F2F2;" width="248.7" height="208"/>
		<rect x="753.8" y="120.3" style="fill:#F2F2F2;" width="248.7" height="208"/>
		<rect x="253" y="157.5" style="fill:#E0E0E0;" width="192" height="125"/>
		<rect x="253" y="146.5" style="fill:#CCCCCC;" width="74" height="11"/>
		<g>
			<rect x="252.8" y="295" style="fill:none;" width="159.5" height="38.6"/>
			<text transform="matrix(1 0 0 1 252.772 305.584)" style="fill:#848484; font-family:'OpenSans-Light'; font-size:13.9134px;">Folder 1</text>
		</g>
		<rect x="514" y="157.5" style="fill:#E0E0E0;" width="192" height="125"/>
		<rect x="514" y="146.5" style="fill:#CCCCCC;" width="73" height="11"/>
		<g>
			<rect x="513.6" y="295" style="fill:none;" width="159.5" height="38.6"/>
			<text transform="matrix(1 0 0 1 513.6338 305.584)" style="fill:#848484; font-family:'OpenSans-Light'; font-size:13.9134px;">Folder 2</text>
		</g>
		<rect x="777" y="157.5" style="fill:#E0E0E0;" width="192" height="125"/>
		<rect x="777" y="146.5" style="fill:#CCCCCC;" width="73" height="11"/>
		<g>
			<rect x="776.5" y="295" style="fill:none;" width="159.5" height="38.6"/>
			<text transform="matrix(1 0 0 1 776.4971 305.584)" style="fill:#848484; font-family:'OpenSans-Light'; font-size:13.9134px;">Folder 3</text>
		</g>
		<g>
			<g>
				<polyline style="fill:#FFFFFF;stroke:#69BFFF;stroke-linecap:round;stroke-linejoin:round;stroke-miterlimit:10;" points="
					445.6,88.1 445.6,85.8 453.9,85.8 453.9,88.1 				"/>
				<path style="fill:#69BFFF;stroke:#69BFFF;stroke-linecap:round;stroke-linejoin:round;stroke-miterlimit:10;" d="M463.2,103.3
					h-14.8c-1.6,0-2.8-1.3-2.8-2.8V87.9v0.6h17.5c1.6,0,2.7,0.6,2.7,2v9.8C465.9,102,464.7,103.3,463.2,103.3z"/>
				<path style="fill:#69BFFF;stroke:#69BFFF;stroke-linecap:round;stroke-linejoin:round;stroke-miterlimit:10;" d="M520.1,105.1
					c-1.3,0-2.8-1.9-2.8-3.2V89.6l4.6-3.8h7.8c1.3,0,2.3,0.4,2.3,1.7v14.4c0,1.3-0.9,3.2-2.3,3.2
					C529.7,105.1,520.1,105.1,520.1,105.1z"/>
				
					<line style="fill:none;stroke:#FFFFFF;stroke-linecap:round;stroke-linejoin:round;stroke-miterlimit:10;" x1="455.7" y1="90.8" x2="455.7" y2="100"/>
				
					<line style="fill:none;stroke:#FFFFFF;stroke-linecap:round;stroke-linejoin:round;stroke-miterlimit:10;" x1="451.6" y1="95.9" x2="459.9" y2="95.9"/>
				<path style="fill:#FFFFFF;" d="M522.4,85.3V88c0,1-0.5,1.9-1.5,1.9h-3.1"/>
				
					<line style="fill:none;stroke:#FFFFFF;stroke-linecap:round;stroke-linejoin:round;stroke-miterlimit:10;" x1="524.7" y1="90.8" x2="524.7" y2="100"/>
				
					<line style="fill:none;stroke:#FFFFFF;stroke-linecap:round;stroke-linejoin:round;stroke-miterlimit:10;" x1="521.5" y1="95.9" x2="529.7" y2="95.9"/>
			</g>
		</g>
		<g>
			<path style="fill:#6EBAF9;" d="M260,102.7l-5.9-14.5H254c0.1,0.9,0.1,1.8,0.1,2.8v11.8h-1V87h1.7l5.6,13.9h0.1l5.6-13.9h1.7v15.7
				h-1.1V90.8c0-0.8,0-1.7,0.1-2.6h-0.1l-5.9,14.5C260.8,102.7,260,102.7,260,102.7z"/>
			<path style="fill:#6EBAF9;" d="M269.4,91h1.1l2.5,6.5c0.7,2,1.2,3.4,1.5,4h0.1c0.3-0.9,0.8-2.3,1.5-4.1l2.5-6.5h1.1l-5.3,13.7
				c-0.5,1.1-0.7,1.8-1.1,2.2c-0.4,0.4-0.6,0.6-1,0.8s-0.8,0.3-1.4,0.3c-0.4,0-0.8-0.1-1.4-0.2v-0.9c0.5,0.1,0.8,0.2,1.4,0.2
				c0.4,0,0.7-0.1,1-0.3c0.3-0.2,0.6-0.5,0.7-0.8c0.2-0.4,0.5-0.9,0.8-1.7c0.4-0.8,0.5-1.3,0.6-1.6L269.4,91z"/>
			<path style="fill:#6EBAF9;" d="M290.7,92h-2.8v10.8h-1.1V92h-2.2v-0.6l2.2-0.4v-1c0-1.5,0.3-2.5,0.8-3.1s1.4-1,2.6-1
				c0.6,0,1.3,0.1,1.9,0.3l-0.3,0.9c-0.6-0.2-1.1-0.3-1.7-0.3c-0.8,0-1.4,0.3-1.7,0.7c-0.4,0.5-0.6,1.3-0.6,2.4V91h2.8L290.7,92
				L290.7,92z"/>
			<path style="fill:#6EBAF9;" d="M292.3,87.7c0-0.7,0.2-1,0.6-1c0.2,0,0.4,0.1,0.6,0.3c0.2,0.2,0.2,0.5,0.2,0.7
				c0,0.4-0.1,0.6-0.2,0.7c-0.1,0.2-0.3,0.3-0.6,0.3C292.5,88.8,292.3,88.5,292.3,87.7z M293.5,102.7h-1.1V91h1.1V102.7z"/>
			<path style="fill:#6EBAF9;" d="M301.6,90.8c0.5,0,1,0.1,1.6,0.2l-0.2,1c-0.5-0.1-1-0.2-1.6-0.2c-1,0-1.8,0.5-2.5,1.3
				c-0.6,0.8-0.9,1.9-0.9,3.2v6.4h-1.1V91h0.9l0.1,2.1h0.1c0.5-0.8,1-1.5,1.6-1.8C300.2,90.9,300.9,90.8,301.6,90.8z"/>
			<path style="fill:#6EBAF9;" d="M312.5,99.7c0,1-0.4,1.8-1.2,2.4s-1.9,0.8-3.4,0.8c-1.6,0-2.8-0.3-3.8-0.7V101
				c1.2,0.6,2.4,0.9,3.8,0.9c1.2,0,2-0.2,2.7-0.6c0.6-0.4,0.9-0.9,0.9-1.6c0-0.6-0.3-1.1-0.7-1.5c-0.5-0.4-1.3-0.8-2.4-1.2
				c-1.2-0.5-2-0.8-2.5-1.1c-0.5-0.3-0.8-0.6-1.1-1s-0.4-0.8-0.4-1.4c0-0.9,0.4-1.6,1.1-2.1s1.7-0.7,3.1-0.7c1.3,0,2.5,0.3,3.6,0.7
				l-0.4,1c-1.2-0.5-2.2-0.7-3.2-0.7c-0.9,0-1.7,0.2-2.3,0.5s-0.8,0.7-0.8,1.3c0,0.6,0.2,1.1,0.6,1.5c0.5,0.4,1.3,0.7,2.6,1.2
				c1,0.4,1.8,0.7,2.3,1s0.8,0.6,1.1,1S312.5,99.1,312.5,99.7z"/>
			<path style="fill:#6EBAF9;" d="M318.1,102c0.6,0,1.3-0.1,1.7-0.2v0.8c-0.6,0.2-1.1,0.3-1.7,0.3c-1,0-1.8-0.3-2.3-0.8
				c-0.5-0.6-0.7-1.4-0.7-2.6V92h-1.7v-0.6l1.7-0.5l0.6-2.7h0.6V91h3.4v1h-3.4v7.4c0,0.9,0.2,1.6,0.5,2
				C316.9,101.9,317.4,102,318.1,102z"/>
			<path style="fill:#6EBAF9;" d="M337,91.5c0,1.6-0.6,2.7-1.6,3.5s-2.5,1.2-4.4,1.2h-2.4v6.5h-1.1V87h3.9
				C335.2,87,337,88.5,337,91.5z M328.6,95.3h2.2c1.7,0,3-0.3,3.9-0.9s1.2-1.6,1.2-2.8c0-1.2-0.4-2.1-1.1-2.7s-1.9-0.9-3.5-0.9h-2.6
				L328.6,95.3L328.6,95.3z"/>
			<path style="fill:#6EBAF9;" d="M344.4,90.8c0.5,0,1,0.1,1.6,0.2l-0.2,1c-0.5-0.1-1-0.2-1.6-0.2c-1,0-1.8,0.5-2.5,1.3
				c-0.6,0.8-0.9,1.9-0.9,3.2v6.4h-1.1V91h0.9l0.1,2.1h0.1c0.5-0.8,1-1.5,1.6-1.8C342.9,90.9,343.5,90.8,344.4,90.8z"/>
			<path style="fill:#6EBAF9;" d="M357.5,96.8c0,1.9-0.5,3.4-1.4,4.5s-2.2,1.7-3.9,1.7c-1,0-1.9-0.3-2.8-0.7
				c-0.8-0.5-1.4-1.2-1.8-2.1c-0.5-0.9-0.6-2-0.6-3.2c0-1.9,0.5-3.4,1.4-4.5s2.2-1.6,3.8-1.6c1.7,0,2.8,0.6,3.8,1.7
				C356.9,93.6,357.5,95,357.5,96.8z M348.3,96.8c0,1.7,0.4,2.8,1.1,3.8c0.7,0.9,1.7,1.4,3,1.4s2.3-0.5,3-1.4s1.1-2.1,1.1-3.8
				c0-1.7-0.4-2.8-1.1-3.8c-0.7-0.9-1.7-1.4-3-1.4s-2.3,0.5-3,1.3C348.7,93.8,348.3,95.3,348.3,96.8z"/>
			<path style="fill:#6EBAF9;" d="M358.8,108c-0.6,0-1.1-0.1-1.5-0.3v-0.9c0.5,0.2,0.9,0.2,1.4,0.2c1.1,0,1.7-0.6,1.7-1.9V90.9h1.1
				v14c0,1-0.2,1.7-0.6,2.2C360.4,107.6,359.6,108,358.8,108z M360.2,87.7c0-0.7,0.2-1,0.6-1c0.2,0,0.4,0.1,0.6,0.3
				c0.2,0.2,0.2,0.5,0.2,0.7c0,0.4-0.1,0.6-0.2,0.7c-0.1,0.2-0.3,0.3-0.6,0.3C360.4,88.8,360.2,88.5,360.2,87.7z"/>
			<path style="fill:#6EBAF9;" d="M369.6,102.9c-1.7,0-3-0.6-4-1.6c-0.9-1-1.5-2.5-1.5-4.4c0-1.8,0.5-3.4,1.4-4.5s2.1-1.7,3.7-1.7
				c1.4,0,2.5,0.5,3.3,1.5s1.2,2.3,1.2,4V97h-8.5c0,1.7,0.4,2.8,1.1,3.7c0.7,0.8,1.7,1.3,3.1,1.3c0.6,0,1.3-0.1,1.7-0.2
				c0.5-0.1,1.1-0.3,1.9-0.6v1c-0.6,0.3-1.3,0.5-1.8,0.6C370.8,102.8,370.3,102.9,369.6,102.9z M369.3,91.8c-1.1,0-2,0.4-2.8,1.1
				c-0.7,0.7-1.1,1.8-1.2,3.2h7.3c0-1.4-0.3-2.4-0.9-3.2S370.4,91.8,369.3,91.8z"/>
			<path style="fill:#6EBAF9;" d="M381.2,102.9c-1.7,0-2.9-0.6-4-1.6c-1-1-1.4-2.6-1.4-4.4c0-1.9,0.5-3.5,1.5-4.5s2.3-1.7,4-1.7
				c1,0,2,0.2,2.9,0.6l-0.3,0.9c-1-0.4-1.9-0.6-2.7-0.6c-1.5,0-2.5,0.5-3.3,1.3s-1.1,2.2-1.1,3.9c0,1.6,0.4,2.8,1.1,3.7
				s1.7,1.4,3.1,1.4c1.1,0,2-0.2,2.9-0.6v1C383.4,102.7,382.4,102.9,381.2,102.9z"/>
			<path style="fill:#6EBAF9;" d="M389.7,102c0.6,0,1.3-0.1,1.7-0.2v0.8c-0.6,0.2-1.1,0.3-1.7,0.3c-1,0-1.8-0.3-2.3-0.8
				c-0.5-0.6-0.7-1.4-0.7-2.6V92H385v-0.6l1.7-0.5l0.6-2.7h0.6V91h3.4v1h-3.4v7.4c0,0.9,0.2,1.6,0.5,2
				C388.5,101.9,389,102,389.7,102z"/>
		</g>
		<rect x="62.9" y="305" style="fill:none;" width="137" height="27.5"/>
		<text transform="matrix(1 0 0 1 62.8997 317.1587)" style="fill:#828282; font-family:'OpenSans-Light'; font-size:16px;">Rename Project</text>
		<g>
			<g>
				<path style="fill:none;stroke:#828282;stroke-linecap:round;stroke-linejoin:round;stroke-miterlimit:10;" d="M38,302.6
					c-1.2-1.2-3.1-1.2-4.2,0l-10.1,10.1c-1.2,1.2-2.7,3.3-3.5,4.8l-2.3,4.4c-0.8,1.5-0.2,2,1.3,1.3l4.4-2.3c1.5-0.8,3.6-2.3,4.8-3.5
					l10.1-10.1c1.2-1.2,1.2-3.1,0-4.2L38,302.6z"/>
			</g>
			
				<line style="fill:none;stroke:#828282;stroke-linecap:round;stroke-linejoin:round;stroke-miterlimit:10;" x1="32.5" y1="303.8" x2="37.2" y2="308.5"/>
			
				<line style="fill:none;stroke:#828282;stroke-linecap:round;stroke-linejoin:round;stroke-miterlimit:10;" x1="20.7" y1="317.3" x2="23.7" y2="320.3"/>
		</g>
	</g>
	<title>designmap_1_ru</title>
	<line style="fill:none;stroke:#FFFFFF;stroke-width:0.5732;stroke-miterlimit:10;" x1="40.3" y1="43.5" x2="57.2" y2="26.3"/>
	<line style="fill:none;stroke:#FFFFFF;stroke-width:0.5732;stroke-miterlimit:10;" x1="57.2" y1="43.5" x2="40.3" y2="26.3"/>
	<path style="fill:#FFFFFF;" d="M301,21.5v27h-90v-27H301 M302,20.5h-92v29h92V20.5L302,20.5z"/>
	<g style="enable-background:new    ;">
		<path style="fill:#FFFDFC;" d="M338.3,35.5v3.4h-0.5v-7.8h1.9c1,0,1.7,0.2,2.1,0.5c0.5,0.4,0.7,0.9,0.7,1.6c0,0.5-0.1,1-0.4,1.3
			c-0.3,0.4-0.7,0.6-1.3,0.8l2.1,3.5h-0.6l-2-3.4h-2L338.3,35.5L338.3,35.5z M338.3,35h1.5c0.7,0,1.2-0.1,1.5-0.4
			c0.4-0.3,0.5-0.7,0.5-1.3s-0.2-1-0.5-1.3s-0.9-0.4-1.7-0.4h-1.3V35z"/>
		<path style="fill:#FFFDFC;" d="M346.5,39c-0.8,0-1.5-0.3-2-0.8s-0.7-1.2-0.7-2.2c0-0.9,0.2-1.7,0.7-2.2c0.5-0.6,1.1-0.8,1.8-0.8
			c0.7,0,1.2,0.2,1.6,0.7s0.6,1.1,0.6,1.9V36h-4.2c0,0.8,0.2,1.4,0.6,1.8c0.4,0.4,0.9,0.6,1.6,0.6c0.3,0,0.6,0,0.9-0.1
			c0.2,0,0.6-0.1,0.9-0.3v0.5c-0.3,0.1-0.6,0.2-0.9,0.3S346.8,39,346.5,39z M346.3,33.5c-0.6,0-1,0.2-1.3,0.6s-0.5,0.9-0.6,1.6h3.6
			c0-0.7-0.1-1.2-0.4-1.6C347.2,33.6,346.8,33.5,346.3,33.5z"/>
		<path style="fill:#FFFDFC;" d="M353.7,37.4c0,0.5-0.2,0.9-0.6,1.2s-1,0.4-1.7,0.4c-0.8,0-1.4-0.1-1.8-0.4V38
			c0.6,0.3,1.2,0.4,1.8,0.4c0.6,0,1-0.1,1.3-0.3s0.4-0.4,0.4-0.8c0-0.3-0.1-0.5-0.4-0.7c-0.2-0.2-0.6-0.4-1.2-0.6
			c-0.6-0.2-1-0.4-1.2-0.5c-0.2-0.2-0.4-0.3-0.5-0.5s-0.2-0.4-0.2-0.7c0-0.4,0.2-0.8,0.5-1c0.4-0.3,0.9-0.4,1.5-0.4s1.2,0.1,1.8,0.4
			l-0.2,0.5c-0.6-0.2-1.1-0.4-1.6-0.4s-0.8,0.1-1.1,0.2c-0.3,0.2-0.4,0.4-0.4,0.6c0,0.3,0.1,0.5,0.3,0.7s0.6,0.4,1.3,0.6
			c0.5,0.2,0.9,0.4,1.1,0.5c0.2,0.2,0.4,0.3,0.5,0.5C353.6,36.9,353.7,37.1,353.7,37.4z"/>
		<path style="fill:#FFFDFC;" d="M356.7,38.5c0.3,0,0.6,0,0.9-0.1v0.4c-0.3,0.1-0.5,0.1-0.9,0.1c-0.5,0-0.9-0.1-1.1-0.4
			c-0.2-0.3-0.4-0.7-0.4-1.3v-3.7h-0.9v-0.3l0.9-0.2l0.3-1.3h0.3v1.4h1.7v0.5h-1.7v3.7c0,0.4,0.1,0.8,0.2,1
			C356.1,38.4,356.4,38.5,356.7,38.5z"/>
		<path style="fill:#FFFDFC;" d="M363.6,36c0,0.9-0.2,1.7-0.7,2.2S361.8,39,361,39c-0.5,0-1-0.1-1.3-0.4c-0.4-0.2-0.7-0.6-0.9-1.1
			s-0.3-1-0.3-1.6c0-0.9,0.2-1.7,0.7-2.2s1.1-0.8,1.9-0.8s1.4,0.3,1.9,0.8C363.4,34.3,363.6,35,363.6,36z M359,36
			c0,0.8,0.2,1.4,0.5,1.9c0.3,0.4,0.8,0.7,1.5,0.7s1.1-0.2,1.5-0.7c0.3-0.4,0.5-1.1,0.5-1.9c0-0.8-0.2-1.4-0.5-1.9
			c-0.4-0.4-0.8-0.7-1.5-0.7s-1.1,0.2-1.5,0.7C359.2,34.6,359,35.2,359,36z"/>
		<path style="fill:#FFFDFC;" d="M367.5,33c0.2,0,0.5,0,0.8,0.1l-0.1,0.5c-0.2-0.1-0.5-0.1-0.8-0.1c-0.5,0-0.9,0.2-1.2,0.6
			c-0.3,0.4-0.5,0.9-0.5,1.6v3.2h-0.5v-5.8h0.4l0.1,1l0,0c0.2-0.4,0.5-0.7,0.8-0.9S367.1,33,367.5,33z"/>
		<path style="fill:#FFFDFC;" d="M371.8,39c-0.8,0-1.5-0.3-2-0.8s-0.7-1.2-0.7-2.2c0-0.9,0.2-1.7,0.7-2.2c0.5-0.6,1.1-0.8,1.8-0.8
			c0.7,0,1.2,0.2,1.6,0.7s0.6,1.1,0.6,1.9V36h-4.2c0,0.8,0.2,1.4,0.6,1.8c0.4,0.4,0.9,0.6,1.6,0.6c0.3,0,0.6,0,0.9-0.1
			c0.2,0,0.6-0.1,0.9-0.3v0.5c-0.3,0.1-0.6,0.2-0.9,0.3S372.1,39,371.8,39z M371.6,33.5c-0.6,0-1,0.2-1.3,0.6s-0.5,0.9-0.6,1.6h3.6
			c0-0.7-0.1-1.2-0.4-1.6C372.5,33.6,372.1,33.5,371.6,33.5z"/>
	</g>
	<g style="enable-background:new    ;">
		<path style="fill:#FFFDFC;" d="M100.6,34.1c0,0.5-0.2,0.9-0.5,1.2s-0.7,0.5-1.2,0.6l0,0c0.6,0.1,1.1,0.3,1.4,0.6s0.5,0.7,0.5,1.3
			c0,0.7-0.3,1.3-0.8,1.7s-1.2,0.6-2.2,0.6c-0.8,0-1.5-0.1-2.1-0.4v-0.5c0.3,0.2,0.6,0.3,1,0.4c0.4,0.1,0.7,0.1,1.1,0.1
			c0.8,0,1.4-0.2,1.8-0.5s0.6-0.8,0.6-1.3s-0.2-0.9-0.6-1.2s-1-0.4-1.8-0.4H97v-0.5h0.9c0.7,0,1.2-0.2,1.6-0.5s0.6-0.7,0.6-1.2
			c0-0.4-0.2-0.8-0.5-1s-0.7-0.4-1.2-0.4c-0.4,0-0.7,0.1-1.1,0.2c-0.3,0.1-0.7,0.3-1.1,0.6l-0.3-0.4c0.3-0.3,0.7-0.5,1.1-0.6
			s0.9-0.2,1.3-0.2c0.7,0,1.3,0.2,1.7,0.5C100.4,33,100.6,33.5,100.6,34.1z"/>
		<path style="fill:#FFFDFC;" d="M109.1,38.5c0,0.5-0.2,0.9-0.6,1.2s-1,0.4-1.7,0.4c-0.8,0-1.4-0.1-1.9-0.4v-0.6
			c0.6,0.3,1.2,0.4,1.9,0.4c0.6,0,1-0.1,1.3-0.3s0.4-0.4,0.4-0.8c0-0.3-0.1-0.5-0.4-0.7c-0.2-0.2-0.6-0.4-1.2-0.6
			c-0.6-0.2-1-0.4-1.2-0.5c-0.2-0.2-0.4-0.3-0.5-0.5s-0.2-0.4-0.2-0.7c0-0.4,0.2-0.8,0.6-1c0.4-0.3,0.9-0.4,1.5-0.4s1.2,0.1,1.8,0.4
			l-0.2,0.5c-0.6-0.2-1.1-0.4-1.6-0.4s-0.9,0.1-1.1,0.2c-0.3,0.2-0.4,0.4-0.4,0.6c0,0.3,0.1,0.5,0.3,0.7c0.2,0.2,0.6,0.4,1.3,0.6
			c0.5,0.2,0.9,0.4,1.2,0.5c0.2,0.2,0.4,0.3,0.5,0.5C109,38,109.1,38.3,109.1,38.5z"/>
		<path style="fill:#FFFDFC;" d="M113,40.1c-0.9,0-1.5-0.3-2-0.8s-0.7-1.2-0.7-2.2c0-0.9,0.2-1.7,0.7-2.2c0.5-0.6,1.1-0.8,1.9-0.8
			c0.7,0,1.2,0.2,1.6,0.7s0.6,1.1,0.6,1.9v0.4h-4.2c0,0.8,0.2,1.4,0.6,1.8c0.4,0.4,0.9,0.6,1.6,0.6c0.3,0,0.6,0,0.9-0.1
			c0.3,0,0.6-0.1,1-0.3v0.5c-0.3,0.1-0.6,0.2-0.9,0.3C113.6,40.1,113.3,40.1,113,40.1z M112.8,34.6c-0.6,0-1,0.2-1.4,0.6
			c-0.3,0.4-0.5,0.9-0.6,1.6h3.6c0-0.7-0.1-1.2-0.4-1.6C113.8,34.8,113.3,34.6,112.8,34.6z"/>
		<path style="fill:#FFFDFC;" d="M117.2,40h-0.5v-8.3h0.5V40z"/>
		<path style="fill:#FFFDFC;" d="M121.5,40.1c-0.9,0-1.5-0.3-2-0.8s-0.7-1.2-0.7-2.2c0-0.9,0.2-1.7,0.7-2.2c0.5-0.6,1.1-0.8,1.9-0.8
			c0.7,0,1.2,0.2,1.6,0.7s0.6,1.1,0.6,1.9v0.4h-4.2c0,0.8,0.2,1.4,0.6,1.8c0.4,0.4,0.9,0.6,1.6,0.6c0.3,0,0.6,0,0.9-0.1
			c0.3,0,0.6-0.1,1-0.3v0.5c-0.3,0.1-0.6,0.2-0.9,0.3C122.2,40.1,121.9,40.1,121.5,40.1z M121.4,34.6c-0.6,0-1,0.2-1.4,0.6
			c-0.3,0.4-0.5,0.9-0.6,1.6h3.6c0-0.7-0.1-1.2-0.4-1.6C122.3,34.8,121.9,34.6,121.4,34.6z"/>
		<path style="fill:#FFFDFC;" d="M127.6,40.1c-0.8,0-1.5-0.3-2-0.8s-0.7-1.2-0.7-2.2s0.2-1.7,0.7-2.2s1.2-0.8,2-0.8
			c0.5,0,1,0.1,1.5,0.3l-0.1,0.5c-0.5-0.2-0.9-0.3-1.3-0.3c-0.7,0-1.3,0.2-1.6,0.7c-0.4,0.4-0.6,1.1-0.6,1.9c0,0.8,0.2,1.4,0.6,1.8
			c0.4,0.4,0.9,0.7,1.6,0.7c0.5,0,1-0.1,1.5-0.3v0.5C128.7,40,128.2,40.1,127.6,40.1z"/>
		<path style="fill:#FFFDFC;" d="M132,39.7c0.3,0,0.6,0,0.9-0.1V40c-0.3,0.1-0.6,0.1-0.9,0.1c-0.5,0-0.9-0.1-1.1-0.4
			c-0.2-0.3-0.4-0.7-0.4-1.3v-3.7h-0.9v-0.3l0.9-0.2l0.3-1.3h0.3v1.4h1.7v0.5H131v3.7c0,0.4,0.1,0.8,0.2,1
			C131.4,39.6,131.7,39.7,132,39.7z"/>
		<path style="fill:#FFFDFC;" d="M136.5,40.1c-0.9,0-1.5-0.3-2-0.8s-0.7-1.2-0.7-2.2c0-0.9,0.2-1.7,0.7-2.2c0.5-0.6,1.1-0.8,1.9-0.8
			c0.7,0,1.2,0.2,1.6,0.7c0.4,0.5,0.6,1.1,0.6,1.9v0.4h-4.2c0,0.8,0.2,1.4,0.6,1.8c0.4,0.4,0.9,0.6,1.6,0.6c0.3,0,0.6,0,0.9-0.1
			c0.3,0,0.6-0.1,1-0.3v0.5c-0.3,0.1-0.6,0.2-0.9,0.3C137.2,40.1,136.9,40.1,136.5,40.1z M136.4,34.6c-0.6,0-1,0.2-1.4,0.6
			c-0.3,0.4-0.5,0.9-0.6,1.6h3.6c0-0.7-0.1-1.2-0.4-1.6C137.3,34.8,136.9,34.6,136.4,34.6z"/>
		<path style="fill:#FFFDFC;" d="M142.3,34.1c0.4,0,0.8,0.1,1.1,0.2c0.3,0.2,0.6,0.4,0.8,0.8l0,0c0-0.4,0-0.9,0-1.3v-2.1h0.5V40
			h-0.4l-0.1-0.9l0,0c-0.4,0.7-1.1,1-1.9,1c-0.8,0-1.4-0.2-1.9-0.7s-0.6-1.2-0.6-2.2s0.2-1.8,0.6-2.3
			C140.9,34.4,141.5,34.1,142.3,34.1z M142.3,34.6c-0.6,0-1.1,0.2-1.4,0.7c-0.3,0.4-0.5,1.1-0.5,1.9c0,1.6,0.6,2.5,1.9,2.5
			c0.7,0,1.1-0.2,1.5-0.6c0.3-0.4,0.5-1,0.5-1.9v-0.1c0-0.9-0.2-1.5-0.5-1.9S143,34.6,142.3,34.6z"/>
	</g>
	<path style="fill:#FFFFFF;" d="M401,21.5v27h-90v-27H401 M402,20.5h-92v29h92V20.5L402,20.5z"/>
	<g style="enable-background:new    ;">
		<path style="fill:#FFFDFC;" d="M246.1,34.3c0,1.3-0.3,2.3-1,3s-1.7,1-3,1h-1.9v-7.8h2.1c1.2,0,2.2,0.3,2.8,1
			C245.8,32.2,246.1,33.1,246.1,34.3z M245.6,34.4c0-1.1-0.3-2-0.8-2.5c-0.6-0.6-1.4-0.8-2.5-0.8h-1.4v6.8h1.3
			C244.4,37.8,245.6,36.7,245.6,34.4z"/>
		<path style="fill:#FFFDFC;" d="M250.1,38.4c-0.8,0-1.5-0.3-2-0.8s-0.7-1.2-0.7-2.2c0-0.9,0.2-1.7,0.7-2.2c0.5-0.6,1.1-0.8,1.8-0.8
			s1.2,0.2,1.6,0.7c0.4,0.5,0.6,1.1,0.6,1.9v0.5H248c0,0.8,0.2,1.4,0.6,1.8c0.4,0.4,0.9,0.6,1.6,0.6c0.3,0,0.6,0,0.9-0.1
			c0.2,0,0.6-0.1,0.9-0.3V38c-0.3,0.1-0.6,0.2-0.9,0.3S250.5,38.4,250.1,38.4z M250,32.9c-0.6,0-1,0.2-1.3,0.6s-0.5,0.9-0.6,1.6h3.6
			c0-0.7-0.1-1.2-0.4-1.6C250.9,33.1,250.5,32.9,250,32.9z"/>
		<path style="fill:#FFFDFC;" d="M254.3,38.3h-0.5V30h0.5V38.3z"/>
		<path style="fill:#FFFDFC;" d="M258.6,38.4c-0.8,0-1.5-0.3-2-0.8s-0.7-1.2-0.7-2.2c0-0.9,0.2-1.7,0.7-2.2c0.5-0.6,1.1-0.8,1.8-0.8
			c0.7,0,1.2,0.2,1.6,0.7s0.6,1.1,0.6,1.9v0.5h-4.2c0,0.8,0.2,1.4,0.6,1.8c0.4,0.4,0.9,0.6,1.6,0.6c0.3,0,0.6,0,0.9-0.1
			c0.2,0,0.6-0.1,0.9-0.3V38c-0.3,0.1-0.6,0.2-0.9,0.3S258.9,38.4,258.6,38.4z M258.4,32.9c-0.6,0-1,0.2-1.3,0.6s-0.5,0.9-0.6,1.6
			h3.6c0-0.7-0.1-1.2-0.4-1.6C259.3,33.1,258.9,32.9,258.4,32.9z"/>
		<path style="fill:#FFFDFC;" d="M263.7,37.9c0.3,0,0.6,0,0.9-0.1v0.4c-0.3,0.1-0.5,0.1-0.9,0.1c-0.5,0-0.9-0.1-1.1-0.4
			c-0.2-0.3-0.4-0.7-0.4-1.3v-3.7h-0.9v-0.3l0.9-0.2l0.3-1.3h0.3v1.4h1.7V33h-1.7v3.7c0,0.4,0.1,0.8,0.2,1
			C263.2,37.8,263.4,37.9,263.7,37.9z"/>
		<path style="fill:#FFFDFC;" d="M268.2,38.4c-0.8,0-1.5-0.3-2-0.8s-0.7-1.2-0.7-2.2c0-0.9,0.2-1.7,0.7-2.2c0.5-0.6,1.1-0.8,1.8-0.8
			c0.7,0,1.2,0.2,1.6,0.7s0.6,1.1,0.6,1.9v0.5H266c0,0.8,0.2,1.4,0.6,1.8c0.4,0.4,0.9,0.6,1.6,0.6c0.3,0,0.6,0,0.9-0.1
			c0.2,0,0.6-0.1,0.9-0.3V38c-0.3,0.1-0.6,0.2-0.9,0.3S268.5,38.4,268.2,38.4z M268,32.9c-0.6,0-1,0.2-1.3,0.6s-0.5,0.9-0.6,1.6h3.6
			c0-0.7-0.1-1.2-0.4-1.6C269,33.1,268.6,32.9,268,32.9z"/>
	</g>
</g>
<g id="Layer_2">
</g>
</svg>
