<?xml version="1.0" encoding="utf-8"?>
<!-- Generator: Adobe Illustrator 19.2.1, SVG Export Plug-In . SVG Version: 6.00 Build 0)  -->
<svg version="1.1" id="Слой_1" xmlns="http://www.w3.org/2000/svg" xmlns:xlink="http://www.w3.org/1999/xlink" x="0px" y="0px"
	 viewBox="0 0 468 102.7" style="enable-background:new 0 0 468 102.7;" xml:space="preserve">
<rect y="-0.3" style="fill:#FFFFFF;" width="423" height="34"/>
<g>
	<g>
		
			<circle style="fill:none;stroke:#B7B9BA;stroke-width:0.8943;stroke-linecap:round;stroke-linejoin:round;stroke-miterlimit:10;" cx="18.5" cy="17.1" r="5.6"/>
	</g>
	
		<line style="fill:none;stroke:#B7B9BA;stroke-width:0.8943;stroke-linecap:round;stroke-linejoin:round;stroke-miterlimit:10;" x1="18.4" y1="17.2" x2="18.4" y2="20.6"/>
	
		<line style="fill:none;stroke:#B7B9BA;stroke-width:0.8943;stroke-linecap:round;stroke-linejoin:round;stroke-miterlimit:10;" x1="18.4" y1="17.2" x2="20.1" y2="15.3"/>
	<path style="fill:none;stroke:#B7B9BA;stroke-width:0.8943;stroke-linecap:round;stroke-linejoin:round;stroke-miterlimit:10;" d="
		M17.5,10.9c0-0.6,0.5-1.1,1.1-1.1s1.1,0.5,1.1,1.1"/>
</g>
<g>
	<rect x="34.9" y="11.3" style="fill:none;" width="183" height="16.5"/>
	<g style="enable-background:new    ;">
		<path style="fill:#B7B9BA;" d="M40.2,13.6c0,1-0.5,1.6-1.6,1.8l0,0c1.2,0.2,1.7,0.9,1.7,1.9c0,0.7-0.2,1.2-0.7,1.6
			s-1.2,0.6-2.1,0.6c-0.8,0-1.6-0.1-2.1-0.5v-0.5c0.3,0.2,0.7,0.3,1.1,0.4c0.4,0.1,0.7,0.1,1.1,0.1c0.7,0,1.2-0.2,1.7-0.5
			c0.4-0.3,0.6-0.7,0.6-1.3c0-0.5-0.2-0.9-0.6-1.2c-0.4-0.3-1-0.4-1.8-0.4h-1.1v-0.5h1.2c0.7,0,1.3-0.1,1.6-0.4s0.5-0.7,0.5-1.2
			c0-0.4-0.2-0.8-0.5-1c-0.3-0.3-0.7-0.4-1.3-0.4c-0.4,0-0.7,0.1-1.1,0.2c-0.3,0.1-0.7,0.3-1.1,0.6l-0.3-0.4
			c0.7-0.5,1.5-0.8,2.4-0.8c0.7,0,1.3,0.2,1.7,0.5C40,12.6,40.2,13,40.2,13.6z"/>
		<path style="fill:#B7B9BA;" d="M45.4,19.5l-0.1-0.9l0,0c-0.3,0.4-0.6,0.6-0.9,0.8s-0.7,0.2-1.1,0.2c-0.6,0-1-0.1-1.3-0.4
			s-0.5-0.7-0.5-1.2c0-0.6,0.2-1,0.7-1.3s1.1-0.5,2-0.5h1.1v-0.4c0-0.5-0.1-1-0.3-1.2c-0.2-0.3-0.6-0.4-1.1-0.4s-1.1,0.1-1.6,0.4
			L42,14.1c0.6-0.3,1.2-0.4,1.9-0.4c0.6,0,1.1,0.2,1.4,0.5c0.3,0.3,0.5,0.8,0.5,1.5v3.8H45.4z M43.3,19.1c0.6,0,1.1-0.2,1.4-0.5
			s0.5-0.8,0.5-1.4v-0.6h-1c-0.8,0-1.4,0.2-1.7,0.4c-0.3,0.2-0.5,0.5-0.5,1c0,0.4,0.1,0.6,0.3,0.8S42.9,19.1,43.3,19.1z"/>
		<path style="fill:#B7B9BA;" d="M52.2,21.4h-0.5v-1.9h-4.4v1.9h-0.5V19h0.4c0.5-0.7,0.8-1.4,1.1-2.3s0.4-1.8,0.4-2.9h2.7V19h0.8
			V21.4z M51,19v-4.7h-1.8c-0.1,1.9-0.5,3.5-1.4,4.7H51z"/>
		<path style="fill:#B7B9BA;" d="M56.9,19.5l-0.1-0.9l0,0c-0.3,0.4-0.6,0.6-0.9,0.8s-0.7,0.2-1.1,0.2c-0.6,0-1-0.1-1.3-0.4
			C53.2,18.9,53,18.5,53,18c0-0.6,0.2-1,0.7-1.3s1.1-0.5,2-0.5h1.1v-0.4c0-0.5-0.1-1-0.3-1.2c-0.2-0.3-0.6-0.4-1.1-0.4
			s-1.1,0.1-1.6,0.4l-0.2-0.5c0.6-0.3,1.2-0.4,1.9-0.4c0.6,0,1.1,0.2,1.4,0.5c0.3,0.3,0.5,0.8,0.5,1.5v3.8
			C57.4,19.5,56.9,19.5,56.9,19.5z M54.8,19.1c0.6,0,1.1-0.2,1.4-0.5s0.5-0.8,0.5-1.4v-0.6h-1c-0.8,0-1.4,0.2-1.7,0.4
			c-0.3,0.2-0.5,0.5-0.5,1c0,0.4,0.1,0.6,0.3,0.8S54.4,19.1,54.8,19.1z"/>
		<path style="fill:#B7B9BA;" d="M59.5,13.8v1.9c0,0.5,0.1,0.8,0.4,1c0.2,0.2,0.6,0.3,1.1,0.3c0.3,0,0.7-0.1,1-0.2s0.6-0.3,1-0.6
			v-2.5h0.5v5.7H63v-2.7c-0.3,0.3-0.7,0.5-1,0.6s-0.7,0.2-1.1,0.2c-0.6,0-1-0.2-1.3-0.5s-0.4-0.7-0.4-1.3v-2h0.3V13.8z"/>
		<path style="fill:#B7B9BA;" d="M68.8,19.5l-0.1-0.9l0,0c-0.3,0.4-0.6,0.6-0.9,0.8s-0.7,0.2-1.1,0.2c-0.6,0-1-0.1-1.3-0.4
			s-0.5-0.7-0.5-1.2c0-0.6,0.2-1,0.7-1.3s1.1-0.5,2-0.5h1.1v-0.4c0-0.5-0.1-1-0.3-1.2c-0.2-0.3-0.6-0.4-1.1-0.4s-1.1,0.1-1.6,0.4
			l-0.2-0.5c0.6-0.3,1.2-0.4,1.9-0.4c0.6,0,1.1,0.2,1.4,0.5s0.5,0.8,0.5,1.5v3.8C69.3,19.5,68.8,19.5,68.8,19.5z M66.7,19.1
			c0.6,0,1.1-0.2,1.4-0.5s0.5-0.8,0.5-1.4v-0.6h-1c-0.8,0-1.4,0.2-1.7,0.4c-0.3,0.2-0.5,0.5-0.5,1c0,0.4,0.1,0.6,0.3,0.8
			S66.3,19.1,66.7,19.1z"/>
		<path style="fill:#B7B9BA;" d="M79.2,19.5h-0.5l-4.2-6.8l0,0c0,0.8,0.1,1.4,0.1,1.8v5H74v-7.7h0.5l4.2,6.8l0,0c0-0.8,0-1.4,0-1.8
			v-5h0.5V19.5z M83.1,16.3c0,0.6-0.1,1-0.4,1.3S82,18,81.6,18c-0.5,0-0.8-0.1-1.1-0.4s-0.4-0.7-0.4-1.3c0-0.6,0.1-1,0.4-1.3
			s0.7-0.5,1.1-0.5c0.5,0,0.9,0.2,1.1,0.5C83,15.3,83.1,15.7,83.1,16.3z M80.3,19.5V19h2.5v0.5H80.3z M80.6,16.3
			c0,0.4,0.1,0.8,0.3,1c0.2,0.2,0.4,0.3,0.8,0.3c0.3,0,0.6-0.1,0.8-0.3s0.3-0.5,0.3-1c0-0.4-0.1-0.8-0.3-1c-0.2-0.2-0.4-0.3-0.8-0.3
			C80.9,14.9,80.6,15.4,80.6,16.3z"/>
		<path style="fill:#B7B9BA;" d="M89.1,19.5h-4.8V19l2-2.1c0.6-0.6,1-1,1.2-1.4s0.4-0.6,0.5-0.9c0.1-0.3,0.2-0.6,0.2-0.9
			c0-0.5-0.2-0.8-0.5-1.1s-0.7-0.4-1.2-0.4c-0.6,0-1.3,0.2-1.8,0.7l-0.3-0.4c0.6-0.5,1.3-0.8,2.1-0.8c0.7,0,1.2,0.2,1.6,0.5
			s0.6,0.8,0.6,1.5c0,0.5-0.1,1-0.4,1.5s-0.7,1.1-1.4,1.8l-2,2l0,0H89v0.5H89.1z"/>
	</g>
</g>
<rect x="300.5" y="12.4" style="fill:none;" width="72.8" height="16.5"/>
<g style="enable-background:new    ;">
	<path style="fill:#B7B9BA;" d="M301.6,18.2l2.2-4.9h-3v-0.6h3.6v0.5l-2.2,4.9h-0.6V18.2z"/>
	<path style="fill:#B7B9BA;" d="M311,19.6h-0.6v-1.4h-2.8v1.4H307v-1.9h0.3c0.3-0.5,0.6-1,0.8-1.6c0.2-0.6,0.3-1.3,0.3-2h2.1v3.5
		h0.6L311,19.6L311,19.6z M309.8,17.7v-3.1h-0.9c0,0.5-0.1,1.1-0.3,1.7c-0.2,0.6-0.4,1-0.7,1.4H309.8z"/>
	<path style="fill:#B7B9BA;" d="M312.4,14.1v1.7h2.3v-1.7h0.6v4.1h-0.6v-1.8h-2.3v1.8h-0.6v-4.1H312.4z"/>
	<path style="fill:#B7B9BA;" d="M316.8,18.2h-0.7l1.2-1.7c-0.3-0.1-0.6-0.2-0.7-0.4s-0.3-0.5-0.3-0.8c0-0.4,0.1-0.7,0.4-0.9
		s0.6-0.3,1-0.3h1.8v4.1h-0.6v-1.6h-1L316.8,18.2z M316.9,15.3c0,0.5,0.3,0.7,1,0.7h1v-1.4h-1.1C317.2,14.7,316.9,14.9,316.9,15.3z"
		/>
	<path style="fill:#B7B9BA;" d="M320.5,16.1c0-0.7,0.1-1.3,0.3-1.8c0.2-0.6,0.5-1.1,0.8-1.5h0.6c-0.4,0.5-0.6,1-0.8,1.6
		s-0.3,1.2-0.3,1.8s0.1,1.2,0.3,1.7c0.2,0.6,0.4,1.1,0.8,1.6h-0.6c-0.4-0.4-0.6-0.9-0.8-1.5C320.6,17.4,320.5,16.8,320.5,16.1z"/>
	<path style="fill:#B7B9BA;" d="M322.8,16.4v-0.6h1.8v0.6H322.8z"/>
	<path style="fill:#B7B9BA;" d="M327.3,18.3c-0.6,0-1.1-0.2-1.4-0.5s-0.5-0.9-0.5-1.5c0-0.7,0.2-1.2,0.5-1.6
		c0.3-0.4,0.8-0.6,1.3-0.6s0.9,0.2,1.2,0.5c0.3,0.3,0.4,0.8,0.4,1.3v0.4H326c0,0.5,0.1,0.8,0.4,1.1c0.2,0.2,0.6,0.4,1,0.4
		s0.9-0.1,1.3-0.3V18c-0.2,0.1-0.4,0.2-0.6,0.2C327.8,18.2,327.5,18.3,327.3,18.3z M327.1,14.6c-0.3,0-0.6,0.1-0.8,0.3
		s-0.3,0.5-0.3,0.9h2.1c0-0.4-0.1-0.7-0.3-0.9C327.7,14.7,327.4,14.6,327.1,14.6z"/>
	<path style="fill:#B7B9BA;" d="M330.4,14.1v2.6v0.7v0.2l2.2-3.5h0.8v4.1h-0.6v-2.5v-0.5v-0.5l-2.2,3.5h-0.8v-4.1
		C329.8,14.1,330.4,14.1,330.4,14.1z M331.6,13.6c-0.5,0-0.8-0.1-1-0.3s-0.3-0.5-0.4-0.9h0.6c0,0.3,0.1,0.4,0.2,0.5s0.3,0.2,0.6,0.2
		c0.3,0,0.4-0.1,0.6-0.2c0.1-0.1,0.2-0.3,0.2-0.5h0.6c0,0.4-0.2,0.7-0.4,0.9C332.4,13.5,332,13.6,331.6,13.6z"/>
	<path style="fill:#B7B9BA;" d="M335.9,16.1c0,0.7-0.1,1.3-0.3,1.8c-0.2,0.6-0.5,1.1-0.8,1.5h-0.6c0.3-0.5,0.6-1,0.8-1.5
		c0.2-0.6,0.3-1.1,0.3-1.7s-0.1-1.2-0.3-1.8s-0.4-1.1-0.8-1.6h0.6c0.4,0.4,0.6,0.9,0.8,1.5C335.8,14.8,335.9,15.5,335.9,16.1z"/>
	<path style="fill:#B7B9BA;" d="M342.4,16.2c0,0.7-0.2,1.2-0.5,1.6s-0.8,0.6-1.4,0.6c-0.4,0-0.7-0.1-1-0.3c-0.3-0.2-0.5-0.4-0.7-0.7
		s-0.2-0.7-0.2-1.1c0-0.7,0.2-1.2,0.5-1.5c0.3-0.4,0.8-0.6,1.4-0.6s1,0.2,1.4,0.6C342.2,15,342.4,15.5,342.4,16.2z M339.3,16.2
		c0,0.5,0.1,0.9,0.3,1.2c0.2,0.3,0.5,0.4,0.9,0.4s0.7-0.1,0.9-0.4c0.2-0.3,0.3-0.7,0.3-1.2s-0.1-0.9-0.3-1.2s-0.5-0.4-0.9-0.4
		s-0.7,0.1-0.9,0.4C339.4,15.2,339.3,15.6,339.3,16.2z"/>
	<path style="fill:#B7B9BA;" d="M345.1,18.3c-0.6,0-1-0.2-1.4-0.5s-0.5-0.9-0.5-1.5c0-0.7,0.2-1.2,0.5-1.6c0.3-0.4,0.8-0.6,1.4-0.6
		c0.2,0,0.4,0,0.6,0.1s0.3,0.1,0.5,0.1l-0.2,0.5c-0.1-0.1-0.3-0.1-0.4-0.1c-0.2,0-0.3-0.1-0.4-0.1c-0.8,0-1.2,0.5-1.2,1.6
		c0,0.5,0.1,0.9,0.3,1.2c0.2,0.3,0.5,0.4,0.9,0.4c0.3,0,0.7-0.1,1-0.2v0.5C345.8,18.2,345.5,18.3,345.1,18.3z"/>
	<path style="fill:#B7B9BA;" d="M349.8,14.6h-1.3v3.5h-0.6v-3.5h-1.3v-0.5h3.2L349.8,14.6L349.8,14.6z"/>
	<path style="fill:#B7B9BA;" d="M353.1,18.2l-0.1-0.6l0,0c-0.2,0.3-0.4,0.4-0.6,0.5s-0.5,0.1-0.8,0.1c-0.4,0-0.7-0.1-0.9-0.3
		s-0.3-0.5-0.3-0.9c0-0.8,0.7-1.3,2-1.3h0.7v-0.3c0-0.3-0.1-0.6-0.2-0.7c-0.1-0.2-0.4-0.2-0.7-0.2c-0.3,0-0.7,0.1-1.2,0.3l-0.2-0.5
		c0.2-0.1,0.4-0.2,0.7-0.3c0.2-0.1,0.5-0.1,0.7-0.1c0.5,0,0.8,0.1,1.1,0.3c0.2,0.2,0.4,0.6,0.4,1V18h-0.6V18.2z M351.7,17.8
		c0.4,0,0.7-0.1,0.9-0.3c0.2-0.2,0.3-0.5,0.3-0.9v-0.4h-0.6c-0.5,0-0.8,0.1-1.1,0.2s-0.3,0.3-0.3,0.6c0,0.2,0.1,0.4,0.2,0.5
		C351.3,17.7,351.5,17.8,351.7,17.8z"/>
	<path style="fill:#B7B9BA;" d="M357.9,18.2h-0.6v-3.5H356c-0.1,0.9-0.2,1.6-0.3,2.1c-0.1,0.5-0.3,0.9-0.5,1.1s-0.4,0.4-0.7,0.4
		c-0.1,0-0.2,0-0.3,0v-0.5c0.1,0,0.1,0,0.2,0c0.3,0,0.5-0.3,0.7-0.9s0.3-1.5,0.4-2.7h2.4L357.9,18.2L357.9,18.2z"/>
	<path style="fill:#B7B9BA;" d="M362.7,16.2c0,0.7-0.2,1.2-0.5,1.6s-0.8,0.6-1.4,0.6c-0.4,0-0.7-0.1-1-0.3c-0.3-0.2-0.5-0.4-0.7-0.7
		c-0.2-0.3-0.2-0.7-0.2-1.1c0-0.7,0.2-1.2,0.5-1.5c0.3-0.4,0.8-0.6,1.4-0.6s1,0.2,1.4,0.6C362.5,15,362.7,15.5,362.7,16.2z
		 M359.6,16.2c0,0.5,0.1,0.9,0.3,1.2c0.2,0.3,0.5,0.4,0.9,0.4s0.7-0.1,0.9-0.4c0.2-0.3,0.3-0.7,0.3-1.2s-0.1-0.9-0.3-1.2
		s-0.5-0.4-0.9-0.4s-0.7,0.1-0.9,0.4C359.7,15.2,359.6,15.6,359.6,16.2z"/>
	<path style="fill:#B7B9BA;" d="M365.4,18.3c-0.6,0-1-0.2-1.4-0.5c-0.3-0.4-0.5-0.9-0.5-1.5c0-0.7,0.2-1.2,0.5-1.6
		c0.3-0.4,0.8-0.6,1.4-0.6c0.2,0,0.4,0,0.6,0.1s0.3,0.1,0.5,0.1l-0.2,0.5c-0.1-0.1-0.3-0.1-0.4-0.1c-0.2,0-0.3-0.1-0.4-0.1
		c-0.8,0-1.2,0.5-1.2,1.6c0,0.5,0.1,0.9,0.3,1.2c0.2,0.3,0.5,0.4,0.9,0.4c0.3,0,0.7-0.1,1-0.2v0.5C366.2,18.2,365.8,18.3,365.4,18.3
		z"/>
	<path style="fill:#B7B9BA;" d="M368,15.8h1.3c1,0,1.6,0.4,1.6,1.1c0,0.4-0.1,0.7-0.4,0.9c-0.3,0.2-0.7,0.3-1.2,0.3h-1.8V14h0.6v1.8
		H368z M368,16.3v1.3h1.2c0.3,0,0.6-0.1,0.8-0.2c0.2-0.1,0.3-0.3,0.3-0.5s-0.1-0.4-0.2-0.5c-0.2-0.1-0.4-0.2-0.8-0.2H368V16.3z"/>
</g>
<g>
	<circle style="fill:#F1F1F1;" cx="388.4" cy="17.6" r="12.1"/>
</g>
<g>
	
		<line style="fill:none;stroke:#BBBBBB;stroke-width:0.5;stroke-linecap:round;stroke-linejoin:round;stroke-miterlimit:10;" x1="405" y1="15" x2="410" y2="15"/>
	
		<polyline style="fill:none;stroke:#BBBBBB;stroke-width:0.5;stroke-linecap:round;stroke-linejoin:round;stroke-miterlimit:10;" points="
		404.8,12.4 404.9,22 404.9,22 410,22 	"/>
	
		<circle style="fill:none;stroke:#BBBBBB;stroke-width:0.5;stroke-linecap:round;stroke-linejoin:round;stroke-miterlimit:10;" cx="413.6" cy="14.7" r="3.4"/>
	
		<circle style="fill:none;stroke:#BBBBBB;stroke-width:0.5;stroke-linecap:round;stroke-linejoin:round;stroke-miterlimit:10;" cx="412.5" cy="21.8" r="2.2"/>
	<rect x="409.8" y="12.8" style="fill:none;" width="7.5" height="5.2"/>
	<g style="enable-background:new    ;">
		<path style="fill:#BBBBBB;" d="M414.7,14.6c0,0.6-0.1,1-0.3,1.2s-0.5,0.4-0.8,0.4c-0.4,0-0.6-0.1-0.8-0.4
			c-0.2-0.3-0.3-0.7-0.3-1.2c0-0.6,0.1-1,0.3-1.2c0.2-0.3,0.4-0.4,0.8-0.4s0.6,0.1,0.8,0.4S414.7,14,414.7,14.6z M413,14.6
			c0,0.4,0,0.7,0.1,0.9s0.2,0.3,0.4,0.3c0.2,0,0.3-0.1,0.4-0.3s0.1-0.5,0.1-0.9s0-0.7-0.1-0.9s-0.2-0.3-0.4-0.3
			c-0.2,0-0.3,0.1-0.4,0.3C413.1,13.8,413,14.1,413,14.6z"/>
	</g>
</g>
<g>
	<g>
		<path style="fill:none;stroke:#B7B9BA;stroke-width:0.5;stroke-linecap:round;stroke-linejoin:round;stroke-miterlimit:10;" d="
			M390.5,18.8c-2,0-4-6,0-6S392.5,18.8,390.5,18.8z"/>
		<path style="fill:none;stroke:#B7B9BA;stroke-width:0.5;stroke-linecap:round;stroke-linejoin:round;stroke-miterlimit:10;" d="
			M386.9,22.5c-0.4-1.7,0.5-3.4,3.8-3.4c3.2,0,4,1.7,3.7,3.4"/>
		
			<line style="fill:none;stroke:#B7B9BA;stroke-width:0.5;stroke-linecap:round;stroke-linejoin:round;stroke-miterlimit:10;" x1="384.7" y1="12" x2="384.7" y2="17.1"/>
		
			<line style="fill:none;stroke:#B7B9BA;stroke-width:0.5;stroke-linecap:round;stroke-linejoin:round;stroke-miterlimit:10;" x1="382.2" y1="14.6" x2="387.2" y2="14.6"/>
	</g>
</g>
<g>
	<g>
		<path style="fill:#0067D0;" d="M103.2,78.6c5.5-4.1,7.6-9.9,9.3-16.3c-2-0.3-3.9-0.5-5.9-0.8c-1,9.5-2.9,18.9-4,28.3
			c-0.4,3.8,5.6,3.8,6,0c1-9.5,2.9-18.9,4-28.3c0.4-3.4-5-4-5.9-0.8c-1.2,4.6-2.5,9.7-6.5,12.7C97.1,75.8,100.1,81,103.2,78.6
			L103.2,78.6z"/>
	</g>
</g>
<g>
	<g>
		<path style="fill:#0067D0;" d="M458.3,66.2c-0.8,7.7-2.4,15.3-3.2,23c-0.4,3.8,5.6,3.8,6,0c0.8-7.7,2.4-15.3,3.2-23
			C464.7,62.4,458.7,62.4,458.3,66.2L458.3,66.2z"/>
	</g>
</g>
<g>
	<g>
		<path style="fill:#0067D0;" d="M225.8,70.5c0.2-4.1,6.9-1.5,4.5,3c-1.1,2-3.7,2.9-5.5,4.1c-3,1.9-6.3,4.8-7.1,8.5
			c-0.3,1.3,0.2,2.7,1.4,3.4c1.8,1.1,4.9,0.8,6.9,0.8c3.1,0,6.3,0,9.3-0.6c3.8-0.8,2.2-6.6-1.6-5.8c-2.2,0.5-4.5,0.4-6.8,0.4
			c-1.2,0-2.4-0.1-3.6-0.1c-0.3,0-2-0.4-1.2,0.1c0.5,1.1,0.9,2.3,1.4,3.4c1.1-4.8,8.2-6.2,11.1-9.8c2.6-3.2,3.1-7.9,0.9-11.4
			c-4.5-7.2-15.2-4.2-15.6,4.1C219.5,74.3,225.5,74.3,225.8,70.5L225.8,70.5z"/>
	</g>
</g>
<g>
	<g>
		<path style="fill:#0067D0;" d="M329.7,83.8c0.1,4.1,3.1,8,7.5,8.3c4.3,0.3,7.8-2.9,9.4-6.6c2.4-5.5-0.4-9.5-5.5-11.7
			c-0.1-0.1-0.9-0.2-0.5-0.2c-0.1-0.1-0.3-0.1-0.5-0.2c-0.8,3.7-0.4,4.9,1,3.5c1.5-0.8,3-2.5,4.1-3.7c1.9-1.9,5.3-6.1,1.7-8.3
			c-1.8-1.1-4.9-0.8-7-0.8c-3,0-6.2-0.1-9.2,0.7c-3.7,0.9-2.2,6.7,1.6,5.8c2.2-0.5,4.6-0.5,6.9-0.5c1.1,0,2.3,0,3.4,0.1
			c0.4,0,1.2,0.2,1.6,0.1c0.6-0.1,0.3,0.3-0.3-0.2c-0.5-0.9-1-1.7-1.5-2.6c0.3-0.9,0.3-0.9-0.1-0.1c-0.3,0.4-0.7,0.8-1.1,1.2
			c-0.6,0.7-1.3,1.3-1.9,1.9c-1.1,1-2.9,1.9-3.7,3.2c-1.2,1.9-0.2,3.9,1.5,4.9c1.1,0.6,3.3,0.9,4,2.1c1.8,3-5.3,8.2-5.5,3
			C335.6,80,329.6,80,329.7,83.8L329.7,83.8z"/>
	</g>
</g>
<g>
	<g>
		<path style="fill:#0067D0;" d="M456.9,68.5c-0.1,0.2-0.3,0.4-0.4,0.6c-1.7-1-3.3-1.9-5-2.9c-0.8,2.4-1.5,4.7-2.3,7.1
			c-0.6,1.9-1.8,4.3-1.9,6.3c-0.2,4.9,5.8,4.2,9,4.2c3.9,0,3.9-6,0-6c-0.9,0-1.8,0-2.7,0c-0.4,0-0.7,0-1.1,0c-0.7-0.1-0.7,0,0,0.2
			c0.3,0.7,0.6,1.4,0.9,2.1c-0.1-1.6,1.3-4.2,1.8-5.7c0.7-2.2,1.4-4.4,2.1-6.6c0.9-2.9-3-5-5-2.9c-0.6,0.6-1,1.2-1.1,2
			C450.5,70.7,456.3,72.3,456.9,68.5L456.9,68.5z"/>
	</g>
</g>
<path style="fill:#0067D0;" d="M87.6,80.9c-14.1-1.3-27.8-6.1-39.8-14.2c-9.2-6.2-17.4-14-24-23.1c-0.4,3.2-0.4,6.4,0,9.6
	c0.5,3.3-4.7,4-5.1,0.8c-1-5.8-0.4-11.7,1.4-17.2c0.3-0.7,0.8-1.3,1.5-1.5c0.9-0.6,2.3-0.2,2.8,0.7l0,0c2.4,2.7,9.8,4.6,13.3,4
	s4.2,4.8,0.9,5.2c-2.5,0.2-5.1,0-7.6-0.7c14.5,17.1,34.3,29.3,57,31.4C94.8,76.7,93.5,81.5,87.6,80.9z"/>
<path style="fill:#0067D0;" d="M250.9,75.9c22.7-2.1,42.5-14.3,56.9-31.3c-2.5,0.7-5.1,0.9-7.6,0.7c-3.3-0.4-2.6-5.7,0.9-5.2
	s10.9-1.3,13.3-4l0,0c0.6-0.9,1.9-1.3,2.8-0.7c0.7,0.3,1.3,0.8,1.5,1.5c1.9,5.5,2.4,11.4,1.4,17.2c-0.4,3.2-5.6,2.6-5.1-0.8
	c0.4-3.2,0.5-6.4,0-9.6c-6.7,9-14.8,16.8-24,23.1c-11.9,8.1-25.6,13-39.8,14.2C245.3,81.5,244.1,76.7,250.9,75.9z"/>
<path style="fill:#0067D0;" d="M358,59.7c6-4.3,11.2-9.5,16-15.2c-2.5,0.7-5.1,0.9-7.6,0.7c-3.3-0.4-2.6-5.7,0.9-5.2
	s10.9-1.3,13.3-4l0,0c0.6-0.9,1.9-1.3,2.8-0.7c0.7,0.3,1.3,0.8,1.5,1.5c1.9,5.5,2.4,11.4,1.4,17.2c-0.4,3.2-5.6,2.6-5.1-0.8
	c0.4-3.2,0.5-6.4,0-9.6c-6.7,9-14.8,16.8-24,23.1C351.9,66.7,354,62.5,358,59.7z"/>
<path style="fill:#0067D0;" d="M443.9,66.7c-9.2-6.2-17.4-14-24-23.1c-0.4,3.2-0.4,6.4,0,9.6c0.5,3.3-4.7,4-5.1,0.8
	c-1-5.8-0.4-11.7,1.4-17.2c0.3-0.7,0.8-1.3,1.5-1.5c0.9-0.6,2.3-0.2,2.8,0.7l0,0c2.4,2.7,9.8,4.6,13.3,4c3.5-0.5,4.2,4.8,0.9,5.2
	c-2.5,0.2-5.1,0-7.6-0.7c4.8,5.7,10,10.9,16,15.2C447.1,62.5,449.2,66.7,443.9,66.7z"/>
</svg>
