<?xml version="1.0" encoding="utf-8"?>
<!-- Generator: Adobe Illustrator 19.2.1, SVG Export Plug-In . SVG Version: 6.00 Build 0)  -->
<svg version="1.1" id="Слой_1" xmlns="http://www.w3.org/2000/svg" xmlns:xlink="http://www.w3.org/1999/xlink" x="0px" y="0px"
	 viewBox="0 0 446 90" style="enable-background:new 0 0 446 90;" xml:space="preserve">
<rect style="fill:#A0CAFC;" width="446" height="90"/>
<g>
	<g>
		<g>
			<rect x="-24.4" y="40.1" style="fill:none;" width="288" height="38.8"/>
			<g style="enable-background:new    ;">
				<path style="fill:#FFFDFC;" d="M97.2,42.5c0,0.5-0.2,0.9-0.5,1.2s-0.7,0.5-1.2,0.6l0,0c0.6,0.1,1.1,0.3,1.4,0.6s0.5,0.7,0.5,1.3
					c0,0.7-0.3,1.3-0.8,1.7s-1.2,0.6-2.2,0.6c-0.8,0-1.5-0.1-2.1-0.4v-0.5c0.3,0.2,0.6,0.3,1,0.4c0.4,0.1,0.7,0.1,1.1,0.1
					c0.8,0,1.4-0.2,1.8-0.5s0.6-0.8,0.6-1.3s-0.2-0.9-0.6-1.2s-1-0.4-1.8-0.4h-0.9v-0.5h0.9c0.7,0,1.2-0.2,1.6-0.5s0.6-0.7,0.6-1.2
					c0-0.4-0.2-0.8-0.5-1S95.4,41,94.9,41c-0.4,0-0.7,0.1-1.1,0.2c-0.3,0.1-0.7,0.3-1.1,0.6l-0.3-0.4c0.3-0.3,0.7-0.5,1.1-0.6
					s0.9-0.2,1.3-0.2c0.7,0,1.3,0.2,1.7,0.5C97,41.4,97.2,41.9,97.2,42.5z"/>
				<path style="fill:#FFFDFC;" d="M106.5,44c0,0.4-0.1,0.7-0.3,0.9c-0.2,0.2-0.5,0.4-0.9,0.4l0,0c0.5,0.1,0.8,0.2,1,0.4
					s0.3,0.5,0.3,0.9c0,0.6-0.2,1-0.6,1.3s-0.9,0.4-1.6,0.4H102v-5.8h2.5c0.7,0,1.2,0.1,1.5,0.4C106.4,43.2,106.5,43.6,106.5,44z
					 M106,44.1c0-0.3-0.1-0.6-0.4-0.7s-0.6-0.2-1.1-0.2h-1.9v2h1.9c0.5,0,0.9-0.1,1.2-0.3C105.9,44.7,106,44.4,106,44.1z
					 M106.1,46.7c0-0.7-0.6-1.1-1.7-1.1h-1.9v2.3h2C105.6,47.9,106.1,47.5,106.1,46.7z"/>
				<path style="fill:#FFFDFC;" d="M108.8,45.1h1.9c1.4,0,2.1,0.5,2.1,1.6c0,0.5-0.2,1-0.6,1.3s-0.9,0.5-1.7,0.5h-2.2v-5.8h0.5
					C108.8,42.7,108.8,45.1,108.8,45.1z M108.8,45.6v2.3h1.8c0.5,0,0.9-0.1,1.2-0.3s0.4-0.5,0.4-0.9s-0.1-0.7-0.4-0.8
					c-0.2-0.2-0.7-0.3-1.2-0.3H108.8z M114.3,48.4h-0.5v-5.8h0.5V48.4z"/>
				<path style="fill:#FFFDFC;" d="M115.9,45c0-2.5,0.7-3.9,2.1-4.3c0.5-0.1,1-0.2,1.4-0.3c0.5-0.1,0.9-0.2,1.2-0.2l0.1,0.5
					l-0.6,0.1c-1.1,0.2-1.8,0.4-2.1,0.5c-0.5,0.1-0.9,0.5-1.1,1c-0.3,0.5-0.4,1.2-0.5,2.2l0,0c0.4-0.5,0.8-0.8,1.1-1
					c0.4-0.2,0.7-0.3,1.1-0.3c0.7,0,1.3,0.2,1.6,0.7c0.4,0.5,0.6,1.1,0.6,2s-0.2,1.6-0.7,2.1s-1.1,0.8-1.8,0.8
					c-0.8,0-1.4-0.3-1.9-0.9C116.2,47,115.9,46.1,115.9,45z M118.5,48.1c0.6,0,1.1-0.2,1.4-0.6c0.3-0.4,0.5-1,0.5-1.7
					s-0.1-1.3-0.4-1.6c-0.3-0.4-0.7-0.6-1.3-0.6c-0.4,0-0.8,0.1-1.2,0.4c-0.4,0.3-0.7,0.6-1,1.1c0,0.6,0.1,1.2,0.2,1.7
					c0.2,0.5,0.4,0.8,0.7,1.1S118.1,48.1,118.5,48.1z"/>
				<path style="fill:#FFFDFC;" d="M125.1,48.5c-0.9,0-1.6-0.3-2-1l0,0v0.4c0,0.3,0,0.5,0,0.9V51h-0.5v-8.4h0.5l0.1,0.8l0,0
					c0.4-0.6,1-0.9,1.9-0.9c0.8,0,1.4,0.3,1.8,0.8s0.6,1.3,0.6,2.2c0,1-0.2,1.7-0.7,2.2C126.4,48.3,125.9,48.5,125.1,48.5z
					 M125.1,48.1c0.6,0,1.1-0.2,1.4-0.7c0.3-0.4,0.5-1.1,0.5-1.8c0-1.7-0.6-2.5-1.9-2.5c-0.7,0-1.2,0.2-1.5,0.6
					c-0.3,0.4-0.5,1-0.5,1.8v0.2c0,0.9,0.2,1.5,0.5,1.9S124.4,48.1,125.1,48.1z"/>
				<path style="fill:#FFFDFC;" d="M132.7,48.4l-0.1-0.9l0,0c-0.3,0.4-0.6,0.6-0.9,0.8s-0.7,0.2-1.1,0.2c-0.6,0-1-0.1-1.3-0.4
					c-0.3-0.3-0.5-0.7-0.5-1.2c0-0.6,0.2-1,0.7-1.3s1.2-0.5,2.1-0.5h1.1v-0.4c0-0.5-0.1-1-0.3-1.2s-0.6-0.4-1.1-0.4
					s-1.1,0.1-1.7,0.4l-0.2-0.5c0.6-0.3,1.3-0.4,1.9-0.4c0.6,0,1.1,0.2,1.4,0.5c0.3,0.3,0.5,0.8,0.5,1.5v3.8
					C133.2,48.4,132.7,48.4,132.7,48.4z M130.6,48.1c0.6,0,1.1-0.2,1.5-0.5c0.4-0.4,0.5-0.8,0.5-1.5v-0.6h-1c-0.8,0-1.4,0.2-1.8,0.4
					c-0.4,0.2-0.5,0.5-0.5,1c0,0.4,0.1,0.6,0.3,0.8C129.8,48,130.2,48.1,130.6,48.1z"/>
				<path style="fill:#FFFDFC;" d="M135.5,42.6v2.5h3.7v-2.5h0.5v5.8h-0.5v-2.8h-3.7v2.8H135v-5.8H135.5z"/>
				<path style="fill:#FFFDFC;" d="M146.6,45.5c0,0.9-0.2,1.7-0.7,2.2s-1.1,0.8-1.9,0.8c-0.5,0-1-0.1-1.4-0.4
					c-0.4-0.2-0.7-0.6-0.9-1.1s-0.3-1-0.3-1.6c0-0.9,0.2-1.7,0.7-2.2s1.1-0.8,1.9-0.8c0.8,0,1.4,0.3,1.9,0.8
					C146.4,43.9,146.6,44.6,146.6,45.5z M142,45.5c0,0.8,0.2,1.4,0.5,1.9s0.9,0.7,1.5,0.7s1.1-0.2,1.5-0.7s0.5-1.1,0.5-1.9
					c0-0.8-0.2-1.4-0.5-1.9c-0.4-0.4-0.9-0.7-1.5-0.7s-1.1,0.2-1.5,0.7S142,44.7,142,45.5z"/>
			</g>
		</g>
	</g>
</g>
<g>
	<line style="fill:none;stroke:#FFFFFF;stroke-width:0.5732;stroke-miterlimit:10;" x1="42.9" y1="48.2" x2="52.6" y2="38.4"/>
	<line style="fill:none;stroke:#FFFFFF;stroke-width:0.5732;stroke-miterlimit:10;" x1="52.6" y1="48.2" x2="42.9" y2="38.4"/>
</g>
<g>
	<g>
		<path style="fill:#FFFFFF;" d="M300,30v27h-90V30H300 M301,29h-92v29h92V29L301,29z"/>
	</g>
</g>
<g>
	<g>
		<path style="fill:#FFFFFF;" d="M400,30v27h-90V30H400 M401,29h-92v29h92V29L401,29z"/>
	</g>
</g>
<g>
	<g>
		<polygon style="fill:none;" points="305.3,72.9 202.6,72.9 202.6,38.4 305.5,38.4 		"/>
		<g style="enable-background:new    ;">
			<path style="fill:#FFFDFC;" d="M234.7,46.8c-0.4,0-0.8-0.1-1-0.2v-0.5c0.3,0.1,0.6,0.2,1,0.2c0.3,0,0.5,0,0.7-0.1
				s0.4-0.2,0.5-0.4c0.2-0.2,0.3-0.5,0.6-1l-3.1-5.9h0.6l2.4,4.5c0.1,0.2,0.2,0.5,0.3,0.8l0,0l0.1-0.3l2.2-5h0.6l-2.5,5.5
				c-0.2,0.4-0.3,0.7-0.5,1c-0.1,0.3-0.3,0.6-0.5,0.8s-0.4,0.4-0.6,0.5C235.3,46.7,235,46.8,234.7,46.8z"/>
			<path style="fill:#FFFDFC;" d="M245.3,48.7h-0.5v-2h-4.4v2h-0.5v-2.5h0.4c0.5-0.7,0.9-1.5,1.1-2.4c0.3-0.9,0.4-1.9,0.4-2.9h2.8
				v5.3h0.8v2.5C245.4,48.7,245.3,48.7,245.3,48.7z M244,46.2v-4.8h-1.8c-0.1,1.9-0.5,3.5-1.4,4.8H244z"/>
			<path style="fill:#FFFDFC;" d="M250,46.7l-0.1-0.9l0,0c-0.3,0.4-0.6,0.6-0.9,0.8s-0.7,0.2-1.1,0.2c-0.6,0-1-0.1-1.3-0.4
				c-0.3-0.3-0.5-0.7-0.5-1.2c0-0.6,0.2-1,0.7-1.3s1.1-0.5,2-0.5h1.1V43c0-0.5-0.1-1-0.3-1.2c-0.2-0.3-0.6-0.4-1.1-0.4
				s-1.1,0.1-1.7,0.4l-0.2-0.5c0.6-0.3,1.3-0.4,1.9-0.4c0.6,0,1.1,0.2,1.4,0.5c0.3,0.3,0.5,0.8,0.5,1.5v3.8
				C250.4,46.7,250,46.7,250,46.7z M247.9,46.3c0.6,0,1.1-0.2,1.5-0.5c0.4-0.4,0.5-0.8,0.5-1.5v-0.6h-1c-0.8,0-1.4,0.2-1.7,0.4
				s-0.5,0.5-0.5,1c0,0.4,0.1,0.6,0.3,0.8C247.2,46.2,247.5,46.3,247.9,46.3z"/>
			<path style="fill:#FFFDFC;" d="M256.3,46.7h-0.5v-5.3h-2c-0.1,1.4-0.2,2.5-0.4,3.2s-0.4,1.3-0.6,1.6c-0.2,0.3-0.6,0.5-0.9,0.5
				c-0.1,0-0.3,0-0.4,0v-0.5c0.1,0,0.2,0,0.3,0c0.4,0,0.7-0.4,1-1.3c0.2-0.8,0.4-2.2,0.6-4.1h3v5.9
				C256.4,46.7,256.3,46.7,256.3,46.7z"/>
			<path style="fill:#FFFDFC;" d="M258.7,40.9v4.2v1.1l3.4-5.3h0.7v5.8h-0.5v-4.2v-1.1l-3.4,5.3h-0.7v-5.8H258.7z"/>
			<path style="fill:#FFFDFC;" d="M268.4,41.4h-1.9v5.3H266v-5.3h-2v-0.5h4.4V41.4z"/>
			<path style="fill:#FFFDFC;" d="M270.1,43.4h2c1.4,0,2,0.5,2,1.6c0,0.5-0.2,1-0.6,1.3s-0.9,0.5-1.6,0.5h-2.4V41h0.5v2.4H270.1z
				 M270.1,43.9v2.3h2c0.5,0,0.9-0.1,1.2-0.3c0.3-0.2,0.4-0.5,0.4-0.9s-0.1-0.7-0.4-0.8s-0.6-0.3-1.2-0.3H270.1z"/>
		</g>
	</g>
</g>
<g>
	<g>
		<g>
			<rect x="309.2" y="39" style="fill:none;" width="90.8" height="24.5"/>
			<g style="enable-background:new    ;">
				<path style="fill:#FFFDFC;" d="M320.2,39.5h2.1c1,0,1.7,0.2,2.1,0.5s0.7,0.8,0.7,1.5c0,0.5-0.1,0.8-0.4,1.1s-0.7,0.5-1.2,0.6
					l0,0c0.6,0.1,1.1,0.3,1.4,0.6s0.4,0.7,0.4,1.3c0,0.7-0.2,1.3-0.7,1.7s-1.1,0.6-2,0.6h-2.4V39.5z M320.7,43h1.7
					c0.7,0,1.3-0.1,1.6-0.4c0.3-0.2,0.5-0.6,0.5-1.1s-0.2-0.9-0.6-1.1c-0.4-0.2-0.9-0.4-1.7-0.4h-1.6v3H320.7z M320.7,43.4v3.4h1.8
					c1.4,0,2.2-0.6,2.2-1.8c0-1.1-0.8-1.6-2.3-1.6C322.4,43.4,320.7,43.4,320.7,43.4z"/>
				<path style="fill:#FFFDFC;" d="M331.7,44.4c0,0.9-0.2,1.7-0.7,2.2s-1.1,0.8-1.9,0.8c-0.5,0-1-0.1-1.3-0.4
					c-0.4-0.2-0.7-0.6-0.9-1.1c-0.2-0.5-0.3-1-0.3-1.6c0-0.9,0.2-1.7,0.7-2.2s1.1-0.8,1.9-0.8s1.4,0.3,1.9,0.8
					C331.4,42.7,331.7,43.4,331.7,44.4z M327.1,44.4c0,0.8,0.2,1.4,0.5,1.9c0.3,0.4,0.8,0.7,1.5,0.7c0.6,0,1.1-0.2,1.5-0.7
					c0.3-0.4,0.5-1.1,0.5-1.9c0-0.8-0.2-1.4-0.5-1.9c-0.4-0.4-0.8-0.7-1.5-0.7c-0.6,0-1.1,0.2-1.5,0.7
					C327.3,43,327.1,43.6,327.1,44.4z"/>
				<path style="fill:#FFFDFC;" d="M335.6,47.4c-0.8,0-1.5-0.3-1.9-0.8c-0.5-0.5-0.7-1.2-0.7-2.2s0.2-1.7,0.7-2.2s1.2-0.8,2-0.8
					c0.5,0,1,0.1,1.4,0.3l-0.1,0.5c-0.5-0.2-0.9-0.3-1.3-0.3c-0.7,0-1.2,0.2-1.6,0.7c-0.4,0.4-0.5,1.1-0.5,1.9
					c0,0.8,0.2,1.4,0.5,1.8c0.4,0.4,0.9,0.7,1.5,0.7c0.5,0,1-0.1,1.5-0.3v0.5C336.7,47.3,336.2,47.4,335.6,47.4z"/>
				<path style="fill:#FFFDFC;" d="M340.8,47.4c-0.8,0-1.5-0.3-1.9-0.8c-0.5-0.5-0.7-1.2-0.7-2.2s0.2-1.7,0.7-2.2s1.2-0.8,2-0.8
					c0.5,0,1,0.1,1.4,0.3l-0.1,0.5c-0.5-0.2-0.9-0.3-1.3-0.3c-0.7,0-1.2,0.2-1.6,0.7c-0.4,0.4-0.5,1.1-0.5,1.9
					c0,0.8,0.2,1.4,0.5,1.8c0.4,0.4,0.9,0.7,1.5,0.7c0.5,0,1-0.1,1.5-0.3v0.5C341.8,47.3,341.3,47.4,340.8,47.4z"/>
				<path style="fill:#FFFDFC;" d="M347.3,42h-1.9v5.3h-0.5V42h-2v-0.5h4.4V42z"/>
				<path style="fill:#FFFDFC;" d="M352,47.3l-0.1-0.9l0,0c-0.3,0.4-0.6,0.6-0.9,0.8s-0.7,0.2-1.1,0.2c-0.6,0-1-0.1-1.3-0.4
					c-0.3-0.3-0.5-0.7-0.5-1.2c0-0.6,0.2-1,0.7-1.3s1.1-0.5,2-0.5h1.1v-0.4c0-0.5-0.1-1-0.3-1.2c-0.2-0.3-0.6-0.4-1.1-0.4
					s-1.1,0.1-1.7,0.4l-0.2-0.5c0.6-0.3,1.3-0.4,1.9-0.4s1.1,0.2,1.4,0.5s0.5,0.8,0.5,1.5v3.8C352.4,47.3,352,47.3,352,47.3z
					 M349.9,46.9c0.6,0,1.1-0.2,1.5-0.5s0.5-0.8,0.5-1.5v-0.6h-1c-0.8,0-1.4,0.2-1.7,0.4c-0.3,0.2-0.5,0.5-0.5,1
					c0,0.4,0.1,0.6,0.3,0.8S349.5,46.9,349.9,46.9z"/>
				<path style="fill:#FFFDFC;" d="M354.8,41.5V44h3.7v-2.5h0.5v5.8h-0.5v-2.8h-3.7v2.8h-0.5v-5.8H354.8z"/>
				<path style="fill:#FFFDFC;" d="M365.7,44.4c0,0.9-0.2,1.7-0.7,2.2s-1.1,0.8-1.9,0.8c-0.5,0-1-0.1-1.3-0.4
					c-0.4-0.2-0.7-0.6-0.9-1.1c-0.2-0.5-0.3-1-0.3-1.6c0-0.9,0.2-1.7,0.7-2.2s1.1-0.8,1.9-0.8s1.4,0.3,1.9,0.8
					C365.5,42.7,365.7,43.4,365.7,44.4z M361.1,44.4c0,0.8,0.2,1.4,0.5,1.9c0.3,0.4,0.8,0.7,1.5,0.7c0.6,0,1.1-0.2,1.5-0.7
					c0.3-0.4,0.5-1.1,0.5-1.9c0-0.8-0.2-1.4-0.5-1.9c-0.4-0.4-0.8-0.7-1.5-0.7c-0.6,0-1.1,0.2-1.5,0.7
					C361.3,43,361.1,43.6,361.1,44.4z"/>
				<path style="fill:#FFFDFC;" d="M371.7,42.9c0,0.4-0.1,0.7-0.3,0.9c-0.2,0.2-0.5,0.4-0.9,0.4l0,0c0.5,0.1,0.8,0.2,1,0.4
					s0.3,0.5,0.3,0.9c0,0.6-0.2,1-0.6,1.3s-0.9,0.4-1.6,0.4h-2.4v-5.8h2.5c0.7,0,1.2,0.1,1.5,0.4C371.5,42.1,371.7,42.4,371.7,42.9z
					 M371.2,42.9c0-0.3-0.1-0.6-0.4-0.7c-0.2-0.1-0.6-0.2-1.1-0.2h-1.9v2h1.8c0.5,0,0.9-0.1,1.2-0.3C371,43.6,371.2,43.3,371.2,42.9
					z M371.3,45.5c0-0.7-0.5-1.1-1.6-1.1h-1.9v2.3h2C370.8,46.8,371.3,46.4,371.3,45.5z"/>
				<path style="fill:#FFFDFC;" d="M373.9,41.5v4.2v1.1l3.4-5.3h0.7v5.8h-0.5v-4.2V42l-3.4,5.3h-0.7v-5.8H373.9z"/>
				<path style="fill:#FFFDFC;" d="M383.6,42h-1.9v5.3h-0.5V42h-2v-0.5h4.4V42z"/>
				<path style="fill:#FFFDFC;" d="M385.4,43.9h2c1.4,0,2,0.5,2,1.6c0,0.6-0.2,1-0.6,1.3s-0.9,0.5-1.6,0.5h-2.4v-5.8h0.5v2.4H385.4z
					 M385.4,44.4v2.3h2c0.5,0,0.9-0.1,1.2-0.3c0.3-0.2,0.4-0.5,0.4-0.9s-0.1-0.7-0.4-0.8s-0.6-0.3-1.2-0.3H385.4z"/>
			</g>
		</g>
	</g>
</g>
</svg>
