<?xml version="1.0" encoding="utf-8"?>
<!-- Generator: Adobe Illustrator 19.2.1, SVG Export Plug-In . SVG Version: 6.00 Build 0)  -->
<svg version="1.1" id="Слой_1" xmlns="http://www.w3.org/2000/svg" xmlns:xlink="http://www.w3.org/1999/xlink" x="0px" y="0px"
	 viewBox="0 0 250 124.1" style="enable-background:new 0 0 250 124.1;" xml:space="preserve">
<g>
	<g>
		<path style="fill:#0067D0;" d="M175.5,75.9c8.6-6.2,12-15.8,14.6-25.7c-2.9-0.4-5.9-0.8-8.8-1.2c-1.6,15.1-4.7,29.9-6.3,45
			c-0.6,5.8,8.4,5.7,9,0c1.6-15.1,4.7-29.9,6.3-45c0.6-5.1-7.6-6-8.8-1.2c-1.9,7.3-4,15.7-10.5,20.3
			C166.3,71.5,170.8,79.3,175.5,75.9L175.5,75.9z"/>
	</g>
</g>
<g>
	<rect x="43.3" y="-31.5" style="fill:#F2F2F2;" width="870.2" height="40.5"/>
</g>
<g>
	<rect x="1.6" y="-32.1" style="fill:#91CFF9;" width="41" height="40.8"/>
</g>
<line style="fill:none;stroke:#EDEDED;stroke-miterlimit:10;" x1="42.9" y1="124.1" x2="42.9" y2="-32.1"/>
<g id="taskmanager_6_">
	
		<circle style="fill:none;stroke:#828282;stroke-linecap:round;stroke-linejoin:round;stroke-miterlimit:10;" cx="17.8" cy="24.8" r="3.6"/>
	
		<line style="fill:none;stroke:#828282;stroke-linecap:round;stroke-linejoin:round;stroke-miterlimit:10;" x1="17.5" y1="26" x2="19.8" y2="23.7"/>
	
		<line style="fill:none;stroke:#828282;stroke-linecap:round;stroke-linejoin:round;stroke-miterlimit:10;" x1="17.5" y1="26" x2="16.3" y2="24.8"/>
	
		<circle style="fill:none;stroke:#828282;stroke-linecap:round;stroke-linejoin:round;stroke-miterlimit:10;" cx="17.8" cy="33.1" r="3.6"/>
</g>
<g id="access_11_">
	<g id="access_12_">
		<path style="fill:none;stroke:#828282;stroke-linecap:round;stroke-linejoin:round;stroke-miterlimit:10;" d="M17.8,87.1l3.9-3.9
			c1-1,2.6-1,3.6,0l0.5,0.5c1,1,1,2.6,0,3.6l-3.9,3.9c-1,1-2.6,1-3.6,0l-0.5-0.5"/>
		<path style="fill:none;stroke:#828282;stroke-linecap:round;stroke-linejoin:round;stroke-miterlimit:10;" d="M19.5,93.5l-3.9,3.9
			c-1,1-2.6,1-3.6,0l-0.5-0.5c-1-1-1-2.6,0-3.6l3.9-3.9c1-1,2.6-1,3.6,0l0.5,0.5"/>
	</g>
</g>
<g>
	
		<line style="fill:none;stroke:#828282;stroke-linecap:round;stroke-linejoin:round;stroke-miterlimit:10;" x1="12.8" y1="52.9" x2="23.4" y2="52.9"/>
	<path style="fill:none;stroke:#828282;stroke-linecap:round;stroke-linejoin:round;stroke-miterlimit:10;" d="M23.7,55.3
		c0-1.3-0.9-1.1-2.2-1.1h-7c-1.4,0-2.2-0.2-2.2,1.1l0.7,8.2c0.3,2,1.6,2.6,2.4,2.6h5.3c0.9,0,2.2,0,2.5-2.7L23.7,55.3z"/>
	<path style="fill:none;stroke:#828282;stroke-linecap:round;stroke-linejoin:round;stroke-miterlimit:10;" d="M19.5,52.7
		c0-0.9-0.7-1.6-1.6-1.6s-1.6,0.7-1.6,1.6"/>
	<rect x="16.1" y="57.6" style="fill:none;" width="5.3" height="8.3"/>
	<text transform="matrix(1 0 0 1 16.0897 62.3395)" style="fill:#828282; font-family:'OpenSans-Light'; font-size:6.2288px;">2</text>
</g>
<rect x="39.5" y="22.4" style="fill:none;" width="86.3" height="17.1"/>
<rect x="154.4" y="-15.3" style="fill:none;" width="86.3" height="17.1"/>
<rect x="241" y="-15.3" style="fill:none;" width="86.3" height="17.1"/>
<rect x="39.5" y="53.6" style="fill:none;" width="86.5" height="17.1"/>
<rect x="39.5" y="84.1" style="fill:none;" width="85.3" height="17.1"/>
<path style="fill:#FFFFFF;" d="M22.7-15.1c0.7,0,1.4,0.1,1.9,0.4c0.6,0.2,1,0.7,1.4,1.4H26C26-14.2,26-15,26-15.7v-3.6h0.9v14.4
	h-0.6L26-6.5H26c-0.7,1.1-1.9,1.7-3.3,1.7c-1.4,0-2.4-0.4-3.2-1.3c-0.7-0.9-1.1-2.1-1.1-3.7c0-1.7,0.4-3.1,1.1-4
	C20.2-14.7,21.3-15.1,22.7-15.1z M22.7-14.3c-1.1,0-1.9,0.4-2.5,1.2c-0.6,0.7-0.8,1.9-0.8,3.4c0,2.9,1.1,4.3,3.3,4.3
	c1.1,0,2-0.3,2.5-1C25.7-7.2,26-8.2,26-9.7v-0.2c0-1.6-0.2-2.7-0.8-3.4C24.7-14,23.9-14.3,22.7-14.3z"/>
<g>
	<circle style="fill:#FFFFFF;" cx="12.8" cy="-7.2" r="1.2"/>
</g>
<g>
	<circle style="fill:#FFFFFF;" cx="12.8" cy="-11.8" r="1.2"/>
</g>
<g>
	<polyline style="fill:#FFFFFF;stroke:#69BFFF;stroke-linecap:round;stroke-linejoin:round;stroke-miterlimit:10;" points="
		205.7,22.7 205.7,21.2 211.3,21.2 211.3,22.7 	"/>
	<path style="fill:#69BFFF;stroke:#69BFFF;stroke-linecap:round;stroke-linejoin:round;stroke-miterlimit:10;" d="M217.6,33h-10
		c-1.1,0-1.9-0.9-1.9-1.9v-8.5V23h11.8c1.1,0,1.8,0.4,1.8,1.4v6.7C219.4,32.1,218.6,33,217.6,33z"/>
	
		<line style="fill:none;stroke:#FFFFFF;stroke-linecap:round;stroke-linejoin:round;stroke-miterlimit:10;" x1="212.6" y1="24.6" x2="212.6" y2="30.8"/>
	
		<line style="fill:none;stroke:#FFFFFF;stroke-linecap:round;stroke-linejoin:round;stroke-miterlimit:10;" x1="209.8" y1="28" x2="215.4" y2="28"/>
</g>
<rect x="57.7" y="21.3" style="fill:none;" width="134.7" height="35.6"/>
<g>
	<path style="fill:#69BFFF;" d="M65.5,33.4l-4-9.8h-0.1c0.1,0.6,0.1,1.2,0.1,1.9v8h-0.7V22.8H62l3.8,9.4h0.1l3.8-9.4h1.1v10.7H70
		v-8.1c0-0.6,0-1.1,0.1-1.7H70l-4,9.8H65.5z"/>
	<path style="fill:#69BFFF;" d="M80,29.5c0,1.3-0.3,2.3-0.9,3.1s-1.5,1.1-2.6,1.1c-0.7,0-1.3-0.2-1.9-0.5c-0.6-0.3-0.9-0.8-1.2-1.4
		c-0.3-0.6-0.4-1.4-0.4-2.2c0-1.3,0.3-2.3,0.9-3.1c0.6-0.7,1.5-1.1,2.6-1.1c1.1,0,1.9,0.4,2.6,1.1S80,28.2,80,29.5z M73.7,29.5
		c0,1.1,0.2,1.9,0.7,2.6c0.5,0.6,1.2,0.9,2.1,0.9s1.6-0.3,2.1-0.9c0.5-0.6,0.7-1.4,0.7-2.6s-0.2-1.9-0.7-2.6
		c-0.5-0.6-1.2-0.9-2.1-0.9s-1.6,0.3-2.1,0.9C74,27.5,73.7,28.4,73.7,29.5z"/>
	<path style="fill:#69BFFF;" d="M82.9,25.5v5.7l-0.1,1.5l4.7-7.2h0.9v7.9h-0.7v-5.7v-1.6l-4.7,7.2h-0.9v-7.9L82.9,25.5L82.9,25.5z
		 M85.4,24.4c-0.7,0-1.3-0.2-1.7-0.5c-0.4-0.3-0.6-0.9-0.7-1.6h0.6c0.1,0.6,0.2,0.9,0.5,1.1s0.7,0.3,1.2,0.3c0.6,0,0.9-0.1,1.2-0.4
		c0.2-0.2,0.4-0.6,0.5-1.1h0.6C87.6,23.7,86.8,24.4,85.4,24.4z"/>
	<path style="fill:#69BFFF;" d="M102.9,33.4h-0.7v-10H96v10h-0.7V22.8h7.7L102.9,33.4L102.9,33.4z"/>
	<path style="fill:#69BFFF;" d="M109.1,33.6c-1.2,0-2.1-0.4-2.7-1.4h-0.1v0.6c0,0.4,0,0.7,0,1.2v3.1h-0.7V25.6h0.6l0.1,1.1h0.1
		c0.6-0.9,1.4-1.3,2.6-1.3c1.1,0,1.9,0.4,2.4,1.1s0.9,1.7,0.9,3.1c0,1.3-0.3,2.3-0.9,3.1C110.9,33.3,110.2,33.6,109.1,33.6z
		 M109.1,32.9c0.8,0,1.4-0.3,1.9-0.9c0.4-0.6,0.7-1.4,0.7-2.6c0-2.3-0.9-3.5-2.6-3.5c-0.9,0-1.6,0.2-2.1,0.7
		c-0.4,0.5-0.6,1.3-0.6,2.5v0.2c0,1.2,0.2,2.1,0.6,2.7C107.5,32.7,108.2,32.9,109.1,32.9z"/>
	<path style="fill:#69BFFF;" d="M121.2,29.5c0,1.3-0.3,2.3-0.9,3.1s-1.5,1.1-2.6,1.1c-0.7,0-1.3-0.2-1.9-0.5
		c-0.6-0.3-0.9-0.8-1.2-1.4c-0.3-0.6-0.4-1.4-0.4-2.2c0-1.3,0.3-2.3,0.9-3.1c0.6-0.7,1.5-1.1,2.6-1.1c1.1,0,1.9,0.4,2.6,1.1
		S121.2,28.2,121.2,29.5z M114.9,29.5c0,1.1,0.2,1.9,0.7,2.6c0.5,0.6,1.2,0.9,2.1,0.9s1.6-0.3,2.1-0.9c0.5-0.6,0.7-1.4,0.7-2.6
		s-0.2-1.9-0.7-2.6c-0.5-0.6-1.2-0.9-2.1-0.9s-1.6,0.3-2.1,0.9C115.2,27.5,114.9,28.4,114.9,29.5z"/>
	<path style="fill:#69BFFF;" d="M126.6,33.6c-1.2,0-2.1-0.4-2.7-1.1c-0.6-0.7-1-1.7-1-3c0-1.2,0.3-2.3,0.9-3.1
		c0.6-0.7,1.4-1.1,2.5-1.1c0.9,0,1.7,0.3,2.2,1c0.6,0.7,0.8,1.6,0.8,2.7v0.6h-5.7c0,1.1,0.2,1.9,0.7,2.5s1.2,0.9,2.1,0.9
		c0.4,0,0.9-0.1,1.2-0.1c0.3-0.1,0.7-0.2,1.3-0.4v0.7c-0.4,0.2-0.9,0.3-1.2,0.4C127.4,33.6,127.1,33.6,126.6,33.6z M126.4,26
		c-0.7,0-1.4,0.2-1.9,0.7c-0.5,0.5-0.7,1.2-0.8,2.2h4.9c0-0.9-0.2-1.6-0.6-2.2C127.6,26.2,127.1,26,126.4,26z"/>
	<path style="fill:#69BFFF;" d="M135.9,25.5h0.9l-3.6,3.9l3.8,4.1h-1l-3.7-4v4h-0.7v-7.9h0.7v3.9L135.9,25.5z"/>
	<path style="fill:#69BFFF;" d="M143.5,26.1h-2.6v7.3h-0.7v-7.3h-2.7v-0.6h6L143.5,26.1L143.5,26.1z"/>
</g>
<path style="fill:#0067D0;" d="M146.8,74.9c-29.7-12.3-62.5-10.2-91.5,1.8c3.5,0.8,6.8,2.2,9.9,4.3c3.8,2.7-0.6,8.8-4.6,5.9
	c-4-2.9-14.5-5.4-19.2-3.7l0,0c-1.4,0.8-3.1,0.4-4-1c-0.7-0.7-1.2-1.8-1-2.9c1.3-8.2,4.5-15.9,9.5-22.5c2.8-3.9,8.6,0.5,5.9,4.3
	c-2.7,3.7-4.9,7.7-6.4,11.9c14.2-6.9,29.5-11.3,45.1-13c20.2-2.3,40.6,0.6,59.1,8.4C157.4,71.6,155.7,78.4,146.8,74.9z"/>
</svg>
