<?xml version="1.0" encoding="utf-8"?>
<!-- Generator: Adobe Illustrator 19.2.1, SVG Export Plug-In . SVG Version: 6.00 Build 0)  -->
<svg version="1.1" id="Слой_1" xmlns="http://www.w3.org/2000/svg" xmlns:xlink="http://www.w3.org/1999/xlink" x="0px" y="0px"
	 viewBox="0 0 500 140" style="enable-background:new 0 0 500 140;" xml:space="preserve">
<rect x="73.5" y="33" style="fill:#FFFFFF;" width="423" height="94"/>
<g id="status_x5F_menu">
	<g id="completed_4_">
		<g>
			
				<circle style="fill:none;stroke:#B9BBBC;stroke-width:0.8943;stroke-linecap:round;stroke-linejoin:round;stroke-miterlimit:10;" cx="194.8" cy="52" r="5.6"/>
			
				<line style="fill:none;stroke:#B9BBBC;stroke-width:0.8943;stroke-linecap:round;stroke-linejoin:round;stroke-miterlimit:10;" x1="194.4" y1="53.8" x2="198" y2="50.3"/>
			
				<line style="fill:none;stroke:#B9BBBC;stroke-width:0.8943;stroke-linecap:round;stroke-linejoin:round;stroke-miterlimit:10;" x1="194.4" y1="53.9" x2="192.6" y2="52.1"/>
		</g>
		<rect x="207.3" y="48.8" style="fill:none;" width="44.7" height="16.5"/>
		<g style="enable-background:new    ;">
			<path style="fill:#B9BBBC;" d="M210.3,50.8h-2v3.7h-0.4v-4h2.4V50.8z"/>
			<path style="fill:#B9BBBC;" d="M214.5,52.5c0,0.7-0.2,1.2-0.5,1.5c-0.3,0.4-0.8,0.6-1.3,0.6c-0.4,0-0.7-0.1-0.9-0.3
				c-0.3-0.2-0.5-0.4-0.6-0.7s-0.2-0.7-0.2-1.1c0-0.7,0.2-1.2,0.5-1.5c0.3-0.4,0.8-0.6,1.3-0.6c0.6,0,1,0.2,1.3,0.6
				S214.5,51.9,214.5,52.5z M211.3,52.5c0,0.6,0.1,1,0.4,1.3s0.6,0.5,1,0.5s0.8-0.2,1-0.5s0.4-0.7,0.4-1.3s-0.1-1-0.4-1.3
				s-0.6-0.5-1-0.5s-0.8,0.2-1,0.5S211.3,52,211.3,52.5z"/>
			<path style="fill:#B9BBBC;" d="M218.2,50.8h-1.3v3.7h-0.4v-3.7h-1.4v-0.3h3.1L218.2,50.8L218.2,50.8z"/>
			<path style="fill:#B9BBBC;" d="M222.3,52.5c0,0.7-0.2,1.2-0.5,1.5c-0.3,0.4-0.8,0.6-1.3,0.6c-0.4,0-0.7-0.1-0.9-0.3
				c-0.3-0.2-0.5-0.4-0.6-0.7s-0.2-0.7-0.2-1.1c0-0.7,0.2-1.2,0.5-1.5c0.3-0.4,0.8-0.6,1.3-0.6c0.6,0,1,0.2,1.3,0.6
				S222.3,51.9,222.3,52.5z M219.1,52.5c0,0.6,0.1,1,0.4,1.3s0.6,0.5,1,0.5s0.8-0.2,1-0.5s0.4-0.7,0.4-1.3s-0.1-1-0.4-1.3
				s-0.6-0.5-1-0.5s-0.8,0.2-1,0.5S219.1,52,219.1,52.5z"/>
			<path style="fill:#B9BBBC;" d="M226.5,51.5c0,0.3-0.1,0.5-0.2,0.6c-0.1,0.1-0.3,0.2-0.6,0.3l0,0c0.3,0,0.6,0.1,0.7,0.3
				c0.1,0.1,0.2,0.4,0.2,0.6c0,0.4-0.1,0.7-0.4,0.9c-0.3,0.2-0.6,0.3-1.1,0.3h-1.7v-4h1.7c0.5,0,0.8,0.1,1,0.2
				C226.4,50.9,226.5,51.2,226.5,51.5z M226.1,51.5c0-0.2-0.1-0.4-0.3-0.5s-0.4-0.2-0.8-0.2h-1.3v1.4h1.3c0.4,0,0.6-0.1,0.8-0.2
				C226.1,51.9,226.1,51.8,226.1,51.5z M226.3,53.3c0-0.5-0.4-0.7-1.1-0.7h-1.3v1.6h1.4C225.9,54.2,226.3,53.9,226.3,53.3z"/>
			<path style="fill:#B9BBBC;" d="M231.1,52.5c0,0.7-0.2,1.2-0.5,1.5c-0.3,0.4-0.8,0.6-1.3,0.6c-0.4,0-0.7-0.1-0.9-0.3
				c-0.3-0.2-0.5-0.4-0.6-0.7s-0.2-0.7-0.2-1.1c0-0.7,0.2-1.2,0.5-1.5c0.3-0.4,0.8-0.6,1.3-0.6c0.6,0,1,0.2,1.3,0.6
				S231.1,51.9,231.1,52.5z M227.9,52.5c0,0.6,0.1,1,0.4,1.3s0.6,0.5,1,0.5s0.8-0.2,1-0.5s0.4-0.7,0.4-1.3s-0.1-1-0.4-1.3
				s-0.6-0.5-1-0.5s-0.8,0.2-1,0.5S227.9,52,227.9,52.5z"/>
		</g>
	</g>
	<g id="incomplete_2_">
		<rect x="122.1" y="49.2" style="fill:none;" width="44.7" height="16.5"/>
		<g style="enable-background:new    ;">
			<path style="fill:#B9BBBC;" d="M126.2,53c0,0.7-0.2,1.2-0.5,1.5c-0.3,0.4-0.8,0.6-1.3,0.6c-0.4,0-0.7-0.1-0.9-0.3
				c-0.3-0.2-0.5-0.4-0.6-0.7s-0.2-0.7-0.2-1.1c0-0.7,0.2-1.2,0.5-1.5c0.3-0.4,0.8-0.6,1.3-0.6c0.6,0,1,0.2,1.3,0.6
				S126.2,52.3,126.2,53z M123,53c0,0.6,0.1,1,0.4,1.3s0.6,0.5,1,0.5s0.8-0.2,1-0.5s0.4-0.7,0.4-1.3s-0.1-1-0.4-1.3s-0.6-0.5-1-0.5
				s-0.8,0.2-1,0.5S123,52.4,123,53z"/>
			<path style="fill:#B9BBBC;" d="M128.9,50.9h0.4v2l1.7-2h0.4l-1.7,2l1.9,2.1h-0.5l-1.8-2v2h-0.4v-2l-1.8,2h-0.5l1.9-2.1l-1.7-2
				h0.4l1.7,2L128.9,50.9L128.9,50.9z"/>
			<path style="fill:#B9BBBC;" d="M132.7,50.9v2.9v0.8l2.4-3.7h0.5v4h-0.4V52v-0.8l-2.4,3.7h-0.5v-4H132.7z"/>
			<path style="fill:#B9BBBC;" d="M140.2,56.4h-0.4V55h-3.1v1.4h-0.4v-1.7h0.3c0.3-0.5,0.6-1,0.8-1.6s0.3-1.3,0.3-2h1.9v3.7h0.5
				L140.2,56.4L140.2,56.4z M139.3,54.6v-3.3H138c-0.1,1.3-0.4,2.5-1,3.3H139.3z"/>
			<path style="fill:#B9BBBC;" d="M143.5,55l-0.1-0.6l0,0c-0.2,0.3-0.4,0.4-0.6,0.6c-0.2,0.1-0.5,0.2-0.8,0.2
				c-0.4,0-0.7-0.1-0.9-0.3s-0.3-0.5-0.3-0.8c0-0.4,0.2-0.7,0.5-0.9s0.8-0.3,1.4-0.3h0.8v-0.3c0-0.4-0.1-0.7-0.2-0.9
				c-0.2-0.2-0.4-0.3-0.8-0.3c-0.4,0-0.8,0.1-1.2,0.3l-0.1-0.3c0.4-0.2,0.9-0.3,1.3-0.3c0.4,0,0.8,0.1,1,0.3s0.3,0.6,0.3,1.1V55
				H143.5z M142,54.7c0.4,0,0.8-0.1,1-0.4c0.2-0.2,0.4-0.6,0.4-1v-0.4h-0.7c-0.6,0-1,0.1-1.2,0.3s-0.4,0.4-0.4,0.7s0.1,0.4,0.2,0.6
				S141.7,54.7,142,54.7z"/>
			<path style="fill:#B9BBBC;" d="M150,53c0,0.7-0.1,1.2-0.4,1.5c-0.3,0.4-0.7,0.6-1.2,0.6s-0.9-0.2-1.2-0.5
				c-0.3-0.4-0.4-0.9-0.5-1.5h-1.3V55H145v-4h0.4v1.8h1.3c0-0.6,0.2-1,0.5-1.4c0.3-0.3,0.7-0.5,1.2-0.5s0.9,0.2,1.2,0.6
				C149.9,51.8,150,52.3,150,53z M147.1,53c0,0.6,0.1,1,0.3,1.3s0.5,0.5,0.9,0.5s0.7-0.2,0.9-0.5s0.3-0.7,0.3-1.3s-0.1-1-0.3-1.3
				s-0.5-0.5-0.9-0.5s-0.7,0.2-0.9,0.5S147.1,52.4,147.1,53z"/>
			<path style="fill:#B9BBBC;" d="M153.7,51.3h-1.3V55H152v-3.7h-1.4V51h3.1L153.7,51.3L153.7,51.3z"/>
		</g>
		<g>
			<g>
				
					<circle style="fill:none;stroke:#B9BBBC;stroke-width:0.8943;stroke-linecap:round;stroke-linejoin:round;stroke-miterlimit:10;" cx="111" cy="52.4" r="5.6"/>
			</g>
			
				<line style="fill:none;stroke:#B9BBBC;stroke-width:0.8943;stroke-linecap:round;stroke-linejoin:round;stroke-miterlimit:10;" x1="111" y1="52.5" x2="110.9" y2="55.9"/>
			
				<line style="fill:none;stroke:#B9BBBC;stroke-width:0.8943;stroke-linecap:round;stroke-linejoin:round;stroke-miterlimit:10;" x1="110.9" y1="52.5" x2="112.6" y2="50.6"/>
			
				<path style="fill:none;stroke:#B9BBBC;stroke-width:0.8943;stroke-linecap:round;stroke-linejoin:round;stroke-miterlimit:10;" d="
				M110.1,46.7c0-0.6,0.5-1.1,1.1-1.1s1.1,0.5,1.1,1.1"/>
		</g>
	</g>
	<g id="in_prosses_4_">
		<rect x="292.4" y="48.8" style="fill:none;" width="44.7" height="16.5"/>
		<g style="enable-background:new    ;">
			<path style="fill:#B9BBBC;" d="M293.4,54.5H293v-4h3.2v4h-0.4v-3.7h-2.5L293.4,54.5L293.4,54.5z"/>
			<path style="fill:#B9BBBC;" d="M299.4,54.6c-0.6,0-1.1-0.2-1.4-0.7l0,0v0.3c0,0.2,0,0.4,0,0.6v1.5h-0.4v-5.9h0.3L298,51l0,0
				c0.3-0.4,0.7-0.7,1.3-0.7c0.5,0,1,0.2,1.2,0.5c0.3,0.4,0.4,0.9,0.4,1.6c0,0.7-0.1,1.2-0.5,1.5C300.3,54.4,299.9,54.6,299.4,54.6z
				 M299.3,54.3c0.4,0,0.7-0.2,1-0.5c0.2-0.3,0.3-0.7,0.3-1.3c0-1.2-0.4-1.8-1.3-1.8c-0.5,0-0.8,0.1-1,0.4c-0.2,0.3-0.3,0.7-0.3,1.3
				v0.1c0,0.6,0.1,1.1,0.3,1.4C298.5,54.1,298.9,54.3,299.3,54.3z"/>
			<path style="fill:#B9BBBC;" d="M305.5,52.5c0,0.7-0.2,1.2-0.5,1.5s-0.8,0.6-1.3,0.6c-0.4,0-0.7-0.1-0.9-0.3s-0.5-0.4-0.6-0.7
				s-0.2-0.7-0.2-1.1c0-0.7,0.2-1.2,0.5-1.5c0.3-0.4,0.8-0.6,1.3-0.6c0.6,0,1,0.2,1.3,0.6S305.5,51.9,305.5,52.5z M302.3,52.5
				c0,0.6,0.1,1,0.4,1.3c0.2,0.3,0.6,0.5,1,0.5s0.8-0.2,1-0.5s0.4-0.7,0.4-1.3s-0.1-1-0.4-1.3s-0.6-0.5-1-0.5s-0.8,0.2-1,0.5
				S302.3,52,302.3,52.5z"/>
			<path style="fill:#B9BBBC;" d="M310.3,55.9h-0.4v-1.4h-3.3v-4h0.4v3.7h2.4v-3.7h0.4v3.7h0.5V55.9z"/>
			<path style="fill:#B9BBBC;" d="M312.8,54.6c-0.6,0-1-0.2-1.4-0.5c-0.3-0.4-0.5-0.9-0.5-1.5s0.2-1.2,0.5-1.5
				c0.3-0.4,0.7-0.6,1.3-0.6c0.5,0,0.8,0.2,1.1,0.5c0.3,0.3,0.4,0.8,0.4,1.4v0.3h-2.9c0,0.6,0.1,1,0.4,1.3s0.6,0.4,1.1,0.4
				c0.2,0,0.4,0,0.6,0s0.4-0.1,0.7-0.2v0.3c-0.2,0.1-0.4,0.2-0.6,0.2C313.2,54.6,313,54.6,312.8,54.6z M312.7,50.7
				c-0.4,0-0.7,0.1-0.9,0.4c-0.2,0.3-0.4,0.6-0.4,1.1h2.5c0-0.5-0.1-0.8-0.3-1.1C313.3,50.9,313,50.7,312.7,50.7z"/>
			<path style="fill:#B9BBBC;" d="M316.9,54.6c-0.6,0-1-0.2-1.4-0.5c-0.3-0.4-0.5-0.9-0.5-1.5c0-0.7,0.2-1.2,0.5-1.6
				s0.8-0.6,1.4-0.6c0.3,0,0.7,0.1,1,0.2l-0.1,0.3c-0.3-0.1-0.7-0.2-0.9-0.2c-0.5,0-0.9,0.2-1.1,0.5s-0.4,0.7-0.4,1.3
				c0,0.5,0.1,1,0.4,1.3s0.6,0.5,1.1,0.5c0.4,0,0.7-0.1,1-0.2v0.3C317.7,54.5,317.3,54.6,316.9,54.6z"/>
			<path style="fill:#B9BBBC;" d="M320.5,54.6c-0.6,0-1-0.2-1.4-0.5c-0.3-0.4-0.5-0.9-0.5-1.5c0-0.7,0.2-1.2,0.5-1.6
				s0.8-0.6,1.4-0.6c0.3,0,0.7,0.1,1,0.2l-0.1,0.3c-0.3-0.1-0.7-0.2-0.9-0.2c-0.5,0-0.9,0.2-1.1,0.5s-0.4,0.7-0.4,1.3
				c0,0.5,0.1,1,0.4,1.3s0.6,0.5,1.1,0.5c0.4,0,0.7-0.1,1-0.2v0.3C321.3,54.5,321,54.6,320.5,54.6z"/>
		</g>
		<g>
			<g>
				
					<line style="fill:none;stroke:#B9BBBC;stroke-width:0.8943;stroke-linecap:round;stroke-linejoin:round;stroke-miterlimit:10;" x1="281.3" y1="46.3" x2="282.2" y2="48.3"/>
				
					<line style="fill:none;stroke:#B9BBBC;stroke-width:0.8943;stroke-linecap:round;stroke-linejoin:round;stroke-miterlimit:10;" x1="280.1" y1="48.5" x2="282.2" y2="48.3"/>
			</g>
			
				<path style="fill:none;stroke:#B9BBBC;stroke-width:0.8943;stroke-linecap:round;stroke-linejoin:round;stroke-miterlimit:10;" d="
				M274.6,48.5c1.1-1.3,2.9-2,4.7-1.7c1.1,0.2,2.1,0.7,2.9,1.5"/>
			<g>
				
					<line style="fill:none;stroke:#B9BBBC;stroke-width:0.8943;stroke-linecap:round;stroke-linejoin:round;stroke-miterlimit:10;" x1="272.4" y1="52.1" x2="273.7" y2="50.3"/>
				
					<line style="fill:none;stroke:#B9BBBC;stroke-width:0.8943;stroke-linecap:round;stroke-linejoin:round;stroke-miterlimit:10;" x1="275" y1="52.1" x2="273.7" y2="50.3"/>
			</g>
			
				<path style="fill:none;stroke:#B9BBBC;stroke-width:0.8943;stroke-linecap:round;stroke-linejoin:round;stroke-miterlimit:10;" d="
				M277.8,56.8c-1.7-0.3-3.2-1.5-3.9-3.2c-0.4-1.1-0.5-2.2-0.2-3.2"/>
			<g>
				
					<line style="fill:none;stroke:#B9BBBC;stroke-width:0.8943;stroke-linecap:round;stroke-linejoin:round;stroke-miterlimit:10;" x1="281.9" y1="56.9" x2="279.7" y2="56.8"/>
				
					<line style="fill:none;stroke:#B9BBBC;stroke-width:0.8943;stroke-linecap:round;stroke-linejoin:round;stroke-miterlimit:10;" x1="280.6" y1="54.7" x2="279.7" y2="56.8"/>
			</g>
			
				<path style="fill:none;stroke:#B9BBBC;stroke-width:0.8943;stroke-linecap:round;stroke-linejoin:round;stroke-miterlimit:10;" d="
				M283.1,49.6c0.7,1.7,0.5,3.8-0.7,5.4c-0.7,0.9-1.7,1.5-2.7,1.8"/>
		</g>
	</g>
	<g id="expired_4_">
		<rect x="366.8" y="48.8" style="fill:none;" width="55.7" height="16.5"/>
		<g style="enable-background:new    ;">
			<path style="fill:#B9BBBC;" d="M367.8,54.5h-0.4v-4h3.2v4h-0.4v-3.7h-2.5L367.8,54.5L367.8,54.5z"/>
			<path style="fill:#B9BBBC;" d="M373.7,54.6c-0.6,0-1.1-0.2-1.4-0.7l0,0v0.3c0,0.2,0,0.4,0,0.6v1.5H372v-5.9h0.3l0.1,0.6l0,0
				c0.3-0.4,0.7-0.7,1.3-0.7c0.5,0,1,0.2,1.2,0.5c0.3,0.4,0.4,0.9,0.4,1.6c0,0.7-0.1,1.2-0.5,1.5C374.7,54.4,374.3,54.6,373.7,54.6z
				 M373.7,54.3c0.4,0,0.7-0.2,1-0.5c0.2-0.3,0.3-0.7,0.3-1.3c0-1.2-0.4-1.8-1.3-1.8c-0.5,0-0.8,0.1-1,0.4c-0.2,0.3-0.3,0.7-0.3,1.3
				v0.1c0,0.6,0.1,1.1,0.3,1.4C372.9,54.1,373.3,54.3,373.7,54.3z"/>
			<path style="fill:#B9BBBC;" d="M379.9,52.5c0,0.7-0.2,1.2-0.5,1.5s-0.8,0.6-1.3,0.6c-0.4,0-0.7-0.1-0.9-0.3s-0.5-0.4-0.6-0.7
				s-0.2-0.7-0.2-1.1c0-0.7,0.2-1.2,0.5-1.5c0.3-0.4,0.8-0.6,1.3-0.6c0.6,0,1,0.2,1.3,0.6S379.9,51.9,379.9,52.5z M376.7,52.5
				c0,0.6,0.1,1,0.4,1.3c0.2,0.3,0.6,0.5,1,0.5s0.8-0.2,1-0.5s0.4-0.7,0.4-1.3s-0.1-1-0.4-1.3s-0.6-0.5-1-0.5s-0.8,0.2-1,0.5
				S376.7,52,376.7,52.5z"/>
			<path style="fill:#B9BBBC;" d="M382.6,54.6c-0.6,0-1-0.2-1.4-0.5c-0.3-0.4-0.5-0.9-0.5-1.5c0-0.7,0.2-1.2,0.5-1.6
				s0.8-0.6,1.4-0.6c0.3,0,0.7,0.1,1,0.2l-0.1,0.3c-0.3-0.1-0.7-0.2-0.9-0.2c-0.5,0-0.9,0.2-1.1,0.5s-0.4,0.7-0.4,1.3
				c0,0.5,0.1,1,0.4,1.3s0.6,0.5,1.1,0.5c0.4,0,0.7-0.1,1-0.2v0.3C383.4,54.5,383,54.6,382.6,54.6z"/>
			<path style="fill:#B9BBBC;" d="M386.3,54.6c-0.6,0-1.1-0.2-1.4-0.7l0,0v0.3c0,0.2,0,0.4,0,0.6v1.5h-0.4v-5.9h0.3l0.1,0.6l0,0
				c0.3-0.4,0.7-0.7,1.3-0.7c0.5,0,1,0.2,1.2,0.5c0.3,0.4,0.4,0.9,0.4,1.6c0,0.7-0.1,1.2-0.5,1.5C387.3,54.4,386.8,54.6,386.3,54.6z
				 M386.3,54.3c0.4,0,0.7-0.2,1-0.5c0.2-0.3,0.3-0.7,0.3-1.3c0-1.2-0.4-1.8-1.3-1.8c-0.5,0-0.8,0.1-1,0.4c-0.2,0.3-0.3,0.7-0.3,1.3
				v0.1c0,0.6,0.1,1.1,0.3,1.4C385.5,54.1,385.8,54.3,386.3,54.3z"/>
			<path style="fill:#B9BBBC;" d="M392.5,52.5c0,0.7-0.2,1.2-0.5,1.5s-0.8,0.6-1.3,0.6c-0.4,0-0.7-0.1-0.9-0.3s-0.5-0.4-0.6-0.7
				s-0.2-0.7-0.2-1.1c0-0.7,0.2-1.2,0.5-1.5c0.3-0.4,0.8-0.6,1.3-0.6c0.6,0,1,0.2,1.3,0.6S392.5,51.9,392.5,52.5z M389.3,52.5
				c0,0.6,0.1,1,0.4,1.3c0.2,0.3,0.6,0.5,1,0.5s0.8-0.2,1-0.5s0.4-0.7,0.4-1.3s-0.1-1-0.4-1.3s-0.6-0.5-1-0.5s-0.8,0.2-1,0.5
				S389.3,52,389.3,52.5z"/>
			<path style="fill:#B9BBBC;" d="M393.9,50.5v1.4c0,0.3,0.1,0.6,0.2,0.7c0.2,0.2,0.4,0.2,0.8,0.2c0.2,0,0.5,0,0.7-0.1
				s0.4-0.2,0.7-0.4v-1.8h0.4v4h-0.4v-1.9c-0.2,0.2-0.5,0.3-0.7,0.4c-0.2,0.1-0.5,0.1-0.8,0.1c-0.4,0-0.7-0.1-0.9-0.3
				c-0.2-0.2-0.3-0.5-0.3-0.9v-1.4H393.9z"/>
			<path style="fill:#B9BBBC;" d="M399.6,54.6c-0.6,0-1-0.2-1.4-0.5c-0.3-0.4-0.5-0.9-0.5-1.5s0.2-1.2,0.5-1.5
				c0.3-0.4,0.7-0.6,1.3-0.6c0.5,0,0.8,0.2,1.1,0.5c0.3,0.3,0.4,0.8,0.4,1.4v0.3h-2.9c0,0.6,0.1,1,0.4,1.3s0.6,0.4,1.1,0.4
				c0.2,0,0.4,0,0.6,0s0.4-0.1,0.7-0.2v0.3c-0.2,0.1-0.4,0.2-0.6,0.2C400.1,54.6,399.9,54.6,399.6,54.6z M399.5,50.7
				c-0.4,0-0.7,0.1-0.9,0.4c-0.2,0.3-0.4,0.6-0.4,1.1h2.5c0-0.5-0.1-0.8-0.3-1.1C400.2,50.9,399.9,50.7,399.5,50.7z"/>
			<path style="fill:#B9BBBC;" d="M402.5,50.5v1.8h2.6v-1.8h0.4v4h-0.4v-1.9h-2.6v1.9h-0.4v-4H402.5z"/>
			<path style="fill:#B9BBBC;" d="M407.2,50.5v1.8h2.6v-1.8h0.4v4h-0.4v-1.9h-2.6v1.9h-0.4v-4H407.2z"/>
			<path style="fill:#B9BBBC;" d="M411.8,52.2h1.3c0.9,0,1.4,0.4,1.4,1.1c0,0.4-0.1,0.7-0.4,0.9s-0.6,0.3-1.1,0.3h-1.5v-4h0.4
				L411.8,52.2L411.8,52.2z M411.8,52.5v1.6h1.2c0.3,0,0.6-0.1,0.8-0.2c0.2-0.1,0.3-0.4,0.3-0.7s-0.1-0.5-0.2-0.6
				c-0.2-0.1-0.5-0.2-0.9-0.2h-1.2V52.5z M415.6,54.5h-0.4v-4h0.4V54.5z"/>
			<path style="fill:#B9BBBC;" d="M418.6,54.6c-0.6,0-1-0.2-1.4-0.5s-0.5-0.9-0.5-1.5s0.2-1.2,0.5-1.5c0.3-0.4,0.7-0.6,1.3-0.6
				c0.5,0,0.9,0.2,1.1,0.5c0.3,0.3,0.4,0.8,0.4,1.4v0.3h-2.9c0,0.6,0.1,1,0.4,1.3s0.6,0.4,1.1,0.4c0.2,0,0.4,0,0.6,0
				s0.4-0.1,0.7-0.2v0.3c-0.2,0.1-0.4,0.2-0.6,0.2C419,54.6,418.8,54.6,418.6,54.6z M418.5,50.7c-0.4,0-0.7,0.1-0.9,0.4
				c-0.2,0.3-0.4,0.6-0.4,1.1h2.5c0-0.5-0.1-0.8-0.3-1.1S418.8,50.7,418.5,50.7z"/>
		</g>
		<g>
			<g>
				
					<path style="fill:#B9BBBC;stroke:#B9BBBC;stroke-width:0.8943;stroke-linecap:round;stroke-linejoin:round;stroke-miterlimit:10;" d="
					M355,52.6c-0.5-1.1-0.2-1.7,0.2-2.3c0.4-0.6,0.6-1.3,0.6-1.3s0.3,0.4,0.2,1.2c0.6-0.7,0.7-1.8,0.6-2.2c1.4,1,2,3.1,1.2,4.6
					c4.2-2.4,1.1-6,0.5-6.4c0.2,0.4,0.2,1.1-0.2,1.4c-0.6-2.4-2.2-2.9-2.2-2.9c0.2,1.2-0.7,2.6-1.5,3.6c0-0.5-0.1-0.8-0.3-1.3
					c-0.1,0.9-0.7,1.6-0.9,2.5C352.9,50.8,353.3,51.7,355,52.6z"/>
			</g>
			
				<path style="fill:none;stroke:#B9BBBC;stroke-width:0.8943;stroke-linecap:round;stroke-linejoin:round;stroke-miterlimit:10;" d="
				M358.7,53.5c0,0.2-0.1,0.5-0.2,0.7c-0.6,2-2.4,3.4-4.6,3.4c-2.6,0-4.8-2.1-4.8-4.8c0-2.1,1.4-3.9,3.2-4.5"/>
		</g>
	</g>
	<g id="all_2_">
		<g>
			<rect x="444.8" y="48.3" style="fill:none;" width="44.7" height="16.5"/>
			<g style="enable-background:new    ;">
				<path style="fill:#B9BBBC;" d="M448.6,51c0,0.3-0.1,0.5-0.2,0.6s-0.3,0.2-0.6,0.3l0,0c0.3,0,0.6,0.1,0.7,0.3
					c0.1,0.1,0.2,0.4,0.2,0.6c0,0.4-0.1,0.7-0.4,0.9s-0.6,0.3-1.1,0.3h-1.7v-4h1.7c0.5,0,0.8,0.1,1,0.2
					C448.4,50.5,448.6,50.7,448.6,51z M448.2,51.1c0-0.2-0.1-0.4-0.3-0.5c-0.2-0.1-0.4-0.2-0.8-0.2h-1.3v1.4h1.3
					c0.4,0,0.6-0.1,0.8-0.2S448.2,51.3,448.2,51.1z M448.3,52.9c0-0.5-0.4-0.7-1.1-0.7h-1.3v1.6h1.4
					C447.9,53.7,448.3,53.4,448.3,52.9z"/>
				<path style="fill:#B9BBBC;" d="M451.4,54.2c-0.6,0-1-0.2-1.4-0.5c-0.3-0.4-0.5-0.9-0.5-1.5c0-0.7,0.2-1.2,0.5-1.6
					s0.8-0.6,1.4-0.6c0.3,0,0.7,0.1,1,0.2l-0.1,0.3c-0.3-0.1-0.7-0.2-0.9-0.2c-0.5,0-0.9,0.2-1.1,0.5s-0.4,0.7-0.4,1.3
					c0,0.5,0.1,1,0.4,1.3s0.6,0.5,1.1,0.5c0.4,0,0.7-0.1,1-0.2V54C452.1,54.1,451.8,54.2,451.4,54.2z"/>
				<path style="fill:#B9BBBC;" d="M455,54.2c-0.6,0-1-0.2-1.4-0.5s-0.5-0.9-0.5-1.5s0.2-1.2,0.5-1.5c0.3-0.4,0.7-0.6,1.3-0.6
					c0.5,0,0.9,0.2,1.1,0.5c0.3,0.3,0.4,0.8,0.4,1.4v0.3h-2.9c0,0.6,0.1,1,0.4,1.3s0.6,0.4,1.1,0.4c0.2,0,0.4,0,0.6,0
					s0.4-0.1,0.7-0.2v0.3c-0.2,0.1-0.4,0.2-0.6,0.2C455.5,54.1,455.2,54.2,455,54.2z M454.9,50.3c-0.4,0-0.7,0.1-0.9,0.4
					c-0.2,0.3-0.4,0.6-0.4,1.1h2.5c0-0.5-0.1-0.8-0.3-1.1S455.3,50.3,454.9,50.3z"/>
			</g>
		</g>
		<g>
			<g>
				
					<circle style="fill:none;stroke:#B9BBBC;stroke-width:0.8943;stroke-linecap:round;stroke-linejoin:round;stroke-miterlimit:10;" cx="436.8" cy="48.9" r="2"/>
				
					<circle style="fill:none;stroke:#B9BBBC;stroke-width:0.8943;stroke-linecap:round;stroke-linejoin:round;stroke-miterlimit:10;" cx="440.3" cy="54.3" r="2"/>
				
					<circle style="fill:none;stroke:#B9BBBC;stroke-width:0.8943;stroke-linecap:round;stroke-linejoin:round;stroke-miterlimit:10;" cx="433.2" cy="54.3" r="2"/>
			</g>
		</g>
	</g>
</g>
<g>
	<g>
		<path style="fill:#0067D0;" d="M29.2,57.6c5.5-4.1,7.6-9.9,9.3-16.3c-2-0.3-3.9-0.5-5.9-0.8c-1,9.5-2.9,18.9-4,28.3
			c-0.4,3.8,5.6,3.8,6,0c1-9.5,2.9-18.9,4-28.3c0.4-3.4-5-4-5.9-0.8c-1.2,4.6-2.5,9.7-6.5,12.7C23.1,54.8,26.1,60,29.2,57.6
			L29.2,57.6z"/>
	</g>
</g>
<g>
	<g>
		<path style="fill:#0067D0;" d="M20,94.8c0.2-3.6,6-1.3,3.9,2.7c-1,1.8-3.4,2.7-5.1,3.8c-2.9,1.8-6,4.6-6.8,8.1
			c-0.3,1.3,0.2,2.7,1.4,3.4c1.7,1.1,4.6,0.8,6.6,0.8c2.9,0,6,0,8.8-0.6c3.8-0.8,2.2-6.6-1.6-5.8c-2,0.5-4.2,0.4-6.3,0.4
			c-1.1,0-2.3-0.1-3.4-0.1c-0.4,0-1.9-0.4-1,0.1c0.5,1.1,0.9,2.3,1.4,3.4c1-4.5,7.7-5.8,10.4-9.1c2.5-3.1,3-7.6,0.9-10.9
			c-4.4-7-14.6-4.1-15,3.9C13.8,98.6,19.8,98.6,20,94.8L20,94.8z"/>
	</g>
</g>
<path style="fill:#0067D0;" d="M52.9,57.4c10.2-4.3,14.2-4.5,25.2-5.1c-2.4-2.1-5.1-3.8-7.9-5.1c-3-1.4-0.9-6,2.1-4.6
	c5.3,2.3,9.9,5.9,13.5,10.5c0.5,0.6,0.6,1.4,0.4,2.1c0,1.1-1,2-2.1,2l0,0c-3.5,0.6-9.1,5.7-10.5,8.8c-1.5,3.2-6.2,0.9-4.8-2
	c1.2-2.3,2.7-4.3,4.6-6c-8.2,1-9.4,0.7-17,3.7c-1.9,0.8-3.8,1.3-5.7,0.9C48.9,62.2,48.3,59,52.9,57.4z"/>
<path style="fill:#0067D0;" d="M42.9,97.4c10.2-4.3,14.2-4.5,25.2-5.1c-2.4-2.1-5.1-3.8-7.9-5.1c-3-1.4-0.9-6,2.1-4.6
	c5.3,2.3,9.9,5.9,13.5,10.5c0.5,0.6,0.6,1.4,0.4,2.1c0,1.1-1,2-2.1,2l0,0c-3.5,0.6-9.1,5.7-10.5,8.8s-6.2,0.9-4.8-2
	c1.2-2.3,2.7-4.3,4.6-6c-8.2,1-9.4,0.7-17,3.7c-1.9,0.8-3.8,1.3-5.7,0.9C38.9,102.2,38.3,99,42.9,97.4z"/>
<g>
	<rect x="93.5" y="89.6" style="fill:none;" width="204.7" height="18.5"/>
	<g style="enable-background:new    ;">
		<path style="fill:#B9BBBC;" d="M101,100.9h-0.6v-2.2h-6.2v2.2h-0.6v-2.7h0.6c0.6-1,1.1-2.3,1.5-3.8s0.7-2.9,0.7-4.2h3.6v8h0.9
			L101,100.9L101,100.9z M99.5,98.1v-7.4H97c-0.1,1.2-0.3,2.6-0.7,4s-0.9,2.6-1.4,3.5L99.5,98.1L99.5,98.1z"/>
		<path style="fill:#B9BBBC;" d="M107.7,95.5c0,1-0.3,1.9-0.8,2.4s-1.2,0.9-2.1,0.9c-0.6,0-1.1-0.1-1.5-0.4s-0.8-0.7-1-1.2
			s-0.3-1.1-0.3-1.7c0-1,0.3-1.8,0.8-2.4s1.2-0.9,2.1-0.9s1.6,0.3,2.1,0.9S107.7,94.5,107.7,95.5z M102.6,95.5c0,0.9,0.2,1.6,0.6,2
			s0.9,0.7,1.6,0.7s1.2-0.2,1.6-0.7s0.6-1.2,0.6-2c0-0.9-0.2-1.6-0.6-2s-0.9-0.7-1.6-0.7s-1.2,0.2-1.6,0.7S102.6,94.6,102.6,95.5z"
			/>
		<path style="fill:#B9BBBC;" d="M109.1,94.9c0-2.8,0.8-4.3,2.3-4.7c0.5-0.1,1.1-0.3,1.6-0.3s0.9-0.2,1.3-0.3l0.1,0.5l-0.7,0.1
			c-1.2,0.2-1.9,0.4-2.3,0.5c-0.5,0.2-0.9,0.5-1.2,1.1s-0.5,1.4-0.5,2.4l0,0c0.4-0.5,0.8-0.9,1.2-1.1s0.8-0.3,1.2-0.3
			c0.8,0,1.4,0.3,1.8,0.8s0.6,1.2,0.6,2.2s-0.2,1.8-0.7,2.3s-1.1,0.8-2,0.8s-1.6-0.3-2-1S109.1,96.1,109.1,94.9z M111.9,98.3
			c0.7,0,1.2-0.2,1.5-0.7s0.5-1.1,0.5-1.9s-0.2-1.4-0.5-1.8s-0.8-0.6-1.4-0.6c-0.5,0-0.9,0.1-1.3,0.4s-0.8,0.7-1.1,1.2
			c0,0.7,0.1,1.3,0.3,1.8s0.4,0.9,0.8,1.2S111.4,98.3,111.9,98.3z"/>
		<path style="fill:#B9BBBC;" d="M120.2,98.7l-0.1-1l0,0c-0.3,0.4-0.6,0.7-1,0.9s-0.7,0.3-1.2,0.3c-0.6,0-1.1-0.2-1.5-0.5
			s-0.5-0.8-0.5-1.3c0-0.6,0.3-1.1,0.8-1.4s1.3-0.5,2.2-0.5h1.2v-0.4c0-0.6-0.1-1.1-0.4-1.4s-0.6-0.5-1.2-0.5s-1.2,0.2-1.8,0.5
			l-0.2-0.5c0.7-0.3,1.4-0.5,2.1-0.5s1.2,0.2,1.6,0.5s0.5,0.9,0.5,1.7v4.2L120.2,98.7L120.2,98.7z M117.8,98.3
			c0.7,0,1.2-0.2,1.6-0.6s0.6-0.9,0.6-1.6v-0.6h-1.1c-0.9,0-1.5,0.2-1.9,0.4s-0.6,0.6-0.6,1.1c0,0.4,0.1,0.7,0.4,0.9
			S117.4,98.3,117.8,98.3z"/>
		<path style="fill:#B9BBBC;" d="M127.6,93.9c0,0.4-0.1,0.7-0.3,0.9s-0.5,0.4-1,0.5l0,0c0.5,0.1,0.9,0.2,1.1,0.4s0.3,0.6,0.3,1
			c0,0.6-0.2,1.1-0.6,1.4s-1,0.5-1.8,0.5h-2.7v-6.4h2.7c0.7,0,1.3,0.1,1.6,0.4S127.6,93.4,127.6,93.9z M127,93.9
			c0-0.4-0.1-0.6-0.4-0.8s-0.7-0.2-1.2-0.2h-2.1v2.2h2c0.6,0,1-0.1,1.3-0.3S127,94.3,127,93.9z M127.1,96.8c0-0.8-0.6-1.2-1.8-1.2
			h-2.1v2.5h2.2C126.6,98.2,127.1,97.7,127.1,96.8z"/>
		<path style="fill:#B9BBBC;" d="M130,92.3v4.6v1.2l3.8-5.8h0.8v6.4H134v-4.6v-1.2l-3.8,5.8h-0.8v-6.4H130z"/>
		<path style="fill:#B9BBBC;" d="M140.7,92.8h-2.1v5.9H138v-5.9h-2.2v-0.5h4.9V92.8z"/>
		<path style="fill:#B9BBBC;" d="M142.6,95h2.2c1.5,0,2.2,0.6,2.2,1.8c0,0.6-0.2,1.1-0.6,1.4s-1,0.5-1.8,0.5H142v-6.4h0.6V95z
			 M142.6,95.6v2.6h2.2c0.6,0,1-0.1,1.3-0.4s0.4-0.6,0.4-1s-0.1-0.7-0.4-0.9s-0.7-0.3-1.4-0.3C144.7,95.6,142.6,95.6,142.6,95.6z"/>
		<path style="fill:#B9BBBC;" d="M153.2,95.1c1.2,0,1.7-0.4,1.7-1.2c0-0.4-0.1-0.7-0.4-0.9s-0.6-0.3-1.1-0.3c-0.3,0-0.6,0-0.9,0.1
			s-0.6,0.2-0.9,0.3l-0.2-0.5c0.7-0.3,1.3-0.5,2-0.5s1.2,0.1,1.6,0.4s0.5,0.7,0.5,1.2c0,0.7-0.4,1.2-1.1,1.4l0,0
			c0.5,0.1,0.8,0.3,1,0.6s0.3,0.6,0.3,1c0,0.6-0.2,1.1-0.6,1.4s-1,0.5-1.8,0.5c-0.4,0-0.8,0-1.1-0.1s-0.6-0.2-0.8-0.3v-0.6
			c0.4,0.2,0.8,0.3,1,0.4s0.6,0.1,0.9,0.1c0.6,0,1-0.1,1.4-0.4s0.5-0.6,0.5-1s-0.2-0.8-0.5-1s-0.8-0.3-1.4-0.3h-0.9v-0.5h0.8V95.1z"
			/>
		<path style="fill:#B9BBBC;" d="M161.3,98.7l-0.1-1l0,0c-0.3,0.4-0.6,0.7-1,0.9s-0.7,0.3-1.2,0.3c-0.6,0-1.1-0.2-1.5-0.5
			s-0.5-0.8-0.5-1.3c0-0.6,0.3-1.1,0.8-1.4s1.3-0.5,2.2-0.5h1.2v-0.4c0-0.6-0.1-1.1-0.4-1.4s-0.6-0.5-1.2-0.5
			c-0.6,0-1.2,0.2-1.8,0.5l-0.2-0.5c0.7-0.3,1.4-0.5,2.1-0.5c0.7,0,1.2,0.2,1.6,0.5s0.5,0.9,0.5,1.7v4.2L161.3,98.7L161.3,98.7z
			 M158.9,98.3c0.7,0,1.2-0.2,1.6-0.6s0.6-0.9,0.6-1.6v-0.6H160c-0.9,0-1.5,0.2-1.9,0.4s-0.6,0.6-0.6,1.1c0,0.4,0.1,0.7,0.4,0.9
			S158.5,98.3,158.9,98.3z"/>
		<path style="fill:#B9BBBC;" d="M168.9,100.9h-0.6v-2.2h-4.9v2.2h-0.6v-2.7h0.4c0.5-0.7,0.9-1.6,1.2-2.6s0.4-2.1,0.5-3.2h3.1v5.8
			h0.8v2.7H168.9z M167.5,98.2v-5.3h-2c-0.1,2.1-0.6,3.9-1.5,5.3H167.5z"/>
		<path style="fill:#B9BBBC;" d="M174.2,98.7l-0.1-1l0,0c-0.3,0.4-0.6,0.7-1,0.9s-0.7,0.3-1.2,0.3c-0.6,0-1.1-0.2-1.5-0.5
			s-0.5-0.8-0.5-1.3c0-0.6,0.3-1.1,0.8-1.4s1.3-0.5,2.2-0.5h1.2v-0.4c0-0.6-0.1-1.1-0.4-1.4s-0.6-0.5-1.2-0.5
			c-0.6,0-1.2,0.2-1.8,0.5l-0.2-0.5c0.7-0.3,1.4-0.5,2.1-0.5c0.7,0,1.2,0.2,1.6,0.5s0.5,0.9,0.5,1.7v4.2L174.2,98.7L174.2,98.7z
			 M171.8,98.3c0.7,0,1.2-0.2,1.6-0.6s0.6-0.9,0.6-1.6v-0.6h-1.1c-0.9,0-1.5,0.2-1.9,0.4s-0.6,0.6-0.6,1.1c0,0.4,0.1,0.7,0.4,0.9
			S171.4,98.3,171.8,98.3z"/>
		<path style="fill:#B9BBBC;" d="M177.1,92.3v2.1c0,0.5,0.1,0.9,0.4,1.2s0.7,0.4,1.2,0.4c0.4,0,0.7-0.1,1.1-0.2s0.7-0.4,1.1-0.7
			v-2.8h0.6v6.4h-0.6v-3c-0.4,0.3-0.8,0.5-1.2,0.6s-0.8,0.2-1.2,0.2c-0.7,0-1.1-0.2-1.5-0.5s-0.5-0.8-0.5-1.5v-2.2H177.1z"/>
		<path style="fill:#B9BBBC;" d="M182.6,92.3h0.6l1.3,3.6c0.4,1.1,0.7,1.8,0.8,2.2l0,0c0.2-0.5,0.4-1.3,0.8-2.3l1.3-3.5h0.6
			l-2.9,7.4c-0.2,0.6-0.4,1-0.6,1.2s-0.3,0.4-0.5,0.5s-0.5,0.2-0.8,0.2c-0.2,0-0.5,0-0.7-0.1V101c0.2,0.1,0.5,0.1,0.7,0.1
			s0.4,0,0.5-0.1s0.3-0.2,0.4-0.4s0.3-0.5,0.4-0.9s0.3-0.7,0.3-0.8L182.6,92.3z"/>
	</g>
</g>
</svg>
