<?xml version="1.0" encoding="utf-8"?>
<!-- Generator: Adobe Illustrator 19.2.1, SVG Export Plug-In . SVG Version: 6.00 Build 0)  -->
<svg version="1.1" id="Слой_1" xmlns="http://www.w3.org/2000/svg" xmlns:xlink="http://www.w3.org/1999/xlink" x="0px" y="0px"
	 viewBox="0 0 542.3 205.3" style="enable-background:new 0 0 542.3 205.3;" xml:space="preserve">
<g>
	<path style="fill:#B9BBBC;" d="M541.3,1v203H1V1H541.3 M542.3,0H0v205h542.3V0L542.3,0z"/>
</g>
<g>
	<g>
		<rect x="98.3" y="69.3" style="fill:none;" width="284.6" height="20"/>
		<g style="enable-background:new    ;">
			<path style="fill:#A0CAFC;" d="M104.8,72c0,0.6-0.2,1.1-0.6,1.5s-0.9,0.6-1.6,0.7l0,0c0.8,0.1,1.3,0.3,1.7,0.7
				c0.4,0.4,0.6,0.9,0.6,1.5c0,0.8-0.3,1.5-0.9,2s-1.5,0.7-2.7,0.7c-1.1,0-1.9-0.2-2.6-0.5v-1c0.4,0.2,0.8,0.3,1.3,0.4
				s0.9,0.2,1.3,0.2c0.8,0,1.4-0.2,1.9-0.5s0.6-0.8,0.6-1.3c0-0.6-0.2-1-0.7-1.3s-1.2-0.4-2.1-0.4h-1.4v-0.9h1.3
				c0.8,0,1.5-0.2,2-0.5s0.7-0.7,0.7-1.3c0-0.4-0.2-0.8-0.5-1.1c-0.3-0.3-0.8-0.4-1.4-0.4c-0.5,0-0.9,0.1-1.2,0.2
				c-0.4,0.1-0.8,0.3-1.3,0.6l-0.5-0.7c0.4-0.3,0.9-0.5,1.4-0.7s1.1-0.2,1.6-0.2c0.9,0,1.7,0.2,2.2,0.6
				C104.6,70.7,104.8,71.3,104.8,72z"/>
			<path style="fill:#A0CAFC;" d="M111,78.9l-0.2-1l0,0c-0.3,0.4-0.7,0.7-1,0.9S109,79,108.5,79c-0.7,0-1.2-0.2-1.6-0.5
				s-0.6-0.8-0.6-1.5c0-1.4,1.1-2.1,3.3-2.2h1.2v-0.4c0-0.5-0.1-0.9-0.3-1.2c-0.2-0.3-0.6-0.4-1.1-0.4c-0.6,0-1.2,0.2-1.9,0.5
				l-0.3-0.8c0.3-0.2,0.7-0.3,1.1-0.4s0.8-0.2,1.2-0.2c0.8,0,1.4,0.2,1.8,0.5c0.4,0.4,0.6,0.9,0.6,1.7v4.6H111V78.9z M108.7,78.2
				c0.6,0,1.1-0.2,1.5-0.5s0.5-0.8,0.5-1.5v-0.6h-1c-0.8,0-1.4,0.2-1.8,0.4c-0.4,0.2-0.5,0.6-0.5,1.1c0,0.4,0.1,0.7,0.3,0.9
				C107.9,78.1,108.3,78.2,108.7,78.2z"/>
			<path style="fill:#A0CAFC;" d="M119.8,81.3h-1v-2.4H114v2.4h-1V78h0.5c0.6-0.8,1-1.6,1.3-2.7s0.5-2.1,0.5-3.3h3.4v6h1L119.8,81.3
				L119.8,81.3z M117.8,78v-5.1h-1.5c-0.1,0.9-0.2,1.8-0.5,2.8c-0.3,0.9-0.7,1.7-1.1,2.3C114.7,78,117.8,78,117.8,78z"/>
			<path style="fill:#A0CAFC;" d="M125.3,78.9l-0.2-1l0,0c-0.3,0.4-0.7,0.7-1,0.9s-0.8,0.2-1.3,0.2c-0.7,0-1.2-0.2-1.6-0.5
				s-0.6-0.8-0.6-1.5c0-1.4,1.1-2.1,3.3-2.2h1.2v-0.4c0-0.5-0.1-0.9-0.3-1.2c-0.2-0.3-0.6-0.4-1.1-0.4c-0.6,0-1.2,0.2-1.9,0.5
				l-0.3-0.8c0.3-0.2,0.7-0.3,1.1-0.4s0.8-0.2,1.2-0.2c0.8,0,1.4,0.2,1.8,0.5c0.4,0.4,0.6,0.9,0.6,1.7v4.6h-0.9V78.9z M123,78.2
				c0.6,0,1.1-0.2,1.5-0.5s0.5-0.8,0.5-1.5v-0.6h-1c-0.8,0-1.4,0.2-1.8,0.4c-0.4,0.2-0.5,0.6-0.5,1.1c0,0.4,0.1,0.7,0.3,0.9
				C122.3,78.1,122.6,78.2,123,78.2z"/>
			<path style="fill:#A0CAFC;" d="M129.1,72.1v2.5c0,0.8,0.5,1.2,1.4,1.2c0.4,0,0.7-0.1,1.1-0.2c0.3-0.1,0.7-0.3,1.2-0.6v-2.9h1v6.8
				h-1v-3.1c-0.4,0.3-0.8,0.5-1.2,0.6s-0.8,0.2-1.3,0.2c-0.7,0-1.2-0.2-1.6-0.5c-0.4-0.4-0.6-0.8-0.6-1.4v-2.6H129.1z"/>
			<path style="fill:#A0CAFC;" d="M140.1,78.9l-0.2-1l0,0c-0.3,0.4-0.7,0.7-1,0.9s-0.8,0.2-1.3,0.2c-0.7,0-1.2-0.2-1.6-0.5
				s-0.6-0.8-0.6-1.5c0-1.4,1.1-2.1,3.3-2.2h1.2v-0.4c0-0.5-0.1-0.9-0.3-1.2c-0.2-0.3-0.6-0.4-1.1-0.4c-0.6,0-1.2,0.2-1.9,0.5
				l-0.3-0.8c0.3-0.2,0.7-0.3,1.1-0.4s0.8-0.2,1.2-0.2c0.8,0,1.4,0.2,1.8,0.5c0.4,0.4,0.6,0.9,0.6,1.7v4.6h-0.9V78.9z M137.8,78.2
				c0.6,0,1.1-0.2,1.5-0.5s0.5-0.8,0.5-1.5v-0.6h-1c-0.8,0-1.4,0.2-1.8,0.4c-0.4,0.2-0.5,0.6-0.5,1.1c0,0.4,0.1,0.7,0.3,0.9
				C137.1,78.1,137.4,78.2,137.8,78.2z"/>
			<path style="fill:#A0CAFC;" d="M152.8,78.9h-1.2l-4.3-7.6l0,0c0.1,1.2,0.1,2,0.1,2.5V79h-0.9v-9.1h1.2l4.2,7.6l0,0
				c-0.1-1-0.1-1.8-0.1-2.4v-5.2h0.9v9H152.8z M157.6,75.1c0,0.7-0.2,1.2-0.5,1.6s-0.8,0.6-1.4,0.6c-0.6,0-1-0.2-1.4-0.6
				c-0.3-0.4-0.5-0.9-0.5-1.6s0.2-1.2,0.5-1.6s0.8-0.6,1.4-0.6c0.6,0,1,0.2,1.4,0.6C157.4,73.9,157.6,74.4,157.6,75.1z M154.1,78.9
				v-0.8h3.2v0.8H154.1z M154.6,75.1c0,0.5,0.1,0.8,0.3,1.1s0.4,0.4,0.8,0.4c0.4,0,0.6-0.1,0.8-0.4c0.2-0.2,0.2-0.6,0.2-1.1
				s-0.1-0.8-0.2-1.1c-0.2-0.2-0.4-0.3-0.8-0.3c-0.4,0-0.7,0.1-0.8,0.3C154.7,74.2,154.6,74.6,154.6,75.1z"/>
			<path style="fill:#A0CAFC;" d="M162.6,78.9h-1v-6.5c0-0.5,0-1,0-1.5c-0.1,0.1-0.2,0.2-0.3,0.3c-0.1,0.1-0.6,0.5-1.5,1.2l-0.5-0.7
				l2.4-1.9h0.9L162.6,78.9L162.6,78.9z"/>
		</g>
	</g>
</g>
<g>
	<rect x="97.4" y="95.5" style="fill:none;" width="284.6" height="20"/>
	<g style="enable-background:new    ;">
		<path style="fill:#A0CAFC;" d="M102.1,102.5h-0.4v-1.3h-3.9v1.3h-0.4v-1.7h0.4c0.4-0.6,0.7-1.4,0.9-2.4c0.3-1,0.4-1.8,0.5-2.6h2.3
			v5h0.5L102.1,102.5L102.1,102.5z M101.2,100.8v-4.6h-1.6c-0.1,0.8-0.2,1.6-0.5,2.5s-0.5,1.6-0.8,2.2L101.2,100.8L101.2,100.8z"/>
		<path style="fill:#A0CAFC;" d="M106.2,99.2c0,0.6-0.2,1.1-0.5,1.5s-0.7,0.5-1.3,0.5c-0.3,0-0.7-0.1-0.9-0.3
			c-0.3-0.2-0.5-0.4-0.6-0.7c-0.1-0.3-0.2-0.7-0.2-1.1c0-0.6,0.2-1.1,0.5-1.5s0.7-0.5,1.3-0.5c0.5,0,1,0.2,1.3,0.5
			C106.1,98,106.2,98.5,106.2,99.2z M103.1,99.2c0,0.5,0.1,1,0.4,1.3c0.2,0.3,0.6,0.5,1,0.5s0.8-0.2,1-0.5s0.4-0.7,0.4-1.3
			c0-0.5-0.1-1-0.4-1.3c-0.2-0.3-0.6-0.5-1-0.5s-0.8,0.1-1,0.4C103.2,98.2,103.1,98.6,103.1,99.2z"/>
		<path style="fill:#A0CAFC;" d="M107.1,98.8c0-1.7,0.5-2.7,1.5-2.9c0.3-0.1,0.7-0.2,1-0.2c0.3-0.1,0.6-0.1,0.8-0.2l0.1,0.3
			l-0.4,0.1c-0.7,0.1-1.2,0.2-1.4,0.3c-0.3,0.1-0.6,0.3-0.8,0.7c-0.2,0.4-0.3,0.9-0.3,1.5l0,0c0.3-0.3,0.5-0.5,0.8-0.7
			c0.2-0.1,0.5-0.2,0.8-0.2c0.5,0,0.9,0.2,1.1,0.5c0.3,0.3,0.4,0.8,0.4,1.3c0,0.6-0.1,1.1-0.4,1.4s-0.7,0.5-1.2,0.5s-1-0.2-1.3-0.6
			C107.3,100.2,107.1,99.6,107.1,98.8z M108.9,100.9c0.4,0,0.7-0.1,1-0.4c0.2-0.3,0.3-0.7,0.3-1.2s-0.1-0.9-0.3-1.1
			s-0.5-0.4-0.9-0.4c-0.3,0-0.6,0.1-0.8,0.3c-0.3,0.2-0.5,0.4-0.7,0.7c0,0.4,0.1,0.8,0.2,1.1c0.1,0.3,0.3,0.6,0.5,0.7
			C108.3,100.8,108.6,100.9,108.9,100.9z"/>
		<path style="fill:#A0CAFC;" d="M114,101.2l-0.1-0.6l0,0c-0.2,0.3-0.4,0.4-0.6,0.5s-0.5,0.2-0.7,0.2c-0.4,0-0.7-0.1-0.9-0.3
			c-0.2-0.2-0.3-0.5-0.3-0.8c0-0.4,0.2-0.7,0.5-0.9c0.3-0.2,0.8-0.3,1.4-0.3h0.8v-0.3c0-0.4-0.1-0.7-0.2-0.9
			c-0.2-0.2-0.4-0.3-0.7-0.3c-0.4,0-0.7,0.1-1.1,0.3l-0.1-0.3c0.4-0.2,0.9-0.3,1.3-0.3s0.8,0.1,1,0.3c0.2,0.2,0.3,0.6,0.3,1.1v2.6
			L114,101.2L114,101.2z M112.6,100.9c0.4,0,0.8-0.1,1-0.4c0.2-0.2,0.4-0.6,0.4-1v-0.4h-0.7c-0.6,0-1,0.1-1.2,0.3
			c-0.2,0.1-0.4,0.4-0.4,0.7c0,0.2,0.1,0.4,0.2,0.6C112.1,100.8,112.3,100.9,112.6,100.9z"/>
		<path style="fill:#A0CAFC;" d="M118.6,98.2c0,0.3-0.1,0.4-0.2,0.6c-0.1,0.1-0.3,0.2-0.6,0.3l0,0c0.3,0,0.5,0.1,0.7,0.3
			c0.1,0.1,0.2,0.4,0.2,0.6c0,0.4-0.1,0.7-0.4,0.9c-0.3,0.2-0.6,0.3-1.1,0.3h-1.7v-4h1.7c0.5,0,0.8,0.1,1,0.2
			C118.5,97.6,118.6,97.8,118.6,98.2z M118.2,98.2c0-0.2-0.1-0.4-0.2-0.5c-0.2-0.1-0.4-0.1-0.7-0.1H116V99h1.3
			c0.4,0,0.6-0.1,0.8-0.2S118.2,98.4,118.2,98.2z M118.3,100c0-0.5-0.4-0.7-1.1-0.7h-1.3v1.6h1.3C118,100.8,118.3,100.5,118.3,100z"
			/>
		<path style="fill:#A0CAFC;" d="M120.1,97.2v2.9v0.7l2.3-3.6h0.5v4h-0.3v-2.8v-0.8l-2.3,3.6h-0.5v-4
			C119.8,97.2,120.1,97.2,120.1,97.2z"/>
		<path style="fill:#A0CAFC;" d="M126.8,97.5h-1.3v3.6h-0.4v-3.6h-1.3v-0.3h3C126.8,97.2,126.8,97.5,126.8,97.5z"/>
		<path style="fill:#A0CAFC;" d="M127.9,98.9h1.4c0.9,0,1.4,0.4,1.4,1.1c0,0.4-0.1,0.7-0.4,0.9c-0.3,0.2-0.6,0.3-1.1,0.3h-1.6v-4
			h0.4L127.9,98.9L127.9,98.9z M127.9,99.2v1.6h1.3c0.3,0,0.6-0.1,0.8-0.2s0.3-0.4,0.3-0.6c0-0.3-0.1-0.5-0.2-0.6
			c-0.2-0.1-0.4-0.2-0.8-0.2C129.3,99.2,127.9,99.2,127.9,99.2z"/>
		<path style="fill:#A0CAFC;" d="M137,99.2c0,0.6-0.2,1.1-0.5,1.5s-0.7,0.5-1.3,0.5c-0.3,0-0.7-0.1-0.9-0.3
			c-0.3-0.2-0.5-0.4-0.6-0.7c-0.1-0.3-0.2-0.7-0.2-1.1c0-0.6,0.2-1.1,0.5-1.5s0.7-0.5,1.3-0.5c0.5,0,1,0.2,1.3,0.5
			C136.9,98,137,98.5,137,99.2z M133.9,99.2c0,0.5,0.1,1,0.4,1.3c0.2,0.3,0.6,0.5,1,0.5s0.8-0.2,1-0.5s0.4-0.7,0.4-1.3
			c0-0.5-0.1-1-0.4-1.3c-0.2-0.3-0.6-0.5-1-0.5s-0.8,0.1-1,0.4C134,98.2,133.9,98.6,133.9,99.2z"/>
		<path style="fill:#A0CAFC;" d="M138.5,101.2h-0.4v-4h3.2v4h-0.4v-3.6h-2.4L138.5,101.2L138.5,101.2z"/>
		<path style="fill:#A0CAFC;" d="M142.9,97.2v2.9v0.7l2.3-3.6h0.5v4h-0.3v-2.8v-0.8l-2.3,3.6h-0.5v-4
			C142.6,97.2,142.9,97.2,142.9,97.2z"/>
		<path style="fill:#A0CAFC;" d="M148.7,101.2c-0.6,0-1-0.2-1.3-0.5c-0.3-0.4-0.5-0.9-0.5-1.5c0-0.7,0.2-1.2,0.5-1.5
			c0.3-0.4,0.8-0.5,1.4-0.5c0.3,0,0.7,0.1,1,0.2l-0.1,0.3c-0.3-0.1-0.6-0.2-0.9-0.2c-0.5,0-0.9,0.1-1.1,0.4
			c-0.3,0.3-0.4,0.7-0.4,1.3c0,0.5,0.1,1,0.4,1.3c0.2,0.3,0.6,0.5,1,0.5s0.7-0.1,1-0.2v0.3C149.4,101.2,149.1,101.2,148.7,101.2z"/>
		<path style="fill:#A0CAFC;" d="M153,101.2l-0.1-0.6l0,0c-0.2,0.3-0.4,0.4-0.6,0.5c-0.2,0.1-0.5,0.2-0.7,0.2
			c-0.4,0-0.7-0.1-0.9-0.3c-0.2-0.2-0.3-0.5-0.3-0.8c0-0.4,0.2-0.7,0.5-0.9c0.3-0.2,0.8-0.3,1.4-0.3h0.8v-0.3c0-0.4-0.1-0.7-0.2-0.9
			c-0.2-0.2-0.4-0.3-0.7-0.3c-0.4,0-0.7,0.1-1.1,0.3l-0.1-0.3c0.4-0.2,0.9-0.3,1.3-0.3c0.4,0,0.8,0.1,1,0.3c0.2,0.2,0.3,0.6,0.3,1.1
			v2.6L153,101.2L153,101.2z M151.6,100.9c0.4,0,0.8-0.1,1-0.4c0.2-0.2,0.4-0.6,0.4-1v-0.4h-0.7c-0.6,0-1,0.1-1.2,0.3
			c-0.2,0.1-0.4,0.4-0.4,0.7c0,0.2,0.1,0.4,0.2,0.6C151.1,100.8,151.3,100.9,151.6,100.9z"/>
		<path style="fill:#A0CAFC;" d="M154.9,97.2v1.7h2.5v-1.7h0.4v4h-0.4v-1.9h-2.5v1.9h-0.4v-4H154.9z"/>
		<path style="fill:#A0CAFC;" d="M159.5,97.2v2.9v0.7l2.3-3.6h0.5v4H162v-2.8v-0.8l-2.3,3.6h-0.5v-4
			C159.2,97.2,159.5,97.2,159.5,97.2z"/>
		<path style="fill:#A0CAFC;" d="M165.2,101.2c-0.6,0-1-0.2-1.3-0.5c-0.3-0.4-0.5-0.8-0.5-1.5c0-0.6,0.2-1.1,0.5-1.5
			s0.7-0.6,1.3-0.6c0.5,0,0.8,0.2,1.1,0.5s0.4,0.8,0.4,1.3v0.3h-2.8c0,0.5,0.1,1,0.4,1.2c0.2,0.3,0.6,0.4,1.1,0.4c0.2,0,0.4,0,0.6,0
			c0.2,0,0.4-0.1,0.6-0.2v0.3c-0.2,0.1-0.4,0.2-0.6,0.2C165.6,101.2,165.4,101.2,165.2,101.2z M165.1,97.4c-0.4,0-0.7,0.1-0.9,0.4
			s-0.4,0.6-0.4,1.1h2.4c0-0.5-0.1-0.8-0.3-1.1C165.7,97.6,165.4,97.4,165.1,97.4z"/>
	</g>
</g>
<g>
	<g>
		<path style="fill:none;stroke:#B9BBBC;stroke-linecap:round;stroke-linejoin:round;stroke-miterlimit:10;" d="M81.6,77.6
			c-2.1,0-4.2-6.7,0-6.7C85.6,70.8,83.7,77.6,81.6,77.6z"/>
		<path style="fill:none;stroke:#B9BBBC;stroke-linecap:round;stroke-linejoin:round;stroke-miterlimit:10;" d="M76.5,81.1
			c-0.5-1.7,0.7-3.3,5.1-3.3c4.2,0,5.4,1.6,4.9,3.3"/>
		
			<line style="fill:none;stroke:#B9BBBC;stroke-linecap:round;stroke-linejoin:round;stroke-miterlimit:10;" x1="72.8" y1="70.2" x2="72.8" y2="75.2"/>
		
			<line style="fill:none;stroke:#B9BBBC;stroke-linecap:round;stroke-linejoin:round;stroke-miterlimit:10;" x1="70.3" y1="72.7" x2="75.3" y2="72.7"/>
	</g>
</g>
<rect x="81.3" y="132.8" style="fill:none;" width="204.7" height="18.5"/>
<g style="enable-background:new    ;">
	<path style="fill:#B9BBBC;" d="M88.8,140h-0.6v-2.2H82v2.2h-0.6v-2.7H82c0.6-1,1.1-2.3,1.5-3.8s0.7-2.9,0.7-4.2h3.6v8h0.9v2.7H88.8
		z M87.3,137.3v-7.4h-2.5c-0.1,1.2-0.3,2.6-0.7,4s-0.9,2.6-1.4,3.5h4.6V137.3z"/>
	<path style="fill:#B9BBBC;" d="M95.5,134.7c0,1-0.3,1.9-0.8,2.4s-1.2,0.9-2.1,0.9c-0.6,0-1.1-0.1-1.5-0.4s-0.8-0.7-1-1.2
		s-0.3-1.1-0.3-1.7c0-1,0.3-1.8,0.8-2.4s1.2-0.9,2.1-0.9s1.6,0.3,2.1,0.9S95.5,133.7,95.5,134.7z M90.5,134.7c0,0.9,0.2,1.6,0.6,2
		s0.9,0.7,1.6,0.7s1.2-0.2,1.6-0.7s0.6-1.2,0.6-2c0-0.9-0.2-1.6-0.6-2s-0.9-0.7-1.6-0.7s-1.2,0.2-1.6,0.7S90.5,133.8,90.5,134.7z"/>
	<path style="fill:#B9BBBC;" d="M96.9,134c0-2.8,0.8-4.3,2.3-4.7c0.5-0.1,1.1-0.3,1.6-0.3s0.9-0.2,1.3-0.3l0.1,0.5l-0.7,0.1
		c-1.2,0.2-1.9,0.4-2.3,0.5c-0.5,0.2-0.9,0.5-1.2,1.1s-0.5,1.4-0.5,2.4l0,0c0.4-0.5,0.8-0.9,1.2-1.1s0.8-0.3,1.2-0.3
		c0.8,0,1.4,0.3,1.8,0.8s0.6,1.2,0.6,2.2s-0.2,1.8-0.7,2.3s-1.1,0.8-2,0.8s-1.6-0.3-2-1S96.9,135.3,96.9,134z M99.7,137.5
		c0.7,0,1.2-0.2,1.5-0.7s0.5-1.1,0.5-1.9c0-0.8-0.2-1.4-0.5-1.8s-0.8-0.6-1.4-0.6c-0.5,0-0.9,0.1-1.3,0.4s-0.8,0.7-1.1,1.2
		c0,0.7,0.1,1.3,0.3,1.8s0.4,0.9,0.8,1.2S99.3,137.5,99.7,137.5z"/>
	<path style="fill:#B9BBBC;" d="M108,137.9l-0.1-1l0,0c-0.3,0.4-0.6,0.7-1,0.9s-0.7,0.3-1.2,0.3c-0.6,0-1.1-0.2-1.5-0.5
		s-0.5-0.8-0.5-1.3c0-0.6,0.3-1.1,0.8-1.4s1.3-0.5,2.2-0.5h1.2V134c0-0.6-0.1-1.1-0.4-1.4s-0.6-0.5-1.2-0.5s-1.2,0.2-1.8,0.5
		l-0.2-0.5c0.7-0.3,1.4-0.5,2.1-0.5s1.2,0.2,1.6,0.5s0.5,0.9,0.5,1.7v4.2H108V137.9z M105.7,137.5c0.7,0,1.2-0.2,1.6-0.6
		s0.6-0.9,0.6-1.6v-0.6h-1.1c-0.9,0-1.5,0.2-1.9,0.4s-0.6,0.6-0.6,1.1c0,0.4,0.1,0.7,0.4,0.9S105.2,137.5,105.7,137.5z"/>
	<path style="fill:#B9BBBC;" d="M115.4,133c0,0.4-0.1,0.7-0.3,0.9s-0.5,0.4-1,0.5l0,0c0.5,0.1,0.9,0.2,1.1,0.4s0.3,0.6,0.3,1
		c0,0.6-0.2,1.1-0.6,1.4s-1,0.5-1.8,0.5h-2.7v-6.4h2.7c0.7,0,1.3,0.1,1.6,0.4S115.4,132.5,115.4,133z M114.8,133.1
		c0-0.4-0.1-0.6-0.4-0.8s-0.7-0.2-1.2-0.2h-2.1v2.2h2c0.6,0,1-0.1,1.3-0.3S114.8,133.5,114.8,133.1z M115,135.9
		c0-0.8-0.6-1.2-1.8-1.2h-2.1v2.5h2.2C114.4,137.3,115,136.9,115,135.9z"/>
	<path style="fill:#B9BBBC;" d="M117.9,131.5v4.6v1.2l3.8-5.8h0.8v6.4h-0.6v-4.6v-1.2l-3.8,5.8h-0.8v-6.4H117.9z"/>
	<path style="fill:#B9BBBC;" d="M128.6,132h-2.1v5.9h-0.6V132h-2.2v-0.5h4.9V132z"/>
	<path style="fill:#B9BBBC;" d="M130.4,134.2h2.2c1.5,0,2.2,0.6,2.2,1.8c0,0.6-0.2,1.1-0.6,1.4s-1,0.5-1.8,0.5h-2.6v-6.4h0.6
		L130.4,134.2L130.4,134.2z M130.4,134.7v2.6h2.2c0.6,0,1-0.1,1.3-0.4s0.4-0.6,0.4-1s-0.1-0.7-0.4-0.9s-0.7-0.3-1.4-0.3L130.4,134.7
		L130.4,134.7z"/>
	<path style="fill:#B9BBBC;" d="M140.4,137.9h-0.6v-6.4h5.1v6.4h-0.6v-5.8h-3.9V137.9z"/>
	<path style="fill:#B9BBBC;" d="M152.3,134.7c0,1-0.3,1.9-0.8,2.4s-1.2,0.9-2.1,0.9c-0.6,0-1.1-0.1-1.5-0.4s-0.8-0.7-1-1.2
		s-0.3-1.1-0.3-1.7c0-1,0.3-1.8,0.8-2.4s1.2-0.9,2.1-0.9c0.9,0,1.6,0.3,2.1,0.9S152.3,133.7,152.3,134.7z M147.3,134.7
		c0,0.9,0.2,1.6,0.6,2s0.9,0.7,1.6,0.7s1.2-0.2,1.6-0.7s0.6-1.2,0.6-2c0-0.9-0.2-1.6-0.6-2s-0.9-0.7-1.6-0.7s-1.2,0.2-1.6,0.7
		S147.3,133.8,147.3,134.7z"/>
	<path style="fill:#B9BBBC;" d="M159.2,140h-0.6v-2.2h-4.9v2.2h-0.6v-2.7h0.4c0.5-0.7,0.9-1.6,1.2-2.6s0.4-2.1,0.5-3.2h3.1v5.8h0.8
		v2.7H159.2z M157.8,137.3V132h-2c-0.1,2.1-0.6,3.9-1.5,5.3H157.8z"/>
	<path style="fill:#B9BBBC;" d="M161.8,134.2c1.2,0,1.7-0.4,1.7-1.2c0-0.4-0.1-0.7-0.4-0.9s-0.6-0.3-1.1-0.3c-0.3,0-0.6,0-0.9,0.1
		s-0.6,0.2-0.9,0.3l-0.2-0.5c0.7-0.3,1.3-0.5,2-0.5s1.2,0.1,1.6,0.4s0.5,0.7,0.5,1.2c0,0.7-0.4,1.2-1.1,1.4l0,0
		c0.5,0.1,0.8,0.3,1,0.6s0.3,0.6,0.3,1c0,0.6-0.2,1.1-0.6,1.4s-1,0.5-1.8,0.5c-0.4,0-0.8,0-1.1-0.1s-0.6-0.2-0.8-0.3V137
		c0.4,0.2,0.8,0.3,1,0.4s0.6,0.1,0.9,0.1c0.6,0,1-0.1,1.4-0.4s0.5-0.6,0.5-1s-0.2-0.8-0.5-1s-0.8-0.3-1.4-0.3H161v-0.5h0.8V134.2z"
		/>
	<path style="fill:#B9BBBC;" d="M169.9,137.9l-0.1-1l0,0c-0.3,0.4-0.6,0.7-1,0.9s-0.7,0.3-1.2,0.3c-0.6,0-1.1-0.2-1.5-0.5
		s-0.5-0.8-0.5-1.3c0-0.6,0.3-1.1,0.8-1.4s1.3-0.5,2.2-0.5h1.2V134c0-0.6-0.1-1.1-0.4-1.4s-0.6-0.5-1.2-0.5c-0.6,0-1.2,0.2-1.8,0.5
		l-0.2-0.5c0.7-0.3,1.4-0.5,2.1-0.5c0.7,0,1.2,0.2,1.6,0.5s0.5,0.9,0.5,1.7v4.2h-0.5V137.9z M167.5,137.5c0.7,0,1.2-0.2,1.6-0.6
		s0.6-0.9,0.6-1.6v-0.6h-1.1c-0.9,0-1.5,0.2-1.9,0.4s-0.6,0.6-0.6,1.1c0,0.4,0.1,0.7,0.4,0.9S167.1,137.5,167.5,137.5z"/>
	<path style="fill:#B9BBBC;" d="M177.6,140H177v-2.2h-4.9v2.2h-0.6v-2.7h0.4c0.5-0.7,0.9-1.6,1.2-2.6s0.4-2.1,0.5-3.2h3.1v5.8h0.8
		v2.7H177.6z M176.1,137.3V132h-2c-0.1,2.1-0.6,3.9-1.5,5.3H176.1z"/>
	<path style="fill:#B9BBBC;" d="M182.8,137.9l-0.1-1l0,0c-0.3,0.4-0.6,0.7-1,0.9s-0.7,0.3-1.2,0.3c-0.6,0-1.1-0.2-1.5-0.5
		s-0.5-0.8-0.5-1.3c0-0.6,0.3-1.1,0.8-1.4s1.3-0.5,2.2-0.5h1.2V134c0-0.6-0.1-1.1-0.4-1.4s-0.6-0.5-1.2-0.5c-0.6,0-1.2,0.2-1.8,0.5
		l-0.2-0.5c0.7-0.3,1.4-0.5,2.1-0.5c0.7,0,1.2,0.2,1.6,0.5s0.5,0.9,0.5,1.7v4.2h-0.5V137.9z M180.5,137.5c0.7,0,1.2-0.2,1.6-0.6
		s0.6-0.9,0.6-1.6v-0.6h-1.1c-0.9,0-1.5,0.2-1.9,0.4s-0.6,0.6-0.6,1.1c0,0.4,0.1,0.7,0.4,0.9S180,137.5,180.5,137.5z"/>
	<path style="fill:#B9BBBC;" d="M185.8,131.5v2.1c0,0.5,0.1,0.9,0.4,1.2s0.7,0.4,1.2,0.4c0.4,0,0.7-0.1,1.1-0.2s0.7-0.4,1.1-0.7
		v-2.8h0.6v6.4h-0.6v-3c-0.4,0.3-0.8,0.5-1.2,0.6s-0.8,0.2-1.2,0.2c-0.7,0-1.1-0.2-1.5-0.5s-0.5-0.8-0.5-1.5v-2.2H185.8z"/>
	<path style="fill:#B9BBBC;" d="M191.2,131.5h0.6l1.3,3.6c0.4,1.1,0.7,1.8,0.8,2.2l0,0c0.2-0.5,0.4-1.3,0.8-2.3l1.3-3.5h0.6
		l-2.9,7.4c-0.2,0.6-0.4,1-0.6,1.2s-0.3,0.4-0.5,0.5s-0.5,0.2-0.8,0.2c-0.2,0-0.5,0-0.7-0.1v-0.5c0.2,0.1,0.5,0.1,0.7,0.1
		s0.4,0,0.5-0.1s0.3-0.2,0.4-0.4s0.3-0.5,0.4-0.9s0.3-0.7,0.3-0.8L191.2,131.5z"/>
</g>
<g>
	<g>
		
			<path id="paperclip_30_1px_4_" style="fill:none;stroke:#B9BBBC;stroke-width:0.8768;stroke-linecap:round;stroke-linejoin:round;stroke-miterlimit:10;" d="
			M446.4,73.1l-3.3,5.7c-0.7,1.2-2.3,1.5-3.6,0.8c-1.3-0.7-1.7-2.4-1.1-3.4L442,70c0.5-0.9,1.8-1.1,2.7-0.6c0.9,0.5,1.4,1.7,0.9,2.6
			l-3.1,5.2c-0.4,0.7-1.3,1-2,0.6s-0.9-1.3-0.5-2l0,0l1.7-3"/>
		
			<line style="fill:none;stroke:#B9BBBC;stroke-linecap:round;stroke-linejoin:round;stroke-miterlimit:10;" x1="436.8" y1="67.5" x2="436.8" y2="72.5"/>
		
			<line style="fill:none;stroke:#B9BBBC;stroke-linecap:round;stroke-linejoin:round;stroke-miterlimit:10;" x1="434.3" y1="70" x2="438.3" y2="70"/>
	</g>
</g>
<g>
	<path style="fill:none;stroke:#B9BBBC;stroke-width:0.8768;stroke-linecap:round;stroke-linejoin:round;stroke-miterlimit:10;" d="
		M412.3,68.9v8.6c0,1.2-1,1.7-2.3,1.7h-7.6c-1.3,0-2.3-0.4-2.3-1.7v-8.6H412.3z"/>
	
		<line style="fill:none;stroke:#B9BBBC;stroke-linecap:round;stroke-linejoin:round;stroke-miterlimit:10;" x1="400.3" y1="68" x2="412.3" y2="68"/>
	
		<line style="fill:none;stroke:#B9BBBC;stroke-linecap:round;stroke-linejoin:round;stroke-miterlimit:10;" x1="404.3" y1="72" x2="406.3" y2="72"/>
	
		<line style="fill:none;stroke:#B9BBBC;stroke-linecap:round;stroke-linejoin:round;stroke-miterlimit:10;" x1="401.3" y1="72" x2="403.3" y2="72"/>
	
		<line style="fill:none;stroke:#B9BBBC;stroke-linecap:round;stroke-linejoin:round;stroke-miterlimit:10;" x1="409.3" y1="72" x2="410.3" y2="72"/>
	
		<line style="fill:none;stroke:#B9BBBC;stroke-linecap:round;stroke-linejoin:round;stroke-miterlimit:10;" x1="404.3" y1="74" x2="406.3" y2="74"/>
	
		<line style="fill:none;stroke:#B9BBBC;stroke-linecap:round;stroke-linejoin:round;stroke-miterlimit:10;" x1="401.3" y1="74" x2="403.3" y2="74"/>
	
		<line style="fill:none;stroke:#B9BBBC;stroke-linecap:round;stroke-linejoin:round;stroke-miterlimit:10;" x1="409.3" y1="74" x2="410.3" y2="74"/>
	
		<line style="fill:none;stroke:#B9BBBC;stroke-linecap:round;stroke-linejoin:round;stroke-miterlimit:10;" x1="404.3" y1="76" x2="406.3" y2="76"/>
	
		<line style="fill:none;stroke:#B9BBBC;stroke-linecap:round;stroke-linejoin:round;stroke-miterlimit:10;" x1="401.3" y1="76" x2="403.3" y2="76"/>
	
		<line style="fill:none;stroke:#B9BBBC;stroke-linecap:round;stroke-linejoin:round;stroke-miterlimit:10;" x1="409.3" y1="76" x2="410.3" y2="76"/>
	
		<line style="fill:none;stroke:#B9BBBC;stroke-linecap:round;stroke-linejoin:round;stroke-miterlimit:10;" x1="401.8" y1="66.5" x2="401.8" y2="68.5"/>
	
		<line style="fill:none;stroke:#B9BBBC;stroke-linecap:round;stroke-linejoin:round;stroke-miterlimit:10;" x1="410.8" y1="66.5" x2="410.8" y2="68.5"/>
</g>
<g id="del_2px_small_35_">
	
		<line style="fill:none;stroke:#B9BBBC;stroke-linecap:round;stroke-linejoin:round;stroke-miterlimit:10;" x1="465.3" y1="67" x2="477.3" y2="67"/>
	<path style="fill:none;stroke:#B9BBBC;stroke-linecap:round;stroke-linejoin:round;stroke-miterlimit:10;" d="M477.6,70.2
		c0-1.5-1-1.2-2.5-1.2h-7.3c-1.5,0-2.5-0.4-2.5,1.1l0.8,8.2c0.4,2.3,1.3,2.7,2.3,2.7h5.7c1,0,2.5,0.3,2.9-2.8L477.6,70.2z"/>
	<path style="fill:none;stroke:#B9BBBC;stroke-width:0.8768;stroke-linecap:round;stroke-linejoin:round;stroke-miterlimit:10;" d="
		M473.2,66.6c0-1-0.8-1.8-1.8-1.8s-1.8,0.8-1.8,1.8"/>
	
		<line style="fill:none;stroke:#B9BBBC;stroke-width:0.8768;stroke-linecap:round;stroke-linejoin:round;stroke-miterlimit:10;" x1="469.6" y1="76.4" x2="473.2" y2="72.8"/>
	
		<line style="fill:none;stroke:#B9BBBC;stroke-width:0.8768;stroke-linecap:round;stroke-linejoin:round;stroke-miterlimit:10;" x1="469.6" y1="72.8" x2="473.2" y2="76.4"/>
</g>
<g>
	<g>
		<path style="fill:#0067D0;" d="M78.4,40c5.5-4.1,7.6-9.9,9.3-16.3c-2-0.3-3.9-0.5-5.9-0.8c-1,9.5-2.9,18.9-4,28.3
			c-0.4,3.8,5.6,3.8,6,0c1-9.5,2.9-18.9,4-28.3c0.4-3.4-5-4-5.9-0.8c-1.2,4.7-2.5,9.8-6.5,12.8C72.4,37.2,75.3,42.4,78.4,40L78.4,40
			z"/>
	</g>
</g>
<g>
	<g>
		<path style="fill:#0067D0;" d="M123.4,32.5c0.2-3.6,6-1.3,3.9,2.7c-1,1.8-3.4,2.7-5.1,3.8c-2.9,1.8-6,4.6-6.8,8.1
			c-0.3,1.3,0.2,2.7,1.4,3.4c1.7,1.1,4.6,0.8,6.6,0.8c2.9,0,6,0,8.8-0.6c3.8-0.8,2.2-6.6-1.6-5.8c-2.1,0.3-4.3,0.3-6.4,0.3
			c-1.1,0-2.3-0.1-3.4-0.1c-0.4,0-1.9-0.4-1,0.1c0.5,1.1,0.9,2.3,1.4,3.4c1-4.5,7.7-5.8,10.4-9.1c2.5-3.1,3-7.6,0.9-10.9
			c-4.4-7-14.6-4.1-15,3.9C117.2,36.3,123.2,36.3,123.4,32.5L123.4,32.5z"/>
	</g>
</g>
<path style="fill:#0067D0;" d="M65.5,120.9c5-9.9,8-12.6,16-20.1c-3.2-0.1-6.3,0.4-9.3,1.2c-3.2,0.9-4.5-4-1.3-4.9
	c5.5-1.6,11.4-1.8,17.1-0.6c0.8,0.1,1.4,0.7,1.7,1.4c0.7,0.8,0.5,2.2-0.3,2.9l0,0c-2.3,2.7-3.3,10.2-2.4,13.5c0.9,3.4-4.2,4.7-5,1.6
	c-0.6-2.5-0.7-5-0.3-7.6c-5.6,6-6.8,6.6-10.6,13.8c-0.9,1.8-2.1,3.4-3.8,4.4C65.6,127.2,63,125.1,65.5,120.9z"/>
<g>
	<g>
		<path style="fill:#0067D0;" d="M407.9,33.9c-0.8,7.7-2.4,15.3-3.2,23c-0.4,3.8,5.6,3.8,6,0c0.8-7.7,2.4-15.3,3.2-23
			C414.4,30.1,408.4,30.1,407.9,33.9L407.9,33.9z"/>
	</g>
</g>
<g>
	<g>
		<path style="fill:#0067D0;" d="M44.9,153.2c0.1,4.1,3.1,8,7.5,8.3c4.3,0.3,7.8-2.9,9.4-6.6c2.4-5.5-0.4-9.5-5.5-11.7
			c-0.1-0.1-0.9-0.2-0.5-0.2c-0.1-0.1-0.3-0.1-0.5-0.2c-0.8,3.7-0.4,4.9,1,3.5c1.5-0.8,3-2.5,4.1-3.7c1.9-1.9,5.3-6.1,1.7-8.3
			c-1.8-1.1-4.9-0.8-7-0.8c-3,0-6.2-0.1-9.2,0.7c-3.7,0.9-2.2,6.7,1.6,5.8c2.2-0.5,4.6-0.5,6.9-0.5c1.1,0,2.3,0,3.4,0.1
			c0.4,0,1.2,0.2,1.6,0.1c0.6-0.1,0.3,0.3-0.3-0.2c-0.5-0.9-1-1.7-1.5-2.6c0.3-0.9,0.3-0.9-0.1-0.1c-0.3,0.4-0.7,0.8-1.1,1.2
			c-0.6,0.7-1.3,1.3-1.9,1.9c-1.1,1-2.9,1.9-3.7,3.2c-1.2,1.9-0.2,3.9,1.5,4.9c1.1,0.6,3.3,0.9,4,2.1c1.8,3-5.3,8.2-5.5,3
			C50.8,149.4,44.8,149.4,44.9,153.2L44.9,153.2z"/>
	</g>
</g>
<g>
	<g>
		<path style="fill:#0067D0;" d="M406.5,36.2c-0.1,0.2-0.3,0.4-0.4,0.6c-1.7-1-3.3-1.9-5-2.9c-0.8,2.4-1.5,4.7-2.3,7.1
			c-0.6,1.9-1.8,4.3-1.9,6.3c-0.2,4.9,5.8,4.2,9,4.2c3.9,0,3.9-6,0-6c-0.9,0-1.8,0-2.7,0c-0.4,0-0.7,0-1.1,0c-0.7-0.1-0.7,0,0,0.2
			c0.3,0.7,0.6,1.4,0.9,2.1c-0.1-1.6,1.3-4.2,1.8-5.7c0.7-2.2,1.4-4.4,2.1-6.6c0.9-2.9-3-5-5-2.9c-0.6,0.6-1,1.2-1.1,2
			C400.1,38.4,405.9,40,406.5,36.2L406.5,36.2z"/>
	</g>
</g>
<g>
	<g>
		<path style="fill:#0067D0;" d="M433.8,36.2c-0.5,2.3-0.7,4.7-0.9,7.1c-0.2,1.9,2.1,3.5,3.8,2.9c1.4-0.4,4-0.5,4.2,1.6
			c0.2,2.5-5.1,3.1-6.6,3.3c-3.8,0.5-2.2,6.3,1.6,5.8c5.3-0.7,12.4-4.1,10.8-10.7c-1.2-5.1-6.9-7.3-11.5-5.7c1.3,1,2.5,1.9,3.8,2.9
			c0.2-1.8,0.3-3.7,0.7-5.5C440.4,34,434.6,32.4,433.8,36.2L433.8,36.2z"/>
	</g>
</g>
<g>
	<g>
		<path style="fill:#0067D0;" d="M444.5,32c-2.4,0.6-5,0.2-7.5,0.4c-3.8,0.2-3.9,6.2,0,6c3.1-0.2,6.1,0.2,9.1-0.6
			C449.8,36.8,448.2,31.1,444.5,32L444.5,32z"/>
	</g>
</g>
<g>
	<g>
		<path style="fill:#0067D0;" d="M478.6,30.8C464,25.4,452.5,57.5,470,59c6.7,0.6,11.9-6.6,8.9-12.7c-3.3-6.7-11.8-6.3-15.7-0.5
			c-2.1,3.2,3.1,6.2,5.2,3c2.1-3.1,6.9-0.5,5.1,2.7c-2.2,3.9-6.2-0.2-6.4-3.1c-0.3-4.1,4.9-13.7,9.9-11.8
			C480.6,38,482.2,32.2,478.6,30.8L478.6,30.8z"/>
	</g>
</g>
<g>
	<g>
		<g>
			<path style="fill:#0067D0;" d="M241.5,158.7c2.2-1.2,4.2,0.1,6.4,0.6c2.5,0.5,4.8,0.3,7.3-0.3c-1.2-1.2-2.5-2.5-3.7-3.7
				c-2.2,9.6-7.6,18.7-9,28.3c-0.5,3.8,5.3,5.4,5.8,1.6c1.4-9.7,6.8-18.8,9-28.4c0.5-2.3-1.4-4.2-3.7-3.7c-5.5,1.3-9.8-2.7-15.1,0.3
				C235.1,155.4,238.1,160.5,241.5,158.7L241.5,158.7z"/>
		</g>
	</g>
	<g>
		<g>
			<path style="fill:#0067D0;" d="M239.4,174.9c1.2,2.1,4.1,1.6,6.1,1.5c2.1-0.1,4.2-0.3,6.3-0.3c3.9,0,3.9-6,0-6
				c-1.7,0-3.4,0.2-5.1,0.3c-1,0.1-2,0.1-2.9,0.1c-0.4,0-0.8,0-1.1,0c-0.7,0.1,0,0,0.1,0c0.6,0.5,1.2,0.9,1.8,1.4l0,0
				C242.7,168.5,237.5,171.5,239.4,174.9L239.4,174.9z"/>
		</g>
	</g>
</g>
<path style="fill:#0067D0;" d="M227.5,163.1c-9.9-5-12.6-8-20.1-16c-0.1,3.2,0.4,6.3,1.2,9.3c0.9,3.2-4,4.5-4.9,1.3
	c-1.6-5.5-1.8-11.4-0.6-17.1c0.1-0.8,0.7-1.4,1.4-1.7c0.8-0.7,2.2-0.5,2.9,0.3l0,0c2.7,2.3,10.2,3.3,13.5,2.4c3.4-0.9,4.7,4.2,1.6,5
	c-2.5,0.6-5,0.7-7.6,0.3c6,5.6,6.6,6.8,13.8,10.6c1.8,0.9,3.4,2.1,4.4,3.8C233.8,163,231.7,165.7,227.5,163.1z"/>
</svg>
