<?xml version="1.0" encoding="utf-8"?>
<!-- Generator: Adobe Illustrator 19.2.1, SVG Export Plug-In . SVG Version: 6.00 Build 0)  -->
<svg version="1.1" id="Слой_1" xmlns="http://www.w3.org/2000/svg" xmlns:xlink="http://www.w3.org/1999/xlink" x="0px" y="0px"
	 viewBox="0 0 500 140" style="enable-background:new 0 0 500 140;" xml:space="preserve">
<rect x="73.5" y="33" style="fill:#FFFFFF;" width="423" height="94"/>
<g id="status_x5F_menu">
	<g id="completed_4_">
		<g>
			
				<circle style="fill:none;stroke:#B9BBBC;stroke-width:0.8943;stroke-linecap:round;stroke-linejoin:round;stroke-miterlimit:10;" cx="194.8" cy="52" r="5.6"/>
			
				<line style="fill:none;stroke:#B9BBBC;stroke-width:0.8943;stroke-linecap:round;stroke-linejoin:round;stroke-miterlimit:10;" x1="194.4" y1="53.8" x2="198" y2="50.3"/>
			
				<line style="fill:none;stroke:#B9BBBC;stroke-width:0.8943;stroke-linecap:round;stroke-linejoin:round;stroke-miterlimit:10;" x1="194.4" y1="53.9" x2="192.6" y2="52.1"/>
		</g>
		<rect x="207.3" y="48.8" style="fill:none;" width="44.7" height="16.5"/>
		<g style="enable-background:new    ;">
			<path style="fill:#B9BBBC;" d="M209.5,54.6c-0.6,0-1-0.2-1.4-0.5c-0.3-0.4-0.5-0.9-0.5-1.5c0-0.7,0.2-1.2,0.5-1.6
				s0.8-0.6,1.4-0.6c0.3,0,0.7,0.1,1,0.2l-0.1,0.3c-0.3-0.1-0.7-0.2-0.9-0.2c-0.5,0-0.9,0.2-1.1,0.5s-0.4,0.7-0.4,1.3
				c0,0.5,0.1,1,0.4,1.3c0.3,0.3,0.6,0.5,1.1,0.5c0.4,0,0.7-0.1,1-0.2v0.3C210.3,54.5,210,54.6,209.5,54.6z"/>
			<path style="fill:#B9BBBC;" d="M214.9,52.5c0,0.7-0.2,1.2-0.5,1.5c-0.3,0.4-0.8,0.6-1.3,0.6c-0.4,0-0.7-0.1-0.9-0.3
				c-0.3-0.2-0.5-0.4-0.6-0.7s-0.2-0.7-0.2-1.1c0-0.7,0.2-1.2,0.5-1.5c0.3-0.4,0.8-0.6,1.3-0.6c0.6,0,1,0.2,1.3,0.6
				S214.9,51.9,214.9,52.5z M211.7,52.5c0,0.6,0.1,1,0.4,1.3s0.6,0.5,1,0.5s0.8-0.2,1-0.5s0.4-0.7,0.4-1.3s-0.1-1-0.4-1.3
				s-0.6-0.5-1-0.5s-0.8,0.2-1,0.5S211.7,52,211.7,52.5z"/>
			<path style="fill:#B9BBBC;" d="M221,54.5v-2.6c0-0.4-0.1-0.7-0.2-0.9c-0.2-0.2-0.4-0.3-0.7-0.3c-0.4,0-0.7,0.1-0.9,0.3
				s-0.3,0.6-0.3,1.1v2.4h-0.4v-2.8c0-0.7-0.3-1-0.9-1c-0.4,0-0.7,0.1-0.9,0.4s-0.3,0.6-0.3,1.2v2.2H216v-4h0.3l0.1,0.6l0,0
				c0.1-0.2,0.3-0.4,0.5-0.5s0.4-0.2,0.7-0.2c0.6,0,1,0.2,1.2,0.7l0,0c0.1-0.2,0.3-0.4,0.5-0.5s0.5-0.2,0.8-0.2c0.4,0,0.8,0.1,1,0.4
				s0.3,0.6,0.3,1.1v2.6H221z"/>
			<path style="fill:#B9BBBC;" d="M224.4,54.6c-0.6,0-1.1-0.2-1.4-0.7l0,0v0.3c0,0.2,0,0.4,0,0.6v1.5h-0.4v-5.9h0.3L223,51l0,0
				c0.3-0.4,0.7-0.7,1.3-0.7c0.5,0,1,0.2,1.2,0.5c0.3,0.4,0.4,0.9,0.4,1.6c0,0.7-0.1,1.2-0.5,1.5C225.4,54.4,225,54.6,224.4,54.6z
				 M224.4,54.3c0.4,0,0.7-0.2,1-0.5c0.2-0.3,0.3-0.7,0.3-1.3c0-1.2-0.4-1.8-1.3-1.8c-0.5,0-0.8,0.1-1,0.4s-0.3,0.7-0.3,1.3v0.1
				c0,0.6,0.1,1.1,0.3,1.4S224,54.3,224.4,54.3z"/>
			<path style="fill:#B9BBBC;" d="M227.6,54.5h-0.4v-5.8h0.4V54.5z"/>
			<path style="fill:#B9BBBC;" d="M230.6,54.6c-0.6,0-1-0.2-1.4-0.5c-0.3-0.4-0.5-0.9-0.5-1.5s0.2-1.2,0.5-1.5
				c0.3-0.4,0.7-0.6,1.3-0.6c0.5,0,0.9,0.2,1.1,0.5c0.3,0.3,0.4,0.8,0.4,1.4v0.3h-2.9c0,0.6,0.1,1,0.4,1.3c0.3,0.3,0.6,0.4,1.1,0.4
				c0.2,0,0.4,0,0.6,0s0.4-0.1,0.7-0.2v0.3c-0.2,0.1-0.4,0.2-0.6,0.2S230.8,54.6,230.6,54.6z M230.5,50.7c-0.4,0-0.7,0.1-0.9,0.4
				c-0.2,0.3-0.4,0.6-0.4,1.1h2.5c0-0.5-0.1-0.8-0.3-1.1C231.1,50.9,230.8,50.7,230.5,50.7z"/>
			<path style="fill:#B9BBBC;" d="M234.2,54.3c0.2,0,0.4,0,0.6-0.1v0.3c-0.2,0.1-0.4,0.1-0.6,0.1c-0.4,0-0.6-0.1-0.8-0.3
				s-0.3-0.5-0.3-0.9v-2.6h-0.6v-0.2l0.6-0.2l0.2-0.9h0.2v1h1.2v0.3h-1.2v2.6c0,0.3,0.1,0.5,0.2,0.7C233.8,54.2,234,54.3,234.2,54.3
				z"/>
			<path style="fill:#B9BBBC;" d="M237.3,54.6c-0.6,0-1-0.2-1.4-0.5c-0.3-0.4-0.5-0.9-0.5-1.5s0.2-1.2,0.5-1.5
				c0.3-0.4,0.7-0.6,1.3-0.6c0.5,0,0.9,0.2,1.1,0.5c0.3,0.3,0.4,0.8,0.4,1.4v0.3h-2.9c0,0.6,0.1,1,0.4,1.3c0.3,0.3,0.6,0.4,1.1,0.4
				c0.2,0,0.4,0,0.6,0s0.4-0.1,0.7-0.2v0.3c-0.2,0.1-0.4,0.2-0.6,0.2S237.5,54.6,237.3,54.6z M237.2,50.7c-0.4,0-0.7,0.1-0.9,0.4
				c-0.2,0.3-0.4,0.6-0.4,1.1h2.5c0-0.5-0.1-0.8-0.3-1.1C237.8,50.9,237.6,50.7,237.2,50.7z"/>
			<path style="fill:#B9BBBC;" d="M241.3,50.4c0.3,0,0.5,0.1,0.8,0.2c0.2,0.1,0.4,0.3,0.6,0.5l0,0c0-0.3,0-0.6,0-0.9v-1.5h0.4v5.8
				h-0.2l-0.1-0.6l0,0c-0.3,0.5-0.7,0.7-1.3,0.7s-1-0.2-1.3-0.5s-0.4-0.9-0.4-1.5c0-0.7,0.1-1.2,0.4-1.6
				C240.3,50.6,240.8,50.4,241.3,50.4z M241.3,50.8c-0.4,0-0.8,0.2-1,0.5s-0.3,0.8-0.3,1.3c0,1.1,0.4,1.7,1.3,1.7
				c0.5,0,0.8-0.1,1-0.4s0.3-0.7,0.3-1.3v-0.1c0-0.6-0.1-1.1-0.3-1.3C242.1,50.9,241.8,50.8,241.3,50.8z"/>
		</g>
	</g>
	<g id="incomplete_2_">
		<rect x="122.1" y="49.2" style="fill:none;" width="44.7" height="16.5"/>
		<g style="enable-background:new    ;">
			<path style="fill:#B9BBBC;" d="M122.9,55v-5.4h0.4V55H122.9z"/>
			<path style="fill:#B9BBBC;" d="M127.5,55v-2.6c0-0.4-0.1-0.7-0.3-0.9c-0.2-0.2-0.4-0.3-0.8-0.3c-0.5,0-0.8,0.1-1.1,0.4
				c-0.2,0.2-0.3,0.6-0.3,1.2V55h-0.4v-4h0.3l0.1,0.6l0,0c0.3-0.4,0.7-0.6,1.4-0.6c0.9,0,1.4,0.5,1.4,1.5V55H127.5z"/>
			<path style="fill:#B9BBBC;" d="M130.8,55.1c-0.6,0-1-0.2-1.4-0.5c-0.3-0.4-0.5-0.9-0.5-1.5c0-0.7,0.2-1.2,0.5-1.6
				s0.8-0.6,1.4-0.6c0.3,0,0.7,0.1,1,0.2l-0.1,0.3c-0.3-0.1-0.7-0.2-0.9-0.2c-0.5,0-0.9,0.2-1.1,0.5s-0.4,0.7-0.4,1.3
				c0,0.5,0.1,1,0.4,1.3c0.3,0.3,0.6,0.5,1.1,0.5c0.4,0,0.7-0.1,1-0.2v0.3C131.6,55,131.2,55.1,130.8,55.1z"/>
			<path style="fill:#B9BBBC;" d="M136.2,53c0,0.7-0.2,1.2-0.5,1.5c-0.3,0.4-0.8,0.6-1.3,0.6c-0.4,0-0.7-0.1-0.9-0.3
				c-0.3-0.2-0.5-0.4-0.6-0.7s-0.2-0.7-0.2-1.1c0-0.7,0.2-1.2,0.5-1.5c0.3-0.4,0.8-0.6,1.3-0.6c0.6,0,1,0.2,1.3,0.6
				S136.2,52.3,136.2,53z M133,53c0,0.6,0.1,1,0.4,1.3s0.6,0.5,1,0.5s0.8-0.2,1-0.5s0.4-0.7,0.4-1.3s-0.1-1-0.4-1.3s-0.6-0.5-1-0.5
				s-0.8,0.2-1,0.5S133,52.4,133,53z"/>
			<path style="fill:#B9BBBC;" d="M142.3,55v-2.6c0-0.4-0.1-0.7-0.2-0.9c-0.2-0.2-0.4-0.3-0.7-0.3c-0.4,0-0.7,0.1-0.9,0.3
				s-0.3,0.6-0.3,1.1V55h-0.4v-2.8c0-0.7-0.3-1-0.9-1c-0.4,0-0.7,0.1-0.9,0.4s-0.3,0.6-0.3,1.2V55h-0.4v-4h0.3l0.1,0.6l0,0
				c0.1-0.2,0.3-0.4,0.5-0.5s0.4-0.2,0.7-0.2c0.6,0,1,0.2,1.2,0.7l0,0c0.1-0.2,0.3-0.4,0.5-0.5s0.5-0.2,0.8-0.2c0.4,0,0.8,0.1,1,0.4
				s0.3,0.6,0.3,1.1V55H142.3z"/>
			<path style="fill:#B9BBBC;" d="M145.7,55.1c-0.6,0-1.1-0.2-1.4-0.7l0,0v0.3c0,0.2,0,0.4,0,0.6v1.5H144v-5.9h0.3l0.1,0.6l0,0
				c0.3-0.4,0.7-0.7,1.3-0.7c0.5,0,1,0.2,1.2,0.5c0.3,0.4,0.4,0.9,0.4,1.6c0,0.7-0.1,1.2-0.5,1.5C146.6,54.9,146.2,55.1,145.7,55.1z
				 M145.7,54.7c0.4,0,0.7-0.2,1-0.5c0.2-0.3,0.3-0.7,0.3-1.3c0-1.2-0.4-1.8-1.3-1.8c-0.5,0-0.8,0.1-1,0.4s-0.3,0.7-0.3,1.3V53
				c0,0.6,0.1,1.1,0.3,1.4S145.2,54.7,145.7,54.7z"/>
			<path style="fill:#B9BBBC;" d="M148.9,55h-0.4v-5.8h0.4V55z"/>
			<path style="fill:#B9BBBC;" d="M151.9,55.1c-0.6,0-1-0.2-1.4-0.5c-0.3-0.4-0.5-0.9-0.5-1.5s0.2-1.2,0.5-1.5
				c0.3-0.4,0.7-0.6,1.3-0.6c0.5,0,0.9,0.2,1.1,0.5c0.3,0.3,0.4,0.8,0.4,1.4V53h-2.9c0,0.6,0.1,1,0.4,1.3c0.3,0.3,0.6,0.4,1.1,0.4
				c0.2,0,0.4,0,0.6,0s0.4-0.1,0.7-0.2v0.3c-0.2,0.1-0.4,0.2-0.6,0.2S152.1,55.1,151.9,55.1z M151.8,51.2c-0.4,0-0.7,0.1-0.9,0.4
				c-0.2,0.3-0.4,0.6-0.4,1.1h2.5c0-0.5-0.1-0.8-0.3-1.1C152.4,51.3,152.1,51.2,151.8,51.2z"/>
			<path style="fill:#B9BBBC;" d="M155.5,54.7c0.2,0,0.4,0,0.6-0.1V55c-0.2,0.1-0.4,0.1-0.6,0.1c-0.4,0-0.6-0.1-0.8-0.3
				s-0.3-0.5-0.3-0.9v-2.6h-0.6v-0.2l0.6-0.2l0.2-0.9h0.2v1h1.2v0.3h-1.2v2.6c0,0.3,0.1,0.5,0.2,0.7
				C155.1,54.7,155.2,54.7,155.5,54.7z"/>
			<path style="fill:#B9BBBC;" d="M158.6,55.1c-0.6,0-1-0.2-1.4-0.5c-0.3-0.4-0.5-0.9-0.5-1.5s0.2-1.2,0.5-1.5
				c0.3-0.4,0.7-0.6,1.3-0.6c0.5,0,0.9,0.2,1.1,0.5c0.3,0.3,0.4,0.8,0.4,1.4V53h-2.9c0,0.6,0.1,1,0.4,1.3c0.3,0.3,0.6,0.4,1.1,0.4
				c0.2,0,0.4,0,0.6,0s0.4-0.1,0.7-0.2v0.3c-0.2,0.1-0.4,0.2-0.6,0.2S158.8,55.1,158.6,55.1z M158.5,51.2c-0.4,0-0.7,0.1-0.9,0.4
				c-0.2,0.3-0.4,0.6-0.4,1.1h2.5c0-0.5-0.1-0.8-0.3-1.1C159.1,51.3,158.8,51.2,158.5,51.2z"/>
			<path style="fill:#B9BBBC;" d="M162.6,50.9c0.3,0,0.5,0.1,0.8,0.2c0.2,0.1,0.4,0.3,0.6,0.5l0,0c0-0.3,0-0.6,0-0.9v-1.5h0.4V55
				h-0.2l-0.1-0.6l0,0c-0.3,0.5-0.7,0.7-1.3,0.7s-1-0.2-1.3-0.5s-0.4-0.9-0.4-1.5c0-0.7,0.1-1.2,0.4-1.6
				C161.6,51.1,162,50.9,162.6,50.9z M162.6,51.2c-0.4,0-0.8,0.2-1,0.5s-0.3,0.8-0.3,1.3c0,1.1,0.4,1.7,1.3,1.7c0.5,0,0.8-0.1,1-0.4
				s0.3-0.7,0.3-1.3l0,0c0-0.6-0.1-1.1-0.3-1.3C163.4,51.3,163.1,51.2,162.6,51.2z"/>
		</g>
		<g>
			<g>
				
					<circle style="fill:none;stroke:#B9BBBC;stroke-width:0.8943;stroke-linecap:round;stroke-linejoin:round;stroke-miterlimit:10;" cx="111" cy="52.4" r="5.6"/>
			</g>
			
				<line style="fill:none;stroke:#B9BBBC;stroke-width:0.8943;stroke-linecap:round;stroke-linejoin:round;stroke-miterlimit:10;" x1="111" y1="52.5" x2="110.9" y2="55.9"/>
			
				<line style="fill:none;stroke:#B9BBBC;stroke-width:0.8943;stroke-linecap:round;stroke-linejoin:round;stroke-miterlimit:10;" x1="110.9" y1="52.5" x2="112.6" y2="50.6"/>
			
				<path style="fill:none;stroke:#B9BBBC;stroke-width:0.8943;stroke-linecap:round;stroke-linejoin:round;stroke-miterlimit:10;" d="
				M110.1,46.7c0-0.6,0.5-1.1,1.1-1.1s1.1,0.5,1.1,1.1"/>
		</g>
	</g>
	<g id="in_prosses_4_">
		<rect x="292.4" y="48.8" style="fill:none;" width="44.7" height="16.5"/>
		<g style="enable-background:new    ;">
			<path style="fill:#B9BBBC;" d="M293,49.4c0-0.2,0.1-0.4,0.2-0.4s0.1,0,0.2,0.1c0,0.1,0.1,0.1,0.1,0.3c0,0.1,0,0.2-0.1,0.3
				c0,0.1-0.1,0.1-0.2,0.1C293.1,49.7,293,49.6,293,49.4z M293.4,54.5H293v-4h0.4V54.5z"/>
			<path style="fill:#B9BBBC;" d="M297.6,54.5v-2.6c0-0.4-0.1-0.7-0.3-0.9s-0.4-0.3-0.8-0.3c-0.5,0-0.8,0.1-1.1,0.4
				c-0.2,0.2-0.3,0.6-0.3,1.2v2.2h-0.4v-4h0.3l0.1,0.6l0,0c0.3-0.4,0.7-0.6,1.4-0.6c0.9,0,1.4,0.5,1.4,1.5v2.6h-0.3L297.6,54.5
				L297.6,54.5z"/>
			<path style="fill:#B9BBBC;" d="M303,54.6c-0.6,0-1.1-0.2-1.4-0.7l0,0v0.3c0,0.2,0,0.4,0,0.6v1.5h-0.4v-5.9h0.3l0.1,0.6l0,0
				c0.3-0.4,0.7-0.7,1.3-0.7c0.5,0,1,0.2,1.2,0.5s0.4,0.9,0.4,1.6c0,0.7-0.2,1.2-0.5,1.5C303.9,54.4,303.5,54.6,303,54.6z M303,54.3
				c0.4,0,0.7-0.2,1-0.5s0.3-0.7,0.3-1.3c0-1.2-0.4-1.8-1.3-1.8c-0.5,0-0.8,0.1-1,0.4c-0.2,0.3-0.3,0.7-0.3,1.3v0.1
				c0,0.6,0.1,1.1,0.3,1.4C302.1,54.1,302.5,54.3,303,54.3z"/>
			<path style="fill:#B9BBBC;" d="M307.3,50.4c0.2,0,0.4,0,0.5,0.1l-0.1,0.4c-0.2,0-0.3-0.1-0.5-0.1c-0.3,0-0.6,0.1-0.8,0.4
				c-0.2,0.3-0.3,0.7-0.3,1.1v2.2h-0.4v-4h0.3v0.7l0,0c0.2-0.3,0.3-0.5,0.5-0.6C306.9,50.5,307.1,50.4,307.3,50.4z"/>
			<path style="fill:#B9BBBC;" d="M312.1,52.5c0,0.7-0.2,1.2-0.5,1.5c-0.3,0.4-0.8,0.6-1.3,0.6c-0.4,0-0.7-0.1-0.9-0.3
				c-0.3-0.2-0.5-0.4-0.6-0.7s-0.2-0.7-0.2-1.1c0-0.7,0.2-1.2,0.5-1.5c0.3-0.4,0.8-0.6,1.3-0.6c0.6,0,1,0.2,1.3,0.6
				S312.1,51.9,312.1,52.5z M308.9,52.5c0,0.6,0.1,1,0.4,1.3c0.2,0.3,0.6,0.5,1,0.5s0.8-0.2,1-0.5s0.4-0.7,0.4-1.3s-0.1-1-0.4-1.3
				s-0.6-0.5-1-0.5s-0.8,0.2-1,0.5S308.9,52,308.9,52.5z"/>
			<path style="fill:#B9BBBC;" d="M315.7,53.5c0,0.4-0.1,0.6-0.4,0.8s-0.7,0.3-1.2,0.3s-1-0.1-1.3-0.2V54c0.4,0.2,0.8,0.3,1.3,0.3
				c0.4,0,0.7-0.1,0.9-0.2c0.2-0.1,0.3-0.3,0.3-0.5s-0.1-0.4-0.2-0.5c-0.2-0.1-0.4-0.3-0.8-0.4c-0.4-0.1-0.7-0.3-0.8-0.4
				s-0.3-0.2-0.4-0.4c-0.1-0.1-0.1-0.3-0.1-0.5c0-0.3,0.1-0.5,0.4-0.7s0.6-0.3,1.1-0.3c0.4,0,0.8,0.1,1.2,0.2l-0.1,0.3
				c-0.4-0.2-0.8-0.2-1.1-0.2c-0.3,0-0.6,0.1-0.8,0.2c-0.2,0.1-0.3,0.3-0.3,0.5s0.1,0.4,0.2,0.5s0.4,0.3,0.9,0.4
				c0.4,0.1,0.6,0.2,0.8,0.4s0.3,0.2,0.4,0.4S315.7,53.3,315.7,53.5z"/>
			<path style="fill:#B9BBBC;" d="M319.2,53.5c0,0.4-0.1,0.6-0.4,0.8s-0.7,0.3-1.2,0.3s-1-0.1-1.3-0.2V54c0.4,0.2,0.8,0.3,1.3,0.3
				c0.4,0,0.7-0.1,0.9-0.2c0.2-0.1,0.3-0.3,0.3-0.5s-0.1-0.4-0.2-0.5c-0.2-0.1-0.4-0.3-0.8-0.4c-0.4-0.1-0.7-0.3-0.8-0.4
				s-0.3-0.2-0.4-0.4c-0.1-0.1-0.1-0.3-0.1-0.5c0-0.3,0.1-0.5,0.4-0.7s0.6-0.3,1.1-0.3c0.4,0,0.8,0.1,1.2,0.2L319,51
				c-0.4-0.2-0.8-0.2-1.1-0.2c-0.3,0-0.6,0.1-0.8,0.2c-0.2,0.1-0.3,0.3-0.3,0.5s0.1,0.4,0.2,0.5s0.4,0.3,0.9,0.4
				c0.4,0.1,0.6,0.2,0.8,0.4s0.3,0.2,0.4,0.4S319.2,53.3,319.2,53.5z"/>
			<path style="fill:#B9BBBC;" d="M321.9,54.6c-0.6,0-1-0.2-1.4-0.5c-0.3-0.4-0.5-0.9-0.5-1.5s0.2-1.2,0.5-1.5
				c0.3-0.4,0.7-0.6,1.3-0.6c0.5,0,0.8,0.2,1.1,0.5c0.3,0.3,0.4,0.8,0.4,1.4v0.3h-2.9c0,0.6,0.1,1,0.4,1.3s0.6,0.4,1.1,0.4
				c0.2,0,0.4,0,0.6,0s0.4-0.1,0.7-0.2v0.3c-0.2,0.1-0.4,0.2-0.6,0.2C322.3,54.6,322.1,54.6,321.9,54.6z M321.8,50.7
				c-0.4,0-0.7,0.1-0.9,0.4c-0.2,0.3-0.4,0.6-0.4,1.1h2.5c0-0.5-0.1-0.8-0.3-1.1C322.4,50.9,322.1,50.7,321.8,50.7z"/>
			<path style="fill:#B9BBBC;" d="M326.9,53.5c0,0.4-0.1,0.6-0.4,0.8s-0.7,0.3-1.2,0.3s-1-0.1-1.3-0.2V54c0.4,0.2,0.8,0.3,1.3,0.3
				c0.4,0,0.7-0.1,0.9-0.2c0.2-0.1,0.3-0.3,0.3-0.5s-0.1-0.4-0.2-0.5c-0.2-0.1-0.4-0.3-0.8-0.4c-0.4-0.1-0.7-0.3-0.8-0.4
				c-0.2-0.1-0.3-0.2-0.4-0.4c-0.1-0.1-0.1-0.3-0.1-0.5c0-0.3,0.1-0.5,0.4-0.7s0.6-0.3,1.1-0.3c0.4,0,0.8,0.1,1.2,0.2l-0.1,0.3
				c-0.4-0.2-0.8-0.2-1.1-0.2c-0.3,0-0.6,0.1-0.8,0.2c-0.2,0.1-0.3,0.3-0.3,0.5s0.1,0.4,0.2,0.5s0.4,0.3,0.9,0.4
				c0.4,0.1,0.6,0.2,0.8,0.4c0.2,0.1,0.3,0.2,0.4,0.4S326.9,53.3,326.9,53.5z"/>
		</g>
		<g>
			<g>
				
					<line style="fill:none;stroke:#B9BBBC;stroke-width:0.8943;stroke-linecap:round;stroke-linejoin:round;stroke-miterlimit:10;" x1="281.3" y1="46.3" x2="282.2" y2="48.3"/>
				
					<line style="fill:none;stroke:#B9BBBC;stroke-width:0.8943;stroke-linecap:round;stroke-linejoin:round;stroke-miterlimit:10;" x1="280.1" y1="48.5" x2="282.2" y2="48.3"/>
			</g>
			
				<path style="fill:none;stroke:#B9BBBC;stroke-width:0.8943;stroke-linecap:round;stroke-linejoin:round;stroke-miterlimit:10;" d="
				M274.6,48.5c1.1-1.3,2.9-2,4.7-1.7c1.1,0.2,2.1,0.7,2.9,1.5"/>
			<g>
				
					<line style="fill:none;stroke:#B9BBBC;stroke-width:0.8943;stroke-linecap:round;stroke-linejoin:round;stroke-miterlimit:10;" x1="272.4" y1="52.1" x2="273.7" y2="50.3"/>
				
					<line style="fill:none;stroke:#B9BBBC;stroke-width:0.8943;stroke-linecap:round;stroke-linejoin:round;stroke-miterlimit:10;" x1="275" y1="52.1" x2="273.7" y2="50.3"/>
			</g>
			
				<path style="fill:none;stroke:#B9BBBC;stroke-width:0.8943;stroke-linecap:round;stroke-linejoin:round;stroke-miterlimit:10;" d="
				M277.8,56.8c-1.7-0.3-3.2-1.5-3.9-3.2c-0.4-1.1-0.5-2.2-0.2-3.2"/>
			<g>
				
					<line style="fill:none;stroke:#B9BBBC;stroke-width:0.8943;stroke-linecap:round;stroke-linejoin:round;stroke-miterlimit:10;" x1="281.9" y1="56.9" x2="279.7" y2="56.8"/>
				
					<line style="fill:none;stroke:#B9BBBC;stroke-width:0.8943;stroke-linecap:round;stroke-linejoin:round;stroke-miterlimit:10;" x1="280.6" y1="54.7" x2="279.7" y2="56.8"/>
			</g>
			
				<path style="fill:none;stroke:#B9BBBC;stroke-width:0.8943;stroke-linecap:round;stroke-linejoin:round;stroke-miterlimit:10;" d="
				M283.1,49.6c0.7,1.7,0.5,3.8-0.7,5.4c-0.7,0.9-1.7,1.5-2.7,1.8"/>
		</g>
	</g>
	<g id="expired_4_">
		<rect x="366.8" y="48.8" style="fill:none;" width="44.7" height="16.5"/>
		<g style="enable-background:new    ;">
			<path style="fill:#B9BBBC;" d="M369.1,54.6c-0.6,0-1-0.2-1.4-0.5s-0.5-0.9-0.5-1.5s0.2-1.2,0.5-1.5c0.3-0.4,0.7-0.6,1.3-0.6
				c0.5,0,0.9,0.2,1.1,0.5c0.3,0.3,0.4,0.8,0.4,1.4v0.3h-2.9c0,0.6,0.1,1,0.4,1.3s0.6,0.4,1.1,0.4c0.2,0,0.4,0,0.6,0
				s0.4-0.1,0.7-0.2v0.3c-0.2,0.1-0.4,0.2-0.6,0.2C369.5,54.6,369.3,54.6,369.1,54.6z M369,50.7c-0.4,0-0.7,0.1-0.9,0.4
				c-0.2,0.3-0.4,0.6-0.4,1.1h2.5c0-0.5-0.1-0.8-0.3-1.1S369.3,50.7,369,50.7z"/>
			<path style="fill:#B9BBBC;" d="M372.6,52.5l-1.4-2h0.4l1.2,1.7l1.2-1.7h0.4l-1.4,2l1.5,2.1h-0.4l-1.3-1.8l-1.3,1.8h-0.4
				L372.6,52.5z"/>
			<path style="fill:#B9BBBC;" d="M377.1,54.6c-0.6,0-1.1-0.2-1.4-0.7l0,0v0.3c0,0.2,0,0.4,0,0.6v1.5h-0.4v-5.9h0.3l0.1,0.6l0,0
				c0.3-0.4,0.7-0.7,1.3-0.7c0.5,0,1,0.2,1.2,0.5c0.3,0.4,0.4,0.9,0.4,1.6c0,0.7-0.1,1.2-0.5,1.5C378.1,54.4,377.6,54.6,377.1,54.6z
				 M377.1,54.3c0.4,0,0.7-0.2,1-0.5c0.2-0.3,0.3-0.7,0.3-1.3c0-1.2-0.4-1.8-1.3-1.8c-0.5,0-0.8,0.1-1,0.4c-0.2,0.3-0.3,0.7-0.3,1.3
				v0.1c0,0.6,0.1,1.1,0.3,1.4C376.3,54.1,376.6,54.3,377.1,54.3z"/>
			<path style="fill:#B9BBBC;" d="M379.9,49.4c0-0.2,0.1-0.4,0.2-0.4s0.1,0,0.2,0.1s0.1,0.1,0.1,0.3c0,0.1,0,0.2-0.1,0.3
				s-0.1,0.1-0.2,0.1C380,49.7,379.9,49.6,379.9,49.4z M380.3,54.5h-0.4v-4h0.4V54.5z"/>
			<path style="fill:#B9BBBC;" d="M383.2,50.4c0.2,0,0.4,0,0.5,0.1l-0.1,0.4c-0.2,0-0.3-0.1-0.5-0.1c-0.3,0-0.6,0.1-0.8,0.4
				c-0.2,0.3-0.3,0.7-0.3,1.1v2.2h-0.4v-4h0.3v0.7l0,0c0.2-0.3,0.3-0.5,0.5-0.6C382.7,50.5,383,50.4,383.2,50.4z"/>
			<path style="fill:#B9BBBC;" d="M386.2,54.6c-0.6,0-1-0.2-1.4-0.5c-0.3-0.4-0.5-0.9-0.5-1.5s0.2-1.2,0.5-1.5
				c0.3-0.4,0.7-0.6,1.3-0.6c0.5,0,0.8,0.2,1.1,0.5c0.3,0.3,0.4,0.8,0.4,1.4v0.3h-2.9c0,0.6,0.1,1,0.4,1.3s0.6,0.4,1.1,0.4
				c0.2,0,0.4,0,0.6,0s0.4-0.1,0.7-0.2v0.3c-0.2,0.1-0.4,0.2-0.6,0.2C386.7,54.6,386.5,54.6,386.2,54.6z M386.1,50.7
				c-0.4,0-0.7,0.1-0.9,0.4c-0.2,0.3-0.4,0.6-0.4,1.1h2.5c0-0.5-0.1-0.8-0.3-1.1C386.8,50.9,386.5,50.7,386.1,50.7z"/>
			<path style="fill:#B9BBBC;" d="M390.3,50.4c0.3,0,0.5,0.1,0.8,0.2c0.2,0.1,0.4,0.3,0.6,0.5l0,0c0-0.3,0-0.6,0-0.9v-1.5h0.4v5.8
				h-0.2l-0.1-0.6l0,0c-0.3,0.5-0.7,0.7-1.3,0.7c-0.6,0-1-0.2-1.3-0.5s-0.4-0.9-0.4-1.5c0-0.7,0.1-1.2,0.4-1.6
				C389.3,50.6,389.7,50.4,390.3,50.4z M390.3,50.8c-0.4,0-0.8,0.2-1,0.5s-0.3,0.8-0.3,1.3c0,1.1,0.4,1.7,1.3,1.7
				c0.5,0,0.8-0.1,1-0.4s0.3-0.7,0.3-1.3v-0.1c0-0.6-0.1-1.1-0.3-1.3C391.1,50.9,390.7,50.8,390.3,50.8z"/>
		</g>
		<g>
			<g>
				
					<path style="fill:#B9BBBC;stroke:#B9BBBC;stroke-width:0.8943;stroke-linecap:round;stroke-linejoin:round;stroke-miterlimit:10;" d="
					M355,52.6c-0.5-1.1-0.2-1.7,0.2-2.3c0.4-0.6,0.6-1.3,0.6-1.3s0.3,0.4,0.2,1.2c0.6-0.7,0.7-1.8,0.6-2.2c1.4,1,2,3.1,1.2,4.6
					c4.2-2.4,1.1-6,0.5-6.4c0.2,0.4,0.2,1.1-0.2,1.4c-0.6-2.4-2.2-2.9-2.2-2.9c0.2,1.2-0.7,2.6-1.5,3.6c0-0.5-0.1-0.8-0.3-1.3
					c-0.1,0.9-0.7,1.6-0.9,2.5C352.9,50.8,353.3,51.7,355,52.6z"/>
			</g>
			
				<path style="fill:none;stroke:#B9BBBC;stroke-width:0.8943;stroke-linecap:round;stroke-linejoin:round;stroke-miterlimit:10;" d="
				M358.7,53.5c0,0.2-0.1,0.5-0.2,0.7c-0.6,2-2.4,3.4-4.6,3.4c-2.6,0-4.8-2.1-4.8-4.8c0-2.1,1.4-3.9,3.2-4.5"/>
		</g>
	</g>
	<g id="all_2_">
		<g>
			<rect x="435.8" y="48.3" style="fill:none;" width="44.7" height="16.5"/>
			<g style="enable-background:new    ;">
				<path style="fill:#B9BBBC;" d="M438.9,54.1l-0.1-0.6l0,0c-0.2,0.3-0.4,0.4-0.6,0.6c-0.2,0.1-0.5,0.2-0.8,0.2
					c-0.4,0-0.7-0.1-0.9-0.3c-0.2-0.2-0.3-0.5-0.3-0.8c0-0.4,0.2-0.7,0.5-0.9s0.8-0.3,1.4-0.3h0.8v-0.3c0-0.4-0.1-0.7-0.2-0.9
					c-0.2-0.2-0.4-0.3-0.8-0.3s-0.8,0.1-1.2,0.3l-0.1-0.3c0.4-0.2,0.9-0.3,1.3-0.3s0.8,0.1,1,0.3s0.3,0.6,0.3,1.1v2.7h-0.3
					L438.9,54.1L438.9,54.1z M437.4,53.8c0.4,0,0.8-0.1,1-0.4c0.2-0.2,0.4-0.6,0.4-1V52h-0.7c-0.6,0-1,0.1-1.2,0.3s-0.4,0.4-0.4,0.7
					s0.1,0.4,0.2,0.6C436.9,53.8,437.1,53.8,437.4,53.8z"/>
				<path style="fill:#B9BBBC;" d="M440.9,54.1h-0.4v-5.8h0.4V54.1z"/>
				<path style="fill:#B9BBBC;" d="M442.6,54.1h-0.4v-5.8h0.4V54.1z"/>
			</g>
		</g>
		<g>
			<g>
				
					<circle style="fill:none;stroke:#B9BBBC;stroke-width:0.8943;stroke-linecap:round;stroke-linejoin:round;stroke-miterlimit:10;" cx="427.8" cy="48.9" r="2"/>
				
					<circle style="fill:none;stroke:#B9BBBC;stroke-width:0.8943;stroke-linecap:round;stroke-linejoin:round;stroke-miterlimit:10;" cx="431.3" cy="54.3" r="2"/>
				
					<circle style="fill:none;stroke:#B9BBBC;stroke-width:0.8943;stroke-linecap:round;stroke-linejoin:round;stroke-miterlimit:10;" cx="424.2" cy="54.3" r="2"/>
			</g>
		</g>
	</g>
</g>
<g>
	<g>
		<path style="fill:#0067D0;" d="M29.2,57.6c5.5-4.1,7.6-9.9,9.3-16.3c-2-0.3-3.9-0.5-5.9-0.8c-1,9.5-2.9,18.9-4,28.3
			c-0.4,3.8,5.6,3.8,6,0c1-9.5,2.9-18.9,4-28.3c0.4-3.4-5-4-5.9-0.8c-1.2,4.6-2.5,9.7-6.5,12.7C23.1,54.8,26.1,60,29.2,57.6
			L29.2,57.6z"/>
	</g>
</g>
<g>
	<g>
		<path style="fill:#0067D0;" d="M20,94.8c0.2-3.6,6-1.3,3.9,2.7c-1,1.8-3.4,2.7-5.1,3.8c-2.9,1.8-6,4.6-6.8,8.1
			c-0.3,1.3,0.2,2.7,1.4,3.4c1.7,1.1,4.6,0.8,6.6,0.8c2.9,0,6,0,8.8-0.6c3.8-0.8,2.2-6.6-1.6-5.8c-2,0.5-4.2,0.4-6.3,0.4
			c-1.1,0-2.3-0.1-3.4-0.1c-0.4,0-1.9-0.4-1,0.1c0.5,1.1,0.9,2.3,1.4,3.4c1-4.5,7.7-5.8,10.4-9.1c2.5-3.1,3-7.6,0.9-10.9
			c-4.4-7-14.6-4.1-15,3.9C13.8,98.6,19.8,98.6,20,94.8L20,94.8z"/>
	</g>
</g>
<path style="fill:#0067D0;" d="M52.9,57.4c10.2-4.3,14.2-4.5,25.2-5.1c-2.4-2.1-5.1-3.8-7.9-5.1c-3-1.4-0.9-6,2.1-4.6
	c5.3,2.3,9.9,5.9,13.5,10.5c0.5,0.6,0.6,1.4,0.4,2.1c0,1.1-1,2-2.1,2l0,0c-3.5,0.6-9.1,5.7-10.5,8.8c-1.5,3.2-6.2,0.9-4.8-2
	c1.2-2.3,2.7-4.3,4.6-6c-8.2,1-9.4,0.7-17,3.7c-1.9,0.8-3.8,1.3-5.7,0.9C48.9,62.2,48.3,59,52.9,57.4z"/>
<path style="fill:#0067D0;" d="M42.9,97.4c10.2-4.3,14.2-4.5,25.2-5.1c-2.4-2.1-5.1-3.8-7.9-5.1c-3-1.4-0.9-6,2.1-4.6
	c5.3,2.3,9.9,5.9,13.5,10.5c0.5,0.6,0.6,1.4,0.4,2.1c0,1.1-1,2-2.1,2l0,0c-3.5,0.6-9.1,5.7-10.5,8.8s-6.2,0.9-4.8-2
	c1.2-2.3,2.7-4.3,4.6-6c-8.2,1-9.4,0.7-17,3.7c-1.9,0.8-3.8,1.3-5.7,0.9C38.9,102.2,38.3,99,42.9,97.4z"/>
<g>
	<rect x="93.5" y="89.6" style="fill:none;" width="204.7" height="18.5"/>
	<g style="enable-background:new    ;">
		<path style="fill:#B9BBBC;" d="M98.8,95.7h-3.5l-1.2,3h-0.7l3.4-8.6h0.4l3.4,8.6H100L98.8,95.7z M95.6,95.1h3.1L97.5,92
			c-0.1-0.2-0.2-0.6-0.4-1c-0.1,0.4-0.2,0.7-0.3,1L95.6,95.1z"/>
		<path style="fill:#B9BBBC;" d="M104.1,92.2c0.5,0,0.9,0.1,1.2,0.3s0.6,0.5,0.9,0.9l0,0c0-0.5,0-1,0-1.4v-2.3h0.6v9.1h-0.4l-0.1-1
			l0,0c-0.5,0.7-1.2,1.1-2.1,1.1s-1.6-0.3-2-0.8s-0.7-1.3-0.7-2.4s0.2-1.9,0.7-2.5S103.2,92.2,104.1,92.2z M104.1,92.7
			c-0.7,0-1.2,0.2-1.6,0.7s-0.5,1.2-0.5,2.1c0,1.8,0.7,2.7,2.1,2.7c0.7,0,1.2-0.2,1.6-0.6s0.5-1.1,0.5-2.1v-0.1c0-1-0.2-1.7-0.5-2.1
			S104.8,92.7,104.1,92.7z"/>
		<path style="fill:#B9BBBC;" d="M111.2,92.2c0.5,0,0.9,0.1,1.2,0.3s0.6,0.5,0.9,0.9l0,0c0-0.5,0-1,0-1.4v-2.3h0.6v9.1h-0.4l-0.1-1
			l0,0c-0.5,0.7-1.2,1.1-2.1,1.1s-1.6-0.3-2-0.8s-0.7-1.3-0.7-2.4s0.2-1.9,0.7-2.5S110.4,92.2,111.2,92.2z M111.2,92.7
			c-0.7,0-1.2,0.2-1.6,0.7s-0.5,1.2-0.5,2.1c0,1.8,0.7,2.7,2.1,2.7c0.7,0,1.2-0.2,1.6-0.6s0.5-1.1,0.5-2.1v-0.1c0-1-0.2-1.7-0.5-2.1
			S112,92.7,111.2,92.7z"/>
		<path style="fill:#B9BBBC;" d="M120.9,98.3c0.4,0,0.7,0,1-0.1v0.5c-0.3,0.1-0.6,0.1-1,0.1c-0.6,0-1-0.2-1.2-0.5s-0.4-0.8-0.4-1.4
			v-4.1h-0.9v-0.3l0.9-0.3l0.3-1.4h0.3v1.5h1.9v0.5h-1.9v4c0,0.5,0.1,0.8,0.3,1.1S120.5,98.3,120.9,98.3z"/>
		<path style="fill:#B9BBBC;" d="M127.1,98.7l-0.1-1l0,0c-0.3,0.4-0.6,0.7-1,0.9s-0.7,0.3-1.2,0.3c-0.6,0-1.1-0.2-1.5-0.5
			s-0.5-0.8-0.5-1.3c0-0.6,0.3-1.1,0.8-1.4s1.3-0.5,2.2-0.5h1.2v-0.4c0-0.6-0.1-1.1-0.4-1.4s-0.6-0.5-1.2-0.5s-1.2,0.2-1.8,0.5
			l-0.2-0.5c0.7-0.3,1.4-0.5,2.1-0.5s1.2,0.2,1.6,0.5s0.5,0.9,0.5,1.7v4.2L127.1,98.7L127.1,98.7z M124.7,98.3
			c0.7,0,1.2-0.2,1.6-0.6s0.6-0.9,0.6-1.6v-0.6h-1.1c-0.9,0-1.5,0.2-1.9,0.4s-0.6,0.6-0.6,1.1c0,0.4,0.1,0.7,0.4,0.9
			S124.3,98.3,124.7,98.3z"/>
		<path style="fill:#B9BBBC;" d="M133.5,97c0,0.6-0.2,1-0.7,1.3s-1,0.5-1.8,0.5c-0.9,0-1.5-0.1-2-0.4v-0.6c0.6,0.3,1.3,0.5,2,0.5
			c0.6,0,1.1-0.1,1.4-0.3s0.5-0.5,0.5-0.8s-0.1-0.6-0.4-0.8s-0.7-0.4-1.3-0.6s-1.1-0.4-1.3-0.6s-0.5-0.4-0.6-0.6s-0.2-0.5-0.2-0.8
			c0-0.5,0.2-0.9,0.6-1.1s1-0.4,1.7-0.4s1.3,0.1,2,0.4l-0.2,0.5c-0.6-0.3-1.2-0.4-1.7-0.4s-0.9,0.1-1.2,0.3s-0.5,0.4-0.5,0.7
			c0,0.3,0.1,0.6,0.4,0.8s0.7,0.4,1.4,0.7c0.6,0.2,1,0.4,1.3,0.6s0.5,0.4,0.6,0.6S133.5,96.8,133.5,97z"/>
		<path style="fill:#B9BBBC;" d="M135.7,95.9l3.3-3.6h0.7l-2.5,2.7l2.7,3.7h-0.7l-2.4-3.2l-1,0.9v2.3h-0.6v-9.1h0.6v4.6L135.7,95.9
			L135.7,95.9z"/>
	</g>
</g>
</svg>
