<?xml version="1.0" encoding="utf-8"?>
<!-- Generator: Adobe Illustrator 19.2.1, SVG Export Plug-In . SVG Version: 6.00 Build 0)  -->
<svg version="1.1" id="Слой_1" xmlns="http://www.w3.org/2000/svg" xmlns:xlink="http://www.w3.org/1999/xlink" x="0px" y="0px"
	 viewBox="0 0 1464.1 514.6" style="enable-background:new 0 0 1464.1 514.6;" xml:space="preserve">
<title>designmap_1_ru</title>
<rect y="4" style="fill:#FFFFFF;" width="1465" height="510"/>
<g>
	<path style="fill:#B8C3CF;" d="M164.3,25.6c14.3,0,14.4,35,25.2,38.2H232c-12.5,0-11.8-38.4-26.8-38.4L164.3,25.6z"/>
</g>
<g>
	<rect y="60.4" style="fill:#E9E9E9;" width="1464" height="82"/>
</g>
<path style="opacity:0.3;enable-background:new    ;" d="M65.3,111.6c0.8-0.8,8.9-9.2,8.9-9.2c0.4-0.4,0.7-1,0.7-1.6
	s-0.2-1.1-0.7-1.6c0,0-8-8.4-8.9-9.2c-0.8-0.8-2.3-0.9-3.2,0s-0.9,2.1,0,3.1l7.4,7.7l-7.4,7.7c-0.9,1.1-0.9,2.2,0,3.1
	S64.5,112.4,65.3,111.6z"/>
<path style="opacity:0.3;enable-background:new    ;" d="M27.7,90.3c-0.8,0.8-8.9,9.2-8.9,9.2c-0.4,0.4-0.7,1-0.7,1.6
	s0.2,1.1,0.7,1.6c0,0,8,8.4,8.9,9.2c0.8,0.8,2.3,0.9,3.2,0c0.9-0.9,0.9-2.1,0-3.1l-7.4-7.7l7.4-7.7c0.9-1.1,0.9-2.2,0-3.1
	C30,89.4,28.5,89.5,27.7,90.3z"/>
<path style="fill:none;stroke:#009F4B;stroke-width:0.5071;stroke-miterlimit:10;" d="M720.7,132.2"/>
<path style="fill:none;stroke:#009F4B;stroke-width:0.5071;stroke-miterlimit:10;" d="M663.1,234.7"/>
<g>
	<path style="fill:#E9E9E9;" d="M0.1,60.8c14.9,0,14.3-38.4,26.8-38.4h142.5c14.9,0,14.3,38.4,26.8,38.4H0.1z"/>
</g>
<g style="opacity:0.3;">
	<path d="M168.8,44.2l-2.4-2.7l2.4-2.7c0.4-0.4,0.4-1.1,0-1.5s-1-0.4-1.5,0L165,40l-2.3-2.6c-0.4-0.4-1.1-0.4-1.5,0s-0.4,1,0,1.5
		l2.4,2.7l-2.4,2.7c-0.4,0.4-0.4,1,0,1.5c0.4,0.4,1.1,0.4,1.5,0l2.3-2.6l2.3,2.6c0.4,0.4,1.1,0.4,1.5,0
		C169.2,45.3,169.2,44.6,168.8,44.2z"/>
</g>
<g style="opacity:0.3;">
	<g>
		<path d="M115.7,89c5.9,0,10.6,4.7,10.8,10.5h3.2l-4.8,5.4l-4.8-5.4h3.8c-0.1-4.4-3.7-7.8-8.1-7.8c-4.5,0-8.1,3.6-8.1,8.1
			s3.6,8.1,8.1,8.1c1.8,0,3.4-0.6,4.8-1.6l1.9,2c-1.8,1.4-4.1,2.3-6.6,2.3c-5.9,0-10.8-4.8-10.8-10.8C104.9,93.8,109.8,89,115.7,89z
			"/>
	</g>
</g>
<path style="fill:none;stroke:#009F4B;stroke-width:0.5071;stroke-miterlimit:10;" d="M674.2,513.6"/>
<g>
	<path style="fill:#9E9E9E;" d="M1419.6,101.6h-23.8c-1.1,0-2,1-2,2.3s0.9,2.3,2,2.3h23.8c1.1,0,2-1,2-2.3
		C1421.6,102.7,1420.7,101.6,1419.6,101.6z M1395.8,96.9h23.8c1.1,0,2-1,2-2.3s-0.9-2.3-2-2.3h-23.8c-1.1,0-2,1-2,2.3
		S1394.7,96.9,1395.8,96.9z M1419.6,111h-23.8c-1.1,0-2,1-2,2.3s0.9,2.3,2,2.3h23.8c1.1,0,2-1.1,2-2.3
		C1421.6,112,1420.7,111,1419.6,111z"/>
</g>
<g>
	<g>
		<path style="fill:#A2A2A4;" d="M643,169"/>
	</g>
</g>
<path style="fill:#FFFFFF;" d="M1356.1,120.5c0,3.3-2.7,6-6,6l-1191.9-2c-3.3,0-6-2.7-6-6V85.2c0-3.3,2.7-6,6-6l1191.9,2
	c3.3,0,6,2.7,6,6V120.5z"/>
<path style="fill:#DADAD9;" d="M179.5,88.9h-12.1c-0.2,0-0.3,0.1-0.3,0.3v24.4c0,0.2,0.1,0.3,0.3,0.3h18.4c0.2,0,0.3-0.1,0.3-0.3
	V95.8L179.5,88.9z"/>
<path style="fill:#B8B8B8;" d="M179.5,88.9L179.5,88.9l6.6,6.9l-6.2-0.1c0,0-0.4-0.1-0.4-0.6C179.5,94.6,179.5,88.9,179.5,88.9"/>
<g style="enable-background:new    ;">
	<path style="fill:#7D797B;" d="M60.8,40.4c0,2.2-0.6,4-1.8,5.1c-1.2,1.2-3,1.8-5.2,1.8H50V33.7h4.2c2.1,0,3.7,0.6,4.9,1.8
		C60.2,36.6,60.8,38.3,60.8,40.4z M59.1,40.4c0-1.8-0.4-3.1-1.3-4c-0.9-0.9-2.2-1.3-4-1.3h-2.3v10.8h1.9c1.9,0,3.3-0.5,4.2-1.4
		C58.6,43.6,59.1,42.2,59.1,40.4z"/>
	<path style="fill:#7D797B;" d="M67.9,47.5c-1.5,0-2.7-0.5-3.6-1.4S63,43.9,63,42.3s0.4-2.9,1.2-3.9c0.8-1,1.9-1.4,3.3-1.4
		c1.3,0,2.3,0.4,3,1.3c0.7,0.8,1.1,1.9,1.1,3.3v1h-7c0,1.2,0.3,2.1,0.9,2.7c0.6,0.6,1.4,0.9,2.4,0.9c1.1,0,2.2-0.2,3.2-0.7v1.4
		c-0.5,0.2-1.1,0.4-1.5,0.5C69.1,47.4,68.6,47.5,67.9,47.5z M67.5,38.2c-0.8,0-1.5,0.3-2,0.8s-0.8,1.3-0.9,2.2H70
		c0-1-0.2-1.7-0.6-2.2C68.9,38.5,68.3,38.2,67.5,38.2z"/>
	<path style="fill:#7D797B;" d="M80.8,44.5c0,0.9-0.4,1.7-1.1,2.2s-1.7,0.8-3,0.8s-2.4-0.2-3.2-0.6v-1.4c0.5,0.2,1,0.4,1.6,0.6
		c0.6,0.1,1.1,0.2,1.6,0.2c0.8,0,1.4-0.1,1.9-0.4c0.4-0.3,0.6-0.6,0.6-1.2c0-0.4-0.2-0.7-0.5-1s-1-0.6-2-1c-0.9-0.4-1.6-0.7-2-0.9
		c-0.4-0.3-0.7-0.6-0.9-0.9c-0.2-0.3-0.3-0.7-0.3-1.2c0-0.8,0.3-1.5,1-2s1.6-0.7,2.8-0.7c1.1,0,2.2,0.2,3.2,0.7L80,38.8
		c-1-0.4-1.9-0.6-2.8-0.6c-0.7,0-1.3,0.1-1.7,0.3s-0.6,0.5-0.6,0.9c0,0.3,0.1,0.5,0.2,0.7s0.4,0.4,0.7,0.5c0.3,0.2,0.9,0.4,1.8,0.8
		c1.2,0.4,2,0.9,2.4,1.3C80.6,43.3,80.8,43.8,80.8,44.5z"/>
	<path style="fill:#7D797B;" d="M83.2,34.4c0-0.4,0.1-0.6,0.3-0.8c0.2-0.2,0.4-0.2,0.6-0.2s0.5,0.1,0.6,0.3c0.2,0.2,0.3,0.4,0.3,0.8
		c0,0.3-0.1,0.6-0.3,0.8c-0.2,0.2-0.4,0.3-0.6,0.3c-0.3,0-0.5-0.1-0.6-0.3C83.3,35,83.2,34.7,83.2,34.4z M84.8,47.3h-1.5V37.1h1.5
		V47.3z"/>
	<path style="fill:#7D797B;" d="M96.4,37.1v1l-1.9,0.2c0.2,0.2,0.3,0.5,0.5,0.8c0.1,0.3,0.2,0.7,0.2,1.2c0,1-0.3,1.8-1,2.4
		c-0.7,0.6-1.6,0.9-2.8,0.9c-0.3,0-0.6,0-0.9-0.1c-0.7,0.3-1,0.8-1,1.3c0,0.3,0.1,0.5,0.3,0.6c0.2,0.1,0.6,0.2,1.2,0.2h1.8
		c1.1,0,1.9,0.2,2.5,0.7s0.9,1.1,0.9,2c0,1.1-0.5,2-1.4,2.6s-2.2,0.9-4,0.9c-1.3,0-2.4-0.2-3.1-0.7s-1.1-1.2-1.1-2.1
		c0-0.6,0.2-1.2,0.6-1.6c0.4-0.5,1-0.8,1.7-0.9c-0.3-0.1-0.5-0.3-0.7-0.5s-0.3-0.5-0.3-0.9s0.1-0.7,0.3-1c0.2-0.3,0.5-0.5,0.9-0.8
		c-0.5-0.2-1-0.6-1.3-1.1s-0.5-1.1-0.5-1.8c0-1.1,0.3-2,1-2.6s1.6-0.9,2.8-0.9c0.5,0,1,0.1,1.4,0.2C92.5,37.1,96.4,37.1,96.4,37.1z
		 M88.3,49c0,0.6,0.2,1,0.7,1.3s1.1,0.4,2,0.4c1.3,0,2.2-0.2,2.9-0.6c0.6-0.4,0.9-0.9,0.9-1.6c0-0.6-0.2-0.9-0.5-1.1
		c-0.3-0.2-1-0.3-1.9-0.3h-1.8c-0.7,0-1.2,0.2-1.6,0.5S88.3,48.4,88.3,49z M89.2,40.4c0,0.7,0.2,1.3,0.6,1.6c0.4,0.4,1,0.5,1.7,0.5
		c1.5,0,2.3-0.7,2.3-2.2S93,38,91.5,38c-0.7,0-1.3,0.2-1.7,0.6S89.2,39.6,89.2,40.4z"/>
	<path style="fill:#7D797B;" d="M105.5,47.3v-6.6c0-0.8-0.2-1.4-0.6-1.9s-1-0.6-1.8-0.6c-1.1,0-1.8,0.3-2.3,0.9
		c-0.5,0.6-0.7,1.5-0.7,2.8v5.3h-1.5V37.1h1.3l0.3,1.4h0.1c0.3-0.5,0.8-0.9,1.3-1.2s1.2-0.4,1.9-0.4c1.2,0,2.1,0.3,2.8,0.9
		c0.6,0.6,0.9,1.5,0.9,2.8v6.6h-1.7L105.5,47.3L105.5,47.3z"/>
	<path style="fill:#7D797B;" d="M116.4,47.3l-4.6-12h-0.1c0.1,1,0.1,2.1,0.1,3.4v8.6h-1.5V33.7h2.4l4.3,11.2h0.1l4.3-11.2h2.4v13.6
		h-1.6v-8.7c0-1,0-2.1,0.1-3.3h-0.1l-4.6,12C117.6,47.3,116.4,47.3,116.4,47.3z"/>
	<path style="fill:#7D797B;" d="M133.6,47.3l-0.3-1.4h-0.1c-0.5,0.6-1,1.1-1.5,1.3s-1.1,0.3-1.9,0.3c-1,0-1.8-0.3-2.4-0.8
		s-0.9-1.3-0.9-2.2c0-2.1,1.6-3.1,4.9-3.2l1.7-0.1v-0.6c0-0.8-0.2-1.4-0.5-1.8c-0.3-0.4-0.9-0.6-1.6-0.6c-0.8,0-1.8,0.3-2.9,0.8
		l-0.5-1.2c0.5-0.3,1-0.5,1.6-0.6c0.6-0.2,1.2-0.2,1.8-0.2c1.2,0,2.1,0.3,2.7,0.8c0.6,0.5,0.9,1.4,0.9,2.6v6.9H133.6z M130.1,46.2
		c1,0,1.7-0.3,2.3-0.8c0.5-0.5,0.8-1.3,0.8-2.2v-0.9l-1.5,0.1c-1.2,0-2.1,0.2-2.6,0.6c-0.5,0.3-0.8,0.9-0.8,1.6c0,0.6,0.2,1,0.5,1.3
		C129,46.1,129.5,46.2,130.1,46.2z"/>
	<path style="fill:#7D797B;" d="M142.6,47.5c-0.7,0-1.3-0.1-1.8-0.4c-0.5-0.2-1-0.6-1.4-1.1h-0.1c0.1,0.6,0.1,1.2,0.1,1.7v4.2h-1.5
		V37.1h1.3l0.2,1.4h0.1c0.4-0.6,0.9-1,1.4-1.2s1.1-0.4,1.8-0.4c1.3,0,2.4,0.5,3.1,1.4c0.7,0.9,1.1,2.2,1.1,3.9s-0.4,3-1.1,3.9
		C145,47,144,47.5,142.6,47.5z M142.4,38.2c-1,0-1.8,0.3-2.3,0.9c-0.5,0.6-0.7,1.5-0.7,2.7v0.3c0,1.4,0.2,2.5,0.7,3.1
		s1.2,0.9,2.3,0.9c0.9,0,1.6-0.4,2.1-1.1c0.5-0.7,0.7-1.7,0.7-2.9c0-1.3-0.3-2.2-0.7-2.9C144,38.6,143.3,38.2,142.4,38.2z"/>
</g>
<g style="enable-background:new    ;">
	<path style="fill:#7D797B;" d="M210.4,109.9v-6.6c0-0.8-0.2-1.4-0.6-1.9c-0.4-0.4-1-0.6-1.8-0.6c-1.1,0-1.9,0.3-2.3,0.9
		c-0.5,0.6-0.7,1.5-0.7,2.9v5.3h-1.5V95.4h1.5v4.4c0,0.5,0,1-0.1,1.3h0.1c0.3-0.5,0.7-0.9,1.3-1.2c0.6-0.3,1.2-0.4,1.9-0.4
		c1.2,0,2.2,0.3,2.8,0.9s0.9,1.5,0.9,2.8v6.6L210.4,109.9L210.4,109.9z"/>
	<path style="fill:#7D797B;" d="M218.4,108.8c0.3,0,0.5,0,0.8-0.1c0.3,0,0.5-0.1,0.6-0.1v1.2c-0.2,0.1-0.4,0.1-0.7,0.2
		s-0.6,0.1-0.9,0.1c-2,0-3-1-3-3.1v-6h-1.5v-0.7l1.5-0.6l0.6-2.2h0.9v2.4h3v1.2h-3v6c0,0.6,0.1,1.1,0.4,1.4
		C217.5,108.6,217.9,108.8,218.4,108.8z"/>
	<path style="fill:#7D797B;" d="M225.1,108.8c0.3,0,0.5,0,0.8-0.1c0.3,0,0.5-0.1,0.6-0.1v1.2c-0.2,0.1-0.4,0.1-0.7,0.2
		s-0.6,0.1-0.9,0.1c-2,0-3-1-3-3.1v-6h-1.5v-0.7l1.5-0.6l0.6-2.2h0.9v2.4h3v1.2h-3v6c0,0.6,0.1,1.1,0.4,1.4
		C224.2,108.6,224.6,108.8,225.1,108.8z"/>
	<path style="fill:#7D797B;" d="M233.3,110c-0.7,0-1.3-0.1-1.8-0.4c-0.5-0.2-1-0.6-1.4-1.1H230c0.1,0.6,0.1,1.2,0.1,1.7v4.2h-1.5
		V99.7h1.3l0.2,1.4h0.1c0.4-0.6,0.9-1,1.4-1.2s1.1-0.4,1.8-0.4c1.3,0,2.4,0.5,3.1,1.4c0.7,0.9,1.1,2.2,1.1,3.9c0,1.7-0.4,3-1.1,3.9
		C235.6,109.6,234.6,110,233.3,110z M233.1,100.8c-1,0-1.8,0.3-2.3,0.9s-0.7,1.5-0.7,2.7v0.3c0,1.4,0.2,2.5,0.7,3.1s1.2,0.9,2.3,0.9
		c0.9,0,1.6-0.4,2.1-1.1s0.7-1.7,0.7-2.9c0-1.3-0.2-2.2-0.7-2.9C234.7,101.1,234,100.8,233.1,100.8z"/>
	<path style="fill:#7D797B;" d="M246.8,107.1c0,0.9-0.4,1.7-1.1,2.2c-0.7,0.5-1.7,0.8-3,0.8s-2.4-0.2-3.2-0.6V108
		c0.5,0.2,1,0.4,1.6,0.6c0.6,0.1,1.1,0.2,1.6,0.2c0.8,0,1.4-0.1,1.9-0.4c0.4-0.3,0.6-0.6,0.6-1.2c0-0.4-0.2-0.7-0.5-1s-1-0.6-2-1
		c-0.9-0.4-1.6-0.7-2-0.9c-0.4-0.3-0.7-0.6-0.9-0.9s-0.3-0.7-0.3-1.2c0-0.8,0.3-1.5,1-2s1.6-0.7,2.8-0.7c1.1,0,2.2,0.2,3.2,0.7
		l-0.5,1.3c-1-0.4-1.9-0.6-2.8-0.6c-0.7,0-1.3,0.1-1.7,0.3s-0.6,0.5-0.6,0.9c0,0.3,0.1,0.5,0.2,0.7c0.1,0.2,0.4,0.4,0.7,0.5
		c0.3,0.2,0.9,0.4,1.8,0.8c1.2,0.4,2,0.9,2.4,1.3C246.5,105.8,246.8,106.4,246.8,107.1z"/>
	<path style="fill:#7D797B;" d="M249,100.7c0-0.8,0.4-1.3,1.1-1.3c0.8,0,1.1,0.4,1.1,1.3c0,0.4-0.1,0.7-0.3,0.9
		c-0.2,0.2-0.5,0.3-0.8,0.3s-0.6-0.1-0.8-0.3C249.1,101.4,249,101.1,249,100.7z M249,108.9c0-0.4,0.1-0.7,0.3-0.9
		c0.2-0.2,0.5-0.3,0.8-0.3c0.4,0,0.6,0.1,0.8,0.3c0.2,0.2,0.3,0.5,0.3,0.9s-0.1,0.7-0.3,0.9s-0.5,0.3-0.8,0.3s-0.6-0.1-0.8-0.3
		S249,109.3,249,108.9z"/>
	<path style="fill:#7D797B;" d="M259.5,96.3l-5.1,13.6h-1.5l5.1-13.6H259.5z"/>
	<path style="fill:#7D797B;" d="M266.4,96.3l-5.1,13.6h-1.5l5.1-13.6H266.4z"/>
	<path style="fill:#7D797B;" d="M274.5,109.9l-0.3-1.4h-0.1c-0.5,0.6-1,1.1-1.5,1.3s-1.1,0.3-1.9,0.3c-1,0-1.8-0.3-2.4-0.8
		s-0.9-1.3-0.9-2.2c0-2.1,1.6-3.1,4.9-3.2l1.7-0.1v-0.6c0-0.8-0.2-1.4-0.5-1.8s-0.9-0.6-1.6-0.6c-0.8,0-1.8,0.3-2.9,0.8l-0.5-1.2
		c0.5-0.3,1-0.5,1.6-0.6c0.6-0.2,1.2-0.2,1.8-0.2c1.2,0,2.1,0.3,2.7,0.8s0.9,1.4,0.9,2.6v6.9L274.5,109.9L274.5,109.9z M271,108.8
		c1,0,1.7-0.3,2.3-0.8c0.5-0.5,0.8-1.3,0.8-2.2v-0.9l-1.5,0.1c-1.2,0-2.1,0.2-2.6,0.6c-0.5,0.3-0.8,0.9-0.8,1.6c0,0.6,0.2,1,0.5,1.3
		C270,108.6,270.4,108.8,271,108.8z"/>
	<path style="fill:#7D797B;" d="M283.6,110c-0.7,0-1.3-0.1-1.8-0.4c-0.5-0.2-1-0.6-1.4-1.1h-0.1c0.1,0.6,0.1,1.2,0.1,1.7v4.2h-1.5
		V99.7h1.3l0.2,1.4h0.1c0.4-0.6,0.9-1,1.4-1.2s1.1-0.4,1.8-0.4c1.3,0,2.4,0.5,3.1,1.4s1.1,2.2,1.1,3.9c0,1.7-0.4,3-1.1,3.9
		C285.9,109.6,284.9,110,283.6,110z M283.3,100.8c-1,0-1.8,0.3-2.3,0.9s-0.7,1.5-0.7,2.7v0.3c0,1.4,0.2,2.5,0.7,3.1s1.2,0.9,2.3,0.9
		c0.9,0,1.6-0.4,2.1-1.1s0.7-1.7,0.7-2.9c0-1.3-0.3-2.2-0.7-2.9C285,101.1,284.3,100.8,283.3,100.8z"/>
	<path style="fill:#7D797B;" d="M295.2,110c-0.7,0-1.3-0.1-1.8-0.4c-0.5-0.2-1-0.6-1.4-1.1h-0.1c0.1,0.6,0.1,1.2,0.1,1.7v4.2h-1.5
		V99.7h1.3l0.2,1.4h0.1c0.4-0.6,0.9-1,1.4-1.2s1.1-0.4,1.8-0.4c1.3,0,2.4,0.5,3.1,1.4s1.1,2.2,1.1,3.9c0,1.7-0.4,3-1.1,3.9
		C297.6,109.6,296.5,110,295.2,110z M295,100.8c-1,0-1.8,0.3-2.3,0.9s-0.7,1.5-0.7,2.7v0.3c0,1.4,0.2,2.5,0.7,3.1s1.2,0.9,2.3,0.9
		c0.9,0,1.6-0.4,2.1-1.1s0.7-1.7,0.7-2.9c0-1.3-0.3-2.2-0.7-2.9C296.6,101.1,295.9,100.8,295,100.8z"/>
	<path style="fill:#7D797B;" d="M301.9,108.9c0-0.4,0.1-0.7,0.3-0.9c0.2-0.2,0.5-0.3,0.8-0.3c0.4,0,0.6,0.1,0.8,0.3
		c0.2,0.2,0.3,0.5,0.3,0.9s-0.1,0.7-0.3,0.9s-0.5,0.3-0.8,0.3s-0.6-0.1-0.8-0.3S301.9,109.3,301.9,108.9z"/>
	<path style="fill:#7D797B;" d="M314.1,108.5L314.1,108.5c-0.8,1-1.9,1.5-3.3,1.5c-1.3,0-2.4-0.5-3.1-1.4s-1.1-2.2-1.1-3.9
		c0-1.7,0.4-3,1.1-3.9s1.8-1.4,3.1-1.4c1.4,0,2.4,0.5,3.2,1.5h0.1l-0.1-0.7v-0.7v-4.1h1.5v14.4h-1.3L314.1,108.5z M311,108.7
		c1.1,0,1.8-0.3,2.3-0.9s0.7-1.5,0.7-2.8v-0.3c0-1.4-0.2-2.5-0.7-3.1s-1.2-0.9-2.3-0.9c-0.9,0-1.6,0.4-2.1,1.1s-0.7,1.7-0.7,3
		s0.2,2.3,0.7,2.9S310.1,108.7,311,108.7z"/>
	<path style="fill:#7D797B;" d="M323.1,110c-1.5,0-2.7-0.5-3.6-1.4s-1.3-2.2-1.3-3.8c0-1.6,0.4-2.9,1.2-3.9c0.8-1,1.9-1.4,3.3-1.4
		c1.3,0,2.3,0.4,3,1.3c0.7,0.8,1.1,1.9,1.1,3.3v1h-7c0,1.2,0.3,2.1,0.9,2.7s1.4,0.9,2.4,0.9c1.1,0,2.2-0.2,3.2-0.7v1.4
		c-0.5,0.2-1.1,0.4-1.5,0.5C324.4,110,323.8,110,323.1,110z M322.7,100.8c-0.8,0-1.5,0.3-2,0.8s-0.8,1.3-0.9,2.2h5.3
		c0-1-0.2-1.7-0.6-2.2S323.5,100.8,322.7,100.8z"/>
	<path style="fill:#7D797B;" d="M336,107.1c0,0.9-0.4,1.7-1.1,2.2s-1.7,0.8-3,0.8s-2.4-0.2-3.2-0.6V108c0.5,0.2,1,0.4,1.6,0.6
		c0.6,0.1,1.1,0.2,1.6,0.2c0.8,0,1.4-0.1,1.9-0.4c0.4-0.3,0.6-0.6,0.6-1.2c0-0.4-0.2-0.7-0.5-1s-1-0.6-2-1c-0.9-0.4-1.6-0.7-2-0.9
		c-0.4-0.3-0.7-0.6-0.9-0.9c-0.2-0.3-0.3-0.7-0.3-1.2c0-0.8,0.3-1.5,1-2s1.6-0.7,2.8-0.7c1.1,0,2.2,0.2,3.2,0.7l-0.5,1.3
		c-1-0.4-1.9-0.6-2.8-0.6c-0.7,0-1.3,0.1-1.7,0.3s-0.6,0.5-0.6,0.9c0,0.3,0.1,0.5,0.2,0.7s0.4,0.4,0.7,0.5c0.3,0.2,0.9,0.4,1.8,0.8
		c1.2,0.4,2,0.9,2.4,1.3C335.8,105.8,336,106.4,336,107.1z"/>
	<path style="fill:#7D797B;" d="M338.4,96.9c0-0.4,0.1-0.6,0.3-0.8c0.2-0.2,0.4-0.2,0.6-0.2s0.5,0.1,0.6,0.3
		c0.2,0.2,0.3,0.4,0.3,0.8c0,0.3-0.1,0.6-0.3,0.8c-0.2,0.2-0.4,0.3-0.6,0.3c-0.3,0-0.5-0.1-0.6-0.3S338.4,97.3,338.4,96.9z
		 M340.1,109.9h-1.5V99.7h1.5V109.9z"/>
	<path style="fill:#7D797B;" d="M351.7,99.7v1l-1.9,0.2c0.2,0.2,0.3,0.5,0.5,0.8s0.2,0.7,0.2,1.2c0,1-0.3,1.8-1,2.4
		s-1.6,0.9-2.8,0.9c-0.3,0-0.6,0-0.9-0.1c-0.7,0.3-1,0.8-1,1.3c0,0.3,0.1,0.5,0.3,0.6c0.2,0.1,0.6,0.2,1.2,0.2h1.8
		c1.1,0,1.9,0.2,2.5,0.7s0.9,1.1,0.9,2c0,1.1-0.5,2-1.4,2.6s-2.2,0.9-4,0.9c-1.3,0-2.4-0.2-3.1-0.7s-1.1-1.2-1.1-2.1
		c0-0.6,0.2-1.2,0.6-1.6c0.4-0.5,1-0.8,1.7-0.9c-0.3-0.1-0.5-0.3-0.7-0.5s-0.3-0.5-0.3-0.9s0.1-0.7,0.3-1c0.2-0.3,0.5-0.5,0.9-0.8
		c-0.5-0.2-1-0.6-1.3-1.1s-0.5-1.1-0.5-1.8c0-1.1,0.3-2,1-2.6s1.6-0.9,2.8-0.9c0.5,0,1,0.1,1.4,0.2
		C347.8,99.7,351.7,99.7,351.7,99.7z M343.6,111.6c0,0.6,0.2,1,0.7,1.3s1.1,0.4,2,0.4c1.3,0,2.2-0.2,2.9-0.6
		c0.6-0.4,0.9-0.9,0.9-1.6c0-0.6-0.2-0.9-0.5-1.1s-1-0.3-1.9-0.3h-1.8c-0.7,0-1.2,0.2-1.6,0.5S343.6,110.9,343.6,111.6z
		 M344.4,102.9c0,0.7,0.2,1.3,0.6,1.6c0.4,0.4,1,0.5,1.7,0.5c1.5,0,2.3-0.7,2.3-2.2s-0.8-2.3-2.3-2.3c-0.7,0-1.3,0.2-1.7,0.6
		S344.4,102.2,344.4,102.9z"/>
	<path style="fill:#7D797B;" d="M360.7,109.9v-6.6c0-0.8-0.2-1.4-0.6-1.9c-0.4-0.4-1-0.6-1.8-0.6c-1.1,0-1.8,0.3-2.3,0.9
		s-0.7,1.5-0.7,2.8v5.3h-1.5V99.7h1.3l0.3,1.4h0.1c0.3-0.5,0.8-0.9,1.3-1.2c0.6-0.3,1.2-0.4,1.9-0.4c1.2,0,2.1,0.3,2.8,0.9
		c0.6,0.6,0.9,1.5,0.9,2.8v6.6L360.7,109.9L360.7,109.9z"/>
	<path style="fill:#7D797B;" d="M378.4,109.9v-6.6c0-0.8-0.2-1.4-0.5-1.8s-0.9-0.6-1.6-0.6c-1,0-1.7,0.3-2.1,0.8s-0.7,1.4-0.7,2.5
		v5.7H372v-6.6c0-0.8-0.2-1.4-0.5-1.8s-0.9-0.6-1.6-0.6c-1,0-1.7,0.3-2.1,0.9s-0.7,1.5-0.7,2.8v5.3h-1.5V99.7h1.3l0.3,1.4h0.1
		c0.3-0.5,0.7-0.9,1.2-1.2c0.5-0.3,1.1-0.4,1.8-0.4c1.6,0,2.6,0.6,3.1,1.7h0.1c0.3-0.5,0.7-1,1.3-1.3s1.2-0.5,2-0.5
		c1.2,0,2,0.3,2.6,0.9s0.9,1.5,0.9,2.8v6.6h-1.9L378.4,109.9L378.4,109.9z"/>
	<path style="fill:#7D797B;" d="M389.4,109.9l-0.3-1.4H389c-0.5,0.6-1,1.1-1.5,1.3s-1.1,0.3-1.9,0.3c-1,0-1.8-0.3-2.4-0.8
		s-0.9-1.3-0.9-2.2c0-2.1,1.6-3.1,4.9-3.2l1.7-0.1v-0.6c0-0.8-0.2-1.4-0.5-1.8s-0.9-0.6-1.6-0.6c-0.8,0-1.8,0.3-2.9,0.8l-0.5-1.2
		c0.5-0.3,1-0.5,1.6-0.6c0.6-0.2,1.2-0.2,1.8-0.2c1.2,0,2.1,0.3,2.7,0.8s0.9,1.4,0.9,2.6v6.9L389.4,109.9L389.4,109.9z M385.9,108.8
		c1,0,1.7-0.3,2.3-0.8c0.5-0.5,0.8-1.3,0.8-2.2v-0.9l-1.5,0.1c-1.2,0-2.1,0.2-2.6,0.6c-0.5,0.3-0.8,0.9-0.8,1.6c0,0.6,0.2,1,0.5,1.3
		C384.8,108.6,385.3,108.8,385.9,108.8z"/>
	<path style="fill:#7D797B;" d="M398.4,110c-0.7,0-1.3-0.1-1.8-0.4c-0.5-0.2-1-0.6-1.4-1.1h-0.1c0.1,0.6,0.1,1.2,0.1,1.7v4.2h-1.5
		V99.7h1.3l0.2,1.4h0.1c0.4-0.6,0.9-1,1.4-1.2s1.1-0.4,1.8-0.4c1.3,0,2.4,0.5,3.1,1.4s1.1,2.2,1.1,3.9c0,1.7-0.4,3-1.1,3.9
		C400.8,109.6,399.7,110,398.4,110z M398.2,100.8c-1,0-1.8,0.3-2.3,0.9s-0.7,1.5-0.7,2.7v0.3c0,1.4,0.2,2.5,0.7,3.1s1.2,0.9,2.3,0.9
		c0.9,0,1.6-0.4,2.1-1.1s0.7-1.7,0.7-2.9c0-1.3-0.3-2.2-0.7-2.9C399.8,101.1,399.1,100.8,398.2,100.8z"/>
	<path style="fill:#7D797B;" d="M405.1,108.9c0-0.4,0.1-0.7,0.3-0.9c0.2-0.2,0.5-0.3,0.8-0.3c0.4,0,0.6,0.1,0.8,0.3
		c0.2,0.2,0.3,0.5,0.3,0.9s-0.1,0.7-0.3,0.9s-0.5,0.3-0.8,0.3s-0.6-0.1-0.8-0.3S405.1,109.3,405.1,108.9z"/>
	<path style="fill:#7D797B;" d="M415,99.5c0.5,0,0.9,0,1.2,0.1L416,101c-0.4-0.1-0.8-0.1-1.1-0.1c-0.8,0-1.5,0.3-2.1,1
		s-0.9,1.5-0.9,2.5v5.5h-1.5V99.7h1.3l0.2,1.9h0.1c0.4-0.7,0.8-1.2,1.4-1.5C413.8,99.7,414.4,99.5,415,99.5z"/>
	<path style="fill:#7D797B;" d="M419.6,99.7v6.6c0,0.8,0.2,1.4,0.6,1.9c0.4,0.4,1,0.6,1.8,0.6c1.1,0,1.8-0.3,2.3-0.9
		s0.7-1.5,0.7-2.8v-5.3h1.5V110h-1.3l-0.2-1.4h-0.1c-0.3,0.5-0.8,0.9-1.3,1.2c-0.6,0.3-1.2,0.4-1.9,0.4c-1.2,0-2.2-0.3-2.8-0.9
		c-0.6-0.6-0.9-1.5-0.9-2.8v-6.7L419.6,99.7L419.6,99.7z"/>
</g>
<circle style="fill:#F5A847;stroke:#FFFFFF;stroke-miterlimit:10;" cx="35" cy="39" r="9"/>
<g>
	<rect x="220" y="143" style="fill:#F2F2F2;" width="1244" height="65"/>
</g>
<g>
	<rect y="142" style="fill:#91CFF9;" width="220" height="65.5"/>
</g>
<line style="fill:none;stroke:#EDEDED;stroke-miterlimit:10;" x1="219.5" y1="515" x2="219.5" y2="142"/>
<g id="taskmanager_6_">
	
		<circle style="fill:none;stroke:#828282;stroke-linecap:round;stroke-linejoin:round;stroke-miterlimit:10;" cx="26" cy="233.3" r="5.8"/>
	
		<line style="fill:none;stroke:#828282;stroke-linecap:round;stroke-linejoin:round;stroke-miterlimit:10;" x1="25.6" y1="235.2" x2="29.3" y2="231.5"/>
	
		<line style="fill:none;stroke:#828282;stroke-linecap:round;stroke-linejoin:round;stroke-miterlimit:10;" x1="25.6" y1="235.2" x2="23.7" y2="233.4"/>
	
		<circle style="fill:none;stroke:#828282;stroke-linecap:round;stroke-linejoin:round;stroke-miterlimit:10;" cx="26" cy="246.7" r="5.8"/>
</g>
<g id="access_11_">
	<g id="access_12_">
		<path style="fill:none;stroke:#828282;stroke-linecap:round;stroke-linejoin:round;stroke-miterlimit:10;" d="M26.1,333.3l6.2-6.2
			c1.6-1.6,4.1-1.6,5.7,0l0.8,0.8c1.6,1.6,1.6,4.1,0,5.7l-6.2,6.2c-1.6,1.6-4.1,1.6-5.7,0l-0.8-0.8"/>
		<path style="fill:none;stroke:#828282;stroke-linecap:round;stroke-linejoin:round;stroke-miterlimit:10;" d="M28.8,343.6
			l-6.2,6.2c-1.6,1.6-4.1,1.6-5.7,0l-0.8-0.8c-1.6-1.6-1.6-4.1,0-5.7l6.2-6.2c1.6-1.6,4.1-1.6,5.7,0l0.8,0.8"/>
	</g>
</g>
<g>
	
		<line style="fill:none;stroke:#828282;stroke-linecap:round;stroke-linejoin:round;stroke-miterlimit:10;" x1="18" y1="278.5" x2="35" y2="278.5"/>
	<path style="fill:none;stroke:#828282;stroke-linecap:round;stroke-linejoin:round;stroke-miterlimit:10;" d="M35.6,282.3
		c0-2.1-1.4-1.8-3.6-1.8H20.7c-2.2,0-3.6-0.4-3.6,1.7l1.1,13.1c0.5,3.2,2.5,4.2,3.9,4.2h8.5c1.4,0,3.5,0,4-4.3L35.6,282.3z"/>
	<path style="fill:none;stroke:#828282;stroke-linecap:round;stroke-linejoin:round;stroke-miterlimit:10;" d="M28.8,278.1
		c0-1.4-1.1-2.5-2.5-2.5s-2.5,1.1-2.5,2.5"/>
	<rect x="23.3" y="286" style="fill:none;" width="8.5" height="13.3"/>
	<g style="enable-background:new    ;">
		<path style="fill:#828282;" d="M28.4,293.6h-4.5v-0.4l1.9-2c0.5-0.6,0.9-1,1.1-1.3s0.4-0.6,0.5-0.8s0.2-0.5,0.2-0.8
			c0-0.4-0.1-0.8-0.4-1s-0.6-0.4-1.1-0.4c-0.6,0-1.2,0.2-1.7,0.6l-0.3-0.3c0.6-0.5,1.3-0.8,2-0.8c0.6,0,1.1,0.2,1.5,0.5
			s0.5,0.8,0.5,1.4c0,0.5-0.1,0.9-0.4,1.4c-0.2,0.4-0.7,1-1.3,1.6l-1.8,1.9v0h3.8V293.6z"/>
	</g>
</g>
<rect x="60.9" y="229.5" style="fill:none;" width="138.6" height="27.5"/>
<g style="enable-background:new    ;">
	<path style="fill:#828282;" d="M67.5,241.7l-4.3-10.5h-0.1c0,0.6,0.1,1.3,0.1,2v8.6h-0.8v-11.4h1.2l4,10l0,0l4-10h1.2v11.4H72V233
		c0-0.6,0-1.2,0.1-1.9H72l-4,10.6L67.5,241.7L67.5,241.7z"/>
	<path style="fill:#828282;" d="M79.6,241.8c-1.2,0-2.2-0.4-2.9-1.1c-0.7-0.8-1-1.8-1-3.2s0.3-2.4,1-3.3c0.7-0.8,1.6-1.2,2.7-1.2
		c1,0,1.8,0.3,2.4,1s0.9,1.6,0.9,2.8v0.6h-6.1c0,1.2,0.3,2.1,0.8,2.7c0.5,0.6,1.3,0.9,2.3,0.9c0.5,0,0.9,0,1.3-0.1s0.8-0.2,1.4-0.4
		v0.7c-0.5,0.2-0.9,0.4-1.3,0.4S80,241.8,79.6,241.8z M79.3,233.7c-0.8,0-1.5,0.3-2,0.8s-0.8,1.3-0.9,2.3h5.3c0-1-0.2-1.8-0.6-2.3
		C80.7,234,80.1,233.7,79.3,233.7z"/>
	<path style="fill:#828282;" d="M85.7,233.2v3.7h5.4v-3.7h0.8v8.5h-0.8v-4.1h-5.4v4.1h-0.8v-8.5H85.7z"/>
	<path style="fill:#828282;" d="M98.1,241.8c-1.2,0-2.2-0.4-2.9-1.1c-0.7-0.8-1-1.8-1-3.2s0.3-2.4,1-3.3c0.7-0.8,1.6-1.2,2.7-1.2
		c1,0,1.8,0.3,2.4,1s0.9,1.6,0.9,2.8v0.6H95c0,1.2,0.3,2.1,0.8,2.7c0.5,0.6,1.3,0.9,2.3,0.9c0.5,0,0.9,0,1.3-0.1s0.8-0.2,1.4-0.4
		v0.7c-0.5,0.2-0.9,0.4-1.3,0.4S98.6,241.8,98.1,241.8z M97.9,233.7c-0.8,0-1.5,0.3-2,0.8s-0.8,1.3-0.9,2.3h5.3c0-1-0.2-1.8-0.6-2.3
		C99.2,234,98.6,233.7,97.9,233.7z"/>
	<path style="fill:#828282;" d="M110.4,244.5h-0.8v-2.9h-6.5v2.9h-0.8v-3.6h0.6c0.7-1,1.3-2.1,1.6-3.5c0.4-1.3,0.6-2.7,0.6-4.3h4.1
		v7.8h1.1v3.6H110.4z M108.5,240.9v-7h-2.6c-0.1,2.8-0.8,5.2-2,7H108.5z"/>
	<path style="fill:#828282;" d="M115.7,233.2h0.8v4.1l3.6-4.1h0.9l-3.7,4.1l4,4.4h-1l-3.9-4.3v4.3h-0.8v-4.3l-3.9,4.3h-1l4-4.3
		l-3.7-4.2h0.9l3.6,4.1v-4.1H115.7z"/>
	<path style="fill:#828282;" d="M126.3,241.8c-1.2,0-2.2-0.4-2.9-1.1s-1-1.8-1-3.2s0.3-2.4,1-3.3s1.6-1.2,2.7-1.2c1,0,1.8,0.3,2.4,1
		c0.6,0.7,0.9,1.6,0.9,2.8v0.6h-6.1c0,1.2,0.3,2.1,0.8,2.7s1.3,0.9,2.3,0.9c0.5,0,0.9,0,1.3-0.1s0.8-0.2,1.4-0.4v0.7
		c-0.5,0.2-0.9,0.4-1.3,0.4S126.8,241.8,126.3,241.8z M126,233.7c-0.8,0-1.5,0.3-2,0.8s-0.8,1.3-0.9,2.3h5.3c0-1-0.2-1.8-0.6-2.3
		S126.8,233.7,126,233.7z"/>
	<path style="fill:#828282;" d="M135.3,241.8c-1.3,0-2.3-0.5-2.9-1.5h-0.1v0.7c0,0.4,0,0.8,0,1.3v3.2h-0.8v-12.3h0.7l0.1,1.2l0,0
		c0.6-0.9,1.5-1.4,2.8-1.4c1.1,0,2,0.4,2.6,1.1s0.9,1.8,0.9,3.3c0,1.4-0.3,2.5-0.9,3.2S136.3,241.8,135.3,241.8z M135.2,241.1
		c0.9,0,1.5-0.3,2-1s0.7-1.5,0.7-2.7c0-2.5-0.9-3.7-2.7-3.7c-1,0-1.7,0.3-2.2,0.8s-0.7,1.4-0.7,2.7v0.3c0,1.3,0.2,2.3,0.7,2.8
		S134.2,241.1,135.2,241.1z"/>
	<path style="fill:#828282;" d="M151.7,232.9c0,1.5-0.8,2.4-2.4,2.8l0,0c1.7,0.4,2.6,1.3,2.6,2.8c0,1-0.4,1.9-1.1,2.4
		s-1.8,0.9-3.1,0.9s-2.3-0.2-3.2-0.7v-0.8c0.5,0.2,1,0.4,1.6,0.6s1.1,0.2,1.6,0.2c1,0,1.9-0.2,2.5-0.7s0.9-1.1,0.9-1.9
		c0-0.8-0.3-1.4-0.9-1.8s-1.5-0.6-2.6-0.6h-1.7v-0.8h1.8c1.1,0,1.9-0.2,2.4-0.6s0.8-1,0.8-1.8c0-0.7-0.2-1.2-0.7-1.6
		s-1.1-0.6-1.9-0.6c-0.6,0-1.1,0.1-1.6,0.2s-1,0.4-1.6,0.8l-0.5-0.6c1.1-0.8,2.3-1.2,3.6-1.2c1.1,0,1.9,0.3,2.5,0.8
		S151.7,232,151.7,232.9z"/>
	<path style="fill:#828282;" d="M159.4,241.7l-0.2-1.3h-0.1c-0.4,0.5-0.9,0.9-1.3,1.2s-1,0.3-1.6,0.3c-0.8,0-1.5-0.2-1.9-0.6
		s-0.7-1-0.7-1.8s0.3-1.5,1-1.9s1.7-0.7,3-0.7h1.6v-0.6c0-0.8-0.2-1.4-0.5-1.8s-0.9-0.6-1.6-0.6c-0.8,0-1.6,0.2-2.4,0.7l-0.3-0.7
		c0.9-0.4,1.9-0.7,2.8-0.7c0.9,0,1.6,0.2,2.1,0.7s0.7,1.2,0.7,2.3v5.6L159.4,241.7L159.4,241.7z M156.3,241.1c0.9,0,1.6-0.3,2.1-0.8
		s0.8-1.2,0.8-2.2v-0.8l-1.5,0.1c-1.2,0.1-2,0.2-2.6,0.6s-0.8,0.8-0.8,1.5c0,0.5,0.2,0.9,0.5,1.2S155.7,241.1,156.3,241.1z"/>
	<path style="fill:#828282;" d="M169.6,244.5h-0.8v-2.9h-6.5v2.9h-0.8v-3.6h0.6c0.7-1,1.3-2.1,1.6-3.5s0.6-2.7,0.6-4.3h4.1v7.8h1.1
		L169.6,244.5L169.6,244.5z M167.7,240.9v-7h-2.6c-0.1,2.8-0.8,5.2-2,7H167.7z"/>
	<path style="fill:#828282;" d="M176.6,241.7l-0.2-1.3h-0.1c-0.4,0.5-0.9,0.9-1.3,1.2s-1,0.3-1.6,0.3c-0.8,0-1.5-0.2-1.9-0.6
		s-0.7-1-0.7-1.8s0.3-1.5,1-1.9s1.7-0.7,3-0.7h1.6v-0.6c0-0.8-0.2-1.4-0.5-1.8s-0.9-0.6-1.6-0.6c-0.8,0-1.6,0.2-2.4,0.7l-0.3-0.7
		c0.9-0.4,1.9-0.7,2.8-0.7c0.9,0,1.6,0.2,2.1,0.7s0.7,1.2,0.7,2.3v5.6L176.6,241.7L176.6,241.7z M173.5,241.1c0.9,0,1.6-0.3,2.1-0.8
		s0.8-1.2,0.8-2.2v-0.8l-1.5,0.1c-1.2,0.1-2,0.2-2.6,0.6s-0.8,0.8-0.8,1.5c0,0.5,0.2,0.9,0.5,1.2S172.9,241.1,173.5,241.1z"/>
	<path style="fill:#828282;" d="M180.6,233.2v2.8c0,0.7,0.2,1.2,0.5,1.6s0.9,0.5,1.6,0.5c0.5,0,1-0.1,1.5-0.3s0.9-0.5,1.4-0.9v-3.7
		h0.8v8.5h-0.8v-4c-0.5,0.4-1,0.7-1.5,0.9s-1,0.3-1.6,0.3c-0.9,0-1.5-0.2-2-0.7s-0.7-1.1-0.7-2v-2.9h0.8V233.2z"/>
</g>
<rect x="245.4" y="169" style="fill:none;" width="138.6" height="27.5"/>
<g style="enable-background:new    ;">
	<path style="fill:#828282;" d="M251.9,170.3c-1.4,0-2.6,0.5-3.4,1.4c-0.8,0.9-1.2,2.2-1.2,3.8s0.4,2.9,1.2,3.8
		c0.8,0.9,1.9,1.4,3.3,1.4c1,0,1.8-0.1,2.6-0.4v0.7c-0.8,0.3-1.7,0.4-2.8,0.4c-1.6,0-2.9-0.5-3.8-1.6s-1.4-2.5-1.4-4.3
		c0-1.2,0.2-2.2,0.7-3.1c0.4-0.9,1.1-1.6,1.9-2.1c0.8-0.5,1.8-0.7,2.9-0.7c1.1,0,2.1,0.2,3,0.6l-0.3,0.7
		C253.7,170.5,252.8,170.3,251.9,170.3z"/>
	<path style="fill:#828282;" d="M263.8,176.9c0,1.4-0.3,2.5-1,3.2s-1.6,1.2-2.8,1.2c-0.7,0-1.4-0.2-2-0.5c-0.6-0.4-1-0.9-1.3-1.5
		c-0.3-0.7-0.5-1.4-0.5-2.3c0-1.4,0.3-2.5,1-3.2s1.6-1.2,2.8-1.2c1.2,0,2.1,0.4,2.7,1.2S263.8,175.5,263.8,176.9z M257.1,176.9
		c0,1.2,0.3,2.1,0.8,2.7c0.5,0.7,1.2,1,2.2,1s1.7-0.3,2.2-1s0.8-1.6,0.8-2.7c0-1.2-0.3-2.1-0.8-2.7c-0.5-0.6-1.2-1-2.2-1
		s-1.7,0.3-2.2,1S257.1,175.7,257.1,176.9z"/>
	<path style="fill:#828282;" d="M267.7,176.3c1.5,0,2.3-0.5,2.3-1.6c0-0.5-0.2-0.9-0.5-1.2c-0.4-0.3-0.9-0.4-1.5-0.4
		c-0.4,0-0.8,0-1.2,0.1s-0.7,0.2-1.2,0.4l-0.3-0.6c0.9-0.4,1.8-0.6,2.6-0.6c0.9,0,1.6,0.2,2.1,0.6c0.5,0.4,0.7,0.9,0.7,1.6
		c0,1-0.5,1.6-1.5,1.9l0,0c0.6,0.2,1.1,0.4,1.4,0.8c0.3,0.4,0.4,0.8,0.4,1.4c0,0.8-0.3,1.4-0.9,1.9s-1.4,0.7-2.4,0.7
		c-0.6,0-1.1-0.1-1.5-0.2c-0.5-0.1-0.8-0.2-1.1-0.4V180c0.5,0.3,1,0.4,1.4,0.5s0.8,0.1,1.3,0.1c0.8,0,1.4-0.2,1.8-0.5
		s0.6-0.8,0.6-1.4c0-0.6-0.2-1-0.6-1.3s-1-0.4-1.9-0.4h-1.2v-0.7L267.7,176.3L267.7,176.3z"/>
	<path style="fill:#828282;" d="M280.3,184h-0.8v-2.9H273v2.9h-0.8v-3.6h0.6c0.7-1,1.3-2.1,1.6-3.5c0.4-1.3,0.6-2.7,0.6-4.3h4.1v7.8
		h1.1L280.3,184L280.3,184z M278.4,180.4v-7h-2.6c-0.1,2.8-0.8,5.2-2,7H278.4z"/>
	<path style="fill:#828282;" d="M287.3,181.2l-0.2-1.3H287c-0.4,0.5-0.9,0.9-1.3,1.2c-0.5,0.2-1,0.3-1.6,0.3c-0.8,0-1.5-0.2-1.9-0.6
		c-0.5-0.4-0.7-1-0.7-1.8s0.3-1.5,1-1.9c0.7-0.5,1.7-0.7,3-0.7h1.6v-0.6c0-0.8-0.2-1.4-0.5-1.8s-0.9-0.6-1.6-0.6
		c-0.8,0-1.6,0.2-2.4,0.7l-0.3-0.7c0.9-0.4,1.9-0.7,2.8-0.7s1.6,0.2,2.1,0.7s0.7,1.2,0.7,2.3v5.6L287.3,181.2L287.3,181.2z
		 M284.1,180.6c0.9,0,1.6-0.3,2.1-0.8s0.8-1.2,0.8-2.2v-0.8l-1.5,0.1c-1.2,0.1-2,0.2-2.6,0.6s-0.8,0.8-0.8,1.5
		c0,0.5,0.2,0.9,0.5,1.2C283.1,180.5,283.5,180.6,284.1,180.6z"/>
	<path style="fill:#828282;" d="M296,173.3h-2.8v7.8h-0.8v-7.8h-2.9v-0.7h6.5L296,173.3L296,173.3z"/>
	<path style="fill:#828282;" d="M298.5,176.2h3c2,0,3,0.8,3,2.4c0,0.8-0.3,1.4-0.8,1.9s-1.4,0.7-2.4,0.7h-3.5v-8.5h0.8v3.5
		L298.5,176.2L298.5,176.2z M298.5,177v3.4h2.9c0.7,0,1.3-0.2,1.7-0.5s0.6-0.8,0.6-1.4c0-0.6-0.2-1-0.5-1.2s-1-0.4-1.8-0.4
		L298.5,177L298.5,177z"/>
	<path style="fill:#828282;" d="M319.4,181.2h-0.8v-10.7H312v10.7h-0.8v-11.4h8.2L319.4,181.2L319.4,181.2z"/>
	<path style="fill:#828282;" d="M326,181.3c-1.3,0-2.3-0.5-2.9-1.5H323v0.7c0,0.4,0,0.8,0,1.3v3.2h-0.8v-12.3h0.7l0.1,1.2l0,0
		c0.6-0.9,1.5-1.4,2.8-1.4c1.1,0,2,0.4,2.6,1.1s0.9,1.8,0.9,3.3c0,1.4-0.3,2.5-0.9,3.2S327.1,181.3,326,181.3z M326,180.6
		c0.9,0,1.5-0.3,2-1s0.7-1.5,0.7-2.7c0-2.5-0.9-3.7-2.7-3.7c-1,0-1.7,0.3-2.2,0.8s-0.7,1.4-0.7,2.7v0.3c0,1.3,0.2,2.3,0.7,2.8
		S325,180.6,326,180.6z"/>
	<path style="fill:#828282;" d="M338.9,176.9c0,1.4-0.3,2.5-1,3.2s-1.6,1.2-2.8,1.2c-0.7,0-1.4-0.2-2-0.5s-1-0.9-1.3-1.5
		s-0.5-1.4-0.5-2.3c0-1.4,0.3-2.5,1-3.2s1.6-1.2,2.8-1.2c1.2,0,2.1,0.4,2.7,1.2S338.9,175.5,338.9,176.9z M332.2,176.9
		c0,1.2,0.3,2.1,0.8,2.7s1.2,1,2.2,1s1.7-0.3,2.2-1s0.8-1.6,0.8-2.7c0-1.2-0.3-2.1-0.8-2.7s-1.2-1-2.2-1s-1.7,0.3-2.2,1
		S332.2,175.7,332.2,176.9z"/>
	<path style="fill:#828282;" d="M344.7,181.3c-1.2,0-2.2-0.4-2.9-1.1s-1-1.8-1-3.2s0.3-2.4,1-3.3s1.6-1.2,2.7-1.2c1,0,1.8,0.3,2.4,1
		s0.9,1.6,0.9,2.8v0.6h-6.1c0,1.2,0.3,2.1,0.8,2.7s1.3,0.9,2.3,0.9c0.5,0,0.9,0,1.3-0.1s0.8-0.2,1.4-0.4v0.7
		c-0.5,0.2-0.9,0.4-1.3,0.4S345.2,181.3,344.7,181.3z M344.5,173.2c-0.8,0-1.5,0.3-2,0.8s-0.8,1.3-0.9,2.3h5.3c0-1-0.2-1.8-0.6-2.3
		S345.2,173.2,344.5,173.2z"/>
	<path style="fill:#828282;" d="M354.7,172.7h1l-3.8,4.1l4.1,4.4h-1l-4-4.3v4.3h-0.8v-8.5h0.8v4.1L354.7,172.7z"/>
	<path style="fill:#828282;" d="M362.8,173.3H360v7.8h-0.8v-7.8h-2.9v-0.7h6.5L362.8,173.3L362.8,173.3z"/>
</g>
<rect x="384.4" y="169" style="fill:none;" width="138.6" height="27.5"/>
<g style="enable-background:new    ;">
	<path style="fill:#828282;" d="M395.6,175.4c0,1.8-0.5,3.2-1.4,4.3s-2.2,1.6-3.8,1.6c-1.6,0-2.8-0.5-3.7-1.6s-1.4-2.5-1.4-4.3
		s0.5-3.2,1.4-4.3s2.2-1.6,3.7-1.6c1.6,0,2.8,0.5,3.7,1.6C395.2,172.2,395.6,173.6,395.6,175.4z M386.3,175.4c0,1.6,0.4,2.9,1.1,3.8
		c0.7,0.9,1.8,1.3,3.1,1.3c1.4,0,2.4-0.4,3.2-1.3s1.1-2.2,1.1-3.8s-0.4-2.9-1.1-3.8s-1.8-1.3-3.1-1.3c-1.4,0-2.4,0.4-3.1,1.3
		C386.6,172.5,386.3,173.8,386.3,175.4z"/>
	<path style="fill:#828282;" d="M403.4,173.3h-2.8v7.8h-0.8v-7.8h-2.9v-0.7h6.5L403.4,173.3L403.4,173.3z"/>
	<path style="fill:#828282;" d="M409.8,172.7h1l-3.8,4.1l4.1,4.4h-1l-4-4.3v4.3h-0.8v-8.5h0.8v4.1L409.8,172.7z"/>
	<path style="fill:#828282;" d="M416.2,181.3c-1.3,0-2.3-0.5-2.9-1.5h-0.1v0.7c0,0.4,0,0.8,0,1.3v3.2h-0.8v-12.3h0.7l0.1,1.2l0,0
		c0.6-0.9,1.5-1.4,2.8-1.4c1.1,0,2,0.4,2.6,1.1s0.9,1.8,0.9,3.3c0,1.4-0.3,2.5-0.9,3.2S417.3,181.3,416.2,181.3z M416.1,180.6
		c0.9,0,1.5-0.3,2-1s0.7-1.5,0.7-2.7c0-2.5-0.9-3.7-2.7-3.7c-1,0-1.7,0.3-2.2,0.8s-0.7,1.4-0.7,2.7v0.3c0,1.3,0.2,2.3,0.7,2.8
		S415.1,180.6,416.1,180.6z"/>
	<path style="fill:#828282;" d="M422.8,176.2h2.7c2,0,3,0.8,3,2.4c0,0.8-0.3,1.4-0.8,1.9c-0.6,0.5-1.4,0.7-2.4,0.7H422v-8.5h0.8
		V176.2z M422.8,177v3.4h2.6c0.7,0,1.3-0.2,1.7-0.5c0.4-0.3,0.6-0.8,0.6-1.4c0-0.6-0.2-1-0.5-1.2c-0.3-0.3-1-0.4-1.8-0.4L422.8,177
		L422.8,177z M430.8,181.2H430v-8.5h0.8V181.2z"/>
	<path style="fill:#828282;" d="M439,173.3h-2.8v7.8h-0.8v-7.8h-2.9v-0.7h6.5L439,173.3L439,173.3z"/>
	<path style="fill:#828282;" d="M441.5,176.2h3c2,0,3,0.8,3,2.4c0,0.8-0.3,1.4-0.8,1.9s-1.4,0.7-2.4,0.7h-3.5v-8.5h0.8v3.5
		L441.5,176.2L441.5,176.2z M441.5,177v3.4h2.9c0.7,0,1.3-0.2,1.7-0.5s0.6-0.8,0.6-1.4c0-0.6-0.2-1-0.5-1.2s-1-0.4-1.8-0.4
		L441.5,177L441.5,177z"/>
	<path style="fill:#828282;" d="M462.4,181.2h-0.8v-10.7H455v10.7h-0.8v-11.4h8.2L462.4,181.2L462.4,181.2z"/>
	<path style="fill:#828282;" d="M469.1,181.3c-1.3,0-2.3-0.5-2.9-1.5h-0.1v0.7c0,0.4,0,0.8,0,1.3v3.2h-0.8v-12.3h0.7l0.1,1.2l0,0
		c0.6-0.9,1.5-1.4,2.8-1.4c1.1,0,2,0.4,2.6,1.1s0.9,1.8,0.9,3.3c0,1.4-0.3,2.5-0.9,3.2S470.2,181.3,469.1,181.3z M469,180.6
		c0.9,0,1.5-0.3,2-1s0.7-1.5,0.7-2.7c0-2.5-0.9-3.7-2.7-3.7c-1,0-1.7,0.3-2.2,0.8s-0.7,1.4-0.7,2.7v0.3c0,1.3,0.2,2.3,0.7,2.8
		S468,180.6,469,180.6z"/>
	<path style="fill:#828282;" d="M482,176.9c0,1.4-0.3,2.5-1,3.2s-1.6,1.2-2.8,1.2c-0.7,0-1.4-0.2-2-0.5s-1-0.9-1.3-1.5
		s-0.5-1.4-0.5-2.3c0-1.4,0.3-2.5,1-3.2s1.6-1.2,2.8-1.2c1.2,0,2.1,0.4,2.7,1.2S482,175.5,482,176.9z M475.3,176.9
		c0,1.2,0.3,2.1,0.8,2.7s1.2,1,2.2,1s1.7-0.3,2.2-1s0.8-1.6,0.8-2.7c0-1.2-0.3-2.1-0.8-2.7s-1.2-1-2.2-1s-1.7,0.3-2.2,1
		S475.3,175.7,475.3,176.9z"/>
	<path style="fill:#828282;" d="M487.8,181.3c-1.2,0-2.2-0.4-2.9-1.1s-1-1.8-1-3.2s0.3-2.4,1-3.3s1.6-1.2,2.7-1.2c1,0,1.8,0.3,2.4,1
		s0.9,1.6,0.9,2.8v0.6h-6.1c0,1.2,0.3,2.1,0.8,2.7s1.3,0.9,2.3,0.9c0.5,0,0.9,0,1.3-0.1s0.8-0.2,1.4-0.4v0.7
		c-0.5,0.2-0.9,0.4-1.3,0.4S488.2,181.3,487.8,181.3z M487.5,173.2c-0.8,0-1.5,0.3-2,0.8s-0.8,1.3-0.9,2.3h5.3c0-1-0.2-1.8-0.6-2.3
		S488.3,173.2,487.5,173.2z"/>
	<path style="fill:#828282;" d="M497.7,172.7h1l-3.8,4.1l4.1,4.4h-1l-4-4.3v4.3h-0.8v-8.5h0.8v4.1L497.7,172.7z"/>
	<path style="fill:#828282;" d="M505.8,173.3H503v7.8h-0.8v-7.8h-2.9v-0.7h6.5L505.8,173.3L505.8,173.3z"/>
</g>
<rect x="60.9" y="279.5" style="fill:none;" width="138.9" height="27.5"/>
<g style="enable-background:new    ;">
	<path style="fill:#828282;" d="M70,291.7h-1l-5.6-5.8v5.8h-0.8v-11.4h0.8v5.5l5.5-5.5H70l-5.5,5.5L70,291.7z"/>
	<path style="fill:#828282;" d="M78.5,287.4c0,1.4-0.3,2.5-1,3.2c-0.7,0.8-1.6,1.2-2.8,1.2c-0.7,0-1.4-0.2-2-0.5
		c-0.6-0.4-1-0.9-1.3-1.5c-0.3-0.7-0.5-1.4-0.5-2.3c0-1.4,0.3-2.5,1-3.2s1.6-1.2,2.8-1.2c1.2,0,2.1,0.4,2.7,1.2
		C78.2,285,78.5,286,78.5,287.4z M71.8,287.4c0,1.2,0.3,2.1,0.8,2.7c0.5,0.7,1.2,1,2.2,1s1.7-0.3,2.2-1s0.8-1.6,0.8-2.7
		c0-1.2-0.3-2.1-0.8-2.7s-1.2-1-2.2-1s-1.7,0.3-2.2,1C72,285.3,71.8,286.2,71.8,287.4z"/>
	<path style="fill:#828282;" d="M84.5,291.8c-1.3,0-2.3-0.5-2.9-1.5h-0.1v0.7c0,0.4,0,0.8,0,1.3v3.2h-0.8v-12.3h0.7l0.1,1.2l0,0
		c0.6-0.9,1.5-1.4,2.8-1.4c1.1,0,2,0.4,2.6,1.1c0.6,0.8,0.9,1.8,0.9,3.3c0,1.4-0.3,2.5-0.9,3.2C86.4,291.4,85.6,291.8,84.5,291.8z
		 M84.5,291.1c0.9,0,1.5-0.3,2-1c0.5-0.6,0.7-1.5,0.7-2.7c0-2.5-0.9-3.7-2.7-3.7c-1,0-1.7,0.3-2.2,0.8s-0.7,1.4-0.7,2.7v0.3
		c0,1.3,0.2,2.3,0.7,2.8C82.7,290.8,83.5,291.1,84.5,291.1z"/>
	<path style="fill:#828282;" d="M92,286.8c1.5,0,2.3-0.5,2.3-1.6c0-0.5-0.2-0.9-0.5-1.2c-0.4-0.3-0.9-0.4-1.5-0.4
		c-0.4,0-0.8,0-1.2,0.1c-0.4,0.1-0.7,0.2-1.2,0.4l-0.3-0.6c0.9-0.4,1.8-0.6,2.6-0.6c0.9,0,1.6,0.2,2.1,0.6s0.7,0.9,0.7,1.6
		c0,1-0.5,1.6-1.5,1.9l0,0c0.6,0.2,1.1,0.4,1.4,0.8s0.4,0.8,0.4,1.4c0,0.8-0.3,1.4-0.9,1.9s-1.4,0.7-2.4,0.7c-0.6,0-1.1-0.1-1.5-0.2
		c-0.5-0.1-0.8-0.2-1.1-0.4v-0.8c0.5,0.3,1,0.4,1.4,0.5s0.8,0.1,1.3,0.1c0.8,0,1.4-0.2,1.8-0.5s0.6-0.8,0.6-1.4s-0.2-1-0.6-1.3
		s-1-0.4-1.9-0.4h-1.2v-0.7H92V286.8z"/>
	<path style="fill:#828282;" d="M98.3,283.2v6.1v1.6l5-7.7h1v8.5h-0.7v-6.1V284l-5,7.7h-1v-8.5H98.3z"/>
	<path style="fill:#828282;" d="M108,283.2v3.7h5.4v-3.7h0.8v8.5h-0.8v-4.1H108v4.1h-0.8v-8.5H108z"/>
	<path style="fill:#828282;" d="M122.1,291.7l-0.2-1.3h-0.1c-0.4,0.5-0.9,0.9-1.3,1.2s-1,0.3-1.6,0.3c-0.8,0-1.5-0.2-1.9-0.6
		c-0.5-0.4-0.7-1-0.7-1.8s0.3-1.5,1-1.9c0.7-0.5,1.7-0.7,3-0.7h1.6v-0.6c0-0.8-0.2-1.4-0.5-1.8s-0.9-0.6-1.6-0.6
		c-0.8,0-1.6,0.2-2.4,0.7l-0.3-0.7c0.9-0.4,1.9-0.7,2.8-0.7s1.6,0.2,2.1,0.7s0.7,1.2,0.7,2.3v5.6h-0.6V291.7z M119,291.1
		c0.9,0,1.6-0.3,2.1-0.8s0.8-1.2,0.8-2.2v-0.8l-1.5,0.1c-1.2,0.1-2,0.2-2.6,0.6c-0.5,0.3-0.8,0.8-0.8,1.5c0,0.5,0.2,0.9,0.5,1.2
		C118,291,118.4,291.1,119,291.1z"/>
</g>
<rect x="60.9" y="328.5" style="fill:none;" width="137" height="27.5"/>
<g style="enable-background:new    ;">
	<path style="fill:#828282;" d="M70.9,343.5h-0.8v-2.9h-8.3v2.9H61v-3.6h0.8c0.8-1.3,1.4-3,2-5.1c0.6-2.1,0.9-3.9,1-5.6h4.9v10.7
		h1.2V343.5z M68.9,339.9V330h-3.4c-0.1,1.6-0.5,3.4-1,5.3s-1.1,3.4-1.8,4.6H68.9z"/>
	<path style="fill:#828282;" d="M79.8,336.4c0,1.4-0.3,2.5-1,3.2c-0.7,0.8-1.6,1.2-2.8,1.2c-0.7,0-1.4-0.2-2-0.5
		c-0.6-0.4-1-0.9-1.3-1.5c-0.3-0.7-0.5-1.4-0.5-2.3c0-1.4,0.3-2.5,1-3.2s1.6-1.2,2.8-1.2c1.2,0,2.1,0.4,2.7,1.2
		C79.5,334,79.8,335,79.8,336.4z M73.1,336.4c0,1.2,0.3,2.1,0.8,2.7c0.5,0.7,1.2,1,2.2,1s1.7-0.3,2.2-1s0.8-1.6,0.8-2.7
		c0-1.2-0.3-2.1-0.8-2.7s-1.2-1-2.2-1s-1.7,0.3-2.2,1C73.3,334.3,73.1,335.2,73.1,336.4z"/>
	<path style="fill:#828282;" d="M85.5,340.8c-1.2,0-2.2-0.4-2.9-1.1s-1-1.8-1-3.2c0-1.4,0.4-2.5,1.1-3.3s1.7-1.2,2.9-1.2
		c0.7,0,1.4,0.1,2.1,0.4l-0.2,0.7c-0.7-0.2-1.4-0.4-1.9-0.4c-1,0-1.8,0.3-2.4,1c-0.5,0.6-0.8,1.6-0.8,2.8c0,1.1,0.3,2,0.8,2.7
		c0.5,0.6,1.3,1,2.3,1c0.8,0,1.5-0.1,2.1-0.4v0.7C87.1,340.7,86.4,340.8,85.5,340.8z"/>
	<path style="fill:#828282;" d="M95.1,332.8h-2.8v7.8h-0.8v-7.8h-2.9v-0.7h6.5C95.1,332.1,95.1,332.8,95.1,332.8z"/>
	<path style="fill:#828282;" d="M95.5,332.2h0.8l1.8,4.8c0.5,1.5,0.9,2.5,1,3l0,0c0.2-0.7,0.6-1.7,1.1-3l1.8-4.7h0.8L99,342
		c-0.3,0.8-0.6,1.3-0.8,1.6c-0.2,0.3-0.5,0.5-0.7,0.6c-0.3,0.1-0.6,0.2-1,0.2c-0.3,0-0.6-0.1-1-0.2v-0.7c0.3,0.1,0.6,0.1,1,0.1
		c0.3,0,0.5-0.1,0.7-0.2s0.4-0.3,0.6-0.6c0.2-0.3,0.4-0.7,0.6-1.3c0.2-0.6,0.4-0.9,0.4-1.1L95.5,332.2z"/>
	<path style="fill:#828282;" d="M105,340.7h-0.8v-8.5h6.8v8.5h-0.8v-7.8H105V340.7z"/>
	<path style="fill:#828282;" d="M122.6,332.2h1l-3.8,4.1l4.1,4.4h-1l-4-4.3v4.3H118v-8.5h0.8v4.1L122.6,332.2z"/>
	<path style="fill:#828282;" d="M137.9,340.7h-0.8V330h-6.6v10.7h-0.8v-11.4h8.2L137.9,340.7L137.9,340.7z"/>
	<path style="fill:#828282;" d="M144.5,340.8c-1.3,0-2.3-0.5-2.9-1.5h-0.1v0.7c0,0.4,0,0.8,0,1.3v3.2h-0.8v-12.3h0.7l0.1,1.2l0,0
		c0.6-0.9,1.5-1.4,2.8-1.4c1.1,0,2,0.4,2.6,1.1c0.6,0.8,0.9,1.8,0.9,3.3c0,1.4-0.3,2.5-0.9,3.2C146.5,340.4,145.6,340.8,144.5,340.8
		z M144.5,340.1c0.9,0,1.5-0.3,2-1c0.5-0.6,0.7-1.5,0.7-2.7c0-2.5-0.9-3.7-2.7-3.7c-1,0-1.7,0.3-2.2,0.8s-0.7,1.4-0.7,2.7v0.3
		c0,1.3,0.2,2.3,0.7,2.8C142.8,339.8,143.5,340.1,144.5,340.1z"/>
	<path style="fill:#828282;" d="M157.5,336.4c0,1.4-0.3,2.5-1,3.2c-0.7,0.8-1.6,1.2-2.8,1.2c-0.7,0-1.4-0.2-2-0.5s-1-0.9-1.3-1.5
		s-0.5-1.4-0.5-2.3c0-1.4,0.3-2.5,1-3.2s1.6-1.2,2.8-1.2s2.1,0.4,2.7,1.2C157.1,334,157.5,335,157.5,336.4z M150.8,336.4
		c0,1.2,0.3,2.1,0.8,2.7c0.5,0.7,1.2,1,2.2,1s1.7-0.3,2.2-1s0.8-1.6,0.8-2.7c0-1.2-0.3-2.1-0.8-2.7s-1.2-1-2.2-1s-1.7,0.3-2.2,1
		C151,334.3,150.8,335.2,150.8,336.4z"/>
	<path style="fill:#828282;" d="M163.2,340.8c-1.2,0-2.2-0.4-2.9-1.1c-0.7-0.8-1-1.8-1-3.2c0-1.4,0.3-2.4,1-3.3
		c0.7-0.8,1.6-1.2,2.7-1.2c1,0,1.8,0.3,2.4,1c0.6,0.7,0.9,1.6,0.9,2.8v0.6h-6.1c0,1.2,0.3,2.1,0.8,2.7s1.3,0.9,2.3,0.9
		c0.5,0,0.9,0,1.3-0.1c0.4-0.1,0.8-0.2,1.4-0.4v0.7c-0.5,0.2-0.9,0.4-1.3,0.4C164.2,340.8,163.7,340.8,163.2,340.8z M163,332.7
		c-0.8,0-1.5,0.3-2,0.8s-0.8,1.3-0.9,2.3h5.3c0-1-0.2-1.8-0.6-2.3S163.8,332.7,163,332.7z"/>
	<path style="fill:#828282;" d="M173.2,332.2h1l-3.8,4.1l4.1,4.4h-1l-4-4.3v4.3h-0.8v-8.5h0.8v4.1L173.2,332.2z"/>
	<path style="fill:#828282;" d="M181.3,332.8h-2.8v7.8h-0.8v-7.8h-2.9v-0.7h6.5V332.8z"/>
	<path style="fill:#828282;" d="M181.6,332.2h0.8l1.8,4.8c0.5,1.5,0.9,2.5,1,3l0,0c0.2-0.7,0.6-1.7,1.1-3l1.8-4.7h0.8l-3.8,9.9
		c-0.3,0.8-0.6,1.3-0.8,1.6s-0.5,0.5-0.7,0.6s-0.6,0.2-1,0.2c-0.3,0-0.6-0.1-1-0.2v-0.7c0.3,0.1,0.6,0.1,1,0.1
		c0.3,0,0.5-0.1,0.7-0.2s0.4-0.3,0.6-0.6c0.2-0.3,0.4-0.7,0.6-1.3s0.4-0.9,0.4-1.1L181.6,332.2z"/>
</g>
<rect x="60.9" y="427" style="fill:none;" width="137" height="27.5"/>
<g style="enable-background:new    ;">
	<path style="fill:#828282;" d="M70.7,439.2h-0.8v-10.7h-6.6v10.7h-0.8v-11.4h8.2V439.2z"/>
	<path style="fill:#828282;" d="M77.2,439.3c-1.2,0-2.2-0.4-2.9-1.1c-0.7-0.8-1-1.8-1-3.2c0-1.4,0.3-2.4,1-3.3
		c0.7-0.8,1.6-1.2,2.7-1.2c1,0,1.8,0.3,2.4,1s0.9,1.6,0.9,2.8v0.6h-6.1c0,1.2,0.3,2.1,0.8,2.7s1.3,0.9,2.3,0.9c0.5,0,0.9,0,1.3-0.1
		s0.8-0.2,1.4-0.4v0.7c-0.5,0.2-0.9,0.4-1.3,0.4C78.1,439.3,77.7,439.3,77.2,439.3z M76.9,431.2c-0.8,0-1.5,0.3-2,0.8
		s-0.8,1.3-0.9,2.3h5.3c0-1-0.2-1.8-0.6-2.3S77.7,431.2,76.9,431.2z"/>
	<path style="fill:#828282;" d="M86.2,439.3c-1.3,0-2.3-0.5-2.9-1.5h-0.1v0.7c0,0.4,0,0.8,0,1.3v3.2h-0.8v-12.3h0.7l0.1,1.2l0,0
		c0.6-0.9,1.5-1.4,2.8-1.4c1.1,0,2,0.4,2.6,1.1c0.6,0.8,0.9,1.8,0.9,3.3c0,1.4-0.3,2.5-0.9,3.2C88.1,438.9,87.3,439.3,86.2,439.3z
		 M86.1,438.6c0.9,0,1.5-0.3,2-1c0.5-0.6,0.7-1.5,0.7-2.7c0-2.5-0.9-3.7-2.7-3.7c-1,0-1.7,0.3-2.2,0.8s-0.7,1.4-0.7,2.7v0.3
		c0,1.3,0.2,2.3,0.7,2.8C84.4,438.3,85.1,438.6,86.1,438.6z"/>
	<path style="fill:#828282;" d="M95.5,439.3c-1.2,0-2.2-0.4-2.9-1.1c-0.7-0.8-1-1.8-1-3.2c0-1.4,0.3-2.4,1-3.3
		c0.7-0.8,1.6-1.2,2.7-1.2c1,0,1.8,0.3,2.4,1s0.9,1.6,0.9,2.8v0.6h-6.1c0,1.2,0.3,2.1,0.8,2.7s1.3,0.9,2.3,0.9c0.5,0,0.9,0,1.3-0.1
		s0.8-0.2,1.4-0.4v0.7c-0.5,0.2-0.9,0.4-1.3,0.4C96.4,439.3,96,439.3,95.5,439.3z M95.3,431.2c-0.8,0-1.5,0.3-2,0.8
		s-0.8,1.3-0.9,2.3h5.3c0-1-0.2-1.8-0.6-2.3C96.6,431.5,96,431.2,95.3,431.2z"/>
	<path style="fill:#828282;" d="M101.6,430.7v6.1v1.6l5-7.7h1v8.5h-0.7v-6.1v-1.6l-5,7.7h-1v-8.5H101.6z"/>
	<path style="fill:#828282;" d="M114.4,438.3l0.5-1.4l2.4-6.3h1.1v8.5h-0.7v-7.6c-0.1,0.3-0.2,0.7-0.4,1s-1,2.5-2.6,6.5H114l-2.4-6
		c-0.1-0.2-0.2-0.5-0.3-0.8s-0.2-0.6-0.3-0.9v7.6h-0.7v-8.5h1l2.5,6.3C114.1,437.4,114.3,437.9,114.4,438.3z"/>
	<path style="fill:#828282;" d="M124.7,439.3c-1.2,0-2.2-0.4-2.9-1.1c-0.7-0.8-1-1.8-1-3.2c0-1.4,0.3-2.4,1-3.3
		c0.7-0.8,1.6-1.2,2.7-1.2c1,0,1.8,0.3,2.4,1s0.9,1.6,0.9,2.8v0.6h-6.1c0,1.2,0.3,2.1,0.8,2.7s1.3,0.9,2.3,0.9c0.5,0,0.9,0,1.3-0.1
		s0.8-0.2,1.4-0.4v0.7c-0.5,0.2-0.9,0.4-1.3,0.4C125.6,439.3,125.1,439.3,124.7,439.3z M124.4,431.2c-0.8,0-1.5,0.3-2,0.8
		s-0.8,1.3-0.9,2.3h5.3c0-1-0.2-1.8-0.6-2.3S125.2,431.2,124.4,431.2z"/>
	<path style="fill:#828282;" d="M130.8,430.7v3.7h5.4v-3.7h0.8v8.5h-0.8v-4.1h-5.4v4.1H130v-8.5H130.8z"/>
	<path style="fill:#828282;" d="M146.8,434.9c0,1.4-0.3,2.5-1,3.2c-0.7,0.8-1.6,1.2-2.8,1.2c-0.7,0-1.4-0.2-2-0.5s-1-0.9-1.3-1.5
		s-0.5-1.4-0.5-2.3c0-1.4,0.3-2.5,1-3.2s1.6-1.2,2.8-1.2s2.1,0.4,2.7,1.2C146.5,432.5,146.8,433.5,146.8,434.9z M140.1,434.9
		c0,1.2,0.3,2.1,0.8,2.7c0.5,0.7,1.2,1,2.2,1s1.7-0.3,2.2-1s0.8-1.6,0.8-2.7c0-1.2-0.3-2.1-0.8-2.7s-1.2-1-2.2-1s-1.7,0.3-2.2,1
		C140.4,432.8,140.1,433.7,140.1,434.9z"/>
	<path style="fill:#828282;" d="M155.7,432.7c0,0.5-0.1,1-0.4,1.3s-0.7,0.5-1.3,0.6v0.1c0.7,0.1,1.2,0.3,1.5,0.6
		c0.3,0.3,0.5,0.8,0.5,1.4c0,0.8-0.3,1.4-0.8,1.9c-0.5,0.4-1.3,0.7-2.4,0.7h-3.6v-8.5h3.6c1,0,1.7,0.2,2.2,0.5
		C155.4,431.5,155.7,432,155.7,432.7z M154.9,432.8c0-0.5-0.2-0.8-0.5-1.1s-0.9-0.3-1.6-0.3H150v2.9h2.7c0.8,0,1.4-0.1,1.7-0.4
		C154.7,433.7,154.9,433.3,154.9,432.8z M155.1,436.6c0-1-0.8-1.6-2.4-1.6h-2.8v3.4h2.9C154.3,438.4,155.1,437.8,155.1,436.6z"/>
	<path style="fill:#828282;" d="M163.4,439.2l-0.2-1.3h-0.1c-0.4,0.5-0.9,0.9-1.3,1.2s-1,0.3-1.6,0.3c-0.8,0-1.5-0.2-1.9-0.6
		c-0.5-0.4-0.7-1-0.7-1.8s0.3-1.5,1-1.9c0.7-0.5,1.7-0.7,3-0.7h1.6v-0.6c0-0.8-0.2-1.4-0.5-1.8s-0.9-0.6-1.6-0.6
		c-0.8,0-1.6,0.2-2.4,0.7l-0.3-0.7c0.9-0.4,1.9-0.7,2.8-0.7c0.9,0,1.6,0.2,2.1,0.7s0.7,1.2,0.7,2.3v5.6h-0.6V439.2z M160.2,438.6
		c0.9,0,1.6-0.3,2.1-0.8s0.8-1.2,0.8-2.2v-0.8l-1.5,0.1c-1.2,0.1-2,0.2-2.6,0.6c-0.5,0.3-0.8,0.8-0.8,1.5c0,0.5,0.2,0.9,0.5,1.2
		C159.2,438.5,159.6,438.6,160.2,438.6z"/>
	<path style="fill:#828282;" d="M172.1,431.3h-2.8v7.8h-0.8v-7.8h-2.9v-0.7h6.5V431.3z"/>
	<path style="fill:#828282;" d="M174.6,434.2h3c2,0,3,0.8,3,2.4c0,0.8-0.3,1.4-0.8,1.9c-0.6,0.5-1.4,0.7-2.4,0.7h-3.5v-8.5h0.8v3.5
		H174.6z M174.6,435v3.4h2.9c0.7,0,1.3-0.2,1.7-0.5s0.6-0.8,0.6-1.4s-0.2-1-0.5-1.2c-0.3-0.3-1-0.4-1.8-0.4h-2.9V435z"/>
</g>
<rect x="60.9" y="476.5" style="fill:none;" width="137" height="27.5"/>
<g style="enable-background:new    ;">
	<path style="fill:#828282;" d="M63.1,488.8c-0.6,0-1.1-0.1-1.5-0.2v-0.8c0.4,0.2,0.9,0.3,1.4,0.3c0.4,0,0.7-0.1,1-0.2
		c0.3-0.1,0.5-0.3,0.7-0.6c0.2-0.3,0.5-0.8,0.8-1.4l-4.5-8.6h0.9l3.5,6.7c0.2,0.4,0.3,0.7,0.5,1.1l0,0l0.2-0.5l3.3-7.3h0.9l-3.7,8
		c-0.2,0.5-0.5,1-0.7,1.4s-0.5,0.8-0.7,1.1c-0.3,0.3-0.6,0.6-0.9,0.7C64,488.7,63.6,488.8,63.1,488.8z"/>
	<path style="fill:#828282;" d="M78.7,491.5h-0.8v-2.9h-6.5v2.9h-0.8v-3.6h0.6c0.7-1,1.3-2.1,1.6-3.5c0.4-1.3,0.6-2.7,0.6-4.3h4.1
		v7.8h1.1v3.6H78.7z M76.8,487.9v-7h-2.6c-0.1,2.8-0.8,5.2-2,7H76.8z"/>
	<path style="fill:#828282;" d="M85.6,488.7l-0.2-1.3h-0.1c-0.4,0.5-0.9,0.9-1.3,1.2c-0.5,0.2-1,0.3-1.6,0.3c-0.8,0-1.5-0.2-1.9-0.6
		c-0.5-0.4-0.7-1-0.7-1.8s0.3-1.5,1-1.9c0.7-0.5,1.7-0.7,3-0.7h1.6v-0.6c0-0.8-0.2-1.4-0.5-1.8s-0.9-0.6-1.6-0.6
		c-0.8,0-1.6,0.2-2.4,0.7l-0.3-0.7c0.9-0.4,1.9-0.7,2.8-0.7s1.6,0.2,2.1,0.7s0.7,1.2,0.7,2.3v5.6h-0.6V488.7z M82.5,488.1
		c0.9,0,1.6-0.3,2.1-0.8s0.8-1.2,0.8-2.2v-0.8l-1.5,0.1c-1.2,0.1-2,0.2-2.6,0.6c-0.5,0.3-0.8,0.8-0.8,1.5c0,0.5,0.2,0.9,0.5,1.2
		C81.4,488,81.9,488.1,82.5,488.1z"/>
	<path style="fill:#828282;" d="M94.8,488.7H94v-7.8h-3c-0.2,2.1-0.3,3.6-0.6,4.7c-0.2,1.1-0.5,1.9-0.9,2.4s-0.8,0.8-1.4,0.8
		c-0.2,0-0.4,0-0.5-0.1V488c0.1,0,0.2,0,0.4,0c0.6,0,1.1-0.6,1.4-1.9c0.4-1.2,0.6-3.2,0.8-6h4.5L94.8,488.7L94.8,488.7z"/>
	<path style="fill:#828282;" d="M98.4,480.2v6.1v1.6l5-7.7h1v8.5h-0.7v-6.1V481l-5,7.7h-1v-8.5H98.4z"/>
	<path style="fill:#828282;" d="M112.6,480.8h-2.8v7.8H109v-7.8h-2.9v-0.7h6.5C112.6,480.1,112.6,480.8,112.6,480.8z"/>
	<path style="fill:#828282;" d="M115.2,483.7h3c2,0,3,0.8,3,2.4c0,0.8-0.3,1.4-0.8,1.9c-0.6,0.5-1.4,0.7-2.4,0.7h-3.5v-8.5h0.8
		L115.2,483.7L115.2,483.7z M115.2,484.5v3.4h2.9c0.7,0,1.3-0.2,1.7-0.5s0.6-0.8,0.6-1.4s-0.2-1-0.5-1.2c-0.3-0.3-1-0.4-1.8-0.4
		h-2.9C115.2,484.4,115.2,484.5,115.2,484.5z"/>
	<path style="fill:#828282;" d="M136,488.7h-0.8V478h-6.6v10.7h-0.8v-11.4h8.2L136,488.7L136,488.7z"/>
	<path style="fill:#828282;" d="M142.7,488.8c-1.3,0-2.3-0.5-2.9-1.5h-0.1v0.7c0,0.4,0,0.8,0,1.3v3.2h-0.8v-12.3h0.7l0.1,1.2l0,0
		c0.6-0.9,1.5-1.4,2.8-1.4c1.1,0,2,0.4,2.6,1.1c0.6,0.8,0.9,1.8,0.9,3.3c0,1.4-0.3,2.5-0.9,3.2C144.7,488.4,143.8,488.8,142.7,488.8
		z M142.7,488.1c0.9,0,1.5-0.3,2-1c0.5-0.6,0.7-1.5,0.7-2.7c0-2.5-0.9-3.7-2.7-3.7c-1,0-1.7,0.3-2.2,0.8s-0.7,1.4-0.7,2.7v0.3
		c0,1.3,0.2,2.3,0.7,2.8C141,487.8,141.7,488.1,142.7,488.1z"/>
	<path style="fill:#828282;" d="M155.6,484.4c0,1.4-0.3,2.5-1,3.2c-0.7,0.8-1.6,1.2-2.8,1.2c-0.7,0-1.4-0.2-2-0.5s-1-0.9-1.3-1.5
		s-0.5-1.4-0.5-2.3c0-1.4,0.3-2.5,1-3.2s1.6-1.2,2.8-1.2s2.1,0.4,2.7,1.2C155.3,482,155.6,483,155.6,484.4z M148.9,484.4
		c0,1.2,0.3,2.1,0.8,2.7c0.5,0.7,1.2,1,2.2,1s1.7-0.3,2.2-1s0.8-1.6,0.8-2.7c0-1.2-0.3-2.1-0.8-2.7s-1.2-1-2.2-1s-1.7,0.3-2.2,1
		C149.2,482.3,148.9,483.2,148.9,484.4z"/>
	<path style="fill:#828282;" d="M161.4,488.8c-1.2,0-2.2-0.4-2.9-1.1c-0.7-0.8-1-1.8-1-3.2c0-1.4,0.3-2.4,1-3.3
		c0.7-0.8,1.6-1.2,2.7-1.2c1,0,1.8,0.3,2.4,1c0.6,0.7,0.9,1.6,0.9,2.8v0.6h-6.1c0,1.2,0.3,2.1,0.8,2.7s1.3,0.9,2.3,0.9
		c0.5,0,0.9,0,1.3-0.1c0.4-0.1,0.8-0.2,1.4-0.4v0.7c-0.5,0.2-0.9,0.4-1.3,0.4C162.3,488.8,161.9,488.8,161.4,488.8z M161.2,480.7
		c-0.8,0-1.5,0.3-2,0.8s-0.8,1.3-0.9,2.3h5.3c0-1-0.2-1.8-0.6-2.3S161.9,480.7,161.2,480.7z"/>
	<path style="fill:#828282;" d="M171.4,480.2h1l-3.8,4.1l4.1,4.4h-1l-4-4.3v4.3h-0.8v-8.5h0.8v4.1L171.4,480.2z"/>
	<path style="fill:#828282;" d="M179.5,480.8h-2.8v7.8h-0.8v-7.8H173v-0.7h6.5V480.8z"/>
</g>
<rect x="25.3" y="162.6" style="fill:none;" width="192.9" height="39.4"/>
<g style="enable-background:new    ;">
	<path style="fill:#FFFFFF;" d="M33.9,169.2c1.2,0,2.2,0.2,3,0.6c0.9,0.4,1.6,1.2,2.3,2.2h0.1c-0.1-1.2-0.1-2.5-0.1-3.7v-5.8h1.5
		v23.1h-1l-0.4-2.5h-0.1c-1.2,1.8-3,2.8-5.3,2.8c-2.2,0-3.9-0.7-5.1-2.1c-1.2-1.4-1.8-3.4-1.8-6c0-2.8,0.6-4.9,1.7-6.4
		C30,169.9,31.7,169.2,33.9,169.2z M33.9,170.5c-1.8,0-3.1,0.6-4,1.9c-0.9,1.2-1.3,3-1.3,5.4c0,4.6,1.8,6.9,5.3,6.9
		c1.8,0,3.2-0.5,4-1.6s1.3-2.8,1.3-5.2v-0.3c0-2.5-0.4-4.3-1.3-5.4C37.2,171.1,35.8,170.5,33.9,170.5z"/>
	<path style="fill:#FFFFFF;" d="M52.6,185.9c-2.3,0-4.2-0.7-5.5-2.2c-1.3-1.4-2-3.5-2-6.1s0.6-4.6,1.9-6.2c1.3-1.5,3-2.3,5.1-2.3
		c1.9,0,3.4,0.7,4.5,2s1.6,3.1,1.6,5.4v1.2H46.7c0,2.2,0.5,3.9,1.5,5.1c1,1.2,2.5,1.8,4.4,1.8c0.9,0,1.7-0.1,2.4-0.2
		c0.7-0.1,1.6-0.4,2.6-0.8v1.3c-0.9,0.4-1.8,0.7-2.5,0.8C54.4,185.9,53.5,185.9,52.6,185.9z M52.2,170.5c-1.6,0-2.8,0.5-3.7,1.5
		s-1.5,2.5-1.6,4.4h10c0-1.9-0.4-3.3-1.2-4.4C54.7,171,53.6,170.5,52.2,170.5z"/>
	<path style="fill:#FFFFFF;" d="M72.8,181.4c0,1.4-0.5,2.6-1.6,3.3c-1.1,0.8-2.7,1.2-4.7,1.2c-2.2,0-3.9-0.3-5.1-1v-1.6
		c1.6,0.8,3.3,1.2,5.1,1.2c1.6,0,2.8-0.3,3.6-0.8c0.8-0.5,1.2-1.2,1.2-2.1c0-0.8-0.3-1.5-1-2c-0.7-0.6-1.7-1.1-3.2-1.6
		c-1.6-0.6-2.7-1.1-3.4-1.5s-1.1-0.9-1.5-1.4c-0.3-0.5-0.5-1.2-0.5-1.9c0-1.2,0.5-2.2,1.5-2.9s2.4-1.1,4.2-1.1c1.7,0,3.4,0.3,5,1
		l-0.5,1.3c-1.6-0.7-3-1-4.4-1c-1.3,0-2.4,0.2-3.1,0.7c-0.8,0.4-1.2,1-1.2,1.8s0.3,1.5,0.9,2s1.8,1.1,3.5,1.7c1.5,0.5,2.5,1,3.2,1.4
		s1.2,0.9,1.5,1.4C72.6,180.1,72.8,180.7,72.8,181.4z"/>
	<path style="fill:#FFFFFF;" d="M76.7,165c0-0.9,0.3-1.4,0.9-1.4c0.3,0,0.5,0.1,0.7,0.4c0.2,0.2,0.3,0.6,0.3,1.1
		c0,0.4-0.1,0.8-0.3,1.1c-0.2,0.3-0.4,0.4-0.7,0.4C77,166.5,76.7,166,76.7,165z M78.4,185.6h-1.5v-16.1h1.5V185.6z"/>
	<path style="fill:#FFFFFF;" d="M96.4,169.5v1l-3.3,0.2c0.9,1.1,1.3,2.3,1.3,3.6c0,1.6-0.5,2.8-1.5,3.8s-2.4,1.4-4.2,1.4
		c-0.7,0-1.2,0-1.5-0.1c-0.6,0.3-1,0.7-1.3,1.1c-0.3,0.4-0.5,0.9-0.5,1.3c0,0.5,0.2,0.9,0.6,1.1s1,0.4,2,0.4h2.8
		c1.8,0,3.1,0.4,4,1.1c0.9,0.7,1.4,1.8,1.4,3.1c0,1.7-0.7,3-2.1,3.9s-3.3,1.4-5.9,1.4c-2,0-3.6-0.4-4.7-1.2s-1.7-1.9-1.7-3.3
		c0-1.1,0.3-2,1-2.8c0.7-0.7,1.6-1.2,2.8-1.5c-0.5-0.2-0.9-0.5-1.2-0.9c-0.3-0.4-0.4-0.8-0.4-1.3c0-1.1,0.7-2,2.1-2.8
		c-0.9-0.4-1.7-1-2.2-1.8s-0.8-1.8-0.8-2.8c0-1.6,0.5-2.9,1.5-3.9s2.4-1.5,4.1-1.5c1.1,0,1.9,0.1,2.5,0.3h5.2
		C96.4,169.3,96.4,169.5,96.4,169.5z M83.3,188.4c0,2.2,1.6,3.3,4.9,3.3c4.2,0,6.3-1.3,6.3-4c0-1-0.3-1.7-1-2.1
		c-0.7-0.4-1.7-0.7-3.2-0.7h-2.6C84.8,184.9,83.3,186,83.3,188.4z M84.5,174.5c0,1.2,0.4,2.2,1.1,2.9c0.8,0.7,1.8,1,3,1
		c1.3,0,2.4-0.3,3.1-1s1.1-1.7,1.1-3c0-1.4-0.4-2.4-1.1-3.1c-0.7-0.7-1.8-1-3.1-1c-1.3,0-2.3,0.4-3,1.1
		C84.9,172.2,84.5,173.2,84.5,174.5z"/>
	<path style="fill:#FFFFFF;" d="M110.9,185.6v-10.5c0-1.6-0.3-2.8-1-3.5s-1.7-1.1-3.2-1.1c-1.9,0-3.3,0.5-4.2,1.5s-1.3,2.6-1.3,4.7
		v8.9h-1.5v-16.1h1.2l0.3,2.2h0.1c1-1.7,2.9-2.5,5.6-2.5c3.7,0,5.5,2,5.5,5.9v10.5L110.9,185.6L110.9,185.6z"/>
	<path style="fill:#FFFFFF;" d="M145.6,185.6V175c0-1.6-0.3-2.7-0.9-3.4c-0.6-0.7-1.6-1.1-2.8-1.1c-1.7,0-2.9,0.5-3.7,1.4
		s-1.2,2.3-1.2,4.3v9.4h-1.5v-11c0-2.7-1.2-4.1-3.7-4.1c-1.7,0-2.9,0.5-3.7,1.5s-1.2,2.6-1.2,4.7v8.9h-1.5v-16.1h1.2l0.3,2.2h0.1
		c0.4-0.8,1.1-1.4,1.9-1.9c0.8-0.4,1.7-0.7,2.7-0.7c2.5,0,4.2,1,4.9,2.9h0.1c0.5-0.9,1.2-1.6,2.1-2.1s1.9-0.7,3-0.7
		c1.8,0,3.1,0.5,4,1.4s1.3,2.4,1.3,4.5v10.5L145.6,185.6L145.6,185.6z"/>
	<path style="fill:#FFFFFF;" d="M162.1,185.6l-0.4-2.6h-0.1c-0.8,1-1.6,1.8-2.5,2.2s-1.9,0.6-3,0.6c-1.6,0-2.8-0.4-3.7-1.2
		s-1.3-1.9-1.3-3.4c0-1.6,0.7-2.8,2-3.7s3.2-1.3,5.7-1.4l3.1-0.1v-1.1c0-1.5-0.3-2.7-0.9-3.5c-0.6-0.8-1.6-1.2-3-1.2
		c-1.5,0-3,0.4-4.6,1.2l-0.5-1.3c1.8-0.8,3.5-1.2,5.2-1.2c1.8,0,3.1,0.5,4,1.4s1.3,2.4,1.3,4.3v10.7h-1.3V185.6z M156.1,184.6
		c1.7,0,3.1-0.5,4.1-1.5s1.5-2.3,1.5-4.1v-1.6l-2.8,0.1c-2.3,0.1-3.9,0.5-4.8,1.1c-1,0.6-1.4,1.5-1.4,2.8c0,1,0.3,1.8,0.9,2.4
		C154.1,184.3,155,184.6,156.1,184.6z"/>
	<path style="fill:#FFFFFF;" d="M175.3,185.9c-2.5,0-4.3-0.9-5.4-2.8h-0.1v1.2c0,0.7,0.1,1.5,0.1,2.4v6.1h-1.5v-23.4h1.2l0.3,2.3
		h0.1c1.1-1.7,2.9-2.6,5.3-2.6c2.2,0,3.8,0.7,5,2.1s1.7,3.5,1.7,6.2c0,2.6-0.6,4.7-1.8,6.2S177.3,185.9,175.3,185.9z M175.2,184.6
		c1.7,0,2.9-0.6,3.8-1.8s1.4-2.9,1.4-5.1c0-4.7-1.7-7.1-5.1-7.1c-1.9,0-3.3,0.5-4.1,1.5c-0.9,1-1.3,2.7-1.3,5v0.5
		c0,2.5,0.4,4.3,1.3,5.4C171.9,184.1,173.3,184.6,175.2,184.6z"/>
</g>
<g>
	<circle style="fill:#FFFFFF;" cx="119.8" cy="182" r="2"/>
</g>
<g>
	<circle style="fill:#FFFFFF;" cx="119.8" cy="174.5" r="2"/>
</g>
<g>
	<circle style="fill:#FFFFFF;" cx="18" cy="182" r="2"/>
</g>
<g>
	<circle style="fill:#FFFFFF;" cx="18" cy="174.5" r="2"/>
</g>
<g>
	
		<line style="fill:none;stroke:#828282;stroke-linecap:round;stroke-linejoin:round;stroke-miterlimit:10;" x1="32.4" y1="489.1" x2="16.9" y2="473.6"/>
	
		<line style="fill:none;stroke:#828282;stroke-linecap:round;stroke-linejoin:round;stroke-miterlimit:10;" x1="32.4" y1="472.9" x2="16.9" y2="488.4"/>
</g>
<g>
	<g>
		<path style="fill:none;stroke:#828282;stroke-linecap:round;stroke-linejoin:round;stroke-miterlimit:10;" d="M36,424.6
			c-1.2-1.2-3.1-1.2-4.2,0l-10.1,10.1c-1.2,1.2-2.7,3.3-3.5,4.8l-2.3,4.4c-0.8,1.5-0.2,2,1.3,1.3l4.4-2.3c1.5-0.8,3.6-2.3,4.8-3.5
			l10.1-10.1c1.2-1.2,1.2-3.1,0-4.2L36,424.6z"/>
	</g>
	
		<line style="fill:none;stroke:#828282;stroke-linecap:round;stroke-linejoin:round;stroke-miterlimit:10;" x1="30.5" y1="425.8" x2="35.2" y2="430.5"/>
	
		<line style="fill:none;stroke:#828282;stroke-linecap:round;stroke-linejoin:round;stroke-miterlimit:10;" x1="18.7" y1="439.3" x2="21.7" y2="442.3"/>
</g>
<g>
	<g>
		<polyline style="fill:#FFFFFF;stroke:#69BFFF;stroke-linecap:round;stroke-linejoin:round;stroke-miterlimit:10;" points="
			483.2,230 483.2,227.5 492.2,227.5 492.2,230 		"/>
		<path style="fill:#69BFFF;stroke:#69BFFF;stroke-linecap:round;stroke-linejoin:round;stroke-miterlimit:10;" d="M502.3,246.5
			h-16.1c-1.7,0-3-1.4-3-3.1v-13.6v0.7h19c1.7,0,2.9,0.6,2.9,2.2v10.7C505.2,245.1,503.9,246.5,502.3,246.5z"/>
		<path style="fill:#69BFFF;stroke:#69BFFF;stroke-linecap:round;stroke-linejoin:round;stroke-miterlimit:10;" d="M564.2,248.5
			c-1.4,0-3-2.1-3-3.5v-13.4l5-4.1h8.5c1.4,0,2.5,0.4,2.5,1.8V245c0,1.4-1,3.5-2.5,3.5H564.2z"/>
		
			<line style="fill:none;stroke:#FFFFFF;stroke-linecap:round;stroke-linejoin:round;stroke-miterlimit:10;" x1="494.2" y1="233" x2="494.2" y2="243"/>
		
			<line style="fill:none;stroke:#FFFFFF;stroke-linecap:round;stroke-linejoin:round;stroke-miterlimit:10;" x1="489.7" y1="238.5" x2="498.7" y2="238.5"/>
		<path style="fill:#FFFFFF;" d="M566.7,227v2.9c0,1.1-0.5,2.1-1.6,2.1h-3.4"/>
		
			<line style="fill:none;stroke:#FFFFFF;stroke-linecap:round;stroke-linejoin:round;stroke-miterlimit:10;" x1="569.2" y1="233" x2="569.2" y2="243"/>
		
			<line style="fill:none;stroke:#FFFFFF;stroke-linecap:round;stroke-linejoin:round;stroke-miterlimit:10;" x1="565.7" y1="238.5" x2="574.7" y2="238.5"/>
	</g>
</g>
<rect x="245.5" y="227.7" style="fill:none;" width="216.3" height="57.2"/>
<g>
	<g>
		<rect x="1241.4" y="170" style="fill:none;" width="214.6" height="52.2"/>
		<g style="enable-background:new    ;">
			<path style="fill:#848484;" d="M1205.9,173.5c0.6,0,1.1,0.1,1.6,0.3c0.4,0.2,0.8,0.6,1.2,1.1l0,0c0-0.7,0-1.3,0-1.9v-3h0.8v12.2
				h-0.5l-0.2-1.3h-0.1c-0.6,1-1.6,1.5-2.8,1.5c-1.2,0-2.1-0.4-2.7-1.1c-0.6-0.7-0.9-1.8-0.9-3.2c0-1.5,0.3-2.6,0.9-3.4
				C1203.8,173.9,1204.7,173.5,1205.9,173.5z M1205.9,174.2c-0.9,0-1.6,0.3-2.1,1s-0.7,1.6-0.7,2.8c0,2.4,0.9,3.6,2.8,3.6
				c1,0,1.7-0.3,2.1-0.8c0.4-0.6,0.7-1.5,0.7-2.8v-0.1c0-1.3-0.2-2.3-0.7-2.8C1207.6,174.5,1206.9,174.2,1205.9,174.2z"/>
			<path style="fill:#848484;" d="M1215.8,182.3c-1.2,0-2.2-0.4-2.9-1.1c-0.7-0.8-1-1.8-1-3.2s0.3-2.4,1-3.3
				c0.7-0.8,1.6-1.2,2.7-1.2c1,0,1.8,0.3,2.4,1s0.9,1.6,0.9,2.8v0.6h-6.1c0,1.2,0.3,2.1,0.8,2.7c0.5,0.6,1.3,0.9,2.3,0.9
				c0.5,0,0.9,0,1.3-0.1s0.8-0.2,1.4-0.4v0.7c-0.5,0.2-0.9,0.4-1.3,0.4S1216.2,182.3,1215.8,182.3z M1215.5,174.2
				c-0.8,0-1.5,0.3-2,0.8s-0.8,1.3-0.9,2.3h5.3c0-1-0.2-1.8-0.6-2.3S1216.3,174.2,1215.5,174.2z"/>
			<path style="fill:#848484;" d="M1226.4,179.9c0,0.8-0.3,1.3-0.9,1.8s-1.4,0.6-2.5,0.6s-2-0.2-2.7-0.5V181
				c0.9,0.4,1.8,0.6,2.7,0.6c0.8,0,1.5-0.1,1.9-0.4c0.4-0.3,0.7-0.6,0.7-1.1c0-0.4-0.2-0.8-0.5-1.1s-0.9-0.6-1.7-0.9
				c-0.8-0.3-1.4-0.6-1.8-0.8s-0.6-0.5-0.8-0.8c-0.2-0.3-0.3-0.6-0.3-1c0-0.6,0.3-1.1,0.8-1.5s1.3-0.6,2.2-0.6
				c0.9,0,1.8,0.2,2.6,0.5l-0.3,0.7c-0.8-0.3-1.6-0.5-2.3-0.5c-0.7,0-1.2,0.1-1.6,0.3s-0.6,0.5-0.6,1c0,0.4,0.2,0.8,0.5,1.1
				s0.9,0.6,1.8,0.9c0.8,0.3,1.3,0.5,1.7,0.7c0.3,0.2,0.6,0.5,0.8,0.8C1226.3,179.2,1226.4,179.6,1226.4,179.9z"/>
			<path style="fill:#848484;" d="M1228.5,171.3c0-0.5,0.2-0.8,0.5-0.8c0.2,0,0.3,0.1,0.4,0.2c0.1,0.1,0.1,0.3,0.1,0.6
				c0,0.2,0,0.4-0.1,0.6c-0.1,0.1-0.2,0.2-0.4,0.2C1228.6,172.1,1228.5,171.8,1228.5,171.3z M1229.3,182.2h-0.8v-8.5h0.8V182.2z"/>
			<path style="fill:#848484;" d="M1238.8,173.7v0.5l-1.8,0.1c0.5,0.6,0.7,1.2,0.7,1.9c0,0.8-0.3,1.5-0.8,2s-1.3,0.8-2.2,0.8
				c-0.4,0-0.7,0-0.8,0c-0.3,0.2-0.5,0.4-0.7,0.6c-0.2,0.2-0.2,0.5-0.2,0.7c0,0.3,0.1,0.5,0.3,0.6c0.2,0.1,0.6,0.2,1,0.2h1.5
				c0.9,0,1.6,0.2,2.1,0.6c0.5,0.4,0.7,0.9,0.7,1.7c0,0.9-0.4,1.6-1.1,2.1s-1.8,0.7-3.1,0.7c-1.1,0-1.9-0.2-2.5-0.6s-0.9-1-0.9-1.7
				c0-0.6,0.2-1.1,0.5-1.5c0.4-0.4,0.9-0.6,1.5-0.8c-0.3-0.1-0.5-0.3-0.6-0.5c-0.2-0.2-0.2-0.4-0.2-0.7c0-0.6,0.4-1.1,1.1-1.5
				c-0.5-0.2-0.9-0.5-1.2-1c-0.3-0.4-0.4-0.9-0.4-1.5c0-0.8,0.3-1.5,0.8-2s1.3-0.8,2.2-0.8c0.6,0,1,0.1,1.3,0.2h2.8L1238.8,173.7
				L1238.8,173.7z M1231.9,183.6c0,1.2,0.9,1.8,2.6,1.8c2.2,0,3.3-0.7,3.3-2.1c0-0.5-0.2-0.9-0.5-1.1c-0.3-0.2-0.9-0.3-1.7-0.3h-1.4
				C1232.7,181.8,1231.9,182.4,1231.9,183.6z M1232.6,176.3c0,0.7,0.2,1.2,0.6,1.5s0.9,0.5,1.6,0.5s1.3-0.2,1.6-0.5
				c0.4-0.4,0.6-0.9,0.6-1.6c0-0.7-0.2-1.3-0.6-1.6c-0.4-0.4-0.9-0.5-1.6-0.5s-1.2,0.2-1.6,0.6
				C1232.8,175.1,1232.6,175.6,1232.6,176.3z"/>
			<path style="fill:#848484;" d="M1246.5,182.2v-5.5c0-0.9-0.2-1.5-0.5-1.9s-0.9-0.6-1.7-0.6c-1,0-1.8,0.3-2.2,0.8
				c-0.5,0.5-0.7,1.3-0.7,2.5v4.7h-0.8v-8.5h0.7l0.1,1.2l0,0c0.6-0.9,1.5-1.3,2.9-1.3c1.9,0,2.9,1,2.9,3.1v5.6h-0.7L1246.5,182.2
				L1246.5,182.2z"/>
			<path style="fill:#848484;" d="M1260.6,182.2v-5.6c0-0.8-0.2-1.4-0.5-1.8s-0.8-0.6-1.5-0.6c-0.9,0-1.5,0.2-1.9,0.7
				s-0.6,1.2-0.6,2.3v5h-0.8v-5.8c0-1.4-0.7-2.1-2-2.1c-0.9,0-1.5,0.3-1.9,0.8s-0.6,1.3-0.6,2.5v4.7h-0.8v-8.5h0.6l0.2,1.2l0,0
				c0.2-0.4,0.6-0.7,1-1s0.9-0.3,1.4-0.3c1.3,0,2.2,0.5,2.6,1.5l0,0c0.3-0.5,0.6-0.9,1.1-1.1s1-0.4,1.6-0.4c0.9,0,1.6,0.2,2.1,0.7
				s0.7,1.3,0.7,2.4v5.6h-0.7L1260.6,182.2L1260.6,182.2z"/>
			<path style="fill:#848484;" d="M1269.3,182.2l-0.2-1.3h-0.1c-0.4,0.5-0.9,0.9-1.3,1.2s-1,0.3-1.6,0.3c-0.8,0-1.5-0.2-1.9-0.6
				s-0.7-1-0.7-1.8s0.3-1.5,1-1.9s1.7-0.7,3-0.7h1.6v-0.6c0-0.8-0.2-1.4-0.5-1.8s-0.9-0.6-1.6-0.6c-0.8,0-1.6,0.2-2.4,0.7l-0.3-0.7
				c0.9-0.4,1.9-0.7,2.8-0.7s1.6,0.2,2.1,0.7s0.7,1.2,0.7,2.3v5.6L1269.3,182.2L1269.3,182.2z M1266.1,181.6c0.9,0,1.6-0.3,2.1-0.8
				s0.8-1.2,0.8-2.2v-0.8l-1.5,0.1c-1.2,0.1-2,0.2-2.6,0.6s-0.8,0.8-0.8,1.5c0,0.5,0.2,0.9,0.5,1.2S1265.5,181.6,1266.1,181.6z"/>
			<path style="fill:#848484;" d="M1276.2,182.3c-1.3,0-2.3-0.5-2.9-1.5h-0.1v0.7c0,0.4,0,0.8,0,1.3v3.2h-0.8v-12.3h0.7l0.1,1.2l0,0
				c0.6-0.9,1.5-1.4,2.8-1.4c1.1,0,2,0.4,2.6,1.1s0.9,1.8,0.9,3.3c0,1.4-0.3,2.5-0.9,3.2S1277.3,182.3,1276.2,182.3z M1276.2,181.6
				c0.9,0,1.5-0.3,2-1s0.7-1.5,0.7-2.7c0-2.5-0.9-3.7-2.7-3.7c-1,0-1.7,0.3-2.2,0.8s-0.7,1.4-0.7,2.7v0.3c0,1.3,0.2,2.3,0.7,2.8
				S1275.2,181.6,1276.2,181.6z"/>
			<path style="fill:#848484;" d="M1282,181.6c0-0.5,0.2-0.8,0.6-0.8s0.6,0.3,0.6,0.8s-0.2,0.8-0.6,0.8
				C1282.2,182.3,1282,182.1,1282,181.6z"/>
			<path style="fill:#848484;" d="M1289.3,173.5c0.4,0,0.7,0,1.2,0.1l-0.1,0.7c-0.4-0.1-0.7-0.1-1.1-0.1c-0.7,0-1.3,0.3-1.8,0.9
				s-0.7,1.4-0.7,2.3v4.7h-0.8v-8.5h0.7l0.1,1.5h0.1c0.3-0.6,0.7-1.1,1.1-1.3S1288.7,173.5,1289.3,173.5z"/>
			<path style="fill:#848484;" d="M1292.8,173.7v5.5c0,0.9,0.2,1.5,0.5,1.9s0.9,0.6,1.7,0.6c1,0,1.8-0.3,2.2-0.8s0.7-1.3,0.7-2.5
				v-4.7h0.8v8.5h-0.7l-0.1-1.2l0,0c-0.6,0.9-1.5,1.3-2.9,1.3c-1.9,0-2.9-1-2.9-3.1v-5.5H1292.8z"/>
			<path style="fill:#848484;" d="M1313.5,176.5c0,1.2-0.2,2.1-0.7,2.9s-1.1,1.1-1.9,1.1c-0.5,0-0.8-0.1-1.1-0.4s-0.5-0.7-0.5-1.1
				l0,0c-0.2,0.5-0.5,0.9-1,1.2s-0.9,0.4-1.5,0.4c-0.8,0-1.4-0.3-1.8-0.8s-0.6-1.2-0.6-2.1c0-1.1,0.3-1.9,0.9-2.6s1.4-1,2.5-1
				c0.7,0,1.5,0.1,2.2,0.3l-0.2,3.6v0.2c0,0.5,0.1,0.9,0.3,1.2s0.5,0.4,0.9,0.4c0.5,0,1-0.3,1.3-0.9s0.5-1.4,0.5-2.4
				s-0.2-1.9-0.6-2.7s-1-1.3-1.8-1.8s-1.6-0.6-2.6-0.6c-1.2,0-2.3,0.3-3.2,0.8s-1.6,1.3-2.1,2.2s-0.7,2-0.7,3.3c0,1.7,0.4,3,1.3,3.9
				s2.1,1.4,3.7,1.4c0.5,0,1,0,1.5-0.1s1.1-0.3,1.8-0.5v0.8c-1.1,0.4-2.1,0.6-3.2,0.6c-1.8,0-3.2-0.5-4.3-1.6s-1.5-2.5-1.5-4.4
				c0-1.3,0.3-2.5,0.8-3.6s1.4-1.9,2.4-2.5s2.2-0.9,3.5-0.9c1.1,0,2.1,0.2,3,0.7s1.5,1.1,2,2S1313.5,175.4,1313.5,176.5z
				 M1305.1,177.6c0,0.7,0.1,1.3,0.4,1.7s0.7,0.6,1.4,0.6c1.3,0,2-0.9,2.1-2.7l0.1-2.3c-0.4-0.1-0.9-0.2-1.5-0.2
				c-0.8,0-1.4,0.3-1.9,0.8S1305.1,176.7,1305.1,177.6z"/>
			<path style="fill:#848484;" d="M1322.4,173.7v0.5l-1.8,0.1c0.5,0.6,0.7,1.2,0.7,1.9c0,0.8-0.3,1.5-0.8,2s-1.3,0.8-2.2,0.8
				c-0.4,0-0.7,0-0.8,0c-0.3,0.2-0.5,0.4-0.7,0.6s-0.2,0.5-0.2,0.7c0,0.3,0.1,0.5,0.3,0.6s0.6,0.2,1,0.2h1.5c0.9,0,1.6,0.2,2.1,0.6
				s0.7,0.9,0.7,1.7c0,0.9-0.4,1.6-1.1,2.1s-1.8,0.7-3.1,0.7c-1.1,0-1.9-0.2-2.5-0.6s-0.9-1-0.9-1.7c0-0.6,0.2-1.1,0.5-1.5
				s0.9-0.6,1.5-0.8c-0.3-0.1-0.5-0.3-0.6-0.5s-0.2-0.4-0.2-0.7c0-0.6,0.4-1.1,1.1-1.5c-0.5-0.2-0.9-0.5-1.2-1s-0.4-0.9-0.4-1.5
				c0-0.8,0.3-1.5,0.8-2s1.3-0.8,2.2-0.8c0.6,0,1,0.1,1.3,0.2h2.8L1322.4,173.7L1322.4,173.7z M1315.5,183.6c0,1.2,0.9,1.8,2.6,1.8
				c2.2,0,3.3-0.7,3.3-2.1c0-0.5-0.2-0.9-0.5-1.1s-0.9-0.3-1.7-0.3h-1.4C1316.3,181.8,1315.5,182.4,1315.5,183.6z M1316.2,176.3
				c0,0.7,0.2,1.2,0.6,1.5s0.9,0.5,1.6,0.5s1.3-0.2,1.6-0.5s0.6-0.9,0.6-1.6c0-0.7-0.2-1.3-0.6-1.6s-0.9-0.5-1.6-0.5
				s-1.2,0.2-1.6,0.6S1316.2,175.6,1316.2,176.3z"/>
			<path style="fill:#848484;" d="M1334.7,182.2v-5.6c0-0.8-0.2-1.4-0.5-1.8s-0.8-0.6-1.5-0.6c-0.9,0-1.5,0.2-1.9,0.7
				s-0.6,1.2-0.6,2.3v5h-0.8v-5.8c0-1.4-0.7-2.1-2-2.1c-0.9,0-1.5,0.3-1.9,0.8s-0.6,1.3-0.6,2.5v4.7h-0.8v-8.5h0.6l0.2,1.2l0,0
				c0.2-0.4,0.6-0.7,1-1s0.9-0.3,1.4-0.3c1.3,0,2.2,0.5,2.6,1.5l0,0c0.3-0.5,0.6-0.9,1.1-1.1s1-0.4,1.6-0.4c0.9,0,1.6,0.2,2.1,0.7
				s0.7,1.3,0.7,2.4v5.6h-0.7L1334.7,182.2L1334.7,182.2z"/>
			<path style="fill:#848484;" d="M1343.4,182.2l-0.2-1.3h-0.1c-0.4,0.5-0.9,0.9-1.3,1.2s-1,0.3-1.6,0.3c-0.8,0-1.5-0.2-1.9-0.6
				s-0.7-1-0.7-1.8s0.3-1.5,1-1.9s1.7-0.7,3-0.7h1.6v-0.6c0-0.8-0.2-1.4-0.5-1.8s-0.9-0.6-1.6-0.6c-0.8,0-1.6,0.2-2.4,0.7l-0.3-0.7
				c0.9-0.4,1.9-0.7,2.8-0.7s1.6,0.2,2.1,0.7s0.7,1.2,0.7,2.3v5.6L1343.4,182.2L1343.4,182.2z M1340.3,181.6c0.9,0,1.6-0.3,2.1-0.8
				s0.8-1.2,0.8-2.2v-0.8l-1.5,0.1c-1.2,0.1-2,0.2-2.6,0.6s-0.8,0.8-0.8,1.5c0,0.5,0.2,0.9,0.5,1.2S1339.7,181.6,1340.3,181.6z"/>
			<path style="fill:#848484;" d="M1346.6,171.3c0-0.5,0.2-0.8,0.5-0.8c0.2,0,0.3,0.1,0.4,0.2s0.1,0.3,0.1,0.6c0,0.2,0,0.4-0.1,0.6
				s-0.2,0.2-0.4,0.2C1346.8,172.1,1346.6,171.8,1346.6,171.3z M1347.5,182.2h-0.8v-8.5h0.8V182.2z"/>
			<path style="fill:#848484;" d="M1351.1,182.2h-0.8V170h0.8V182.2z"/>
			<path style="fill:#848484;" d="M1353.8,181.6c0-0.5,0.2-0.8,0.6-0.8s0.6,0.3,0.6,0.8s-0.2,0.8-0.6,0.8
				C1354,182.3,1353.8,182.1,1353.8,181.6z"/>
			<path style="fill:#848484;" d="M1361.2,182.3c-1.2,0-2.2-0.4-2.9-1.1s-1-1.8-1-3.2s0.4-2.5,1.1-3.3s1.7-1.2,2.9-1.2
				c0.7,0,1.4,0.1,2.1,0.4l-0.2,0.7c-0.7-0.2-1.4-0.4-1.9-0.4c-1,0-1.8,0.3-2.4,1s-0.8,1.6-0.8,2.8c0,1.1,0.3,2,0.8,2.7s1.3,1,2.3,1
				c0.8,0,1.5-0.1,2.1-0.4v0.7C1362.7,182.2,1362,182.3,1361.2,182.3z"/>
			<path style="fill:#848484;" d="M1372.4,177.9c0,1.4-0.3,2.5-1,3.2s-1.6,1.2-2.8,1.2c-0.7,0-1.4-0.2-2-0.5s-1-0.9-1.3-1.5
				s-0.5-1.4-0.5-2.3c0-1.4,0.3-2.5,1-3.2s1.6-1.2,2.8-1.2c1.2,0,2.1,0.4,2.7,1.2S1372.4,176.5,1372.4,177.9z M1365.7,177.9
				c0,1.2,0.3,2.1,0.8,2.7s1.2,1,2.2,1s1.7-0.3,2.2-1s0.8-1.6,0.8-2.7c0-1.2-0.3-2.1-0.8-2.7s-1.2-1-2.2-1s-1.7,0.3-2.2,1
				S1365.7,176.7,1365.7,177.9z"/>
			<path style="fill:#848484;" d="M1385.4,182.2v-5.6c0-0.8-0.2-1.4-0.5-1.8s-0.8-0.6-1.5-0.6c-0.9,0-1.5,0.2-1.9,0.7
				s-0.6,1.2-0.6,2.3v5h-0.8v-5.8c0-1.4-0.7-2.1-2-2.1c-0.9,0-1.5,0.3-1.9,0.8s-0.6,1.3-0.6,2.5v4.7h-0.8v-8.5h0.6l0.2,1.2l0,0
				c0.2-0.4,0.6-0.7,1-1s0.9-0.3,1.4-0.3c1.3,0,2.2,0.5,2.6,1.5l0,0c0.3-0.5,0.6-0.9,1.1-1.1s1-0.4,1.6-0.4c0.9,0,1.6,0.2,2.1,0.7
				s0.7,1.3,0.7,2.4v5.6h-0.7L1385.4,182.2L1385.4,182.2z"/>
		</g>
	</g>
	<g>
		<ellipse style="fill:#CA6600;stroke:#FFFFFF;stroke-width:2;stroke-miterlimit:10;" cx="1419.4" cy="175.3" rx="22.6" ry="22.5"/>
		<g>
			<g>
				<path style="fill:#F5E6D2;" d="M1427.4,174.1c0.3-0.4,1.6-0.7,2.1-0.4c0.9,0.5,0.8,1.7,0.6,2.4c-0.2,1-0.7,2.1-1.3,3
					c-0.2,0.3-1.4,1.4-1.8,1.5"/>
			</g>
			<g>
				<path style="fill:#F5E6D2;" d="M1412.4,174c-0.3-0.4-1.5-0.6-1.9-0.3c-0.8,0.5-0.7,1.7-0.5,2.4c0.2,1,0.6,2.1,1.2,3
					c0.2,0.3,1.2,1.1,1.5,1.3"/>
			</g>
			<g>
				<path style="fill:#F5E6D2;" d="M1427.9,175c0,2.2-0.2,6.7-1,8.5c-1.7,3.4-4.1,5.9-7.1,5.9s-5.7-2.5-6.9-6c-0.6-1.8-1-6-1-8.2
					c0-6.5,2.5-12,7.9-12S1427.9,168.5,1427.9,175z"/>
			</g>
			<g>
				<path style="fill:#5E3800;" d="M1422.2,173.4c-0.1,0-0.2-0.1-0.2-0.2c0-0.1,0.1-0.3,0.2-0.3l3.1-0.7c0.1,0,0.3,0.1,0.3,0.2
					c0,0.1-0.1,0.3-0.2,0.3L1422.2,173.4C1422.3,173.4,1422.3,173.4,1422.2,173.4z"/>
			</g>
			<g>
				<path style="fill:#5E3800;" d="M1417.1,173.4L1417.1,173.4l-3.2-0.7c-0.1,0-0.2-0.2-0.2-0.3s0.2-0.2,0.3-0.2l3.1,0.7
					c0.1,0,0.2,0.2,0.2,0.3S1417.2,173.4,1417.1,173.4z"/>
			</g>
			<g>
				<path style="fill:#E3B295;" d="M1419.8,184.8c-0.3,0-1.7-0.1-2.2-0.7l-0.1,0.1c-0.1,0.1-0.2,0.1-0.3,0c-0.1-0.1-0.1-0.2,0-0.3
					l0.3-0.3c0.1-0.1,0.1-0.1,0.2-0.1s0.1,0.1,0.2,0.2c0.1,0.4,1.2,0.6,2,0.7c0.7,0,1.7-0.2,1.8-0.6c0-0.1,0.1-0.1,0.2-0.2
					c0.1,0,0.2,0,0.2,0l0.3,0.2c0.1,0.1,0.1,0.2,0.1,0.3c-0.1,0.1-0.2,0.1-0.3,0.1l-0.1-0.1C1421.4,184.7,1420,184.8,1419.8,184.8z"
					/>
			</g>
			<g>
				<g>
					<path style="fill:#5E3800;" d="M1424.1,177.2c-0.9,0-1.5-0.5-1.8-1.4h-0.4c-0.1,0-0.2-0.1-0.2-0.3c0-0.1,0.1-0.2,0.2-0.2h0.7
						v0.2c0.2,0.8,0.6,1.2,1.4,1.2c0.9,0,1.1-0.6,1.3-1.3l0.1-0.3h0.9c0.1,0,0.2,0.4,0.2,0.5s-0.1,0.5-0.2,0.5h-0.5
						C1425.5,176,1425.2,177.2,1424.1,177.2z"/>
				</g>
			</g>
			<g>
				<g>
					<path style="fill:#5E3800;" d="M1415.3,177.2c-0.9,0-1.5-0.5-1.8-1.4h-0.4c-0.1,0-0.2-0.1-0.2-0.3c0-0.1,0.1-0.2,0.2-0.2h0.7
						v0.2c0.2,0.8,0.6,1.2,1.4,1.2c0.9,0,1.1-0.6,1.3-1.3l0.1-0.3h0.9c0.1,0,0.2,0.4,0.2,0.5s-0.1,0.5-0.2,0.5h-0.5
						C1416.8,176,1416.4,177.2,1415.3,177.2z"/>
				</g>
			</g>
			<g>
				<path style="fill:#5D2C42;" d="M1427.9,175.7c0.2-1.2,2.5-6.3,1.2-9.2c-1.8-4.1-4.3-6.4-9.3-7c-1-0.1-3.1-1.5-3.7-0.6
					c-0.7,1-1,1.8-1.9,2.5c-1.1,0.8-2.3,3-2.9,4.2c-2,3.7,0.6,9.6,0.6,9.8c-0.1-3.1,0.7-5.5,2.3-7.8c1.2-1.8,9.7-1.1,11.1-0.1
					C1428.5,169.6,1427.2,172.7,1427.9,175.7z"/>
			</g>
			<g>
				<path style="fill:#5D2C42;" d="M1422.7,189.4c-1.2,1.4-5.2,1.2-6.2,0c-0.6-0.6-0.7-1.3-1-2.1c2.6,1.1,5.6,1.5,8.4,0
					C1423.8,187.4,1423.2,188.8,1422.7,189.4z"/>
			</g>
		</g>
	</g>
	<g>
		<g>
			<g>
				<path style="fill:#848484;" d="M1184,179v-0.4c0-1.1,0.2-2,0.5-2.7s1-1.5,1.9-2.3l1.2-1.1c0.7-0.6,1.1-1.1,1.4-1.7
					c0.3-0.5,0.4-1.2,0.4-1.9c0-1.2-0.4-2.1-1.1-2.8c-0.8-0.7-1.8-1-3-1c-0.7,0-1.4,0.1-2,0.2c-0.6,0.2-1.3,0.4-2,0.8l-0.5-1.1
					c1-0.4,1.8-0.7,2.5-0.9c0.7-0.1,1.4-0.2,2.1-0.2c1.7,0,3,0.4,3.9,1.3c1,0.9,1.4,2.1,1.4,3.7c0,0.6-0.1,1.2-0.2,1.6
					s-0.4,0.9-0.7,1.3c-0.3,0.4-0.7,0.8-1.1,1.1c-0.4,0.4-0.9,0.8-1.4,1.2c-0.6,0.5-1,0.9-1.3,1.3c-0.3,0.4-0.6,0.8-0.7,1.3
					c-0.1,0.4-0.3,1.1-0.3,2v0.1h-1L1184,179L1184,179z M1183.5,183.2c0-0.9,0.4-1.3,1.1-1.3s1.1,0.4,1.1,1.3c0,0.9-0.4,1.3-1.1,1.3
					C1183.9,184.6,1183.5,184.1,1183.5,183.2z"/>
			</g>
		</g>
	</g>
</g>
<g>
	<path style="fill:#69BFFF;" d="M258,247.2l-6.4-15.8h-0.1c0.1,1,0.1,2,0.1,3v12.8h-1.1v-17.1h1.9l6.1,15.1h0.1l6.1-15.1h1.8v17.1
		h-1.2v-13c0-0.9,0-1.8,0.1-2.8h-0.1l-6.4,15.8H258z"/>
	<path style="fill:#69BFFF;" d="M281.4,240.9c0,2.1-0.5,3.7-1.5,4.9s-2.4,1.8-4.2,1.8c-1.1,0-2.1-0.3-3-0.8s-1.5-1.3-2-2.3
		s-0.7-2.2-0.7-3.5c0-2.1,0.5-3.7,1.5-4.9s2.4-1.7,4.1-1.7c1.8,0,3.1,0.6,4.1,1.8S281.4,238.8,281.4,240.9z M271.3,240.9
		c0,1.8,0.4,3.1,1.2,4.1s1.9,1.5,3.3,1.5s2.5-0.5,3.3-1.5s1.2-2.3,1.2-4.1s-0.4-3.1-1.2-4.1s-1.9-1.5-3.3-1.5s-2.5,0.5-3.3,1.4
		S271.3,239.1,271.3,240.9z"/>
	<path style="fill:#69BFFF;" d="M286,234.5v9.2l-0.1,2.4l7.6-11.6h1.5v12.7h-1.1V238v-2.5l-7.6,11.6h-1.5v-12.7h1.2V234.5z
		 M290,232.7c-1.2,0-2.1-0.3-2.7-0.8s-1-1.4-1.1-2.5h1c0.1,0.9,0.4,1.5,0.8,1.8s1.1,0.5,1.9,0.5c0.9,0,1.5-0.2,1.9-0.6
		s0.7-1,0.8-1.8h1C293.6,231.6,292.3,232.7,290,232.7z"/>
	<path style="fill:#69BFFF;" d="M318.1,247.2h-1.2v-16H307v16h-1.2v-17.1h12.3L318.1,247.2L318.1,247.2z"/>
	<path style="fill:#69BFFF;" d="M328.1,247.5c-2,0-3.4-0.7-4.3-2.2h-0.1v1c0,0.6,0,1.2,0,1.9v4.9h-1.2v-18.5h1l0.2,1.8h0.1
		c0.9-1.4,2.3-2.1,4.2-2.1c1.7,0,3,0.6,3.9,1.7s1.4,2.8,1.4,4.9c0,2.1-0.5,3.7-1.4,4.9S329.8,247.5,328.1,247.5z M328.1,246.4
		c1.3,0,2.3-0.5,3-1.5s1.1-2.3,1.1-4.1c0-3.7-1.4-5.6-4.1-5.6c-1.5,0-2.6,0.4-3.3,1.2s-1,2.1-1,4v0.4c0,2,0.3,3.4,1,4.3
		S326.6,246.4,328.1,246.4z"/>
	<path style="fill:#69BFFF;" d="M347.5,240.9c0,2.1-0.5,3.7-1.5,4.9s-2.4,1.8-4.2,1.8c-1.1,0-2.1-0.3-3-0.8s-1.5-1.3-2-2.3
		s-0.7-2.2-0.7-3.5c0-2.1,0.5-3.7,1.5-4.9s2.4-1.7,4.1-1.7c1.8,0,3.1,0.6,4.1,1.8S347.5,238.8,347.5,240.9z M337.4,240.9
		c0,1.8,0.4,3.1,1.2,4.1s1.9,1.5,3.3,1.5s2.5-0.5,3.3-1.5s1.2-2.3,1.2-4.1s-0.4-3.1-1.2-4.1s-1.9-1.5-3.3-1.5s-2.5,0.5-3.3,1.4
		S337.4,239.1,337.4,240.9z"/>
	<path style="fill:#69BFFF;" d="M356.2,247.5c-1.9,0-3.3-0.6-4.3-1.7s-1.6-2.7-1.6-4.8c0-2,0.5-3.7,1.5-4.9s2.3-1.8,4-1.8
		c1.5,0,2.7,0.5,3.6,1.6s1.3,2.5,1.3,4.3v0.9h-9.2c0,1.8,0.4,3.1,1.2,4s1.9,1.4,3.4,1.4c0.7,0,1.4-0.1,1.9-0.2s1.2-0.3,2.1-0.7v1.1
		c-0.7,0.3-1.4,0.5-2,0.6S356.9,247.5,356.2,247.5z M355.8,235.3c-1.2,0-2.2,0.4-3,1.2s-1.2,2-1.3,3.5h7.9c0-1.5-0.3-2.6-1-3.5
		S357,235.3,355.8,235.3z"/>
	<path style="fill:#69BFFF;" d="M371.1,234.5h1.4l-5.7,6.2l6.1,6.6h-1.6l-6-6.5v6.5h-1.2v-12.7h1.2v6.2L371.1,234.5z"/>
	<path style="fill:#69BFFF;" d="M383.3,235.5h-4.2v11.7H378v-11.7h-4.3v-1h9.7v1H383.3z"/>
</g>
</svg>
