<?xml version="1.0" encoding="utf-8"?>
<!-- Generator: Adobe Illustrator 19.2.1, SVG Export Plug-In . SVG Version: 6.00 Build 0)  -->
<svg version="1.1" id="Слой_1" xmlns="http://www.w3.org/2000/svg" xmlns:xlink="http://www.w3.org/1999/xlink" x="0px" y="0px"
	 viewBox="0 0 370 230" style="enable-background:new 0 0 370 230;" xml:space="preserve">
<polygon style="fill:#EAA92A;stroke:#FFFFFF;stroke-miterlimit:10;" points="325,101.6 316,92.6 307,101.6 64.8,101.6 64.8,214.6 
	345.8,214.6 345.8,101.6 "/>
<g>
	<rect x="128.9" y="122.1" style="fill:none;" width="144" height="29"/>
	<g style="enable-background:new    ;">
		<path style="fill:#FFFFFF;" d="M152.3,136.5h-1v-6.7h-7.9v6.7h-0.9v-13.6h0.9v6h7.9v-6h1V136.5z"/>
		<path style="fill:#FFFFFF;" d="M164.2,131.5c0,1.6-0.4,2.9-1.2,3.9c-0.8,0.9-1.9,1.4-3.3,1.4c-0.9,0-1.7-0.2-2.3-0.6
			c-0.7-0.4-1.2-1-1.5-1.8c-0.4-0.8-0.5-1.7-0.5-2.8c0-1.6,0.4-2.9,1.2-3.8c0.8-0.9,1.9-1.4,3.3-1.4s2.5,0.5,3.3,1.4
			C163.8,128.6,164.2,129.9,164.2,131.5z M156.3,131.5c0,1.4,0.3,2.5,0.9,3.2c0.6,0.7,1.5,1.2,2.6,1.2s2-0.4,2.6-1.2
			c0.6-0.8,0.9-1.9,0.9-3.2c0-1.4-0.3-2.5-0.9-3.2c-0.6-0.7-1.5-1.1-2.6-1.1s-2,0.4-2.6,1.1C156.6,129,156.3,130.1,156.3,131.5z"/>
		<path style="fill:#FFFFFF;" d="M174.7,128.9c0,0.6-0.2,1.1-0.5,1.5s-0.8,0.6-1.5,0.8v0.1c0.8,0.1,1.4,0.3,1.8,0.7s0.5,0.9,0.5,1.6
			c0,1-0.3,1.7-1,2.2c-0.6,0.5-1.6,0.8-2.8,0.8h-4.3v-10.1h4.3c1.2,0,2,0.2,2.6,0.6C174.5,127.5,174.7,128.1,174.7,128.9z
			 M173.8,129c0-0.6-0.2-1-0.6-1.3c-0.4-0.3-1.1-0.4-1.9-0.4H168v3.5h3.2c0.9,0,1.6-0.1,2-0.4C173.6,130.1,173.8,129.6,173.8,129z
			 M174.1,133.5c0-1.2-0.9-1.9-2.8-1.9H168v4h3.4C173.2,135.7,174.1,134.9,174.1,133.5z"/>
		<path style="fill:#FFFFFF;" d="M183.9,136.5l-0.2-1.6h-0.1c-0.5,0.6-1,1.1-1.6,1.4c-0.5,0.3-1.2,0.4-1.9,0.4c-1,0-1.8-0.3-2.3-0.8
			s-0.8-1.2-0.8-2.1c0-1,0.4-1.7,1.2-2.3c0.8-0.5,2-0.8,3.6-0.9l1.9-0.1v-0.7c0-1-0.2-1.7-0.6-2.2c-0.4-0.5-1-0.7-1.9-0.7
			s-1.9,0.3-2.9,0.8l-0.3-0.8c1.1-0.5,2.2-0.8,3.3-0.8c1.1,0,1.9,0.3,2.5,0.9c0.5,0.6,0.8,1.5,0.8,2.7v6.7L183.9,136.5L183.9,136.5z
			 M180.2,135.9c1.1,0,1.9-0.3,2.5-0.9c0.6-0.6,0.9-1.5,0.9-2.6v-1l-1.8,0.1c-1.4,0.1-2.4,0.3-3,0.7s-0.9,1-0.9,1.7
			c0,0.6,0.2,1.1,0.6,1.5C178.9,135.7,179.5,135.9,180.2,135.9z"/>
		<path style="fill:#FFFFFF;" d="M187.7,136.5h-1.2l3-4.4c-0.9-0.2-1.6-0.5-2-1s-0.6-1.1-0.6-1.8c0-0.9,0.3-1.6,0.9-2.2
			c0.6-0.5,1.4-0.8,2.5-0.8h4.2v10.1h-0.9v-4.2h-3.1L187.7,136.5z M187.9,129.4c0,0.7,0.2,1.2,0.7,1.5c0.4,0.3,1.1,0.5,2,0.5h3v-4.1
			h-3.3c-0.8,0-1.4,0.2-1.8,0.5C188.1,128.2,187.9,128.7,187.9,129.4z"/>
		<path style="fill:#FFFFFF;" d="M204.7,130.8c1.8,0,2.7-0.6,2.7-1.9c0-0.6-0.2-1.1-0.6-1.4s-1-0.5-1.8-0.5c-0.5,0-1,0.1-1.4,0.2
			s-0.9,0.3-1.4,0.5l-0.3-0.8c1.1-0.5,2.1-0.7,3.1-0.7c1.1,0,1.9,0.2,2.5,0.7s0.9,1.1,0.9,1.9c0,1.2-0.6,1.9-1.8,2.2v0.1
			c0.7,0.2,1.3,0.5,1.6,0.9c0.3,0.4,0.5,1,0.5,1.6c0,0.9-0.3,1.7-1,2.2s-1.6,0.8-2.8,0.8c-0.7,0-1.3-0.1-1.8-0.2s-1-0.3-1.3-0.5
			v-0.8c0.6,0.3,1.2,0.5,1.7,0.6c0.5,0.1,1,0.2,1.5,0.2c0.9,0,1.6-0.2,2.1-0.6s0.8-0.9,0.8-1.7c0-0.7-0.2-1.2-0.7-1.5
			s-1.2-0.5-2.2-0.5h-1.4v-0.8H204.7z"/>
		<path style="fill:#FFFFFF;" d="M217.5,136.5l-0.2-1.6h-0.1c-0.5,0.6-1,1.1-1.6,1.4c-0.5,0.3-1.2,0.4-1.9,0.4c-1,0-1.8-0.3-2.3-0.8
			c-0.6-0.5-0.8-1.2-0.8-2.1c0-1,0.4-1.7,1.2-2.3s2-0.8,3.6-0.9l1.9-0.1v-0.7c0-1-0.2-1.7-0.6-2.2c-0.4-0.5-1-0.7-1.9-0.7
			s-1.9,0.3-2.9,0.8l-0.3-0.8c1.1-0.5,2.2-0.8,3.3-0.8c1.1,0,1.9,0.3,2.5,0.9c0.5,0.6,0.8,1.5,0.8,2.7v6.7L217.5,136.5L217.5,136.5z
			 M213.8,135.9c1.1,0,1.9-0.3,2.5-0.9c0.6-0.6,0.9-1.5,0.9-2.6v-1l-1.8,0.1c-1.4,0.1-2.4,0.3-3,0.7s-0.9,1-0.9,1.7
			c0,0.6,0.2,1.1,0.6,1.5C212.6,135.7,213.1,135.9,213.8,135.9z"/>
		<path style="fill:#FFFFFF;" d="M229.7,140h-0.9v-3.4h-7.7v3.4h-0.9v-4.3h0.7c0.8-1.2,1.5-2.6,1.9-4.1s0.7-3.3,0.7-5.1h4.9v9.2h1.3
			V140z M227.4,135.7v-8.4h-3.1c-0.1,3.3-1,6.1-2.4,8.4H227.4z"/>
		<path style="fill:#FFFFFF;" d="M238,136.5l-0.2-1.6h-0.1c-0.5,0.6-1,1.1-1.6,1.4c-0.5,0.3-1.2,0.4-1.9,0.4c-1,0-1.8-0.3-2.3-0.8
			s-0.8-1.2-0.8-2.1c0-1,0.4-1.7,1.2-2.3c0.8-0.5,2-0.8,3.6-0.9l1.9-0.1v-0.7c0-1-0.2-1.7-0.6-2.2c-0.4-0.5-1-0.7-1.9-0.7
			s-1.9,0.3-2.9,0.8l-0.3-0.8c1.1-0.5,2.2-0.8,3.3-0.8c1.1,0,1.9,0.3,2.5,0.9c0.5,0.6,0.8,1.5,0.8,2.7v6.7L238,136.5L238,136.5z
			 M234.3,135.9c1.1,0,1.9-0.3,2.5-0.9c0.6-0.6,0.9-1.5,0.9-2.6v-1l-1.8,0.1c-1.4,0.1-2.4,0.3-3,0.7s-0.9,1-0.9,1.7
			c0,0.6,0.2,1.1,0.6,1.5C233,135.7,233.5,135.9,234.3,135.9z"/>
		<path style="fill:#FFFFFF;" d="M242.6,126.5v3.4c0,0.9,0.2,1.5,0.6,1.8s1.1,0.6,1.9,0.6c0.6,0,1.2-0.1,1.7-0.3
			c0.5-0.2,1.1-0.6,1.7-1v-4.4h0.9v10.1h-0.9v-4.8c-0.6,0.5-1.2,0.8-1.8,1c-0.6,0.2-1.2,0.3-1.9,0.3c-1,0-1.8-0.3-2.3-0.8
			s-0.8-1.3-0.8-2.3v-3.5L242.6,126.5L242.6,126.5z"/>
		<path style="fill:#FFFFFF;" d="M259.1,136.5l-0.2-1.6h-0.1c-0.5,0.6-1,1.1-1.6,1.4c-0.5,0.3-1.2,0.4-1.9,0.4c-1,0-1.8-0.3-2.3-0.8
			c-0.6-0.5-0.8-1.2-0.8-2.1c0-1,0.4-1.7,1.2-2.3s2-0.8,3.6-0.9l1.9-0.1v-0.7c0-1-0.2-1.7-0.6-2.2c-0.4-0.5-1-0.7-1.9-0.7
			s-1.9,0.3-2.9,0.8l-0.3-0.8c1.1-0.5,2.2-0.8,3.3-0.8c1.1,0,1.9,0.3,2.5,0.9c0.5,0.6,0.8,1.5,0.8,2.7v6.7L259.1,136.5L259.1,136.5z
			 M255.3,135.9c1.1,0,1.9-0.3,2.5-0.9c0.6-0.6,0.9-1.5,0.9-2.6v-1l-1.8,0.1c-1.4,0.1-2.4,0.3-3,0.7s-0.9,1-0.9,1.7
			c0,0.6,0.2,1.1,0.6,1.5C254.1,135.7,254.6,135.9,255.3,135.9z"/>
	</g>
</g>
<rect x="75.9" y="157.1" style="fill:none;" width="250" height="15"/>
<path style="fill:#FFFFFF;" d="M109.4,159.7c0,1.1-0.6,1.8-1.8,2.1l0,0c1.3,0.3,1.9,1,1.9,2.1c0,0.8-0.3,1.4-0.8,1.8
	s-1.3,0.7-2.3,0.7c-0.9,0-1.7-0.2-2.4-0.5v-0.6c0.4,0.2,0.8,0.3,1.2,0.4s0.8,0.1,1.2,0.1c0.8,0,1.4-0.2,1.8-0.5s0.7-0.8,0.7-1.4
	c0-0.6-0.2-1-0.7-1.3s-1.1-0.5-2-0.5h-1.3v-0.6h1.3c0.8,0,1.4-0.2,1.8-0.5s0.6-0.8,0.6-1.3s-0.2-0.9-0.5-1.2s-0.8-0.4-1.4-0.4
	c-0.4,0-0.8,0.1-1.2,0.2s-0.8,0.3-1.2,0.6l-0.3-0.5c0.8-0.6,1.7-0.9,2.7-0.9c0.8,0,1.4,0.2,1.9,0.6S109.4,159,109.4,159.7z"/>
<path style="fill:#FFFFFF;" d="M115.2,166.2l-0.1-1l0,0c-0.3,0.4-0.6,0.7-1,0.9s-0.7,0.3-1.2,0.3c-0.6,0-1.1-0.2-1.5-0.5
	s-0.5-0.8-0.5-1.3c0-0.6,0.3-1.1,0.8-1.4s1.3-0.5,2.2-0.5h1.2v-0.6c0-0.6-0.1-1.1-0.4-1.4s-0.6-0.5-1.2-0.5c-0.6,0-1.2,0.2-1.8,0.5
	l-0.2-0.5c0.7-0.3,1.4-0.5,2.1-0.5c0.7,0,1.2,0.2,1.6,0.5s0.5,0.9,0.5,1.7v4.2h-0.5V166.2z M112.9,165.8c0.7,0,1.2-0.2,1.6-0.6
	s0.6-0.9,0.6-1.6V163H114c-0.9,0-1.5,0.2-1.9,0.4s-0.6,0.6-0.6,1.1c0,0.4,0.1,0.7,0.4,0.9S112.4,165.8,112.9,165.8z"/>
<path style="fill:#FFFFFF;" d="M122.9,168.4h-0.6v-2.2h-4.9v2.2h-0.6v-2.7h0.4c0.5-0.7,0.9-1.6,1.2-2.6s0.4-2.1,0.5-3.2h3.1v5.8h0.8
	v2.7H122.9z M121.5,165.7v-5.3h-2c-0.1,2.1-0.6,3.9-1.5,5.3H121.5z"/>
<path style="fill:#FFFFFF;" d="M128.1,166.2l-0.1-1l0,0c-0.3,0.4-0.6,0.7-1,0.9s-0.7,0.3-1.2,0.3c-0.6,0-1.1-0.2-1.5-0.5
	s-0.5-0.8-0.5-1.3c0-0.6,0.3-1.1,0.8-1.4s1.3-0.5,2.2-0.5h1.2v-0.6c0-0.6-0.1-1.1-0.4-1.4s-0.6-0.5-1.2-0.5c-0.6,0-1.2,0.2-1.8,0.5
	l-0.2-0.5c0.7-0.3,1.4-0.5,2.1-0.5c0.7,0,1.2,0.2,1.6,0.5s0.5,0.9,0.5,1.7v4.2h-0.5V166.2z M125.8,165.8c0.7,0,1.2-0.2,1.6-0.6
	s0.6-0.9,0.6-1.6V163h-1.1c-0.9,0-1.5,0.2-1.9,0.4s-0.6,0.6-0.6,1.1c0,0.4,0.1,0.7,0.4,0.9S125.3,165.8,125.8,165.8z"/>
<path style="fill:#FFFFFF;" d="M131.1,159.9v2.1c0,0.5,0.1,0.9,0.4,1.2s0.7,0.4,1.2,0.4c0.4,0,0.7-0.1,1.1-0.2s0.7-0.4,1.1-0.7v-2.8
	h0.6v6.4h-0.6v-3c-0.4,0.3-0.8,0.5-1.2,0.6s-0.8,0.2-1.2,0.2c-0.7,0-1.1-0.2-1.5-0.5s-0.5-0.8-0.5-1.5v-2.2H131.1z"/>
<path style="fill:#FFFFFF;" d="M141.4,166.2l-0.1-1l0,0c-0.3,0.4-0.6,0.7-1,0.9s-0.7,0.3-1.2,0.3c-0.6,0-1.1-0.2-1.5-0.5
	s-0.5-0.8-0.5-1.3c0-0.6,0.3-1.1,0.8-1.4s1.3-0.5,2.2-0.5h1.2v-0.6c0-0.6-0.1-1.1-0.4-1.4s-0.6-0.5-1.2-0.5c-0.6,0-1.2,0.2-1.8,0.5
	l-0.2-0.5c0.7-0.3,1.4-0.5,2.1-0.5c0.7,0,1.2,0.2,1.6,0.5s0.5,0.9,0.5,1.7v4.2h-0.5V166.2z M139.1,165.8c0.7,0,1.2-0.2,1.6-0.6
	s0.6-0.9,0.6-1.6V163h-1.1c-0.9,0-1.5,0.2-1.9,0.4s-0.6,0.6-0.6,1.1c0,0.4,0.1,0.7,0.4,0.9S138.6,165.8,139.1,165.8z"/>
<path style="fill:#FFFFFF;" d="M153.1,166.2h-0.6l-4.7-7.6l0,0c0,0.9,0.1,1.6,0.1,2v5.6h-0.6v-8.6h0.6l4.7,7.6l0,0c0-0.9,0-1.6,0-2
	v-5.6h0.6v8.6H153.1z M157.4,162.6c0,0.6-0.2,1.1-0.5,1.5s-0.7,0.5-1.3,0.5c-0.5,0-0.9-0.2-1.2-0.5s-0.5-0.8-0.5-1.5
	c0-0.6,0.2-1.1,0.5-1.5s0.7-0.5,1.3-0.5c0.5,0,1,0.2,1.3,0.5S157.4,162,157.4,162.6z M154.3,166.2v-0.5h2.8v0.5H154.3z M154.6,162.6
	c0,0.5,0.1,0.8,0.3,1.1s0.5,0.4,0.9,0.4s0.6-0.1,0.8-0.4s0.3-0.6,0.3-1.1s-0.1-0.9-0.3-1.1s-0.5-0.4-0.9-0.4
	C155,161.2,154.6,161.7,154.6,162.6z"/>
<path style="fill:#FFFFFF;" d="M163.9,159.7c0,0.5-0.2,1-0.5,1.3s-0.8,0.6-1.3,0.7l0,0c0.7,0.1,1.2,0.3,1.6,0.7s0.5,0.8,0.5,1.4
	c0,0.8-0.3,1.4-0.8,1.9s-1.3,0.7-2.4,0.7c-0.9,0-1.6-0.2-2.3-0.5v-0.6c0.3,0.2,0.7,0.3,1.1,0.4s0.8,0.1,1.2,0.1
	c0.9,0,1.5-0.2,1.9-0.5s0.7-0.8,0.7-1.5c0-0.6-0.2-1-0.7-1.3s-1.1-0.5-2-0.5H160v-0.6h0.9c0.7,0,1.3-0.2,1.7-0.5s0.6-0.8,0.6-1.4
	c0-0.5-0.2-0.9-0.5-1.1s-0.8-0.4-1.3-0.4c-0.4,0-0.8,0.1-1.2,0.2s-0.7,0.3-1.2,0.6l-0.3-0.4c0.3-0.3,0.7-0.5,1.2-0.7
	s0.9-0.2,1.4-0.2c0.8,0,1.4,0.2,1.8,0.6S163.9,159,163.9,159.7z"/>
<path style="fill:#FFFFFF;" d="M172.6,159.9h0.7l-2.9,3.1l3.1,3.3h-0.8l-3-3.2v3.2h-0.6v-6.4h0.6v3.1L172.6,159.9z"/>
<path style="fill:#FFFFFF;" d="M178.4,166.2h-0.6v-6.4h5.1v6.4h-0.6v-5.8h-3.9V166.2z"/>
<path style="fill:#FFFFFF;" d="M187.7,166.3c-1,0-1.7-0.4-2.1-1.1l0,0v0.5c0,0.3,0,0.6,0,0.9v2.4H185v-9.3h0.5l0.1,0.9l0,0
	c0.4-0.7,1.1-1,2.1-1c0.9,0,1.5,0.3,2,0.8s0.7,1.4,0.7,2.5c0,1-0.2,1.9-0.7,2.4S188.5,166.3,187.7,166.3z M187.7,165.8
	c0.7,0,1.2-0.2,1.5-0.7s0.5-1.2,0.5-2c0-1.9-0.7-2.8-2-2.8c-0.7,0-1.3,0.2-1.6,0.6s-0.5,1.1-0.5,2v0.2c0,1,0.2,1.7,0.5,2.1
	S187,165.8,187.7,165.8z"/>
<path style="fill:#FFFFFF;" d="M197.4,163c0,1-0.3,1.9-0.8,2.4s-1.2,0.9-2.1,0.9c-0.6,0-1.1-0.1-1.5-0.4s-0.8-0.7-1-1.2
	s-0.3-1.1-0.3-1.7c0-1,0.3-1.8,0.8-2.4s1.2-0.9,2.1-0.9s1.6,0.3,2.1,0.9S197.4,162,197.4,163z M192.4,163c0,0.9,0.2,1.6,0.6,2
	s0.9,0.7,1.6,0.7s1.2-0.2,1.6-0.7s0.6-1.2,0.6-2c0-0.9-0.2-1.6-0.6-2s-0.9-0.7-1.6-0.7s-1.2,0.2-1.6,0.7S192.4,162.1,192.4,163z"/>
<path style="fill:#FFFFFF;" d="M201.7,166.3c-0.9,0-1.6-0.3-2.2-0.9s-0.8-1.4-0.8-2.4s0.3-1.8,0.8-2.4s1.2-0.9,2-0.9
	s1.3,0.3,1.8,0.8s0.7,1.2,0.7,2.1v0.5h-4.6c0,0.9,0.2,1.5,0.6,2s1,0.7,1.7,0.7c0.4,0,0.7,0,1-0.1s0.6-0.2,1-0.3v0.5
	c-0.4,0.2-0.7,0.3-1,0.3S202.1,166.3,201.7,166.3z M201.6,160.2c-0.6,0-1.1,0.2-1.5,0.6s-0.6,1-0.7,1.7h3.9c0-0.7-0.2-1.3-0.5-1.7
	S202.1,160.2,201.6,160.2z"/>
<path style="fill:#FFFFFF;" d="M209.2,159.9h0.7L207,163l3.1,3.3h-0.8l-3-3.2v3.2h-0.6v-6.4h0.6v3.1L209.2,159.9z"/>
<path style="fill:#FFFFFF;" d="M215.3,160.4h-2.1v5.9h-0.6v-5.9h-2.2v-0.5h4.9L215.3,160.4L215.3,160.4z"/>
<path style="fill:#FFFFFF;" d="M215.5,159.9h0.6l1.3,3.6c0.4,1.1,0.7,1.8,0.8,2.2l0,0c0.2-0.5,0.4-1.3,0.8-2.3l1.3-3.5h0.6l-2.9,7.4
	c-0.2,0.6-0.4,1-0.6,1.2s-0.3,0.4-0.5,0.5s-0.5,0.2-0.8,0.2c-0.2,0-0.5,0-0.7-0.1v-0.5c0.2,0.1,0.5,0.1,0.7,0.1s0.4,0,0.5-0.1
	s0.3-0.2,0.4-0.4s0.3-0.5,0.4-0.9s0.3-0.7,0.3-0.8L215.5,159.9z"/>
<path style="fill:#FFFFFF;" d="M224.6,163l1.8-2.3l0.4,0.3l-1.5,2.1l1.5,2.1l-0.4,0.3l-1.8-2.3L224.6,163L224.6,163z M226.8,163
	l1.8-2.3l0.4,0.3l-1.5,2.1l1.5,2.1l-0.4,0.3l-1.8-2.3V163z"/>
<path style="fill:#FFFFFF;" d="M308.5,163.2l-1.8,2.3l-0.4-0.3l1.5-2.1l-1.5-2.1l0.4-0.3l1.8,2.3V163.2z M310.7,163.2l-1.8,2.3
	l-0.4-0.3l1.5-2.1l-1.5-2.1l0.4-0.3l1.8,2.3V163.2z"/>
<g>
	<rect x="75.9" y="179" style="fill:none;" width="250" height="49"/>
	<g style="enable-background:new    ;">
		<path style="fill:#FFFFFF;" d="M137.9,183.8c0,1.4-0.3,2.4-1,3.2s-1.6,1.2-2.8,1.2s-2.1-0.4-2.8-1.2s-1-1.9-1-3.2
			c0-1.4,0.3-2.4,1-3.2s1.6-1.2,2.8-1.2s2.1,0.4,2.8,1.2S137.9,182.4,137.9,183.8z M130.9,183.8c0,1.2,0.3,2.2,0.8,2.8s1.3,1,2.4,1
			c1,0,1.8-0.3,2.4-1s0.8-1.6,0.8-2.9c0-1.2-0.3-2.2-0.8-2.8s-1.3-1-2.4-1c-1,0-1.8,0.3-2.4,1S130.9,182.6,130.9,183.8z"/>
		<path style="fill:#FFFFFF;" d="M143.8,182.2h-2.1v5.9h-0.6v-5.9h-2.2v-0.5h4.9L143.8,182.2L143.8,182.2z"/>
		<path style="fill:#FFFFFF;" d="M145,182.4c0-0.4,0.2-0.6,0.5-0.6s0.5,0.2,0.5,0.6c0,0.2,0,0.4-0.1,0.4s-0.2,0.1-0.3,0.1
			s-0.2,0-0.3-0.1S145,182.6,145,182.4z M145,187.6c0-0.4,0.2-0.6,0.5-0.6s0.5,0.2,0.5,0.6s-0.2,0.6-0.5,0.6
			C145.1,188.2,145,188,145,187.6z"/>
	</g>
	<g style="enable-background:new    ;">
		<path style="fill:#FFFFFF;" d="M156,188.1h-4.8v-8.6h4.8v1.2h-3.4v2.3h3.2v1.2h-3.2v2.7h3.4V188.1z"/>
		<path style="fill:#FFFFFF;" d="M163,188.1h-1.4v-5.4h-1.8c-0.1,1.4-0.3,2.5-0.4,3.3s-0.4,1.4-0.7,1.7s-0.7,0.5-1.2,0.5
			c-0.3,0-0.6,0-0.8-0.1V187c0.1,0.1,0.3,0.1,0.4,0.1c0.4,0,0.7-0.4,0.9-1.3s0.4-2.3,0.5-4.1h4.4v6.4H163z"/>
		<path style="fill:#FFFFFF;" d="M167.8,188.2c-1,0-1.8-0.3-2.4-0.9s-0.9-1.4-0.9-2.4c0-1.1,0.3-1.9,0.8-2.5s1.3-0.9,2.2-0.9
			c0.9,0,1.5,0.3,2,0.8s0.7,1.2,0.7,2.1v0.7h-4.3c0,0.6,0.2,1.1,0.5,1.5s0.8,0.5,1.4,0.5c0.4,0,0.7,0,1.1-0.1s0.7-0.2,1.1-0.4v1.1
			c-0.3,0.2-0.7,0.3-1,0.3S168.2,188.2,167.8,188.2z M167.5,182.6c-0.4,0-0.8,0.1-1.1,0.4s-0.4,0.7-0.5,1.2h2.9
			c0-0.5-0.1-0.9-0.4-1.2S168,182.6,167.5,182.6z"/>
		<path style="fill:#FFFFFF;" d="M173.3,181.6v2.6h3.1v-2.6h1.4v6.5h-1.5v-2.8h-3v2.8h-1.4v-6.5H173.3z"/>
		<path style="fill:#FFFFFF;" d="M183.7,188.1l-0.3-0.9l0,0c-0.3,0.4-0.6,0.7-0.9,0.8s-0.7,0.2-1.2,0.2c-0.6,0-1.1-0.2-1.5-0.5
			s-0.5-0.8-0.5-1.5s0.2-1.2,0.7-1.5s1.3-0.5,2.3-0.6h1.1v-0.3c0-0.4-0.1-0.7-0.3-0.9s-0.5-0.3-0.9-0.3c-0.3,0-0.7,0-1,0.1
			s-0.6,0.2-0.9,0.3l-0.4-1c0.4-0.2,0.7-0.3,1.2-0.4s0.8-0.1,1.2-0.1c0.8,0,1.4,0.2,1.9,0.5s0.6,0.9,0.6,1.7v4.4H183.7z
			 M181.7,187.2c0.5,0,0.9-0.1,1.2-0.4s0.5-0.7,0.5-1.2V185h-0.8c-0.6,0-1.1,0.1-1.4,0.3s-0.4,0.5-0.4,0.9c0,0.3,0.1,0.5,0.3,0.7
			S181.3,187.2,181.7,187.2z"/>
		<path style="fill:#FFFFFF;" d="M193.6,188.1l-2.5-7.2l0,0c0.1,1.1,0.1,2.1,0.1,3v4.2h-1.3v-8.6h2l2.4,6.8l0,0l2.4-6.8h2v8.6h-1.4
			v-4.2c0-0.4,0-1,0-1.7s0-1.1,0.1-1.2l0,0l-2.6,7.1L193.6,188.1L193.6,188.1z"/>
		<path style="fill:#FFFFFF;" d="M206.6,184.9c0,1.1-0.3,1.9-0.8,2.5s-1.3,0.9-2.3,0.9c-0.6,0-1.1-0.1-1.6-0.4s-0.8-0.7-1.1-1.2
			s-0.4-1.1-0.4-1.8c0-1.1,0.3-1.9,0.8-2.5s1.3-0.9,2.3-0.9c0.9,0,1.7,0.3,2.2,0.9S206.6,183.8,206.6,184.9z M201.8,184.9
			c0,1.5,0.6,2.2,1.7,2.2s1.6-0.7,1.6-2.2s-0.6-2.2-1.7-2.2c-0.6,0-1,0.2-1.3,0.6S201.8,184.1,201.8,184.9z"/>
		<path style="fill:#FFFFFF;" d="M213.5,188.1h-1.4v-5.4h-1.8c-0.1,1.4-0.3,2.5-0.4,3.3s-0.4,1.4-0.7,1.7s-0.7,0.5-1.2,0.5
			c-0.3,0-0.6,0-0.8-0.1V187c0.1,0.1,0.3,0.1,0.4,0.1c0.4,0,0.7-0.4,0.9-1.3s0.4-2.3,0.5-4.1h4.4v6.4H213.5z"/>
		<path style="fill:#FFFFFF;" d="M216.8,184.2h1.6c1.8,0,2.7,0.6,2.7,1.9c0,0.7-0.2,1.2-0.7,1.5s-1.1,0.5-2,0.5h-3v-6.5h1.4V184.2z
			 M219.8,186.1c0-0.3-0.1-0.6-0.4-0.7s-0.6-0.2-1-0.2h-1.5v1.8h1.6c0.5,0,0.8-0.1,1-0.2S219.8,186.4,219.8,186.1z"/>
		<path style="fill:#FFFFFF;" d="M222.3,184.2c0-1.4,0.2-2.6,0.7-3.3s1.3-1.3,2.3-1.5c0.8-0.2,1.7-0.3,2.8-0.5l0.2,1.2
			c-1.3,0.2-2.2,0.3-2.8,0.5c-0.6,0.1-1.1,0.4-1.3,0.8s-0.4,1-0.5,1.8h0.1c0.2-0.3,0.5-0.6,0.9-0.8s0.7-0.3,1.2-0.3
			c0.8,0,1.4,0.3,1.9,0.8s0.7,1.2,0.7,2.1c0,1-0.3,1.8-0.8,2.4s-1.3,0.9-2.2,0.9c-0.9,0-1.7-0.4-2.2-1.1S222.3,185.5,222.3,184.2z
			 M225.4,187.1c1,0,1.5-0.7,1.5-2s-0.5-1.9-1.4-1.9c-0.3,0-0.5,0.1-0.7,0.2s-0.5,0.3-0.7,0.4s-0.4,0.4-0.5,0.6
			c0,0.9,0.1,1.6,0.4,2.1S224.9,187.1,225.4,187.1z"/>
		<path style="fill:#FFFFFF;" d="M232.8,188.2c-1,0-1.8-0.3-2.4-0.9s-0.9-1.4-0.9-2.4c0-1.1,0.3-1.9,0.8-2.5s1.3-0.9,2.2-0.9
			c0.9,0,1.5,0.3,2,0.8s0.7,1.2,0.7,2.1v0.7h-4.3c0,0.6,0.2,1.1,0.5,1.5s0.8,0.5,1.4,0.5c0.4,0,0.7,0,1.1-0.1s0.7-0.2,1.1-0.4v1.1
			c-0.3,0.2-0.7,0.3-1,0.3S233.2,188.2,232.8,188.2z M232.6,182.6c-0.4,0-0.8,0.1-1.1,0.4s-0.4,0.7-0.5,1.2h2.9
			c0-0.5-0.1-0.9-0.4-1.2S233,182.6,232.6,182.6z"/>
		<path style="fill:#FFFFFF;" d="M240.2,188.2c-0.8,0-1.5-0.3-1.9-0.9h-0.1c0.1,0.5,0.1,0.9,0.1,1v2.7h-1.4v-9.4h1.1
			c0,0.1,0.1,0.4,0.2,0.9h0.1c0.4-0.7,1.1-1,1.9-1s1.4,0.3,1.9,0.9s0.7,1.4,0.7,2.5s-0.2,1.9-0.7,2.5S241,188.2,240.2,188.2z
			 M239.8,182.6c-0.5,0-0.9,0.2-1.2,0.5s-0.4,0.8-0.4,1.5v0.2c0,0.8,0.1,1.4,0.4,1.7s0.7,0.5,1.2,0.5s0.8-0.2,1.1-0.6
			s0.4-0.9,0.4-1.7c0-0.7-0.1-1.3-0.4-1.6S240.3,182.6,239.8,182.6z"/>
		<path style="fill:#FFFFFF;" d="M249.2,181.6v1.1h-2.1v5.4h-1.4v-5.4h-2.1v-1.1H249.2z"/>
		<path style="fill:#FFFFFF;" d="M251.8,181.6v3.3c0,0.4,0,1-0.1,1.7l3.3-5h1.7v6.5h-1.4v-3.3c0-0.2,0-0.5,0-0.9s0-0.7,0.1-0.9
			l-3.2,5h-1.7v-6.5L251.8,181.6L251.8,181.6z"/>
		<path style="fill:#FFFFFF;" d="M260,181.6v2.6h3.1v-2.6h1.4v6.5h-1.4v-2.8H260v2.8h-1.4v-6.5H260z"/>
		<path style="fill:#FFFFFF;" d="M270.4,188.1l-0.3-0.9l0,0c-0.3,0.4-0.6,0.7-0.9,0.8s-0.7,0.2-1.2,0.2c-0.6,0-1.1-0.2-1.5-0.5
			s-0.5-0.8-0.5-1.5s0.2-1.2,0.7-1.5s1.3-0.5,2.3-0.6h1.1v-0.3c0-0.4-0.1-0.7-0.3-0.9s-0.5-0.3-0.9-0.3c-0.3,0-0.7,0-1,0.1
			s-0.6,0.2-0.9,0.3l-0.4-1c0.4-0.2,0.7-0.3,1.2-0.4s0.8-0.1,1.2-0.1c0.8,0,1.4,0.2,1.9,0.5s0.6,0.9,0.6,1.7v4.4H270.4z
			 M268.4,187.2c0.5,0,0.9-0.1,1.2-0.4s0.5-0.7,0.5-1.2V185h-0.8c-0.6,0-1.1,0.1-1.4,0.3s-0.4,0.5-0.4,0.9c0,0.3,0.1,0.5,0.3,0.7
			S268,187.2,268.4,187.2z"/>
	</g>
</g>
<rect x="-0.2" y="2" style="fill:#F2F2F2;" width="369.1" height="88"/>
<g>
	<g>
		<path style="fill:#848484;" d="M139.5,44.4l4.3-4.8h0.9l-3.3,3.6l3.6,4.9h-0.9l-3.2-4.3l-1.4,1.3v3h-0.8V36h0.8v6.1L139.5,44.4
			L139.5,44.4z"/>
		<path style="fill:#848484;" d="M145,39.7h0.8l1.8,4.8c0.5,1.5,0.9,2.5,1,3h0c0.2-0.7,0.6-1.7,1.1-3l1.8-4.7h0.8l-3.8,9.9
			c-0.3,0.8-0.6,1.3-0.8,1.6s-0.5,0.5-0.7,0.6s-0.6,0.2-1,0.2c-0.3,0-0.6-0.1-1-0.2v-0.7c0.3,0.1,0.6,0.1,1,0.1
			c0.3,0,0.5-0.1,0.7-0.2s0.4-0.3,0.6-0.6c0.2-0.3,0.4-0.7,0.6-1.3s0.4-0.9,0.4-1.1L145,39.7z"/>
		<path style="fill:#848484;" d="M159.1,45.9c0,0.8-0.3,1.3-0.9,1.8c-0.6,0.4-1.4,0.6-2.5,0.6c-1.1,0-2-0.2-2.7-0.5V47
			c0.9,0.4,1.8,0.6,2.7,0.6c0.8,0,1.5-0.1,1.9-0.4c0.4-0.3,0.7-0.6,0.7-1.1c0-0.4-0.2-0.8-0.5-1.1c-0.3-0.3-0.9-0.6-1.7-0.9
			c-0.8-0.3-1.4-0.6-1.8-0.8c-0.3-0.2-0.6-0.5-0.8-0.8c-0.2-0.3-0.3-0.6-0.3-1c0-0.6,0.3-1.1,0.8-1.5c0.5-0.4,1.3-0.6,2.2-0.6
			c0.9,0,1.8,0.2,2.6,0.5l-0.3,0.7c-0.8-0.3-1.6-0.5-2.3-0.5c-0.7,0-1.2,0.1-1.6,0.3c-0.4,0.2-0.6,0.5-0.6,1c0,0.4,0.2,0.8,0.5,1.1
			s0.9,0.6,1.8,0.9c0.8,0.3,1.3,0.5,1.7,0.7c0.3,0.2,0.6,0.5,0.8,0.8S159.1,45.6,159.1,45.9z"/>
		<path style="fill:#848484;" d="M168.3,43.9c0,1.4-0.3,2.5-1,3.2c-0.7,0.8-1.6,1.2-2.8,1.2c-0.7,0-1.4-0.2-2-0.5s-1-0.9-1.3-1.5
			s-0.5-1.4-0.5-2.3c0-1.4,0.3-2.5,1-3.2s1.6-1.2,2.8-1.2c1.2,0,2.1,0.4,2.7,1.2C167.9,41.5,168.3,42.5,168.3,43.9z M161.6,43.9
			c0,1.2,0.3,2.1,0.8,2.7c0.5,0.7,1.2,1,2.2,1s1.7-0.3,2.2-1c0.5-0.7,0.8-1.6,0.8-2.7c0-1.2-0.3-2.1-0.8-2.7c-0.5-0.6-1.2-1-2.2-1
			s-1.7,0.3-2.2,1C161.8,41.8,161.6,42.7,161.6,43.9z"/>
		<path style="fill:#848484;" d="M177.6,43.9c0,1.4-0.3,2.5-1,3.2c-0.7,0.8-1.6,1.2-2.8,1.2c-0.7,0-1.4-0.2-2-0.5s-1-0.9-1.3-1.5
			s-0.5-1.4-0.5-2.3c0-1.4,0.3-2.5,1-3.2s1.6-1.2,2.8-1.2c1.2,0,2.1,0.4,2.7,1.2C177.3,41.5,177.6,42.5,177.6,43.9z M170.9,43.9
			c0,1.2,0.3,2.1,0.8,2.7c0.5,0.7,1.2,1,2.2,1s1.7-0.3,2.2-1c0.5-0.7,0.8-1.6,0.8-2.7c0-1.2-0.3-2.1-0.8-2.7c-0.5-0.6-1.2-1-2.2-1
			s-1.7,0.3-2.2,1C171.2,41.8,170.9,42.7,170.9,43.9z"/>
		<path style="fill:#848484;" d="M185.9,48.2v-5.5c0-0.9-0.2-1.5-0.5-1.9c-0.4-0.4-0.9-0.6-1.7-0.6c-1,0-1.8,0.3-2.2,0.8
			c-0.5,0.5-0.7,1.3-0.7,2.5v4.7H180v-8.5h0.7l0.1,1.2h0c0.6-0.9,1.5-1.3,2.9-1.3c1.9,0,2.9,1,2.9,3.1v5.6H185.9z"/>
		<path style="fill:#848484;" d="M189.3,37.3c0-0.5,0.2-0.8,0.5-0.8c0.2,0,0.3,0.1,0.4,0.2c0.1,0.1,0.1,0.3,0.1,0.6
			c0,0.2,0,0.4-0.1,0.6c-0.1,0.1-0.2,0.2-0.4,0.2C189.5,38.1,189.3,37.8,189.3,37.3z M190.2,48.2h-0.8v-8.5h0.8V48.2z"/>
		<path style="fill:#848484;" d="M193.8,44.4l4.3-4.8h0.9l-3.3,3.6l3.6,4.9h-0.9l-3.2-4.3l-1.4,1.3v3h-0.8V36h0.8v6.1L193.8,44.4
			L193.8,44.4z"/>
		<path style="fill:#848484;" d="M212.7,42.5c0,1.2-0.2,2.1-0.7,2.9s-1.1,1.1-1.9,1.1c-0.5,0-0.8-0.1-1.1-0.4s-0.5-0.7-0.5-1.1h0
			c-0.2,0.5-0.5,0.9-1,1.2c-0.4,0.3-0.9,0.4-1.5,0.4c-0.8,0-1.4-0.3-1.8-0.8c-0.4-0.5-0.6-1.2-0.6-2.1c0-1.1,0.3-1.9,0.9-2.6
			c0.6-0.7,1.4-1,2.5-1c0.7,0,1.5,0.1,2.2,0.3l-0.2,3.6v0.2c0,0.5,0.1,0.9,0.3,1.2s0.5,0.4,0.9,0.4c0.5,0,1-0.3,1.3-0.9
			c0.3-0.6,0.5-1.4,0.5-2.4c0-1-0.2-1.9-0.6-2.7c-0.4-0.8-1-1.3-1.8-1.8c-0.8-0.4-1.6-0.6-2.6-0.6c-1.2,0-2.3,0.3-3.2,0.8
			c-0.9,0.5-1.6,1.3-2.1,2.2c-0.5,0.9-0.7,2-0.7,3.3c0,1.7,0.4,3,1.3,3.9s2.1,1.4,3.7,1.4c0.5,0,1,0,1.5-0.1s1.1-0.3,1.8-0.5v0.8
			c-1.1,0.4-2.1,0.6-3.2,0.6c-1.8,0-3.2-0.5-4.3-1.6s-1.5-2.5-1.5-4.4c0-1.3,0.3-2.5,0.8-3.6c0.6-1.1,1.4-1.9,2.4-2.5
			c1-0.6,2.2-0.9,3.5-0.9c1.1,0,2.1,0.2,3,0.7c0.9,0.5,1.5,1.1,2,2C212.4,40.4,212.7,41.4,212.7,42.5z M204.3,43.6
			c0,0.7,0.1,1.3,0.4,1.7s0.7,0.6,1.4,0.6c1.3,0,2-0.9,2.1-2.7l0.1-2.3c-0.4-0.1-0.9-0.2-1.5-0.2c-0.8,0-1.4,0.3-1.9,0.8
			C204.5,41.9,204.3,42.7,204.3,43.6z"/>
		<path style="fill:#848484;" d="M221.6,39.7v0.5l-1.8,0.1c0.5,0.6,0.7,1.2,0.7,1.9c0,0.8-0.3,1.5-0.8,2s-1.3,0.8-2.2,0.8
			c-0.4,0-0.7,0-0.8,0c-0.3,0.2-0.5,0.4-0.7,0.6s-0.2,0.5-0.2,0.7c0,0.3,0.1,0.5,0.3,0.6s0.6,0.2,1,0.2h1.5c0.9,0,1.6,0.2,2.1,0.6
			c0.5,0.4,0.7,0.9,0.7,1.7c0,0.9-0.4,1.6-1.1,2.1c-0.7,0.5-1.8,0.7-3.1,0.7c-1.1,0-1.9-0.2-2.5-0.6c-0.6-0.4-0.9-1-0.9-1.7
			c0-0.6,0.2-1.1,0.5-1.5s0.9-0.6,1.5-0.8c-0.3-0.1-0.5-0.3-0.6-0.5c-0.2-0.2-0.2-0.4-0.2-0.7c0-0.6,0.4-1.1,1.1-1.5
			c-0.5-0.2-0.9-0.5-1.2-1c-0.3-0.4-0.4-0.9-0.4-1.5c0-0.8,0.3-1.5,0.8-2c0.5-0.5,1.3-0.8,2.2-0.8c0.6,0,1,0.1,1.3,0.2H221.6z
			 M214.7,49.6c0,1.2,0.9,1.8,2.6,1.8c2.2,0,3.3-0.7,3.3-2.1c0-0.5-0.2-0.9-0.5-1.1s-0.9-0.3-1.7-0.3h-1.4
			C215.5,47.8,214.7,48.4,214.7,49.6z M215.4,42.3c0,0.7,0.2,1.2,0.6,1.5c0.4,0.4,0.9,0.5,1.6,0.5c0.7,0,1.3-0.2,1.6-0.5
			s0.6-0.9,0.6-1.6c0-0.7-0.2-1.3-0.6-1.6c-0.4-0.4-0.9-0.5-1.6-0.5c-0.7,0-1.2,0.2-1.6,0.6C215.6,41.1,215.4,41.6,215.4,42.3z"/>
		<path style="fill:#848484;" d="M233.9,48.2v-5.6c0-0.8-0.2-1.4-0.5-1.8c-0.3-0.4-0.8-0.6-1.5-0.6c-0.9,0-1.5,0.2-1.9,0.7
			c-0.4,0.5-0.6,1.2-0.6,2.3v5h-0.8v-5.8c0-1.4-0.7-2.1-2-2.1c-0.9,0-1.5,0.3-1.9,0.8c-0.4,0.5-0.6,1.3-0.6,2.5v4.7h-0.8v-8.5h0.6
			l0.2,1.2h0c0.2-0.4,0.6-0.7,1-1c0.4-0.2,0.9-0.3,1.4-0.3c1.3,0,2.2,0.5,2.6,1.5h0c0.3-0.5,0.6-0.9,1.1-1.1c0.5-0.3,1-0.4,1.6-0.4
			c0.9,0,1.6,0.2,2.1,0.7c0.5,0.5,0.7,1.3,0.7,2.4v5.6H233.9z"/>
		<path style="fill:#848484;" d="M242.6,48.2l-0.2-1.3h-0.1c-0.4,0.5-0.9,0.9-1.3,1.2s-1,0.3-1.6,0.3c-0.8,0-1.5-0.2-1.9-0.6
			c-0.5-0.4-0.7-1-0.7-1.8c0-0.8,0.3-1.5,1-1.9c0.7-0.5,1.7-0.7,3-0.7l1.6,0v-0.6c0-0.8-0.2-1.4-0.5-1.8c-0.3-0.4-0.9-0.6-1.6-0.6
			c-0.8,0-1.6,0.2-2.4,0.7l-0.3-0.7c0.9-0.4,1.9-0.7,2.8-0.7c0.9,0,1.6,0.2,2.1,0.7s0.7,1.2,0.7,2.3v5.6H242.6z M239.5,47.6
			c0.9,0,1.6-0.3,2.1-0.8c0.5-0.5,0.8-1.2,0.8-2.2v-0.8l-1.5,0.1c-1.2,0.1-2,0.2-2.6,0.6c-0.5,0.3-0.8,0.8-0.8,1.5
			c0,0.5,0.2,0.9,0.5,1.2C238.4,47.5,238.9,47.6,239.5,47.6z"/>
		<path style="fill:#848484;" d="M245.8,37.3c0-0.5,0.2-0.8,0.5-0.8c0.2,0,0.3,0.1,0.4,0.2c0.1,0.1,0.1,0.3,0.1,0.6
			c0,0.2,0,0.4-0.1,0.6c-0.1,0.1-0.2,0.2-0.4,0.2C246,38.1,245.8,37.8,245.8,37.3z M246.7,48.2h-0.8v-8.5h0.8V48.2z"/>
		<path style="fill:#848484;" d="M250.3,48.2h-0.8V36h0.8V48.2z"/>
		<path style="fill:#848484;" d="M253,47.6c0-0.5,0.2-0.8,0.6-0.8c0.4,0,0.6,0.3,0.6,0.8c0,0.5-0.2,0.8-0.6,0.8
			C253.2,48.3,253,48.1,253,47.6z"/>
		<path style="fill:#848484;" d="M260.3,39.5c0.4,0,0.7,0,1.2,0.1l-0.1,0.7c-0.4-0.1-0.7-0.1-1.1-0.1c-0.7,0-1.3,0.3-1.8,0.9
			c-0.5,0.6-0.7,1.4-0.7,2.3v4.7H257v-8.5h0.7l0.1,1.5h0.1c0.3-0.6,0.7-1.1,1.1-1.3C259.3,39.6,259.8,39.5,260.3,39.5z"/>
		<path style="fill:#848484;" d="M263.9,39.7v5.5c0,0.9,0.2,1.5,0.5,1.9c0.4,0.4,0.9,0.6,1.7,0.6c1,0,1.8-0.3,2.2-0.8
			c0.5-0.5,0.7-1.3,0.7-2.5v-4.7h0.8v8.5h-0.7L269,47h0c-0.6,0.9-1.5,1.3-2.9,1.3c-1.9,0-2.9-1-2.9-3.1v-5.5H263.9z"/>
	</g>
</g>
<g>
	<g>
		<path style="fill:#FFFFFF;" d="M237,165.9l-3.5-8.6h-0.1c0,0.5,0.1,1.1,0.1,1.6v7h-0.6v-9.3h1l3.3,8.2h0l3.3-8.2h1v9.3h-0.7v-7
			c0-0.5,0-1,0.1-1.5h-0.1l-3.5,8.6H237z"/>
		<path style="fill:#FFFFFF;" d="M249.7,162.4c0,1.1-0.3,2-0.8,2.6c-0.5,0.6-1.3,0.9-2.3,0.9c-0.6,0-1.1-0.1-1.6-0.4
			c-0.5-0.3-0.8-0.7-1.1-1.3c-0.2-0.5-0.4-1.2-0.4-1.9c0-1.1,0.3-2,0.8-2.6c0.5-0.6,1.3-0.9,2.2-0.9c0.9,0,1.7,0.3,2.2,1
			C249.4,160.4,249.7,161.3,249.7,162.4z M244.2,162.4c0,0.9,0.2,1.7,0.6,2.2s1,0.8,1.8,0.8s1.4-0.3,1.8-0.8s0.6-1.3,0.6-2.2
			c0-1-0.2-1.7-0.6-2.2s-1-0.8-1.8-0.8s-1.3,0.3-1.8,0.8C244.5,160.7,244.2,161.5,244.2,162.4z"/>
		<path style="fill:#FFFFFF;" d="M252.2,159v5l0,1.3l4.1-6.3h0.8v6.9h-0.6v-5l0-1.3l-4.1,6.3h-0.8V159H252.2z M254.4,158
			c-0.6,0-1.1-0.1-1.4-0.4s-0.5-0.7-0.6-1.4h0.6c0.1,0.5,0.2,0.8,0.4,1c0.2,0.2,0.6,0.3,1,0.3c0.5,0,0.8-0.1,1-0.3s0.4-0.5,0.4-1
			h0.6C256.3,157.4,255.6,158,254.4,158z"/>
		<path style="fill:#FFFFFF;" d="M269.6,165.9h-0.6v-8.7h-5.4v8.7h-0.6v-9.3h6.7V165.9z"/>
		<path style="fill:#FFFFFF;" d="M275,166c-1.1,0-1.8-0.4-2.3-1.2h0l0,0.5c0,0.3,0,0.7,0,1v2.6h-0.6v-10h0.5l0.1,1h0
			c0.5-0.7,1.2-1.1,2.3-1.1c0.9,0,1.6,0.3,2.1,0.9c0.5,0.6,0.7,1.5,0.7,2.7c0,1.1-0.3,2-0.8,2.6C276.6,165.7,275.9,166,275,166z
			 M275,165.4c0.7,0,1.3-0.3,1.6-0.8c0.4-0.5,0.6-1.3,0.6-2.2c0-2-0.7-3-2.2-3c-0.8,0-1.4,0.2-1.8,0.7s-0.6,1.2-0.6,2.2v0.2
			c0,1.1,0.2,1.8,0.5,2.3C273.6,165.2,274.2,165.4,275,165.4z"/>
		<path style="fill:#FFFFFF;" d="M285.5,162.4c0,1.1-0.3,2-0.8,2.6c-0.5,0.6-1.3,0.9-2.3,0.9c-0.6,0-1.1-0.1-1.6-0.4
			c-0.5-0.3-0.8-0.7-1.1-1.3c-0.2-0.5-0.4-1.2-0.4-1.9c0-1.1,0.3-2,0.8-2.6c0.5-0.6,1.3-0.9,2.2-0.9c0.9,0,1.7,0.3,2.2,1
			C285.2,160.4,285.5,161.3,285.5,162.4z M280.1,162.4c0,0.9,0.2,1.7,0.6,2.2s1,0.8,1.8,0.8s1.4-0.3,1.8-0.8s0.6-1.3,0.6-2.2
			c0-1-0.2-1.7-0.6-2.2s-1-0.8-1.8-0.8s-1.3,0.3-1.8,0.8C280.3,160.7,280.1,161.5,280.1,162.4z"/>
		<path style="fill:#FFFFFF;" d="M290.2,166c-1,0-1.8-0.3-2.3-0.9s-0.8-1.5-0.8-2.6c0-1.1,0.3-2,0.8-2.6c0.5-0.7,1.3-1,2.2-1
			c0.8,0,1.5,0.3,1.9,0.9c0.5,0.6,0.7,1.3,0.7,2.3v0.5h-5c0,0.9,0.2,1.7,0.7,2.2s1.1,0.7,1.9,0.7c0.4,0,0.7,0,1-0.1
			c0.3-0.1,0.7-0.2,1.1-0.4v0.6c-0.4,0.2-0.8,0.3-1.1,0.3S290.6,166,290.2,166z M290,159.4c-0.7,0-1.2,0.2-1.6,0.7
			c-0.4,0.4-0.6,1.1-0.7,1.9h4.3c0-0.8-0.2-1.4-0.5-1.9C291.1,159.6,290.6,159.4,290,159.4z"/>
		<path style="fill:#FFFFFF;" d="M298.3,159h0.8l-3.1,3.3l3.3,3.6h-0.8l-3.3-3.5v3.5h-0.6V159h0.6v3.4L298.3,159z"/>
		<path style="fill:#FFFFFF;" d="M304.9,159.5h-2.3v6.4H302v-6.4h-2.4V159h5.3V159.5z"/>
	</g>
</g>
<g>
	<ellipse style="fill:#CA6600;stroke:#FFFFFF;stroke-width:2;stroke-miterlimit:10;" cx="315.3" cy="41.3" rx="22.6" ry="22.5"/>
	<g>
		<g>
			<path style="fill:#F5E6D2;" d="M323.3,40.1c0.3-0.4,1.6-0.7,2.1-0.4c0.9,0.5,0.8,1.7,0.6,2.4c-0.2,1-0.7,2.1-1.3,3
				c-0.2,0.3-1.4,1.4-1.8,1.5"/>
		</g>
		<g>
			<path style="fill:#F5E6D2;" d="M308.3,40c-0.3-0.4-1.5-0.6-1.9-0.3c-0.8,0.5-0.7,1.7-0.5,2.4c0.2,1,0.6,2.1,1.2,3
				c0.2,0.3,1.2,1.1,1.5,1.3"/>
		</g>
		<g>
			<path style="fill:#F5E6D2;" d="M323.8,41c0,2.2-0.2,6.7-1,8.5c-1.7,3.4-4.1,5.9-7.1,5.9c-3,0-5.7-2.5-6.9-6c-0.6-1.8-1-6-1-8.2
				c0-6.5,2.5-12,7.9-12C321.1,29.3,323.8,34.5,323.8,41z"/>
		</g>
		<g>
			<path style="fill:#5E3800;" d="M318.1,39.4c-0.1,0-0.2-0.1-0.2-0.2c0-0.1,0.1-0.3,0.2-0.3l3.1-0.7c0.1,0,0.3,0.1,0.3,0.2
				c0,0.1-0.1,0.3-0.2,0.3L318.1,39.4C318.2,39.4,318.2,39.4,318.1,39.4z"/>
		</g>
		<g>
			<path style="fill:#5E3800;" d="M313,39.4C313,39.4,313,39.4,313,39.4l-3.2-0.7c-0.1,0-0.2-0.2-0.2-0.3c0-0.1,0.2-0.2,0.3-0.2
				l3.1,0.7c0.1,0,0.2,0.2,0.2,0.3C313.2,39.3,313.1,39.4,313,39.4z"/>
		</g>
		<g>
			<path style="fill:#E3B295;" d="M315.7,50.8c-0.3,0-1.7-0.1-2.2-0.7l-0.1,0.1c-0.1,0.1-0.2,0.1-0.3,0c-0.1-0.1-0.1-0.2,0-0.3
				l0.3-0.3c0.1-0.1,0.1-0.1,0.2-0.1c0.1,0,0.1,0.1,0.2,0.2c0.1,0.4,1.2,0.6,2,0.7c0.7,0,1.7-0.2,1.8-0.6c0-0.1,0.1-0.1,0.2-0.2
				c0.1,0,0.2,0,0.2,0l0.3,0.2c0.1,0.1,0.1,0.2,0.1,0.3c-0.1,0.1-0.2,0.1-0.3,0.1l-0.1-0.1C317.3,50.7,315.9,50.8,315.7,50.8z"/>
		</g>
		<g>
			<g>
				<path style="fill:#5E3800;" d="M320,43.2c-0.9,0-1.5-0.5-1.8-1.4l-0.4,0c-0.1,0-0.2-0.1-0.2-0.3c0-0.1,0.1-0.2,0.2-0.2l0.7,0
					l0,0.2c0.2,0.8,0.6,1.2,1.4,1.2c0.9,0,1.1-0.6,1.3-1.3l0.1-0.3h0.9c0.1,0,0.2,0.4,0.2,0.5c0,0.1-0.1,0.5-0.2,0.5h-0.5
					C321.4,42,321.1,43.2,320,43.2z"/>
			</g>
		</g>
		<g>
			<g>
				<path style="fill:#5E3800;" d="M311.2,43.2c-0.9,0-1.5-0.5-1.8-1.4l-0.4,0c-0.1,0-0.2-0.1-0.2-0.3c0-0.1,0.1-0.2,0.2-0.2l0.7,0
					l0,0.2c0.2,0.8,0.6,1.2,1.4,1.2c0.9,0,1.1-0.6,1.3-1.3l0.1-0.3h0.9c0.1,0,0.2,0.4,0.2,0.5c0,0.1-0.1,0.5-0.2,0.5h-0.5
					C312.7,42,312.3,43.2,311.2,43.2z"/>
			</g>
		</g>
		<g>
			<path style="fill:#5D2C42;" d="M323.8,41.7c0.2-1.2,2.5-6.3,1.2-9.2c-1.8-4.1-4.3-6.4-9.3-7c-1-0.1-3.1-1.5-3.7-0.6
				c-0.7,1-1,1.8-1.9,2.5c-1.1,0.8-2.3,3-2.9,4.2c-2,3.7,0.6,9.6,0.6,9.8c-0.1-3.1,0.7-5.5,2.3-7.8c1.2-1.8,9.7-1.1,11.1-0.1
				C324.4,35.6,323.1,38.7,323.8,41.7z"/>
		</g>
		<g>
			<path style="fill:#5D2C42;" d="M318.6,55.4c-1.2,1.4-5.2,1.2-6.2,0c-0.6-0.6-0.7-1.3-1-2.1c2.6,1.1,5.6,1.5,8.4,0
				C319.7,53.4,319.1,54.8,318.6,55.4z"/>
		</g>
	</g>
</g>
<g>
	<g>
		<g>
			<path style="fill:#848484;" d="M102,45v-0.4c0-1.1,0.1-2,0.5-2.7c0.3-0.7,0.9-1.5,1.9-2.3l1.2-1.1c0.7-0.6,1.1-1.1,1.4-1.7
				s0.4-1.2,0.4-1.9c0-1.2-0.4-2.1-1.1-2.8c-0.8-0.7-1.8-1-3-1c-0.7,0-1.4,0.1-2,0.2c-0.6,0.2-1.3,0.4-2,0.8l-0.5-1.1
				c1-0.4,1.8-0.7,2.5-0.9c0.7-0.1,1.4-0.2,2.1-0.2c1.7,0,3,0.4,3.9,1.3c1,0.9,1.4,2.1,1.4,3.7c0,0.6-0.1,1.2-0.2,1.6
				c-0.2,0.5-0.4,0.9-0.7,1.3c-0.3,0.4-0.7,0.8-1.1,1.1c-0.4,0.4-0.9,0.8-1.4,1.2c-0.6,0.5-1,0.9-1.3,1.3c-0.3,0.4-0.5,0.8-0.7,1.3
				c-0.1,0.4-0.2,1.1-0.2,2V45H102z M101.4,49.2c0-0.9,0.4-1.3,1.1-1.3c0.7,0,1.1,0.4,1.1,1.3c0,0.9-0.4,1.3-1.1,1.3
				C101.8,50.6,101.4,50.1,101.4,49.2z"/>
		</g>
	</g>
</g>
<g>
	<circle style="fill:#FFAA08;" cx="316.9" cy="76" r="5"/>
	<g>
		<path style="fill:#FFFFFF;" d="M316.9,72c2.2,0,4,1.8,4,4s-1.8,4-4,4s-4-1.8-4-4S314.7,72,316.9,72 M316.9,70c-3.3,0-6,2.7-6,6
			s2.7,6,6,6s6-2.7,6-6S320.2,70,316.9,70L316.9,70z"/>
	</g>
</g>
</svg>
