<?xml version="1.0" encoding="utf-8"?>
<!-- Generator: Adobe Illustrator 19.2.1, SVG Export Plug-In . SVG Version: 6.00 Build 0)  -->
<svg version="1.1" id="Слой_1" xmlns="http://www.w3.org/2000/svg" xmlns:xlink="http://www.w3.org/1999/xlink" x="0px" y="0px"
	 viewBox="0 0 539 206" style="enable-background:new 0 0 539 206;" xml:space="preserve">
<style type="text/css">
	.st0{fill:#88B7F3;}
	.st1{enable-background:new    ;}
	.st2{fill:#FFFDFC;}
	.st3{fill:none;stroke:#FFFFFF;stroke-miterlimit:10;}
	.st4{fill:none;stroke:#FFFFFF;stroke-width:0.5904;stroke-linecap:round;stroke-miterlimit:10;}
	.st5{fill:#E6A955;stroke:#FFFFFF;stroke-width:0.5904;stroke-miterlimit:10;}
	.st6{fill:none;stroke:#FFFFFF;stroke-width:0.5904;stroke-miterlimit:10;}
	.st7{fill:none;stroke:#FFFFFF;stroke-width:0.5904;stroke-linecap:round;stroke-linejoin:round;stroke-miterlimit:10;}
	.st8{fill:#FFFFFF;}
	.st9{fill:#0067D0;}
</style>
<rect x="128" y="6" class="st0" width="283" height="200"/>
<rect x="129" y="6" class="st0" width="281" height="80"/>
<g class="st1">
	<path class="st2" d="M219.1,38.8h0.8c0.7-1.3,1.3-2.8,1.8-4.5c0.5-1.6,0.8-3.3,0.9-5h5.7v9.4h1.4v4.6H228v-3h-7.2v3h-1.7V38.8z
		 M224.2,30.9c-0.1,1.1-0.4,2.5-0.8,3.9c-0.4,1.5-1,2.8-1.5,3.9h4.7v-7.9L224.2,30.9L224.2,30.9z"/>
	<path class="st2" d="M238.7,36.2c0,1.4-0.3,2.4-1,3.2s-1.7,1.1-2.9,1.1c-0.8,0-1.5-0.2-2.1-0.5s-1.1-0.9-1.4-1.5
		c-0.3-0.7-0.5-1.4-0.5-2.3c0-1.3,0.3-2.4,1-3.1c0.7-0.8,1.7-1.1,2.9-1.1s2.1,0.4,2.8,1.2C238.4,33.8,238.7,34.9,238.7,36.2z
		 M232.7,36.2c0,1.9,0.7,2.9,2.1,2.9c1.4,0,2.1-1,2.1-2.9s-0.7-2.8-2.1-2.8c-0.7,0-1.3,0.2-1.6,0.7
		C232.8,34.6,232.7,35.3,232.7,36.2z"/>
	<path class="st2" d="M244.1,40.5c-1.3,0-2.2-0.4-2.9-1.1c-0.7-0.7-1-1.8-1-3.2s0.3-2.5,1-3.2c0.7-0.8,1.7-1.1,3-1.1
		c0.9,0,1.7,0.2,2.4,0.5l-0.5,1.4c-0.7-0.3-1.4-0.4-1.8-0.4c-1.4,0-2.2,1-2.2,2.9c0,0.9,0.2,1.6,0.5,2.1c0.4,0.5,0.9,0.7,1.6,0.7
		c0.8,0,1.5-0.2,2.2-0.6V40c-0.3,0.2-0.7,0.3-1,0.4C245,40.5,244.6,40.5,244.1,40.5z"/>
	<path class="st2" d="M254.6,32.1v1.4h-2.7v6.9h-1.8v-6.9h-2.7v-1.4H254.6z"/>
	<path class="st2" d="M254.9,32.1h1.9l1.7,4.7c0.3,0.7,0.4,1.3,0.5,1.9h0.1c0-0.3,0.1-0.6,0.2-1s0.8-2.3,1.9-5.6h1.9l-3.5,9.4
		c-0.6,1.7-1.7,2.6-3.2,2.6c-0.4,0-0.8,0-1.1-0.1v-1.4c0.3,0.1,0.6,0.1,0.9,0.1c0.8,0,1.4-0.5,1.8-1.5l0.3-0.8L254.9,32.1z"/>
	<path class="st2" d="M271.6,32.1v8.3h-1.8v-6.9h-3.7v6.9h-1.8v-8.3H271.6z"/>
	<path class="st2" d="M275.9,35.4h1.7c1.2,0,2,0.2,2.6,0.6c0.6,0.4,0.8,1,0.8,1.8c0,0.9-0.3,1.5-0.9,1.9s-1.4,0.6-2.5,0.6h-3.4V32
		h1.8v3.4H275.9z M279.2,37.8c0-0.4-0.2-0.7-0.5-0.9s-0.7-0.2-1.3-0.2h-1.6V39h1.3c0.7,0,1.2-0.1,1.5-0.3
		C279.1,38.5,279.2,38.2,279.2,37.8z M284.1,40.3h-1.8V32h1.8V40.3z"/>
	<path class="st2" d="M298.5,43.3h-1.6v-2.9h-5.7v2.9h-1.6V39h0.7c0.6-0.8,1.1-1.9,1.4-3.1c0.3-1.2,0.6-2.5,0.6-3.9h5v7h1.2V43.3z
		 M295.6,39v-5.6h-1.8c-0.1,1-0.3,2-0.6,3c-0.3,1-0.7,1.8-1.1,2.5L295.6,39L295.6,39z"/>
	<path class="st2" d="M306.9,40.3h-1.8v-6.9h-2.3c-0.1,1.8-0.3,3.2-0.6,4.2c-0.2,1-0.5,1.7-0.9,2.2s-0.9,0.7-1.5,0.7
		c-0.4,0-0.7-0.1-1-0.2v-1.4c0.2,0.1,0.4,0.1,0.6,0.1c0.5,0,0.9-0.6,1.2-1.7s0.5-2.9,0.7-5.3h5.6L306.9,40.3L306.9,40.3z"/>
	<path class="st2" d="M310.2,40.3h-2l2.3-3.4c-0.6-0.2-1-0.4-1.3-0.9s-0.5-0.9-0.5-1.5c0-0.8,0.3-1.4,0.8-1.8
		c0.6-0.4,1.3-0.7,2.3-0.7h3.8v8.3h-1.8v-3.2h-1.7L310.2,40.3z M310.5,34.6c0,0.4,0.2,0.7,0.5,1c0.3,0.2,0.8,0.3,1.3,0.3h1.6v-2.5
		H312c-0.5,0-0.9,0.1-1.1,0.3C310.6,33.9,310.5,34.2,310.5,34.6z"/>
</g>
<g class="st1">
	<path class="st2" d="M213.2,55.6l2.7-3.2l1.3,0.7l-2.1,2.6l2.1,2.6l-1.3,0.7l-2.7-3.2V55.6z M216.6,55.6l2.7-3.2l1.3,0.7l-2.1,2.6
		l2.1,2.6l-1.3,0.7l-2.7-3.2V55.6z"/>
	<path class="st2" d="M227.3,59.8l-3.2-9.2H224c0.1,1.4,0.1,2.6,0.1,3.8v5.3h-1.6v-11h2.5l3,8.7l0,0l3.1-8.7h2.5v11h-1.7v-5.4
		c0-0.5,0-1.3,0-2.1c0-0.9,0.1-1.4,0.1-1.6h-0.1l-3.3,9.1h-1.3V59.8z"/>
	<path class="st2" d="M243.9,55.7c0,1.4-0.3,2.4-1,3.2S241.2,60,240,60c-0.8,0-1.5-0.2-2.1-0.5s-1.1-0.9-1.4-1.5
		c-0.3-0.7-0.5-1.4-0.5-2.3c0-1.3,0.3-2.4,1-3.1c0.7-0.8,1.7-1.1,2.9-1.1s2.1,0.4,2.8,1.2C243.6,53.3,243.9,54.4,243.9,55.7z
		 M237.9,55.7c0,1.9,0.7,2.9,2.1,2.9c1.4,0,2.1-1,2.1-2.9s-0.7-2.8-2.1-2.8c-0.7,0-1.3,0.2-1.6,0.7C238,54.1,237.9,54.8,237.9,55.7z
		"/>
	<path class="st2" d="M247.6,51.6v4.3c0,0.5,0,1.2-0.1,2.2l4.2-6.4h2.2V60h-1.7v-4.2c0-0.2,0-0.6,0-1.1s0.1-0.9,0.1-1.1l-4.1,6.4
		H246v-8.3h1.6V51.6z M249.8,50.5c-1.1,0-1.8-0.2-2.3-0.6c-0.5-0.4-0.8-1-0.8-1.9h1.6c0,0.4,0.1,0.6,0.2,0.8s0.3,0.3,0.5,0.4
		c0.2,0.1,0.5,0.1,0.9,0.1c0.5,0,0.9-0.1,1.1-0.3c0.3-0.2,0.4-0.6,0.5-1.1h1.6c-0.1,0.9-0.4,1.5-0.9,1.9
		C251.6,50.3,250.8,50.5,249.8,50.5z"/>
	<path class="st2" d="M268.9,59.8h-1.8v-9.4h-4.8v9.4h-1.8v-11h8.4L268.9,59.8L268.9,59.8z"/>
	<path class="st2" d="M275.8,60c-1,0-1.9-0.4-2.4-1.1h-0.1c0.1,0.7,0.1,1.1,0.1,1.3v3.4h-1.8v-12h1.4c0,0.2,0.1,0.5,0.2,1.1h0.1
		c0.5-0.8,1.4-1.3,2.5-1.3c1,0,1.8,0.4,2.4,1.1c0.6,0.7,0.9,1.8,0.9,3.2s-0.3,2.4-0.9,3.2C277.7,59.6,276.9,60,275.8,60z
		 M275.4,52.8c-0.7,0-1.2,0.2-1.5,0.6c-0.3,0.4-0.5,1.1-0.5,2v0.3c0,1,0.2,1.7,0.5,2.2s0.8,0.7,1.6,0.7c0.6,0,1.1-0.3,1.4-0.8
		s0.5-1.2,0.5-2.1c0-0.9-0.2-1.6-0.5-2.1C276.5,53.1,276,52.8,275.4,52.8z"/>
	<path class="st2" d="M288.5,55.7c0,1.4-0.3,2.4-1,3.2s-1.7,1.1-2.9,1.1c-0.8,0-1.5-0.2-2.1-0.5s-1.1-0.9-1.4-1.5
		c-0.3-0.7-0.5-1.4-0.5-2.3c0-1.3,0.3-2.4,1-3.1c0.7-0.8,1.7-1.1,2.9-1.1c1.2,0,2.1,0.4,2.8,1.2C288.2,53.3,288.5,54.4,288.5,55.7z
		 M282.5,55.7c0,1.9,0.7,2.9,2.1,2.9s2.1-1,2.1-2.9s-0.7-2.8-2.1-2.8c-0.7,0-1.3,0.2-1.6,0.7C282.7,54.1,282.5,54.8,282.5,55.7z"/>
	<path class="st2" d="M294.2,60c-1.3,0-2.3-0.4-3-1.1c-0.7-0.8-1.1-1.8-1.1-3.1c0-1.4,0.3-2.4,1-3.2s1.6-1.2,2.8-1.2
		c1.1,0,2,0.3,2.6,1s1,1.6,1,2.7v1H292c0,0.8,0.2,1.4,0.7,1.9c0.4,0.4,1,0.6,1.7,0.6c0.5,0,0.9,0,1.4-0.1c0.4-0.1,0.9-0.2,1.4-0.5
		v1.4c-0.4,0.2-0.9,0.3-1.3,0.4C295.2,59.9,294.7,60,294.2,60z M293.9,52.7c-0.6,0-1,0.2-1.3,0.5c-0.3,0.4-0.5,0.9-0.6,1.6h3.8
		c0-0.7-0.2-1.2-0.5-1.6C294.9,52.9,294.4,52.7,293.9,52.7z"/>
	<path class="st2" d="M304.5,51.6h1.9l-3.4,4l3.7,4.3h-2l-3.6-4.2v4.2h-1.8v-8.3h1.8v4L304.5,51.6z"/>
	<path class="st2" d="M314.4,51.6V53h-2.7v6.9h-1.8V53h-2.7v-1.4H314.4z"/>
	<path class="st2" d="M319.2,55.8l-2.7,3.2l-1.3-0.7l2.1-2.6l-2.1-2.6l1.3-0.7l2.7,3.2V55.8z M322.6,55.8l-2.7,3.2l-1.3-0.7l2.1-2.6
		l-2.1-2.6l1.3-0.7l2.7,3.2V55.8z"/>
</g>
<line class="st3" x1="391" y1="139.5" x2="148" y2="139.5"/>
<g class="st1">
	<path class="st2" d="M149.6,120.5h2.1c0.9,0,1.6,0.2,2.1,0.5c0.4,0.3,0.7,0.8,0.7,1.4c0,0.4-0.1,0.8-0.4,1.1
		c-0.3,0.3-0.7,0.5-1.2,0.6v0c0.6,0.1,1.1,0.3,1.3,0.6c0.3,0.3,0.4,0.7,0.4,1.2c0,0.7-0.2,1.2-0.7,1.6c-0.5,0.4-1.1,0.6-2,0.6h-2.3
		V120.5z M150.2,123.9h1.7c0.7,0,1.2-0.1,1.6-0.4c0.3-0.2,0.5-0.6,0.5-1.1s-0.2-0.9-0.5-1.1c-0.4-0.2-0.9-0.3-1.6-0.3h-1.5V123.9z
		 M150.2,124.3v3.3h1.8c1.4,0,2.1-0.6,2.1-1.7c0-1-0.7-1.6-2.2-1.6H150.2z"/>
	<path class="st2" d="M160.5,123.8c0,0.4-0.1,0.6-0.3,0.8c-0.2,0.2-0.5,0.3-0.9,0.4v0c0.5,0.1,0.8,0.2,1,0.4
		c0.2,0.2,0.3,0.5,0.3,0.9c0,0.5-0.2,1-0.5,1.3s-0.9,0.4-1.6,0.4h-2.4v-5.6h2.4c0.6,0,1.1,0.1,1.5,0.3
		C160.3,123,160.5,123.3,160.5,123.8z M160,123.8c0-0.3-0.1-0.6-0.4-0.7c-0.2-0.1-0.6-0.2-1.1-0.2h-1.9v1.9h1.8
		c0.5,0,0.9-0.1,1.1-0.2C159.8,124.4,160,124.2,160,123.8z M160.1,126.4c0-0.7-0.5-1-1.6-1h-1.8v2.3h1.9
		C159.6,127.6,160.1,127.2,160.1,126.4z"/>
	<path class="st2" d="M164.5,128.2c-0.8,0-1.5-0.3-1.9-0.8c-0.5-0.5-0.7-1.2-0.7-2.1c0-0.9,0.2-1.6,0.7-2.2s1-0.8,1.8-0.8
		c0.7,0,1.2,0.2,1.6,0.7c0.4,0.5,0.6,1.1,0.6,1.9v0.4h-4.1c0,0.8,0.2,1.4,0.5,1.8c0.4,0.4,0.9,0.6,1.5,0.6c0.3,0,0.6,0,0.8-0.1
		c0.2,0,0.6-0.1,0.9-0.3v0.5c-0.3,0.1-0.6,0.2-0.9,0.3C165.1,128.2,164.8,128.2,164.5,128.2z M164.3,122.8c-0.5,0-1,0.2-1.3,0.5
		s-0.5,0.9-0.6,1.5h3.5c0-0.7-0.1-1.2-0.4-1.5S164.8,122.8,164.3,122.8z"/>
	<path class="st2" d="M172.6,130h-0.5v-1.9h-4.3v1.9h-0.5v-2.4h0.4c0.5-0.7,0.8-1.4,1.1-2.3c0.3-0.9,0.4-1.8,0.4-2.9h2.7v5.2h0.8
		V130z M171.4,127.6v-4.7h-1.8c-0.1,1.9-0.5,3.4-1.4,4.7H171.4z"/>
	<path class="st2" d="M174.3,122.4v4.1l0,1.1l3.3-5.1h0.7v5.6h-0.5V124l0-1.1l-3.3,5.1h-0.7v-5.6H174.3z"/>
	<path class="st2" d="M183.8,122.9h-1.9v5.2h-0.5v-5.2h-1.9v-0.4h4.3V122.9z"/>
	<path class="st2" d="M187.2,128.2c-0.8,0-1.5-0.3-1.9-0.8c-0.5-0.5-0.7-1.2-0.7-2.1c0-0.9,0.2-1.6,0.7-2.2s1-0.8,1.8-0.8
		c0.7,0,1.2,0.2,1.6,0.7c0.4,0.5,0.6,1.1,0.6,1.9v0.4h-4.1c0,0.8,0.2,1.4,0.5,1.8c0.4,0.4,0.9,0.6,1.5,0.6c0.3,0,0.6,0,0.8-0.1
		c0.2,0,0.6-0.1,0.9-0.3v0.5c-0.3,0.1-0.6,0.2-0.9,0.3C187.8,128.2,187.5,128.2,187.2,128.2z M187.1,122.8c-0.5,0-1,0.2-1.3,0.5
		s-0.5,0.9-0.6,1.5h3.5c0-0.7-0.1-1.2-0.4-1.5S187.6,122.8,187.1,122.8z"/>
	<path class="st2" d="M195.8,128.2c-0.8,0-1.5-0.3-1.9-0.8c-0.5-0.5-0.7-1.2-0.7-2.1c0-0.9,0.2-1.6,0.7-2.2s1-0.8,1.8-0.8
		c0.7,0,1.2,0.2,1.6,0.7c0.4,0.5,0.6,1.1,0.6,1.9v0.4h-4.1c0,0.8,0.2,1.4,0.5,1.8c0.4,0.4,0.9,0.6,1.5,0.6c0.3,0,0.6,0,0.8-0.1
		c0.2,0,0.6-0.1,0.9-0.3v0.5c-0.3,0.1-0.6,0.2-0.9,0.3C196.4,128.2,196.1,128.2,195.8,128.2z M195.7,122.8c-0.5,0-1,0.2-1.3,0.5
		s-0.5,0.9-0.6,1.5h3.5c0-0.7-0.1-1.2-0.4-1.5S196.2,122.8,195.7,122.8z"/>
	<path class="st2" d="M198.9,125.4V125h2.5v0.4H198.9z"/>
	<path class="st2" d="M209.8,128.1v-3.7c0-0.5-0.1-1-0.3-1.2c-0.2-0.3-0.5-0.4-1-0.4c-0.6,0-1,0.2-1.3,0.5c-0.3,0.3-0.4,0.8-0.4,1.5
		v3.3h-0.5v-3.9c0-1-0.4-1.4-1.3-1.4c-0.6,0-1,0.2-1.3,0.5c-0.3,0.3-0.4,0.9-0.4,1.7v3.1h-0.5v-5.6h0.4l0.1,0.8h0
		c0.2-0.3,0.4-0.5,0.7-0.7c0.3-0.2,0.6-0.2,0.9-0.2c0.9,0,1.5,0.3,1.7,1h0c0.2-0.3,0.4-0.6,0.7-0.7s0.7-0.3,1.1-0.3
		c0.6,0,1.1,0.2,1.4,0.5c0.3,0.3,0.5,0.9,0.5,1.6v3.7H209.8z"/>
	<path class="st2" d="M215.6,128.1l-0.1-0.9h0c-0.3,0.4-0.6,0.6-0.9,0.8s-0.7,0.2-1.1,0.2c-0.6,0-1-0.1-1.3-0.4
		c-0.3-0.3-0.5-0.7-0.5-1.2c0-0.5,0.2-1,0.7-1.3c0.5-0.3,1.1-0.5,2-0.5l1.1,0v-0.4c0-0.5-0.1-0.9-0.3-1.2c-0.2-0.3-0.6-0.4-1.1-0.4
		c-0.5,0-1.1,0.1-1.6,0.4l-0.2-0.4c0.6-0.3,1.2-0.4,1.8-0.4c0.6,0,1.1,0.2,1.4,0.5c0.3,0.3,0.5,0.8,0.5,1.5v3.8H215.6z M213.5,127.7
		c0.6,0,1.1-0.2,1.4-0.5c0.3-0.3,0.5-0.8,0.5-1.4v-0.6l-1,0c-0.8,0-1.4,0.2-1.7,0.4c-0.3,0.2-0.5,0.5-0.5,1c0,0.4,0.1,0.6,0.3,0.8
		C212.8,127.6,213.1,127.7,213.5,127.7z"/>
	<path class="st2" d="M217.7,120.9c0-0.3,0.1-0.5,0.3-0.5c0.1,0,0.2,0,0.3,0.1c0.1,0.1,0.1,0.2,0.1,0.4c0,0.2,0,0.3-0.1,0.4
		c-0.1,0.1-0.1,0.1-0.3,0.1C217.8,121.4,217.7,121.2,217.7,120.9z M218.3,128.1h-0.5v-5.6h0.5V128.1z"/>
	<path class="st2" d="M220.7,128.1h-0.5V120h0.5V128.1z"/>
	<path class="st2" d="M225.9,128.1h-0.5v-5.6h4.5v5.6h-0.5v-5.2h-3.5V128.1z"/>
	<path class="st2" d="M236.4,125.2c0,0.9-0.2,1.6-0.7,2.2c-0.4,0.5-1.1,0.8-1.8,0.8c-0.5,0-0.9-0.1-1.3-0.4c-0.4-0.2-0.7-0.6-0.9-1
		c-0.2-0.4-0.3-1-0.3-1.5c0-0.9,0.2-1.6,0.7-2.2s1.1-0.8,1.8-0.8c0.8,0,1.4,0.3,1.8,0.8C236.2,123.6,236.4,124.3,236.4,125.2z
		 M232,125.2c0,0.8,0.2,1.4,0.5,1.8c0.3,0.4,0.8,0.7,1.4,0.7c0.6,0,1.1-0.2,1.4-0.7c0.3-0.4,0.5-1,0.5-1.8c0-0.8-0.2-1.4-0.5-1.8
		c-0.3-0.4-0.8-0.6-1.5-0.6c-0.6,0-1.1,0.2-1.4,0.6C232.1,123.9,232,124.5,232,125.2z"/>
	<path class="st2" d="M241.9,128.1h-0.5v-5.2h-2c-0.1,1.4-0.2,2.4-0.4,3.1s-0.3,1.2-0.6,1.6c-0.2,0.3-0.5,0.5-0.9,0.5
		c-0.1,0-0.3,0-0.4,0v-0.5c0.1,0,0.2,0,0.3,0c0.4,0,0.7-0.4,0.9-1.2c0.2-0.8,0.4-2.2,0.5-4h3V128.1z"/>
	<path class="st2" d="M244.3,124.8h2c1.3,0,2,0.5,2,1.6c0,0.5-0.2,1-0.6,1.3c-0.4,0.3-0.9,0.4-1.6,0.4h-2.3v-5.6h0.5V124.8z
		 M244.3,125.3v2.3h1.9c0.5,0,0.9-0.1,1.1-0.3c0.3-0.2,0.4-0.5,0.4-0.9c0-0.4-0.1-0.6-0.3-0.8s-0.6-0.3-1.2-0.3H244.3z"/>
	<path class="st2" d="M250.9,124.9c1,0,1.5-0.4,1.5-1.1c0-0.3-0.1-0.6-0.4-0.8s-0.6-0.3-1-0.3c-0.3,0-0.5,0-0.8,0.1
		c-0.2,0.1-0.5,0.2-0.8,0.3l-0.2-0.4c0.6-0.3,1.2-0.4,1.8-0.4c0.6,0,1.1,0.1,1.4,0.4c0.3,0.3,0.5,0.6,0.5,1.1c0,0.7-0.3,1.1-1,1.3v0
		c0.4,0.1,0.7,0.3,0.9,0.5s0.3,0.5,0.3,0.9c0,0.5-0.2,0.9-0.6,1.2s-0.9,0.5-1.6,0.5c-0.4,0-0.7,0-1-0.1c-0.3-0.1-0.6-0.2-0.7-0.3
		v-0.5c0.4,0.2,0.7,0.3,0.9,0.3c0.3,0.1,0.5,0.1,0.8,0.1c0.5,0,0.9-0.1,1.2-0.3c0.3-0.2,0.4-0.5,0.4-0.9c0-0.4-0.1-0.7-0.4-0.9
		c-0.3-0.2-0.7-0.3-1.2-0.3h-0.8v-0.4H250.9z"/>
	<path class="st2" d="M259.3,125.2c0,0.9-0.2,1.6-0.7,2.2c-0.4,0.5-1.1,0.8-1.8,0.8c-0.5,0-0.9-0.1-1.3-0.4c-0.4-0.2-0.7-0.6-0.9-1
		c-0.2-0.4-0.3-1-0.3-1.5c0-0.9,0.2-1.6,0.7-2.2s1.1-0.8,1.8-0.8c0.8,0,1.4,0.3,1.8,0.8C259.1,123.6,259.3,124.3,259.3,125.2z
		 M254.8,125.2c0,0.8,0.2,1.4,0.5,1.8c0.3,0.4,0.8,0.7,1.4,0.7c0.6,0,1.1-0.2,1.4-0.7c0.3-0.4,0.5-1,0.5-1.8c0-0.8-0.2-1.4-0.5-1.8
		c-0.3-0.4-0.8-0.6-1.5-0.6c-0.6,0-1.1,0.2-1.4,0.6C255,123.9,254.8,124.5,254.8,125.2z"/>
	<path class="st2" d="M265.2,123.8c0,0.4-0.1,0.6-0.3,0.8c-0.2,0.2-0.5,0.3-0.9,0.4v0c0.5,0.1,0.8,0.2,1,0.4
		c0.2,0.2,0.3,0.5,0.3,0.9c0,0.5-0.2,1-0.5,1.3s-0.9,0.4-1.6,0.4h-2.4v-5.6h2.4c0.6,0,1.1,0.1,1.5,0.3
		C265,123,265.2,123.3,265.2,123.8z M264.6,123.8c0-0.3-0.1-0.6-0.4-0.7c-0.2-0.1-0.6-0.2-1.1-0.2h-1.9v1.9h1.8
		c0.5,0,0.9-0.1,1.1-0.2C264.5,124.4,264.6,124.2,264.6,123.8z M264.8,126.4c0-0.7-0.5-1-1.6-1h-1.8v2.3h1.9
		C264.3,127.6,264.8,127.2,264.8,126.4z"/>
	<path class="st2" d="M270.3,128.1l-0.1-0.9h0c-0.3,0.4-0.6,0.6-0.9,0.8s-0.7,0.2-1.1,0.2c-0.6,0-1-0.1-1.3-0.4
		c-0.3-0.3-0.5-0.7-0.5-1.2c0-0.5,0.2-1,0.7-1.3c0.5-0.3,1.1-0.5,2-0.5l1.1,0v-0.4c0-0.5-0.1-0.9-0.3-1.2c-0.2-0.3-0.6-0.4-1.1-0.4
		c-0.5,0-1.1,0.1-1.6,0.4l-0.2-0.4c0.6-0.3,1.2-0.4,1.8-0.4c0.6,0,1.1,0.2,1.4,0.5c0.3,0.3,0.5,0.8,0.5,1.5v3.8H270.3z M268.2,127.7
		c0.6,0,1.1-0.2,1.4-0.5c0.3-0.3,0.5-0.8,0.5-1.4v-0.6l-1,0c-0.8,0-1.4,0.2-1.7,0.4c-0.3,0.2-0.5,0.5-0.5,1c0,0.4,0.1,0.6,0.3,0.8
		C267.5,127.6,267.8,127.7,268.2,127.7z"/>
	<path class="st2" d="M276.1,122.9h-1.9v5.2h-0.5v-5.2h-1.9v-0.4h4.3V122.9z"/>
	<path class="st2" d="M279.5,128.2c-0.8,0-1.5-0.3-1.9-0.8c-0.5-0.5-0.7-1.2-0.7-2.1c0-0.9,0.2-1.6,0.7-2.2c0.4-0.5,1-0.8,1.8-0.8
		c0.7,0,1.2,0.2,1.6,0.7c0.4,0.5,0.6,1.1,0.6,1.9v0.4h-4.1c0,0.8,0.2,1.4,0.5,1.8c0.4,0.4,0.9,0.6,1.5,0.6c0.3,0,0.6,0,0.8-0.1
		s0.6-0.1,0.9-0.3v0.5c-0.3,0.1-0.6,0.2-0.9,0.3C280.1,128.2,279.8,128.2,279.5,128.2z M279.4,122.8c-0.5,0-1,0.2-1.3,0.5
		c-0.3,0.4-0.5,0.9-0.6,1.5h3.5c0-0.7-0.1-1.2-0.4-1.5C280.3,123,279.9,122.8,279.4,122.8z"/>
	<path class="st2" d="M287,128.1h-0.5v-5.2h-2c-0.1,1.4-0.2,2.4-0.4,3.1s-0.3,1.2-0.6,1.6c-0.2,0.3-0.5,0.5-0.9,0.5
		c-0.1,0-0.3,0-0.4,0v-0.5c0.1,0,0.2,0,0.3,0c0.4,0,0.7-0.4,0.9-1.2c0.2-0.8,0.4-2.2,0.5-4h3V128.1z"/>
	<path class="st2" d="M288.8,128.1h-0.6l1.7-2.4c-0.5-0.1-0.9-0.3-1.1-0.5c-0.2-0.3-0.3-0.6-0.3-1c0-0.5,0.2-0.9,0.5-1.2
		c0.3-0.3,0.8-0.4,1.4-0.4h2.3v5.6h-0.5v-2.4h-1.7L288.8,128.1z M288.9,124.1c0,0.4,0.1,0.7,0.4,0.9c0.3,0.2,0.6,0.3,1.1,0.3h1.7
		v-2.3h-1.8c-0.4,0-0.8,0.1-1,0.3C289,123.4,288.9,123.7,288.9,124.1z"/>
</g>
<g>
	<polyline class="st4" points="384.1,124.3 387.4,126.9 390.6,124.3 	"/>
</g>
<circle class="st5" cx="369.2" cy="94.4" r="8.9"/>
<circle class="st6" cx="348" cy="94.4" r="8.9"/>
<g>
	<g>
		<path class="st6" d="M373.4,90.8c-0.5-0.5-1.5-0.4-2.2,0.3l-3.5,3.5c-0.7,0.7-1.6,2-2.1,2.8l-0.5,0.9c-0.4,0.9-0.1,1.2,0.8,0.8
			l0.9-0.5c0.9-0.4,2.1-1.4,2.8-2.1l3.5-3.5C373.8,92.3,373.9,91.3,373.4,90.8z"/>
	</g>
	<line class="st6" x1="371" y1="91.2" x2="373" y2="93.2"/>
	<line class="st6" x1="366.1" y1="96.9" x2="367.3" y2="98.1"/>
</g>
<g class="st1">
	<path class="st2" d="M151,91.6c0.4,0,0.8,0.1,1.1,0.2s0.6,0.4,0.8,0.8h0c0-0.4,0-0.9,0-1.3v-2h0.5v8.1H153l-0.1-0.9h0
		c-0.4,0.6-1,1-1.8,1c-0.8,0-1.4-0.2-1.8-0.7s-0.6-1.2-0.6-2.1c0-1,0.2-1.7,0.6-2.2S150.2,91.6,151,91.6z M151,92.1
		c-0.6,0-1.1,0.2-1.4,0.6s-0.5,1.1-0.5,1.9c0,1.6,0.6,2.4,1.9,2.4c0.6,0,1.1-0.2,1.4-0.6c0.3-0.4,0.4-1,0.4-1.8v-0.1
		c0-0.9-0.1-1.5-0.4-1.9C152.1,92.3,151.6,92.1,151,92.1z"/>
	<path class="st2" d="M157.5,97.5c-0.8,0-1.5-0.3-1.9-0.8c-0.5-0.5-0.7-1.2-0.7-2.1c0-0.9,0.2-1.6,0.7-2.2s1-0.8,1.8-0.8
		c0.7,0,1.2,0.2,1.6,0.7c0.4,0.5,0.6,1.1,0.6,1.9v0.4h-4.1c0,0.8,0.2,1.4,0.5,1.8c0.4,0.4,0.9,0.6,1.5,0.6c0.3,0,0.6,0,0.8-0.1
		c0.2,0,0.6-0.1,0.9-0.3v0.5c-0.3,0.1-0.6,0.2-0.9,0.3C158.2,97.5,157.9,97.5,157.5,97.5z M157.4,92.1c-0.5,0-1,0.2-1.3,0.5
		s-0.5,0.9-0.6,1.5h3.5c0-0.7-0.1-1.2-0.4-1.5S157.9,92.1,157.4,92.1z"/>
	<path class="st2" d="M164.6,95.9c0,0.5-0.2,0.9-0.6,1.2c-0.4,0.3-0.9,0.4-1.6,0.4c-0.8,0-1.4-0.1-1.8-0.3v-0.6
		c0.6,0.3,1.2,0.4,1.8,0.4c0.6,0,1-0.1,1.3-0.3c0.3-0.2,0.4-0.4,0.4-0.7c0-0.3-0.1-0.5-0.3-0.7c-0.2-0.2-0.6-0.4-1.1-0.6
		c-0.6-0.2-1-0.4-1.2-0.5c-0.2-0.1-0.4-0.3-0.5-0.5c-0.1-0.2-0.2-0.4-0.2-0.7c0-0.4,0.2-0.8,0.5-1c0.4-0.2,0.9-0.4,1.5-0.4
		c0.6,0,1.2,0.1,1.7,0.3l-0.2,0.5c-0.6-0.2-1.1-0.3-1.5-0.3c-0.5,0-0.8,0.1-1.1,0.2c-0.3,0.2-0.4,0.4-0.4,0.6c0,0.3,0.1,0.5,0.3,0.7
		c0.2,0.2,0.6,0.4,1.2,0.6c0.5,0.2,0.9,0.3,1.1,0.5c0.2,0.1,0.4,0.3,0.5,0.5C164.5,95.4,164.6,95.7,164.6,95.9z"/>
	<path class="st2" d="M166,90.2c0-0.3,0.1-0.5,0.3-0.5c0.1,0,0.2,0,0.3,0.1c0.1,0.1,0.1,0.2,0.1,0.4c0,0.2,0,0.3-0.1,0.4
		c-0.1,0.1-0.1,0.1-0.3,0.1C166.1,90.7,166,90.5,166,90.2z M166.5,97.4H166v-5.6h0.5V97.4z"/>
	<path class="st2" d="M172.8,91.7v0.4l-1.2,0.1c0.3,0.4,0.5,0.8,0.5,1.3c0,0.5-0.2,1-0.5,1.3c-0.4,0.3-0.8,0.5-1.5,0.5
		c-0.3,0-0.4,0-0.5,0c-0.2,0.1-0.4,0.2-0.5,0.4c-0.1,0.1-0.2,0.3-0.2,0.5c0,0.2,0.1,0.3,0.2,0.4c0.1,0.1,0.4,0.1,0.7,0.1h1
		c0.6,0,1.1,0.1,1.4,0.4s0.5,0.6,0.5,1.1c0,0.6-0.2,1.1-0.7,1.4c-0.5,0.3-1.2,0.5-2.1,0.5c-0.7,0-1.3-0.1-1.6-0.4
		c-0.4-0.3-0.6-0.7-0.6-1.1c0-0.4,0.1-0.7,0.4-1c0.2-0.3,0.6-0.4,1-0.5c-0.2-0.1-0.3-0.2-0.4-0.3c-0.1-0.1-0.2-0.3-0.2-0.5
		c0-0.4,0.2-0.7,0.7-1c-0.3-0.1-0.6-0.3-0.8-0.6c-0.2-0.3-0.3-0.6-0.3-1c0-0.6,0.2-1,0.5-1.4c0.4-0.3,0.8-0.5,1.5-0.5
		c0.4,0,0.7,0,0.9,0.1H172.8z M168.3,98.3c0,0.8,0.6,1.2,1.7,1.2c1.5,0,2.2-0.5,2.2-1.4c0-0.3-0.1-0.6-0.3-0.7
		c-0.2-0.2-0.6-0.2-1.1-0.2h-0.9C168.8,97.1,168.3,97.5,168.3,98.3z M168.7,93.5c0,0.4,0.1,0.8,0.4,1s0.6,0.4,1.1,0.4
		c0.5,0,0.8-0.1,1.1-0.4c0.3-0.2,0.4-0.6,0.4-1c0-0.5-0.1-0.8-0.4-1.1s-0.6-0.4-1.1-0.4c-0.4,0-0.8,0.1-1.1,0.4S168.7,93,168.7,93.5
		z"/>
	<path class="st2" d="M177.9,97.4v-3.7c0-0.6-0.1-1-0.4-1.2c-0.2-0.3-0.6-0.4-1.1-0.4c-0.7,0-1.2,0.2-1.5,0.5s-0.5,0.9-0.5,1.7v3.1
		H174v-5.6h0.4l0.1,0.8h0c0.4-0.6,1-0.9,2-0.9c1.3,0,1.9,0.7,1.9,2.1v3.7H177.9z"/>
	<path class="st2" d="M187.3,97.4v-3.7c0-0.5-0.1-1-0.3-1.2c-0.2-0.3-0.5-0.4-1-0.4c-0.6,0-1,0.2-1.3,0.5c-0.3,0.3-0.4,0.8-0.4,1.5
		v3.3h-0.5v-3.9c0-1-0.4-1.4-1.3-1.4c-0.6,0-1,0.2-1.3,0.5c-0.3,0.3-0.4,0.9-0.4,1.7v3.1h-0.5v-5.6h0.4l0.1,0.8h0
		c0.2-0.3,0.4-0.5,0.7-0.7c0.3-0.2,0.6-0.2,0.9-0.2c0.9,0,1.5,0.3,1.7,1h0c0.2-0.3,0.4-0.6,0.7-0.7s0.7-0.3,1.1-0.3
		c0.6,0,1.1,0.2,1.4,0.5c0.3,0.3,0.5,0.9,0.5,1.6v3.7H187.3z"/>
	<path class="st2" d="M193.1,97.4l-0.1-0.9h0c-0.3,0.4-0.6,0.6-0.9,0.8s-0.7,0.2-1.1,0.2c-0.6,0-1-0.1-1.3-0.4
		c-0.3-0.3-0.5-0.7-0.5-1.2c0-0.5,0.2-1,0.7-1.3c0.5-0.3,1.1-0.5,2-0.5l1.1,0v-0.4c0-0.5-0.1-0.9-0.3-1.2c-0.2-0.3-0.6-0.4-1.1-0.4
		c-0.5,0-1.1,0.1-1.6,0.4l-0.2-0.4c0.6-0.3,1.2-0.4,1.8-0.4c0.6,0,1.1,0.2,1.4,0.5c0.3,0.3,0.5,0.8,0.5,1.5v3.8H193.1z M191,97
		c0.6,0,1.1-0.2,1.4-0.5c0.3-0.3,0.5-0.8,0.5-1.4v-0.6l-1,0c-0.8,0-1.4,0.2-1.7,0.4c-0.3,0.2-0.5,0.5-0.5,1c0,0.4,0.1,0.6,0.3,0.8
		C190.3,96.9,190.6,97,191,97z"/>
	<path class="st2" d="M197.7,97.5c-0.9,0-1.5-0.3-1.9-1h0l0,0.4c0,0.3,0,0.5,0,0.8v2.1h-0.5v-8.2h0.4l0.1,0.8h0
		c0.4-0.6,1-0.9,1.9-0.9c0.8,0,1.3,0.3,1.7,0.8s0.6,1.2,0.6,2.2c0,0.9-0.2,1.6-0.6,2.2C199,97.2,198.4,97.5,197.7,97.5z M197.7,97
		c0.6,0,1-0.2,1.3-0.6s0.5-1,0.5-1.8c0-1.7-0.6-2.5-1.8-2.5c-0.7,0-1.1,0.2-1.4,0.5c-0.3,0.4-0.5,1-0.5,1.8v0.2
		c0,0.9,0.1,1.5,0.4,1.9C196.5,96.8,197,97,197.7,97z"/>
	<path class="st2" d="M201.5,97c0-0.3,0.1-0.5,0.4-0.5c0.3,0,0.4,0.2,0.4,0.5c0,0.3-0.1,0.5-0.4,0.5C201.6,97.5,201.5,97.3,201.5,97
		z"/>
	<path class="st2" d="M206.4,91.6c0.2,0,0.5,0,0.8,0.1l-0.1,0.5c-0.2-0.1-0.5-0.1-0.7-0.1c-0.5,0-0.9,0.2-1.2,0.6
		c-0.3,0.4-0.5,0.9-0.5,1.5v3.1h-0.5v-5.6h0.4l0.1,1h0c0.2-0.4,0.5-0.7,0.7-0.9C205.7,91.7,206,91.6,206.4,91.6z"/>
	<path class="st2" d="M208.7,91.7v3.7c0,0.6,0.1,1,0.4,1.2c0.2,0.3,0.6,0.4,1.1,0.4c0.7,0,1.2-0.2,1.5-0.5c0.3-0.3,0.5-0.9,0.5-1.7
		v-3.1h0.5v5.6h-0.4l-0.1-0.8h0c-0.4,0.6-1,0.9-2,0.9c-1.3,0-1.9-0.7-1.9-2.1v-3.7H208.7z"/>
	<path class="st2" d="M222.4,93.6c0,0.8-0.2,1.4-0.5,1.9c-0.3,0.5-0.7,0.7-1.3,0.7c-0.3,0-0.6-0.1-0.7-0.3c-0.2-0.2-0.3-0.4-0.3-0.8
		h0c-0.1,0.3-0.4,0.6-0.6,0.8s-0.6,0.3-1,0.3c-0.5,0-0.9-0.2-1.2-0.5c-0.3-0.3-0.4-0.8-0.4-1.4c0-0.7,0.2-1.3,0.6-1.7
		c0.4-0.4,1-0.7,1.6-0.7c0.5,0,1,0.1,1.5,0.2l-0.1,2.4v0.2c0,0.4,0.1,0.6,0.2,0.8s0.3,0.3,0.6,0.3c0.4,0,0.6-0.2,0.9-0.6
		s0.3-0.9,0.3-1.6c0-0.7-0.1-1.3-0.4-1.8c-0.3-0.5-0.7-0.9-1.2-1.2c-0.5-0.3-1.1-0.4-1.7-0.4c-0.8,0-1.5,0.2-2.1,0.5
		c-0.6,0.3-1.1,0.8-1.4,1.5s-0.5,1.4-0.5,2.2c0,1.1,0.3,2,0.9,2.6c0.6,0.6,1.4,0.9,2.5,0.9c0.3,0,0.6,0,1-0.1
		c0.3-0.1,0.7-0.2,1.2-0.4V98c-0.7,0.3-1.4,0.4-2.1,0.4c-1.2,0-2.1-0.3-2.8-1c-0.7-0.7-1-1.7-1-2.9c0-0.9,0.2-1.7,0.6-2.4
		s0.9-1.3,1.6-1.6c0.7-0.4,1.5-0.6,2.3-0.6c0.7,0,1.4,0.2,2,0.5c0.6,0.3,1,0.7,1.3,1.3C222.3,92.2,222.4,92.9,222.4,93.6z
		 M216.9,94.3c0,0.5,0.1,0.9,0.3,1.1c0.2,0.2,0.5,0.4,0.9,0.4c0.9,0,1.4-0.6,1.4-1.8l0.1-1.5c-0.3-0.1-0.6-0.1-1-0.1
		c-0.5,0-0.9,0.2-1.2,0.5C217,93.2,216.9,93.7,216.9,94.3z"/>
	<path class="st2" d="M228.4,91.7v0.4l-1.2,0.1c0.3,0.4,0.5,0.8,0.5,1.3c0,0.5-0.2,1-0.5,1.3c-0.4,0.3-0.8,0.5-1.5,0.5
		c-0.3,0-0.4,0-0.5,0c-0.2,0.1-0.4,0.2-0.5,0.4c-0.1,0.1-0.2,0.3-0.2,0.5c0,0.2,0.1,0.3,0.2,0.4c0.1,0.1,0.4,0.1,0.7,0.1h1
		c0.6,0,1.1,0.1,1.4,0.4s0.5,0.6,0.5,1.1c0,0.6-0.2,1.1-0.7,1.4c-0.5,0.3-1.2,0.5-2.1,0.5c-0.7,0-1.3-0.1-1.6-0.4
		c-0.4-0.3-0.6-0.7-0.6-1.1c0-0.4,0.1-0.7,0.4-1c0.2-0.3,0.6-0.4,1-0.5c-0.2-0.1-0.3-0.2-0.4-0.3c-0.1-0.1-0.2-0.3-0.2-0.5
		c0-0.4,0.2-0.7,0.7-1c-0.3-0.1-0.6-0.3-0.8-0.6c-0.2-0.3-0.3-0.6-0.3-1c0-0.6,0.2-1,0.5-1.4c0.4-0.3,0.8-0.5,1.5-0.5
		c0.4,0,0.7,0,0.9,0.1H228.4z M223.8,98.3c0,0.8,0.6,1.2,1.7,1.2c1.5,0,2.2-0.5,2.2-1.4c0-0.3-0.1-0.6-0.3-0.7
		c-0.2-0.2-0.6-0.2-1.1-0.2h-0.9C224.3,97.1,223.8,97.5,223.8,98.3z M224.2,93.5c0,0.4,0.1,0.8,0.4,1s0.6,0.4,1.1,0.4
		c0.5,0,0.8-0.1,1.1-0.4c0.3-0.2,0.4-0.6,0.4-1c0-0.5-0.1-0.8-0.4-1.1s-0.6-0.4-1.1-0.4c-0.4,0-0.8,0.1-1.1,0.4S224.2,93,224.2,93.5
		z"/>
	<path class="st2" d="M236.6,97.4v-3.7c0-0.5-0.1-1-0.3-1.2c-0.2-0.3-0.5-0.4-1-0.4c-0.6,0-1,0.2-1.3,0.5c-0.3,0.3-0.4,0.8-0.4,1.5
		v3.3H233v-3.9c0-1-0.4-1.4-1.3-1.4c-0.6,0-1,0.2-1.3,0.5c-0.3,0.3-0.4,0.9-0.4,1.7v3.1h-0.5v-5.6h0.4l0.1,0.8h0
		c0.2-0.3,0.4-0.5,0.7-0.7c0.3-0.2,0.6-0.2,0.9-0.2c0.9,0,1.5,0.3,1.7,1h0c0.2-0.3,0.4-0.6,0.7-0.7s0.7-0.3,1.1-0.3
		c0.6,0,1.1,0.2,1.4,0.5c0.3,0.3,0.5,0.9,0.5,1.6v3.7H236.6z"/>
	<path class="st2" d="M242.3,97.4l-0.1-0.9h0c-0.3,0.4-0.6,0.6-0.9,0.8s-0.7,0.2-1.1,0.2c-0.6,0-1-0.1-1.3-0.4
		c-0.3-0.3-0.5-0.7-0.5-1.2c0-0.5,0.2-1,0.7-1.3c0.5-0.3,1.1-0.5,2-0.5l1.1,0v-0.4c0-0.5-0.1-0.9-0.3-1.2c-0.2-0.3-0.6-0.4-1.1-0.4
		c-0.5,0-1.1,0.1-1.6,0.4l-0.2-0.4c0.6-0.3,1.2-0.4,1.8-0.4c0.6,0,1.1,0.2,1.4,0.5c0.3,0.3,0.5,0.8,0.5,1.5v3.8H242.3z M240.2,97
		c0.6,0,1.1-0.2,1.4-0.5c0.3-0.3,0.5-0.8,0.5-1.4v-0.6l-1,0c-0.8,0-1.4,0.2-1.7,0.4c-0.3,0.2-0.5,0.5-0.5,1c0,0.4,0.1,0.6,0.3,0.8
		C239.5,96.9,239.8,97,240.2,97z"/>
	<path class="st2" d="M244.5,90.2c0-0.3,0.1-0.5,0.3-0.5c0.1,0,0.2,0,0.3,0.1c0.1,0.1,0.1,0.2,0.1,0.4c0,0.2,0,0.3-0.1,0.4
		c-0.1,0.1-0.1,0.1-0.3,0.1C244.6,90.7,244.5,90.5,244.5,90.2z M245,97.4h-0.5v-5.6h0.5V97.4z"/>
	<path class="st2" d="M247.4,97.4h-0.5v-8.1h0.5V97.4z"/>
	<path class="st2" d="M249.2,97c0-0.3,0.1-0.5,0.4-0.5c0.3,0,0.4,0.2,0.4,0.5c0,0.3-0.1,0.5-0.4,0.5C249.4,97.5,249.2,97.3,249.2,97
		z"/>
	<path class="st2" d="M254.1,97.5c-0.8,0-1.4-0.3-1.9-0.8c-0.5-0.5-0.7-1.2-0.7-2.1c0-0.9,0.2-1.7,0.7-2.2c0.5-0.5,1.1-0.8,1.9-0.8
		c0.5,0,1,0.1,1.4,0.3l-0.1,0.5c-0.5-0.2-0.9-0.2-1.3-0.2c-0.7,0-1.2,0.2-1.6,0.6c-0.4,0.4-0.5,1-0.5,1.8c0,0.8,0.2,1.4,0.5,1.8
		c0.4,0.4,0.9,0.6,1.5,0.6c0.5,0,1-0.1,1.4-0.3v0.5C255.2,97.4,254.7,97.5,254.1,97.5z"/>
	<path class="st2" d="M261.6,94.5c0,0.9-0.2,1.6-0.7,2.2c-0.4,0.5-1.1,0.8-1.8,0.8c-0.5,0-0.9-0.1-1.3-0.4c-0.4-0.2-0.7-0.6-0.9-1
		c-0.2-0.4-0.3-1-0.3-1.5c0-0.9,0.2-1.6,0.7-2.2s1.1-0.8,1.8-0.8c0.8,0,1.4,0.3,1.8,0.8C261.3,92.9,261.6,93.6,261.6,94.5z
		 M257.1,94.5c0,0.8,0.2,1.4,0.5,1.8c0.3,0.4,0.8,0.7,1.4,0.7c0.6,0,1.1-0.2,1.4-0.7c0.3-0.4,0.5-1,0.5-1.8c0-0.8-0.2-1.4-0.5-1.8
		c-0.3-0.4-0.8-0.6-1.5-0.6c-0.6,0-1.1,0.2-1.4,0.6C257.3,93.2,257.1,93.8,257.1,94.5z"/>
	<path class="st2" d="M270.2,97.4v-3.7c0-0.5-0.1-1-0.3-1.2c-0.2-0.3-0.5-0.4-1-0.4c-0.6,0-1,0.2-1.3,0.5c-0.3,0.3-0.4,0.8-0.4,1.5
		v3.3h-0.5v-3.9c0-1-0.4-1.4-1.3-1.4c-0.6,0-1,0.2-1.3,0.5c-0.3,0.3-0.4,0.9-0.4,1.7v3.1h-0.5v-5.6h0.4l0.1,0.8h0
		c0.2-0.3,0.4-0.5,0.7-0.7c0.3-0.2,0.6-0.2,0.9-0.2c0.9,0,1.5,0.3,1.7,1h0c0.2-0.3,0.4-0.6,0.7-0.7s0.7-0.3,1.1-0.3
		c0.6,0,1.1,0.2,1.4,0.5c0.3,0.3,0.5,0.9,0.5,1.6v3.7H270.2z"/>
</g>
<g id="eye_4_">
	<path class="st7" d="M348.5,98.1c-2.1,0-4.1-1.2-5.1-3c1-1.8,3-3,5.1-3s4.1,1.2,5.1,3C352.6,96.9,350.5,98.1,348.5,98.1z"/>
	<path class="st7" d="M348.5,93.6L348.5,93.6c-0.8,0-1.5,0.7-1.5,1.5"/>
	<path class="st7" d="M348.5,97.3c-1.2,0-2.2-1-2.2-2.2s1-2.2,2.2-2.2s2.2,1,2.2,2.2S349.7,97.3,348.5,97.3z"/>
</g>
<line class="st4" x1="390.6" y1="90" x2="382.2" y2="98.4"/>
<line class="st4" x1="382.2" y1="90" x2="390.5" y2="98.4"/>
<g class="st1">
	<path class="st2" d="M166.5,176.6c0,1.3-0.3,2.4-1,3.1s-1.6,1.2-2.7,1.2c-1.2,0-2.1-0.4-2.7-1.2s-1-1.8-1-3.2c0-1.3,0.3-2.4,1-3.1
		c0.7-0.8,1.6-1.1,2.7-1.1c1.2,0,2.1,0.4,2.7,1.2C166.2,174.2,166.5,175.2,166.5,176.6z M159.7,176.6c0,1.2,0.3,2.1,0.8,2.8
		c0.5,0.7,1.3,1,2.3,1c1,0,1.8-0.3,2.3-1c0.5-0.6,0.8-1.6,0.8-2.8c0-1.2-0.3-2.1-0.8-2.8c-0.5-0.6-1.3-1-2.3-1c-1,0-1.8,0.3-2.3,1
		C159.9,174.4,159.7,175.4,159.7,176.6z"/>
	<path class="st2" d="M172.2,175h-2.1v5.7h-0.6V175h-2.1v-0.5h4.8V175z"/>
	<path class="st2" d="M176.9,174.5h0.7l-2.8,3l3,3.2H177l-2.9-3.2v3.2h-0.6v-6.2h0.6v3L176.9,174.5z"/>
	<path class="st2" d="M181.5,180.9c-1,0-1.7-0.4-2.1-1.1h0l0,0.5c0,0.3,0,0.6,0,0.9v2.4h-0.6v-9h0.5l0.1,0.9h0c0.4-0.7,1.1-1,2-1
		c0.8,0,1.5,0.3,1.9,0.8s0.7,1.4,0.7,2.4c0,1-0.2,1.8-0.7,2.4C183,180.6,182.3,180.9,181.5,180.9z M181.5,180.4
		c0.6,0,1.1-0.2,1.5-0.7c0.3-0.5,0.5-1.1,0.5-2c0-1.8-0.7-2.7-2-2.7c-0.7,0-1.3,0.2-1.6,0.6c-0.3,0.4-0.5,1-0.5,1.9v0.2
		c0,1,0.2,1.7,0.5,2.1C180.3,180.2,180.8,180.4,181.5,180.4z"/>
	<path class="st2" d="M186.4,177.2h2c1.5,0,2.2,0.6,2.2,1.7c0,0.6-0.2,1.1-0.6,1.4c-0.4,0.3-1,0.5-1.8,0.5h-2.4v-6.2h0.6V177.2z
		 M186.4,177.7v2.5h1.9c0.5,0,1-0.1,1.2-0.3c0.3-0.2,0.4-0.6,0.4-1c0-0.4-0.1-0.7-0.4-0.9c-0.3-0.2-0.7-0.3-1.3-0.3H186.4z
		 M192.2,180.8h-0.6v-6.2h0.6V180.8z"/>
	<path class="st2" d="M198.3,175h-2.1v5.7h-0.6V175h-2.1v-0.5h4.8V175z"/>
	<path class="st2" d="M200.1,177.2h2.2c1.5,0,2.2,0.6,2.2,1.7c0,0.6-0.2,1.1-0.6,1.4c-0.4,0.3-1,0.5-1.8,0.5h-2.6v-6.2h0.6V177.2z
		 M200.1,177.7v2.5h2.1c0.5,0,1-0.1,1.2-0.3c0.3-0.2,0.4-0.6,0.4-1c0-0.4-0.1-0.7-0.4-0.9c-0.3-0.2-0.7-0.3-1.3-0.3H200.1z"/>
	<path class="st2" d="M214.3,182.9h-0.6v-2.1H209v2.1h-0.6v-2.6h0.4c0.5-0.7,0.9-1.6,1.2-2.5c0.3-1,0.4-2,0.4-3.1h3v5.7h0.8V182.9z
		 M212.9,180.2v-5.2H211c-0.1,2.1-0.6,3.8-1.5,5.2H212.9z"/>
	<path class="st2" d="M220.8,177.6c0,1-0.2,1.8-0.7,2.4c-0.5,0.6-1.2,0.9-2,0.9c-0.5,0-1-0.1-1.4-0.4s-0.7-0.6-1-1.1
		c-0.2-0.5-0.3-1.1-0.3-1.7c0-1,0.2-1.8,0.7-2.4c0.5-0.6,1.2-0.8,2-0.8c0.9,0,1.5,0.3,2,0.9C220.5,175.9,220.8,176.6,220.8,177.6z
		 M215.9,177.6c0,0.9,0.2,1.5,0.6,2c0.4,0.5,0.9,0.7,1.6,0.7s1.2-0.2,1.6-0.7s0.6-1.1,0.6-2c0-0.9-0.2-1.5-0.6-2s-0.9-0.7-1.6-0.7
		s-1.2,0.2-1.6,0.7C216.1,176.1,215.9,176.8,215.9,177.6z"/>
	<path class="st2" d="M225,180.9c-0.9,0-1.6-0.3-2.1-0.8s-0.8-1.3-0.8-2.3c0-1,0.3-1.8,0.8-2.4c0.5-0.6,1.2-0.9,2.1-0.9
		c0.5,0,1.1,0.1,1.5,0.3l-0.2,0.5c-0.5-0.2-1-0.3-1.4-0.3c-0.8,0-1.3,0.2-1.7,0.7c-0.4,0.5-0.6,1.1-0.6,2c0,0.8,0.2,1.5,0.6,2
		c0.4,0.5,0.9,0.7,1.6,0.7c0.6,0,1.1-0.1,1.6-0.3v0.5C226.2,180.8,225.6,180.9,225,180.9z"/>
	<path class="st2" d="M232,175h-2.1v5.7h-0.6V175h-2.1v-0.5h4.8V175z"/>
	<path class="st2" d="M232.3,174.5h0.6l1.3,3.5c0.4,1.1,0.7,1.8,0.8,2.2h0c0.2-0.5,0.4-1.2,0.8-2.2l1.3-3.5h0.6l-2.8,7.2
		c-0.2,0.6-0.4,1-0.6,1.2c-0.2,0.2-0.3,0.4-0.5,0.5c-0.2,0.1-0.5,0.2-0.7,0.2c-0.2,0-0.5,0-0.7-0.1V183c0.2,0.1,0.5,0.1,0.7,0.1
		c0.2,0,0.4,0,0.5-0.1c0.1-0.1,0.3-0.2,0.4-0.4s0.3-0.5,0.4-0.9c0.2-0.4,0.3-0.7,0.3-0.8L232.3,174.5z"/>
	<path class="st2" d="M239.2,180.8h-0.6v-6.2h5v6.2h-0.6v-5.7h-3.8V180.8z"/>
</g>
<g class="st1">
	<path class="st2" d="M316.2,176.6c0,1.3-0.3,2.4-1,3.1c-0.7,0.8-1.6,1.2-2.8,1.2c-1.2,0-2.1-0.4-2.8-1.2s-1-1.8-1-3.2
		c0-1.3,0.3-2.4,1-3.1c0.7-0.8,1.6-1.1,2.8-1.1c1.2,0,2.1,0.4,2.8,1.2C315.8,174.2,316.2,175.2,316.2,176.6z M309.1,176.6
		c0,1.2,0.3,2.1,0.8,2.8c0.6,0.7,1.3,1,2.4,1c1,0,1.8-0.3,2.4-1s0.8-1.6,0.8-2.8c0-1.2-0.3-2.1-0.8-2.8s-1.3-1-2.4-1
		c-1,0-1.8,0.3-2.4,1S309.1,175.4,309.1,176.6z"/>
	<path class="st2" d="M322.1,175H320v5.7h-0.6V175h-2.2v-0.5h4.9V175z"/>
	<path class="st2" d="M326.4,180.1l0.4-1l1.8-4.6h0.8v6.2h-0.6v-5.5c-0.1,0.2-0.2,0.5-0.3,0.7c-0.1,0.3-0.7,1.8-1.9,4.8h-0.5
		l-1.8-4.4c-0.1-0.2-0.1-0.4-0.2-0.6c-0.1-0.2-0.1-0.4-0.2-0.6v5.6h-0.5v-6.2h0.8l1.9,4.6C326.2,179.5,326.3,179.8,326.4,180.1z"/>
	<path class="st2" d="M334.2,180.9c-0.9,0-1.7-0.3-2.2-0.8s-0.8-1.3-0.8-2.3c0-1,0.3-1.8,0.8-2.4c0.5-0.6,1.2-0.9,2-0.9
		c0.8,0,1.4,0.3,1.8,0.8c0.4,0.5,0.7,1.2,0.7,2.1v0.5h-4.6c0,0.9,0.2,1.5,0.6,2s1,0.7,1.7,0.7c0.4,0,0.7,0,1-0.1
		c0.3,0,0.6-0.2,1.1-0.3v0.5c-0.4,0.2-0.7,0.3-1,0.3C334.9,180.8,334.5,180.9,334.2,180.9z M334,174.9c-0.6,0-1.1,0.2-1.5,0.6
		c-0.4,0.4-0.6,1-0.7,1.7h4c0-0.7-0.2-1.3-0.5-1.7S334.6,174.9,334,174.9z"/>
	<path class="st2" d="M338.8,174.5v2.7h4.1v-2.7h0.6v6.2h-0.6v-3h-4.1v3h-0.6v-6.2H338.8z"/>
	<path class="st2" d="M346.1,174.5v4.5l0,1.2l3.8-5.7h0.8v6.2h-0.6v-4.5l0-1.2l-3.8,5.7h-0.8v-6.2H346.1z"/>
	<path class="st2" d="M356.9,175h-2.1v5.7h-0.6V175H352v-0.5h4.9V175z"/>
	<path class="st2" d="M358.8,177.2h2.3c1.5,0,2.3,0.6,2.3,1.7c0,0.6-0.2,1.1-0.6,1.4c-0.4,0.3-1,0.5-1.8,0.5h-2.7v-6.2h0.6V177.2z
		 M358.8,177.7v2.5h2.2c0.6,0,1-0.1,1.3-0.3s0.4-0.6,0.4-1c0-0.4-0.1-0.7-0.4-0.9c-0.3-0.2-0.7-0.3-1.4-0.3H358.8z"/>
</g>
<path class="st8" d="M258,163v27H144v-27H258 M259,162H143v29h116V162L259,162z"/>
<path class="st8" d="M393,163v27H280v-27H393 M394,162H279v29h115V162L394,162z"/>
<path class="st9" d="M509.1,62.9C494.9,77,477.2,87.5,457.6,93c-15.2,4.3-31,6-46.7,5.1c3,3.4,6.5,6.3,10.4,8.6
	c4,2.5,0.2,8.7-3.8,6.2c-7.1-4.2-13.1-10.1-17.3-17.2c-0.5-0.9-0.6-2-0.2-3c0.3-1.6,1.8-2.7,3.3-2.4l0,0c5.1-0.2,13.8-6.4,16.4-10.7
	s9-0.2,6.5,3.7c-2.1,3-4.6,5.6-7.6,7.7c31.5,0,62.6-10.4,85.5-33C511,51.3,515.1,57,509.1,62.9z"/>
<path class="st9" d="M32.7,93.7c22.9,22.6,54,33,85.5,33c-3-2.1-5.6-4.7-7.6-7.7c-2.5-4,3.9-8,6.5-3.7s11.3,10.5,16.4,10.7l0,0
	c1.6-0.3,3.1,0.8,3.3,2.4c0.4,1,0.3,2.1-0.2,3c-4.3,7.1-10.2,13-17.3,17.2c-4,2.5-7.8-3.7-3.8-6.2c3.9-2.3,7.4-5.2,10.4-8.6
	c-15.7,1-31.5-0.8-46.7-5.1c-19.6-5.5-37.2-15.9-51.5-30.1C21.6,92.8,25.7,87.1,32.7,93.7z"/>
<g>
	<g>
		<path class="st9" d="M11.5,53.9c0.2-6.2,9-2.6,7.1,3.3c-1.3,3.8-5.8,5.3-8.9,7.3C5.6,67.2-3.1,74.1-0.5,80
			c1.7,3.8,7.3,3.3,10.7,3.3c5.1,0.1,10.4,0.2,15.4-0.9c5.6-1.3,3.3-10-2.4-8.7c-3.3,0.8-6.9,0.7-10.3,0.7c-1.7,0-3.4,0-5.1-0.1
			c-0.6,0-1.8-0.3-2.4-0.1c-0.9,0.2-0.4-0.4,0.5,0.3c0.7,1.3,1.5,2.6,2.2,3.9c-0.5,1.4-0.4,1.3,0.4-0.3c0.6-0.9,1.2-1.8,2-2.6
			c1.1-1.2,2.4-2.2,3.8-3.1c2.9-1.9,6.2-3.3,8.8-5.8c4.3-4.1,6.1-10.5,4-16.2C22.3,37.2,3,39.9,2.5,53.9
			C2.3,59.7,11.3,59.7,11.5,53.9L11.5,53.9z"/>
	</g>
</g>
<g>
	<g>
		<path class="st9" d="M498.7,36.9c0.2,6.2,4.6,11.9,11.2,12.4c6.4,0.4,11.6-4.3,14-9.9c3.6-8.3-0.6-14.2-8.2-17.5
			c-0.1-0.1-1.4-0.3-0.8-0.3c-0.2-0.1-0.5-0.2-0.7-0.3c-1.2,5.6-0.6,7.4,1.5,5.3c2.3-1.2,4.5-3.7,6.2-5.5c2.8-2.9,7.9-9.1,2.6-12.4
			c-2.7-1.7-7.4-1.2-10.5-1.2c-4.5,0-9.3-0.1-13.8,1c-5.6,1.3-3.3,10,2.4,8.7c3.3-0.8,6.9-0.7,10.3-0.7c1.7,0,3.4,0,5.1,0.1
			c0.6,0,1.8,0.3,2.4,0.1c0.9-0.2,0.4,0.4-0.5-0.3c-0.7-1.3-1.5-2.6-2.2-3.9c0.5-1.3,0.4-1.3-0.2-0.2c-0.5,0.6-1,1.2-1.6,1.8
			c-0.9,1-1.9,1.9-2.9,2.8c-1.7,1.5-4.3,2.9-5.5,4.8c-1.8,2.8-0.3,5.8,2.3,7.3c1.7,0.9,4.9,1.3,6,3.1c2.7,4.5-8,12.2-8.3,4.5
			C507.5,31.2,498.5,31.1,498.7,36.9L498.7,36.9z"/>
	</g>
</g>
</svg>
