<?xml version="1.0" encoding="utf-8"?>
<!-- Generator: Adobe Illustrator 19.2.1, SVG Export Plug-In . SVG Version: 6.00 Build 0)  -->
<svg version="1.1" id="Слой_1" xmlns="http://www.w3.org/2000/svg" xmlns:xlink="http://www.w3.org/1999/xlink" x="0px" y="0px"
	 viewBox="0 0 500 200" style="enable-background:new 0 0 500 200;" xml:space="preserve">
<g>
	<g>
		<rect y="18.8" style="fill:none;" width="500" height="19.8"/>
		<g style="enable-background:new    ;">
			<path style="fill:#828282;" d="M230.7,27.8c0,0.9-0.3,1.7-1,2.2s-1.6,0.8-2.7,0.8c-1.4,0-2.4-0.1-3.1-0.4v-0.8
				c0.8,0.3,1.8,0.5,3.1,0.5c0.9,0,1.6-0.2,2.2-0.6c0.5-0.4,0.8-1,0.8-1.6c0-0.4-0.1-0.8-0.3-1c-0.2-0.3-0.5-0.5-0.9-0.8
				c-0.4-0.2-1-0.5-1.8-0.7c-1.1-0.4-1.9-0.8-2.4-1.3c-0.4-0.5-0.7-1.1-0.7-1.8c0-0.8,0.3-1.5,1-2s1.5-0.8,2.5-0.8s2,0.2,2.9,0.6
				l-0.3,0.7c-0.9-0.4-1.8-0.6-2.7-0.6c-0.8,0-1.5,0.2-2,0.6s-0.7,0.9-0.7,1.6c0,0.4,0.1,0.7,0.2,1c0.1,0.3,0.4,0.5,0.7,0.7
				s0.9,0.5,1.8,0.8c0.9,0.3,1.5,0.6,2,0.9c0.4,0.3,0.8,0.6,1,1C230.6,26.8,230.7,27.3,230.7,27.8z"/>
			<path style="fill:#828282;" d="M235,30.1c0.5,0,0.9,0,1.2-0.1v0.6c-0.4,0.1-0.8,0.2-1.3,0.2c-0.7,0-1.3-0.2-1.6-0.6
				s-0.5-1-0.5-1.8V23h-1.2v-0.4l1.2-0.3l0.4-1.9h0.4v2h2.4V23h-2.4v5.2c0,0.6,0.1,1.1,0.3,1.4C234.2,30,234.5,30.1,235,30.1z"/>
			<path style="fill:#828282;" d="M237.9,20.1c0-0.5,0.2-0.7,0.5-0.7c0.2,0,0.3,0.1,0.4,0.2s0.1,0.3,0.1,0.5s0,0.4-0.1,0.5
				s-0.2,0.2-0.4,0.2C238.1,20.8,237.9,20.6,237.9,20.1z M238.8,30.7H238v-8.3h0.8V30.7z"/>
			<path style="fill:#828282;" d="M244.9,30.8c-1.2,0-2.1-0.4-2.8-1.1s-1-1.8-1-3.1c0-1.4,0.3-2.4,1-3.2s1.6-1.1,2.9-1.1
				c0.7,0,1.4,0.1,2.1,0.4l-0.2,0.7c-0.7-0.2-1.3-0.4-1.9-0.4c-1,0-1.8,0.3-2.3,0.9s-0.8,1.5-0.8,2.7c0,1.1,0.3,2,0.8,2.6
				s1.3,0.9,2.2,0.9c0.8,0,1.4-0.1,2.1-0.4v0.7C246.4,30.7,245.7,30.8,244.9,30.8z"/>
			<path style="fill:#828282;" d="M249.7,27l4.2-4.6h0.9l-3.3,3.5l3.5,4.7h-0.9l-3.1-4.2l-1.4,1.2v2.9H249V18.8h0.8v5.9L249.7,27
				L249.7,27z"/>
			<path style="fill:#828282;" d="M259.9,30.8c-1.2,0-2.1-0.4-2.8-1.1s-1-1.8-1-3.1c0-1.3,0.3-2.4,1-3.2s1.5-1.2,2.6-1.2
				c1,0,1.7,0.3,2.3,1c0.6,0.7,0.8,1.6,0.8,2.8v0.6h-6c0,1.1,0.3,2,0.8,2.6s1.3,0.9,2.2,0.9c0.5,0,0.9,0,1.2-0.1
				c0.4-0.1,0.8-0.2,1.4-0.4v0.7c-0.5,0.2-0.9,0.3-1.3,0.4S260.4,30.8,259.9,30.8z M259.7,22.9c-0.8,0-1.4,0.3-1.9,0.8
				S257,25,256.9,26h5.1c0-1-0.2-1.7-0.6-2.3C261,23.2,260.4,22.9,259.7,22.9z"/>
			<path style="fill:#828282;" d="M268.4,22.2c0.3,0,0.7,0,1.1,0.1l-0.1,0.7c-0.3-0.1-0.7-0.1-1.1-0.1c-0.7,0-1.3,0.3-1.7,0.9
				c-0.5,0.6-0.7,1.4-0.7,2.3v4.6h-0.8v-8.3h0.6l0.1,1.5h0.1c0.3-0.6,0.7-1,1.1-1.3C267.4,22.3,267.8,22.2,268.4,22.2z"/>
			<path style="fill:#828282;" d="M276.3,28.5c0,0.7-0.3,1.3-0.8,1.7c-0.6,0.4-1.4,0.6-2.4,0.6c-1.1,0-2-0.2-2.6-0.5v-0.8
				c0.8,0.4,1.7,0.6,2.6,0.6c0.8,0,1.4-0.1,1.9-0.4s0.6-0.6,0.6-1.1c0-0.4-0.2-0.8-0.5-1.1s-0.9-0.6-1.7-0.8
				c-0.8-0.3-1.4-0.6-1.7-0.8s-0.6-0.5-0.8-0.7c-0.2-0.3-0.3-0.6-0.3-1c0-0.6,0.3-1.1,0.8-1.5s1.2-0.5,2.2-0.5
				c0.9,0,1.7,0.2,2.5,0.5l-0.3,0.7c-0.8-0.3-1.6-0.5-2.3-0.5c-0.7,0-1.2,0.1-1.6,0.3c-0.4,0.2-0.6,0.5-0.6,0.9s0.2,0.8,0.5,1
				c0.3,0.3,0.9,0.5,1.8,0.9c0.7,0.3,1.3,0.5,1.6,0.7c0.3,0.2,0.6,0.5,0.8,0.7C276.2,27.8,276.3,28.1,276.3,28.5z"/>
		</g>
	</g>
</g>
<g>
	<g>
		<rect x="29" y="75.7" style="fill:none;" width="232.5" height="21.5"/>
		<g style="enable-background:new    ;">
			<path style="fill:#828282;" d="M33.5,83.9l-2.9-7.1l0,0c0,0.4,0,0.9,0,1.3v5.8h-0.5v-7.7h0.8l2.7,6.8l0,0l2.7-6.8h0.8v7.7h-0.5
				V78c0-0.4,0-0.8,0.1-1.3l0,0l-2.9,7.1h-0.3C33.5,83.8,33.5,83.9,33.5,83.9z"/>
			<path style="fill:#828282;" d="M42.8,83.9L42.7,83l0,0c-0.3,0.4-0.6,0.6-0.9,0.8C41.5,84,41.1,84,40.7,84c-0.6,0-1-0.1-1.3-0.4
				s-0.5-0.7-0.5-1.2c0-0.6,0.2-1,0.7-1.3s1.1-0.5,2-0.5h1.1v-0.4c0-0.5-0.1-1-0.3-1.2c-0.2-0.3-0.6-0.4-1.1-0.4s-1.1,0.1-1.7,0.4
				l-0.2-0.5c0.6-0.3,1.3-0.4,1.9-0.4c0.6,0,1.1,0.2,1.4,0.5c0.3,0.3,0.5,0.8,0.5,1.5v3.8H42.8z M40.7,83.5c0.6,0,1.1-0.2,1.5-0.5
				s0.5-0.8,0.5-1.5v-0.6h-1c-0.8,0-1.4,0.2-1.7,0.4c-0.3,0.2-0.5,0.5-0.5,1c0,0.4,0.1,0.6,0.3,0.8C40,83.4,40.3,83.5,40.7,83.5z"/>
			<path style="fill:#828282;" d="M46.5,80.9l-2-2.8h0.6l1.7,2.4l1.7-2.4h0.6l-2,2.8l2.1,3h-0.6l-1.8-2.6L45,83.9h-0.6L46.5,80.9z"
				/>
			<path style="fill:#828282;" d="M55.3,84c-0.8,0-1.3-0.3-1.8-0.8c-0.4-0.5-0.6-1.2-0.6-2.2s0.2-1.7,0.6-2.3c0.4-0.5,1-0.8,1.8-0.8
				s1.5,0.3,1.9,0.9l0,0l0.1-0.8h0.4v8.4h-0.5v-2.2c0-0.4,0-0.9,0-1.3l0,0C56.9,83.6,56.2,84,55.3,84z M55.3,83.5
				c0.7,0,1.2-0.2,1.5-0.6s0.4-1,0.4-1.9v-0.1c0-0.9-0.1-1.5-0.4-1.9c-0.3-0.4-0.8-0.6-1.4-0.6c-0.6,0-1.1,0.2-1.4,0.7
				s-0.5,1.1-0.5,1.9s0.2,1.4,0.5,1.8C54.3,83.3,54.7,83.5,55.3,83.5z"/>
			<path style="fill:#828282;" d="M60.2,78.1v3.7c0,0.6,0.1,1,0.4,1.3c0.2,0.3,0.6,0.4,1.1,0.4c0.7,0,1.2-0.2,1.5-0.5
				s0.5-0.9,0.5-1.7v-3.2h0.5v5.8h-0.4l-0.1-0.8l0,0c-0.4,0.6-1,0.9-2,0.9c-1.3,0-2-0.7-2-2.1v-3.8C59.7,78.1,60.2,78.1,60.2,78.1z"
				/>
			<path style="fill:#828282;" d="M69.6,83.9L69.5,83l0,0c-0.3,0.4-0.6,0.6-0.9,0.8C68.3,84,67.9,84,67.5,84c-0.6,0-1-0.1-1.3-0.4
				s-0.5-0.7-0.5-1.2c0-0.6,0.2-1,0.7-1.3s1.1-0.5,2-0.5h1.1v-0.4c0-0.5-0.1-1-0.3-1.2c-0.2-0.3-0.6-0.4-1.1-0.4S67,78.7,66.4,79
				l-0.2-0.5c0.6-0.3,1.3-0.4,1.9-0.4s1.1,0.2,1.4,0.5s0.5,0.8,0.5,1.5v3.8H69.6z M67.5,83.5c0.6,0,1.1-0.2,1.5-0.5s0.5-0.8,0.5-1.5
				v-0.6h-1c-0.8,0-1.4,0.2-1.7,0.4c-0.3,0.2-0.5,0.5-0.5,1c0,0.4,0.1,0.6,0.3,0.8C66.8,83.4,67.1,83.5,67.5,83.5z"/>
			<path style="fill:#828282;" d="M75.9,83.9v-3.7c0-0.6-0.1-1-0.4-1.3c-0.2-0.3-0.6-0.4-1.1-0.4c-0.7,0-1.2,0.2-1.5,0.5
				s-0.5,0.9-0.5,1.7v3.2h-0.5v-5.8h0.4l0.1,0.8l0,0c0.4-0.6,1-0.9,2-0.9c1.3,0,2,0.7,2,2.1v3.8C76.4,83.9,75.9,83.9,75.9,83.9z"/>
			<path style="fill:#828282;" d="M79.8,83.5c0.3,0,0.6,0,0.9-0.1v0.4c-0.3,0.1-0.5,0.1-0.9,0.1c-0.5,0-0.9-0.1-1.1-0.4
				s-0.4-0.7-0.4-1.3v-3.7h-0.9v-0.3l0.9-0.2l0.3-1.3h0.3v1.4h1.7v0.5h-1.7v3.6c0,0.4,0.1,0.8,0.2,1C79.2,83.4,79.4,83.5,79.8,83.5z
				"/>
			<path style="fill:#828282;" d="M81.8,76.5c0-0.3,0.1-0.5,0.3-0.5c0.1,0,0.2,0,0.3,0.1c0.1,0.1,0.1,0.2,0.1,0.4
				c0,0.2,0,0.3-0.1,0.4C82.3,77,82.2,77,82.1,77C81.9,77,81.8,76.9,81.8,76.5z M82.4,83.9h-0.5v-5.8h0.5V83.9z"/>
			<path style="fill:#828282;" d="M85.8,83.5c0.3,0,0.6,0,0.9-0.1v0.4c-0.3,0.1-0.5,0.1-0.9,0.1c-0.5,0-0.9-0.1-1.1-0.4
				s-0.4-0.7-0.4-1.3v-3.7h-0.9v-0.3l0.9-0.2l0.3-1.3h0.3v1.4h1.7v0.5h-1.7v3.6c0,0.4,0.1,0.8,0.2,1C85.3,83.4,85.5,83.5,85.8,83.5z
				"/>
			<path style="fill:#828282;" d="M87,78.1h0.5l1.2,3.2c0.4,1,0.6,1.7,0.7,2l0,0c0.1-0.5,0.4-1.1,0.7-2l1.2-3.2H92l-2.6,6.7
				c-0.2,0.5-0.4,0.9-0.5,1.1s-0.3,0.3-0.5,0.4s-0.4,0.1-0.7,0.1c-0.2,0-0.4,0-0.7-0.1v-0.5c0.2,0.1,0.4,0.1,0.7,0.1
				c0.2,0,0.3,0,0.5-0.1c0.1-0.1,0.3-0.2,0.4-0.4c0.1-0.2,0.2-0.5,0.4-0.8c0.1-0.4,0.2-0.6,0.3-0.8L87,78.1z"/>
			<path style="fill:#828282;" d="M97.9,78.6h-1.4v5.3H96v-5.3h-1.1v-0.3l1.1-0.2v-0.4c0-0.7,0.1-1.2,0.4-1.6
				c0.3-0.3,0.7-0.5,1.3-0.5c0.3,0,0.6,0,1,0.1l-0.1,0.5c-0.3-0.1-0.6-0.1-0.8-0.1c-0.4,0-0.7,0.1-0.9,0.4c-0.2,0.2-0.3,0.6-0.3,1.2
				v0.5H98L97.9,78.6L97.9,78.6z"/>
			<path style="fill:#828282;" d="M103.7,81c0,0.9-0.2,1.7-0.7,2.2s-1,0.8-1.8,0.8c-0.5,0-0.9-0.1-1.3-0.4c-0.4-0.2-0.7-0.6-0.9-1
				s-0.3-1-0.3-1.6c0-0.9,0.2-1.7,0.7-2.2s1.1-0.8,1.9-0.8s1.4,0.3,1.9,0.8C103.5,79.3,103.7,80.1,103.7,81z M99.2,81
				c0,0.8,0.2,1.4,0.5,1.8s0.8,0.7,1.5,0.7c0.6,0,1.1-0.2,1.5-0.7c0.3-0.4,0.5-1.1,0.5-1.8c0-0.8-0.2-1.4-0.5-1.8
				c-0.4-0.4-0.8-0.7-1.5-0.7c-0.6,0-1.1,0.2-1.5,0.7C99.4,79.6,99.2,80.2,99.2,81z"/>
			<path style="fill:#828282;" d="M107.6,78c0.2,0,0.5,0,0.8,0.1l-0.1,0.5c-0.2-0.1-0.5-0.1-0.7-0.1c-0.5,0-0.9,0.2-1.2,0.6
				c-0.3,0.4-0.5,0.9-0.5,1.6v3.2h-0.5v-5.8h0.4l0.1,1l0,0c0.2-0.4,0.5-0.7,0.8-0.9C106.9,78.1,107.2,78,107.6,78z"/>
			<path style="fill:#828282;" d="M117.1,81c0,0.9-0.2,1.7-0.7,2.2s-1.1,0.8-1.9,0.8c-0.5,0-0.9-0.1-1.3-0.4c-0.4-0.2-0.7-0.6-0.9-1
				s-0.3-1-0.3-1.6c0-0.9,0.2-1.7,0.7-2.2s1.1-0.8,1.9-0.8s1.4,0.3,1.9,0.8C116.9,79.3,117.1,80.1,117.1,81z M112.6,81
				c0,0.8,0.2,1.4,0.5,1.8s0.8,0.7,1.5,0.7c0.6,0,1.1-0.2,1.5-0.7c0.3-0.4,0.5-1.1,0.5-1.8c0-0.8-0.2-1.4-0.5-1.8
				c-0.4-0.4-0.8-0.7-1.5-0.7c-0.6,0-1.1,0.2-1.5,0.7C112.8,79.6,112.6,80.2,112.6,81z"/>
			<path style="fill:#828282;" d="M122.7,83.9v-3.7c0-0.6-0.1-1-0.4-1.3c-0.2-0.3-0.6-0.4-1.1-0.4c-0.7,0-1.2,0.2-1.5,0.5
				s-0.5,0.9-0.5,1.7v3.2h-0.5v-5.8h0.4l0.1,0.8l0,0c0.4-0.6,1-0.9,2-0.9c1.3,0,2,0.7,2,2.1v3.8C123.2,83.9,122.7,83.9,122.7,83.9z"
				/>
			<path style="fill:#828282;" d="M127.4,84c-0.8,0-1.5-0.3-2-0.8s-0.7-1.2-0.7-2.2c0-0.9,0.2-1.7,0.7-2.2c0.5-0.6,1.1-0.8,1.8-0.8
				c0.7,0,1.2,0.2,1.6,0.7s0.6,1.1,0.6,1.9V81h-4.1c0,0.8,0.2,1.4,0.6,1.8s0.9,0.6,1.6,0.6c0.3,0,0.6,0,0.9-0.1
				c0.2,0,0.6-0.1,0.9-0.3v0.5c-0.3,0.1-0.6,0.2-0.9,0.3C128.1,84,127.8,84,127.4,84z M127.3,78.5c-0.6,0-1,0.2-1.3,0.5
				c-0.3,0.4-0.5,0.9-0.6,1.6h3.6c0-0.7-0.1-1.2-0.4-1.6C128.2,78.7,127.8,78.5,127.3,78.5z"/>
			<path style="fill:#828282;" d="M134.3,78.1v3.7c0,0.6,0.1,1,0.4,1.3c0.2,0.3,0.6,0.4,1.1,0.4c0.7,0,1.2-0.2,1.5-0.5
				s0.5-0.9,0.5-1.7v-3.2h0.5v5.8h-0.4l-0.1-0.8l0,0c-0.4,0.6-1,0.9-2,0.9c-1.3,0-2-0.7-2-2.1v-3.8
				C133.8,78.1,134.3,78.1,134.3,78.1z"/>
			<path style="fill:#828282;" d="M143.8,82.4c0,0.5-0.2,0.9-0.6,1.2s-0.9,0.4-1.7,0.4s-1.4-0.1-1.8-0.4V83c0.6,0.3,1.2,0.4,1.8,0.4
				s1-0.1,1.3-0.3c0.3-0.2,0.4-0.4,0.4-0.8c0-0.3-0.1-0.5-0.4-0.7c-0.2-0.2-0.6-0.4-1.2-0.6c-0.6-0.2-1-0.4-1.2-0.5
				s-0.4-0.3-0.5-0.5s-0.2-0.4-0.2-0.7c0-0.4,0.2-0.8,0.5-1c0.4-0.3,0.9-0.4,1.5-0.4s1.2,0.1,1.8,0.3l-0.2,0.5
				c-0.6-0.2-1.1-0.3-1.6-0.3s-0.8,0.1-1.1,0.2c-0.3,0.2-0.4,0.4-0.4,0.6c0,0.3,0.1,0.5,0.3,0.7s0.6,0.4,1.3,0.6
				c0.5,0.2,0.9,0.4,1.1,0.5s0.4,0.3,0.5,0.5C143.8,81.9,143.8,82.1,143.8,82.4z"/>
			<path style="fill:#828282;" d="M147.6,84c-0.8,0-1.5-0.3-2-0.8s-0.7-1.2-0.7-2.2c0-0.9,0.2-1.7,0.7-2.2c0.5-0.6,1.1-0.8,1.8-0.8
				s1.2,0.2,1.6,0.7s0.6,1.1,0.6,1.9V81h-4.1c0,0.8,0.2,1.4,0.6,1.8c0.4,0.4,0.9,0.6,1.6,0.6c0.3,0,0.6,0,0.9-0.1
				c0.2,0,0.6-0.1,0.9-0.3v0.5c-0.3,0.1-0.6,0.2-0.9,0.3C148.3,84,148,84,147.6,84z M147.5,78.5c-0.6,0-1,0.2-1.3,0.5
				c-0.3,0.4-0.5,0.9-0.6,1.6h3.6c0-0.7-0.1-1.2-0.4-1.6C148.4,78.7,148,78.5,147.5,78.5z"/>
			<path style="fill:#828282;" d="M153.5,78c0.2,0,0.5,0,0.8,0.1l-0.1,0.5c-0.2-0.1-0.5-0.1-0.7-0.1c-0.5,0-0.9,0.2-1.2,0.6
				s-0.5,0.9-0.5,1.6v3.2h-0.5v-5.8h0.4l0.1,1l0,0c0.2-0.4,0.5-0.7,0.8-0.9C152.8,78.1,153.2,78,153.5,78z"/>
		</g>
	</g>
</g>
<g>
	<g>
		<rect x="231" y="59.6" style="fill:none;" width="43.5" height="19.8"/>
		<g style="enable-background:new    ;">
			<path style="fill:#BFBFBF;" d="M253.4,71.5h-0.7v-8.1c0-0.7,0-1.5,0.1-2.3c-0.1,0.1-0.2,0.1-0.2,0.2c-0.1,0.1-0.9,0.7-2.4,1.9
				l-0.4-0.5l3-2.3h0.7v11.1C253.5,71.5,253.4,71.5,253.4,71.5z"/>
		</g>
		<rect x="420.5" y="59.6" style="fill:none;" width="73.1" height="19.8"/>
		<g style="enable-background:new    ;">
			<path style="fill:#BFBFBF;" d="M453.3,71.5h-0.7v-8.1c0-0.7,0-1.5,0.1-2.3c-0.1,0.1-0.2,0.1-0.2,0.2s-0.9,0.7-2.4,1.9l-0.4-0.5
				l3-2.3h0.7v11.1C453.4,71.5,453.3,71.5,453.3,71.5z"/>
			<path style="fill:#BFBFBF;" d="M465,65.9c0,2-0.3,3.4-0.9,4.3s-1.5,1.4-2.7,1.4s-2-0.5-2.7-1.5c-0.6-1-0.9-2.4-0.9-4.3
				s0.3-3.4,0.9-4.3c0.6-0.9,1.5-1.4,2.7-1.4s2.1,0.5,2.7,1.5C464.7,62.6,465,64,465,65.9z M458.7,65.9c0,1.7,0.2,3,0.7,3.8
				s1.1,1.2,2.1,1.2s1.7-0.4,2.1-1.3s0.7-2.1,0.7-3.8c0-1.6-0.2-2.9-0.7-3.7c-0.4-0.9-1.1-1.3-2.1-1.3s-1.7,0.4-2.1,1.3
				C458.9,63,458.7,64.3,458.7,65.9z"/>
		</g>
		<line style="fill:none;stroke:#BFBFBF;stroke-miterlimit:10;" x1="254" y1="91.5" x2="457" y2="91.5"/>
		<circle style="fill:#828282;" cx="319" cy="92" r="6.6"/>
		<line style="fill:none;stroke:#828282;stroke-miterlimit:10;" x1="254" y1="91.5" x2="323" y2="91.5"/>
	</g>
</g>
<g>
	<g>
		<rect x="29" y="146.1" style="fill:none;" width="232.5" height="21.5"/>
		<g style="enable-background:new    ;">
			<path style="fill:#828282;" d="M33.5,154.3l-2.9-7.1l0,0c0,0.4,0,0.9,0,1.3v5.8h-0.5v-7.7h0.8l2.7,6.8l0,0l2.7-6.8h0.8v7.7h-0.5
				v-5.9c0-0.4,0-0.8,0.1-1.3l0,0l-2.9,7.1L33.5,154.3L33.5,154.3z"/>
			<path style="fill:#828282;" d="M42.8,154.3l-0.1-0.9l0,0c-0.3,0.4-0.6,0.6-0.9,0.8s-0.7,0.2-1.1,0.2c-0.6,0-1-0.1-1.3-0.4
				c-0.3-0.3-0.5-0.7-0.5-1.2c0-0.6,0.2-1,0.7-1.3s1.1-0.5,2-0.5h1.1v-0.4c0-0.5-0.1-1-0.3-1.2c-0.2-0.3-0.6-0.4-1.1-0.4
				s-1.1,0.1-1.7,0.4l-0.2-0.5c0.6-0.3,1.3-0.4,1.9-0.4c0.6,0,1.1,0.2,1.4,0.5c0.3,0.3,0.5,0.8,0.5,1.5v3.8L42.8,154.3L42.8,154.3z
				 M40.7,153.9c0.6,0,1.1-0.2,1.5-0.5c0.4-0.4,0.5-0.8,0.5-1.5v-0.6h-1c-0.8,0-1.4,0.2-1.7,0.4s-0.5,0.5-0.5,1
				c0,0.4,0.1,0.6,0.3,0.8C40,153.8,40.3,153.9,40.7,153.9z"/>
			<path style="fill:#828282;" d="M46.5,151.4l-2-2.8h0.6l1.7,2.4l1.7-2.4h0.6l-2,2.8l2.1,3h-0.6l-1.8-2.6l-1.8,2.6h-0.6L46.5,151.4
				z"/>
			<path style="fill:#828282;" d="M55.3,154.4c-0.8,0-1.3-0.3-1.8-0.8c-0.4-0.5-0.6-1.2-0.6-2.2s0.2-1.7,0.6-2.3
				c0.4-0.5,1-0.8,1.8-0.8s1.5,0.3,1.9,0.9l0,0l0.1-0.8h0.4v8.4h-0.5v-2.2c0-0.4,0-0.9,0-1.3l0,0C56.9,154.1,56.2,154.4,55.3,154.4z
				 M55.3,154c0.7,0,1.2-0.2,1.5-0.6c0.3-0.4,0.4-1,0.4-1.9v-0.1c0-0.9-0.1-1.5-0.4-1.9c-0.3-0.4-0.8-0.6-1.4-0.6
				c-0.6,0-1.1,0.2-1.4,0.7s-0.5,1.1-0.5,1.9c0,0.8,0.2,1.4,0.5,1.8C54.3,153.7,54.7,154,55.3,154z"/>
			<path style="fill:#828282;" d="M60.2,148.6v3.7c0,0.6,0.1,1,0.4,1.3c0.2,0.3,0.6,0.4,1.1,0.4c0.7,0,1.2-0.2,1.5-0.5
				s0.5-0.9,0.5-1.7v-3.2h0.5v5.8h-0.4l-0.1-0.8l0,0c-0.4,0.6-1,0.9-2,0.9c-1.3,0-2-0.7-2-2.1v-3.8L60.2,148.6L60.2,148.6z"/>
			<path style="fill:#828282;" d="M69.6,154.3l-0.1-0.9l0,0c-0.3,0.4-0.6,0.6-0.9,0.8s-0.7,0.2-1.1,0.2c-0.6,0-1-0.1-1.3-0.4
				c-0.3-0.3-0.5-0.7-0.5-1.2c0-0.6,0.2-1,0.7-1.3s1.1-0.5,2-0.5h1.1v-0.4c0-0.5-0.1-1-0.3-1.2c-0.2-0.3-0.6-0.4-1.1-0.4
				s-1.1,0.1-1.7,0.4l-0.2-0.5c0.6-0.3,1.3-0.4,1.9-0.4s1.1,0.2,1.4,0.5s0.5,0.8,0.5,1.5v3.8L69.6,154.3L69.6,154.3z M67.5,153.9
				c0.6,0,1.1-0.2,1.5-0.5c0.4-0.4,0.5-0.8,0.5-1.5v-0.6h-1c-0.8,0-1.4,0.2-1.7,0.4c-0.3,0.2-0.5,0.5-0.5,1c0,0.4,0.1,0.6,0.3,0.8
				C66.8,153.8,67.1,153.9,67.5,153.9z"/>
			<path style="fill:#828282;" d="M75.9,154.3v-3.7c0-0.6-0.1-1-0.4-1.3c-0.2-0.3-0.6-0.4-1.1-0.4c-0.7,0-1.2,0.2-1.5,0.5
				s-0.5,0.9-0.5,1.7v3.2h-0.5v-5.8h0.4l0.1,0.8l0,0c0.4-0.6,1-0.9,2-0.9c1.3,0,2,0.7,2,2.1v3.8L75.9,154.3L75.9,154.3z"/>
			<path style="fill:#828282;" d="M79.8,154c0.3,0,0.6,0,0.9-0.1v0.4c-0.3,0.1-0.5,0.1-0.9,0.1c-0.5,0-0.9-0.1-1.1-0.4
				s-0.4-0.7-0.4-1.3V149h-0.9v-0.3l0.9-0.2l0.3-1.3h0.3v1.4h1.7v0.5h-1.7v3.6c0,0.4,0.1,0.8,0.2,1C79.2,153.8,79.4,154,79.8,154z"
				/>
			<path style="fill:#828282;" d="M81.8,147c0-0.3,0.1-0.5,0.3-0.5c0.1,0,0.2,0,0.3,0.1c0.1,0.1,0.1,0.2,0.1,0.4s0,0.3-0.1,0.4
				c-0.1,0.1-0.1,0.1-0.3,0.1S81.8,147.3,81.8,147z M82.4,154.3h-0.5v-5.8h0.5V154.3z"/>
			<path style="fill:#828282;" d="M85.8,154c0.3,0,0.6,0,0.9-0.1v0.4c-0.3,0.1-0.5,0.1-0.9,0.1c-0.5,0-0.9-0.1-1.1-0.4
				s-0.4-0.7-0.4-1.3V149h-0.9v-0.3l0.9-0.2l0.3-1.3h0.3v1.4h1.7v0.5h-1.7v3.6c0,0.4,0.1,0.8,0.2,1C85.3,153.8,85.5,154,85.8,154z"
				/>
			<path style="fill:#828282;" d="M87,148.6h0.5l1.2,3.2c0.4,1,0.6,1.7,0.7,2l0,0c0.1-0.5,0.4-1.1,0.7-2l1.2-3.2H92l-2.6,6.7
				c-0.2,0.5-0.4,0.9-0.5,1.1s-0.3,0.3-0.5,0.4c-0.2,0.1-0.4,0.1-0.7,0.1c-0.2,0-0.4,0-0.7-0.1v-0.5c0.2,0.1,0.4,0.1,0.7,0.1
				c0.2,0,0.3,0,0.5-0.1c0.1-0.1,0.3-0.2,0.4-0.4s0.2-0.5,0.4-0.8c0.1-0.4,0.2-0.6,0.3-0.8L87,148.6z"/>
			<path style="fill:#828282;" d="M100.5,151.4c0,0.9-0.2,1.7-0.7,2.2s-1.1,0.8-1.9,0.8c-0.5,0-0.9-0.1-1.3-0.4
				c-0.4-0.2-0.7-0.6-0.9-1s-0.3-1-0.3-1.6c0-0.9,0.2-1.7,0.7-2.2s1.1-0.8,1.9-0.8s1.4,0.3,1.9,0.8
				C100.3,149.8,100.5,150.5,100.5,151.4z M96,151.4c0,0.8,0.2,1.4,0.5,1.8c0.3,0.4,0.8,0.7,1.5,0.7c0.6,0,1.1-0.2,1.5-0.7
				c0.3-0.4,0.5-1.1,0.5-1.8c0-0.8-0.2-1.4-0.5-1.8c-0.4-0.4-0.8-0.7-1.5-0.7c-0.6,0-1.1,0.2-1.5,0.7C96.1,150,96,150.6,96,151.4z"
				/>
			<path style="fill:#828282;" d="M106.1,154.3v-3.7c0-0.6-0.1-1-0.4-1.3c-0.2-0.3-0.6-0.4-1.1-0.4c-0.7,0-1.2,0.2-1.5,0.5
				s-0.5,0.9-0.5,1.7v3.2h-0.5v-5.8h0.4l0.1,0.8l0,0c0.4-0.6,1-0.9,2-0.9c1.3,0,2,0.7,2,2.1v3.8L106.1,154.3L106.1,154.3z"/>
			<path style="fill:#828282;" d="M116.1,151.4c0,0.9-0.2,1.7-0.7,2.2s-1.1,0.8-1.9,0.8c-0.5,0-0.9-0.1-1.3-0.4
				c-0.4-0.2-0.7-0.6-0.9-1s-0.3-1-0.3-1.6c0-0.9,0.2-1.7,0.7-2.2s1.1-0.8,1.9-0.8s1.4,0.3,1.9,0.8
				C115.8,149.8,116.1,150.5,116.1,151.4z M111.5,151.4c0,0.8,0.2,1.4,0.5,1.8c0.3,0.4,0.8,0.7,1.5,0.7c0.6,0,1.1-0.2,1.5-0.7
				c0.3-0.4,0.5-1.1,0.5-1.8c0-0.8-0.2-1.4-0.5-1.8c-0.4-0.4-0.8-0.7-1.5-0.7c-0.6,0-1.1,0.2-1.5,0.7
				C111.7,150,111.5,150.6,111.5,151.4z"/>
			<path style="fill:#828282;" d="M121.7,154.3v-3.7c0-0.6-0.1-1-0.4-1.3c-0.2-0.3-0.6-0.4-1.1-0.4c-0.7,0-1.2,0.2-1.5,0.5
				s-0.5,0.9-0.5,1.7v3.2h-0.5v-5.8h0.4l0.1,0.8l0,0c0.4-0.6,1-0.9,2-0.9c1.3,0,2,0.7,2,2.1v3.8L121.7,154.3L121.7,154.3z"/>
			<path style="fill:#828282;" d="M126.4,154.4c-0.8,0-1.5-0.3-2-0.8s-0.7-1.2-0.7-2.2c0-0.9,0.2-1.7,0.7-2.2
				c0.5-0.6,1.1-0.8,1.8-0.8c0.7,0,1.2,0.2,1.6,0.7c0.4,0.5,0.6,1.1,0.6,1.9v0.4h-4.1c0,0.8,0.2,1.4,0.6,1.8
				c0.4,0.4,0.9,0.6,1.6,0.6c0.3,0,0.6,0,0.9-0.1c0.2,0,0.6-0.1,0.9-0.3v0.5c-0.3,0.1-0.6,0.2-0.9,0.3
				C127,154.4,126.7,154.4,126.4,154.4z M126.2,148.9c-0.6,0-1,0.2-1.3,0.5c-0.3,0.4-0.5,0.9-0.6,1.6h3.6c0-0.7-0.1-1.2-0.4-1.6
				C127.1,149.1,126.7,148.9,126.2,148.9z"/>
			<path style="fill:#828282;" d="M132.7,147c0-0.3,0.1-0.5,0.3-0.5c0.1,0,0.2,0,0.3,0.1s0.1,0.2,0.1,0.4s0,0.3-0.1,0.4
				c-0.1,0.1-0.1,0.1-0.3,0.1S132.7,147.3,132.7,147z M133.3,154.3h-0.5v-5.8h0.5V154.3z"/>
			<path style="fill:#828282;" d="M142.4,154.3v-3.8c0-0.6-0.1-1-0.3-1.2c-0.2-0.3-0.6-0.4-1-0.4c-0.6,0-1,0.2-1.3,0.5
				s-0.4,0.8-0.4,1.5v3.4h-0.5v-3.9c0-1-0.4-1.5-1.3-1.5c-0.6,0-1,0.2-1.3,0.5c-0.3,0.4-0.4,0.9-0.4,1.7v3.2h-0.5v-5.8h0.4l0.1,0.8
				l0,0c0.2-0.3,0.4-0.5,0.7-0.7s0.6-0.2,1-0.2c0.9,0,1.5,0.3,1.7,1l0,0c0.2-0.3,0.4-0.6,0.8-0.8c0.3-0.2,0.7-0.3,1.1-0.3
				c0.6,0,1.1,0.2,1.4,0.5s0.5,0.9,0.5,1.6v3.8L142.4,154.3L142.4,154.3z"/>
			<path style="fill:#828282;" d="M148.3,154.3l-0.1-0.9l0,0c-0.3,0.4-0.6,0.6-0.9,0.8s-0.7,0.2-1.1,0.2c-0.6,0-1-0.1-1.3-0.4
				c-0.3-0.3-0.5-0.7-0.5-1.2c0-0.6,0.2-1,0.7-1.3s1.1-0.5,2-0.5h1.1v-0.4c0-0.5-0.1-1-0.3-1.2c-0.2-0.3-0.6-0.4-1.1-0.4
				s-1.1,0.1-1.7,0.4l-0.2-0.5c0.6-0.3,1.3-0.4,1.9-0.4c0.6,0,1.1,0.2,1.4,0.5c0.3,0.3,0.5,0.8,0.5,1.5v3.8L148.3,154.3L148.3,154.3
				z M146.2,153.9c0.6,0,1.1-0.2,1.5-0.5c0.4-0.4,0.5-0.8,0.5-1.5v-0.6h-1c-0.8,0-1.4,0.2-1.7,0.4s-0.5,0.5-0.5,1
				c0,0.4,0.1,0.6,0.3,0.8C145.5,153.8,145.8,153.9,146.2,153.9z"/>
			<path style="fill:#828282;" d="M155.1,148.6v0.4l-1.2,0.1c0.3,0.4,0.5,0.8,0.5,1.3c0,0.6-0.2,1-0.6,1.3s-0.9,0.5-1.5,0.5
				c-0.3,0-0.4,0-0.6,0c-0.2,0.1-0.4,0.2-0.5,0.4c-0.1,0.1-0.2,0.3-0.2,0.5s0.1,0.3,0.2,0.4c0.1,0.1,0.4,0.1,0.7,0.1h1
				c0.6,0,1.1,0.1,1.4,0.4c0.3,0.3,0.5,0.6,0.5,1.1c0,0.6-0.2,1.1-0.7,1.4c-0.5,0.3-1.2,0.5-2.1,0.5c-0.7,0-1.3-0.1-1.7-0.4
				c-0.4-0.3-0.6-0.7-0.6-1.2c0-0.4,0.1-0.7,0.4-1s0.6-0.4,1-0.5c-0.2-0.1-0.3-0.2-0.4-0.3s-0.2-0.3-0.2-0.5c0-0.4,0.2-0.7,0.7-1
				c-0.3-0.1-0.6-0.4-0.8-0.6c-0.2-0.3-0.3-0.6-0.3-1c0-0.6,0.2-1,0.5-1.4s0.9-0.5,1.5-0.5c0.4,0,0.7,0,0.9,0.1h2.1L155.1,148.6
				L155.1,148.6z M150.4,155.3c0,0.8,0.6,1.2,1.8,1.2c1.5,0,2.3-0.5,2.3-1.4c0-0.3-0.1-0.6-0.4-0.8c-0.2-0.2-0.6-0.2-1.1-0.2h-1
				C150.9,154,150.4,154.5,150.4,155.3z M150.8,150.4c0,0.4,0.1,0.8,0.4,1s0.6,0.4,1.1,0.4s0.8-0.1,1.1-0.4s0.4-0.6,0.4-1.1
				s-0.1-0.9-0.4-1.1c-0.3-0.2-0.6-0.4-1.1-0.4s-0.8,0.1-1.1,0.4C151,149.5,150.8,149.9,150.8,150.4z"/>
			<path style="fill:#828282;" d="M158.6,154.4c-0.8,0-1.5-0.3-2-0.8s-0.7-1.2-0.7-2.2c0-0.9,0.2-1.7,0.7-2.2
				c0.5-0.6,1.1-0.8,1.8-0.8s1.2,0.2,1.6,0.7s0.6,1.1,0.6,1.9v0.4h-4.1c0,0.8,0.2,1.4,0.6,1.8c0.4,0.4,0.9,0.6,1.6,0.6
				c0.3,0,0.6,0,0.9-0.1c0.2,0,0.6-0.1,0.9-0.3v0.5c-0.3,0.1-0.6,0.2-0.9,0.3C159.2,154.4,158.9,154.4,158.6,154.4z M158.4,148.9
				c-0.6,0-1,0.2-1.3,0.5c-0.3,0.4-0.5,0.9-0.6,1.6h3.6c0-0.7-0.1-1.2-0.4-1.6C159.3,149.1,158.9,148.9,158.4,148.9z"/>
		</g>
	</g>
</g>
<g>
	<g>
		<rect x="231" y="124.6" style="fill:none;" width="43.5" height="19.8"/>
		<g style="enable-background:new    ;">
			<path style="fill:#BFBFBF;" d="M249,136.5h-0.7v-8.1c0-0.7,0-1.5,0.1-2.3c-0.1,0.1-0.2,0.1-0.2,0.2c-0.1,0.1-0.9,0.7-2.4,1.9
				l-0.4-0.5l3-2.3h0.7v11.1L249,136.5L249,136.5z"/>
			<path style="fill:#BFBFBF;" d="M260.7,130.9c0,2-0.3,3.4-0.9,4.3s-1.5,1.4-2.7,1.4c-1.2,0-2-0.5-2.7-1.5s-0.9-2.4-0.9-4.3
				c0-1.9,0.3-3.4,0.9-4.3c0.6-0.9,1.5-1.4,2.7-1.4c1.2,0,2.1,0.5,2.7,1.5C260.4,127.6,260.7,129,260.7,130.9z M254.4,130.9
				c0,1.7,0.2,3,0.7,3.8s1.1,1.2,2.1,1.2s1.7-0.4,2.1-1.3c0.4-0.9,0.7-2.1,0.7-3.8c0-1.6-0.2-2.9-0.7-3.7c-0.4-0.9-1.1-1.3-2.1-1.3
				s-1.7,0.4-2.1,1.3C254.6,128,254.4,129.3,254.4,130.9z"/>
		</g>
		<rect x="420.5" y="124.6" style="fill:none;" width="73.1" height="19.8"/>
		<g style="enable-background:new    ;">
			<path style="fill:#BFBFBF;" d="M455.6,128c0,0.7-0.2,1.3-0.7,1.7c-0.4,0.5-1,0.8-1.7,0.9l0,0c0.9,0.1,1.6,0.4,2,0.9
				c0.5,0.5,0.7,1.1,0.7,1.8c0,1-0.4,1.8-1.1,2.4c-0.7,0.6-1.7,0.9-3.1,0.9c-1.1,0-2.1-0.2-3-0.6v-0.8c0.4,0.2,0.9,0.4,1.4,0.5
				s1,0.2,1.5,0.2c1.1,0,2-0.2,2.5-0.7c0.6-0.5,0.8-1.1,0.8-1.9c0-0.7-0.3-1.3-0.9-1.7s-1.4-0.6-2.5-0.6h-1.2v-0.7h1.2
				c0.9,0,1.7-0.2,2.2-0.7c0.5-0.4,0.8-1,0.8-1.8c0-0.6-0.2-1.1-0.7-1.5s-1-0.6-1.7-0.6c-0.6,0-1.1,0.1-1.5,0.2
				c-0.5,0.2-1,0.4-1.5,0.8l-0.4-0.5c0.4-0.4,1-0.6,1.6-0.9s1.2-0.3,1.9-0.3c1,0,1.8,0.2,2.4,0.7S455.6,127.1,455.6,128z"/>
			<path style="fill:#BFBFBF;" d="M465,130.9c0,2-0.3,3.4-0.9,4.3s-1.5,1.4-2.7,1.4s-2-0.5-2.7-1.5c-0.6-1-0.9-2.4-0.9-4.3
				c0-1.9,0.3-3.4,0.9-4.3s1.5-1.4,2.7-1.4s2.1,0.5,2.7,1.5C464.7,127.6,465,129,465,130.9z M458.7,130.9c0,1.7,0.2,3,0.7,3.8
				s1.1,1.2,2.1,1.2s1.7-0.4,2.1-1.3c0.4-0.9,0.7-2.1,0.7-3.8c0-1.6-0.2-2.9-0.7-3.7c-0.4-0.9-1.1-1.3-2.1-1.3s-1.7,0.4-2.1,1.3
				C458.9,128,458.7,129.3,458.7,130.9z"/>
		</g>
		<line style="fill:none;stroke:#BFBFBF;stroke-miterlimit:10;" x1="254" y1="156.5" x2="457" y2="156.5"/>
		<circle style="fill:#828282;" cx="319" cy="157" r="6.6"/>
		<g>
			<path style="fill:#BFBFBF;" d="M327.6,128.5c0,4.7-8.6,16.4-8.6,16.4s-8.6-11.7-8.6-16.4s3.8-8.6,8.6-8.6
				C323.7,120,327.6,123.8,327.6,128.5z"/>
		</g>
		<line style="fill:none;stroke:#828282;stroke-miterlimit:10;" x1="254" y1="156.5" x2="323" y2="156.5"/>
		<rect x="296.2" y="124.6" style="fill:none;" width="43.5" height="19.8"/>
		<g style="enable-background:new    ;">
			<path style="fill:#FFFFFF;" d="M315.6,132.2h-0.5V127c0-0.5,0-1,0.1-1.5c0,0-0.1,0.1-0.2,0.1s-0.6,0.4-1.5,1.2l-0.3-0.3l1.9-1.4
				h0.4v7.1H315.6z"/>
			<path style="fill:#FFFFFF;" d="M322.8,126.8c0,0.4-0.1,0.8-0.4,1.1s-0.7,0.5-1.1,0.6l0,0c0.6,0.1,1,0.3,1.3,0.5
				c0.3,0.3,0.4,0.7,0.4,1.2c0,0.7-0.2,1.2-0.7,1.6c-0.5,0.4-1.1,0.5-2,0.5c-0.7,0-1.4-0.1-1.9-0.4v-0.5c0.3,0.1,0.6,0.3,0.9,0.3
				c0.3,0.1,0.7,0.1,1,0.1c0.7,0,1.3-0.1,1.6-0.4s0.5-0.7,0.5-1.2s-0.2-0.8-0.6-1.1s-0.9-0.4-1.6-0.4h-0.8v-0.5h0.8
				c0.6,0,1.1-0.1,1.4-0.4s0.5-0.7,0.5-1.1s-0.1-0.7-0.4-1c-0.3-0.2-0.7-0.4-1.1-0.4s-0.7,0.1-1,0.2s-0.6,0.3-1,0.5l-0.2-0.3
				c0.3-0.2,0.6-0.4,1-0.5s0.8-0.2,1.2-0.2c0.7,0,1.2,0.2,1.5,0.5C322.6,125.8,322.8,126.2,322.8,126.8z"/>
		</g>
	</g>
</g>
<g>
	<polygon style="fill:#FFFFFF;" points="327.2,167.3 327.2,166.5 326.4,166.5 326.4,167.3 325.7,167.3 325.7,166.5 325.7,166.5 
		325.7,165.7 324.1,165.7 324.1,167.3 323.4,167.3 323.4,165.7 323.4,165.7 323.4,165.7 321.9,165.7 321.9,167.3 321.1,167.3 
		321.1,161.1 319.6,161.1 319.6,165.7 319.6,165.7 319.6,171.1 318.8,171.1 318.8,168.8 318,168.8 318,171.9 318.8,171.9 
		318.8,173.4 319.6,173.4 319.6,175 320.3,175 320.3,176.5 326.4,176.5 326.4,175 327.2,175 327.2,172.7 328,172.7 328,167.3 	"/>
	<path style="fill:#272425;" d="M321.1,160.3h-1.5v0.8h1.5V160.3z M321.9,167.3v-1.6h1.5v-0.8h-1.5V161h-0.8v6.2h0.8V167.3z
		 M317.3,168.8v3.1h0.8v-3.1H317.3z M325.7,165.7v0.8l0,0v0.8h0.8v-0.8h0.8v-0.8H325.7z M324.1,165v0.8h-0.7v1.5h0.8v-1.5h1.5V165
		H324.1z M327.2,166.5v0.8h0.8v-0.8H327.2z M328,167.3v5.4h0.8v-5.4H328z M327.2,175h0.8v-2.3h-0.8V175z M326.4,176.5h-6.1V175h-0.8
		v2.3h7.7V175h-0.8L326.4,176.5L326.4,176.5z M318,171.9v1.5h0.8v-1.5H318z M318.8,173.4v1.5h0.8v-1.5H318.8z M318.8,171.1h0.8v-10
		h-0.8v7H318v0.8h0.8V171.1z"/>
</g>
</svg>
