<?xml version="1.0" encoding="utf-8"?>
<!-- Generator: Adobe Illustrator 19.2.1, SVG Export Plug-In . SVG Version: 6.00 Build 0)  -->
<svg version="1.1" id="Слой_1" xmlns="http://www.w3.org/2000/svg" xmlns:xlink="http://www.w3.org/1999/xlink" x="0px" y="0px"
	 viewBox="0 0 468 102.7" style="enable-background:new 0 0 468 102.7;" xml:space="preserve">
<rect y="-0.3" style="fill:#FFFFFF;" width="423" height="34"/>
<g>
	<g>
		
			<circle style="fill:none;stroke:#B7B9BA;stroke-width:0.8943;stroke-linecap:round;stroke-linejoin:round;stroke-miterlimit:10;" cx="18.5" cy="17.1" r="5.6"/>
	</g>
	
		<line style="fill:none;stroke:#B7B9BA;stroke-width:0.8943;stroke-linecap:round;stroke-linejoin:round;stroke-miterlimit:10;" x1="18.4" y1="17.2" x2="18.4" y2="20.6"/>
	
		<line style="fill:none;stroke:#B7B9BA;stroke-width:0.8943;stroke-linecap:round;stroke-linejoin:round;stroke-miterlimit:10;" x1="18.4" y1="17.2" x2="20.1" y2="15.3"/>
	<path style="fill:none;stroke:#B7B9BA;stroke-width:0.8943;stroke-linecap:round;stroke-linejoin:round;stroke-miterlimit:10;" d="
		M17.5,10.9c0-0.6,0.5-1.1,1.1-1.1s1.1,0.5,1.1,1.1"/>
</g>
<g>
	<rect x="34.9" y="11.3" style="fill:none;" width="183" height="16.5"/>
	<g style="enable-background:new    ;">
		<path style="fill:#B7B9BA;" d="M38,19.5h-0.5v-7.2H35v-0.5h5.5v0.5H38V19.5z"/>
		<path style="fill:#B7B9BA;" d="M45,19.5l-0.1-0.9l0,0c-0.3,0.4-0.6,0.6-0.9,0.8s-0.7,0.2-1.1,0.2c-0.6,0-1-0.1-1.3-0.4
			s-0.5-0.7-0.5-1.2c0-0.6,0.2-1,0.7-1.3s1.1-0.5,2-0.5h1.1v-0.4c0-0.5-0.1-1-0.3-1.2c-0.2-0.3-0.6-0.4-1.1-0.4s-1.1,0.1-1.6,0.4
			l-0.2-0.5c0.6-0.3,1.2-0.4,1.9-0.4c0.6,0,1.1,0.2,1.4,0.5c0.3,0.3,0.5,0.8,0.5,1.5v3.8C45.5,19.5,45,19.5,45,19.5z M42.9,19.1
			c0.6,0,1.1-0.2,1.4-0.5s0.5-0.8,0.5-1.4v-0.6h-1c-0.8,0-1.4,0.2-1.7,0.4c-0.3,0.2-0.5,0.5-0.5,1c0,0.4,0.1,0.6,0.3,0.8
			S42.5,19.1,42.9,19.1z"/>
		<path style="fill:#B7B9BA;" d="M50.7,18c0,0.5-0.2,0.9-0.6,1.2s-0.9,0.4-1.7,0.4s-1.4-0.1-1.8-0.4v-0.6c0.6,0.3,1.2,0.4,1.8,0.4
			s1-0.1,1.3-0.3c0.3-0.2,0.4-0.4,0.4-0.7c0-0.3-0.1-0.5-0.3-0.7s-0.6-0.4-1.1-0.6c-0.6-0.2-1-0.4-1.2-0.5s-0.4-0.3-0.5-0.5
			s-0.2-0.4-0.2-0.7c0-0.4,0.2-0.8,0.5-1s0.9-0.4,1.5-0.4s1.2,0.1,1.8,0.3l-0.2,0.5c-0.6-0.2-1.1-0.3-1.6-0.3s-0.8,0.1-1.1,0.2
			s-0.4,0.4-0.4,0.6c0,0.3,0.1,0.5,0.3,0.7s0.6,0.4,1.2,0.6c0.5,0.2,0.9,0.4,1.1,0.5s0.4,0.3,0.5,0.5C50.7,17.5,50.7,17.7,50.7,18z"
			/>
		<path style="fill:#B7B9BA;" d="M52.7,17l2.9-3.2h0.6L54,16.2l2.4,3.3h-0.6l-2.2-2.9l-0.9,0.8v2h-0.5v-8.2h0.5v4.1V17L52.7,17z"/>
		<path style="fill:#B7B9BA;" d="M65.6,19.5H65l-4.2-6.8l0,0c0,0.8,0.1,1.4,0.1,1.8v5h-0.5v-7.7h0.5l4.2,6.8l0,0c0-0.8,0-1.4,0-1.8
			v-5h0.5V19.5z M69.5,16.3c0,0.6-0.1,1-0.4,1.3S68.4,18,68,18c-0.5,0-0.8-0.1-1.1-0.4s-0.4-0.7-0.4-1.3c0-0.6,0.1-1,0.4-1.3
			s0.7-0.5,1.1-0.5c0.5,0,0.9,0.2,1.1,0.5C69.4,15.3,69.5,15.7,69.5,16.3z M66.7,19.5V19h2.5v0.5H66.7z M66.9,16.3
			c0,0.4,0.1,0.8,0.3,1c0.2,0.2,0.4,0.3,0.8,0.3c0.3,0,0.6-0.1,0.8-0.3s0.3-0.5,0.3-1c0-0.4-0.1-0.8-0.3-1C68.6,15.1,68.4,15,68,15
			C67.3,14.9,66.9,15.4,66.9,16.3z"/>
		<path style="fill:#B7B9BA;" d="M75.5,19.5h-4.8V19l2-2.1c0.6-0.6,1-1,1.2-1.4s0.4-0.6,0.5-0.9c0.1-0.3,0.2-0.6,0.2-0.9
			c0-0.5-0.2-0.8-0.5-1.1s-0.7-0.4-1.2-0.4c-0.6,0-1.3,0.2-1.8,0.7l-0.3-0.4c0.6-0.5,1.3-0.8,2.1-0.8c0.7,0,1.2,0.2,1.6,0.5
			s0.6,0.8,0.6,1.5c0,0.5-0.1,1-0.4,1.5S74,16.3,73.3,17l-2,2l0,0h4.1v0.5H75.5z"/>
	</g>
</g>
<rect x="300.5" y="12.4" style="fill:none;" width="72.8" height="16.5"/>
<g style="enable-background:new    ;">
	<path style="fill:#B7B9BA;" d="M301.6,18.2l2.2-4.9h-3v-0.6h3.6v0.5l-2.2,4.9h-0.6V18.2z"/>
	<path style="fill:#B7B9BA;" d="M312.2,17.6L312.2,17.6c-0.3,0.4-0.7,0.6-1.3,0.6c-0.5,0-0.9-0.2-1.2-0.5c-0.3-0.4-0.4-0.9-0.4-1.6
		c0-0.7,0.1-1.2,0.4-1.6s0.7-0.6,1.2-0.6c0.6,0,1,0.2,1.3,0.6l0,0v-0.3v-0.3v-1.7h0.6V18h-0.5L312.2,17.6z M311,17.7
		c0.4,0,0.7-0.1,0.9-0.3c0.2-0.2,0.3-0.6,0.3-1.1v-0.1c0-0.6-0.1-1-0.3-1.2s-0.5-0.4-0.9-0.4s-0.6,0.1-0.8,0.4
		c-0.2,0.3-0.3,0.7-0.3,1.2s0.1,0.9,0.3,1.2S310.6,17.7,311,17.7z"/>
	<path style="fill:#B7B9BA;" d="M316.6,18.2l-0.1-0.6l0,0c-0.2,0.3-0.4,0.4-0.6,0.5s-0.5,0.1-0.8,0.1c-0.4,0-0.7-0.1-0.9-0.3
		c-0.2-0.2-0.3-0.5-0.3-0.9c0-0.8,0.7-1.3,2-1.3h0.7v-0.3c0-0.3-0.1-0.6-0.2-0.7c-0.1-0.2-0.4-0.2-0.7-0.2c-0.3,0-0.7,0.1-1.2,0.3
		l-0.2-0.5c0.2-0.1,0.4-0.2,0.7-0.3c0.2-0.1,0.5-0.1,0.7-0.1c0.5,0,0.8,0.1,1.1,0.3c0.2,0.2,0.4,0.6,0.4,1V18h-0.6V18.2z
		 M315.2,17.8c0.4,0,0.7-0.1,0.9-0.3c0.2-0.2,0.3-0.5,0.3-0.9v-0.4h-0.6c-0.5,0-0.8,0.1-1.1,0.2c-0.2,0.1-0.3,0.3-0.3,0.6
		c0,0.2,0.1,0.4,0.2,0.5S315,17.8,315.2,17.8z"/>
	<path style="fill:#B7B9BA;" d="M317.7,14.1h0.7l0.9,2.3c0.2,0.5,0.3,0.9,0.4,1.1l0,0c0-0.1,0.1-0.3,0.2-0.6c0.1-0.3,0.4-1.2,1-2.8
		h0.7l-1.7,4.6c-0.2,0.5-0.4,0.8-0.6,1s-0.5,0.3-0.9,0.3c-0.2,0-0.4,0-0.6-0.1v-0.5c0.1,0,0.3,0,0.5,0c0.4,0,0.7-0.2,0.9-0.7
		l0.2-0.6L317.7,14.1z"/>
	<path style="fill:#B7B9BA;" d="M321.8,16.1c0-0.7,0.1-1.3,0.3-1.8c0.2-0.6,0.5-1.1,0.8-1.5h0.6c-0.4,0.5-0.6,1-0.8,1.6
		s-0.3,1.2-0.3,1.8s0.1,1.2,0.3,1.7c0.2,0.6,0.4,1.1,0.8,1.6h-0.6c-0.4-0.4-0.6-0.9-0.8-1.5C321.9,17.4,321.8,16.8,321.8,16.1z"/>
	<path style="fill:#B7B9BA;" d="M327,17.1c0,0.4-0.1,0.7-0.4,0.9c-0.3,0.2-0.7,0.3-1.2,0.3s-1-0.1-1.3-0.3v-0.6
		c0.2,0.1,0.4,0.2,0.6,0.2s0.4,0.1,0.6,0.1c0.3,0,0.6-0.1,0.7-0.2c0.2-0.1,0.3-0.3,0.3-0.5s-0.1-0.3-0.2-0.4s-0.4-0.2-0.8-0.4
		c-0.4-0.1-0.6-0.3-0.8-0.4s-0.3-0.2-0.4-0.4c-0.1-0.1-0.1-0.3-0.1-0.5c0-0.3,0.1-0.6,0.4-0.8s0.6-0.3,1.1-0.3
		c0.4,0,0.9,0.1,1.3,0.3l-0.2,0.5c-0.4-0.2-0.8-0.3-1.1-0.3c-0.3,0-0.5,0-0.7,0.1c-0.1,0.1-0.2,0.2-0.2,0.4c0,0.1,0,0.2,0.1,0.3
		s0.1,0.1,0.3,0.2s0.4,0.2,0.7,0.3c0.5,0.2,0.8,0.4,1,0.5C327,16.6,327,16.8,327,17.1z"/>
	<path style="fill:#B7B9BA;" d="M329.3,16.1c0,0.7-0.1,1.3-0.3,1.8s-0.5,1.1-0.8,1.5h-0.6c0.3-0.5,0.6-1,0.8-1.5
		c0.2-0.6,0.3-1.1,0.3-1.7s-0.1-1.2-0.3-1.8c-0.2-0.6-0.4-1.1-0.8-1.6h0.6c0.4,0.4,0.6,0.9,0.8,1.5
		C329.2,14.8,329.3,15.5,329.3,16.1z"/>
	<path style="fill:#B7B9BA;" d="M332.9,18.2h-0.6v-5.8h0.6V18.2z"/>
	<path style="fill:#B7B9BA;" d="M335.9,18.3c-0.6,0-1.1-0.2-1.4-0.5s-0.5-0.9-0.5-1.5c0-0.7,0.2-1.2,0.5-1.6
		c0.3-0.4,0.8-0.6,1.3-0.6s0.9,0.2,1.2,0.5c0.3,0.3,0.4,0.8,0.4,1.3v0.4h-2.8c0,0.5,0.1,0.8,0.4,1.1c0.2,0.2,0.6,0.4,1,0.4
		s0.9-0.1,1.3-0.3V18c-0.2,0.1-0.4,0.2-0.6,0.2C336.4,18.2,336.2,18.3,335.9,18.3z M335.7,14.6c-0.3,0-0.6,0.1-0.8,0.3
		s-0.3,0.5-0.3,0.9h2.1c0-0.4-0.1-0.7-0.3-0.9C336.3,14.7,336.1,14.6,335.7,14.6z"/>
	<path style="fill:#B7B9BA;" d="M340.3,14.6h-1v3.6h-0.6v-3.6H338v-0.3l0.7-0.2v-0.2c0-1,0.4-1.5,1.3-1.5c0.2,0,0.5,0,0.8,0.1
		l-0.2,0.5c-0.2-0.1-0.4-0.1-0.6-0.1s-0.4,0.1-0.5,0.2c-0.1,0.2-0.2,0.4-0.2,0.7v0.3h1L340.3,14.6L340.3,14.6z"/>
	<path style="fill:#B7B9BA;" d="M342.3,17.8c0.1,0,0.2,0,0.3,0c0.1,0,0.2,0,0.2-0.1v0.5c-0.1,0-0.2,0.1-0.3,0.1c-0.1,0-0.2,0-0.4,0
		c-0.8,0-1.2-0.4-1.2-1.2v-2.4h-0.6v-0.3l0.6-0.3l0.3-0.9h0.4v0.9h1.2v0.5h-1.2V17c0,0.2,0.1,0.4,0.2,0.6
		C342,17.7,342.1,17.8,342.3,17.8z"/>
</g>
<g>
	<circle style="fill:#F1F1F1;" cx="388.4" cy="17.6" r="12.1"/>
</g>
<g>
	
		<line style="fill:none;stroke:#BBBBBB;stroke-width:0.5;stroke-linecap:round;stroke-linejoin:round;stroke-miterlimit:10;" x1="405" y1="15" x2="410" y2="15"/>
	
		<polyline style="fill:none;stroke:#BBBBBB;stroke-width:0.5;stroke-linecap:round;stroke-linejoin:round;stroke-miterlimit:10;" points="
		404.8,12.4 404.9,22 404.9,22 410,22 	"/>
	
		<circle style="fill:none;stroke:#BBBBBB;stroke-width:0.5;stroke-linecap:round;stroke-linejoin:round;stroke-miterlimit:10;" cx="413.6" cy="14.7" r="3.4"/>
	
		<circle style="fill:none;stroke:#BBBBBB;stroke-width:0.5;stroke-linecap:round;stroke-linejoin:round;stroke-miterlimit:10;" cx="412.5" cy="21.8" r="2.2"/>
	<rect x="409.8" y="12.8" style="fill:none;" width="7.5" height="5.2"/>
	<g style="enable-background:new    ;">
		<path style="fill:#BBBBBB;" d="M414.7,14.6c0,0.6-0.1,1-0.3,1.2s-0.5,0.4-0.8,0.4c-0.4,0-0.6-0.1-0.8-0.4
			c-0.2-0.3-0.3-0.7-0.3-1.2c0-0.6,0.1-1,0.3-1.2c0.2-0.3,0.4-0.4,0.8-0.4s0.6,0.1,0.8,0.4S414.7,14,414.7,14.6z M413,14.6
			c0,0.4,0,0.7,0.1,0.9s0.2,0.3,0.4,0.3c0.2,0,0.3-0.1,0.4-0.3s0.1-0.5,0.1-0.9s0-0.7-0.1-0.9s-0.2-0.3-0.4-0.3
			c-0.2,0-0.3,0.1-0.4,0.3C413.1,13.8,413,14.1,413,14.6z"/>
	</g>
</g>
<g>
	<g>
		<path style="fill:none;stroke:#B7B9BA;stroke-width:0.5;stroke-linecap:round;stroke-linejoin:round;stroke-miterlimit:10;" d="
			M390.5,18.8c-2,0-4-6,0-6S392.5,18.8,390.5,18.8z"/>
		<path style="fill:none;stroke:#B7B9BA;stroke-width:0.5;stroke-linecap:round;stroke-linejoin:round;stroke-miterlimit:10;" d="
			M386.9,22.5c-0.4-1.7,0.5-3.4,3.8-3.4c3.2,0,4,1.7,3.7,3.4"/>
		
			<line style="fill:none;stroke:#B7B9BA;stroke-width:0.5;stroke-linecap:round;stroke-linejoin:round;stroke-miterlimit:10;" x1="384.7" y1="12" x2="384.7" y2="17.1"/>
		
			<line style="fill:none;stroke:#B7B9BA;stroke-width:0.5;stroke-linecap:round;stroke-linejoin:round;stroke-miterlimit:10;" x1="382.2" y1="14.6" x2="387.2" y2="14.6"/>
	</g>
</g>
<g>
	<g>
		<path style="fill:#0067D0;" d="M103.2,78.6c5.5-4.1,7.6-9.9,9.3-16.3c-2-0.3-3.9-0.5-5.9-0.8c-1,9.5-2.9,18.9-4,28.3
			c-0.4,3.8,5.6,3.8,6,0c1-9.5,2.9-18.9,4-28.3c0.4-3.4-5-4-5.9-0.8c-1.2,4.6-2.5,9.7-6.5,12.7C97.1,75.8,100.1,81,103.2,78.6
			L103.2,78.6z"/>
	</g>
</g>
<g>
	<g>
		<path style="fill:#0067D0;" d="M458.3,66.2c-0.8,7.7-2.4,15.3-3.2,23c-0.4,3.8,5.6,3.8,6,0c0.8-7.7,2.4-15.3,3.2-23
			C464.7,62.4,458.7,62.4,458.3,66.2L458.3,66.2z"/>
	</g>
</g>
<g>
	<g>
		<path style="fill:#0067D0;" d="M225.8,70.5c0.2-4.1,6.9-1.5,4.5,3c-1.1,2-3.7,2.9-5.5,4.1c-3,1.9-6.3,4.8-7.1,8.5
			c-0.3,1.3,0.2,2.7,1.4,3.4c1.8,1.1,4.9,0.8,6.9,0.8c3.1,0,6.3,0,9.3-0.6c3.8-0.8,2.2-6.6-1.6-5.8c-2.2,0.5-4.5,0.4-6.8,0.4
			c-1.2,0-2.4-0.1-3.6-0.1c-0.3,0-2-0.4-1.2,0.1c0.5,1.1,0.9,2.3,1.4,3.4c1.1-4.8,8.2-6.2,11.1-9.8c2.6-3.2,3.1-7.9,0.9-11.4
			c-4.5-7.2-15.2-4.2-15.6,4.1C219.5,74.3,225.5,74.3,225.8,70.5L225.8,70.5z"/>
	</g>
</g>
<g>
	<g>
		<path style="fill:#0067D0;" d="M329.7,83.8c0.1,4.1,3.1,8,7.5,8.3c4.3,0.3,7.8-2.9,9.4-6.6c2.4-5.5-0.4-9.5-5.5-11.7
			c-0.1-0.1-0.9-0.2-0.5-0.2c-0.1-0.1-0.3-0.1-0.5-0.2c-0.8,3.7-0.4,4.9,1,3.5c1.5-0.8,3-2.5,4.1-3.7c1.9-1.9,5.3-6.1,1.7-8.3
			c-1.8-1.1-4.9-0.8-7-0.8c-3,0-6.2-0.1-9.2,0.7c-3.7,0.9-2.2,6.7,1.6,5.8c2.2-0.5,4.6-0.5,6.9-0.5c1.1,0,2.3,0,3.4,0.1
			c0.4,0,1.2,0.2,1.6,0.1c0.6-0.1,0.3,0.3-0.3-0.2c-0.5-0.9-1-1.7-1.5-2.6c0.3-0.9,0.3-0.9-0.1-0.1c-0.3,0.4-0.7,0.8-1.1,1.2
			c-0.6,0.7-1.3,1.3-1.9,1.9c-1.1,1-2.9,1.9-3.7,3.2c-1.2,1.9-0.2,3.9,1.5,4.9c1.1,0.6,3.3,0.9,4,2.1c1.8,3-5.3,8.2-5.5,3
			C335.6,80,329.6,80,329.7,83.8L329.7,83.8z"/>
	</g>
</g>
<g>
	<g>
		<path style="fill:#0067D0;" d="M456.9,68.5c-0.1,0.2-0.3,0.4-0.4,0.6c-1.7-1-3.3-1.9-5-2.9c-0.8,2.4-1.5,4.7-2.3,7.1
			c-0.6,1.9-1.8,4.3-1.9,6.3c-0.2,4.9,5.8,4.2,9,4.2c3.9,0,3.9-6,0-6c-0.9,0-1.8,0-2.7,0c-0.4,0-0.7,0-1.1,0c-0.7-0.1-0.7,0,0,0.2
			c0.3,0.7,0.6,1.4,0.9,2.1c-0.1-1.6,1.3-4.2,1.8-5.7c0.7-2.2,1.4-4.4,2.1-6.6c0.9-2.9-3-5-5-2.9c-0.6,0.6-1,1.2-1.1,2
			C450.5,70.7,456.3,72.3,456.9,68.5L456.9,68.5z"/>
	</g>
</g>
<path style="fill:#0067D0;" d="M87.6,80.9c-14.1-1.3-27.8-6.1-39.8-14.2c-9.2-6.2-17.4-14-24-23.1c-0.4,3.2-0.4,6.4,0,9.6
	c0.5,3.3-4.7,4-5.1,0.8c-1-5.8-0.4-11.7,1.4-17.2c0.3-0.7,0.8-1.3,1.5-1.5c0.9-0.6,2.3-0.2,2.8,0.7l0,0c2.4,2.7,9.8,4.6,13.3,4
	s4.2,4.8,0.9,5.2c-2.5,0.2-5.1,0-7.6-0.7c14.5,17.1,34.3,29.3,57,31.4C94.8,76.7,93.5,81.5,87.6,80.9z"/>
<path style="fill:#0067D0;" d="M250.9,75.9c22.7-2.1,42.5-14.3,56.9-31.3c-2.5,0.7-5.1,0.9-7.6,0.7c-3.3-0.4-2.6-5.7,0.9-5.2
	s10.9-1.3,13.3-4l0,0c0.6-0.9,1.9-1.3,2.8-0.7c0.7,0.3,1.3,0.8,1.5,1.5c1.9,5.5,2.4,11.4,1.4,17.2c-0.4,3.2-5.6,2.6-5.1-0.8
	c0.4-3.2,0.5-6.4,0-9.6c-6.7,9-14.8,16.8-24,23.1c-11.9,8.1-25.6,13-39.8,14.2C245.3,81.5,244.1,76.7,250.9,75.9z"/>
<path style="fill:#0067D0;" d="M358,59.7c6-4.3,11.2-9.5,16-15.2c-2.5,0.7-5.1,0.9-7.6,0.7c-3.3-0.4-2.6-5.7,0.9-5.2
	s10.9-1.3,13.3-4l0,0c0.6-0.9,1.9-1.3,2.8-0.7c0.7,0.3,1.3,0.8,1.5,1.5c1.9,5.5,2.4,11.4,1.4,17.2c-0.4,3.2-5.6,2.6-5.1-0.8
	c0.4-3.2,0.5-6.4,0-9.6c-6.7,9-14.8,16.8-24,23.1C351.9,66.7,354,62.5,358,59.7z"/>
<path style="fill:#0067D0;" d="M443.9,66.7c-9.2-6.2-17.4-14-24-23.1c-0.4,3.2-0.4,6.4,0,9.6c0.5,3.3-4.7,4-5.1,0.8
	c-1-5.8-0.4-11.7,1.4-17.2c0.3-0.7,0.8-1.3,1.5-1.5c0.9-0.6,2.3-0.2,2.8,0.7l0,0c2.4,2.7,9.8,4.6,13.3,4c3.5-0.5,4.2,4.8,0.9,5.2
	c-2.5,0.2-5.1,0-7.6-0.7c4.8,5.7,10,10.9,16,15.2C447.1,62.5,449.2,66.7,443.9,66.7z"/>
</svg>
