<?xml version="1.0" encoding="utf-8"?>
<!-- Generator: Adobe Illustrator 19.2.1, SVG Export Plug-In . SVG Version: 6.00 Build 0)  -->
<svg version="1.1" id="Слой_1" xmlns="http://www.w3.org/2000/svg" xmlns:xlink="http://www.w3.org/1999/xlink" x="0px" y="0px"
	 viewBox="0 0 1915 945" style="enable-background:new 0 0 1915 945;" xml:space="preserve">
<g id="Browser-Dark_6_">
	<path style="fill:none;stroke:#009F4B;stroke-width:0.5071;stroke-miterlimit:10;" d="M722.7-9.8"/>
	<path style="fill:none;stroke:#009F4B;stroke-width:0.5071;stroke-miterlimit:10;" d="M665.1,92.7"/>
	<path style="fill:none;stroke:#009F4B;stroke-width:0.5071;stroke-miterlimit:10;" d="M676.2,371.6"/>
	<g>
		<g>
			<path style="fill:#A2A2A4;" d="M645,27"/>
		</g>
	</g>
</g>
<g>
	<rect x="222" y="1" style="fill:#F2F2F2;" width="1695" height="65"/>
</g>
<line style="fill:none;stroke:#EDEDED;stroke-miterlimit:10;" x1="221.5" y1="943" x2="221.5" y2="0"/>
<g>
	<rect x="1648.4" y="28" style="fill:none;" width="238.6" height="52.2"/>
	<text transform="matrix(1 0 0 1 1648.3828 40.1597)" style="fill:#848484; font-family:'OpenSans-Light'; font-size:16px;">designmap.ru@gmail.com</text>
</g>
<g>
	<ellipse style="fill:#CA6600;stroke:#FFFFFF;stroke-width:2;stroke-miterlimit:10;" cx="1872.4" cy="33.3" rx="22.6" ry="22.5"/>
	<g>
		<g>
			<path style="fill:#F5E6D2;" d="M1880.4,32.1c0.3-0.4,1.6-0.7,2.1-0.4c0.9,0.5,0.8,1.7,0.6,2.4c-0.2,1-0.7,2.1-1.3,3
				c-0.2,0.3-1.4,1.4-1.8,1.5"/>
		</g>
		<g>
			<path style="fill:#F5E6D2;" d="M1865.4,32c-0.3-0.4-1.5-0.6-1.9-0.3c-0.8,0.5-0.7,1.7-0.5,2.4c0.2,1,0.6,2.1,1.2,3
				c0.2,0.3,1.2,1.1,1.5,1.3"/>
		</g>
		<g>
			<path style="fill:#F5E6D2;" d="M1880.9,33c0,2.2-0.2,6.7-1,8.5c-1.7,3.4-4.1,5.9-7.1,5.9s-5.7-2.5-6.9-6c-0.6-1.8-1-6-1-8.2
				c0-6.5,2.5-12,7.9-12S1880.9,26.5,1880.9,33z"/>
		</g>
		<g>
			<path style="fill:#5E3800;" d="M1875.2,31.4c-0.1,0-0.2-0.1-0.2-0.2s0.1-0.3,0.2-0.3l3.1-0.7c0.1,0,0.3,0.1,0.3,0.2
				s-0.1,0.3-0.2,0.3L1875.2,31.4C1875.3,31.4,1875.3,31.4,1875.2,31.4z"/>
		</g>
		<g>
			<path style="fill:#5E3800;" d="M1870.1,31.4L1870.1,31.4l-3.2-0.7c-0.1,0-0.2-0.2-0.2-0.3s0.2-0.2,0.3-0.2l3.1,0.7
				c0.1,0,0.2,0.2,0.2,0.3S1870.2,31.4,1870.1,31.4z"/>
		</g>
		<g>
			<path style="fill:#E3B295;" d="M1872.8,42.8c-0.3,0-1.7-0.1-2.2-0.7l-0.1,0.1c-0.1,0.1-0.2,0.1-0.3,0c-0.1-0.1-0.1-0.2,0-0.3
				l0.3-0.3c0.1-0.1,0.1-0.1,0.2-0.1s0.1,0.1,0.2,0.2c0.1,0.4,1.2,0.6,2,0.7c0.7,0,1.7-0.2,1.8-0.6c0-0.1,0.1-0.1,0.2-0.2
				c0.1,0,0.2,0,0.2,0l0.3,0.2c0.1,0.1,0.1,0.2,0.1,0.3c-0.1,0.1-0.2,0.1-0.3,0.1l-0.1-0.1C1874.4,42.7,1873,42.8,1872.8,42.8z"/>
		</g>
		<g>
			<g>
				<path style="fill:#5E3800;" d="M1877.1,35.2c-0.9,0-1.5-0.5-1.8-1.4h-0.4c-0.1,0-0.2-0.1-0.2-0.3c0-0.1,0.1-0.2,0.2-0.2h0.7v0.2
					c0.2,0.8,0.6,1.2,1.4,1.2c0.9,0,1.1-0.6,1.3-1.3l0.1-0.3h0.9c0.1,0,0.2,0.4,0.2,0.5s-0.1,0.5-0.2,0.5h-0.5
					C1878.5,34,1878.2,35.2,1877.1,35.2z"/>
			</g>
		</g>
		<g>
			<g>
				<path style="fill:#5E3800;" d="M1868.3,35.2c-0.9,0-1.5-0.5-1.8-1.4h-0.4c-0.1,0-0.2-0.1-0.2-0.3c0-0.1,0.1-0.2,0.2-0.2h0.7v0.2
					c0.2,0.8,0.6,1.2,1.4,1.2c0.9,0,1.1-0.6,1.3-1.3l0.1-0.3h0.9c0.1,0,0.2,0.4,0.2,0.5s-0.1,0.5-0.2,0.5h-0.5
					C1869.8,34,1869.4,35.2,1868.3,35.2z"/>
			</g>
		</g>
		<g>
			<path style="fill:#5D2C42;" d="M1880.9,33.7c0.2-1.2,2.5-6.3,1.2-9.2c-1.8-4.1-4.3-6.4-9.3-7c-1-0.1-3.1-1.5-3.7-0.6
				c-0.7,1-1,1.8-1.9,2.5c-1.1,0.8-2.3,3-2.9,4.2c-2,3.7,0.6,9.6,0.6,9.8c-0.1-3.1,0.7-5.5,2.3-7.8c1.2-1.8,9.7-1.1,11.1-0.1
				C1881.5,27.6,1880.2,30.7,1880.9,33.7z"/>
		</g>
		<g>
			<path style="fill:#5D2C42;" d="M1875.7,47.4c-1.2,1.4-5.2,1.2-6.2,0c-0.6-0.6-0.7-1.3-1-2.1c2.6,1.1,5.6,1.5,8.4,0
				C1876.8,45.4,1876.2,46.8,1875.7,47.4z"/>
		</g>
	</g>
</g>
<g>
	<g>
		<g>
			<path style="fill:#848484;" d="M1629,37v-0.4c0-1.1,0.2-2,0.5-2.7s1-1.5,1.9-2.3l1.2-1.1c0.7-0.6,1.1-1.1,1.4-1.7
				c0.3-0.5,0.4-1.2,0.4-1.9c0-1.2-0.4-2.1-1.1-2.8c-0.8-0.7-1.8-1-3-1c-0.7,0-1.4,0.1-2,0.2c-0.6,0.2-1.3,0.4-2,0.8l-0.5-1.1
				c1-0.4,1.8-0.7,2.5-0.9c0.7-0.1,1.4-0.2,2.1-0.2c1.7,0,3,0.4,3.9,1.3c1,0.9,1.4,2.1,1.4,3.7c0,0.6-0.1,1.2-0.2,1.6
				s-0.4,0.9-0.7,1.3c-0.3,0.4-0.7,0.8-1.1,1.1c-0.4,0.4-0.9,0.8-1.4,1.2c-0.6,0.5-1,0.9-1.3,1.3c-0.3,0.4-0.6,0.8-0.7,1.3
				c-0.1,0.4-0.3,1.1-0.3,2v0.1h-1L1629,37L1629,37z M1628.5,41.2c0-0.9,0.4-1.3,1.1-1.3s1.1,0.4,1.1,1.3c0,0.9-0.4,1.3-1.1,1.3
				C1628.9,42.6,1628.5,42.1,1628.5,41.2z"/>
		</g>
	</g>
</g>
<rect x="486.8" y="130.3" style="fill:#F2F2F2;" width="248.7" height="208"/>
<rect x="253" y="168" style="fill:#E0E0E0;" width="192" height="125"/>
<rect x="253" y="157" style="fill:#CCCCCC;" width="74" height="11"/>
<g>
	<rect x="252.8" y="305" style="fill:none;" width="159.5" height="38.6"/>
	<text transform="matrix(1 0 0 1 252.772 315.584)" style="fill:#848484; font-family:'OpenSans-Light'; font-size:13.9134px;">Папка  1</text>
</g>
<rect x="514" y="168" style="fill:#E0E0E0;" width="192" height="125"/>
<rect x="514" y="157" style="fill:#CCCCCC;" width="73" height="11"/>
<g>
	<rect x="513.6" y="305" style="fill:none;" width="159.5" height="38.6"/>
	<text transform="matrix(1 0 0 1 513.6338 315.584)" style="fill:#848484; font-family:'OpenSans-Light'; font-size:13.9134px;">Папка 2</text>
</g>
<rect x="777" y="168" style="fill:#E0E0E0;" width="192" height="125"/>
<rect x="777" y="157" style="fill:#CCCCCC;" width="73" height="11"/>
<g>
	<rect x="776.5" y="305" style="fill:none;" width="159.5" height="38.6"/>
	<text transform="matrix(1 0 0 1 776.4971 315.584)" style="fill:#848484; font-family:'OpenSans-Light'; font-size:13.9134px;">Папка 3</text>
</g>
<g>
	<rect x="1" style="fill:#91CFF9;" width="220" height="65.5"/>
</g>
<g id="taskmanager_1_">
	
		<circle style="fill:none;stroke:#828282;stroke-linecap:round;stroke-linejoin:round;stroke-miterlimit:10;" cx="27" cy="91.3" r="5.8"/>
	
		<line style="fill:none;stroke:#828282;stroke-linecap:round;stroke-linejoin:round;stroke-miterlimit:10;" x1="26.6" y1="93.2" x2="30.3" y2="89.5"/>
	
		<line style="fill:none;stroke:#828282;stroke-linecap:round;stroke-linejoin:round;stroke-miterlimit:10;" x1="26.6" y1="93.2" x2="24.7" y2="91.4"/>
	
		<circle style="fill:none;stroke:#828282;stroke-linecap:round;stroke-linejoin:round;stroke-miterlimit:10;" cx="27" cy="104.7" r="5.8"/>
</g>
<g id="access_1_">
	<g id="access_2_">
		<path style="fill:none;stroke:#828282;stroke-linecap:round;stroke-linejoin:round;stroke-miterlimit:10;" d="M27.1,191.3l6.2-6.2
			c1.6-1.6,4.1-1.6,5.7,0l0.8,0.8c1.6,1.6,1.6,4.1,0,5.7l-6.2,6.2c-1.6,1.6-4.1,1.6-5.7,0l-0.8-0.8"/>
		<path style="fill:none;stroke:#828282;stroke-linecap:round;stroke-linejoin:round;stroke-miterlimit:10;" d="M29.8,201.6
			l-6.2,6.2c-1.6,1.6-4.1,1.6-5.7,0l-0.8-0.8c-1.6-1.6-1.6-4.1,0-5.7l6.2-6.2c1.6-1.6,4.1-1.6,5.7,0l0.8,0.8"/>
	</g>
</g>
<g>
	
		<line style="fill:none;stroke:#828282;stroke-linecap:round;stroke-linejoin:round;stroke-miterlimit:10;" x1="19" y1="136.5" x2="36" y2="136.5"/>
	<path style="fill:none;stroke:#828282;stroke-linecap:round;stroke-linejoin:round;stroke-miterlimit:10;" d="M36.6,140.3
		c0-2.1-1.4-1.8-3.6-1.8H21.7c-2.2,0-3.6-0.4-3.6,1.7l1.1,13.1c0.5,3.2,2.5,4.2,3.9,4.2h8.5c1.4,0,3.5,0,4-4.3L36.6,140.3z"/>
	<path style="fill:none;stroke:#828282;stroke-linecap:round;stroke-linejoin:round;stroke-miterlimit:10;" d="M29.8,136.1
		c0-1.4-1.1-2.5-2.5-2.5s-2.5,1.1-2.5,2.5"/>
	<rect x="24.3" y="144" style="fill:none;" width="8.5" height="13.3"/>
	<text transform="matrix(1 0 0 1 24.3333 151.5996)" style="fill:#828282; font-family:'OpenSans-Light'; font-size:10px;">2</text>
</g>
<rect x="61.9" y="87.5" style="fill:none;" width="138.6" height="27.5"/>
<g style="enable-background:new    ;">
	<path style="fill:#828282;" d="M68.5,99.7l-4.3-10.5h-0.1c0,0.6,0.1,1.3,0.1,2v8.6h-0.8V88.4h1.2l4,10l0,0l4-10h1.2v11.4H73V91
		c0-0.6,0-1.2,0.1-1.9H73l-4,10.6H68.5L68.5,99.7z"/>
	<path style="fill:#828282;" d="M80.6,99.8c-1.2,0-2.2-0.4-2.9-1.1c-0.7-0.8-1-1.8-1-3.2s0.3-2.4,1-3.3c0.7-0.8,1.6-1.2,2.7-1.2
		c1,0,1.8,0.3,2.4,1s0.9,1.6,0.9,2.8v0.6h-6.1c0,1.2,0.3,2.1,0.8,2.7s1.3,0.9,2.3,0.9c0.5,0,0.9,0,1.3-0.1s0.8-0.2,1.4-0.4v0.7
		c-0.5,0.2-0.9,0.4-1.3,0.4S81,99.8,80.6,99.8z M80.3,91.7c-0.8,0-1.5,0.3-2,0.8s-0.8,1.3-0.9,2.3h5.3c0-1-0.2-1.8-0.6-2.3
		C81.7,92,81.1,91.7,80.3,91.7z"/>
	<path style="fill:#828282;" d="M86.7,91.2v3.7h5.4v-3.7h0.8v8.5h-0.8v-4.1h-5.4v4.1h-0.8v-8.5H86.7z"/>
	<path style="fill:#828282;" d="M99.1,99.8c-1.2,0-2.2-0.4-2.9-1.1c-0.7-0.8-1-1.8-1-3.2s0.3-2.4,1-3.3c0.7-0.8,1.6-1.2,2.7-1.2
		c1,0,1.8,0.3,2.4,1s0.9,1.6,0.9,2.8v0.6H96c0,1.2,0.3,2.1,0.8,2.7s1.3,0.9,2.3,0.9c0.5,0,0.9,0,1.3-0.1s0.8-0.2,1.4-0.4v0.7
		c-0.5,0.2-0.9,0.4-1.3,0.4S99.6,99.8,99.1,99.8z M98.9,91.7c-0.8,0-1.5,0.3-2,0.8s-0.8,1.3-0.9,2.3h5.3c0-1-0.2-1.8-0.6-2.3
		C100.2,92,99.6,91.7,98.9,91.7z"/>
	<path style="fill:#828282;" d="M111.4,102.5h-0.8v-2.9h-6.5v2.9h-0.8v-3.6h0.6c0.7-1,1.3-2.1,1.6-3.5c0.4-1.3,0.6-2.7,0.6-4.3h4.1
		v7.8h1.1v3.6H111.4z M109.5,98.9v-7h-2.6c-0.1,2.8-0.8,5.2-2,7H109.5z"/>
	<path style="fill:#828282;" d="M116.7,91.2h0.8v4.1l3.6-4.1h0.9l-3.7,4.1l4,4.4h-1l-3.9-4.3v4.3h-0.8v-4.3l-3.9,4.3h-1l4-4.3
		l-3.7-4.2h0.9l3.6,4.1v-4.1H116.7z"/>
	<path style="fill:#828282;" d="M127.3,99.8c-1.2,0-2.2-0.4-2.9-1.1s-1-1.8-1-3.2s0.3-2.4,1-3.3s1.6-1.2,2.7-1.2c1,0,1.8,0.3,2.4,1
		s0.9,1.6,0.9,2.8v0.6h-6.1c0,1.2,0.3,2.1,0.8,2.7s1.3,0.9,2.3,0.9c0.5,0,0.9,0,1.3-0.1s0.8-0.2,1.4-0.4v0.7
		c-0.5,0.2-0.9,0.4-1.3,0.4S127.8,99.8,127.3,99.8z M127,91.7c-0.8,0-1.5,0.3-2,0.8s-0.8,1.3-0.9,2.3h5.3c0-1-0.2-1.8-0.6-2.3
		C128.4,92,127.8,91.7,127,91.7z"/>
	<path style="fill:#828282;" d="M136.3,99.8c-1.3,0-2.3-0.5-2.9-1.5h-0.1V99c0,0.4,0,0.8,0,1.3v3.2h-0.8V91.2h0.7l0.1,1.2l0,0
		c0.6-0.9,1.5-1.4,2.8-1.4c1.1,0,2,0.4,2.6,1.1s0.9,1.8,0.9,3.3c0,1.4-0.3,2.5-0.9,3.2S137.3,99.8,136.3,99.8z M136.2,99.1
		c0.9,0,1.5-0.3,2-1s0.7-1.5,0.7-2.7c0-2.5-0.9-3.7-2.7-3.7c-1,0-1.7,0.3-2.2,0.8s-0.7,1.4-0.7,2.7v0.3c0,1.3,0.2,2.3,0.7,2.8
		S135.2,99.1,136.2,99.1z"/>
	<path style="fill:#828282;" d="M152.7,90.9c0,1.5-0.8,2.4-2.4,2.8l0,0c1.7,0.4,2.6,1.3,2.6,2.8c0,1-0.4,1.9-1.1,2.4
		s-1.8,0.9-3.1,0.9s-2.3-0.2-3.2-0.7v-0.8c0.5,0.2,1,0.4,1.6,0.6s1.1,0.2,1.6,0.2c1,0,1.9-0.2,2.5-0.7s0.9-1.1,0.9-1.9
		s-0.3-1.4-0.9-1.8s-1.5-0.6-2.6-0.6h-1.7v-0.8h1.8c1.1,0,1.9-0.2,2.4-0.6s0.8-1,0.8-1.8c0-0.7-0.2-1.2-0.7-1.6s-1.1-0.6-1.9-0.6
		c-0.6,0-1.1,0.1-1.6,0.2s-1,0.4-1.6,0.8l-0.5-0.6c1.1-0.8,2.3-1.2,3.6-1.2c1.1,0,1.9,0.3,2.5,0.8S152.7,90,152.7,90.9z"/>
	<path style="fill:#828282;" d="M160.4,99.7l-0.2-1.3h-0.1c-0.4,0.5-0.9,0.9-1.3,1.2s-1,0.3-1.6,0.3c-0.8,0-1.5-0.2-1.9-0.6
		s-0.7-1-0.7-1.8s0.3-1.5,1-1.9s1.7-0.7,3-0.7h1.6v-0.6c0-0.8-0.2-1.4-0.5-1.8s-0.9-0.6-1.6-0.6c-0.8,0-1.6,0.2-2.4,0.7l-0.3-0.7
		c0.9-0.4,1.9-0.7,2.8-0.7c0.9,0,1.6,0.2,2.1,0.7s0.7,1.2,0.7,2.3v5.6L160.4,99.7L160.4,99.7z M157.3,99.1c0.9,0,1.6-0.3,2.1-0.8
		s0.8-1.2,0.8-2.2v-0.8l-1.5,0.1c-1.2,0.1-2,0.2-2.6,0.6s-0.8,0.8-0.8,1.5c0,0.5,0.2,0.9,0.5,1.2S156.7,99.1,157.3,99.1z"/>
	<path style="fill:#828282;" d="M170.6,102.5h-0.8v-2.9h-6.5v2.9h-0.8v-3.6h0.6c0.7-1,1.3-2.1,1.6-3.5s0.6-2.7,0.6-4.3h4.1v7.8h1.1
		L170.6,102.5L170.6,102.5z M168.7,98.9v-7h-2.6c-0.1,2.8-0.8,5.2-2,7H168.7z"/>
	<path style="fill:#828282;" d="M177.6,99.7l-0.2-1.3h-0.1c-0.4,0.5-0.9,0.9-1.3,1.2s-1,0.3-1.6,0.3c-0.8,0-1.5-0.2-1.9-0.6
		s-0.7-1-0.7-1.8s0.3-1.5,1-1.9s1.7-0.7,3-0.7h1.6v-0.6c0-0.8-0.2-1.4-0.5-1.8s-0.9-0.6-1.6-0.6c-0.8,0-1.6,0.2-2.4,0.7l-0.3-0.7
		c0.9-0.4,1.9-0.7,2.8-0.7c0.9,0,1.6,0.2,2.1,0.7s0.7,1.2,0.7,2.3v5.6L177.6,99.7L177.6,99.7z M174.5,99.1c0.9,0,1.6-0.3,2.1-0.8
		s0.8-1.2,0.8-2.2v-0.8l-1.5,0.1c-1.2,0.1-2,0.2-2.6,0.6s-0.8,0.8-0.8,1.5c0,0.5,0.2,0.9,0.5,1.2S173.9,99.1,174.5,99.1z"/>
	<path style="fill:#828282;" d="M181.6,91.2V94c0,0.7,0.2,1.2,0.5,1.6s0.9,0.5,1.6,0.5c0.5,0,1-0.1,1.5-0.3s0.9-0.5,1.4-0.9v-3.7
		h0.8v8.5h-0.8v-4c-0.5,0.4-1,0.7-1.5,0.9s-1,0.3-1.6,0.3c-0.9,0-1.5-0.2-2-0.7s-0.7-1.1-0.7-2v-2.9h0.8V91.2z"/>
</g>
<rect x="246.4" y="27" style="fill:none;" width="138.6" height="27.5"/>
<g style="enable-background:new    ;">
	<path style="fill:#828282;" d="M252.9,28.3c-1.4,0-2.6,0.5-3.4,1.4c-0.8,0.9-1.2,2.2-1.2,3.8c0,1.6,0.4,2.9,1.2,3.8
		c0.8,0.9,1.9,1.4,3.3,1.4c1,0,1.8-0.1,2.6-0.4V39c-0.8,0.3-1.7,0.4-2.8,0.4c-1.6,0-2.9-0.5-3.8-1.6s-1.4-2.5-1.4-4.3
		c0-1.2,0.2-2.2,0.7-3.1c0.4-0.9,1.1-1.6,1.9-2.1c0.8-0.5,1.8-0.7,2.9-0.7c1.1,0,2.1,0.2,3,0.6l-0.3,0.7
		C254.7,28.5,253.8,28.3,252.9,28.3z"/>
	<path style="fill:#828282;" d="M264.8,34.9c0,1.4-0.3,2.5-1,3.2s-1.6,1.2-2.8,1.2c-0.7,0-1.4-0.2-2-0.5c-0.6-0.4-1-0.9-1.3-1.5
		c-0.3-0.7-0.5-1.4-0.5-2.3c0-1.4,0.3-2.5,1-3.2s1.6-1.2,2.8-1.2c1.2,0,2.1,0.4,2.7,1.2C264.3,32.6,264.8,33.5,264.8,34.9z
		 M258.1,34.9c0,1.2,0.3,2.1,0.8,2.7c0.5,0.7,1.2,1,2.2,1s1.7-0.3,2.2-1s0.8-1.6,0.8-2.7c0-1.2-0.3-2.1-0.8-2.7
		c-0.5-0.6-1.2-1-2.2-1s-1.7,0.3-2.2,1S258.1,33.7,258.1,34.9z"/>
	<path style="fill:#828282;" d="M268.7,34.3c1.5,0,2.3-0.5,2.3-1.6c0-0.5-0.2-0.9-0.5-1.2c-0.4-0.3-0.9-0.4-1.5-0.4
		c-0.4,0-0.8,0-1.2,0.1s-0.7,0.2-1.2,0.4l-0.3-0.6c0.9-0.4,1.8-0.6,2.6-0.6c0.9,0,1.6,0.2,2.1,0.6s0.7,0.9,0.7,1.6
		c0,1-0.5,1.6-1.5,1.9l0,0c0.6,0.2,1.1,0.4,1.4,0.8c0.3,0.4,0.4,0.8,0.4,1.4c0,0.8-0.3,1.4-0.9,1.9s-1.4,0.7-2.4,0.7
		c-0.6,0-1.1-0.1-1.5-0.2c-0.5-0.1-0.8-0.2-1.1-0.4V38c0.5,0.3,1,0.4,1.4,0.5s0.8,0.1,1.3,0.1c0.8,0,1.4-0.2,1.8-0.5
		s0.6-0.8,0.6-1.4c0-0.6-0.2-1-0.6-1.3s-1-0.4-1.9-0.4h-1.2v-0.7L268.7,34.3L268.7,34.3z"/>
	<path style="fill:#828282;" d="M281.3,42h-0.8v-2.9H274V42h-0.8v-3.6h0.6c0.7-1,1.3-2.1,1.6-3.5c0.4-1.3,0.6-2.7,0.6-4.3h4.1v7.8
		h1.1L281.3,42L281.3,42z M279.4,38.4v-7h-2.6c-0.1,2.8-0.8,5.2-2,7H279.4z"/>
	<path style="fill:#828282;" d="M288.3,39.2l-0.2-1.3H288c-0.4,0.5-0.9,0.9-1.3,1.2c-0.5,0.2-1,0.3-1.6,0.3c-0.8,0-1.5-0.2-1.9-0.6
		c-0.5-0.4-0.7-1-0.7-1.8s0.3-1.5,1-1.9c0.7-0.5,1.7-0.7,3-0.7h1.6v-0.6c0-0.8-0.2-1.4-0.5-1.8s-0.9-0.6-1.6-0.6
		c-0.8,0-1.6,0.2-2.4,0.7l-0.3-0.7c0.9-0.4,1.9-0.7,2.8-0.7s1.6,0.2,2.1,0.7s0.7,1.2,0.7,2.3v5.6L288.3,39.2L288.3,39.2z
		 M285.1,38.6c0.9,0,1.6-0.3,2.1-0.8s0.8-1.2,0.8-2.2v-0.8l-1.5,0.1c-1.2,0.1-2,0.2-2.6,0.6s-0.8,0.8-0.8,1.5c0,0.5,0.2,0.9,0.5,1.2
		C284.1,38.5,284.5,38.6,285.1,38.6z"/>
	<path style="fill:#828282;" d="M297,31.3h-2.8v7.8h-0.8v-7.8h-2.9v-0.7h6.5L297,31.3L297,31.3z"/>
	<path style="fill:#828282;" d="M299.5,34.2h3c2,0,3,0.8,3,2.4c0,0.8-0.3,1.4-0.8,1.9s-1.4,0.7-2.4,0.7h-3.5v-8.5h0.8v3.5
		L299.5,34.2L299.5,34.2z M299.5,35v3.4h2.9c0.7,0,1.3-0.2,1.7-0.5s0.6-0.8,0.6-1.4c0-0.6-0.2-1-0.5-1.2s-1-0.4-1.8-0.4L299.5,35
		L299.5,35z"/>
	<path style="fill:#828282;" d="M320.4,39.2h-0.8V28.5H313v10.7h-0.8V27.8h8.2L320.4,39.2L320.4,39.2z"/>
	<path style="fill:#828282;" d="M327,39.3c-1.3,0-2.3-0.5-2.9-1.5H324v0.7c0,0.4,0,0.8,0,1.3V43h-0.8V30.7h0.7l0.1,1.2l0,0
		c0.6-0.9,1.5-1.4,2.8-1.4c1.1,0,2,0.4,2.6,1.1s0.9,1.8,0.9,3.3c0,1.4-0.3,2.5-0.9,3.2S328.1,39.3,327,39.3z M327,38.6
		c0.9,0,1.5-0.3,2-1s0.7-1.5,0.7-2.7c0-2.5-0.9-3.7-2.7-3.7c-1,0-1.7,0.3-2.2,0.8s-0.7,1.4-0.7,2.7V35c0,1.3,0.2,2.3,0.7,2.8
		S326,38.6,327,38.6z"/>
	<path style="fill:#828282;" d="M339.9,34.9c0,1.4-0.3,2.5-1,3.2s-1.6,1.2-2.8,1.2c-0.7,0-1.4-0.2-2-0.5s-1-0.9-1.3-1.5
		s-0.5-1.4-0.5-2.3c0-1.4,0.3-2.5,1-3.2s1.6-1.2,2.8-1.2c1.2,0,2.1,0.4,2.7,1.2C339.4,32.6,339.9,33.5,339.9,34.9z M333.2,34.9
		c0,1.2,0.3,2.1,0.8,2.7s1.2,1,2.2,1s1.7-0.3,2.2-1s0.8-1.6,0.8-2.7c0-1.2-0.3-2.1-0.8-2.7s-1.2-1-2.2-1s-1.7,0.3-2.2,1
		S333.2,33.7,333.2,34.9z"/>
	<path style="fill:#828282;" d="M345.7,39.3c-1.2,0-2.2-0.4-2.9-1.1s-1-1.8-1-3.2s0.3-2.4,1-3.3s1.6-1.2,2.7-1.2c1,0,1.8,0.3,2.4,1
		s0.9,1.6,0.9,2.8v0.6h-6.1c0,1.2,0.3,2.1,0.8,2.7s1.3,0.9,2.3,0.9c0.5,0,0.9,0,1.3-0.1s0.8-0.2,1.4-0.4v0.7
		c-0.5,0.2-0.9,0.4-1.3,0.4S346.2,39.3,345.7,39.3z M345.5,31.2c-0.8,0-1.5,0.3-2,0.8s-0.8,1.3-0.9,2.3h5.3c0-1-0.2-1.8-0.6-2.3
		S346.2,31.2,345.5,31.2z"/>
	<path style="fill:#828282;" d="M355.7,30.7h1l-3.8,4.1l4.1,4.4h-1l-4-4.3v4.3h-0.8v-8.5h0.8v4.1L355.7,30.7z"/>
	<path style="fill:#828282;" d="M363.8,31.3H361v7.8h-0.8v-7.8h-2.9v-0.7h6.5L363.8,31.3L363.8,31.3z"/>
</g>
<rect x="385.4" y="27" style="fill:none;" width="138.6" height="27.5"/>
<g style="enable-background:new    ;">
	<path style="fill:#828282;" d="M396.6,33.4c0,1.8-0.5,3.2-1.4,4.3s-2.2,1.6-3.8,1.6c-1.6,0-2.8-0.5-3.7-1.6s-1.4-2.5-1.4-4.3
		s0.5-3.2,1.4-4.3s2.2-1.6,3.7-1.6c1.6,0,2.8,0.5,3.7,1.6C396.2,30.2,396.6,31.6,396.6,33.4z M387.3,33.4c0,1.6,0.4,2.9,1.1,3.8
		c0.7,0.9,1.8,1.3,3.1,1.3c1.4,0,2.4-0.4,3.2-1.3s1.1-2.2,1.1-3.8s-0.4-2.9-1.1-3.8s-1.8-1.3-3.1-1.3c-1.4,0-2.4,0.4-3.1,1.3
		C387.6,30.5,387.3,31.8,387.3,33.4z"/>
	<path style="fill:#828282;" d="M404.4,31.3h-2.8v7.8h-0.8v-7.8h-2.9v-0.7h6.5L404.4,31.3L404.4,31.3z"/>
	<path style="fill:#828282;" d="M410.8,30.7h1l-3.8,4.1l4.1,4.4h-1l-4-4.3v4.3h-0.8v-8.5h0.8v4.1L410.8,30.7z"/>
	<path style="fill:#828282;" d="M417.2,39.3c-1.3,0-2.3-0.5-2.9-1.5h-0.1v0.7c0,0.4,0,0.8,0,1.3V43h-0.8V30.7h0.7l0.1,1.2l0,0
		c0.6-0.9,1.5-1.4,2.8-1.4c1.1,0,2,0.4,2.6,1.1s0.9,1.8,0.9,3.3c0,1.4-0.3,2.5-0.9,3.2S418.3,39.3,417.2,39.3z M417.1,38.6
		c0.9,0,1.5-0.3,2-1s0.7-1.5,0.7-2.7c0-2.5-0.9-3.7-2.7-3.7c-1,0-1.7,0.3-2.2,0.8s-0.7,1.4-0.7,2.7V35c0,1.3,0.2,2.3,0.7,2.8
		S416.1,38.6,417.1,38.6z"/>
	<path style="fill:#828282;" d="M423.8,34.2h2.7c2,0,3,0.8,3,2.4c0,0.8-0.3,1.4-0.8,1.9c-0.6,0.5-1.4,0.7-2.4,0.7H423v-8.5h0.8V34.2
		z M423.8,35v3.4h2.6c0.7,0,1.3-0.2,1.7-0.5c0.4-0.3,0.6-0.8,0.6-1.4c0-0.6-0.2-1-0.5-1.2c-0.3-0.3-1-0.4-1.8-0.4L423.8,35L423.8,35
		z M431.8,39.2H431v-8.5h0.8V39.2z"/>
	<path style="fill:#828282;" d="M440,31.3h-2.8v7.8h-0.8v-7.8h-2.9v-0.7h6.5L440,31.3L440,31.3z"/>
	<path style="fill:#828282;" d="M442.5,34.2h3c2,0,3,0.8,3,2.4c0,0.8-0.3,1.4-0.8,1.9s-1.4,0.7-2.4,0.7h-3.5v-8.5h0.8v3.5
		L442.5,34.2L442.5,34.2z M442.5,35v3.4h2.9c0.7,0,1.3-0.2,1.7-0.5s0.6-0.8,0.6-1.4c0-0.6-0.2-1-0.5-1.2s-1-0.4-1.8-0.4L442.5,35
		L442.5,35z"/>
	<path style="fill:#828282;" d="M463.4,39.2h-0.8V28.5H456v10.7h-0.8V27.8h8.2L463.4,39.2L463.4,39.2z"/>
	<path style="fill:#828282;" d="M470.1,39.3c-1.3,0-2.3-0.5-2.9-1.5h-0.1v0.7c0,0.4,0,0.8,0,1.3V43h-0.8V30.7h0.7l0.1,1.2l0,0
		c0.6-0.9,1.5-1.4,2.8-1.4c1.1,0,2,0.4,2.6,1.1s0.9,1.8,0.9,3.3c0,1.4-0.3,2.5-0.9,3.2S471.2,39.3,470.1,39.3z M470,38.6
		c0.9,0,1.5-0.3,2-1s0.7-1.5,0.7-2.7c0-2.5-0.9-3.7-2.7-3.7c-1,0-1.7,0.3-2.2,0.8s-0.7,1.4-0.7,2.7V35c0,1.3,0.2,2.3,0.7,2.8
		S469,38.6,470,38.6z"/>
	<path style="fill:#828282;" d="M483,34.9c0,1.4-0.3,2.5-1,3.2s-1.6,1.2-2.8,1.2c-0.7,0-1.4-0.2-2-0.5s-1-0.9-1.3-1.5
		s-0.5-1.4-0.5-2.3c0-1.4,0.3-2.5,1-3.2s1.6-1.2,2.8-1.2c1.2,0,2.1,0.4,2.7,1.2C482.5,32.6,483,33.5,483,34.9z M476.3,34.9
		c0,1.2,0.3,2.1,0.8,2.7s1.2,1,2.2,1s1.7-0.3,2.2-1s0.8-1.6,0.8-2.7c0-1.2-0.3-2.1-0.8-2.7s-1.2-1-2.2-1s-1.7,0.3-2.2,1
		S476.3,33.7,476.3,34.9z"/>
	<path style="fill:#828282;" d="M488.8,39.3c-1.2,0-2.2-0.4-2.9-1.1s-1-1.8-1-3.2s0.3-2.4,1-3.3s1.6-1.2,2.7-1.2c1,0,1.8,0.3,2.4,1
		s0.9,1.6,0.9,2.8v0.6h-6.1c0,1.2,0.3,2.1,0.8,2.7s1.3,0.9,2.3,0.9c0.5,0,0.9,0,1.3-0.1s0.8-0.2,1.4-0.4v0.7
		c-0.5,0.2-0.9,0.4-1.3,0.4S489.2,39.3,488.8,39.3z M488.5,31.2c-0.8,0-1.5,0.3-2,0.8s-0.8,1.3-0.9,2.3h5.3c0-1-0.2-1.8-0.6-2.3
		S489.3,31.2,488.5,31.2z"/>
	<path style="fill:#828282;" d="M498.7,30.7h1l-3.8,4.1l4.1,4.4h-1l-4-4.3v4.3h-0.8v-8.5h0.8v4.1L498.7,30.7z"/>
	<path style="fill:#828282;" d="M506.8,31.3H504v7.8h-0.8v-7.8h-2.9v-0.7h6.5L506.8,31.3L506.8,31.3z"/>
</g>
<rect x="61.9" y="137.5" style="fill:none;" width="138.9" height="27.5"/>
<g style="enable-background:new    ;">
	<path style="fill:#828282;" d="M71,149.7h-1l-5.6-5.8v5.8h-0.8v-11.4h0.8v5.5l5.5-5.5H71l-5.5,5.5L71,149.7z"/>
	<path style="fill:#828282;" d="M79.5,145.4c0,1.4-0.3,2.5-1,3.2c-0.7,0.8-1.6,1.2-2.8,1.2c-0.7,0-1.4-0.2-2-0.5
		c-0.6-0.4-1-0.9-1.3-1.5c-0.3-0.7-0.5-1.4-0.5-2.3c0-1.4,0.3-2.5,1-3.2s1.6-1.2,2.8-1.2c1.2,0,2.1,0.4,2.7,1.2
		C79.2,143,79.5,144,79.5,145.4z M72.8,145.4c0,1.2,0.3,2.1,0.8,2.7c0.5,0.7,1.2,1,2.2,1s1.7-0.3,2.2-1s0.8-1.6,0.8-2.7
		c0-1.2-0.3-2.1-0.8-2.7s-1.2-1-2.2-1s-1.7,0.3-2.2,1C73,143.3,72.8,144.2,72.8,145.4z"/>
	<path style="fill:#828282;" d="M85.5,149.8c-1.3,0-2.3-0.5-2.9-1.5h-0.1v0.7c0,0.4,0,0.8,0,1.3v3.2h-0.8v-12.3h0.7l0.1,1.2l0,0
		c0.6-0.9,1.5-1.4,2.8-1.4c1.1,0,2,0.4,2.6,1.1c0.6,0.8,0.9,1.8,0.9,3.3c0,1.4-0.3,2.5-0.9,3.2C87.4,149.4,86.6,149.8,85.5,149.8z
		 M85.5,149.1c0.9,0,1.5-0.3,2-1c0.5-0.6,0.7-1.5,0.7-2.7c0-2.5-0.9-3.7-2.7-3.7c-1,0-1.7,0.3-2.2,0.8s-0.7,1.4-0.7,2.7v0.3
		c0,1.3,0.2,2.3,0.7,2.8C83.7,148.8,84.5,149.1,85.5,149.1z"/>
	<path style="fill:#828282;" d="M93,144.8c1.5,0,2.3-0.5,2.3-1.6c0-0.5-0.2-0.9-0.5-1.2c-0.4-0.3-0.9-0.4-1.5-0.4
		c-0.4,0-0.8,0-1.2,0.1c-0.4,0.1-0.7,0.2-1.2,0.4l-0.3-0.6c0.9-0.4,1.8-0.6,2.6-0.6c0.9,0,1.6,0.2,2.1,0.6s0.7,0.9,0.7,1.6
		c0,1-0.5,1.6-1.5,1.9l0,0c0.6,0.2,1.1,0.4,1.4,0.8s0.4,0.8,0.4,1.4c0,0.8-0.3,1.4-0.9,1.9s-1.4,0.7-2.4,0.7c-0.6,0-1.1-0.1-1.5-0.2
		c-0.5-0.1-0.8-0.2-1.1-0.4v-0.8c0.5,0.3,1,0.4,1.4,0.5s0.8,0.1,1.3,0.1c0.8,0,1.4-0.2,1.8-0.5s0.6-0.8,0.6-1.4s-0.2-1-0.6-1.3
		s-1-0.4-1.9-0.4h-1.2v-0.7L93,144.8L93,144.8z"/>
	<path style="fill:#828282;" d="M99.3,141.2v6.1v1.6l5-7.7h1v8.5h-0.7v-6.1V142l-5,7.7h-1v-8.5H99.3z"/>
	<path style="fill:#828282;" d="M109,141.2v3.7h5.4v-3.7h0.8v8.5h-0.8v-4.1H109v4.1h-0.8v-8.5H109z"/>
	<path style="fill:#828282;" d="M123.1,149.7l-0.2-1.3h-0.1c-0.4,0.5-0.9,0.9-1.3,1.2s-1,0.3-1.6,0.3c-0.8,0-1.5-0.2-1.9-0.6
		c-0.5-0.4-0.7-1-0.7-1.8s0.3-1.5,1-1.9c0.7-0.5,1.7-0.7,3-0.7h1.6v-0.6c0-0.8-0.2-1.4-0.5-1.8s-0.9-0.6-1.6-0.6
		c-0.8,0-1.6,0.2-2.4,0.7l-0.3-0.7c0.9-0.4,1.9-0.7,2.8-0.7s1.6,0.2,2.1,0.7s0.7,1.2,0.7,2.3v5.6L123.1,149.7L123.1,149.7z
		 M120,149.1c0.9,0,1.6-0.3,2.1-0.8s0.8-1.2,0.8-2.2v-0.8l-1.5,0.1c-1.2,0.1-2,0.2-2.6,0.6c-0.5,0.3-0.8,0.8-0.8,1.5
		c0,0.5,0.2,0.9,0.5,1.2C119,149,119.4,149.1,120,149.1z"/>
</g>
<rect x="61.9" y="186.5" style="fill:none;" width="137" height="27.5"/>
<g style="enable-background:new    ;">
	<path style="fill:#828282;" d="M71.9,201.5h-0.8v-2.9h-8.3v2.9H62v-3.6h0.8c0.8-1.3,1.4-3,2-5.1c0.6-2.1,0.9-3.9,1-5.6h4.9v10.7
		h1.2V201.5z M69.9,197.9V188h-3.4c-0.1,1.6-0.5,3.4-1,5.3s-1.1,3.4-1.8,4.6L69.9,197.9L69.9,197.9z"/>
	<path style="fill:#828282;" d="M80.8,194.4c0,1.4-0.3,2.5-1,3.2c-0.7,0.8-1.6,1.2-2.8,1.2c-0.7,0-1.4-0.2-2-0.5
		c-0.6-0.4-1-0.9-1.3-1.5c-0.3-0.7-0.5-1.4-0.5-2.3c0-1.4,0.3-2.5,1-3.2s1.6-1.2,2.8-1.2c1.2,0,2.1,0.4,2.7,1.2
		C80.5,192,80.8,193,80.8,194.4z M74.1,194.4c0,1.2,0.3,2.1,0.8,2.7c0.5,0.7,1.2,1,2.2,1s1.7-0.3,2.2-1s0.8-1.6,0.8-2.7
		c0-1.2-0.3-2.1-0.8-2.7s-1.2-1-2.2-1s-1.7,0.3-2.2,1C74.3,192.3,74.1,193.2,74.1,194.4z"/>
	<path style="fill:#828282;" d="M86.5,198.8c-1.2,0-2.2-0.4-2.9-1.1s-1-1.8-1-3.2s0.4-2.5,1.1-3.3s1.7-1.2,2.9-1.2
		c0.7,0,1.4,0.1,2.1,0.4l-0.2,0.7c-0.7-0.2-1.4-0.4-1.9-0.4c-1,0-1.8,0.3-2.4,1c-0.5,0.6-0.8,1.6-0.8,2.8c0,1.1,0.3,2,0.8,2.7
		c0.5,0.6,1.3,1,2.3,1c0.8,0,1.5-0.1,2.1-0.4v0.7C88.1,198.7,87.4,198.8,86.5,198.8z"/>
	<path style="fill:#828282;" d="M96.1,190.8h-2.8v7.8h-0.8v-7.8h-2.9v-0.7h6.5C96.1,190.1,96.1,190.8,96.1,190.8z"/>
	<path style="fill:#828282;" d="M96.5,190.2h0.8l1.8,4.8c0.5,1.5,0.9,2.5,1,3l0,0c0.2-0.7,0.6-1.7,1.1-3l1.8-4.7h0.8L100,200
		c-0.3,0.8-0.6,1.3-0.8,1.6c-0.2,0.3-0.5,0.5-0.7,0.6c-0.3,0.1-0.6,0.2-1,0.2c-0.3,0-0.6-0.1-1-0.2v-0.7c0.3,0.1,0.6,0.1,1,0.1
		c0.3,0,0.5-0.1,0.7-0.2s0.4-0.3,0.6-0.6s0.4-0.7,0.6-1.3s0.4-0.9,0.4-1.1L96.5,190.2z"/>
	<path style="fill:#828282;" d="M106,198.7h-0.8v-8.5h6.8v8.5h-0.8v-7.8H106V198.7z"/>
	<path style="fill:#828282;" d="M123.6,190.2h1l-3.8,4.1l4.1,4.4h-1l-4-4.3v4.3H119v-8.5h0.8v4.1L123.6,190.2z"/>
	<path style="fill:#828282;" d="M138.9,198.7h-0.8V188h-6.6v10.7h-0.8v-11.4h8.2L138.9,198.7L138.9,198.7z"/>
	<path style="fill:#828282;" d="M145.5,198.8c-1.3,0-2.3-0.5-2.9-1.5h-0.1v0.7c0,0.4,0,0.8,0,1.3v3.2h-0.8v-12.3h0.7l0.1,1.2l0,0
		c0.6-0.9,1.5-1.4,2.8-1.4c1.1,0,2,0.4,2.6,1.1c0.6,0.8,0.9,1.8,0.9,3.3c0,1.4-0.3,2.5-0.9,3.2C147.5,198.4,146.6,198.8,145.5,198.8
		z M145.5,198.1c0.9,0,1.5-0.3,2-1c0.5-0.6,0.7-1.5,0.7-2.7c0-2.5-0.9-3.7-2.7-3.7c-1,0-1.7,0.3-2.2,0.8s-0.7,1.4-0.7,2.7v0.3
		c0,1.3,0.2,2.3,0.7,2.8C143.8,197.8,144.5,198.1,145.5,198.1z"/>
	<path style="fill:#828282;" d="M158.5,194.4c0,1.4-0.3,2.5-1,3.2c-0.7,0.8-1.6,1.2-2.8,1.2c-0.7,0-1.4-0.2-2-0.5s-1-0.9-1.3-1.5
		s-0.5-1.4-0.5-2.3c0-1.4,0.3-2.5,1-3.2s1.6-1.2,2.8-1.2s2.1,0.4,2.7,1.2C158.1,192,158.5,193,158.5,194.4z M151.8,194.4
		c0,1.2,0.3,2.1,0.8,2.7c0.5,0.7,1.2,1,2.2,1s1.7-0.3,2.2-1s0.8-1.6,0.8-2.7c0-1.2-0.3-2.1-0.8-2.7s-1.2-1-2.2-1s-1.7,0.3-2.2,1
		C152,192.3,151.8,193.2,151.8,194.4z"/>
	<path style="fill:#828282;" d="M164.2,198.8c-1.2,0-2.2-0.4-2.9-1.1c-0.7-0.8-1-1.8-1-3.2s0.3-2.4,1-3.3c0.7-0.8,1.6-1.2,2.7-1.2
		c1,0,1.8,0.3,2.4,1c0.6,0.7,0.9,1.6,0.9,2.8v0.6h-6.1c0,1.2,0.3,2.1,0.8,2.7s1.3,0.9,2.3,0.9c0.5,0,0.9,0,1.3-0.1
		c0.4-0.1,0.8-0.2,1.4-0.4v0.7c-0.5,0.2-0.9,0.4-1.3,0.4C165.2,198.8,164.7,198.8,164.2,198.8z M164,190.7c-0.8,0-1.5,0.3-2,0.8
		s-0.8,1.3-0.9,2.3h5.3c0-1-0.2-1.8-0.6-2.3S164.8,190.7,164,190.7z"/>
	<path style="fill:#828282;" d="M174.2,190.2h1l-3.8,4.1l4.1,4.4h-1l-4-4.3v4.3h-0.8v-8.5h0.8v4.1L174.2,190.2z"/>
	<path style="fill:#828282;" d="M182.3,190.8h-2.8v7.8h-0.8v-7.8h-2.9v-0.7h6.5V190.8z"/>
	<path style="fill:#828282;" d="M182.6,190.2h0.8l1.8,4.8c0.5,1.5,0.9,2.5,1,3l0,0c0.2-0.7,0.6-1.7,1.1-3l1.8-4.7h0.8l-3.8,9.9
		c-0.3,0.8-0.6,1.3-0.8,1.6s-0.5,0.5-0.7,0.6s-0.6,0.2-1,0.2c-0.3,0-0.6-0.1-1-0.2v-0.7c0.3,0.1,0.6,0.1,1,0.1
		c0.3,0,0.5-0.1,0.7-0.2s0.4-0.3,0.6-0.6c0.2-0.3,0.4-0.7,0.6-1.3s0.4-0.9,0.4-1.1L182.6,190.2z"/>
</g>
<rect x="61.9" y="285" style="fill:none;" width="137" height="27.5"/>
<g style="enable-background:new    ;">
	<path style="fill:#828282;" d="M71.7,297.2h-0.8v-10.7h-6.6v10.7h-0.8v-11.4h8.2V297.2z"/>
	<path style="fill:#828282;" d="M78.2,297.3c-1.2,0-2.2-0.4-2.9-1.1c-0.7-0.8-1-1.8-1-3.2c0-1.4,0.3-2.4,1-3.3
		c0.7-0.8,1.6-1.2,2.7-1.2c1,0,1.8,0.3,2.4,1s0.9,1.6,0.9,2.8v0.6h-6.1c0,1.2,0.3,2.1,0.8,2.7s1.3,0.9,2.3,0.9c0.5,0,0.9,0,1.3-0.1
		s0.8-0.2,1.4-0.4v0.7c-0.5,0.2-0.9,0.4-1.3,0.4C79.1,297.3,78.7,297.3,78.2,297.3z M77.9,289.2c-0.8,0-1.5,0.3-2,0.8
		s-0.8,1.3-0.9,2.3h5.3c0-1-0.2-1.8-0.6-2.3S78.7,289.2,77.9,289.2z"/>
	<path style="fill:#828282;" d="M87.2,297.3c-1.3,0-2.3-0.5-2.9-1.5h-0.1v0.7c0,0.4,0,0.8,0,1.3v3.2h-0.8v-12.3h0.7l0.1,1.2l0,0
		c0.6-0.9,1.5-1.4,2.8-1.4c1.1,0,2,0.4,2.6,1.1c0.6,0.8,0.9,1.8,0.9,3.3c0,1.4-0.3,2.5-0.9,3.2C89.1,296.9,88.3,297.3,87.2,297.3z
		 M87.1,296.6c0.9,0,1.5-0.3,2-1c0.5-0.6,0.7-1.5,0.7-2.7c0-2.5-0.9-3.7-2.7-3.7c-1,0-1.7,0.3-2.2,0.8s-0.7,1.4-0.7,2.7v0.3
		c0,1.3,0.2,2.3,0.7,2.8C85.4,296.3,86.1,296.6,87.1,296.6z"/>
	<path style="fill:#828282;" d="M96.5,297.3c-1.2,0-2.2-0.4-2.9-1.1c-0.7-0.8-1-1.8-1-3.2c0-1.4,0.3-2.4,1-3.3
		c0.7-0.8,1.6-1.2,2.7-1.2c1,0,1.8,0.3,2.4,1s0.9,1.6,0.9,2.8v0.6h-6.1c0,1.2,0.3,2.1,0.8,2.7s1.3,0.9,2.3,0.9c0.5,0,0.9,0,1.3-0.1
		s0.8-0.2,1.4-0.4v0.7c-0.5,0.2-0.9,0.4-1.3,0.4C97.4,297.3,97,297.3,96.5,297.3z M96.3,289.2c-0.8,0-1.5,0.3-2,0.8
		s-0.8,1.3-0.9,2.3h5.3c0-1-0.2-1.8-0.6-2.3C97.6,289.5,97,289.2,96.3,289.2z"/>
	<path style="fill:#828282;" d="M102.6,288.7v6.1v1.6l5-7.7h1v8.5h-0.7v-6.1v-1.6l-5,7.7h-1v-8.5H102.6z"/>
	<path style="fill:#828282;" d="M115.4,296.3l0.5-1.4l2.4-6.3h1.1v8.5h-0.7v-7.6c-0.1,0.3-0.2,0.7-0.4,1s-1,2.5-2.6,6.5H115l-2.4-6
		c-0.1-0.2-0.2-0.5-0.3-0.8s-0.2-0.6-0.3-0.9v7.6h-0.7v-8.5h1l2.5,6.3C115.1,295.4,115.3,295.9,115.4,296.3z"/>
	<path style="fill:#828282;" d="M125.7,297.3c-1.2,0-2.2-0.4-2.9-1.1c-0.7-0.8-1-1.8-1-3.2c0-1.4,0.3-2.4,1-3.3
		c0.7-0.8,1.6-1.2,2.7-1.2c1,0,1.8,0.3,2.4,1c0.6,0.7,0.9,1.6,0.9,2.8v0.6h-6.1c0,1.2,0.3,2.1,0.8,2.7s1.3,0.9,2.3,0.9
		c0.5,0,0.9,0,1.3-0.1s0.8-0.2,1.4-0.4v0.7c-0.5,0.2-0.9,0.4-1.3,0.4C126.6,297.3,126.1,297.3,125.7,297.3z M125.4,289.2
		c-0.8,0-1.5,0.3-2,0.8s-0.8,1.3-0.9,2.3h5.3c0-1-0.2-1.8-0.6-2.3S126.2,289.2,125.4,289.2z"/>
	<path style="fill:#828282;" d="M131.8,288.7v3.7h5.4v-3.7h0.8v8.5h-0.8v-4.1h-5.4v4.1H131v-8.5H131.8z"/>
	<path style="fill:#828282;" d="M147.8,292.9c0,1.4-0.3,2.5-1,3.2c-0.7,0.8-1.6,1.2-2.8,1.2c-0.7,0-1.4-0.2-2-0.5s-1-0.9-1.3-1.5
		s-0.5-1.4-0.5-2.3c0-1.4,0.3-2.5,1-3.2s1.6-1.2,2.8-1.2s2.1,0.4,2.7,1.2C147.5,290.5,147.8,291.5,147.8,292.9z M141.1,292.9
		c0,1.2,0.3,2.1,0.8,2.7c0.5,0.7,1.2,1,2.2,1s1.7-0.3,2.2-1s0.8-1.6,0.8-2.7c0-1.2-0.3-2.1-0.8-2.7s-1.2-1-2.2-1s-1.7,0.3-2.2,1
		C141.4,290.8,141.1,291.7,141.1,292.9z"/>
	<path style="fill:#828282;" d="M156.7,290.7c0,0.5-0.1,1-0.4,1.3s-0.7,0.5-1.3,0.6v0.1c0.7,0.1,1.2,0.3,1.5,0.6
		c0.3,0.3,0.5,0.8,0.5,1.4c0,0.8-0.3,1.4-0.8,1.9c-0.5,0.4-1.3,0.7-2.4,0.7h-3.6v-8.5h3.6c1,0,1.7,0.2,2.2,0.5
		C156.4,289.5,156.7,290,156.7,290.7z M155.9,290.8c0-0.5-0.2-0.8-0.5-1.1s-0.9-0.3-1.6-0.3H151v2.9h2.7c0.8,0,1.4-0.1,1.7-0.4
		C155.7,291.7,155.9,291.3,155.9,290.8z M156.1,294.6c0-1-0.8-1.6-2.4-1.6h-2.8v3.4h2.9C155.3,296.4,156.1,295.8,156.1,294.6z"/>
	<path style="fill:#828282;" d="M164.4,297.2l-0.2-1.3h-0.1c-0.4,0.5-0.9,0.9-1.3,1.2s-1,0.3-1.6,0.3c-0.8,0-1.5-0.2-1.9-0.6
		c-0.5-0.4-0.7-1-0.7-1.8s0.3-1.5,1-1.9c0.7-0.5,1.7-0.7,3-0.7h1.6v-0.6c0-0.8-0.2-1.4-0.5-1.8s-0.9-0.6-1.6-0.6
		c-0.8,0-1.6,0.2-2.4,0.7l-0.3-0.7c0.9-0.4,1.9-0.7,2.8-0.7c0.9,0,1.6,0.2,2.1,0.7s0.7,1.2,0.7,2.3v5.6h-0.6V297.2z M161.2,296.6
		c0.9,0,1.6-0.3,2.1-0.8s0.8-1.2,0.8-2.2v-0.8l-1.5,0.1c-1.2,0.1-2,0.2-2.6,0.6c-0.5,0.3-0.8,0.8-0.8,1.5c0,0.5,0.2,0.9,0.5,1.2
		C160.2,296.5,160.6,296.6,161.2,296.6z"/>
	<path style="fill:#828282;" d="M173.1,289.3h-2.8v7.8h-0.8v-7.8h-2.9v-0.7h6.5V289.3z"/>
	<path style="fill:#828282;" d="M175.6,292.2h3c2,0,3,0.8,3,2.4c0,0.8-0.3,1.4-0.8,1.9c-0.6,0.5-1.4,0.7-2.4,0.7h-3.5v-8.5h0.8v3.5
		H175.6z M175.6,293v3.4h2.9c0.7,0,1.3-0.2,1.7-0.5s0.6-0.8,0.6-1.4s-0.2-1-0.5-1.2c-0.3-0.3-1-0.4-1.8-0.4h-2.9V293z"/>
</g>
<rect x="61.9" y="334.5" style="fill:none;" width="137" height="27.5"/>
<g style="enable-background:new    ;">
	<path style="fill:#828282;" d="M64.1,346.8c-0.6,0-1.1-0.1-1.5-0.2v-0.8c0.4,0.2,0.9,0.3,1.4,0.3c0.4,0,0.7-0.1,1-0.2
		s0.5-0.3,0.7-0.6c0.2-0.3,0.5-0.8,0.8-1.4l-4.5-8.6h0.9l3.5,6.7c0.2,0.4,0.3,0.7,0.5,1.1l0,0l0.2-0.5l3.3-7.3h0.9l-3.7,8
		c-0.2,0.5-0.5,1-0.7,1.4s-0.5,0.8-0.7,1.1c-0.3,0.3-0.6,0.6-0.9,0.7C65,346.7,64.6,346.8,64.1,346.8z"/>
	<path style="fill:#828282;" d="M79.7,349.5h-0.8v-2.9h-6.5v2.9h-0.8v-3.6h0.6c0.7-1,1.3-2.1,1.6-3.5c0.4-1.3,0.6-2.7,0.6-4.3h4.1
		v7.8h1.1v3.6H79.7z M77.8,345.9v-7h-2.6c-0.1,2.8-0.8,5.2-2,7H77.8z"/>
	<path style="fill:#828282;" d="M86.6,346.7l-0.2-1.3h-0.1c-0.4,0.5-0.9,0.9-1.3,1.2c-0.5,0.2-1,0.3-1.6,0.3c-0.8,0-1.5-0.2-1.9-0.6
		c-0.5-0.4-0.7-1-0.7-1.8s0.3-1.5,1-1.9c0.7-0.5,1.7-0.7,3-0.7h1.6v-0.6c0-0.8-0.2-1.4-0.5-1.8s-0.9-0.6-1.6-0.6
		c-0.8,0-1.6,0.2-2.4,0.7l-0.3-0.7c0.9-0.4,1.9-0.7,2.8-0.7s1.6,0.2,2.1,0.7s0.7,1.2,0.7,2.3v5.6h-0.6V346.7z M83.5,346.1
		c0.9,0,1.6-0.3,2.1-0.8s0.8-1.2,0.8-2.2v-0.8l-1.5,0.1c-1.2,0.1-2,0.2-2.6,0.6c-0.5,0.3-0.8,0.8-0.8,1.5c0,0.5,0.2,0.9,0.5,1.2
		C82.4,346,82.9,346.1,83.5,346.1z"/>
	<path style="fill:#828282;" d="M95.8,346.7H95v-7.8h-3c-0.2,2.1-0.3,3.6-0.6,4.7c-0.2,1.1-0.5,1.9-0.9,2.4s-0.8,0.8-1.4,0.8
		c-0.2,0-0.4,0-0.5-0.1V346c0.1,0,0.2,0,0.4,0c0.6,0,1.1-0.6,1.4-1.9c0.4-1.2,0.6-3.2,0.8-6h4.5L95.8,346.7L95.8,346.7z"/>
	<path style="fill:#828282;" d="M99.4,338.2v6.1v1.6l5-7.7h1v8.5h-0.7v-6.1V339l-5,7.7h-1v-8.5H99.4z"/>
	<path style="fill:#828282;" d="M113.6,338.8h-2.8v7.8H110v-7.8h-2.9v-0.7h6.5C113.6,338.1,113.6,338.8,113.6,338.8z"/>
	<path style="fill:#828282;" d="M116.2,341.7h3c2,0,3,0.8,3,2.4c0,0.8-0.3,1.4-0.8,1.9c-0.6,0.5-1.4,0.7-2.4,0.7h-3.5v-8.5h0.8
		L116.2,341.7L116.2,341.7z M116.2,342.5v3.4h2.9c0.7,0,1.3-0.2,1.7-0.5s0.6-0.8,0.6-1.4s-0.2-1-0.5-1.2c-0.3-0.3-1-0.4-1.8-0.4
		h-2.9C116.2,342.4,116.2,342.5,116.2,342.5z"/>
	<path style="fill:#828282;" d="M137,346.7h-0.8V336h-6.6v10.7h-0.8v-11.4h8.2L137,346.7L137,346.7z"/>
	<path style="fill:#828282;" d="M143.7,346.8c-1.3,0-2.3-0.5-2.9-1.5h-0.1v0.7c0,0.4,0,0.8,0,1.3v3.2h-0.8v-12.3h0.7l0.1,1.2l0,0
		c0.6-0.9,1.5-1.4,2.8-1.4c1.1,0,2,0.4,2.6,1.1c0.6,0.8,0.9,1.8,0.9,3.3c0,1.4-0.3,2.5-0.9,3.2C145.7,346.4,144.8,346.8,143.7,346.8
		z M143.7,346.1c0.9,0,1.5-0.3,2-1c0.5-0.6,0.7-1.5,0.7-2.7c0-2.5-0.9-3.7-2.7-3.7c-1,0-1.7,0.3-2.2,0.8s-0.7,1.4-0.7,2.7v0.3
		c0,1.3,0.2,2.3,0.7,2.8C142,345.8,142.7,346.1,143.7,346.1z"/>
	<path style="fill:#828282;" d="M156.6,342.4c0,1.4-0.3,2.5-1,3.2c-0.7,0.8-1.6,1.2-2.8,1.2c-0.7,0-1.4-0.2-2-0.5s-1-0.9-1.3-1.5
		s-0.5-1.4-0.5-2.3c0-1.4,0.3-2.5,1-3.2s1.6-1.2,2.8-1.2s2.1,0.4,2.7,1.2C156.3,340,156.6,341,156.6,342.4z M149.9,342.4
		c0,1.2,0.3,2.1,0.8,2.7c0.5,0.7,1.2,1,2.2,1s1.7-0.3,2.2-1s0.8-1.6,0.8-2.7c0-1.2-0.3-2.1-0.8-2.7s-1.2-1-2.2-1s-1.7,0.3-2.2,1
		C150.2,340.3,149.9,341.2,149.9,342.4z"/>
	<path style="fill:#828282;" d="M162.4,346.8c-1.2,0-2.2-0.4-2.9-1.1c-0.7-0.8-1-1.8-1-3.2c0-1.4,0.3-2.4,1-3.3
		c0.7-0.8,1.6-1.2,2.7-1.2c1,0,1.8,0.3,2.4,1c0.6,0.7,0.9,1.6,0.9,2.8v0.6h-6.1c0,1.2,0.3,2.1,0.8,2.7s1.3,0.9,2.3,0.9
		c0.5,0,0.9,0,1.3-0.1c0.4-0.1,0.8-0.2,1.4-0.4v0.7c-0.5,0.2-0.9,0.4-1.3,0.4C163.3,346.8,162.9,346.8,162.4,346.8z M162.2,338.7
		c-0.8,0-1.5,0.3-2,0.8s-0.8,1.3-0.9,2.3h5.3c0-1-0.2-1.8-0.6-2.3S162.9,338.7,162.2,338.7z"/>
	<path style="fill:#828282;" d="M172.4,338.2h1l-3.8,4.1l4.1,4.4h-1l-4-4.3v4.3h-0.8v-8.5h0.8v4.1L172.4,338.2z"/>
	<path style="fill:#828282;" d="M180.5,338.8h-2.8v7.8h-0.8v-7.8H174v-0.7h6.5V338.8z"/>
</g>
<rect x="26.3" y="20.6" style="fill:none;" width="192.9" height="39.4"/>
<g style="enable-background:new    ;">
	<path style="fill:#FFFFFF;" d="M34.9,27.2c1.2,0,2.2,0.2,3,0.6c0.9,0.4,1.6,1.2,2.3,2.2h0.1c-0.1-1.2-0.1-2.5-0.1-3.7v-5.8h1.5
		v23.1h-1l-0.4-2.5h-0.1c-1.2,1.8-3,2.8-5.3,2.8c-2.2,0-3.9-0.7-5.1-2.1c-1.2-1.4-1.8-3.4-1.8-6c0-2.8,0.6-4.9,1.7-6.4
		C31,27.9,32.7,27.2,34.9,27.2z M34.9,28.5c-1.8,0-3.1,0.6-4,1.9c-0.9,1.2-1.3,3-1.3,5.4c0,4.6,1.8,6.9,5.3,6.9c1.8,0,3.2-0.5,4-1.6
		s1.3-2.8,1.3-5.2v-0.3c0-2.5-0.4-4.3-1.3-5.4C38.2,29.1,36.8,28.5,34.9,28.5z"/>
	<path style="fill:#FFFFFF;" d="M53.6,43.9c-2.3,0-4.2-0.7-5.5-2.2c-1.3-1.4-2-3.5-2-6.1s0.6-4.6,1.9-6.2c1.3-1.5,3-2.3,5.1-2.3
		c1.9,0,3.4,0.7,4.5,2s1.6,3.1,1.6,5.4v1.2H47.7c0,2.2,0.5,3.9,1.5,5.1c1,1.2,2.5,1.8,4.4,1.8c0.9,0,1.7-0.1,2.4-0.2
		c0.7-0.1,1.6-0.4,2.6-0.8v1.3c-0.9,0.4-1.8,0.7-2.5,0.8C55.4,43.9,54.5,43.9,53.6,43.9z M53.2,28.5c-1.6,0-2.8,0.5-3.7,1.5
		s-1.5,2.5-1.6,4.4h10c0-1.9-0.4-3.3-1.2-4.4C55.7,29,54.6,28.5,53.2,28.5z"/>
	<path style="fill:#FFFFFF;" d="M73.8,39.4c0,1.4-0.5,2.6-1.6,3.3c-1.1,0.8-2.7,1.2-4.7,1.2c-2.2,0-3.9-0.3-5.1-1v-1.6
		c1.6,0.8,3.3,1.2,5.1,1.2c1.6,0,2.8-0.3,3.6-0.8c0.8-0.5,1.2-1.2,1.2-2.1c0-0.8-0.3-1.5-1-2c-0.7-0.6-1.7-1.1-3.2-1.6
		c-1.6-0.6-2.7-1.1-3.4-1.5s-1.1-0.9-1.5-1.4c-0.3-0.5-0.5-1.2-0.5-1.9c0-1.2,0.5-2.2,1.5-2.9s2.4-1.1,4.2-1.1c1.7,0,3.4,0.3,5,1
		l-0.5,1.3c-1.6-0.7-3-1-4.4-1c-1.3,0-2.4,0.2-3.1,0.7c-0.8,0.4-1.2,1-1.2,1.8s0.3,1.5,0.9,2s1.8,1.1,3.5,1.7c1.5,0.5,2.5,1,3.2,1.4
		s1.2,0.9,1.5,1.4C73.6,38.1,73.8,38.7,73.8,39.4z"/>
	<path style="fill:#FFFFFF;" d="M77.7,23c0-0.9,0.3-1.4,0.9-1.4c0.3,0,0.5,0.1,0.7,0.4c0.2,0.2,0.3,0.6,0.3,1.1
		c0,0.4-0.1,0.8-0.3,1.1c-0.2,0.3-0.4,0.4-0.7,0.4C78,24.5,77.7,24,77.7,23z M79.4,43.6h-1.5V27.5h1.5V43.6z"/>
	<path style="fill:#FFFFFF;" d="M97.4,27.5v1l-3.3,0.2c0.9,1.1,1.3,2.3,1.3,3.6c0,1.6-0.5,2.8-1.5,3.8s-2.4,1.4-4.2,1.4
		c-0.7,0-1.2,0-1.5-0.1c-0.6,0.3-1,0.7-1.3,1.1c-0.3,0.4-0.5,0.9-0.5,1.3c0,0.5,0.2,0.9,0.6,1.1s1,0.4,2,0.4h2.8
		c1.8,0,3.1,0.4,4,1.1c0.9,0.7,1.4,1.8,1.4,3.1c0,1.7-0.7,3-2.1,3.9s-3.3,1.4-5.9,1.4c-2,0-3.6-0.4-4.7-1.2s-1.7-1.9-1.7-3.3
		c0-1.1,0.3-2,1-2.8c0.7-0.7,1.6-1.2,2.8-1.5c-0.5-0.2-0.9-0.5-1.2-0.9c-0.3-0.4-0.4-0.8-0.4-1.3c0-1.1,0.7-2,2.1-2.8
		c-0.9-0.4-1.7-1-2.2-1.8s-0.8-1.8-0.8-2.8c0-1.6,0.5-2.9,1.5-3.9S88,27,89.7,27c1.1,0,1.9,0.1,2.5,0.3h5.2
		C97.4,27.3,97.4,27.5,97.4,27.5z M84.3,46.4c0,2.2,1.6,3.3,4.9,3.3c4.2,0,6.3-1.3,6.3-4c0-1-0.3-1.7-1-2.1
		c-0.7-0.4-1.7-0.7-3.2-0.7h-2.6C85.8,42.9,84.3,44,84.3,46.4z M85.5,32.5c0,1.2,0.4,2.2,1.1,2.9c0.8,0.7,1.8,1,3,1
		c1.3,0,2.4-0.3,3.1-1s1.1-1.7,1.1-3c0-1.4-0.4-2.4-1.1-3.1s-1.8-1-3.1-1c-1.3,0-2.3,0.4-3,1.1C85.9,30.2,85.5,31.2,85.5,32.5z"/>
	<path style="fill:#FFFFFF;" d="M111.9,43.6V33.1c0-1.6-0.3-2.8-1-3.5s-1.7-1.1-3.2-1.1c-1.9,0-3.3,0.5-4.2,1.5s-1.3,2.6-1.3,4.7
		v8.9h-1.5V27.5h1.2l0.3,2.2h0.1c1-1.7,2.9-2.5,5.6-2.5c3.7,0,5.5,2,5.5,5.9v10.5L111.9,43.6L111.9,43.6z"/>
	<path style="fill:#FFFFFF;" d="M146.6,43.6V33c0-1.6-0.3-2.7-0.9-3.4c-0.6-0.7-1.6-1.1-2.8-1.1c-1.7,0-2.9,0.5-3.7,1.4
		s-1.2,2.3-1.2,4.3v9.4h-1.5v-11c0-2.7-1.2-4.1-3.7-4.1c-1.7,0-2.9,0.5-3.7,1.5s-1.2,2.6-1.2,4.7v8.9h-1.5V27.5h1.2l0.3,2.2h0.1
		c0.4-0.8,1.1-1.4,1.9-1.9c0.8-0.4,1.7-0.7,2.7-0.7c2.5,0,4.2,1,4.9,2.9h0.1c0.5-0.9,1.2-1.6,2.1-2.1s1.9-0.7,3-0.7
		c1.8,0,3.1,0.5,4,1.4s1.3,2.4,1.3,4.5v10.5H146.6L146.6,43.6z"/>
	<path style="fill:#FFFFFF;" d="M163.1,43.6l-0.4-2.6h-0.1c-0.8,1-1.6,1.8-2.5,2.2s-1.9,0.6-3,0.6c-1.6,0-2.8-0.4-3.7-1.2
		s-1.3-1.9-1.3-3.4c0-1.6,0.7-2.8,2-3.7s3.2-1.3,5.7-1.4l3.1-0.1v-1.1c0-1.5-0.3-2.7-0.9-3.5c-0.6-0.8-1.6-1.2-3-1.2
		c-1.5,0-3,0.4-4.6,1.2l-0.5-1.3c1.8-0.8,3.5-1.2,5.2-1.2c1.8,0,3.1,0.5,4,1.4s1.3,2.4,1.3,4.3v10.7h-1.3V43.6z M157.1,42.6
		c1.7,0,3.1-0.5,4.1-1.5s1.5-2.3,1.5-4.1v-1.6l-2.8,0.1c-2.3,0.1-3.9,0.5-4.8,1.1c-1,0.6-1.4,1.5-1.4,2.8c0,1,0.3,1.8,0.9,2.4
		C155.1,42.3,156,42.6,157.1,42.6z"/>
	<path style="fill:#FFFFFF;" d="M176.3,43.9c-2.5,0-4.3-0.9-5.4-2.8h-0.1v1.2c0,0.7,0.1,1.5,0.1,2.4v6.1h-1.5V27.4h1.2l0.3,2.3h0.1
		c1.1-1.7,2.9-2.6,5.3-2.6c2.2,0,3.8,0.7,5,2.1s1.7,3.5,1.7,6.2c0,2.6-0.6,4.7-1.8,6.2S178.3,43.9,176.3,43.9z M176.2,42.6
		c1.7,0,2.9-0.6,3.8-1.8s1.4-2.9,1.4-5.1c0-4.7-1.7-7.1-5.1-7.1c-1.9,0-3.3,0.5-4.1,1.5c-0.9,1-1.3,2.7-1.3,5v0.5
		c0,2.5,0.4,4.3,1.3,5.4C172.9,42.1,174.3,42.6,176.2,42.6z"/>
</g>
<g>
	<circle style="fill:#FFFFFF;" cx="120.8" cy="40" r="2"/>
</g>
<g>
	<circle style="fill:#FFFFFF;" cx="120.8" cy="32.5" r="2"/>
</g>
<g>
	<circle style="fill:#FFFFFF;" cx="19" cy="40" r="2"/>
</g>
<g>
	<circle style="fill:#FFFFFF;" cx="19" cy="32.5" r="2"/>
</g>
<g>
	
		<line style="fill:none;stroke:#828282;stroke-linecap:round;stroke-linejoin:round;stroke-miterlimit:10;" x1="33.4" y1="347.1" x2="17.9" y2="331.6"/>
	
		<line style="fill:none;stroke:#828282;stroke-linecap:round;stroke-linejoin:round;stroke-miterlimit:10;" x1="33.4" y1="330.9" x2="17.9" y2="346.4"/>
</g>
<g>
	<g>
		<path style="fill:none;stroke:#828282;stroke-linecap:round;stroke-linejoin:round;stroke-miterlimit:10;" d="M37,282.6
			c-1.2-1.2-3.1-1.2-4.2,0l-10.1,10.1c-1.2,1.2-2.7,3.3-3.5,4.8l-2.3,4.4c-0.8,1.5-0.2,2,1.3,1.3l4.4-2.3c1.5-0.8,3.6-2.3,4.8-3.5
			l10.1-10.1c1.2-1.2,1.2-3.1,0-4.2L37,282.6z"/>
	</g>
	
		<line style="fill:none;stroke:#828282;stroke-linecap:round;stroke-linejoin:round;stroke-miterlimit:10;" x1="31.5" y1="283.8" x2="36.2" y2="288.5"/>
	
		<line style="fill:none;stroke:#828282;stroke-linecap:round;stroke-linejoin:round;stroke-miterlimit:10;" x1="19.7" y1="297.3" x2="22.7" y2="300.3"/>
</g>
<g>
	<g>
		<polyline style="fill:#FFFFFF;stroke:#69BFFF;stroke-linecap:round;stroke-linejoin:round;stroke-miterlimit:10;" points="
			484.2,88 484.2,85.5 493.2,85.5 493.2,88 		"/>
		<path style="fill:#69BFFF;stroke:#69BFFF;stroke-linecap:round;stroke-linejoin:round;stroke-miterlimit:10;" d="M503.3,104.5
			h-16.1c-1.7,0-3-1.4-3-3.1V87.8v0.7h19c1.7,0,2.9,0.6,2.9,2.2v10.7C506.2,103.1,504.9,104.5,503.3,104.5z"/>
		<path style="fill:#69BFFF;stroke:#69BFFF;stroke-linecap:round;stroke-linejoin:round;stroke-miterlimit:10;" d="M565.2,106.5
			c-1.4,0-3-2.1-3-3.5V89.6l5-4.1h8.5c1.4,0,2.5,0.4,2.5,1.8V103c0,1.4-1,3.5-2.5,3.5H565.2z"/>
		
			<line style="fill:none;stroke:#FFFFFF;stroke-linecap:round;stroke-linejoin:round;stroke-miterlimit:10;" x1="495.2" y1="91" x2="495.2" y2="101"/>
		
			<line style="fill:none;stroke:#FFFFFF;stroke-linecap:round;stroke-linejoin:round;stroke-miterlimit:10;" x1="490.7" y1="96.5" x2="499.7" y2="96.5"/>
		<path style="fill:#FFFFFF;" d="M567.7,85v2.9c0,1.1-0.5,2.1-1.6,2.1h-3.4"/>
		
			<line style="fill:none;stroke:#FFFFFF;stroke-linecap:round;stroke-linejoin:round;stroke-miterlimit:10;" x1="570.2" y1="91" x2="570.2" y2="101"/>
		
			<line style="fill:none;stroke:#FFFFFF;stroke-linecap:round;stroke-linejoin:round;stroke-miterlimit:10;" x1="566.7" y1="96.5" x2="575.7" y2="96.5"/>
	</g>
</g>
<rect x="246.5" y="85.7" style="fill:none;" width="216.3" height="57.2"/>
<g>
	<path style="fill:#69BFFF;" d="M259,105.2l-6.4-15.8h-0.1c0.1,1,0.1,2,0.1,3v12.8h-1.1V88.1h1.9l6.1,15.1h0.1l6.1-15.1h1.8v17.1
		h-1.2v-13c0-0.9,0-1.8,0.1-2.8h-0.1l-6.4,15.8H259z"/>
	<path style="fill:#69BFFF;" d="M282.4,98.9c0,2.1-0.5,3.7-1.5,4.9s-2.4,1.8-4.2,1.8c-1.1,0-2.1-0.3-3-0.8s-1.5-1.3-2-2.3
		s-0.7-2.2-0.7-3.5c0-2.1,0.5-3.7,1.5-4.9s2.4-1.7,4.1-1.7c1.8,0,3.1,0.6,4.1,1.8S282.4,96.8,282.4,98.9z M272.3,98.9
		c0,1.8,0.4,3.1,1.2,4.1s1.9,1.5,3.3,1.5s2.5-0.5,3.3-1.5s1.2-2.3,1.2-4.1s-0.4-3.1-1.2-4.1s-1.9-1.5-3.3-1.5s-2.5,0.5-3.3,1.4
		S272.3,97.1,272.3,98.9z"/>
	<path style="fill:#69BFFF;" d="M287,92.5v9.2l-0.1,2.4l7.6-11.6h1.5v12.7h-1.1V96v-2.5l-7.6,11.6h-1.5V92.4L287,92.5L287,92.5z
		 M291,90.7c-1.2,0-2.1-0.3-2.7-0.8s-1-1.4-1.1-2.5h1c0.1,0.9,0.4,1.5,0.8,1.8s1.1,0.5,1.9,0.5c0.9,0,1.5-0.2,1.9-0.6s0.7-1,0.8-1.8
		h1C294.6,89.6,293.3,90.7,291,90.7z"/>
	<path style="fill:#69BFFF;" d="M319.1,105.2h-1.2v-16H308v16h-1.2V88.1h12.3L319.1,105.2L319.1,105.2z"/>
	<path style="fill:#69BFFF;" d="M329.1,105.5c-2,0-3.4-0.7-4.3-2.2h-0.1v1c0,0.6,0,1.2,0,1.9v4.9h-1.2V92.6h1l0.2,1.8h0.1
		c0.9-1.4,2.3-2.1,4.2-2.1c1.7,0,3,0.6,3.9,1.7s1.4,2.8,1.4,4.9s-0.5,3.7-1.4,4.9S330.8,105.5,329.1,105.5z M329.1,104.4
		c1.3,0,2.3-0.5,3-1.5s1.1-2.3,1.1-4.1c0-3.7-1.4-5.6-4.1-5.6c-1.5,0-2.6,0.4-3.3,1.2s-1,2.1-1,4v0.4c0,2,0.3,3.4,1,4.3
		S327.6,104.4,329.1,104.4z"/>
	<path style="fill:#69BFFF;" d="M348.5,98.9c0,2.1-0.5,3.7-1.5,4.9s-2.4,1.8-4.2,1.8c-1.1,0-2.1-0.3-3-0.8s-1.5-1.3-2-2.3
		s-0.7-2.2-0.7-3.5c0-2.1,0.5-3.7,1.5-4.9s2.4-1.7,4.1-1.7c1.8,0,3.1,0.6,4.1,1.8S348.5,96.8,348.5,98.9z M338.4,98.9
		c0,1.8,0.4,3.1,1.2,4.1s1.9,1.5,3.3,1.5s2.5-0.5,3.3-1.5s1.2-2.3,1.2-4.1s-0.4-3.1-1.2-4.1s-1.9-1.5-3.3-1.5s-2.5,0.5-3.3,1.4
		S338.4,97.1,338.4,98.9z"/>
	<path style="fill:#69BFFF;" d="M357.2,105.5c-1.9,0-3.3-0.6-4.3-1.7s-1.6-2.7-1.6-4.8c0-2,0.5-3.7,1.5-4.9s2.3-1.8,4-1.8
		c1.5,0,2.7,0.5,3.6,1.6s1.3,2.5,1.3,4.3v0.9h-9.2c0,1.8,0.4,3.1,1.2,4s1.9,1.4,3.4,1.4c0.7,0,1.4-0.1,1.9-0.2s1.2-0.3,2.1-0.7v1.1
		c-0.7,0.3-1.4,0.5-2,0.6S357.9,105.5,357.2,105.5z M356.8,93.3c-1.2,0-2.2,0.4-3,1.2s-1.2,2-1.3,3.5h7.9c0-1.5-0.3-2.6-1-3.5
		S358,93.3,356.8,93.3z"/>
	<path style="fill:#69BFFF;" d="M372.1,92.5h1.4l-5.7,6.2l6.1,6.6h-1.6l-6-6.5v6.5h-1.2V92.6h1.2v6.2L372.1,92.5z"/>
	<path style="fill:#69BFFF;" d="M384.3,93.5h-4.2v11.7H379V93.5h-4.3v-1h9.7v1H384.3z"/>
</g>
<g>
	<g>
		<rect x="1" y="-4" style="opacity:0.5;enable-background:new    ;" width="1920" height="956"/>
		<rect x="1801" y="-7" style="opacity:0.3;enable-background:new    ;" width="120" height="956"/>
		<g>
			<line style="fill:none;stroke:#FFFFFF;stroke-width:2;stroke-miterlimit:10;" x1="1839" y1="384.5" x2="1909" y2="454.5"/>
			<line style="fill:none;stroke:#FFFFFF;stroke-width:2;stroke-miterlimit:10;" x1="1909" y1="453.5" x2="1839" y2="523.5"/>
		</g>
		<g>
			<rect x="5" y="-2" style="fill-opacity:0;" width="120" height="956"/>
			<g style="opacity:0.4;">
				<line style="fill:none;stroke:#FFFFFF;stroke-width:2;stroke-miterlimit:10;" x1="98" y1="384.5" x2="28" y2="454.5"/>
				<line style="fill:none;stroke:#FFFFFF;stroke-width:2;stroke-miterlimit:10;" x1="28" y1="453.5" x2="98" y2="523.5"/>
			</g>
		</g>
		<g>
			<circle style="opacity:0.3;enable-background:new    ;" cx="985" cy="59" r="32"/>
			<g id="unlock_2px_small_1_">
				
					<line style="fill:none;stroke:#FFFFFF;stroke-width:2;stroke-linecap:round;stroke-miterlimit:10;" x1="979" y1="75" x2="999" y2="75"/>
				
					<line style="fill:none;stroke:#FFFFFF;stroke-width:2;stroke-linecap:round;stroke-miterlimit:10;" x1="974" y1="59" x2="974" y2="70"/>
				
					<line style="fill:none;stroke:#FFFFFF;stroke-width:2;stroke-linecap:round;stroke-miterlimit:10;" x1="1004" y1="59" x2="1004" y2="70"/>
				<path style="fill:none;stroke:#FFFFFF;stroke-width:2;stroke-linecap:round;stroke-miterlimit:10;" d="M974,70c0,4,1.9,5,5.9,5"
					/>
				<path style="fill:none;stroke:#FFFFFF;stroke-width:2;stroke-linecap:round;stroke-miterlimit:10;" d="M1004,70c0,4-1,5-5,5"/>
				
					<line style="fill:none;stroke:#FFFFFF;stroke-width:2;stroke-linecap:round;stroke-miterlimit:10;" x1="979" y1="54" x2="1000" y2="54"/>
				<path style="fill:none;stroke:#FFFFFF;stroke-width:2;stroke-linecap:round;stroke-miterlimit:10;" d="M974,59c0-4,1.9-5,6-5"/>
				<path style="fill:none;stroke:#FFFFFF;stroke-width:2;stroke-linecap:round;stroke-miterlimit:10;" d="M1004,59c0-4-1-5-5-5"/>
				<path style="fill:none;stroke:#FFFFFF;stroke-width:2;stroke-linecap:round;stroke-miterlimit:10;" d="M981.4,52.9
					c0-7.8-2-13-8-13s-8,5.2-8,13"/>
				<path style="fill:none;stroke:#FFFFFF;stroke-width:2;stroke-linecap:round;stroke-miterlimit:10;" d="M991,67c0,0.6-0.4,1-1,1
					h-2c-0.6,0-1-0.4-1-1v-4c0-0.6,0.4-1,1-1h2c0.6,0,1,0.4,1,1V67z"/>
			</g>
		</g>
		<g>
			<circle style="opacity:0.3;enable-background:new    ;" cx="898" cy="59" r="32"/>
			<g id="download_2px_small_1_">
				<g>
					
						<line style="fill:none;stroke:#FFFFFF;stroke-width:2;stroke-linecap:round;stroke-miterlimit:10;" x1="890.8" y1="59.8" x2="899.2" y2="68.2"/>
					
						<line style="fill:none;stroke:#FFFFFF;stroke-width:2;stroke-linecap:round;stroke-miterlimit:10;" x1="899.5" y1="67.9" x2="907.9" y2="59.4"/>
				</g>
				
					<line style="fill:none;stroke:#FFFFFF;stroke-width:2;stroke-linecap:round;stroke-miterlimit:10;" x1="899" y1="68" x2="899" y2="42"/>
				
					<line style="fill:none;stroke:#FFFFFF;stroke-width:2;stroke-linecap:round;stroke-miterlimit:10;" x1="908" y1="72" x2="890" y2="72"/>
			</g>
		</g>
		<g>
			<circle style="opacity:0.3;enable-background:new    ;" cx="811" cy="59" r="32"/>
			<g id="del_2px_small_2_">
				
					<line style="fill:none;stroke:#FFFFFF;stroke-width:2;stroke-linecap:round;stroke-miterlimit:10;" x1="806" y1="74" x2="818" y2="74"/>
				
					<line style="fill:none;stroke:#FFFFFF;stroke-width:2;stroke-linecap:round;stroke-miterlimit:10;" x1="799.4" y1="51.9" x2="801.4" y2="68.9"/>
				
					<line style="fill:none;stroke:#FFFFFF;stroke-width:2;stroke-linecap:round;stroke-miterlimit:10;" x1="825.4" y1="51.9" x2="823.4" y2="68.9"/>
				<path style="fill:none;stroke:#FFFFFF;stroke-width:2;stroke-linecap:round;stroke-miterlimit:10;" d="M801.4,68.9c1,5,3,5,5,5"
					/>
				<path style="fill:none;stroke:#FFFFFF;stroke-width:2;stroke-linecap:round;stroke-miterlimit:10;" d="M823.4,68.9c-1,5-3,5-5,5
					"/>
				
					<line style="fill:none;stroke:#FFFFFF;stroke-width:2;stroke-linecap:round;stroke-miterlimit:10;" x1="804" y1="49" x2="820" y2="49"/>
				
					<line style="fill:none;stroke:#FFFFFF;stroke-width:2;stroke-linecap:round;stroke-miterlimit:10;" x1="800" y1="46" x2="824" y2="46"/>
				<path style="fill:none;stroke:#FFFFFF;stroke-width:2;stroke-linecap:round;stroke-miterlimit:10;" d="M799.4,51.9c0-3,2-3,5-3"
					/>
				<path style="fill:none;stroke:#FFFFFF;stroke-width:2;stroke-linecap:round;stroke-miterlimit:10;" d="M825.4,51.9c0-3-2-3-5-3"
					/>
				<path style="fill:none;stroke:#FFFFFF;stroke-width:2;stroke-linecap:round;stroke-miterlimit:10;" d="M815.4,45.4
					c0-1.9-1.6-3.5-3.5-3.5s-3.5,1.6-3.5,3.5"/>
				
					<line style="fill:none;stroke:#FFFFFF;stroke-width:2;stroke-linecap:round;stroke-miterlimit:10;" x1="808.9" y1="66.5" x2="816" y2="59.5"/>
				
					<line style="fill:none;stroke:#FFFFFF;stroke-width:2;stroke-linecap:round;stroke-miterlimit:10;" x1="808.9" y1="59.5" x2="816" y2="66.5"/>
			</g>
		</g>
		<circle style="opacity:0.3;enable-background:new    ;" cx="1121.7" cy="903" r="20"/>
		<g>
			<circle style="opacity:0.3;enable-background:new    ;" cx="784.3" cy="903" r="20"/>
		</g>
		<g style="display:none;">
			<path style="display:inline;opacity:0.3;enable-background:new    ;" d="M1163,92h-64c-17.7,0-32-14.3-32-32l0,0
				c0-17.7,14.3-32,32-32h64c17.7,0,32,14.3,32,32l0,0C1195,77.7,1180.7,92,1163,92z"/>
			<g style="display:inline;">
				<g>
					<circle style="opacity:0.5;fill:#79B9EF;enable-background:new    ;" cx="1163" cy="60" r="32"/>
				</g>
			</g>
			<g style="display:inline;">
				
					<line style="fill:none;stroke:#FFFFFF;stroke-width:2;stroke-linecap:round;stroke-miterlimit:10;" x1="1161.8" y1="53" x2="1176.1" y2="38.8"/>
				
					<line style="fill:none;stroke:#FFFFFF;stroke-width:2;stroke-linecap:round;stroke-miterlimit:10;" x1="1177.3" y1="41.2" x2="1176.1" y2="38.8"/>
				
					<line style="fill:none;stroke:#FFFFFF;stroke-width:2;stroke-linecap:round;stroke-miterlimit:10;" x1="1167.8" y1="60.2" x2="1182" y2="45.9"/>
				
					<line style="fill:none;stroke:#FFFFFF;stroke-width:2;stroke-linecap:round;stroke-miterlimit:10;" x1="1177.3" y1="41.2" x2="1180.8" y2="41.8"/>
				
					<line style="fill:none;stroke:#FFFFFF;stroke-width:2;stroke-linecap:round;stroke-miterlimit:10;" x1="1180.8" y1="41.8" x2="1182" y2="45.9"/>
				
					<line style="fill:none;stroke:#FFFFFF;stroke-width:2;stroke-linecap:round;stroke-miterlimit:10;" x1="1164.2" y1="56.6" x2="1166.6" y2="56"/>
				
					<line style="fill:none;stroke:#FFFFFF;stroke-width:2;stroke-linecap:round;stroke-miterlimit:10;" x1="1166.6" y1="56" x2="1167.8" y2="60.2"/>
				
					<line style="fill:none;stroke:#FFFFFF;stroke-width:2;stroke-linecap:round;stroke-miterlimit:10;" x1="1164.2" y1="56.6" x2="1163.6" y2="54.2"/>
				
					<line style="fill:none;stroke:#FFFFFF;stroke-width:2;stroke-linecap:round;stroke-miterlimit:10;" x1="1161.8" y1="53" x2="1163.6" y2="54.2"/>
			</g>
			<path style="display:inline;fill:none;stroke:#FFFFFF;stroke-width:2;stroke-linecap:round;stroke-miterlimit:10;" d="M1178.1,50
				c4,0,4.9,1,4.9,5v13c0,4-1,5-5,5h-29.1c-4.1,0-5.9-1-5.9-5V55c0-4,1.9-5,6-5l0,0h15"/>
			<rect x="1151" y="57" style="display:inline;fill:none;" width="21" height="26"/>
			
				<text transform="matrix(1 0 0 1 1150.9999 65.52)" style="display:inline;fill:#FFFFFF; font-family:'MyriadPro-Regular'; font-size:12px;">1</text>
		</g>
		<g>
			<path style="opacity:0.3;enable-background:new    ;" d="M1139,91h-64c-17.7,0-32-14.3-32-32l0,0c0-17.7,14.3-32,32-32h64
				c17.7,0,32,14.3,32,32l0,0C1171,76.7,1156.7,91,1139,91z"/>
			<g>
				<circle style="opacity:0.3;enable-background:new    ;" cx="1076" cy="59" r="32"/>
			</g>
			
				<line style="fill:none;stroke:#FFFFFF;stroke-width:2;stroke-linecap:round;stroke-miterlimit:10;" x1="1062" y1="73" x2="1092" y2="73"/>
			
				<line style="fill:none;stroke:#FFFFFF;stroke-width:2;stroke-linecap:round;stroke-miterlimit:10;" x1="1057" y1="55" x2="1057" y2="68"/>
			
				<line style="fill:none;stroke:#FFFFFF;stroke-width:2;stroke-linecap:round;stroke-miterlimit:10;" x1="1097" y1="55" x2="1097" y2="68"/>
			<path style="fill:none;stroke:#FFFFFF;stroke-width:2;stroke-linecap:round;stroke-miterlimit:10;" d="M1057,68c0,4,1.9,5,5.9,5"
				/>
			<path style="fill:none;stroke:#FFFFFF;stroke-width:2;stroke-linecap:round;stroke-miterlimit:10;" d="M1097,68c0,4-1,5-5,5"/>
			
				<line style="fill:none;stroke:#FFFFFF;stroke-width:2;stroke-linecap:round;stroke-miterlimit:10;" x1="1062" y1="50" x2="1076" y2="50"/>
			<path style="fill:none;stroke:#FFFFFF;stroke-width:2;stroke-linecap:round;stroke-miterlimit:10;" d="M1057,55c0-4,1.9-5,6-5"/>
			<path style="fill:none;stroke:#FFFFFF;stroke-width:2;stroke-linecap:round;stroke-miterlimit:10;" d="M1097,55c0-4-1-5-5-5"/>
			
				<line style="fill:none;stroke:#FFFFFF;stroke-width:2;stroke-linecap:round;stroke-miterlimit:10;" x1="1080.9" y1="53.5" x2="1088" y2="46.5"/>
			
				<line style="fill:none;stroke:#FFFFFF;stroke-width:2;stroke-linecap:round;stroke-miterlimit:10;" x1="1080.9" y1="46.5" x2="1088" y2="53.5"/>
			<circle style="fill:none;stroke:#FFFFFF;stroke-width:2;stroke-linecap:round;stroke-miterlimit:10;" cx="1084" cy="50" r="8"/>
			<rect x="1063" y="56" style="fill:none;" width="21" height="26"/>
			<text transform="matrix(1 0 0 1 1062.9999 64.52)" style="fill:#FFFFFF; font-family:'MyriadPro-Regular'; font-size:12px;">0</text>
		</g>
		<g>
			<circle style="opacity:0.3;enable-background:new    ;" cx="166" cy="49" r="32"/>
			<g>
				
					<line style="fill:none;stroke:#FFFFFF;stroke-width:2;stroke-linecap:round;stroke-miterlimit:10;" x1="149.6" y1="66.2" x2="159.4" y2="56.3"/>
				
					<line style="fill:none;stroke:#FFFFFF;stroke-width:2;stroke-linecap:round;stroke-miterlimit:10;" x1="162.6" y1="47.1" x2="169.3" y2="29.9"/>
				
					<line style="fill:none;stroke:#FFFFFF;stroke-width:2;stroke-linecap:round;stroke-miterlimit:10;" x1="168.4" y1="53.3" x2="162.6" y2="47.5"/>
				
					<line style="fill:none;stroke:#FFFFFF;stroke-width:2;stroke-linecap:round;stroke-miterlimit:10;" x1="184.5" y1="44.7" x2="169.5" y2="29.7"/>
				
					<line style="fill:none;stroke:#FFFFFF;stroke-width:2;stroke-linecap:round;stroke-miterlimit:10;" x1="165.8" y1="61.2" x2="154.7" y2="50.2"/>
				
					<line style="fill:none;stroke:#FFFFFF;stroke-width:2;stroke-linecap:round;stroke-miterlimit:10;" x1="162.6" y1="47.1" x2="154.7" y2="50.2"/>
				
					<line style="fill:none;stroke:#FFFFFF;stroke-width:2;stroke-linecap:round;stroke-miterlimit:10;" x1="168.4" y1="53.3" x2="184.5" y2="44.7"/>
				
					<line style="fill:none;stroke:#FFFFFF;stroke-width:2;stroke-linecap:round;stroke-miterlimit:10;" x1="168.4" y1="53.3" x2="165.8" y2="61.2"/>
			</g>
		</g>
		<g>
			<circle style="opacity:0.3;enable-background:new    ;" cx="1741" cy="59" r="32"/>
			<g id="close_2_px_small_1_">
				
					<line style="fill:none;stroke:#FFFFFF;stroke-width:2;stroke-linecap:round;stroke-miterlimit:10;" x1="1734" y1="51.4" x2="1750.9" y2="68.4"/>
				
					<line style="fill:none;stroke:#FFFFFF;stroke-width:2;stroke-linecap:round;stroke-miterlimit:10;" x1="1734" y1="68.4" x2="1750.9" y2="51.4"/>
			</g>
		</g>
		<rect y="-7" style="opacity:0.1;enable-background:new    ;" width="120" height="956"/>
		<path style="opacity:0.3;enable-background:new    ;" d="M1056,922.5H846c-11,0-20-9-20-20l0,0c0-11,9-20,20-20h210
			c11,0,20,9,20,20l0,0C1076,913.5,1067,922.5,1056,922.5z"/>
		<g>
			<rect x="854" y="898" style="fill:none;" width="387" height="36"/>
			<text transform="matrix(1 0 0 1 854.0001 909.3594)" style="fill:#FFFFFF; font-family:'MyriadPro-Regular'; font-size:16px;">2/2 Avatars for DesignMap.jpg</text>
		</g>
		<g id="close_2_px_small_2_">
			
				<line style="fill:none;stroke:#FFFFFF;stroke-width:2;stroke-linecap:round;stroke-miterlimit:10;" x1="1110" y1="903" x2="1134" y2="903"/>
			
				<line style="fill:none;stroke:#FFFFFF;stroke-width:2;stroke-linecap:round;stroke-miterlimit:10;" x1="1122" y1="915" x2="1122" y2="891"/>
		</g>
		<g id="close_2_px_small_3_">
			
				<line style="fill:none;stroke:#FFFFFF;stroke-width:2;stroke-linecap:round;stroke-miterlimit:10;" x1="772" y1="903" x2="796" y2="903"/>
		</g>
	</g>
	<g>
		<rect x="519.9" y="173.8" style="fill:#FFFFFF;stroke:#000000;stroke-miterlimit:10;" width="837.6" height="563.5"/>
		<g id="_x30_9_2_">
			<circle id="SVGID_8_" style="fill:#97CFFD;" cx="1148.9" cy="562.3" r="89.6"/>
			
				<line style="fill:none;stroke:#FFFFFF;stroke-width:3.5801;stroke-linecap:round;stroke-miterlimit:10;" x1="1121.1" y1="624.9" x2="1176.4" y2="624.9"/>
			
				<line style="fill:none;stroke:#FFFFFF;stroke-width:3.5801;stroke-linecap:round;stroke-miterlimit:10;" x1="1090.1" y1="523.2" x2="1099.2" y2="601.6"/>
			
				<line style="fill:none;stroke:#FFFFFF;stroke-width:3.5801;stroke-linecap:round;stroke-miterlimit:10;" x1="1210" y1="523.2" x2="1200.7" y2="601.6"/>
			<path style="fill:none;stroke:#FFFFFF;stroke-width:3.5801;stroke-linecap:round;stroke-miterlimit:10;" d="M1099.2,601.6
				c4.7,23.1,13.8,23.1,23.1,23.1"/>
			<path style="fill:none;stroke:#FFFFFF;stroke-width:3.5801;stroke-linecap:round;stroke-miterlimit:10;" d="M1200.7,601.6
				c-4.7,23.1-13.8,23.1-23.1,23.1"/>
			<path style="fill:none;stroke:#FFFFFF;stroke-width:3.5801;stroke-linecap:round;stroke-miterlimit:10;" d="M1210,523.2
				c0-13.8-9.1-13.8-23.1-13.8h-73.8c-14,0-23.1,0-23.1,13.8"/>
			
				<path style="fill:none;stroke:#FFFFFF;stroke-width:3.5801;stroke-linecap:round;stroke-linejoin:round;stroke-miterlimit:10;" d="
				M1169.3,551.5c2.2-2.2,5.5-3.6,8.3-3.6c3.2,0,6.3,1.4,8.5,3.9"/>
			
				<path style="fill:none;stroke:#FFFFFF;stroke-width:3.5801;stroke-linecap:round;stroke-linejoin:round;stroke-miterlimit:10;" d="
				M1174,572c-6.1,6.1-13.6,9.3-22.1,9.3c-8.1,0-16.2-3.9-22.5-9.9"/>
			
				<ellipse style="fill:none;stroke:#FFFFFF;stroke-width:3.5801;stroke-linecap:round;stroke-linejoin:round;stroke-miterlimit:10;" cx="1126.8" cy="552.8" rx="6.9" ry="6.1"/>
			
				<path style="fill:none;stroke:#FFFFFF;stroke-width:3.5801;stroke-linecap:round;stroke-linejoin:round;stroke-miterlimit:10;" d="
				M1138.7,596.5c-31.4-5.3-55.7-32.6-55.7-65.7h8.1"/>
			
				<path style="fill:none;stroke:#FFFFFF;stroke-width:3.5801;stroke-linecap:round;stroke-linejoin:round;stroke-miterlimit:10;" d="
				M1209,530.9h6.9c0,32.8-23.7,60-54.9,65.5"/>
			
				<path style="fill:#F7AA47;stroke:#FFFFFF;stroke-width:3.5801;stroke-linecap:round;stroke-linejoin:round;stroke-miterlimit:10;" d="
				M1164.3,509.8v24.5c0,3.2-2.6,5.9-5.9,5.9s-5.9-2.6-5.9-5.9v-24.5H1164.3z"/>
			
				<path style="fill:#F7AA47;stroke:#FFFFFF;stroke-width:3.5801;stroke-linecap:round;stroke-linejoin:round;stroke-miterlimit:10;" d="
				M1129,509.8v0.4h-11.1h-12v14.6c0,3.2,2.6,5.9,5.9,5.9c3.2,0,5.9-2.6,5.9-5.9v7.3c0,3.2,2.6,5.9,5.9,5.9s5.9-2.6,5.9-5.9v-13.8
				c1,1.8,2.8,3,5.3,3c3.2,0,5.9-2.6,5.9-5.9V510L1129,509.8L1129,509.8z"/>
			
				<path style="fill:none;stroke:#FFFFFF;stroke-width:3.5801;stroke-linecap:round;stroke-linejoin:round;stroke-miterlimit:10;" d="
				M1157.2,601.6h-14.4c-2.2,0-4.1-1.8-4.1-4.1l0,0c0-2.2,1.8-4.1,4.1-4.1h14.4c2.2,0,4.1,1.8,4.1,4.1l0,0
				C1161.2,599.8,1159.4,601.6,1157.2,601.6z"/>
		</g>
		<g id="_x30_8_2_">
			<circle id="SVGID_6_" style="fill:#97CFFD;" cx="937.1" cy="562.3" r="89.6"/>
			
				<polyline style="fill:none;stroke:#FFFFFF;stroke-width:3.5801;stroke-linecap:round;stroke-linejoin:round;stroke-miterlimit:10;" points="
				873.7,624.1 873.7,514.1 999.5,514.1 999.5,624.1 			"/>
			
				<line style="fill:none;stroke:#FFFFFF;stroke-width:3.5801;stroke-linecap:round;stroke-linejoin:round;stroke-miterlimit:10;" x1="873.7" y1="545.7" x2="999.5" y2="545.7"/>
			
				<path style="fill:none;stroke:#FFFFFF;stroke-width:3.5801;stroke-linecap:round;stroke-linejoin:round;stroke-miterlimit:10;" d="
				M988.4,513.9v-5.5c0-4.1-3.4-7.5-7.5-7.5s-7.5,3.4-7.5,7.5v11.3c0,4.1,3.4,7.5,7.5,7.5"/>
			
				<path style="fill:none;stroke:#FFFFFF;stroke-width:3.5801;stroke-linecap:round;stroke-linejoin:round;stroke-miterlimit:10;" d="
				M967.5,513.9v-5.5c0-4.1-3.4-7.5-7.5-7.5s-7.5,3.4-7.5,7.5v11.3c0,4.1,3.4,7.5,7.5,7.5"/>
			
				<path style="fill:none;stroke:#FFFFFF;stroke-width:3.5801;stroke-linecap:round;stroke-linejoin:round;stroke-miterlimit:10;" d="
				M946.6,513.9v-5.5c0-4.1-3.4-7.5-7.5-7.5s-7.5,3.4-7.5,7.5v11.3c0,4.1,3.4,7.5,7.5,7.5"/>
			
				<path style="fill:none;stroke:#FFFFFF;stroke-width:3.5801;stroke-linecap:round;stroke-linejoin:round;stroke-miterlimit:10;" d="
				M925.6,513.9v-5.5c0-4.1-3.4-7.5-7.5-7.5s-7.5,3.4-7.5,7.5v11.3c0,4.1,3.4,7.5,7.5,7.5"/>
			
				<path style="fill:none;stroke:#FFFFFF;stroke-width:3.5801;stroke-linecap:round;stroke-linejoin:round;stroke-miterlimit:10;" d="
				M904.9,513.9v-5.5c0-4.1-3.4-7.5-7.5-7.5s-7.5,3.4-7.5,7.5v11.3c0,4.1,3.4,7.5,7.5,7.5"/>
			
				<ellipse style="fill:none;stroke:#FFFFFF;stroke-width:3.5801;stroke-linecap:round;stroke-linejoin:round;stroke-miterlimit:10;" cx="906.1" cy="586" rx="9.9" ry="9.5"/>
			
				<ellipse style="fill:none;stroke:#FFFFFF;stroke-width:3.5801;stroke-linecap:round;stroke-linejoin:round;stroke-miterlimit:10;" cx="968.9" cy="586" rx="9.9" ry="9.5"/>
			
				<path style="fill:none;stroke:#FFFFFF;stroke-width:3.5801;stroke-linecap:round;stroke-linejoin:round;stroke-miterlimit:10;" d="
				M961.2,618.8c-6.9,6.3-15.4,10.3-23.7,10.3c-8.9,0-17.2-3.6-23.5-9.9"/>
			
				<path style="fill:#F7AA47;stroke:#FFFFFF;stroke-width:3.5801;stroke-linecap:round;stroke-linejoin:round;stroke-miterlimit:10;" d="
				M990.4,583.4c2.2,0,4.1-1.8,4.1-3.9c0-2.2-2.4-3.9-5.5-3.9l-7.7-0.2c-2.8-0.2-5.5-1.8-5.5-3.6c-0.2-2-2.6-3.4-5.5-3.4h-18.8
				c-2.8,0-5.5,1.8-5.5,3.9c0,2.2,2.4,3.9,5.5,3.9h0.8c2.8,0,5.5,1.6,5.5,3.6s-2.4,3.6-5.5,3.6h-9.5c-2.8,0-5.5,1.8-5.5,3.9
				c0,2.2,2.4,3.9,5.5,3.9l9.5,0.2c2.8,0,5.5,2.4,5.5,5.5v3.9c0,2.8,2.4,5.5,5.5,5.5h2c2.8,0,5.5-1.8,5.5-3.9c0-2.2,2.4-3.9,5.5-3.9
				h5.5c2.8,0,5.5-2.4,5.5-5.5v-4C986.3,585.8,988.4,583.4,990.4,583.4z"/>
		</g>
		<g id="_x30_7_2_">
			<circle id="SVGID_5_" style="fill:#97CFFD;" cx="731" cy="562.3" r="89.6"/>
			
				<line style="fill:none;stroke:#FFFFFF;stroke-width:3.5801;stroke-linecap:round;stroke-linejoin:round;stroke-miterlimit:10;" x1="730.8" y1="503.7" x2="730.8" y2="490.6"/>
			
				<line style="fill:none;stroke:#FFFFFF;stroke-width:3.5801;stroke-linecap:round;stroke-linejoin:round;stroke-miterlimit:10;" x1="730.8" y1="560.1" x2="730.8" y2="528.8"/>
			
				<ellipse style="fill:none;stroke:#FFFFFF;stroke-width:3.5801;stroke-linecap:round;stroke-linejoin:round;stroke-miterlimit:10;" cx="711.8" cy="584.6" rx="6.3" ry="8.1"/>
			
				<ellipse style="fill:none;stroke:#FFFFFF;stroke-width:3.5801;stroke-linecap:round;stroke-linejoin:round;stroke-miterlimit:10;" cx="749.7" cy="584.6" rx="6.3" ry="8.1"/>
			
				<path style="fill:none;stroke:#FFFFFF;stroke-width:3.5801;stroke-linecap:round;stroke-linejoin:round;stroke-miterlimit:10;" d="
				M743,612.1c-3.4,3.4-7.5,5.3-12.2,5.3c-4.5,0-8.9-2.2-12.4-5.5"/>
			
				<path style="fill:none;stroke:#FFFFFF;stroke-width:3.5801;stroke-linecap:round;stroke-linejoin:round;stroke-miterlimit:10;" d="
				M730.8,635.6L730.8,635.6c-24.7,0-44.8-20.1-44.8-44.8v-55.7c0-24.7,20.1-44.8,44.8-44.8l0,0c24.7,0,44.8,20.1,44.8,44.8v55.5
				C775.6,615.6,755.3,635.6,730.8,635.6z"/>
			
				<path style="fill:#F7AA47;stroke:#FFFFFF;stroke-width:3.5801;stroke-linecap:round;stroke-linejoin:round;stroke-miterlimit:10;" d="
				M730.6,528.8L730.6,528.8c-3.9,0-7.1-3.2-7.1-7.1v-9.9c0-3.9,3.2-7.1,7.1-7.1l0,0c3.9,0,7.1,3.2,7.1,7.1v9.9
				C737.9,525.6,734.7,528.8,730.6,528.8z"/>
		</g>
		<g id="_x30_6_2_">
			<circle id="SVGID_4_" style="fill:#85D0FE;" cx="1136.5" cy="341.4" r="89.6"/>
			<g>
				<g>
					<circle id="SVGID_3_" style="fill:#97CFFD;" cx="1136.5" cy="341.4" r="89.6"/>
				</g>
				<g>
					<g>
						<g>
							<g>
								<defs>
									<circle id="SVGID_7_" cx="1136.5" cy="341.4" r="89.6"/>
								</defs>
								<clipPath id="SVGID_9_">
									<use xlink:href="#SVGID_7_"  style="overflow:visible;"/>
								</clipPath>
								
									<rect x="1143.2" y="368" style="clip-path:url(#SVGID_9_);fill:#F7AA47;stroke:#FFFFFF;stroke-width:3.5801;stroke-linecap:round;stroke-linejoin:round;stroke-miterlimit:10;" width="14.6" height="77.8"/>
							</g>
						</g>
					</g>
				</g>
				<g>
					<g>
						<g>
							<g>
								<defs>
									<circle id="SVGID_10_" cx="1136.5" cy="341.4" r="89.6"/>
								</defs>
								<clipPath id="SVGID_11_">
									<use xlink:href="#SVGID_10_"  style="overflow:visible;"/>
								</clipPath>
								
									<rect x="1187.6" y="368" style="clip-path:url(#SVGID_11_);fill:#F7AA47;stroke:#FFFFFF;stroke-width:3.5801;stroke-linecap:round;stroke-linejoin:round;stroke-miterlimit:10;" width="14.6" height="77.8"/>
							</g>
						</g>
					</g>
				</g>
				<g>
					<g>
						<g>
							<g>
								<defs>
									<circle id="SVGID_12_" cx="1136.5" cy="341.4" r="89.6"/>
								</defs>
								<clipPath id="SVGID_13_">
									<use xlink:href="#SVGID_12_"  style="overflow:visible;"/>
								</clipPath>
								
									<rect x="1157.6" y="368" style="clip-path:url(#SVGID_13_);fill:#F7AA47;stroke:#FFFFFF;stroke-width:3.5801;stroke-linecap:round;stroke-linejoin:round;stroke-miterlimit:10;" width="29.6" height="77.8"/>
							</g>
						</g>
					</g>
				</g>
				<g>
					<g>
						<g>
							<g>
								<defs>
									<circle id="SVGID_14_" cx="1136.5" cy="341.4" r="89.6"/>
								</defs>
								<clipPath id="SVGID_15_">
									<use xlink:href="#SVGID_14_"  style="overflow:visible;"/>
								</clipPath>
								
									<rect x="1076.1" y="288.1" style="clip-path:url(#SVGID_15_);fill:none;stroke:#FFFFFF;stroke-width:3.5801;stroke-linecap:round;stroke-linejoin:round;stroke-miterlimit:10;" width="59" height="169.6"/>
							</g>
						</g>
					</g>
				</g>
			</g>
			
				<path style="fill:none;stroke:#FFFFFF;stroke-width:3.5801;stroke-linecap:round;stroke-linejoin:round;stroke-miterlimit:10;" d="
				M1186.5,355.4c-2.6,1.8-6.9,2.4-9.5,2.6c-2.4,0.2-9.9,0-9.9,0"/>
			
				<polygon style="fill:none;stroke:#FFFFFF;stroke-width:3.5801;stroke-linecap:round;stroke-linejoin:round;stroke-miterlimit:10;" points="
				1172.8,262.6 1202.1,368 1143.2,368 			"/>
			
				<ellipse style="fill:none;stroke:#FFFFFF;stroke-width:3.5801;stroke-linecap:round;stroke-linejoin:round;stroke-miterlimit:10;" cx="1161.8" cy="339.6" rx="3.9" ry="5.5"/>
			
				<ellipse style="fill:none;stroke:#FFFFFF;stroke-width:3.5801;stroke-linecap:round;stroke-linejoin:round;stroke-miterlimit:10;" cx="1180.3" cy="339.6" rx="3.9" ry="5.5"/>
			
				<polygon style="fill:#FFFFFF;stroke:#FFFFFF;stroke-width:3.5801;stroke-linecap:round;stroke-linejoin:round;stroke-miterlimit:10;" points="
				1172.8,262.6 1183.5,301.7 1161.8,301.7 			"/>
			
				<ellipse style="fill:none;stroke:#FFFFFF;stroke-width:3.5801;stroke-linecap:round;stroke-linejoin:round;stroke-miterlimit:10;" cx="1105.9" cy="339.6" rx="3.9" ry="5.5"/>
			
				<ellipse style="fill:none;stroke:#FFFFFF;stroke-width:3.5801;stroke-linecap:round;stroke-linejoin:round;stroke-miterlimit:10;" cx="1124.3" cy="339.6" rx="3.9" ry="5.5"/>
			
				<line style="fill:none;stroke:#FFFFFF;stroke-width:3.5801;stroke-linecap:round;stroke-linejoin:round;stroke-miterlimit:10;" x1="1076.7" y1="288.3" x2="1085.2" y2="288.3"/>
			
				<line style="fill:none;stroke:#FFFFFF;stroke-width:3.5801;stroke-linecap:round;stroke-linejoin:round;stroke-miterlimit:10;" x1="1076.7" y1="307.4" x2="1089.7" y2="307.4"/>
			
				<line style="fill:none;stroke:#FFFFFF;stroke-width:3.5801;stroke-linecap:round;stroke-linejoin:round;stroke-miterlimit:10;" x1="1076.7" y1="324.8" x2="1085.2" y2="324.8"/>
			
				<line style="fill:none;stroke:#FFFFFF;stroke-width:3.5801;stroke-linecap:round;stroke-linejoin:round;stroke-miterlimit:10;" x1="1076.7" y1="343.6" x2="1089.7" y2="343.6"/>
			
				<line style="fill:none;stroke:#FFFFFF;stroke-width:3.5801;stroke-linecap:round;stroke-linejoin:round;stroke-miterlimit:10;" x1="1076.7" y1="361.1" x2="1085.2" y2="361.1"/>
			
				<line style="fill:none;stroke:#FFFFFF;stroke-width:3.5801;stroke-linecap:round;stroke-linejoin:round;stroke-miterlimit:10;" x1="1076.7" y1="380.1" x2="1089.7" y2="380.1"/>
			
				<line style="fill:none;stroke:#FFFFFF;stroke-width:3.5801;stroke-linecap:round;stroke-linejoin:round;stroke-miterlimit:10;" x1="1076.7" y1="397.5" x2="1085.2" y2="397.5"/>
			
				<path style="fill:none;stroke:#FFFFFF;stroke-width:3.5801;stroke-linecap:round;stroke-linejoin:round;stroke-miterlimit:10;" d="
				M1122.3,358.6c-3.4,3.2-7.7,5.3-12.2,5.3c-4.7,0-9.1-2.2-12.6-5.5L1122.3,358.6z"/>
		</g>
		<g id="_x30_5_2_">
			<circle id="SVGID_2_" style="fill:#97CFFD;" cx="930.8" cy="341.4" r="89.6"/>
			
				<ellipse style="fill:none;stroke:#FFFFFF;stroke-width:3.5801;stroke-linecap:round;stroke-linejoin:round;stroke-miterlimit:10;" cx="902.9" cy="347.9" rx="6.9" ry="6.7"/>
			
				<ellipse style="fill:none;stroke:#FFFFFF;stroke-width:3.5801;stroke-linecap:round;stroke-linejoin:round;stroke-miterlimit:10;" cx="959.4" cy="347.9" rx="6.9" ry="6.7"/>
			
				<path style="fill:none;stroke:#FFFFFF;stroke-width:3.5801;stroke-linecap:round;stroke-linejoin:round;stroke-miterlimit:10;" d="
				M939.7,351.1c-2.4,2.2-5.5,3.9-8.5,3.9c-3.2,0-6.1-1.2-8.5-3.6"/>
			
				<path style="fill:#F7AA47;stroke:#FFFFFF;stroke-width:3.5801;stroke-linecap:round;stroke-linejoin:round;stroke-miterlimit:10;" d="
				M894.1,335.5c3.4-17.6,18.8-31.2,37.5-31.2s34.2,13.4,37.5,31.2h33c-3.6-35.9-33.8-64-70.7-64s-67.1,28.2-70.7,64H894.1z"/>
			
				<rect x="853.4" y="335.5" style="fill:none;stroke:#FFFFFF;stroke-width:3.5801;stroke-linecap:round;stroke-linejoin:round;stroke-miterlimit:10;" width="156.2" height="32.8"/>
			
				<line style="fill:none;stroke:#FFFFFF;stroke-width:3.5801;stroke-linecap:round;stroke-linejoin:round;stroke-miterlimit:10;" x1="931.6" y1="272.3" x2="931.6" y2="287.7"/>
			
				<line style="fill:none;stroke:#FFFFFF;stroke-width:3.5801;stroke-linecap:round;stroke-linejoin:round;stroke-miterlimit:10;" x1="874.5" y1="352.2" x2="874.5" y2="367.6"/>
			
				<line style="fill:none;stroke:#FFFFFF;stroke-width:3.5801;stroke-linecap:round;stroke-linejoin:round;stroke-miterlimit:10;" x1="893.9" y1="360.5" x2="893.9" y2="368"/>
			
				<line style="fill:none;stroke:#FFFFFF;stroke-width:3.5801;stroke-linecap:round;stroke-linejoin:round;stroke-miterlimit:10;" x1="956.4" y1="277.4" x2="952.5" y2="283.9"/>
			
				<line style="fill:none;stroke:#FFFFFF;stroke-width:3.5801;stroke-linecap:round;stroke-linejoin:round;stroke-miterlimit:10;" x1="910.6" y1="283.9" x2="906.9" y2="277.4"/>
			
				<line style="fill:none;stroke:#FFFFFF;stroke-width:3.5801;stroke-linecap:round;stroke-linejoin:round;stroke-miterlimit:10;" x1="969.7" y1="360.5" x2="969.7" y2="368"/>
			
				<line style="fill:none;stroke:#FFFFFF;stroke-width:3.5801;stroke-linecap:round;stroke-linejoin:round;stroke-miterlimit:10;" x1="987.8" y1="352.2" x2="987.8" y2="367.6"/>
			
				<line style="fill:none;stroke:#FFFFFF;stroke-width:3.5801;stroke-linecap:round;stroke-linejoin:round;stroke-miterlimit:10;" x1="977" y1="288.5" x2="966.1" y2="299.5"/>
			
				<line style="fill:none;stroke:#FFFFFF;stroke-width:3.5801;stroke-linecap:round;stroke-linejoin:round;stroke-miterlimit:10;" x1="887.1" y1="289.5" x2="898" y2="300.3"/>
		</g>
		<g id="_x30_4_2_">
			<circle id="SVGID_1_" style="fill:#97CFFD;" cx="725.1" cy="341.4" r="89.6"/>
			<g>
				<g>
					<g>
						<g>
							<g>
								<defs>
									<circle id="SVGID_16_" cx="725.1" cy="341.4" r="89.6"/>
								</defs>
								<clipPath id="SVGID_17_">
									<use xlink:href="#SVGID_16_"  style="overflow:visible;"/>
								</clipPath>
								
									<path style="clip-path:url(#SVGID_17_);fill:#F7AA47;stroke:#FFFFFF;stroke-width:3.5801;stroke-linecap:round;stroke-linejoin:round;stroke-miterlimit:10;" d="
									M724.9,730.1c0,0,17.6,2,20.9-7.5c4.1-11.6,6.3-35.5,6.3-71.7c0-82.1-13-246.4-13-246.4h-28.4c0,0-13,164.3-13,246.4
									c0,36.3,2.2,60.4,6.3,71.7C707.7,731.7,724.9,730.1,724.9,730.1z"/>
							</g>
						</g>
					</g>
				</g>
			</g>
			
				<ellipse style="fill:none;stroke:#FFFFFF;stroke-width:3.5801;stroke-linecap:round;stroke-linejoin:round;stroke-miterlimit:10;" cx="749.7" cy="342.2" rx="6.3" ry="4.5"/>
			
				<ellipse style="fill:none;stroke:#FFFFFF;stroke-width:3.5801;stroke-linecap:round;stroke-linejoin:round;stroke-miterlimit:10;" cx="714.4" cy="342.2" rx="6.3" ry="4.5"/>
			
				<path style="fill:#F7AA47;stroke:#FFFFFF;stroke-width:3.5801;stroke-linecap:round;stroke-linejoin:round;stroke-miterlimit:10;" d="
				M741,385.8h-31.8c0,0,0.8,14.2-0.8,36.3h33C739.9,399.8,741,385.8,741,385.8z"/>
			
				<path style="fill:none;stroke:#FFFFFF;stroke-width:3.5801;stroke-linecap:round;stroke-linejoin:round;stroke-miterlimit:10;" d="
				M729,262.6c0,0,70.9,73.2,11.6,123.2h-31.4c0,0-34.9-21.3-18.8-61.6C704.9,287.1,729,291.8,729,262.6z"/>
			
				<path style="fill:none;stroke:#FFFFFF;stroke-width:3.5801;stroke-linecap:round;stroke-linejoin:round;stroke-miterlimit:10;" d="
				M743.4,365.9c-3.4,3.4-7.5,5.3-12.2,5.3c-4.5,0-8.9-2.2-12.4-5.5L743.4,365.9z"/>
			
				<path style="fill:none;stroke:#FFFFFF;stroke-width:3.5801;stroke-linecap:round;stroke-linejoin:round;stroke-miterlimit:10;" d="
				M721.5,296c2.4-2.6,13.2-15.6,9.7-28.6c-0.4-1.2-0.8-2.6-1.6-4.1"/>
		</g>
	</g>
</g>
</svg>
