<?xml version="1.0" encoding="utf-8"?>
<!-- Generator: Adobe Illustrator 19.2.1, SVG Export Plug-In . SVG Version: 6.00 Build 0)  -->
<svg version="1.1" id="Слой_1" xmlns="http://www.w3.org/2000/svg" xmlns:xlink="http://www.w3.org/1999/xlink" x="0px" y="0px"
	 viewBox="0 0 370 230" style="enable-background:new 0 0 370 230;" xml:space="preserve">
<rect x="0.8" style="fill:#F2F2F2;" width="369.1" height="88"/>
<g>
	<g>
		<rect x="138.3" y="34" style="fill:none;" width="214.6" height="52.2"/>
		<g style="enable-background:new    ;">
			<path style="fill:#848484;" d="M140.5,42.4l4.3-4.8h0.9l-3.3,3.6l3.6,4.9h-0.9l-3.2-4.3l-1.4,1.3v3h-0.8V34h0.8v6.1L140.5,42.4
				L140.5,42.4z"/>
			<path style="fill:#848484;" d="M146,37.7h0.8l1.8,4.8c0.5,1.5,0.9,2.5,1,3h0c0.2-0.7,0.6-1.7,1.1-3l1.8-4.7h0.8l-3.8,9.9
				c-0.3,0.8-0.6,1.3-0.8,1.6c-0.2,0.3-0.5,0.5-0.7,0.6c-0.3,0.1-0.6,0.2-1,0.2c-0.3,0-0.6-0.1-1-0.2v-0.7c0.3,0.1,0.6,0.1,1,0.1
				c0.3,0,0.5-0.1,0.7-0.2s0.4-0.3,0.6-0.6s0.4-0.7,0.6-1.3c0.2-0.6,0.4-0.9,0.4-1.1L146,37.7z"/>
			<path style="fill:#848484;" d="M160.1,43.9c0,0.8-0.3,1.3-0.9,1.8s-1.4,0.6-2.5,0.6c-1.1,0-2-0.2-2.7-0.5V45
				c0.9,0.4,1.8,0.6,2.7,0.6c0.8,0,1.5-0.1,1.9-0.4c0.4-0.3,0.7-0.6,0.7-1.1c0-0.4-0.2-0.8-0.5-1.1c-0.3-0.3-0.9-0.6-1.7-0.9
				c-0.8-0.3-1.4-0.6-1.8-0.8s-0.6-0.5-0.8-0.8c-0.2-0.3-0.3-0.6-0.3-1c0-0.6,0.3-1.1,0.8-1.5c0.5-0.4,1.3-0.6,2.2-0.6
				c0.9,0,1.8,0.2,2.6,0.5l-0.3,0.7c-0.8-0.3-1.6-0.5-2.3-0.5c-0.7,0-1.2,0.1-1.6,0.3s-0.6,0.5-0.6,1c0,0.4,0.2,0.8,0.5,1.1
				c0.3,0.3,0.9,0.6,1.8,0.9c0.8,0.3,1.3,0.5,1.7,0.7c0.3,0.2,0.6,0.5,0.8,0.8C160,43.2,160.1,43.6,160.1,43.9z"/>
			<path style="fill:#848484;" d="M169.3,41.9c0,1.4-0.3,2.5-1,3.2s-1.6,1.2-2.8,1.2c-0.7,0-1.4-0.2-2-0.5c-0.6-0.4-1-0.9-1.3-1.5
				c-0.3-0.7-0.5-1.4-0.5-2.3c0-1.4,0.3-2.5,1-3.2s1.6-1.2,2.8-1.2c1.2,0,2.1,0.4,2.7,1.2S169.3,40.5,169.3,41.9z M162.6,41.9
				c0,1.2,0.3,2.1,0.8,2.7c0.5,0.7,1.2,1,2.2,1s1.7-0.3,2.2-1c0.5-0.7,0.8-1.6,0.8-2.7c0-1.2-0.3-2.1-0.8-2.7c-0.5-0.6-1.2-1-2.2-1
				s-1.7,0.3-2.2,1S162.6,40.7,162.6,41.9z"/>
			<path style="fill:#848484;" d="M178.6,41.9c0,1.4-0.3,2.5-1,3.2s-1.6,1.2-2.8,1.2c-0.7,0-1.4-0.2-2-0.5c-0.6-0.4-1-0.9-1.3-1.5
				c-0.3-0.7-0.5-1.4-0.5-2.3c0-1.4,0.3-2.5,1-3.2s1.6-1.2,2.8-1.2c1.2,0,2.1,0.4,2.7,1.2S178.6,40.5,178.6,41.9z M171.9,41.9
				c0,1.2,0.3,2.1,0.8,2.7c0.5,0.7,1.2,1,2.2,1s1.7-0.3,2.2-1c0.5-0.7,0.8-1.6,0.8-2.7c0-1.2-0.3-2.1-0.8-2.7c-0.5-0.6-1.2-1-2.2-1
				s-1.7,0.3-2.2,1S171.9,40.7,171.9,41.9z"/>
			<path style="fill:#848484;" d="M186.9,46.2v-5.5c0-0.9-0.2-1.5-0.5-1.9s-0.9-0.6-1.7-0.6c-1,0-1.8,0.3-2.2,0.8
				c-0.5,0.5-0.7,1.3-0.7,2.5v4.7H181v-8.5h0.7l0.1,1.2h0c0.6-0.9,1.5-1.3,2.9-1.3c1.9,0,2.9,1,2.9,3.1v5.6H186.9z"/>
			<path style="fill:#848484;" d="M190.3,35.3c0-0.5,0.2-0.8,0.5-0.8c0.2,0,0.3,0.1,0.4,0.2s0.1,0.3,0.1,0.6c0,0.2,0,0.4-0.1,0.6
				s-0.2,0.2-0.4,0.2C190.5,36.1,190.3,35.8,190.3,35.3z M191.2,46.2h-0.8v-8.5h0.8V46.2z"/>
			<path style="fill:#848484;" d="M194.8,42.4l4.3-4.8h0.9l-3.3,3.6l3.6,4.9h-0.9l-3.2-4.3l-1.4,1.3v3h-0.8V34h0.8v6.1L194.8,42.4
				L194.8,42.4z"/>
			<path style="fill:#848484;" d="M213.7,40.5c0,1.2-0.2,2.1-0.7,2.9s-1.1,1.1-1.9,1.1c-0.5,0-0.8-0.1-1.1-0.4s-0.5-0.7-0.5-1.1h0
				c-0.2,0.5-0.5,0.9-1,1.2s-0.9,0.4-1.5,0.4c-0.8,0-1.4-0.3-1.8-0.8s-0.6-1.2-0.6-2.1c0-1.1,0.3-1.9,0.9-2.6s1.4-1,2.5-1
				c0.7,0,1.5,0.1,2.2,0.3l-0.2,3.6v0.2c0,0.5,0.1,0.9,0.3,1.2s0.5,0.4,0.9,0.4c0.5,0,1-0.3,1.3-0.9s0.5-1.4,0.5-2.4
				c0-1-0.2-1.9-0.6-2.7s-1-1.3-1.8-1.8s-1.6-0.6-2.6-0.6c-1.2,0-2.3,0.3-3.2,0.8s-1.6,1.3-2.1,2.2s-0.7,2-0.7,3.3
				c0,1.7,0.4,3,1.3,3.9s2.1,1.4,3.7,1.4c0.5,0,1,0,1.5-0.1s1.1-0.3,1.8-0.5v0.8c-1.1,0.4-2.1,0.6-3.2,0.6c-1.8,0-3.2-0.5-4.3-1.6
				s-1.5-2.5-1.5-4.4c0-1.3,0.3-2.5,0.8-3.6s1.4-1.9,2.4-2.5s2.2-0.9,3.5-0.9c1.1,0,2.1,0.2,3,0.7s1.5,1.1,2,2
				S213.7,39.4,213.7,40.5z M205.3,41.6c0,0.7,0.1,1.3,0.4,1.7s0.7,0.6,1.4,0.6c1.3,0,2-0.9,2.1-2.7l0.1-2.3
				c-0.4-0.1-0.9-0.2-1.5-0.2c-0.8,0-1.4,0.3-1.9,0.8S205.3,40.7,205.3,41.6z"/>
			<path style="fill:#848484;" d="M222.6,37.7v0.5l-1.8,0.1c0.5,0.6,0.7,1.2,0.7,1.9c0,0.8-0.3,1.5-0.8,2s-1.3,0.8-2.2,0.8
				c-0.4,0-0.7,0-0.8,0c-0.3,0.2-0.5,0.4-0.7,0.6s-0.2,0.5-0.2,0.7c0,0.3,0.1,0.5,0.3,0.6s0.6,0.2,1,0.2h1.5c0.9,0,1.6,0.2,2.1,0.6
				s0.7,0.9,0.7,1.7c0,0.9-0.4,1.6-1.1,2.1s-1.8,0.7-3.1,0.7c-1.1,0-1.9-0.2-2.5-0.6s-0.9-1-0.9-1.7c0-0.6,0.2-1.1,0.5-1.5
				s0.9-0.6,1.5-0.8c-0.3-0.1-0.5-0.3-0.6-0.5s-0.2-0.4-0.2-0.7c0-0.6,0.4-1.1,1.1-1.5c-0.5-0.2-0.9-0.5-1.2-1s-0.4-0.9-0.4-1.5
				c0-0.8,0.3-1.5,0.8-2s1.3-0.8,2.2-0.8c0.6,0,1,0.1,1.3,0.2H222.6z M215.7,47.6c0,1.2,0.9,1.8,2.6,1.8c2.2,0,3.3-0.7,3.3-2.1
				c0-0.5-0.2-0.9-0.5-1.1s-0.9-0.3-1.7-0.3h-1.4C216.5,45.8,215.7,46.4,215.7,47.6z M216.4,40.3c0,0.7,0.2,1.2,0.6,1.5
				s0.9,0.5,1.6,0.5c0.7,0,1.3-0.2,1.6-0.5s0.6-0.9,0.6-1.6c0-0.7-0.2-1.3-0.6-1.6s-0.9-0.5-1.6-0.5c-0.7,0-1.2,0.2-1.6,0.6
				S216.4,39.6,216.4,40.3z"/>
			<path style="fill:#848484;" d="M235,46.2v-5.6c0-0.8-0.2-1.4-0.5-1.8s-0.8-0.6-1.5-0.6c-0.9,0-1.5,0.2-1.9,0.7s-0.6,1.2-0.6,2.3
				v5h-0.8v-5.8c0-1.4-0.7-2.1-2-2.1c-0.9,0-1.5,0.3-1.9,0.8s-0.6,1.3-0.6,2.5v4.7h-0.8v-8.5h0.6l0.2,1.2h0c0.2-0.4,0.6-0.7,1-1
				s0.9-0.3,1.4-0.3c1.3,0,2.2,0.5,2.6,1.5h0c0.3-0.5,0.6-0.9,1.1-1.1s1-0.4,1.6-0.4c0.9,0,1.6,0.2,2.1,0.7s0.7,1.3,0.7,2.4v5.6H235
				z"/>
			<path style="fill:#848484;" d="M243.6,46.2l-0.2-1.3h-0.1c-0.4,0.5-0.9,0.9-1.3,1.2s-1,0.3-1.6,0.3c-0.8,0-1.5-0.2-1.9-0.6
				s-0.7-1-0.7-1.8c0-0.8,0.3-1.5,1-1.9s1.7-0.7,3-0.7l1.6,0v-0.6c0-0.8-0.2-1.4-0.5-1.8s-0.9-0.6-1.6-0.6c-0.8,0-1.6,0.2-2.4,0.7
				l-0.3-0.7c0.9-0.4,1.9-0.7,2.8-0.7c0.9,0,1.6,0.2,2.1,0.7s0.7,1.2,0.7,2.3v5.6H243.6z M240.5,45.6c0.9,0,1.6-0.3,2.1-0.8
				s0.8-1.2,0.8-2.2v-0.8l-1.5,0.1c-1.2,0.1-2,0.2-2.6,0.6s-0.8,0.8-0.8,1.5c0,0.5,0.2,0.9,0.5,1.2S239.9,45.6,240.5,45.6z"/>
			<path style="fill:#848484;" d="M246.8,35.3c0-0.5,0.2-0.8,0.5-0.8c0.2,0,0.3,0.1,0.4,0.2s0.1,0.3,0.1,0.6c0,0.2,0,0.4-0.1,0.6
				s-0.2,0.2-0.4,0.2C247,36.1,246.8,35.8,246.8,35.3z M247.7,46.2h-0.8v-8.5h0.8V46.2z"/>
			<path style="fill:#848484;" d="M251.3,46.2h-0.8V34h0.8V46.2z"/>
			<path style="fill:#848484;" d="M254,45.6c0-0.5,0.2-0.8,0.6-0.8c0.4,0,0.6,0.3,0.6,0.8s-0.2,0.8-0.6,0.8
				C254.2,46.3,254,46.1,254,45.6z"/>
			<path style="fill:#848484;" d="M261.3,37.5c0.4,0,0.7,0,1.2,0.1l-0.1,0.7c-0.4-0.1-0.7-0.1-1.1-0.1c-0.7,0-1.3,0.3-1.8,0.9
				s-0.7,1.4-0.7,2.3v4.7H258v-8.5h0.7l0.1,1.5h0.1c0.3-0.6,0.7-1.1,1.1-1.3S260.8,37.5,261.3,37.5z"/>
			<path style="fill:#848484;" d="M264.9,37.7v5.5c0,0.9,0.2,1.5,0.5,1.9s0.9,0.6,1.7,0.6c1,0,1.8-0.3,2.2-0.8s0.7-1.3,0.7-2.5v-4.7
				h0.8v8.5h-0.7L270,45h0c-0.6,0.9-1.5,1.3-2.9,1.3c-1.9,0-2.9-1-2.9-3.1v-5.5H264.9z"/>
		</g>
	</g>
	<g>
		<ellipse style="fill:#CA6600;stroke:#FFFFFF;stroke-width:2;stroke-miterlimit:10;" cx="316.3" cy="39.3" rx="22.6" ry="22.5"/>
		<g>
			<g>
				<path style="fill:#F5E6D2;" d="M324.3,38.1c0.3-0.4,1.6-0.7,2.1-0.4c0.9,0.5,0.8,1.7,0.6,2.4c-0.2,1-0.7,2.1-1.3,3
					c-0.2,0.3-1.4,1.4-1.8,1.5"/>
			</g>
			<g>
				<path style="fill:#F5E6D2;" d="M309.3,38c-0.3-0.4-1.5-0.6-1.9-0.3c-0.8,0.5-0.7,1.7-0.5,2.4c0.2,1,0.6,2.1,1.2,3
					c0.2,0.3,1.2,1.1,1.5,1.3"/>
			</g>
			<g>
				<path style="fill:#F5E6D2;" d="M324.8,39c0,2.2-0.2,6.7-1,8.5c-1.7,3.4-4.1,5.9-7.1,5.9s-5.7-2.5-6.9-6c-0.6-1.8-1-6-1-8.2
					c0-6.5,2.5-12,7.9-12C322.1,27.3,324.8,32.5,324.8,39z"/>
			</g>
			<g>
				<path style="fill:#5E3800;" d="M319.1,37.4c-0.1,0-0.2-0.1-0.2-0.2c0-0.1,0.1-0.3,0.2-0.3l3.1-0.7c0.1,0,0.3,0.1,0.3,0.2
					c0,0.1-0.1,0.3-0.2,0.3L319.1,37.4C319.2,37.4,319.2,37.4,319.1,37.4z"/>
			</g>
			<g>
				<path style="fill:#5E3800;" d="M314,37.4L314,37.4l-3.2-0.7c-0.1,0-0.2-0.2-0.2-0.3s0.2-0.2,0.3-0.2l3.1,0.7
					c0.1,0,0.2,0.2,0.2,0.3C314.2,37.3,314.1,37.4,314,37.4z"/>
			</g>
			<g>
				<path style="fill:#E3B295;" d="M316.7,48.8c-0.3,0-1.7-0.1-2.2-0.7l-0.1,0.1c-0.1,0.1-0.2,0.1-0.3,0c-0.1-0.1-0.1-0.2,0-0.3
					l0.3-0.3c0.1-0.1,0.1-0.1,0.2-0.1s0.1,0.1,0.2,0.2c0.1,0.4,1.2,0.6,2,0.7c0.7,0,1.7-0.2,1.8-0.6c0-0.1,0.1-0.1,0.2-0.2
					c0.1,0,0.2,0,0.2,0l0.3,0.2c0.1,0.1,0.1,0.2,0.1,0.3c-0.1,0.1-0.2,0.1-0.3,0.1l-0.1-0.1C318.3,48.7,316.9,48.8,316.7,48.8z"/>
			</g>
			<g>
				<g>
					<path style="fill:#5E3800;" d="M321,41.2c-0.9,0-1.5-0.5-1.8-1.4h-0.4c-0.1,0-0.2-0.1-0.2-0.3c0-0.1,0.1-0.2,0.2-0.2h0.7v0.2
						c0.2,0.8,0.6,1.2,1.4,1.2c0.9,0,1.1-0.6,1.3-1.3l0.1-0.3h0.9c0.1,0,0.2,0.4,0.2,0.5s-0.1,0.5-0.2,0.5h-0.5
						C322.4,40,322.1,41.2,321,41.2z"/>
				</g>
			</g>
			<g>
				<g>
					<path style="fill:#5E3800;" d="M312.2,41.2c-0.9,0-1.5-0.5-1.8-1.4H310c-0.1,0-0.2-0.1-0.2-0.3c0-0.1,0.1-0.2,0.2-0.2h0.7v0.2
						c0.2,0.8,0.6,1.2,1.4,1.2c0.9,0,1.1-0.6,1.3-1.3l0.1-0.3h0.9c0.1,0,0.2,0.4,0.2,0.5s-0.1,0.5-0.2,0.5h-0.5
						C313.7,40,313.3,41.2,312.2,41.2z"/>
				</g>
			</g>
			<g>
				<path style="fill:#5D2C42;" d="M324.8,39.7c0.2-1.2,2.5-6.3,1.2-9.2c-1.8-4.1-4.3-6.4-9.3-7c-1-0.1-3.1-1.5-3.7-0.6
					c-0.7,1-1,1.8-1.9,2.5c-1.1,0.8-2.3,3-2.9,4.2c-2,3.7,0.6,9.6,0.6,9.8c-0.1-3.1,0.7-5.5,2.3-7.8c1.2-1.8,9.7-1.1,11.1-0.1
					C325.4,33.6,324.1,36.7,324.8,39.7z"/>
			</g>
			<g>
				<path style="fill:#5D2C42;" d="M319.6,53.4c-1.2,1.4-5.2,1.2-6.2,0c-0.6-0.6-0.7-1.3-1-2.1c2.6,1.1,5.6,1.5,8.4,0
					C320.7,51.4,320.1,52.8,319.6,53.4z"/>
			</g>
		</g>
	</g>
	<g>
		<g>
			<g>
				<path style="fill:#848484;" d="M102.9,43v-0.4c0-1.1,0.2-2,0.5-2.7s1-1.5,1.9-2.3l1.2-1.1c0.7-0.6,1.1-1.1,1.4-1.7
					s0.4-1.2,0.4-1.9c0-1.2-0.4-2.1-1.1-2.8c-0.8-0.7-1.8-1-3-1c-0.7,0-1.4,0.1-2,0.2c-0.6,0.2-1.3,0.4-2,0.8L99.7,29
					c1-0.4,1.8-0.7,2.5-0.9c0.7-0.1,1.4-0.2,2.1-0.2c1.7,0,3,0.4,3.9,1.3c1,0.9,1.4,2.1,1.4,3.7c0,0.6-0.1,1.2-0.2,1.6
					c-0.2,0.5-0.4,0.9-0.7,1.3c-0.3,0.4-0.7,0.8-1.1,1.1c-0.4,0.4-0.9,0.8-1.4,1.2c-0.6,0.5-1,0.9-1.3,1.3c-0.3,0.4-0.6,0.8-0.7,1.3
					c-0.1,0.4-0.3,1.1-0.3,2V43H102.9z M102.4,47.2c0-0.9,0.4-1.3,1.1-1.3s1.1,0.4,1.1,1.3c0,0.9-0.4,1.3-1.1,1.3
					C102.8,48.6,102.4,48.1,102.4,47.2z"/>
			</g>
		</g>
	</g>
</g>
<g>
	<circle style="fill:#FFAA08;" cx="317.9" cy="74" r="5"/>
	<g>
		<path style="fill:#FFFFFF;" d="M317.9,70c2.2,0,4,1.8,4,4s-1.8,4-4,4s-4-1.8-4-4S315.7,70,317.9,70 M317.9,68c-3.3,0-6,2.7-6,6
			s2.7,6,6,6s6-2.7,6-6S321.2,68,317.9,68L317.9,68z"/>
	</g>
</g>
<g id="notify_x5F_menu_x5F_desctop_1_">
	<polygon style="fill:#EAA92A;stroke:#FFFFFF;stroke-miterlimit:10;" points="326.9,97.5 317.9,88.5 308.9,97.5 66.4,97.5 
		66.4,210.5 347.4,210.5 347.4,97.5 	"/>
	<g>
		<rect x="130.5" y="118" style="fill:none;" width="144" height="29"/>
		<g style="enable-background:new    ;">
			<path style="fill:#FFFFFF;" d="M173.9,132.4h-1l-8-12h-0.1c0.1,1.4,0.1,2.5,0.1,3.2v8.8H164v-13.6h0.9l8,12h0.1
				c-0.1-1.1-0.1-2.2-0.1-3.2v-8.9h0.9v13.7H173.9z"/>
			<path style="fill:#FFFFFF;" d="M181.5,132.6c-1.5,0-2.6-0.5-3.4-1.4s-1.2-2.2-1.2-3.8c0-1.6,0.4-2.9,1.2-3.9s1.9-1.5,3.2-1.5
				c1.2,0,2.1,0.4,2.8,1.2c0.7,0.8,1,2,1,3.4v0.7h-7.2c0,1.4,0.3,2.4,1,3.2c0.6,0.7,1.5,1.1,2.7,1.1c0.6,0,1.1,0,1.5-0.1
				s1-0.3,1.7-0.5v0.8c-0.6,0.2-1.1,0.4-1.6,0.5C182.7,132.6,182.1,132.6,181.5,132.6z M181.3,123c-1,0-1.8,0.3-2.3,1
				c-0.6,0.6-0.9,1.6-1,2.8h6.2c0-1.2-0.3-2.1-0.8-2.7C182.9,123.3,182.2,123,181.3,123z"/>
			<path style="fill:#FFFFFF;" d="M196,132.4l-2.2-6.7c-0.1-0.5-0.3-1.1-0.5-2h-0.1l-0.2,0.7l-0.4,1.3l-2.2,6.7h-0.9l-2.9-10.1h1
				l1.6,5.8c0.4,1.4,0.6,2.5,0.7,3.2h0.1c0.4-1.4,0.6-2.4,0.8-2.9l2.1-6.1h0.8l2,6.1c0.4,1.5,0.7,2.4,0.8,2.9h0.1
				c0-0.4,0.3-1.5,0.7-3.2l1.5-5.8h0.9l-2.7,10.1H196z"/>
			<path style="fill:#FFFFFF;" d="M210.3,132.4h-1v-12.7h-4.4v-0.9h9.8v0.9h-4.4L210.3,132.4L210.3,132.4z"/>
			<path style="fill:#FFFFFF;" d="M222.7,132.4l-0.2-1.6h-0.1c-0.5,0.6-1,1.1-1.6,1.4c-0.5,0.3-1.2,0.4-1.9,0.4
				c-1,0-1.8-0.3-2.3-0.8c-0.6-0.5-0.8-1.2-0.8-2.1c0-1,0.4-1.7,1.2-2.3c0.8-0.5,2-0.8,3.6-0.9l1.9-0.1v-0.7c0-1-0.2-1.7-0.6-2.2
				s-1-0.7-1.9-0.7s-1.9,0.3-2.9,0.8l-0.3-0.8c1.1-0.5,2.2-0.8,3.3-0.8s1.9,0.3,2.5,0.9c0.5,0.6,0.8,1.5,0.8,2.7v6.7L222.7,132.4
				L222.7,132.4z M218.9,131.8c1.1,0,1.9-0.3,2.5-0.9c0.6-0.6,0.9-1.5,0.9-2.6v-1l-1.8,0.1c-1.4,0.1-2.4,0.3-3,0.7
				c-0.6,0.4-0.9,1-0.9,1.7c0,0.6,0.2,1.1,0.6,1.5C217.7,131.6,218.2,131.8,218.9,131.8z"/>
			<path style="fill:#FFFFFF;" d="M232.8,129.8c0,0.9-0.3,1.6-1,2.1s-1.7,0.7-2.9,0.7c-1.3,0-2.4-0.2-3.2-0.6v-1
				c1,0.5,2.1,0.8,3.2,0.8c1,0,1.8-0.2,2.3-0.5s0.8-0.8,0.8-1.3s-0.2-0.9-0.6-1.3s-1.1-0.7-2-1c-1-0.4-1.7-0.7-2.1-0.9
				s-0.7-0.6-0.9-0.9s-0.3-0.7-0.3-1.2c0-0.8,0.3-1.4,1-1.8c0.6-0.4,1.5-0.7,2.7-0.7c1.1,0,2.1,0.2,3.1,0.6l-0.3,0.8
				c-1-0.4-1.9-0.6-2.8-0.6c-0.8,0-1.5,0.1-2,0.4s-0.7,0.6-0.7,1.1s0.2,0.9,0.6,1.3s1.1,0.7,2.2,1.1c0.9,0.3,1.6,0.6,2,0.9
				s0.7,0.6,0.9,0.9C233,129,232.8,129.4,232.8,129.8z"/>
			<path style="fill:#FFFFFF;" d="M236.3,128l5.1-5.7h1.1l-4,4.3l4.3,5.8h-1.1l-3.8-5.1l-1.7,1.5v3.6h-0.9V118h0.9v7.2L236.3,128
				L236.3,128z"/>
		</g>
	</g>
	<g>
		<rect x="77.5" y="153" style="fill:none;" width="250" height="49"/>
		<g style="enable-background:new    ;">
			<path style="fill:#FFFFFF;" d="M115.7,162.1h-0.6v-8h-2.8v-0.6h6.2v0.6h-2.8L115.7,162.1L115.7,162.1z"/>
			<path style="fill:#FFFFFF;" d="M123.5,162.1l-0.1-1l0,0c-0.3,0.4-0.6,0.7-1,0.9s-0.7,0.3-1.2,0.3c-0.6,0-1.1-0.2-1.5-0.5
				s-0.5-0.8-0.5-1.3c0-0.6,0.3-1.1,0.8-1.4s1.3-0.5,2.2-0.5h1.2V158c0-0.6-0.1-1.1-0.4-1.4s-0.6-0.5-1.2-0.5s-1.2,0.2-1.8,0.5
				l-0.2-0.5c0.7-0.3,1.4-0.5,2.1-0.5s1.2,0.2,1.6,0.5s0.5,0.9,0.5,1.7v4.2h-0.5V162.1z M121.2,161.7c0.7,0,1.2-0.2,1.6-0.6
				s0.6-0.9,0.6-1.6v-0.6h-1.1c-0.9,0-1.5,0.2-1.9,0.4s-0.6,0.6-0.6,1.1c0,0.4,0.1,0.7,0.4,0.9S120.7,161.7,121.2,161.7z"/>
			<path style="fill:#FFFFFF;" d="M129.9,160.5c0,0.6-0.2,1-0.7,1.3s-1,0.5-1.8,0.5c-0.9,0-1.5-0.1-2-0.4v-0.6
				c0.6,0.3,1.3,0.5,2,0.5c0.6,0,1.1-0.1,1.4-0.3s0.5-0.5,0.5-0.8s-0.1-0.6-0.4-0.8s-0.7-0.4-1.3-0.6c-0.6-0.2-1.1-0.4-1.3-0.6
				s-0.5-0.4-0.6-0.6s-0.2-0.5-0.2-0.8c0-0.5,0.2-0.9,0.6-1.1s1-0.4,1.7-0.4s1.3,0.1,2,0.4l-0.2,0.5c-0.6-0.3-1.2-0.4-1.7-0.4
				s-0.9,0.1-1.2,0.3s-0.5,0.4-0.5,0.7s0.1,0.6,0.4,0.8s0.7,0.4,1.4,0.7c0.6,0.2,1,0.4,1.3,0.6s0.5,0.4,0.6,0.6
				S129.9,160.2,129.9,160.5z"/>
			<path style="fill:#FFFFFF;" d="M132.2,159.3l3.3-3.6h0.7l-2.5,2.7l2.7,3.7h-0.7l-2.4-3.2l-1,0.9v2.3h-0.6V153h0.6v4.6
				L132.2,159.3L132.2,159.3z"/>
			<path style="fill:#FFFFFF;" d="M146.5,162.1h-0.6l-4.7-7.6l0,0c0,0.9,0.1,1.6,0.1,2v5.6h-0.6v-8.6h0.6l4.7,7.6l0,0
				c0-0.9,0-1.6,0-2v-5.6h0.6v8.6H146.5z M150.9,158.5c0,0.6-0.2,1.1-0.5,1.5s-0.7,0.5-1.3,0.5c-0.5,0-0.9-0.2-1.2-0.5
				s-0.5-0.8-0.5-1.5c0-0.6,0.2-1.1,0.5-1.5s0.7-0.5,1.3-0.5c0.5,0,1,0.2,1.3,0.5S150.9,157.9,150.9,158.5z M147.8,162.1v-0.5h2.8
				v0.5H147.8z M148,158.5c0,0.5,0.1,0.8,0.3,1.1s0.5,0.4,0.9,0.4s0.6-0.1,0.8-0.4s0.3-0.6,0.3-1.1s-0.1-0.9-0.3-1.1
				s-0.5-0.4-0.9-0.4C148.4,157.1,148,157.6,148,158.5z"/>
			<path style="fill:#FFFFFF;" d="M157.3,155.6c0,0.5-0.2,1-0.5,1.3s-0.8,0.6-1.3,0.7l0,0c0.7,0.1,1.2,0.3,1.6,0.7s0.5,0.8,0.5,1.4
				c0,0.8-0.3,1.4-0.8,1.9s-1.3,0.7-2.4,0.7c-0.9,0-1.6-0.2-2.3-0.5v-0.6c0.3,0.2,0.7,0.3,1.1,0.4s0.8,0.1,1.2,0.1
				c0.9,0,1.5-0.2,1.9-0.5s0.7-0.8,0.7-1.5c0-0.6-0.2-1-0.7-1.3s-1.1-0.5-2-0.5h-0.9v-0.6h0.9c0.7,0,1.3-0.2,1.7-0.5
				s0.6-0.8,0.6-1.4c0-0.5-0.2-0.9-0.5-1.1s-0.8-0.4-1.3-0.4c-0.4,0-0.8,0.1-1.2,0.2s-0.7,0.3-1.2,0.6l-0.3-0.4
				c0.3-0.3,0.7-0.5,1.2-0.7s0.9-0.2,1.4-0.2c0.8,0,1.4,0.2,1.8,0.6S157.3,154.9,157.3,155.6z"/>
			<path style="fill:#FFFFFF;" d="M162.5,154c0-0.4,0.1-0.6,0.4-0.6c0.1,0,0.2,0,0.3,0.1s0.1,0.2,0.1,0.4s0,0.3-0.1,0.4
				s-0.2,0.2-0.3,0.2C162.7,154.6,162.5,154.4,162.5,154z M163.2,162.1h-0.6v-6.4h0.6V162.1z"/>
			<path style="fill:#FFFFFF;" d="M169.8,162.1V158c0-0.6-0.1-1.1-0.4-1.4s-0.7-0.4-1.3-0.4c-0.8,0-1.3,0.2-1.7,0.6s-0.5,1-0.5,1.9
				v3.5h-0.6v-6.4h0.5l0.1,0.9l0,0c0.4-0.7,1.2-1,2.2-1c1.4,0,2.2,0.8,2.2,2.3v4.2h-0.5V162.1z"/>
			<path style="fill:#FFFFFF;" d="M178.3,162.2c-1,0-1.7-0.4-2.1-1.1l0,0v0.5c0,0.3,0,0.6,0,0.9v2.4h-0.6v-9.3h0.5l0.1,0.9l0,0
				c0.4-0.7,1.1-1,2.1-1c0.9,0,1.5,0.3,2,0.8s0.7,1.4,0.7,2.5c0,1-0.2,1.9-0.7,2.4S179.1,162.2,178.3,162.2z M178.2,161.7
				c0.7,0,1.2-0.2,1.5-0.7s0.5-1.2,0.5-2c0-1.9-0.7-2.8-2-2.8c-0.7,0-1.3,0.2-1.6,0.6s-0.5,1.1-0.5,2v0.2c0,1,0.2,1.7,0.5,2.1
				S177.5,161.7,178.2,161.7z"/>
			<path style="fill:#FFFFFF;" d="M185.2,155.6c0.3,0,0.6,0,0.9,0.1l-0.1,0.6c-0.3-0.1-0.5-0.1-0.8-0.1c-0.5,0-1,0.2-1.3,0.7
				s-0.5,1-0.5,1.7v3.5h-0.6v-6.4h0.5l0.1,1.1l0,0c0.3-0.5,0.5-0.8,0.8-1S184.8,155.6,185.2,155.6z"/>
			<path style="fill:#FFFFFF;" d="M192.6,158.9c0,1-0.3,1.9-0.8,2.4s-1.2,0.9-2.1,0.9c-0.6,0-1.1-0.1-1.5-0.4s-0.8-0.7-1-1.2
				s-0.3-1.1-0.3-1.7c0-1,0.3-1.8,0.8-2.4s1.2-0.9,2.1-0.9s1.6,0.3,2.1,0.9S192.6,157.9,192.6,158.9z M187.6,158.9
				c0,0.9,0.2,1.6,0.6,2s0.9,0.7,1.6,0.7s1.2-0.2,1.6-0.7s0.6-1.2,0.6-2c0-0.9-0.2-1.6-0.6-2s-0.9-0.7-1.6-0.7s-1.2,0.2-1.6,0.7
				S187.6,158,187.6,158.9z"/>
			<path style="fill:#FFFFFF;" d="M193.5,165c-0.3,0-0.6,0-0.8-0.1v-0.5c0.3,0.1,0.5,0.1,0.8,0.1c0.6,0,0.9-0.3,0.9-1v-7.7h0.6v7.6
				c0,0.5-0.1,0.9-0.4,1.2S194,165,193.5,165z M194.3,154c0-0.4,0.1-0.6,0.4-0.6c0.1,0,0.2,0,0.3,0.1s0.1,0.2,0.1,0.4s0,0.3-0.1,0.4
				s-0.2,0.2-0.3,0.2C194.4,154.6,194.3,154.4,194.3,154z"/>
			<path style="fill:#FFFFFF;" d="M199.7,162.2c-0.9,0-1.6-0.3-2.2-0.9s-0.8-1.4-0.8-2.4s0.3-1.8,0.8-2.4s1.2-0.9,2-0.9
				s1.3,0.3,1.8,0.8s0.7,1.2,0.7,2.1v0.5h-4.6c0,0.9,0.2,1.5,0.6,2s1,0.7,1.7,0.7c0.4,0,0.7,0,1-0.1s0.6-0.2,1-0.3v0.5
				c-0.4,0.2-0.7,0.3-1,0.3S200,162.2,199.7,162.2z M199.5,156.1c-0.6,0-1.1,0.2-1.5,0.6s-0.6,1-0.7,1.7h3.9c0-0.7-0.2-1.3-0.5-1.7
				S200.1,156.1,199.5,156.1z"/>
			<path style="fill:#FFFFFF;" d="M206.2,162.2c-0.9,0-1.6-0.3-2.1-0.9s-0.8-1.4-0.8-2.4c0-1.1,0.3-1.9,0.8-2.5s1.3-0.9,2.2-0.9
				c0.6,0,1.1,0.1,1.6,0.3l-0.2,0.5c-0.6-0.2-1-0.3-1.4-0.3c-0.8,0-1.4,0.2-1.8,0.7s-0.6,1.2-0.6,2.1c0,0.9,0.2,1.5,0.6,2
				s1,0.7,1.7,0.7c0.6,0,1.1-0.1,1.6-0.3v0.5C207.4,162.1,206.9,162.2,206.2,162.2z"/>
			<path style="fill:#FFFFFF;" d="M211.1,161.7c0.4,0,0.7,0,1-0.1v0.5c-0.3,0.1-0.6,0.1-1,0.1c-0.6,0-1-0.2-1.2-0.5
				s-0.4-0.8-0.4-1.4v-4.1h-0.9v-0.3l0.9-0.3l0.3-1.4h0.3v1.5h1.9v0.5h-1.9v4c0,0.5,0.1,0.8,0.3,1.1S210.7,161.7,211.1,161.7z"/>
			<path style="fill:#FFFFFF;" d="M215.9,158.9l1.8-2.3l0.4,0.3l-1.5,2.1l1.5,2.1l-0.4,0.3l-1.8-2.3V158.9z M218,158.9l1.8-2.3
				l0.4,0.3l-1.5,2.1l1.5,2.1l-0.4,0.3l-1.8-2.3V158.9z"/>
			<path style="fill:#FFFFFF;" d="M225.6,162.1l-3.2-7.9l0,0c0,0.5,0,1,0,1.5v6.4h-0.6v-8.6h0.9l3,7.5l0,0l3-7.5h0.9v8.6H229v-6.5
				c0-0.5,0-0.9,0.1-1.4l0,0l-3.2,7.9H225.6z"/>
			<path style="fill:#FFFFFF;" d="M235.9,162.1l-0.1-1l0,0c-0.3,0.4-0.6,0.7-1,0.9s-0.7,0.3-1.2,0.3c-0.6,0-1.1-0.2-1.5-0.5
				s-0.5-0.8-0.5-1.3c0-0.6,0.3-1.1,0.8-1.4s1.3-0.5,2.2-0.5h1.2V158c0-0.6-0.1-1.1-0.4-1.4s-0.6-0.5-1.2-0.5s-1.2,0.2-1.8,0.5
				l-0.2-0.5c0.7-0.3,1.4-0.5,2.1-0.5s1.2,0.2,1.6,0.5s0.5,0.9,0.5,1.7v4.2h-0.5L235.9,162.1L235.9,162.1z M233.6,161.7
				c0.7,0,1.2-0.2,1.6-0.6s0.6-0.9,0.6-1.6v-0.6h-1.1c-0.9,0-1.5,0.2-1.9,0.4s-0.6,0.6-0.6,1.1c0,0.4,0.1,0.7,0.4,0.9
				S233.1,161.7,233.6,161.7z"/>
			<path style="fill:#FFFFFF;" d="M240.1,161.7c0.4,0,0.7,0,1-0.1v0.5c-0.3,0.1-0.6,0.1-1,0.1c-0.6,0-1-0.2-1.2-0.5
				s-0.4-0.8-0.4-1.4v-4.1h-0.9v-0.3l0.9-0.3l0.3-1.4h0.3v1.5h1.9v0.5h-1.9v4c0,0.5,0.1,0.8,0.3,1.1S239.7,161.7,240.1,161.7z"/>
			<path style="fill:#FFFFFF;" d="M244.9,155.6c0.3,0,0.6,0,0.9,0.1l-0.1,0.6c-0.3-0.1-0.5-0.1-0.8-0.1c-0.5,0-1,0.2-1.3,0.7
				s-0.5,1-0.5,1.7v3.5h-0.6v-6.4h0.5l0.1,1.1l0,0c0.3-0.5,0.5-0.8,0.8-1S244.5,155.6,244.9,155.6z"/>
			<path style="fill:#FFFFFF;" d="M249.7,162.2c-0.9,0-1.6-0.3-2.2-0.9s-0.8-1.4-0.8-2.4s0.3-1.8,0.8-2.4s1.2-0.9,2-0.9
				s1.3,0.3,1.8,0.8s0.7,1.2,0.7,2.1v0.5h-4.6c0,0.9,0.2,1.5,0.6,2s1,0.7,1.7,0.7c0.4,0,0.7,0,1-0.1s0.6-0.2,1-0.3v0.5
				c-0.4,0.2-0.7,0.3-1,0.3S250,162.2,249.7,162.2z M249.5,156.1c-0.6,0-1.1,0.2-1.5,0.6s-0.6,1-0.7,1.7h3.9c0-0.7-0.2-1.3-0.5-1.7
				S250.1,156.1,249.5,156.1z"/>
			<path style="fill:#FFFFFF;" d="M257.6,160.5c0,0.6-0.2,1-0.7,1.3s-1,0.5-1.8,0.5c-0.9,0-1.5-0.1-2-0.4v-0.6
				c0.6,0.3,1.3,0.5,2,0.5c0.6,0,1.1-0.1,1.4-0.3s0.5-0.5,0.5-0.8s-0.1-0.6-0.4-0.8s-0.7-0.4-1.3-0.6c-0.6-0.2-1.1-0.4-1.3-0.6
				s-0.5-0.4-0.6-0.6s-0.2-0.5-0.2-0.8c0-0.5,0.2-0.9,0.6-1.1s1-0.4,1.7-0.4c0.7,0,1.3,0.1,2,0.4l-0.2,0.5c-0.6-0.3-1.2-0.4-1.7-0.4
				s-0.9,0.1-1.2,0.3s-0.5,0.4-0.5,0.7s0.1,0.6,0.4,0.8s0.7,0.4,1.4,0.7c0.6,0.2,1,0.4,1.3,0.6s0.5,0.4,0.6,0.6
				S257.6,160.2,257.6,160.5z"/>
			<path style="fill:#FFFFFF;" d="M263.7,162.1V158c0-0.6-0.1-1.1-0.4-1.4s-0.7-0.4-1.3-0.4c-0.8,0-1.3,0.2-1.7,0.6s-0.5,1-0.5,1.9
				v3.5h-0.6V153h0.6v2.9v0.8l0,0c0.2-0.4,0.5-0.7,0.9-0.8s0.8-0.3,1.4-0.3c1.4,0,2.2,0.8,2.2,2.3v4.2L263.7,162.1L263.7,162.1z"/>
			<path style="fill:#FFFFFF;" d="M266.9,159.3l3.3-3.6h0.7l-2.5,2.7l2.7,3.7h-0.7l-2.4-3.2l-1,0.9v2.3h-0.6V153h0.6v4.6
				L266.9,159.3L266.9,159.3z"/>
			<path style="fill:#FFFFFF;" d="M276,162.1l-0.1-1l0,0c-0.3,0.4-0.6,0.7-1,0.9s-0.7,0.3-1.2,0.3c-0.6,0-1.1-0.2-1.5-0.5
				s-0.5-0.8-0.5-1.3c0-0.6,0.3-1.1,0.8-1.4s1.3-0.5,2.2-0.5h1.2V158c0-0.6-0.1-1.1-0.4-1.4s-0.6-0.5-1.2-0.5s-1.2,0.2-1.8,0.5
				l-0.2-0.5c0.7-0.3,1.4-0.5,2.1-0.5s1.2,0.2,1.6,0.5s0.5,0.9,0.5,1.7v4.2H276V162.1z M273.7,161.7c0.7,0,1.2-0.2,1.6-0.6
				s0.6-0.9,0.6-1.6v-0.6h-1.1c-0.9,0-1.5,0.2-1.9,0.4s-0.6,0.6-0.6,1.1c0,0.4,0.1,0.7,0.4,0.9S273.2,161.7,273.7,161.7z"/>
			<path style="fill:#FFFFFF;" d="M280,159.1l-1.8,2.3l-0.4-0.3l1.5-2.1l-1.5-2.1l0.4-0.3l1.8,2.3V159.1z M282.2,159.1l-1.8,2.3
				l-0.4-0.3l1.5-2.1l-1.5-2.1l0.4-0.3l1.8,2.3V159.1z"/>
		</g>
	</g>
	<g>
		<rect x="77.5" y="174.9" style="fill:none;" width="250" height="49"/>
		<g style="enable-background:new    ;">
			<path style="fill:#FFFFFF;" d="M137.9,184h-0.6v-8.6h4.7v0.6h-4.1v3.6h3.9v0.6h-3.9L137.9,184L137.9,184z"/>
			<path style="fill:#FFFFFF;" d="M145.7,177.5c0.3,0,0.6,0,0.9,0.1l-0.1,0.6c-0.3-0.1-0.5-0.1-0.8-0.1c-0.5,0-1,0.2-1.3,0.7
				s-0.5,1-0.5,1.7v3.5h-0.6v-6.4h0.5l0.1,1.1l0,0c0.3-0.5,0.5-0.8,0.8-1S145.2,177.5,145.7,177.5z"/>
			<path style="fill:#FFFFFF;" d="M153.1,180.8c0,1-0.3,1.9-0.8,2.4s-1.2,0.9-2.1,0.9c-0.6,0-1.1-0.1-1.5-0.4s-0.8-0.7-1-1.2
				s-0.3-1.1-0.3-1.7c0-1,0.3-1.8,0.8-2.4s1.2-0.9,2.1-0.9c0.9,0,1.6,0.3,2.1,0.9S153.1,179.8,153.1,180.8z M148.1,180.8
				c0,0.9,0.2,1.6,0.6,2s0.9,0.7,1.6,0.7s1.2-0.2,1.6-0.7s0.6-1.2,0.6-2c0-0.9-0.2-1.6-0.6-2s-0.9-0.7-1.6-0.7s-1.2,0.2-1.6,0.7
				S148.1,179.9,148.1,180.8z"/>
			<path style="fill:#FFFFFF;" d="M162.8,184v-4.2c0-0.6-0.1-1.1-0.4-1.4s-0.6-0.4-1.1-0.4c-0.7,0-1.1,0.2-1.4,0.5s-0.5,0.9-0.5,1.7
				v3.7h-0.6v-4.4c0-1.1-0.5-1.6-1.5-1.6c-0.7,0-1.2,0.2-1.5,0.6s-0.5,1-0.5,1.9v3.5h-0.4v-6.4h0.5l0.1,0.9l0,0
				c0.2-0.3,0.4-0.6,0.8-0.7s0.7-0.3,1.1-0.3c1,0,1.6,0.4,1.9,1.1l0,0c0.2-0.4,0.5-0.6,0.8-0.8s0.7-0.3,1.2-0.3
				c0.7,0,1.2,0.2,1.6,0.6s0.5,1,0.5,1.8v4.2L162.8,184L162.8,184z"/>
			<path style="fill:#FFFFFF;" d="M165.3,178.3c0-0.4,0.2-0.6,0.5-0.6s0.5,0.2,0.5,0.6c0,0.2,0,0.4-0.1,0.4s-0.2,0.1-0.3,0.1
				s-0.2,0-0.3-0.1S165.3,178.5,165.3,178.3z M165.3,183.5c0-0.4,0.2-0.6,0.5-0.6s0.5,0.2,0.5,0.6s-0.2,0.6-0.5,0.6
				S165.3,183.9,165.3,183.5z"/>
		</g>
		<g style="enable-background:new    ;">
			<path style="fill:#FFFFFF;" d="M176.3,184h-4.8v-8.6h4.8v1.2h-3.4v2.3h3.2v1.2h-3.2v2.7h3.4V184z"/>
			<path style="fill:#FFFFFF;" d="M179.4,184H178v-9.1h1.4V184z"/>
			<path style="fill:#FFFFFF;" d="M184.2,184.1c-1,0-1.8-0.3-2.4-0.9s-0.9-1.4-0.9-2.4c0-1.1,0.3-1.9,0.8-2.5s1.3-0.9,2.2-0.9
				s1.5,0.3,2,0.8s0.7,1.2,0.7,2.1v0.7h-4.3c0,0.6,0.2,1.1,0.5,1.5s0.8,0.5,1.4,0.5c0.4,0,0.7,0,1.1-0.1s0.7-0.2,1.1-0.4v1.1
				c-0.3,0.2-0.7,0.3-1,0.3S184.7,184.1,184.2,184.1z M184,178.5c-0.4,0-0.8,0.1-1.1,0.4s-0.4,0.7-0.5,1.2h2.9
				c0-0.5-0.1-0.9-0.4-1.2S184.4,178.5,184,178.5z"/>
			<path style="fill:#FFFFFF;" d="M194,184h-1.4v-4c0-0.5-0.1-0.9-0.3-1.1s-0.5-0.4-1-0.4c-0.6,0-1,0.2-1.3,0.5s-0.4,0.9-0.4,1.7
				v3.2h-1.4v-6.5h1.1l0.2,0.8h0.1c0.2-0.3,0.5-0.5,0.8-0.7s0.8-0.3,1.2-0.3c1.6,0,2.3,0.8,2.3,2.4L194,184L194,184z"/>
			<path style="fill:#FFFFFF;" d="M200,184l-0.3-0.9l0,0c-0.3,0.4-0.6,0.7-0.9,0.8s-0.7,0.2-1.2,0.2c-0.6,0-1.1-0.2-1.5-0.5
				s-0.5-0.8-0.5-1.5s0.2-1.2,0.7-1.5s1.3-0.5,2.3-0.6h1.1v-0.3c0-0.4-0.1-0.7-0.3-0.9s-0.5-0.3-0.9-0.3c-0.3,0-0.7,0-1,0.1
				s-0.6,0.2-0.9,0.3l-0.4-1c0.4-0.2,0.7-0.3,1.2-0.4s0.8-0.1,1.2-0.1c0.8,0,1.4,0.2,1.9,0.5s0.6,0.9,0.6,1.7v4.4H200z M197.9,183.1
				c0.5,0,0.9-0.1,1.2-0.4s0.5-0.7,0.5-1.2v-0.6h-0.8c-0.6,0-1.1,0.1-1.4,0.3s-0.4,0.5-0.4,0.9c0,0.3,0.1,0.5,0.3,0.7
				S197.6,183.1,197.9,183.1z"/>
			<path style="fill:#FFFFFF;" d="M209.9,184l-2.5-7.2l0,0c0.1,1.1,0.1,2.1,0.1,3v4.2h-1.3v-8.6h2l2.4,6.8l0,0l2.4-6.8h2v8.6h-1.3
				v-4.2c0-0.4,0-1,0-1.7s0-1.1,0.1-1.2l0,0l-2.6,7.1L209.9,184L209.9,184z"/>
			<path style="fill:#FFFFFF;" d="M222.8,180.8c0,1.1-0.3,1.9-0.8,2.5s-1.3,0.9-2.3,0.9c-0.6,0-1.1-0.1-1.6-0.4s-0.8-0.7-1.1-1.2
				s-0.4-1.1-0.4-1.8c0-1.1,0.3-1.9,0.8-2.5s1.3-0.9,2.3-0.9c0.9,0,1.7,0.3,2.2,0.9S222.8,179.7,222.8,180.8z M218.1,180.8
				c0,1.5,0.6,2.2,1.7,2.2s1.6-0.7,1.6-2.2s-0.6-2.2-1.7-2.2c-0.6,0-1,0.2-1.3,0.6S218.1,180,218.1,180.8z"/>
			<path style="fill:#FFFFFF;" d="M225.8,184h-1.4v-9.1h1.4V184z"/>
			<path style="fill:#FFFFFF;" d="M231.1,177.4c0.8,0,1.4,0.3,1.9,0.9s0.7,1.4,0.7,2.5s-0.2,1.9-0.7,2.5s-1.1,0.9-1.9,0.9
				s-1.5-0.3-1.9-0.9h-0.1l-0.3,0.8h-1V175h1.4v2.2c0,0.2,0,0.4,0,0.7s0,0.5,0,0.6h0.1C229.6,177.7,230.2,177.4,231.1,177.4z
				 M230.7,178.5c-0.6,0-1,0.2-1.2,0.5s-0.4,0.9-0.4,1.6v0.1c0,0.8,0.1,1.4,0.4,1.7s0.7,0.5,1.2,0.5s0.9-0.2,1.1-0.6
				s0.4-0.9,0.4-1.7C232.2,179.3,231.7,178.5,230.7,178.5z"/>
			<path style="fill:#FFFFFF;" d="M238.1,184.1c-1,0-1.8-0.3-2.4-0.9s-0.9-1.4-0.9-2.4c0-1.1,0.3-1.9,0.8-2.5s1.3-0.9,2.2-0.9
				s1.5,0.3,2,0.8s0.7,1.2,0.7,2.1v0.7h-4.3c0,0.6,0.2,1.1,0.5,1.5s0.8,0.5,1.4,0.5c0.4,0,0.7,0,1.1-0.1s0.7-0.2,1.1-0.4v1.1
				c-0.3,0.2-0.7,0.3-1,0.3S238.5,184.1,238.1,184.1z M237.8,178.5c-0.4,0-0.8,0.1-1.1,0.4s-0.4,0.7-0.5,1.2h2.9
				c0-0.5-0.1-0.9-0.4-1.2S238.2,178.5,237.8,178.5z"/>
			<path style="fill:#FFFFFF;" d="M245.4,177.4c0.3,0,0.5,0,0.7,0.1l-0.1,1.3c-0.2,0-0.4-0.1-0.6-0.1c-0.6,0-1,0.2-1.3,0.5
				s-0.5,0.8-0.5,1.4v3.4h-1.4v-6.5h1.1l0.2,1.1h0.1c0.2-0.4,0.5-0.7,0.8-0.9S245,177.4,245.4,177.4z"/>
			<path style="fill:#FFFFFF;" d="M249.7,183c0.3,0,0.7-0.1,1-0.2v1c-0.2,0.1-0.3,0.1-0.6,0.2s-0.5,0.1-0.7,0.1c-1.3,0-2-0.7-2-2.1
				v-3.5h-0.9V178l0.9-0.5l0.5-1.4h0.8v1.4h1.8v1h-1.8v3.5c0,0.3,0.1,0.6,0.2,0.7S249.5,183,249.7,183z"/>
			<path style="fill:#FFFFFF;" d="M252,175.8c0-0.2,0.1-0.4,0.2-0.6s0.3-0.2,0.6-0.2c0.2,0,0.4,0.1,0.6,0.2s0.2,0.3,0.2,0.6
				c0,0.2-0.1,0.4-0.2,0.6s-0.3,0.2-0.6,0.2s-0.4-0.1-0.6-0.2S252,176,252,175.8z M253.4,184H252v-6.5h1.4V184z"/>
			<path style="fill:#FFFFFF;" d="M261.1,184h-1.4v-4c0-0.5-0.1-0.9-0.3-1.1s-0.5-0.4-1-0.4c-0.6,0-1,0.2-1.3,0.5s-0.4,0.9-0.4,1.7
				v3.2h-1.4v-6.5h1.1l0.2,0.8h0.1c0.2-0.3,0.5-0.5,0.8-0.7s0.8-0.3,1.2-0.3c1.6,0,2.3,0.8,2.3,2.4L261.1,184L261.1,184z"/>
			<path style="fill:#FFFFFF;" d="M267.1,184l-0.3-0.9l0,0c-0.3,0.4-0.6,0.7-0.9,0.8s-0.7,0.2-1.2,0.2c-0.6,0-1.1-0.2-1.5-0.5
				s-0.5-0.8-0.5-1.5s0.2-1.2,0.7-1.5s1.3-0.5,2.3-0.6h1.1v-0.3c0-0.4-0.1-0.7-0.3-0.9s-0.5-0.3-0.9-0.3c-0.3,0-0.7,0-1,0.1
				s-0.6,0.2-0.9,0.3l-0.4-1c0.4-0.2,0.7-0.3,1.2-0.4s0.8-0.1,1.2-0.1c0.8,0,1.4,0.2,1.9,0.5s0.6,0.9,0.6,1.7v4.4H267.1z M265,183.1
				c0.5,0,0.9-0.1,1.2-0.4s0.5-0.7,0.5-1.2v-0.6h-0.8c-0.6,0-1.1,0.1-1.4,0.3s-0.4,0.5-0.4,0.9c0,0.3,0.1,0.5,0.3,0.7
				S264.7,183.1,265,183.1z"/>
		</g>
	</g>
</g>
</svg>
