<?xml version="1.0" encoding="utf-8"?>
<!-- Generator: Adobe Illustrator 19.2.1, SVG Export Plug-In . SVG Version: 6.00 Build 0)  -->
<svg version="1.1" id="Слой_1" xmlns="http://www.w3.org/2000/svg" xmlns:xlink="http://www.w3.org/1999/xlink" x="0px" y="0px"
	 viewBox="0 0 1464.1 514.6" style="enable-background:new 0 0 1464.1 514.6;" xml:space="preserve">
<title>designmap_1_ru</title>
<g>
	<g>
		<g id="Browser-Dark_6_">
			<rect y="4" style="fill:#FFFFFF;" width="1465" height="510"/>
			<g>
				<path style="fill:#B8C3CF;" d="M164.3,25.6c14.3,0,14.4,35,25.2,38.2H232c-12.5,0-11.8-38.4-26.8-38.4L164.3,25.6z"/>
			</g>
			<g>
				<rect y="60.4" style="fill:#E9E9E9;" width="1464" height="82"/>
			</g>
			<path style="opacity:0.3;enable-background:new    ;" d="M65.3,111.6c0.8-0.8,8.9-9.2,8.9-9.2c0.4-0.4,0.7-1,0.7-1.6
				s-0.2-1.1-0.7-1.6c0,0-8-8.4-8.9-9.2c-0.8-0.8-2.3-0.9-3.2,0s-0.9,2.1,0,3.1l7.4,7.7l-7.4,7.7c-0.9,1.1-0.9,2.2,0,3.1
				S64.5,112.4,65.3,111.6z"/>
			<path style="opacity:0.3;enable-background:new    ;" d="M27.7,90.3c-0.8,0.8-8.9,9.2-8.9,9.2c-0.4,0.4-0.7,1-0.7,1.6
				s0.2,1.1,0.7,1.6c0,0,8,8.4,8.9,9.2c0.8,0.8,2.3,0.9,3.2,0c0.9-0.9,0.9-2.1,0-3.1l-7.4-7.7l7.4-7.7c0.9-1.1,0.9-2.2,0-3.1
				C30,89.4,28.5,89.5,27.7,90.3z"/>
			<path style="fill:none;stroke:#009F4B;stroke-width:0.5071;stroke-miterlimit:10;" d="M720.7,132.2"/>
			<path style="fill:none;stroke:#009F4B;stroke-width:0.5071;stroke-miterlimit:10;" d="M663.1,234.7"/>
			<g>
				<path style="fill:#E9E9E9;" d="M0.1,60.8c14.9,0,14.3-38.4,26.8-38.4h142.5c14.9,0,14.3,38.4,26.8,38.4H0.1z"/>
			</g>
			<g style="opacity:0.3;">
				<path d="M168.8,44.2l-2.4-2.7l2.4-2.7c0.4-0.4,0.4-1.1,0-1.5s-1-0.4-1.5,0L165,40l-2.3-2.6c-0.4-0.4-1.1-0.4-1.5,0s-0.4,1,0,1.5
					l2.4,2.7l-2.4,2.7c-0.4,0.4-0.4,1,0,1.5c0.4,0.4,1.1,0.4,1.5,0l2.3-2.6l2.3,2.6c0.4,0.4,1.1,0.4,1.5,0
					C169.2,45.3,169.2,44.6,168.8,44.2z"/>
			</g>
			<g style="opacity:0.3;">
				<g>
					<path d="M115.7,89c5.9,0,10.6,4.7,10.8,10.5h3.2l-4.8,5.4l-4.8-5.4h3.8c-0.1-4.4-3.7-7.8-8.1-7.8c-4.5,0-8.1,3.6-8.1,8.1
						s3.6,8.1,8.1,8.1c1.8,0,3.4-0.6,4.8-1.6l1.9,2c-1.8,1.4-4.1,2.3-6.6,2.3c-5.9,0-10.8-4.8-10.8-10.8
						C104.9,93.8,109.8,89,115.7,89z"/>
				</g>
			</g>
			<path style="fill:none;stroke:#009F4B;stroke-width:0.5071;stroke-miterlimit:10;" d="M674.2,513.6"/>
			<g>
				<path style="fill:#9E9E9E;" d="M1419.6,101.6h-23.8c-1.1,0-2,1-2,2.3s0.9,2.3,2,2.3h23.8c1.1,0,2-1,2-2.3
					C1421.6,102.7,1420.7,101.6,1419.6,101.6z M1395.8,96.9h23.8c1.1,0,2-1,2-2.3s-0.9-2.3-2-2.3h-23.8c-1.1,0-2,1-2,2.3
					S1394.7,96.9,1395.8,96.9z M1419.6,111h-23.8c-1.1,0-2,1-2,2.3s0.9,2.3,2,2.3h23.8c1.1,0,2-1.1,2-2.3
					C1421.6,112,1420.7,111,1419.6,111z"/>
			</g>
			<g>
				<g>
					<path style="fill:#A2A2A4;" d="M643,169"/>
				</g>
			</g>
			<path style="fill:#FFFFFF;" d="M1356.1,120.5c0,3.3-2.7,6-6,6l-1191.9-2c-3.3,0-6-2.7-6-6V85.2c0-3.3,2.7-6,6-6l1191.9,2
				c3.3,0,6,2.7,6,6V120.5z"/>
			<path style="fill:#DADAD9;" d="M179.5,88.9h-12.1c-0.2,0-0.3,0.1-0.3,0.3v24.4c0,0.2,0.1,0.3,0.3,0.3h18.4c0.2,0,0.3-0.1,0.3-0.3
				V95.8L179.5,88.9z"/>
			<path style="fill:#B8B8B8;" d="M179.5,88.9L179.5,88.9l6.6,6.9l-6.2-0.1c0,0-0.4-0.1-0.4-0.6C179.5,94.6,179.5,88.9,179.5,88.9"
				/>
			<g>
				<path style="fill:#7D797B;" d="M60.8,40.4c0,2.2-0.6,4-1.8,5.1c-1.2,1.2-3,1.8-5.2,1.8H50V33.7h4.2c2.1,0,3.7,0.6,4.9,1.8
					S60.8,38.3,60.8,40.4z M59.1,40.4c0-1.8-0.4-3.1-1.3-4c-0.9-0.9-2.2-1.3-4-1.3h-2.3v10.8h1.9c1.9,0,3.3-0.5,4.2-1.4
					C58.6,43.6,59.1,42.2,59.1,40.4z"/>
				<path style="fill:#7D797B;" d="M67.9,47.5c-1.5,0-2.7-0.5-3.6-1.4S63,43.9,63,42.3s0.4-2.9,1.2-3.9c0.8-1,1.9-1.4,3.3-1.4
					c1.3,0,2.3,0.4,3,1.3c0.7,0.8,1.1,1.9,1.1,3.3v1h-7c0,1.2,0.3,2.1,0.9,2.7c0.6,0.6,1.4,0.9,2.4,0.9c1.1,0,2.2-0.2,3.2-0.7v1.4
					c-0.5,0.2-1.1,0.4-1.5,0.5C69.1,47.4,68.6,47.5,67.9,47.5z M67.5,38.2c-0.8,0-1.5,0.3-2,0.8s-0.8,1.3-0.9,2.2H70
					c0-1-0.2-1.7-0.6-2.2C68.9,38.5,68.3,38.2,67.5,38.2z"/>
				<path style="fill:#7D797B;" d="M80.8,44.5c0,0.9-0.4,1.7-1.1,2.2s-1.7,0.8-3,0.8s-2.4-0.2-3.2-0.6v-1.4c0.5,0.2,1,0.4,1.6,0.6
					c0.6,0.1,1.1,0.2,1.6,0.2c0.8,0,1.4-0.1,1.9-0.4c0.4-0.3,0.6-0.6,0.6-1.2c0-0.4-0.2-0.7-0.5-1s-1-0.6-2-1
					c-0.9-0.4-1.6-0.7-2-0.9c-0.4-0.3-0.7-0.6-0.9-0.9c-0.2-0.3-0.3-0.7-0.3-1.2c0-0.8,0.3-1.5,1-2s1.6-0.7,2.8-0.7
					c1.1,0,2.2,0.2,3.2,0.7L80,38.8c-1-0.4-1.9-0.6-2.8-0.6c-0.7,0-1.3,0.1-1.7,0.3c-0.4,0.2-0.6,0.5-0.6,0.9c0,0.3,0.1,0.5,0.2,0.7
					s0.4,0.4,0.7,0.5c0.3,0.2,0.9,0.4,1.8,0.8c1.2,0.4,2,0.9,2.4,1.3C80.6,43.3,80.8,43.8,80.8,44.5z"/>
				<path style="fill:#7D797B;" d="M83.2,34.4c0-0.4,0.1-0.6,0.3-0.8c0.2-0.2,0.4-0.2,0.6-0.2s0.5,0.1,0.6,0.3
					c0.2,0.2,0.3,0.4,0.3,0.8c0,0.3-0.1,0.6-0.3,0.8c-0.2,0.2-0.4,0.3-0.6,0.3c-0.3,0-0.5-0.1-0.6-0.3C83.3,35,83.2,34.7,83.2,34.4z
					 M84.8,47.3h-1.5V37.1h1.5V47.3z"/>
				<path style="fill:#7D797B;" d="M96.4,37.1v1l-1.9,0.2c0.2,0.2,0.3,0.5,0.5,0.8c0.1,0.3,0.2,0.7,0.2,1.2c0,1-0.3,1.8-1,2.4
					c-0.7,0.6-1.6,0.9-2.8,0.9c-0.3,0-0.6,0-0.9-0.1c-0.7,0.3-1,0.8-1,1.3c0,0.3,0.1,0.5,0.3,0.6c0.2,0.1,0.6,0.2,1.2,0.2h1.8
					c1.1,0,1.9,0.2,2.5,0.7s0.9,1.1,0.9,2c0,1.1-0.5,2-1.4,2.6s-2.2,0.9-4,0.9c-1.3,0-2.4-0.2-3.1-0.7s-1.1-1.2-1.1-2.1
					c0-0.6,0.2-1.2,0.6-1.6c0.4-0.5,1-0.8,1.7-0.9c-0.3-0.1-0.5-0.3-0.7-0.5s-0.3-0.5-0.3-0.9s0.1-0.7,0.3-1
					c0.2-0.3,0.5-0.5,0.9-0.8c-0.5-0.2-1-0.6-1.3-1.1s-0.5-1.1-0.5-1.8c0-1.1,0.3-2,1-2.6s1.6-0.9,2.8-0.9c0.5,0,1,0.1,1.4,0.2
					C92.5,37.1,96.4,37.1,96.4,37.1z M88.3,49c0,0.6,0.2,1,0.7,1.3s1.1,0.4,2,0.4c1.3,0,2.2-0.2,2.9-0.6c0.6-0.4,0.9-0.9,0.9-1.6
					c0-0.6-0.2-0.9-0.5-1.1c-0.3-0.2-1-0.3-1.9-0.3h-1.8c-0.7,0-1.2,0.2-1.6,0.5S88.3,48.4,88.3,49z M89.2,40.4
					c0,0.7,0.2,1.2,0.6,1.6c0.4,0.4,1,0.5,1.7,0.5c1.5,0,2.3-0.7,2.3-2.2S93,38,91.5,38c-0.7,0-1.3,0.2-1.7,0.6S89.2,39.6,89.2,40.4
					z"/>
				<path style="fill:#7D797B;" d="M105.5,47.3v-6.6c0-0.8-0.2-1.4-0.6-1.9c-0.4-0.4-1-0.6-1.8-0.6c-1.1,0-1.8,0.3-2.3,0.9
					c-0.5,0.6-0.7,1.5-0.7,2.8v5.3h-1.5V37.1h1.3l0.3,1.4h0.1c0.3-0.5,0.8-0.9,1.3-1.2c0.6-0.3,1.2-0.4,1.9-0.4
					c1.2,0,2.1,0.3,2.8,0.9c0.6,0.6,0.9,1.5,0.9,2.8v6.6h-1.7V47.3z"/>
				<path style="fill:#7D797B;" d="M116.4,47.3l-4.6-12h-0.1c0.1,1,0.1,2.1,0.1,3.4v8.6h-1.5V33.7h2.4l4.3,11.2h0.1l4.3-11.2h2.4
					v13.6h-1.6v-8.7c0-1,0-2.1,0.1-3.3h-0.1l-4.6,12C117.6,47.3,116.4,47.3,116.4,47.3z"/>
				<path style="fill:#7D797B;" d="M133.6,47.3l-0.3-1.4h-0.1c-0.5,0.6-1,1.1-1.5,1.3s-1.1,0.3-1.9,0.3c-1,0-1.8-0.3-2.4-0.8
					s-0.9-1.3-0.9-2.2c0-2.1,1.6-3.1,4.9-3.2l1.7-0.1v-0.6c0-0.8-0.2-1.4-0.5-1.8c-0.3-0.4-0.9-0.6-1.6-0.6c-0.8,0-1.8,0.3-2.9,0.8
					l-0.5-1.2c0.5-0.3,1-0.5,1.6-0.6c0.6-0.2,1.2-0.2,1.8-0.2c1.2,0,2.1,0.3,2.7,0.8c0.6,0.5,0.9,1.4,0.9,2.6v6.9H133.6z
					 M130.1,46.2c1,0,1.7-0.3,2.3-0.8c0.5-0.5,0.8-1.3,0.8-2.2v-0.9l-1.5,0.1c-1.2,0-2.1,0.2-2.6,0.6c-0.5,0.3-0.8,0.9-0.8,1.6
					c0,0.6,0.2,1,0.5,1.3C129,46.1,129.5,46.2,130.1,46.2z"/>
				<path style="fill:#7D797B;" d="M142.6,47.5c-0.7,0-1.3-0.1-1.8-0.4c-0.5-0.2-1-0.6-1.4-1.1h-0.1c0.1,0.6,0.1,1.2,0.1,1.7v4.2
					h-1.5V37.1h1.3l0.2,1.4h0.1c0.4-0.6,0.9-1,1.4-1.2s1.1-0.4,1.8-0.4c1.3,0,2.4,0.5,3.1,1.4c0.7,0.9,1.1,2.2,1.1,3.9
					s-0.4,3-1.1,3.9C145,47,144,47.5,142.6,47.5z M142.4,38.2c-1,0-1.8,0.3-2.3,0.9s-0.7,1.5-0.7,2.7v0.3c0,1.4,0.2,2.5,0.7,3.1
					s1.2,0.9,2.3,0.9c0.9,0,1.6-0.4,2.1-1.1c0.5-0.7,0.7-1.7,0.7-2.9c0-1.3-0.2-2.2-0.7-2.9C144,38.6,143.3,38.2,142.4,38.2z"/>
			</g>
			<g>
				<path style="fill:#7D797B;" d="M210.4,109.9v-6.6c0-0.8-0.2-1.4-0.6-1.9c-0.4-0.4-1-0.6-1.8-0.6c-1.1,0-1.9,0.3-2.3,0.9
					c-0.5,0.6-0.7,1.5-0.7,2.9v5.3h-1.5V95.4h1.5v4.4c0,0.5,0,1-0.1,1.3h0.1c0.3-0.5,0.7-0.9,1.3-1.2c0.6-0.3,1.2-0.4,1.9-0.4
					c1.2,0,2.2,0.3,2.8,0.9s0.9,1.5,0.9,2.8v6.6L210.4,109.9L210.4,109.9z"/>
				<path style="fill:#7D797B;" d="M218.4,108.8c0.3,0,0.5,0,0.8-0.1c0.3,0,0.5-0.1,0.6-0.1v1.2c-0.2,0.1-0.4,0.1-0.7,0.2
					s-0.6,0.1-0.9,0.1c-2,0-3-1-3-3.1v-6h-1.5v-0.7l1.5-0.6l0.6-2.2h0.9v2.4h3v1.2h-3v6c0,0.6,0.1,1.1,0.4,1.4
					C217.5,108.6,217.9,108.8,218.4,108.8z"/>
				<path style="fill:#7D797B;" d="M225.1,108.8c0.3,0,0.5,0,0.8-0.1c0.3,0,0.5-0.1,0.6-0.1v1.2c-0.2,0.1-0.4,0.1-0.7,0.2
					s-0.6,0.1-0.9,0.1c-2,0-3-1-3-3.1v-6h-1.5v-0.7l1.5-0.6l0.6-2.2h0.9v2.4h3v1.2h-3v6c0,0.6,0.1,1.1,0.4,1.4
					C224.2,108.6,224.6,108.8,225.1,108.8z"/>
				<path style="fill:#7D797B;" d="M233.3,110c-0.7,0-1.3-0.1-1.8-0.4c-0.5-0.2-1-0.6-1.4-1.1H230c0.1,0.6,0.1,1.2,0.1,1.7v4.2h-1.5
					V99.7h1.3l0.2,1.4h0.1c0.4-0.6,0.9-1,1.4-1.2s1.1-0.4,1.8-0.4c1.3,0,2.4,0.5,3.1,1.4c0.7,0.9,1.1,2.2,1.1,3.9
					c0,1.7-0.4,3-1.1,3.9C235.6,109.6,234.6,110,233.3,110z M233.1,100.8c-1,0-1.8,0.3-2.3,0.9s-0.7,1.5-0.7,2.7v0.3
					c0,1.4,0.2,2.5,0.7,3.1s1.2,0.9,2.3,0.9c0.9,0,1.6-0.4,2.1-1.1s0.7-1.7,0.7-2.9c0-1.3-0.2-2.2-0.7-2.9
					C234.7,101.1,234,100.8,233.1,100.8z"/>
				<path style="fill:#7D797B;" d="M246.8,107.1c0,0.9-0.4,1.7-1.1,2.2c-0.7,0.5-1.7,0.8-3,0.8s-2.4-0.2-3.2-0.6V108
					c0.5,0.2,1,0.4,1.6,0.6c0.6,0.1,1.1,0.2,1.6,0.2c0.8,0,1.4-0.1,1.9-0.4c0.4-0.3,0.6-0.6,0.6-1.2c0-0.4-0.2-0.7-0.5-1s-1-0.6-2-1
					c-0.9-0.4-1.6-0.7-2-0.9c-0.4-0.3-0.7-0.6-0.9-0.9s-0.3-0.7-0.3-1.2c0-0.8,0.3-1.5,1-2s1.6-0.7,2.8-0.7c1.1,0,2.2,0.2,3.2,0.7
					l-0.5,1.3c-1-0.4-1.9-0.6-2.8-0.6c-0.7,0-1.3,0.1-1.7,0.3c-0.4,0.2-0.6,0.5-0.6,0.9c0,0.3,0.1,0.5,0.2,0.7
					c0.1,0.2,0.4,0.4,0.7,0.5c0.3,0.2,0.9,0.4,1.8,0.8c1.2,0.4,2,0.9,2.4,1.3C246.5,105.8,246.8,106.4,246.8,107.1z"/>
				<path style="fill:#7D797B;" d="M249,100.7c0-0.8,0.4-1.3,1.1-1.3c0.8,0,1.1,0.4,1.1,1.3c0,0.4-0.1,0.7-0.3,0.9
					c-0.2,0.2-0.5,0.3-0.8,0.3s-0.6-0.1-0.8-0.3C249.1,101.4,249,101.1,249,100.7z M249,108.9c0-0.4,0.1-0.7,0.3-0.9
					c0.2-0.2,0.5-0.3,0.8-0.3c0.4,0,0.6,0.1,0.8,0.3c0.2,0.2,0.3,0.5,0.3,0.9s-0.1,0.7-0.3,0.9s-0.5,0.3-0.8,0.3s-0.6-0.1-0.8-0.3
					S249,109.3,249,108.9z"/>
				<path style="fill:#7D797B;" d="M259.5,96.3l-5.1,13.6h-1.5l5.1-13.6H259.5z"/>
				<path style="fill:#7D797B;" d="M266.4,96.3l-5.1,13.6h-1.5l5.1-13.6H266.4z"/>
				<path style="fill:#7D797B;" d="M274.5,109.9l-0.3-1.4h-0.1c-0.5,0.6-1,1.1-1.5,1.3c-0.5,0.2-1.1,0.3-1.9,0.3
					c-1,0-1.8-0.3-2.4-0.8s-0.9-1.3-0.9-2.2c0-2.1,1.6-3.1,4.9-3.2l1.7-0.1v-0.6c0-0.8-0.2-1.4-0.5-1.8s-0.9-0.6-1.6-0.6
					c-0.8,0-1.8,0.3-2.9,0.8l-0.5-1.2c0.5-0.3,1-0.5,1.6-0.6c0.6-0.2,1.2-0.2,1.8-0.2c1.2,0,2.1,0.3,2.7,0.8s0.9,1.4,0.9,2.6v6.9
					L274.5,109.9L274.5,109.9z M271,108.8c1,0,1.7-0.3,2.3-0.8c0.5-0.5,0.8-1.3,0.8-2.2v-0.9l-1.5,0.1c-1.2,0-2.1,0.2-2.6,0.6
					c-0.5,0.3-0.8,0.9-0.8,1.6c0,0.6,0.2,1,0.5,1.3C270,108.6,270.4,108.8,271,108.8z"/>
				<path style="fill:#7D797B;" d="M283.6,110c-0.7,0-1.3-0.1-1.8-0.4c-0.5-0.2-1-0.6-1.4-1.1h-0.1c0.1,0.6,0.1,1.2,0.1,1.7v4.2
					h-1.5V99.7h1.3l0.2,1.4h0.1c0.4-0.6,0.9-1,1.4-1.2s1.1-0.4,1.8-0.4c1.3,0,2.4,0.5,3.1,1.4s1.1,2.2,1.1,3.9c0,1.7-0.4,3-1.1,3.9
					C285.9,109.6,284.9,110,283.6,110z M283.4,100.8c-1,0-1.8,0.3-2.3,0.9s-0.7,1.5-0.7,2.7v0.3c0,1.4,0.2,2.5,0.7,3.1
					s1.2,0.9,2.3,0.9c0.9,0,1.6-0.4,2.1-1.1s0.7-1.7,0.7-2.9c0-1.3-0.2-2.2-0.7-2.9S284.3,100.8,283.4,100.8z"/>
				<path style="fill:#7D797B;" d="M295.2,110c-0.7,0-1.3-0.1-1.8-0.4c-0.5-0.2-1-0.6-1.4-1.1h-0.1c0.1,0.6,0.1,1.2,0.1,1.7v4.2
					h-1.5V99.7h1.3l0.2,1.4h0.1c0.4-0.6,0.9-1,1.4-1.2s1.1-0.4,1.8-0.4c1.3,0,2.4,0.5,3.1,1.4s1.1,2.2,1.1,3.9c0,1.7-0.4,3-1.1,3.9
					C297.6,109.6,296.5,110,295.2,110z M295,100.8c-1,0-1.8,0.3-2.3,0.9s-0.7,1.5-0.7,2.7v0.3c0,1.4,0.2,2.5,0.7,3.1
					s1.2,0.9,2.3,0.9c0.9,0,1.6-0.4,2.1-1.1s0.7-1.7,0.7-2.9c0-1.3-0.2-2.2-0.7-2.9S295.9,100.8,295,100.8z"/>
				<path style="fill:#7D797B;" d="M301.9,108.9c0-0.4,0.1-0.7,0.3-0.9c0.2-0.2,0.5-0.3,0.8-0.3c0.4,0,0.6,0.1,0.8,0.3
					c0.2,0.2,0.3,0.5,0.3,0.9s-0.1,0.7-0.3,0.9s-0.5,0.3-0.8,0.3s-0.6-0.1-0.8-0.3S301.9,109.3,301.9,108.9z"/>
				<path style="fill:#7D797B;" d="M314.1,108.5L314.1,108.5c-0.8,1-1.9,1.5-3.3,1.5c-1.3,0-2.4-0.5-3.1-1.4s-1.1-2.2-1.1-3.9
					c0-1.7,0.4-3,1.1-3.9s1.8-1.4,3.1-1.4c1.4,0,2.4,0.5,3.2,1.5h0.1l-0.1-0.7v-0.7v-4.1h1.5v14.4h-1.3L314.1,108.5z M311,108.7
					c1.1,0,1.8-0.3,2.3-0.9s0.7-1.5,0.7-2.8v-0.3c0-1.4-0.2-2.5-0.7-3.1s-1.2-0.9-2.3-0.9c-0.9,0-1.6,0.4-2.1,1.1s-0.7,1.7-0.7,3
					s0.2,2.3,0.7,2.9C309.4,108.4,310.1,108.7,311,108.7z"/>
				<path style="fill:#7D797B;" d="M323.1,110c-1.5,0-2.7-0.5-3.6-1.4s-1.3-2.2-1.3-3.8c0-1.6,0.4-2.9,1.2-3.9
					c0.8-1,1.9-1.4,3.3-1.4c1.3,0,2.3,0.4,3,1.3c0.7,0.8,1.1,1.9,1.1,3.3v1h-7c0,1.2,0.3,2.1,0.9,2.7s1.4,0.9,2.4,0.9
					c1.1,0,2.2-0.2,3.2-0.7v1.4c-0.5,0.2-1.1,0.4-1.5,0.5C324.4,110,323.8,110,323.1,110z M322.7,100.8c-0.8,0-1.5,0.3-2,0.8
					s-0.8,1.3-0.9,2.2h5.3c0-1-0.2-1.7-0.6-2.2C324.1,101,323.5,100.8,322.7,100.8z"/>
				<path style="fill:#7D797B;" d="M336,107.1c0,0.9-0.4,1.7-1.1,2.2s-1.7,0.8-3,0.8s-2.4-0.2-3.2-0.6V108c0.5,0.2,1,0.4,1.6,0.6
					c0.6,0.1,1.1,0.2,1.6,0.2c0.8,0,1.4-0.1,1.9-0.4c0.4-0.3,0.6-0.6,0.6-1.2c0-0.4-0.2-0.7-0.5-1s-1-0.6-2-1
					c-0.9-0.4-1.6-0.7-2-0.9c-0.4-0.3-0.7-0.6-0.9-0.9c-0.2-0.3-0.3-0.7-0.3-1.2c0-0.8,0.3-1.5,1-2s1.6-0.7,2.8-0.7
					c1.1,0,2.2,0.2,3.2,0.7l-0.5,1.3c-1-0.4-1.9-0.6-2.8-0.6c-0.7,0-1.3,0.1-1.7,0.3c-0.4,0.2-0.6,0.5-0.6,0.9
					c0,0.3,0.1,0.5,0.2,0.7s0.4,0.4,0.7,0.5c0.3,0.2,0.9,0.4,1.8,0.8c1.2,0.4,2,0.9,2.4,1.3C335.8,105.8,336,106.4,336,107.1z"/>
				<path style="fill:#7D797B;" d="M338.4,96.9c0-0.4,0.1-0.6,0.3-0.8c0.2-0.2,0.4-0.2,0.6-0.2s0.5,0.1,0.6,0.3
					c0.2,0.2,0.3,0.4,0.3,0.8c0,0.3-0.1,0.6-0.3,0.8c-0.2,0.2-0.4,0.3-0.6,0.3c-0.3,0-0.5-0.1-0.6-0.3
					C338.5,97.5,338.4,97.3,338.4,96.9z M340.1,109.9h-1.5V99.7h1.5V109.9z"/>
				<path style="fill:#7D797B;" d="M351.7,99.7v1l-1.9,0.2c0.2,0.2,0.3,0.5,0.5,0.8c0.1,0.3,0.2,0.7,0.2,1.2c0,1-0.3,1.8-1,2.4
					s-1.6,0.9-2.8,0.9c-0.3,0-0.6,0-0.9-0.1c-0.7,0.3-1,0.8-1,1.3c0,0.3,0.1,0.5,0.3,0.6c0.2,0.1,0.6,0.2,1.2,0.2h1.8
					c1.1,0,1.9,0.2,2.5,0.7s0.9,1.1,0.9,2c0,1.1-0.5,2-1.4,2.6s-2.2,0.9-4,0.9c-1.3,0-2.4-0.2-3.1-0.7s-1.1-1.2-1.1-2.1
					c0-0.6,0.2-1.2,0.6-1.6c0.4-0.5,1-0.8,1.7-0.9c-0.3-0.1-0.5-0.3-0.7-0.5s-0.3-0.5-0.3-0.9s0.1-0.7,0.3-1
					c0.2-0.3,0.5-0.5,0.9-0.8c-0.5-0.2-1-0.6-1.3-1.1s-0.5-1.1-0.5-1.8c0-1.1,0.3-2,1-2.6s1.6-0.9,2.8-0.9c0.5,0,1,0.1,1.4,0.2
					C347.8,99.7,351.7,99.7,351.7,99.7z M343.6,111.6c0,0.6,0.2,1,0.7,1.3s1.1,0.4,2,0.4c1.3,0,2.2-0.2,2.9-0.6
					c0.6-0.4,0.9-0.9,0.9-1.6c0-0.6-0.2-0.9-0.5-1.1s-1-0.3-1.9-0.3h-1.8c-0.7,0-1.2,0.2-1.6,0.5S343.6,110.9,343.6,111.6z
					 M344.4,102.9c0,0.7,0.2,1.2,0.6,1.6s1,0.5,1.7,0.5c1.5,0,2.3-0.7,2.3-2.2s-0.8-2.3-2.3-2.3c-0.7,0-1.3,0.2-1.7,0.6
					S344.4,102.2,344.4,102.9z"/>
				<path style="fill:#7D797B;" d="M360.7,109.9v-6.6c0-0.8-0.2-1.4-0.6-1.9c-0.4-0.4-1-0.6-1.8-0.6c-1.1,0-1.8,0.3-2.3,0.9
					s-0.7,1.5-0.7,2.8v5.3h-1.5V99.7h1.3l0.3,1.4h0.1c0.3-0.5,0.8-0.9,1.3-1.2c0.6-0.3,1.2-0.4,1.9-0.4c1.2,0,2.1,0.3,2.8,0.9
					c0.6,0.6,0.9,1.5,0.9,2.8v6.6L360.7,109.9L360.7,109.9z"/>
				<path style="fill:#7D797B;" d="M378.4,109.9v-6.6c0-0.8-0.2-1.4-0.5-1.8s-0.9-0.6-1.6-0.6c-1,0-1.7,0.3-2.1,0.8
					c-0.5,0.6-0.7,1.4-0.7,2.5v5.7H372v-6.6c0-0.8-0.2-1.4-0.5-1.8s-0.9-0.6-1.6-0.6c-1,0-1.7,0.3-2.1,0.9s-0.7,1.5-0.7,2.8v5.3
					h-1.5V99.7h1.3l0.3,1.4h0.1c0.3-0.5,0.7-0.9,1.2-1.2c0.5-0.3,1.1-0.4,1.8-0.4c1.6,0,2.6,0.6,3.1,1.7h0.1c0.3-0.5,0.7-1,1.3-1.3
					c0.6-0.3,1.2-0.5,2-0.5c1.2,0,2,0.3,2.6,0.9s0.9,1.5,0.9,2.8v6.6h-1.9V109.9z"/>
				<path style="fill:#7D797B;" d="M389.4,109.9l-0.3-1.4H389c-0.5,0.6-1,1.1-1.5,1.3c-0.5,0.2-1.1,0.3-1.9,0.3
					c-1,0-1.8-0.3-2.4-0.8s-0.9-1.3-0.9-2.2c0-2.1,1.6-3.1,4.9-3.2l1.7-0.1v-0.6c0-0.8-0.2-1.4-0.5-1.8s-0.9-0.6-1.6-0.6
					c-0.8,0-1.8,0.3-2.9,0.8l-0.5-1.2c0.5-0.3,1-0.5,1.6-0.6c0.6-0.2,1.2-0.2,1.8-0.2c1.2,0,2.1,0.3,2.7,0.8s0.9,1.4,0.9,2.6v6.9
					L389.4,109.9L389.4,109.9z M385.9,108.8c1,0,1.7-0.3,2.3-0.8c0.5-0.5,0.8-1.3,0.8-2.2v-0.9l-1.5,0.1c-1.2,0-2.1,0.2-2.6,0.6
					c-0.5,0.3-0.8,0.9-0.8,1.6c0,0.6,0.2,1,0.5,1.3C384.8,108.6,385.3,108.8,385.9,108.8z"/>
				<path style="fill:#7D797B;" d="M398.4,110c-0.7,0-1.3-0.1-1.8-0.4c-0.5-0.2-1-0.6-1.4-1.1h-0.1c0.1,0.6,0.1,1.2,0.1,1.7v4.2
					h-1.5V99.7h1.3l0.2,1.4h0.1c0.4-0.6,0.9-1,1.4-1.2s1.1-0.4,1.8-0.4c1.3,0,2.4,0.5,3.1,1.4s1.1,2.2,1.1,3.9c0,1.7-0.4,3-1.1,3.9
					C400.8,109.6,399.7,110,398.4,110z M398.2,100.8c-1,0-1.8,0.3-2.3,0.9s-0.7,1.5-0.7,2.7v0.3c0,1.4,0.2,2.5,0.7,3.1
					s1.2,0.9,2.3,0.9c0.9,0,1.6-0.4,2.1-1.1s0.7-1.7,0.7-2.9c0-1.3-0.2-2.2-0.7-2.9C399.8,101.1,399.1,100.8,398.2,100.8z"/>
				<path style="fill:#7D797B;" d="M405.1,108.9c0-0.4,0.1-0.7,0.3-0.9c0.2-0.2,0.5-0.3,0.8-0.3c0.4,0,0.6,0.1,0.8,0.3
					c0.2,0.2,0.3,0.5,0.3,0.9s-0.1,0.7-0.3,0.9s-0.5,0.3-0.8,0.3s-0.6-0.1-0.8-0.3S405.1,109.3,405.1,108.9z"/>
				<path style="fill:#7D797B;" d="M415,99.5c0.5,0,0.9,0,1.2,0.1L416,101c-0.4-0.1-0.8-0.1-1.1-0.1c-0.8,0-1.5,0.3-2.1,1
					s-0.9,1.5-0.9,2.5v5.5h-1.5V99.7h1.3l0.2,1.9h0.1c0.4-0.7,0.8-1.2,1.4-1.5C413.8,99.7,414.4,99.5,415,99.5z"/>
				<path style="fill:#7D797B;" d="M419.6,99.7v6.6c0,0.8,0.2,1.4,0.6,1.9c0.4,0.4,1,0.6,1.8,0.6c1.1,0,1.8-0.3,2.3-0.9
					s0.7-1.5,0.7-2.8v-5.3h1.5V110h-1.3l-0.2-1.4h-0.1c-0.3,0.5-0.8,0.9-1.3,1.2c-0.6,0.3-1.2,0.4-1.9,0.4c-1.2,0-2.2-0.3-2.8-0.9
					c-0.6-0.6-0.9-1.5-0.9-2.8v-6.7L419.6,99.7L419.6,99.7z"/>
			</g>
			<circle style="fill:#F5A847;stroke:#FFFFFF;stroke-miterlimit:10;" cx="35" cy="39" r="9"/>
		</g>
		<g>
			<rect x="220" y="143" style="fill:#F2F2F2;" width="1244" height="65"/>
		</g>
		<g>
			<rect y="142" style="fill:#91CFF9;" width="220" height="65.5"/>
		</g>
		<line style="fill:none;stroke:#EDEDED;stroke-miterlimit:10;" x1="219.5" y1="515" x2="219.5" y2="142"/>
		<g id="taskmanager_6_">
			
				<circle style="fill:none;stroke:#828282;stroke-linecap:round;stroke-linejoin:round;stroke-miterlimit:10;" cx="26" cy="233.3" r="5.8"/>
			
				<line style="fill:none;stroke:#828282;stroke-linecap:round;stroke-linejoin:round;stroke-miterlimit:10;" x1="25.6" y1="235.2" x2="29.3" y2="231.5"/>
			
				<line style="fill:none;stroke:#828282;stroke-linecap:round;stroke-linejoin:round;stroke-miterlimit:10;" x1="25.6" y1="235.2" x2="23.7" y2="233.4"/>
			
				<circle style="fill:none;stroke:#828282;stroke-linecap:round;stroke-linejoin:round;stroke-miterlimit:10;" cx="26" cy="246.7" r="5.8"/>
		</g>
		<g id="access_11_">
			<g id="access_12_">
				<path style="fill:none;stroke:#828282;stroke-linecap:round;stroke-linejoin:round;stroke-miterlimit:10;" d="M26.1,333.3
					l6.2-6.2c1.6-1.6,4.1-1.6,5.7,0l0.8,0.8c1.6,1.6,1.6,4.1,0,5.7l-6.2,6.2c-1.6,1.6-4.1,1.6-5.7,0l-0.8-0.8"/>
				<path style="fill:none;stroke:#828282;stroke-linecap:round;stroke-linejoin:round;stroke-miterlimit:10;" d="M28.8,343.6
					l-6.2,6.2c-1.6,1.6-4.1,1.6-5.7,0l-0.8-0.8c-1.6-1.6-1.6-4.1,0-5.7l6.2-6.2c1.6-1.6,4.1-1.6,5.7,0l0.8,0.8"/>
			</g>
		</g>
		
			<line style="fill:none;stroke:#828282;stroke-linecap:round;stroke-linejoin:round;stroke-miterlimit:10;" x1="18" y1="278.5" x2="35" y2="278.5"/>
		<path style="fill:none;stroke:#828282;stroke-linecap:round;stroke-linejoin:round;stroke-miterlimit:10;" d="M35.6,282.3
			c0-2.1-1.4-1.8-3.6-1.8H20.7c-2.2,0-3.6-0.4-3.6,1.7l1.1,13.1c0.5,3.2,2.5,4.2,3.9,4.2h8.5c1.4,0,3.5,0,4-4.3L35.6,282.3z"/>
		<path style="fill:none;stroke:#828282;stroke-linecap:round;stroke-linejoin:round;stroke-miterlimit:10;" d="M28.8,278.1
			c0-1.4-1.1-2.5-2.5-2.5s-2.5,1.1-2.5,2.5"/>
		<rect x="23.3" y="286" style="fill:none;" width="8.5" height="13.3"/>
		<g style="enable-background:new    ;">
			<path style="fill:#828282;" d="M28.4,293.6h-4.5v-0.4l1.9-2c0.5-0.6,0.9-1,1.1-1.3s0.4-0.6,0.5-0.8s0.2-0.5,0.2-0.8
				c0-0.4-0.1-0.8-0.4-1s-0.6-0.4-1.1-0.4c-0.6,0-1.2,0.2-1.7,0.6l-0.3-0.3c0.6-0.5,1.3-0.8,2-0.8c0.6,0,1.1,0.2,1.5,0.5
				s0.5,0.8,0.5,1.4c0,0.5-0.1,0.9-0.4,1.4c-0.2,0.4-0.7,1-1.3,1.6l-1.8,1.9v0h3.8V293.6z"/>
		</g>
		<g>
			<path style="fill:#828282;" d="M65.5,241.7h-0.8V231H61v-0.8h8.2v0.8h-3.7V241.7z"/>
			<path style="fill:#828282;" d="M75.9,241.7l-0.2-1.3h-0.1c-0.4,0.5-0.9,0.9-1.3,1.2s-1,0.3-1.6,0.3c-0.8,0-1.5-0.2-1.9-0.6
				c-0.5-0.4-0.7-1-0.7-1.8s0.3-1.5,1-1.9c0.7-0.5,1.7-0.7,3-0.7h1.6v-0.6c0-0.8-0.2-1.4-0.5-1.8c-0.3-0.4-0.9-0.6-1.6-0.6
				c-0.8,0-1.6,0.2-2.4,0.7l-0.3-0.7c0.9-0.4,1.9-0.7,2.8-0.7s1.6,0.2,2.1,0.7s0.7,1.2,0.7,2.3v5.6L75.9,241.7L75.9,241.7z
				 M72.7,241.1c0.9,0,1.6-0.3,2.1-0.8s0.8-1.2,0.8-2.2v-0.8l-1.5,0.1c-1.2,0.1-2,0.2-2.6,0.6c-0.5,0.3-0.8,0.8-0.8,1.5
				c0,0.5,0.2,0.9,0.5,1.2C71.7,241,72.1,241.1,72.7,241.1z"/>
			<path style="fill:#828282;" d="M84.4,239.4c0,0.8-0.3,1.3-0.9,1.8c-0.6,0.4-1.4,0.6-2.5,0.6s-2-0.2-2.7-0.5v-0.8
				c0.9,0.4,1.8,0.6,2.7,0.6c0.8,0,1.5-0.1,1.9-0.4c0.4-0.3,0.7-0.6,0.7-1.1c0-0.4-0.2-0.8-0.5-1.1s-0.9-0.6-1.7-0.9
				c-0.8-0.3-1.4-0.6-1.8-0.8c-0.3-0.2-0.6-0.5-0.8-0.8c-0.2-0.3-0.3-0.6-0.3-1c0-0.6,0.3-1.1,0.8-1.5s1.3-0.6,2.2-0.6
				c0.9,0,1.8,0.2,2.6,0.5l-0.3,0.7c-0.8-0.3-1.6-0.5-2.3-0.5c-0.7,0-1.2,0.1-1.6,0.3s-0.6,0.5-0.6,1c0,0.4,0.2,0.8,0.5,1.1
				s0.9,0.6,1.8,0.9c0.8,0.3,1.3,0.5,1.7,0.7c0.3,0.2,0.6,0.5,0.8,0.8S84.4,239.1,84.4,239.4z"/>
			<path style="fill:#828282;" d="M87.4,237.9l4.3-4.8h0.9l-3.3,3.6l3.6,4.9H92l-3.2-4.3l-1.4,1.3v3h-0.8v-12.2h0.8v6.1V237.9
				L87.4,237.9z"/>
			<path style="fill:#828282;" d="M103.8,241.7l-4.3-10.5h-0.1c0,0.6,0.1,1.3,0.1,2v8.6h-0.8v-11.4h1.2l4,10l0,0l4-10h1.2v11.4h-0.8
				V233c0-0.6,0-1.2,0.1-1.9h-0.1l-4.3,10.5L103.8,241.7L103.8,241.7z"/>
			<path style="fill:#828282;" d="M117.5,241.7l-0.2-1.3h-0.1c-0.4,0.5-0.9,0.9-1.3,1.2s-1,0.3-1.6,0.3c-0.8,0-1.5-0.2-1.9-0.6
				c-0.5-0.4-0.7-1-0.7-1.8s0.3-1.5,1-1.9c0.7-0.5,1.7-0.7,3-0.7h1.6v-0.6c0-0.8-0.2-1.4-0.5-1.8c-0.3-0.4-0.9-0.6-1.6-0.6
				c-0.8,0-1.6,0.2-2.4,0.7l-0.3-0.7c0.9-0.4,1.9-0.7,2.8-0.7s1.6,0.2,2.1,0.7s0.7,1.2,0.7,2.3v5.6L117.5,241.7L117.5,241.7z
				 M114.4,241.1c0.9,0,1.6-0.3,2.1-0.8s0.8-1.2,0.8-2.2v-0.8l-1.5,0.1c-1.2,0.1-2,0.2-2.6,0.6c-0.5,0.3-0.8,0.8-0.8,1.5
				c0,0.5,0.2,0.9,0.5,1.2C113.3,241,113.8,241.1,114.4,241.1z"/>
			<path style="fill:#828282;" d="M126.7,241.7v-5.5c0-0.9-0.2-1.5-0.5-1.9c-0.4-0.4-0.9-0.6-1.7-0.6c-1,0-1.8,0.3-2.2,0.8
				c-0.5,0.5-0.7,1.3-0.7,2.5v4.7h-0.8v-8.5h0.7l0.1,1.2l0,0c0.6-0.9,1.5-1.3,2.9-1.3c1.9,0,2.9,1,2.9,3.1v5.6h-0.7V241.7z"/>
			<path style="fill:#828282;" d="M135.4,241.7l-0.2-1.3h-0.1c-0.4,0.5-0.9,0.9-1.3,1.2s-1,0.3-1.6,0.3c-0.8,0-1.5-0.2-1.9-0.6
				c-0.5-0.4-0.7-1-0.7-1.8s0.3-1.5,1-1.9c0.7-0.5,1.7-0.7,3-0.7h1.6v-0.6c0-0.8-0.2-1.4-0.5-1.8c-0.3-0.4-0.9-0.6-1.6-0.6
				c-0.8,0-1.6,0.2-2.4,0.7l-0.3-0.7c0.9-0.4,1.9-0.7,2.8-0.7c0.9,0,1.6,0.2,2.1,0.7s0.7,1.2,0.7,2.3v5.6L135.4,241.7L135.4,241.7z
				 M132.3,241.1c0.9,0,1.6-0.3,2.1-0.8s0.8-1.2,0.8-2.2v-0.8l-1.5,0.1c-1.2,0.1-2,0.2-2.6,0.6c-0.5,0.3-0.8,0.8-0.8,1.5
				c0,0.5,0.2,0.9,0.5,1.2C131.2,241,131.7,241.1,132.3,241.1z"/>
			<path style="fill:#828282;" d="M145.4,233.2v0.5l-1.8,0.1c0.5,0.6,0.7,1.2,0.7,1.9c0,0.8-0.3,1.5-0.8,2s-1.3,0.8-2.2,0.8
				c-0.4,0-0.7,0-0.8,0c-0.3,0.2-0.5,0.4-0.7,0.6s-0.2,0.5-0.2,0.7c0,0.3,0.1,0.5,0.3,0.6s0.6,0.2,1,0.2h1.5c0.9,0,1.6,0.2,2.1,0.6
				c0.5,0.4,0.7,0.9,0.7,1.7c0,0.9-0.4,1.6-1.1,2.1c-0.7,0.5-1.8,0.7-3.1,0.7c-1.1,0-1.9-0.2-2.5-0.6c-0.6-0.4-0.9-1-0.9-1.7
				c0-0.6,0.2-1.1,0.5-1.5c0.4-0.4,0.9-0.6,1.5-0.8c-0.3-0.1-0.5-0.3-0.6-0.5c-0.2-0.2-0.2-0.4-0.2-0.7c0-0.6,0.4-1.1,1.1-1.5
				c-0.5-0.2-0.9-0.5-1.2-1c-0.3-0.4-0.4-0.9-0.4-1.5c0-0.8,0.3-1.5,0.8-2s1.3-0.8,2.2-0.8c0.6,0,1,0.1,1.3,0.2h2.8V233.2z
				 M138.5,243.1c0,1.2,0.9,1.8,2.6,1.8c2.2,0,3.3-0.7,3.3-2.1c0-0.5-0.2-0.9-0.5-1.1c-0.3-0.2-0.9-0.3-1.7-0.3h-1.4
				C139.3,241.3,138.5,241.9,138.5,243.1z M139.1,235.8c0,0.7,0.2,1.2,0.6,1.5c0.4,0.4,0.9,0.5,1.6,0.5c0.7,0,1.3-0.2,1.6-0.5
				s0.6-0.9,0.6-1.6c0-0.7-0.2-1.3-0.6-1.6c-0.4-0.4-0.9-0.5-1.6-0.5c-0.7,0-1.2,0.2-1.6,0.6S139.1,235.1,139.1,235.8z"/>
			<path style="fill:#828282;" d="M150.5,241.8c-1.2,0-2.2-0.4-2.9-1.1c-0.7-0.8-1-1.8-1-3.2s0.3-2.4,1-3.3c0.7-0.8,1.6-1.2,2.7-1.2
				c1,0,1.8,0.3,2.4,1c0.6,0.7,0.9,1.6,0.9,2.8v0.6h-6.1c0,1.2,0.3,2.1,0.8,2.7c0.5,0.6,1.3,0.9,2.3,0.9c0.5,0,0.9,0,1.3-0.1
				c0.4-0.1,0.8-0.2,1.4-0.4v0.7c-0.5,0.2-0.9,0.4-1.3,0.4C151.5,241.8,151,241.8,150.5,241.8z M150.3,233.7c-0.8,0-1.5,0.3-2,0.8
				s-0.8,1.3-0.9,2.3h5.3c0-1-0.2-1.8-0.6-2.3S151.1,233.7,150.3,233.7z"/>
			<path style="fill:#828282;" d="M159.2,233c0.4,0,0.7,0,1.2,0.1l-0.1,0.7c-0.4-0.1-0.7-0.1-1.1-0.1c-0.7,0-1.3,0.3-1.8,0.9
				c-0.5,0.6-0.7,1.4-0.7,2.3v4.7h-0.8v-8.5h0.7l0.1,1.5h0.1c0.3-0.6,0.7-1.1,1.1-1.3C158.2,233.1,158.7,233,159.2,233z"/>
		</g>
		<g>
			<path style="fill:#828282;" d="M251.9,170.3c-1.4,0-2.6,0.5-3.4,1.4c-0.8,0.9-1.2,2.2-1.2,3.8s0.4,2.9,1.2,3.8
				c0.8,0.9,1.9,1.4,3.3,1.4c1,0,1.8-0.1,2.6-0.4v0.7c-0.8,0.3-1.7,0.4-2.8,0.4c-1.6,0-2.9-0.5-3.8-1.6c-0.9-1-1.4-2.5-1.4-4.3
				c0-1.2,0.2-2.2,0.7-3.1c0.4-0.9,1.1-1.6,1.9-2.1c0.8-0.5,1.8-0.7,2.9-0.7c1.1,0,2.1,0.2,3,0.6l-0.3,0.7
				C253.7,170.5,252.8,170.3,251.9,170.3z"/>
			<path style="fill:#828282;" d="M260.1,172.5c0.4,0,0.7,0,1.2,0.1l-0.1,0.7c-0.4-0.1-0.7-0.1-1.1-0.1c-0.7,0-1.3,0.3-1.8,0.9
				c-0.5,0.6-0.7,1.4-0.7,2.3v4.7h-0.8v-8.5h0.7l0.1,1.5h0.1c0.3-0.6,0.7-1.1,1.1-1.3C259.1,172.6,259.5,172.5,260.1,172.5z"/>
			<path style="fill:#828282;" d="M266.4,181.3c-1.2,0-2.2-0.4-2.9-1.1c-0.7-0.8-1-1.8-1-3.2s0.3-2.4,1-3.3c0.7-0.8,1.6-1.2,2.7-1.2
				c1,0,1.8,0.3,2.4,1s0.9,1.6,0.9,2.8v0.6h-6.1c0,1.2,0.3,2.1,0.8,2.7c0.5,0.6,1.3,0.9,2.3,0.9c0.5,0,0.9,0,1.3-0.1
				s0.8-0.2,1.4-0.4v0.7c-0.5,0.2-0.9,0.4-1.3,0.4S266.9,181.3,266.4,181.3z M266.2,173.2c-0.8,0-1.5,0.3-2,0.8s-0.8,1.3-0.9,2.3
				h5.3c0-1-0.2-1.8-0.6-2.3C267.5,173.5,266.9,173.2,266.2,173.2z"/>
			<path style="fill:#828282;" d="M276.9,181.2l-0.2-1.3h-0.1c-0.4,0.5-0.9,0.9-1.3,1.2c-0.5,0.2-1,0.3-1.6,0.3
				c-0.8,0-1.5-0.2-1.9-0.6c-0.5-0.4-0.7-1-0.7-1.8s0.3-1.5,1-1.9c0.7-0.5,1.7-0.7,3-0.7h1.6v-0.6c0-0.8-0.2-1.4-0.5-1.8
				c-0.3-0.4-0.9-0.6-1.6-0.6c-0.8,0-1.6,0.2-2.4,0.7l-0.3-0.7c0.9-0.4,1.9-0.7,2.8-0.7s1.6,0.2,2.1,0.7s0.7,1.2,0.7,2.3v5.6
				L276.9,181.2L276.9,181.2z M273.8,180.6c0.9,0,1.6-0.3,2.1-0.8s0.8-1.2,0.8-2.2v-0.8l-1.5,0.1c-1.2,0.1-2,0.2-2.6,0.6
				c-0.5,0.3-0.8,0.8-0.8,1.5c0,0.5,0.2,0.9,0.5,1.2C272.7,180.5,273.2,180.6,273.8,180.6z"/>
			<path style="fill:#828282;" d="M282.5,180.6c0.5,0,0.9,0,1.3-0.1v0.6c-0.4,0.1-0.8,0.2-1.3,0.2c-0.8,0-1.3-0.2-1.7-0.6
				c-0.4-0.4-0.5-1-0.5-1.9v-5.5H279v-0.5l1.3-0.4l0.4-1.9h0.4v2.1h2.5v0.7h-2.5v5.4c0,0.7,0.1,1.1,0.3,1.4
				C281.6,180.5,282,180.6,282.5,180.6z"/>
			<path style="fill:#828282;" d="M289,181.3c-1.2,0-2.2-0.4-2.9-1.1c-0.7-0.8-1-1.8-1-3.2s0.3-2.4,1-3.3c0.7-0.8,1.6-1.2,2.7-1.2
				c1,0,1.8,0.3,2.4,1s0.9,1.6,0.9,2.8v0.6H286c0,1.2,0.3,2.1,0.8,2.7c0.5,0.6,1.3,0.9,2.3,0.9c0.5,0,0.9,0,1.3-0.1s0.8-0.2,1.4-0.4
				v0.7c-0.5,0.2-0.9,0.4-1.3,0.4S289.5,181.3,289,181.3z M288.8,173.2c-0.8,0-1.5,0.3-2,0.8s-0.8,1.3-0.9,2.3h5.3
				c0-1-0.2-1.8-0.6-2.3C290.2,173.5,289.6,173.2,288.8,173.2z"/>
			<path style="fill:#828282;" d="M305.6,173c0,1.1-0.4,2-1.1,2.5c-0.8,0.6-1.8,0.9-3.2,0.9h-1.8v4.7h-0.8v-11.4h2.8
				C304.3,169.7,305.6,170.8,305.6,173z M299.5,175.8h1.6c1.3,0,2.2-0.2,2.8-0.6c0.6-0.4,0.9-1.1,0.9-2.1c0-0.9-0.3-1.5-0.8-2
				c-0.5-0.4-1.4-0.6-2.5-0.6h-1.9v5.3H299.5z"/>
			<path style="fill:#828282;" d="M311.2,172.5c0.4,0,0.7,0,1.2,0.1l-0.1,0.7c-0.4-0.1-0.7-0.1-1.1-0.1c-0.7,0-1.3,0.3-1.8,0.9
				c-0.5,0.6-0.7,1.4-0.7,2.3v4.7h-0.8v-8.5h0.7l0.1,1.5h0.1c0.3-0.6,0.7-1.1,1.1-1.3C310.2,172.6,310.7,172.5,311.2,172.5z"/>
			<path style="fill:#828282;" d="M321.1,176.9c0,1.4-0.3,2.5-1,3.2c-0.7,0.8-1.6,1.2-2.8,1.2c-0.7,0-1.4-0.2-2-0.5
				c-0.6-0.4-1-0.9-1.3-1.5c-0.3-0.7-0.5-1.4-0.5-2.3c0-1.4,0.3-2.5,1-3.2s1.6-1.2,2.8-1.2c1.2,0,2.1,0.4,2.7,1.2
				C320.8,174.5,321.1,175.5,321.1,176.9z M314.4,176.9c0,1.2,0.3,2.1,0.8,2.7c0.5,0.7,1.2,1,2.2,1s1.7-0.3,2.2-1s0.8-1.6,0.8-2.7
				c0-1.2-0.3-2.1-0.8-2.7c-0.5-0.6-1.2-1-2.2-1s-1.7,0.3-2.2,1C314.7,174.8,314.4,175.7,314.4,176.9z"/>
			<path style="fill:#828282;" d="M322.4,185c-0.4,0-0.8-0.1-1.1-0.2v-0.7c0.4,0.1,0.7,0.2,1,0.2c0.8,0,1.2-0.5,1.2-1.4v-10.3h0.8
				v10.1c0,0.7-0.2,1.2-0.5,1.6C323.4,184.8,323,185,322.4,185z M323.4,170.3c0-0.5,0.2-0.8,0.5-0.8c0.2,0,0.3,0.1,0.4,0.2
				c0.1,0.1,0.1,0.3,0.1,0.6c0,0.2,0,0.4-0.1,0.6c-0.1,0.1-0.2,0.2-0.4,0.2C323.6,171.1,323.4,170.8,323.4,170.3z"/>
			<path style="fill:#828282;" d="M330.5,181.3c-1.2,0-2.2-0.4-2.9-1.1c-0.7-0.8-1-1.8-1-3.2s0.3-2.4,1-3.3c0.7-0.8,1.6-1.2,2.7-1.2
				c1,0,1.8,0.3,2.4,1s0.9,1.6,0.9,2.8v0.6h-6.1c0,1.2,0.3,2.1,0.8,2.7c0.5,0.6,1.3,0.9,2.3,0.9c0.5,0,0.9,0,1.3-0.1
				s0.8-0.2,1.4-0.4v0.7c-0.5,0.2-0.9,0.4-1.3,0.4S331,181.3,330.5,181.3z M330.3,173.2c-0.8,0-1.5,0.3-2,0.8s-0.8,1.3-0.9,2.3h5.3
				c0-1-0.2-1.8-0.6-2.3C331.7,173.5,331.1,173.2,330.3,173.2z"/>
			<path style="fill:#828282;" d="M339.3,181.3c-1.2,0-2.2-0.4-2.9-1.1s-1-1.8-1-3.2s0.4-2.5,1.1-3.3s1.7-1.2,2.9-1.2
				c0.7,0,1.4,0.1,2.1,0.4l-0.2,0.7c-0.7-0.2-1.4-0.4-1.9-0.4c-1,0-1.8,0.3-2.4,1c-0.5,0.6-0.8,1.6-0.8,2.8c0,1.1,0.3,2,0.8,2.7
				c0.5,0.6,1.3,1,2.3,1c0.8,0,1.5-0.1,2.1-0.4v0.7C340.9,181.2,340.2,181.3,339.3,181.3z"/>
			<path style="fill:#828282;" d="M345.7,180.6c0.5,0,0.9,0,1.3-0.1v0.6c-0.4,0.1-0.8,0.2-1.3,0.2c-0.8,0-1.3-0.2-1.7-0.6
				c-0.4-0.4-0.5-1-0.5-1.9v-5.5h-1.3v-0.5l1.3-0.4l0.4-1.9h0.4v2.1h2.5v0.7h-2.5v5.4c0,0.7,0.1,1.1,0.3,1.4
				C344.9,180.5,345.3,180.6,345.7,180.6z"/>
		</g>
		<g>
			<path style="fill:#828282;" d="M395.6,175.4c0,1.8-0.5,3.2-1.4,4.3s-2.2,1.6-3.8,1.6c-1.6,0-2.8-0.5-3.7-1.6s-1.4-2.5-1.4-4.3
				s0.5-3.2,1.4-4.3c0.9-1,2.2-1.6,3.7-1.6c1.6,0,2.8,0.5,3.7,1.6C395.2,172.2,395.6,173.6,395.6,175.4z M386.3,175.4
				c0,1.6,0.4,2.9,1.1,3.8c0.7,0.9,1.8,1.3,3.1,1.3c1.4,0,2.4-0.4,3.2-1.3c0.7-0.9,1.1-2.2,1.1-3.8s-0.4-2.9-1.1-3.8
				c-0.7-0.9-1.8-1.3-3.1-1.3c-1.4,0-2.4,0.4-3.1,1.3C386.6,172.5,386.3,173.8,386.3,175.4z"/>
			<path style="fill:#828282;" d="M401.7,181.3c-1.3,0-2.3-0.5-2.9-1.5h-0.1v0.7c0,0.4,0,0.8,0,1.3v3.2H398v-12.3h0.7l0.1,1.2l0,0
				c0.6-0.9,1.5-1.4,2.8-1.4c1.1,0,2,0.4,2.6,1.1c0.6,0.8,0.9,1.8,0.9,3.3c0,1.4-0.3,2.5-0.9,3.2
				C403.6,180.9,402.8,181.3,401.7,181.3z M401.7,180.6c0.9,0,1.5-0.3,2-1c0.5-0.6,0.7-1.5,0.7-2.7c0-2.5-0.9-3.7-2.7-3.7
				c-1,0-1.7,0.3-2.2,0.8s-0.7,1.4-0.7,2.7v0.3c0,1.3,0.2,2.3,0.7,2.8C399.9,180.3,400.7,180.6,401.7,180.6z"/>
			<path style="fill:#828282;" d="M411,181.3c-1.2,0-2.2-0.4-2.9-1.1c-0.7-0.8-1-1.8-1-3.2s0.3-2.4,1-3.3c0.7-0.8,1.6-1.2,2.7-1.2
				c1,0,1.8,0.3,2.4,1s0.9,1.6,0.9,2.8v0.6H408c0,1.2,0.3,2.1,0.8,2.7c0.5,0.6,1.3,0.9,2.3,0.9c0.5,0,0.9,0,1.3-0.1s0.8-0.2,1.4-0.4
				v0.7c-0.5,0.2-0.9,0.4-1.3,0.4S411.5,181.3,411,181.3z M410.8,173.2c-0.8,0-1.5,0.3-2,0.8s-0.8,1.3-0.9,2.3h5.3
				c0-1-0.2-1.8-0.6-2.3S411.5,173.2,410.8,173.2z"/>
			<path style="fill:#828282;" d="M422.3,181.2v-5.5c0-0.9-0.2-1.5-0.5-1.9c-0.4-0.4-0.9-0.6-1.7-0.6c-1,0-1.8,0.3-2.2,0.8
				c-0.5,0.5-0.7,1.3-0.7,2.5v4.7h-0.8v-8.5h0.7l0.1,1.2l0,0c0.6-0.9,1.5-1.3,2.9-1.3c1.9,0,2.9,1,2.9,3.1v5.6h-0.7V181.2z"/>
			<path style="fill:#828282;" d="M437,173c0,1.1-0.4,2-1.1,2.5c-0.8,0.6-1.8,0.9-3.2,0.9h-1.8v4.7h-0.8v-11.4h2.8
				C435.7,169.7,437,170.8,437,173z M430.9,175.8h1.6c1.3,0,2.2-0.2,2.8-0.6c0.6-0.4,0.9-1.1,0.9-2.1c0-0.9-0.3-1.5-0.8-2
				c-0.5-0.4-1.4-0.6-2.5-0.6H431v5.3H430.9z"/>
			<path style="fill:#828282;" d="M442.6,172.5c0.4,0,0.7,0,1.2,0.1l-0.1,0.7c-0.4-0.1-0.7-0.1-1.1-0.1c-0.7,0-1.3,0.3-1.8,0.9
				c-0.5,0.6-0.7,1.4-0.7,2.3v4.7h-0.8v-8.5h0.7l0.1,1.5h0.1c0.3-0.6,0.7-1.1,1.1-1.3C441.6,172.6,442.1,172.5,442.6,172.5z"/>
			<path style="fill:#828282;" d="M452.6,176.9c0,1.4-0.3,2.5-1,3.2c-0.7,0.8-1.6,1.2-2.8,1.2c-0.7,0-1.4-0.2-2-0.5s-1-0.9-1.3-1.5
				s-0.5-1.4-0.5-2.3c0-1.4,0.3-2.5,1-3.2s1.6-1.2,2.8-1.2c1.2,0,2.1,0.4,2.7,1.2C452.2,174.5,452.6,175.5,452.6,176.9z
				 M445.9,176.9c0,1.2,0.3,2.1,0.8,2.7c0.5,0.7,1.2,1,2.2,1s1.7-0.3,2.2-1s0.8-1.6,0.8-2.7c0-1.2-0.3-2.1-0.8-2.7
				c-0.5-0.6-1.2-1-2.2-1s-1.7,0.3-2.2,1C446.1,174.8,445.9,175.7,445.9,176.9z"/>
			<path style="fill:#828282;" d="M453.8,185c-0.4,0-0.8-0.1-1.1-0.2v-0.7c0.4,0.1,0.7,0.2,1,0.2c0.8,0,1.2-0.5,1.2-1.4v-10.3h0.8
				v10.1c0,0.7-0.2,1.2-0.5,1.6C454.9,184.8,454.4,185,453.8,185z M454.8,170.3c0-0.5,0.2-0.8,0.5-0.8c0.2,0,0.3,0.1,0.4,0.2
				c0.1,0.1,0.1,0.3,0.1,0.6c0,0.2,0,0.4-0.1,0.6c-0.1,0.1-0.2,0.2-0.4,0.2C455,171.1,454.8,170.8,454.8,170.3z"/>
			<path style="fill:#828282;" d="M462,181.3c-1.2,0-2.2-0.4-2.9-1.1c-0.7-0.8-1-1.8-1-3.2s0.3-2.4,1-3.3c0.7-0.8,1.6-1.2,2.7-1.2
				c1,0,1.8,0.3,2.4,1s0.9,1.6,0.9,2.8v0.6H459c0,1.2,0.3,2.1,0.8,2.7c0.5,0.6,1.3,0.9,2.3,0.9c0.5,0,0.9,0,1.3-0.1s0.8-0.2,1.4-0.4
				v0.7c-0.5,0.2-0.9,0.4-1.3,0.4S462.4,181.3,462,181.3z M461.7,173.2c-0.8,0-1.5,0.3-2,0.8s-0.8,1.3-0.9,2.3h5.3
				c0-1-0.2-1.8-0.6-2.3S462.5,173.2,461.7,173.2z"/>
			<path style="fill:#828282;" d="M470.7,181.3c-1.2,0-2.2-0.4-2.9-1.1s-1-1.8-1-3.2s0.4-2.5,1.1-3.3s1.7-1.2,2.9-1.2
				c0.7,0,1.4,0.1,2.1,0.4l-0.2,0.7c-0.7-0.2-1.4-0.4-1.9-0.4c-1,0-1.8,0.3-2.4,1c-0.5,0.6-0.8,1.6-0.8,2.8c0,1.1,0.3,2,0.8,2.7
				s1.3,1,2.3,1c0.8,0,1.5-0.1,2.1-0.4v0.7C472.3,181.2,471.6,181.3,470.7,181.3z"/>
			<path style="fill:#828282;" d="M477.1,180.6c0.5,0,0.9,0,1.3-0.1v0.6c-0.4,0.1-0.8,0.2-1.3,0.2c-0.8,0-1.3-0.2-1.7-0.6
				c-0.4-0.4-0.5-1-0.5-1.9v-5.5h-1.3v-0.5l1.3-0.4l0.4-1.9h0.4v2.1h2.5v0.7h-2.5v5.4c0,0.7,0.1,1.1,0.3,1.4
				S476.7,180.6,477.1,180.6z"/>
		</g>
		<g>
			<path style="fill:#828282;" d="M62.5,280.2h3.1c1.4,0,2.4,0.2,3.1,0.7s1,1.2,1,2.2c0,0.7-0.2,1.2-0.6,1.7c-0.4,0.4-1,0.7-1.8,0.8
				l0,0c0.9,0.1,1.6,0.4,2,0.9c0.4,0.4,0.6,1.1,0.6,1.8c0,1.1-0.3,1.9-1,2.4c-0.7,0.6-1.7,0.9-3,0.9h-3.5v-11.4H62.5z M63.3,285.3
				h2.5c1.1,0,1.9-0.2,2.3-0.5c0.5-0.4,0.7-0.9,0.7-1.7c0-0.8-0.3-1.3-0.8-1.7s-1.4-0.5-2.5-0.5h-2.3L63.3,285.3L63.3,285.3z
				 M63.3,286v4.9H66c2.1,0,3.2-0.9,3.2-2.6c0-1.6-1.1-2.4-3.3-2.4h-2.6V286z"/>
			<path style="fill:#828282;" d="M72.2,280.8c0-0.5,0.2-0.8,0.5-0.8c0.2,0,0.3,0.1,0.4,0.2s0.1,0.3,0.1,0.6c0,0.2,0,0.4-0.1,0.6
				c-0.1,0.1-0.2,0.2-0.4,0.2C72.4,281.6,72.2,281.3,72.2,280.8z M73.1,291.7h-0.8v-8.5h0.8V291.7z"/>
			<path style="fill:#828282;" d="M81.9,291.7v-5.5c0-0.9-0.2-1.5-0.5-1.9c-0.4-0.4-0.9-0.6-1.7-0.6c-1,0-1.8,0.3-2.2,0.8
				c-0.5,0.5-0.7,1.3-0.7,2.5v4.7H76v-8.5h0.7l0.1,1.2l0,0c0.6-0.9,1.5-1.3,2.9-1.3c1.9,0,2.9,1,2.9,3.1v5.6h-0.7V291.7z"/>
		</g>
		<g>
			<path style="fill:#828282;" d="M62.5,340.7v-11.4h0.8V340h5.4v0.8h-6.2V340.7z"/>
			<path style="fill:#828282;" d="M70.4,329.8c0-0.5,0.2-0.8,0.5-0.8c0.2,0,0.3,0.1,0.4,0.2s0.1,0.3,0.1,0.6c0,0.2,0,0.4-0.1,0.6
				c-0.1,0.1-0.2,0.2-0.4,0.2C70.6,330.6,70.4,330.3,70.4,329.8z M71.3,340.7h-0.8v-8.5h0.8V340.7z"/>
			<path style="fill:#828282;" d="M80.1,340.7v-5.5c0-0.9-0.2-1.5-0.5-1.9c-0.4-0.4-0.9-0.6-1.7-0.6c-1,0-1.8,0.3-2.2,0.8
				c-0.5,0.5-0.7,1.3-0.7,2.5v4.7h-0.8v-8.5h0.7l0.1,1.2l0,0c0.6-0.9,1.5-1.3,2.9-1.3c1.9,0,2.9,1,2.9,3.1v5.6h-0.7V340.7z"/>
			<path style="fill:#828282;" d="M84.3,336.9l4.3-4.8h0.9l-3.3,3.6l3.6,4.9H89l-3.2-4.3l-1.4,1.3v3h-0.8v-12.2h0.8v6.1L84.3,336.9
				L84.3,336.9z"/>
		</g>
		<g>
			<path style="fill:#828282;" d="M63.3,434.2v5h-0.8v-11.4h2.7c1.4,0,2.5,0.3,3.1,0.8s1,1.3,1,2.4c0,0.8-0.2,1.4-0.6,1.9
				s-1,0.9-1.8,1.1l3.1,5.2h-1l-2.9-5H63.3z M63.3,433.5h2.2c1,0,1.7-0.2,2.2-0.6s0.8-1.1,0.8-1.9c0-0.9-0.3-1.5-0.8-1.9
				s-1.4-0.6-2.5-0.6h-1.9C63.3,428.5,63.3,433.5,63.3,433.5z"/>
			<path style="fill:#828282;" d="M75.3,439.3c-1.2,0-2.2-0.4-2.9-1.1c-0.7-0.8-1-1.8-1-3.2c0-1.4,0.3-2.4,1-3.3
				c0.7-0.8,1.6-1.2,2.7-1.2c1,0,1.8,0.3,2.4,1s0.9,1.6,0.9,2.8v0.6h-6.1c0,1.2,0.3,2.1,0.8,2.7s1.3,0.9,2.3,0.9
				c0.5,0,0.9,0,1.3-0.1s0.8-0.2,1.4-0.4v0.7c-0.5,0.2-0.9,0.4-1.3,0.4C76.2,439.3,75.7,439.3,75.3,439.3z M75,431.2
				c-0.8,0-1.5,0.3-2,0.8s-0.8,1.3-0.9,2.3h5.3c0-1-0.2-1.8-0.6-2.3S75.8,431.2,75,431.2z"/>
			<path style="fill:#828282;" d="M86.5,439.2v-5.5c0-0.9-0.2-1.5-0.5-1.9c-0.4-0.4-0.9-0.6-1.7-0.6c-1,0-1.8,0.3-2.2,0.8
				c-0.5,0.5-0.7,1.3-0.7,2.5v4.7h-0.8v-8.5h0.7l0.1,1.2l0,0c0.6-0.9,1.5-1.3,2.9-1.3c1.9,0,2.9,1,2.9,3.1v5.6h-0.7V439.2z"/>
			<path style="fill:#828282;" d="M95.2,439.2l-0.2-1.3h-0.1c-0.4,0.5-0.9,0.9-1.3,1.2s-1,0.3-1.6,0.3c-0.8,0-1.5-0.2-1.9-0.6
				c-0.5-0.4-0.7-1-0.7-1.8s0.3-1.5,1-1.9c0.7-0.5,1.7-0.7,3-0.7H95v-0.6c0-0.8-0.2-1.4-0.5-1.8s-0.9-0.6-1.6-0.6
				c-0.8,0-1.6,0.2-2.4,0.7l-0.3-0.7c0.9-0.4,1.9-0.7,2.8-0.7s1.6,0.2,2.1,0.7s0.7,1.2,0.7,2.3v5.6h-0.6V439.2z M92.1,438.6
				c0.9,0,1.6-0.3,2.1-0.8s0.8-1.2,0.8-2.2v-0.8l-1.5,0.1c-1.2,0.1-2,0.2-2.6,0.6c-0.5,0.3-0.8,0.8-0.8,1.5c0,0.5,0.2,0.9,0.5,1.2
				C91,438.5,91.5,438.6,92.1,438.6z"/>
			<path style="fill:#828282;" d="M109.1,439.2v-5.6c0-0.8-0.2-1.4-0.5-1.8s-0.8-0.6-1.5-0.6c-0.9,0-1.5,0.2-1.9,0.7
				s-0.6,1.2-0.6,2.3v5h-0.8v-5.8c0-1.4-0.7-2.1-2-2.1c-0.9,0-1.5,0.3-1.9,0.8s-0.6,1.3-0.6,2.5v4.7h-0.8v-8.5h0.6l0.2,1.2l0,0
				c0.2-0.4,0.6-0.7,1-1c0.4-0.2,0.9-0.3,1.4-0.3c1.3,0,2.2,0.5,2.6,1.5l0,0c0.3-0.5,0.6-0.9,1.1-1.1c0.5-0.3,1-0.4,1.6-0.4
				c0.9,0,1.6,0.2,2.1,0.7s0.7,1.3,0.7,2.4v5.6h-0.7V439.2z"/>
			<path style="fill:#828282;" d="M116.1,439.3c-1.2,0-2.2-0.4-2.9-1.1c-0.7-0.8-1-1.8-1-3.2c0-1.4,0.3-2.4,1-3.3
				c0.7-0.8,1.6-1.2,2.7-1.2c1,0,1.8,0.3,2.4,1s0.9,1.6,0.9,2.8v0.6H113c0,1.2,0.3,2.1,0.8,2.7s1.3,0.9,2.3,0.9c0.5,0,0.9,0,1.3-0.1
				s0.8-0.2,1.4-0.4v0.7c-0.5,0.2-0.9,0.4-1.3,0.4C117,439.3,116.6,439.3,116.1,439.3z M115.9,431.2c-0.8,0-1.5,0.3-2,0.8
				s-0.8,1.3-0.9,2.3h5.3c0-1-0.2-1.8-0.6-2.3S116.6,431.2,115.9,431.2z"/>
		</g>
		<g>
			<path style="fill:#828282;" d="M71.2,482.8c0,1.9-0.5,3.4-1.5,4.3c-1,1-2.5,1.5-4.4,1.5h-2.7v-11.4h3.1c1.8,0,3.2,0.5,4.2,1.4
				S71.2,481,71.2,482.8z M70.3,482.9c0-1.6-0.4-2.9-1.2-3.7c-0.8-0.8-2.1-1.2-3.7-1.2h-2.1v10h1.9C68.6,488,70.3,486.3,70.3,482.9z
				"/>
			<path style="fill:#828282;" d="M77,488.8c-1.2,0-2.2-0.4-2.9-1.1c-0.7-0.8-1-1.8-1-3.2c0-1.4,0.3-2.4,1-3.3
				c0.7-0.8,1.6-1.2,2.7-1.2c1,0,1.8,0.3,2.4,1s0.9,1.6,0.9,2.8v0.6H74c0,1.2,0.3,2.1,0.8,2.7s1.3,0.9,2.3,0.9c0.5,0,0.9,0,1.3-0.1
				s0.8-0.2,1.4-0.4v0.7c-0.5,0.2-0.9,0.4-1.3,0.4C78,488.8,77.5,488.8,77,488.8z M76.8,480.7c-0.8,0-1.5,0.3-2,0.8
				s-0.8,1.3-0.9,2.3h5.3c0-1-0.2-1.8-0.6-2.3S77.6,480.7,76.8,480.7z"/>
			<path style="fill:#828282;" d="M83.2,488.7h-0.8v-12.2h0.8V488.7z"/>
			<path style="fill:#828282;" d="M89.4,488.8c-1.2,0-2.2-0.4-2.9-1.1c-0.7-0.8-1-1.8-1-3.2c0-1.4,0.3-2.4,1-3.3
				c0.7-0.8,1.6-1.2,2.7-1.2c1,0,1.8,0.3,2.4,1s0.9,1.6,0.9,2.8v0.6h-6.1c0,1.2,0.3,2.1,0.8,2.7s1.3,0.9,2.3,0.9
				c0.5,0,0.9,0,1.3-0.1s0.8-0.2,1.4-0.4v0.7c-0.5,0.2-0.9,0.4-1.3,0.4C90.4,488.8,89.9,488.8,89.4,488.8z M89.2,480.7
				c-0.8,0-1.5,0.3-2,0.8s-0.8,1.3-0.9,2.3h5.3c0-1-0.2-1.8-0.6-2.3S90,480.7,89.2,480.7z"/>
			<path style="fill:#828282;" d="M97,488.1c0.5,0,0.9,0,1.3-0.1v0.6c-0.4,0.1-0.8,0.2-1.3,0.2c-0.8,0-1.3-0.2-1.7-0.6
				c-0.4-0.4-0.5-1-0.5-1.9v-5.5h-1.3v-0.5l1.3-0.4l0.4-1.9h0.4v2.1h2.5v0.7h-2.5v5.4c0,0.7,0.1,1.1,0.3,1.4S96.6,488.1,97,488.1z"
				/>
			<path style="fill:#828282;" d="M103.6,488.8c-1.2,0-2.2-0.4-2.9-1.1c-0.7-0.8-1-1.8-1-3.2c0-1.4,0.3-2.4,1-3.3
				c0.7-0.8,1.6-1.2,2.7-1.2c1,0,1.8,0.3,2.4,1s0.9,1.6,0.9,2.8v0.6h-6.1c0,1.2,0.3,2.1,0.8,2.7s1.3,0.9,2.3,0.9
				c0.5,0,0.9,0,1.3-0.1s0.8-0.2,1.4-0.4v0.7c-0.5,0.2-0.9,0.4-1.3,0.4C104.5,488.8,104.1,488.8,103.6,488.8z M103.4,480.7
				c-0.8,0-1.5,0.3-2,0.8s-0.8,1.3-0.9,2.3h5.3c0-1-0.2-1.8-0.6-2.3S104.1,480.7,103.4,480.7z"/>
		</g>
		<g>
			<g>
				<path style="fill:#FFFFFF;" d="M33.9,169.2c1.2,0,2.2,0.2,3,0.6c0.8,0.4,1.6,1.2,2.3,2.2h0.1c-0.1-1.2-0.1-2.5-0.1-3.7v-5.8h1.5
					v23.1h-1l-0.4-2.5h-0.1c-1.2,1.8-3,2.8-5.3,2.8c-2.2,0-3.9-0.7-5.1-2.1s-1.8-3.4-1.8-6c0-2.8,0.6-4.9,1.8-6.4
					C30,169.9,31.7,169.2,33.9,169.2z M33.9,170.5c-1.8,0-3.1,0.6-4,1.9c-0.9,1.2-1.3,3-1.3,5.4c0,4.6,1.8,6.9,5.3,6.9
					c1.8,0,3.2-0.5,4-1.6c0.9-1.1,1.3-2.8,1.3-5.2v-0.3c0-2.5-0.4-4.3-1.3-5.4C37.2,171.1,35.8,170.5,33.9,170.5z"/>
				<path style="fill:#FFFFFF;" d="M53.4,185.9c-2.3,0-4.2-0.7-5.5-2.2c-1.3-1.4-2-3.5-2-6.1s0.6-4.6,1.9-6.2c1.3-1.5,3-2.3,5.1-2.3
					c1.9,0,3.4,0.7,4.5,2s1.6,3.1,1.6,5.4v1.2H47.5c0,2.2,0.5,3.9,1.5,5.1c1,1.2,2.5,1.8,4.4,1.8c0.9,0,1.7-0.1,2.4-0.2
					c0.7-0.1,1.6-0.4,2.6-0.8v1.3c-0.9,0.4-1.8,0.7-2.5,0.8C55.2,185.9,54.3,185.9,53.4,185.9z M52.9,170.5c-1.6,0-2.8,0.5-3.7,1.5
					s-1.5,2.5-1.6,4.4h10c0-1.9-0.4-3.3-1.2-4.4C55.5,171,54.4,170.5,52.9,170.5z"/>
				<path style="fill:#FFFFFF;" d="M74.3,181.4c0,1.4-0.5,2.6-1.6,3.3c-1.1,0.8-2.7,1.2-4.7,1.2c-2.2,0-3.9-0.3-5.1-1v-1.6
					c1.6,0.8,3.3,1.2,5.1,1.2c1.6,0,2.8-0.3,3.6-0.8c0.8-0.5,1.2-1.2,1.2-2.1c0-0.8-0.3-1.5-1-2c-0.7-0.6-1.7-1.1-3.2-1.6
					c-1.6-0.6-2.7-1.1-3.4-1.5c-0.7-0.4-1.1-0.9-1.5-1.4c-0.3-0.5-0.5-1.2-0.5-1.9c0-1.2,0.5-2.2,1.5-2.9s2.4-1.1,4.2-1.1
					c1.7,0,3.4,0.3,5,1l-0.5,1.3c-1.6-0.7-3-1-4.4-1c-1.3,0-2.4,0.2-3.1,0.7c-0.8,0.4-1.2,1-1.2,1.8s0.3,1.5,0.9,2s1.8,1.1,3.5,1.7
					c1.5,0.5,2.5,1,3.2,1.4s1.2,0.9,1.5,1.4C74.1,180.1,74.3,180.7,74.3,181.4z"/>
				<path style="fill:#FFFFFF;" d="M79,165c0-0.9,0.3-1.4,0.9-1.4c0.3,0,0.5,0.1,0.7,0.4s0.3,0.6,0.3,1.1c0,0.4-0.1,0.8-0.3,1.1
					s-0.4,0.4-0.7,0.4C79.3,166.5,79,166,79,165z M80.7,185.6h-1.5v-16.1h1.5V185.6z"/>
				<path style="fill:#FFFFFF;" d="M99.4,169.5v1l-3.3,0.2c0.9,1.1,1.3,2.3,1.3,3.6c0,1.6-0.5,2.8-1.5,3.8s-2.4,1.4-4.2,1.4
					c-0.7,0-1.2,0-1.5-0.1c-0.6,0.3-1,0.7-1.3,1.1c-0.3,0.4-0.5,0.9-0.5,1.3c0,0.5,0.2,0.9,0.6,1.1s1,0.4,2,0.4h2.8
					c1.8,0,3.1,0.4,4,1.1c0.9,0.7,1.4,1.8,1.4,3.1c0,1.7-0.7,3-2.1,3.9s-3.3,1.4-5.9,1.4c-2,0-3.6-0.4-4.7-1.2s-1.7-1.9-1.7-3.3
					c0-1.1,0.3-2,1-2.8c0.7-0.7,1.6-1.2,2.8-1.5c-0.5-0.2-0.9-0.5-1.2-0.9c-0.3-0.4-0.4-0.8-0.4-1.3c0-1.1,0.7-2,2.1-2.8
					c-0.9-0.4-1.7-1-2.2-1.8s-0.8-1.8-0.8-2.8c0-1.6,0.5-2.9,1.5-3.9s2.4-1.5,4.1-1.5c1.1,0,1.9,0.1,2.5,0.3h5.2V169.5z M86.3,188.4
					c0,2.2,1.6,3.3,4.9,3.3c4.2,0,6.3-1.3,6.3-4c0-1-0.3-1.7-1-2.1c-0.7-0.4-1.7-0.7-3.2-0.7h-2.6C87.8,184.9,86.3,186,86.3,188.4z
					 M87.6,174.5c0,1.2,0.4,2.2,1.1,2.9c0.8,0.7,1.8,1,3,1c1.3,0,2.4-0.3,3.1-1s1.1-1.7,1.1-3c0-1.4-0.4-2.4-1.1-3.1
					c-0.7-0.7-1.8-1-3.1-1c-1.3,0-2.3,0.4-3,1.1C87.9,172.2,87.6,173.2,87.6,174.5z"/>
				<path style="fill:#FFFFFF;" d="M114.7,185.6v-10.5c0-1.6-0.3-2.8-1-3.5s-1.7-1.1-3.2-1.1c-1.9,0-3.3,0.5-4.2,1.5
					c-0.9,1-1.3,2.6-1.3,4.7v8.9h-1.5v-16.1h1.2l0.3,2.2h0.1c1-1.7,2.9-2.5,5.6-2.5c3.7,0,5.5,2,5.5,5.9v10.5L114.7,185.6
					L114.7,185.6z"/>
				<path style="fill:#FFFFFF;" d="M150.9,185.6V175c0-1.6-0.3-2.7-0.9-3.4s-1.6-1.1-2.8-1.1c-1.7,0-2.9,0.5-3.7,1.4
					s-1.2,2.3-1.2,4.3v9.4h-1.5v-11c0-2.7-1.2-4.1-3.7-4.1c-1.7,0-2.9,0.5-3.7,1.5s-1.2,2.6-1.2,4.7v8.9h-1.5v-16.1h1.2l0.3,2.2h0.1
					c0.4-0.8,1.1-1.4,1.9-1.9c0.8-0.4,1.7-0.7,2.7-0.7c2.5,0,4.2,1,4.9,2.9h0.1c0.5-0.9,1.2-1.6,2.1-2.1s1.9-0.7,3-0.7
					c1.8,0,3.1,0.5,4,1.4s1.3,2.4,1.3,4.5v10.5L150.9,185.6L150.9,185.6z"/>
				<path style="fill:#FFFFFF;" d="M168.1,185.6l-0.4-2.6h-0.1c-0.8,1-1.6,1.8-2.5,2.2s-1.9,0.6-3,0.6c-1.6,0-2.8-0.4-3.7-1.2
					s-1.3-1.9-1.3-3.4c0-1.6,0.7-2.8,2-3.7s3.2-1.3,5.7-1.4l3.1-0.1v-1.1c0-1.5-0.3-2.7-0.9-3.5c-0.6-0.8-1.6-1.2-3-1.2
					c-1.5,0-3,0.4-4.6,1.2l-0.5-1.3c1.8-0.8,3.5-1.2,5.2-1.2c1.8,0,3.1,0.5,4,1.4s1.3,2.4,1.3,4.3v10.7h-1.3V185.6z M162.2,184.6
					c1.7,0,3.1-0.5,4.1-1.5s1.5-2.3,1.5-4.1v-1.6l-2.8,0.1c-2.3,0.1-3.9,0.5-4.8,1.1c-1,0.6-1.4,1.5-1.4,2.8c0,1,0.3,1.8,0.9,2.4
					C160.2,184.3,161.1,184.6,162.2,184.6z"/>
				<path style="fill:#FFFFFF;" d="M182.1,185.9c-2.5,0-4.3-0.9-5.4-2.8h-0.1v1.2c0,0.7,0.1,1.5,0.1,2.4v6.1h-1.5v-23.4h1.2l0.3,2.3
					h0.1c1.1-1.7,2.9-2.6,5.3-2.6c2.2,0,3.8,0.7,5,2.1s1.7,3.5,1.7,6.2c0,2.6-0.6,4.7-1.8,6.2S184.2,185.9,182.1,185.9z
					 M182.1,184.6c1.7,0,2.9-0.6,3.8-1.8s1.4-2.9,1.4-5.1c0-4.7-1.7-7.1-5.1-7.1c-1.9,0-3.3,0.5-4.1,1.5s-1.3,2.7-1.3,5v0.5
					c0,2.5,0.4,4.3,1.3,5.4C178.8,184.1,180.2,184.6,182.1,184.6z"/>
			</g>
			<g>
				<circle style="fill:#FFFFFF;" cx="123.8" cy="182" r="2"/>
			</g>
			<g>
				<circle style="fill:#FFFFFF;" cx="123.8" cy="174.5" r="2"/>
			</g>
			<g>
				<circle style="fill:#FFFFFF;" cx="18" cy="182" r="2"/>
			</g>
			<g>
				<circle style="fill:#FFFFFF;" cx="18" cy="174.5" r="2"/>
			</g>
		</g>
		<g>
			
				<line style="fill:none;stroke:#828282;stroke-linecap:round;stroke-linejoin:round;stroke-miterlimit:10;" x1="32.4" y1="489.1" x2="16.9" y2="473.6"/>
			
				<line style="fill:none;stroke:#828282;stroke-linecap:round;stroke-linejoin:round;stroke-miterlimit:10;" x1="32.4" y1="472.9" x2="16.9" y2="488.4"/>
		</g>
		<g>
			<g>
				<path style="fill:none;stroke:#828282;stroke-linecap:round;stroke-linejoin:round;stroke-miterlimit:10;" d="M36,424.6
					c-1.2-1.2-3.1-1.2-4.2,0l-10.1,10.1c-1.2,1.2-2.7,3.3-3.5,4.8l-2.3,4.4c-0.8,1.5-0.2,2,1.3,1.3l4.4-2.3c1.5-0.8,3.6-2.3,4.8-3.5
					l10.1-10.1c1.2-1.2,1.2-3.1,0-4.2L36,424.6z"/>
			</g>
			
				<line style="fill:none;stroke:#828282;stroke-linecap:round;stroke-linejoin:round;stroke-miterlimit:10;" x1="30.5" y1="425.8" x2="35.2" y2="430.5"/>
			
				<line style="fill:none;stroke:#828282;stroke-linecap:round;stroke-linejoin:round;stroke-miterlimit:10;" x1="18.7" y1="439.3" x2="21.7" y2="442.3"/>
		</g>
		<g>
			<g>
				<polyline style="fill:#FFFFFF;stroke:#69BFFF;stroke-linecap:round;stroke-linejoin:round;stroke-miterlimit:10;" points="
					457.5,230 457.5,227.5 466.5,227.5 466.5,230 				"/>
				<path style="fill:#69BFFF;stroke:#69BFFF;stroke-linecap:round;stroke-linejoin:round;stroke-miterlimit:10;" d="M476.6,246.5
					h-16.1c-1.7,0-3-1.4-3-3.1v-13.6v0.7h19c1.7,0,2.9,0.6,2.9,2.2v10.7C479.5,245.1,478.2,246.5,476.6,246.5z"/>
				<path style="fill:#69BFFF;stroke:#69BFFF;stroke-linecap:round;stroke-linejoin:round;stroke-miterlimit:10;" d="M538.5,248.5
					c-1.4,0-3-2.1-3-3.5v-13.4l5-4.1h8.5c1.4,0,2.5,0.4,2.5,1.8V245c0,1.4-1,3.5-2.5,3.5H538.5z"/>
				
					<line style="fill:none;stroke:#FFFFFF;stroke-linecap:round;stroke-linejoin:round;stroke-miterlimit:10;" x1="468.5" y1="233" x2="468.5" y2="243"/>
				
					<line style="fill:none;stroke:#FFFFFF;stroke-linecap:round;stroke-linejoin:round;stroke-miterlimit:10;" x1="464" y1="238.5" x2="473" y2="238.5"/>
				<path style="fill:#FFFFFF;" d="M541,227v2.9c0,1.1-0.5,2.1-1.6,2.1H536"/>
				
					<line style="fill:none;stroke:#FFFFFF;stroke-linecap:round;stroke-linejoin:round;stroke-miterlimit:10;" x1="543.5" y1="233" x2="543.5" y2="243"/>
				
					<line style="fill:none;stroke:#FFFFFF;stroke-linecap:round;stroke-linejoin:round;stroke-miterlimit:10;" x1="540" y1="238.5" x2="549" y2="238.5"/>
			</g>
		</g>
		<g>
			<path style="fill:#6EBAF9;" d="M255.5,245.9l-6.4-15.8H249c0.1,1,0.1,2,0.1,3v12.8H248v-17.1h1.9l6.1,15.1h0.1l6.1-15.1h1.8v17.1
				h-1.2v-13c0-0.9,0-1.8,0.1-2.8h-0.1l-6.4,15.8H255.5z"/>
			<path style="fill:#6EBAF9;" d="M265.7,233.2h1.2l2.7,7.1c0.8,2.2,1.3,3.7,1.6,4.4h0.1c0.3-1,0.9-2.5,1.6-4.5l2.7-7.1h1.2L271,248
				c-0.5,1.2-0.8,2-1.2,2.4s-0.7,0.7-1.1,0.9s-0.9,0.3-1.5,0.3c-0.4,0-0.9-0.1-1.5-0.2v-1c0.5,0.1,0.9,0.2,1.5,0.2
				c0.4,0,0.8-0.1,1.1-0.3s0.6-0.5,0.8-0.9s0.5-1,0.9-1.9s0.5-1.4,0.6-1.7L265.7,233.2z"/>
			<path style="fill:#6EBAF9;" d="M288.9,234.2h-3v11.7h-1.2v-11.7h-2.4v-0.7l2.4-0.4v-1c0-1.6,0.3-2.7,0.9-3.4s1.5-1.1,2.8-1.1
				c0.7,0,1.4,0.1,2.1,0.3l-0.3,1c-0.6-0.2-1.2-0.3-1.9-0.3c-0.9,0-1.5,0.3-1.9,0.8s-0.6,1.4-0.6,2.6v1.2h3v1H288.9z"/>
			<path style="fill:#6EBAF9;" d="M290.7,229.6c0-0.8,0.2-1.1,0.7-1.1c0.2,0,0.4,0.1,0.6,0.3s0.2,0.5,0.2,0.8c0,0.4-0.1,0.6-0.2,0.8
				s-0.3,0.3-0.6,0.3C290.9,230.8,290.7,230.4,290.7,229.6z M292,245.9h-1.2v-12.7h1.2V245.9z"/>
			<path style="fill:#6EBAF9;" d="M300.8,232.9c0.5,0,1.1,0.1,1.7,0.2l-0.2,1.1c-0.5-0.1-1.1-0.2-1.7-0.2c-1.1,0-2,0.5-2.7,1.4
				s-1,2.1-1,3.5v7h-1.2v-12.7h1l0.1,2.3h0.1c0.5-0.9,1.1-1.6,1.7-2S300,232.9,300.8,232.9z"/>
			<path style="fill:#6EBAF9;" d="M312.6,242.6c0,1.1-0.4,2-1.3,2.6s-2.1,0.9-3.7,0.9c-1.7,0-3.1-0.3-4.1-0.8V244
				c1.3,0.6,2.6,1,4.1,1c1.3,0,2.2-0.2,2.9-0.6s1-1,1-1.7c0-0.6-0.3-1.2-0.8-1.6s-1.4-0.9-2.6-1.3c-1.3-0.5-2.2-0.9-2.7-1.2
				s-0.9-0.7-1.2-1.1s-0.4-0.9-0.4-1.5c0-1,0.4-1.7,1.2-2.3s1.9-0.8,3.4-0.8c1.4,0,2.7,0.3,3.9,0.8l-0.4,1.1
				c-1.3-0.5-2.4-0.8-3.5-0.8c-1,0-1.9,0.2-2.5,0.5s-0.9,0.8-0.9,1.4c0,0.7,0.2,1.2,0.7,1.6s1.4,0.8,2.8,1.3c1.1,0.4,2,0.8,2.5,1.1
				s0.9,0.7,1.2,1.1S312.6,242,312.6,242.6z"/>
			<path style="fill:#6EBAF9;" d="M318.7,245.1c0.7,0,1.4-0.1,1.9-0.2v0.9c-0.6,0.2-1.2,0.3-1.9,0.3c-1.1,0-2-0.3-2.5-0.9
				s-0.8-1.5-0.8-2.8v-8.2h-1.9v-0.7l1.9-0.5l0.6-2.9h0.6v3.1h3.7v1h-3.7v8.1c0,1,0.2,1.7,0.5,2.2S318,245.1,318.7,245.1z"/>
			<path style="fill:#6EBAF9;" d="M339.3,233.7c0,1.7-0.6,2.9-1.7,3.8s-2.7,1.3-4.8,1.3h-2.6v7.1H329v-17.1h4.2
				C337.3,228.8,339.3,230.4,339.3,233.7z M330.2,237.8h2.4c1.9,0,3.3-0.3,4.2-1s1.3-1.7,1.3-3.1c0-1.3-0.4-2.3-1.2-2.9
				s-2.1-1-3.8-1h-2.8v8H330.2z"/>
			<path style="fill:#6EBAF9;" d="M347.3,232.9c0.5,0,1.1,0.1,1.7,0.2l-0.2,1.1c-0.5-0.1-1.1-0.2-1.7-0.2c-1.1,0-2,0.5-2.7,1.4
				s-1,2.1-1,3.5v7h-1.2v-12.7h1l0.1,2.3h0.1c0.5-0.9,1.1-1.6,1.7-2S346.4,232.9,347.3,232.9z"/>
			<path style="fill:#6EBAF9;" d="M361.6,239.5c0,2.1-0.5,3.7-1.5,4.9s-2.4,1.8-4.2,1.8c-1.1,0-2.1-0.3-3-0.8s-1.5-1.3-2-2.3
				s-0.7-2.2-0.7-3.5c0-2.1,0.5-3.7,1.5-4.9s2.4-1.7,4.1-1.7c1.8,0,3.1,0.6,4.1,1.8S361.6,237.5,361.6,239.5z M351.6,239.5
				c0,1.8,0.4,3.1,1.2,4.1s1.9,1.5,3.3,1.5s2.5-0.5,3.3-1.5s1.2-2.3,1.2-4.1s-0.4-3.1-1.2-4.1s-1.9-1.5-3.3-1.5s-2.5,0.5-3.3,1.4
				S351.6,237.8,351.6,239.5z"/>
			<path style="fill:#6EBAF9;" d="M363,251.7c-0.6,0-1.2-0.1-1.6-0.3v-1c0.5,0.2,1,0.2,1.5,0.2c1.2,0,1.8-0.7,1.8-2.1v-15.4h1.2
				v15.2c0,1.1-0.2,1.9-0.7,2.4S363.9,251.7,363,251.7z M364.5,229.6c0-0.8,0.2-1.1,0.7-1.1c0.2,0,0.4,0.1,0.6,0.3s0.2,0.5,0.2,0.8
				c0,0.4-0.1,0.6-0.2,0.8s-0.3,0.3-0.6,0.3C364.8,230.8,364.5,230.4,364.5,229.6z"/>
			<path style="fill:#6EBAF9;" d="M374.8,246.1c-1.9,0-3.3-0.6-4.3-1.7s-1.6-2.7-1.6-4.8c0-2,0.5-3.7,1.5-4.9s2.3-1.8,4-1.8
				c1.5,0,2.7,0.5,3.6,1.6s1.3,2.5,1.3,4.3v0.9h-9.2c0,1.8,0.4,3.1,1.2,4s1.9,1.4,3.4,1.4c0.7,0,1.4-0.1,1.9-0.2s1.2-0.3,2.1-0.7
				v1.1c-0.7,0.3-1.4,0.5-2,0.6S375.5,246.1,374.8,246.1z M374.4,234c-1.2,0-2.2,0.4-3,1.2s-1.2,2-1.3,3.5h7.9c0-1.5-0.3-2.6-1-3.5
				S375.6,234,374.4,234z"/>
			<path style="fill:#6EBAF9;" d="M387.4,246.1c-1.8,0-3.2-0.6-4.3-1.7s-1.5-2.8-1.5-4.8c0-2.1,0.5-3.8,1.6-4.9s2.5-1.8,4.4-1.8
				c1.1,0,2.2,0.2,3.2,0.6l-0.3,1c-1.1-0.4-2.1-0.6-2.9-0.6c-1.6,0-2.7,0.5-3.6,1.4s-1.2,2.4-1.2,4.2c0,1.7,0.4,3.1,1.2,4
				s1.9,1.5,3.4,1.5c1.2,0,2.2-0.2,3.2-0.6v1.1C389.8,245.9,388.7,246.1,387.4,246.1z"/>
			<path style="fill:#6EBAF9;" d="M396.6,245.1c0.7,0,1.4-0.1,1.9-0.2v0.9c-0.6,0.2-1.2,0.3-1.9,0.3c-1.1,0-2-0.3-2.5-0.9
				s-0.8-1.5-0.8-2.8v-8.2h-1.9v-0.7l1.9-0.5l0.6-2.9h0.6v3.1h3.7v1h-3.7v8.1c0,1,0.2,1.7,0.5,2.2S395.9,245.1,396.6,245.1z"/>
		</g>
		<g>
			<rect x="1195.4" y="170" style="fill:none;" width="238.6" height="52.2"/>
			<text transform="matrix(1 0 0 1 1195.3828 182.1597)" style="fill:#848484; font-family:'OpenSans-Light'; font-size:16px;">designmap.ru@gmail.com</text>
		</g>
		<g>
			
				<ellipse style="fill:#CA6600;stroke:#FFFFFF;stroke-width:2;stroke-miterlimit:10;" cx="1419.4" cy="175.3" rx="22.6" ry="22.5"/>
			<g>
				<g>
					<path style="fill:#F5E6D2;" d="M1427.4,174.1c0.3-0.4,1.6-0.7,2.1-0.4c0.9,0.5,0.8,1.7,0.6,2.4c-0.2,1-0.7,2.1-1.3,3
						c-0.2,0.3-1.4,1.4-1.8,1.5"/>
				</g>
				<g>
					<path style="fill:#F5E6D2;" d="M1412.4,174c-0.3-0.4-1.5-0.6-1.9-0.3c-0.8,0.5-0.7,1.7-0.5,2.4c0.2,1,0.6,2.1,1.2,3
						c0.2,0.3,1.2,1.1,1.5,1.3"/>
				</g>
				<g>
					<path style="fill:#F5E6D2;" d="M1427.9,175c0,2.2-0.2,6.7-1,8.5c-1.7,3.4-4.1,5.9-7.1,5.9s-5.7-2.5-6.9-6c-0.6-1.8-1-6-1-8.2
						c0-6.5,2.5-12,7.9-12S1427.9,168.5,1427.9,175z"/>
				</g>
				<g>
					<path style="fill:#5E3800;" d="M1422.2,173.4c-0.1,0-0.2-0.1-0.2-0.2c0-0.1,0.1-0.3,0.2-0.3l3.1-0.7c0.1,0,0.3,0.1,0.3,0.2
						c0,0.1-0.1,0.3-0.2,0.3L1422.2,173.4C1422.3,173.4,1422.3,173.4,1422.2,173.4z"/>
				</g>
				<g>
					<path style="fill:#5E3800;" d="M1417.1,173.4L1417.1,173.4l-3.2-0.7c-0.1,0-0.2-0.2-0.2-0.3s0.2-0.2,0.3-0.2l3.1,0.7
						c0.1,0,0.2,0.2,0.2,0.3S1417.2,173.4,1417.1,173.4z"/>
				</g>
				<g>
					<path style="fill:#E3B295;" d="M1419.8,184.8c-0.3,0-1.7-0.1-2.2-0.7l-0.1,0.1c-0.1,0.1-0.2,0.1-0.3,0c-0.1-0.1-0.1-0.2,0-0.3
						l0.3-0.3c0.1-0.1,0.1-0.1,0.2-0.1s0.1,0.1,0.2,0.2c0.1,0.4,1.2,0.6,2,0.7c0.7,0,1.7-0.2,1.8-0.6c0-0.1,0.1-0.1,0.2-0.2
						c0.1,0,0.2,0,0.2,0l0.3,0.2c0.1,0.1,0.1,0.2,0.1,0.3c-0.1,0.1-0.2,0.1-0.3,0.1l-0.1-0.1C1421.4,184.7,1420,184.8,1419.8,184.8z
						"/>
				</g>
				<g>
					<g>
						<path style="fill:#5E3800;" d="M1424.1,177.2c-0.9,0-1.5-0.5-1.8-1.4h-0.4c-0.1,0-0.2-0.1-0.2-0.3c0-0.1,0.1-0.2,0.2-0.2h0.7
							v0.2c0.2,0.8,0.6,1.2,1.4,1.2c0.9,0,1.1-0.6,1.3-1.3l0.1-0.3h0.9c0.1,0,0.2,0.4,0.2,0.5s-0.1,0.5-0.2,0.5h-0.5
							C1425.5,176,1425.2,177.2,1424.1,177.2z"/>
					</g>
				</g>
				<g>
					<g>
						<path style="fill:#5E3800;" d="M1415.3,177.2c-0.9,0-1.5-0.5-1.8-1.4h-0.4c-0.1,0-0.2-0.1-0.2-0.3c0-0.1,0.1-0.2,0.2-0.2h0.7
							v0.2c0.2,0.8,0.6,1.2,1.4,1.2c0.9,0,1.1-0.6,1.3-1.3l0.1-0.3h0.9c0.1,0,0.2,0.4,0.2,0.5s-0.1,0.5-0.2,0.5h-0.5
							C1416.8,176,1416.4,177.2,1415.3,177.2z"/>
					</g>
				</g>
				<g>
					<path style="fill:#5D2C42;" d="M1427.9,175.7c0.2-1.2,2.5-6.3,1.2-9.2c-1.8-4.1-4.3-6.4-9.3-7c-1-0.1-3.1-1.5-3.7-0.6
						c-0.7,1-1,1.8-1.9,2.5c-1.1,0.8-2.3,3-2.9,4.2c-2,3.7,0.6,9.6,0.6,9.8c-0.1-3.1,0.7-5.5,2.3-7.8c1.2-1.8,9.7-1.1,11.1-0.1
						C1428.5,169.6,1427.2,172.7,1427.9,175.7z"/>
				</g>
				<g>
					<path style="fill:#5D2C42;" d="M1422.7,189.4c-1.2,1.4-5.2,1.2-6.2,0c-0.6-0.6-0.7-1.3-1-2.1c2.6,1.1,5.6,1.5,8.4,0
						C1423.8,187.4,1423.2,188.8,1422.7,189.4z"/>
				</g>
			</g>
		</g>
		<g>
			<g>
				<g>
					<path style="fill:#848484;" d="M1176,179v-0.4c0-1.1,0.2-2,0.5-2.7s1-1.5,1.9-2.3l1.2-1.1c0.7-0.6,1.1-1.1,1.4-1.7
						c0.3-0.5,0.4-1.2,0.4-1.9c0-1.2-0.4-2.1-1.1-2.8c-0.8-0.7-1.8-1-3-1c-0.7,0-1.4,0.1-2,0.2c-0.6,0.2-1.3,0.4-2,0.8l-0.5-1.1
						c1-0.4,1.8-0.7,2.5-0.9c0.7-0.1,1.4-0.2,2.1-0.2c1.7,0,3,0.4,3.9,1.3c1,0.9,1.4,2.1,1.4,3.7c0,0.6-0.1,1.2-0.2,1.6
						s-0.4,0.9-0.7,1.3c-0.3,0.4-0.7,0.8-1.1,1.1c-0.4,0.4-0.9,0.8-1.4,1.2c-0.6,0.5-1,0.9-1.3,1.3c-0.3,0.4-0.6,0.8-0.7,1.3
						c-0.1,0.4-0.3,1.1-0.3,2v0.1h-1V179z M1175.5,183.2c0-0.9,0.4-1.3,1.1-1.3s1.1,0.4,1.1,1.3c0,0.9-0.4,1.3-1.1,1.3
						C1175.9,184.6,1175.5,184.1,1175.5,183.2z"/>
				</g>
			</g>
		</g>
	</g>
</g>
</svg>
