<?xml version="1.0" encoding="utf-8"?>
<!-- Generator: Adobe Illustrator 19.2.1, SVG Export Plug-In . SVG Version: 6.00 Build 0)  -->
<svg version="1.1" id="Слой_1" xmlns="http://www.w3.org/2000/svg" xmlns:xlink="http://www.w3.org/1999/xlink" x="0px" y="0px"
	 viewBox="0 0 258.9 117" style="enable-background:new 0 0 258.9 117;" xml:space="preserve">
<style type="text/css">
	.st0{fill:#FFFFFF;}
	.st1{fill:none;}
	.st2{enable-background:new    ;}
	.st3{fill:#A0CAFC;}
	.st4{fill:none;stroke:#B9BBBC;stroke-linecap:round;stroke-linejoin:round;stroke-miterlimit:10;}
	.st5{fill:none;stroke:#A0CAFC;stroke-width:0.6464;stroke-linecap:round;stroke-linejoin:round;stroke-miterlimit:10;}
	.st6{fill:#0067D0;}
</style>
<rect y="0.5" class="st0" width="258.9" height="117"/>
<g>
	<g>
		<polygon class="st1" points="230.5,41.6 43,41.6 43,21.6 231.2,21.6 		"/>
		<g class="st2">
			<path class="st3" d="M51,31.3H50v-8.1h-4.7v8.1h-1.1v-9.1H51V31.3z"/>
			<path class="st3" d="M59.2,27.9c0,1.1-0.3,2-0.8,2.6c-0.6,0.6-1.3,0.9-2.3,0.9c-0.6,0-1.1-0.1-1.6-0.4c-0.5-0.3-0.8-0.7-1.1-1.2
				c-0.3-0.5-0.4-1.2-0.4-1.9c0-1.1,0.3-2,0.8-2.6c0.6-0.6,1.3-0.9,2.3-0.9c1,0,1.7,0.3,2.3,1C58.9,25.9,59.2,26.8,59.2,27.9z
				 M54,27.9c0,0.9,0.2,1.5,0.5,2c0.3,0.5,0.9,0.7,1.5,0.7c0.7,0,1.2-0.2,1.5-0.7s0.5-1.1,0.5-2c0-0.9-0.2-1.5-0.5-2
				s-0.9-0.7-1.5-0.7c-0.7,0-1.2,0.2-1.5,0.7C54.2,26.3,54,27,54,27.9z"/>
			<path class="st3" d="M66.9,33.6h-1v-2.4h-4.8v2.4h-1v-3.2h0.5c0.6-0.8,1-1.6,1.3-2.7s0.5-2.1,0.5-3.3H66v5.9h1V33.6z M65,30.4
				v-5.1h-1.5c-0.1,0.9-0.2,1.8-0.5,2.8c-0.3,0.9-0.7,1.7-1.1,2.3H65z"/>
			<path class="st3" d="M69.6,27.3c1.3,0,1.9-0.4,1.9-1.1c0-0.7-0.5-1-1.6-1c-0.3,0-0.6,0-0.9,0.1c-0.3,0.1-0.6,0.2-1,0.3l-0.4-0.8
				c0.7-0.3,1.5-0.5,2.3-0.5c0.8,0,1.4,0.2,1.8,0.5c0.5,0.3,0.7,0.8,0.7,1.3c0,0.8-0.4,1.3-1.3,1.5v0c0.5,0.2,0.9,0.4,1.1,0.7
				c0.2,0.3,0.4,0.6,0.4,1.1c0,0.6-0.3,1.1-0.8,1.5s-1.2,0.5-2.1,0.5c-1,0-1.7-0.1-2.3-0.4V30c0.8,0.4,1.5,0.5,2.3,0.5
				c0.6,0,1-0.1,1.4-0.3c0.3-0.2,0.5-0.5,0.5-0.9c0-0.8-0.6-1.2-1.9-1.2h-0.9v-0.9H69.6z"/>
			<path class="st3" d="M78.6,31.3l-0.2-1h0c-0.3,0.4-0.7,0.7-1,0.9s-0.8,0.2-1.3,0.2c-0.7,0-1.2-0.2-1.6-0.5s-0.6-0.8-0.6-1.5
				c0-1.4,1.1-2.1,3.3-2.2l1.2,0v-0.4c0-0.5-0.1-0.9-0.3-1.2c-0.2-0.3-0.6-0.4-1.1-0.4c-0.6,0-1.2,0.2-1.9,0.5l-0.3-0.8
				c0.3-0.2,0.7-0.3,1.1-0.4s0.8-0.2,1.2-0.2c0.8,0,1.4,0.2,1.8,0.5c0.4,0.4,0.6,0.9,0.6,1.7v4.6H78.6z M76.3,30.5
				c0.6,0,1.1-0.2,1.5-0.5s0.5-0.8,0.5-1.5v-0.6l-1,0c-0.8,0-1.4,0.2-1.8,0.4c-0.4,0.2-0.5,0.6-0.5,1.1c0,0.4,0.1,0.7,0.3,0.9
				C75.6,30.4,75.9,30.5,76.3,30.5z"/>
			<path class="st3" d="M87.4,33.6h-1v-2.4h-4.8v2.4h-1v-3.2h0.5c0.6-0.8,1-1.6,1.3-2.7s0.5-2.1,0.5-3.3h3.4v5.9h1V33.6z M85.5,30.4
				v-5.1h-1.5c-0.1,0.9-0.2,1.8-0.5,2.8c-0.3,0.9-0.7,1.7-1.1,2.3H85.5z"/>
			<path class="st3" d="M93,31.3l-0.2-1h0c-0.3,0.4-0.7,0.7-1,0.9s-0.8,0.2-1.3,0.2c-0.7,0-1.2-0.2-1.6-0.5s-0.6-0.8-0.6-1.5
				c0-1.4,1.1-2.1,3.3-2.2l1.2,0v-0.4c0-0.5-0.1-0.9-0.3-1.2c-0.2-0.3-0.6-0.4-1.1-0.4c-0.6,0-1.2,0.2-1.9,0.5L89,24.9
				c0.3-0.2,0.7-0.3,1.1-0.4s0.8-0.2,1.2-0.2c0.8,0,1.4,0.2,1.8,0.5c0.4,0.4,0.6,0.9,0.6,1.7v4.6H93z M90.6,30.5
				c0.6,0,1.1-0.2,1.5-0.5s0.5-0.8,0.5-1.5v-0.6l-1,0c-0.8,0-1.4,0.2-1.8,0.4c-0.4,0.2-0.5,0.6-0.5,1.1c0,0.4,0.1,0.7,0.3,0.9
				C89.9,30.4,90.2,30.5,90.6,30.5z"/>
			<path class="st3" d="M96.8,24.5v2.5c0,0.8,0.5,1.2,1.4,1.2c0.4,0,0.7-0.1,1.1-0.2c0.3-0.1,0.7-0.3,1.2-0.6v-2.9h1v6.8h-1v-3.1
				c-0.4,0.3-0.8,0.5-1.2,0.6c-0.4,0.1-0.8,0.2-1.3,0.2c-0.7,0-1.2-0.2-1.6-0.5c-0.4-0.4-0.6-0.8-0.6-1.4v-2.6H96.8z"/>
			<path class="st3" d="M107.8,31.3l-0.2-1h0c-0.3,0.4-0.7,0.7-1,0.9s-0.8,0.2-1.3,0.2c-0.7,0-1.2-0.2-1.6-0.5s-0.6-0.8-0.6-1.5
				c0-1.4,1.1-2.1,3.3-2.2l1.2,0v-0.4c0-0.5-0.1-0.9-0.3-1.2c-0.2-0.3-0.6-0.4-1.1-0.4c-0.6,0-1.2,0.2-1.9,0.5l-0.3-0.8
				c0.3-0.2,0.7-0.3,1.1-0.4s0.8-0.2,1.2-0.2c0.8,0,1.4,0.2,1.8,0.5c0.4,0.4,0.6,0.9,0.6,1.7v4.6H107.8z M105.4,30.5
				c0.6,0,1.1-0.2,1.5-0.5s0.5-0.8,0.5-1.5v-0.6l-1,0c-0.8,0-1.4,0.2-1.8,0.4c-0.4,0.2-0.5,0.6-0.5,1.1c0,0.4,0.1,0.7,0.3,0.9
				C104.7,30.4,105,30.5,105.4,30.5z"/>
			<path class="st3" d="M117.3,31.3h-1v-6.5c0-0.5,0-1,0-1.5c-0.1,0.1-0.2,0.2-0.3,0.3c-0.1,0.1-0.6,0.5-1.5,1.2L114,24l2.4-1.9h0.9
				V31.3z"/>
			<path class="st3" d="M121.1,30.6c0-0.3,0.1-0.5,0.2-0.6c0.1-0.1,0.3-0.2,0.5-0.2c0.2,0,0.4,0.1,0.6,0.2s0.2,0.4,0.2,0.6
				c0,0.3-0.1,0.5-0.2,0.6c-0.1,0.1-0.3,0.2-0.6,0.2c-0.2,0-0.4-0.1-0.5-0.2C121.1,31.1,121.1,30.9,121.1,30.6z"/>
			<path class="st3" d="M127,25.7c1,0,1.7,0.2,2.3,0.7c0.5,0.5,0.8,1.1,0.8,1.9c0,0.9-0.3,1.7-0.9,2.2c-0.6,0.5-1.4,0.8-2.5,0.8
				c-1,0-1.8-0.2-2.3-0.5v-1c0.3,0.2,0.6,0.3,1.1,0.4c0.4,0.1,0.9,0.2,1.3,0.2c0.7,0,1.3-0.2,1.7-0.5c0.4-0.3,0.6-0.8,0.6-1.5
				c0-1.3-0.8-1.9-2.3-1.9c-0.4,0-0.9,0.1-1.6,0.2l-0.5-0.3l0.3-4.2h4.5v0.9h-3.6l-0.2,2.7C126,25.8,126.5,25.7,127,25.7z"/>
		</g>
	</g>
</g>
<g>
	<rect x="42.1" y="44.8" class="st1" width="187.6" height="20"/>
	<g class="st2">
		<path class="st3" d="M46.8,51.8h-0.4v-1.3h-3.9v1.3h-0.4v-1.7h0.4c0.4-0.6,0.7-1.4,0.9-2.4c0.3-1,0.4-1.8,0.5-2.6h2.3v5h0.5V51.8z
			 M45.8,50.1v-4.6h-1.6c-0.1,0.8-0.2,1.6-0.5,2.5s-0.5,1.6-0.8,2.2H45.8z"/>
		<path class="st3" d="M50.9,48.5c0,0.6-0.2,1.1-0.5,1.5c-0.3,0.4-0.7,0.5-1.3,0.5c-0.3,0-0.7-0.1-0.9-0.3c-0.3-0.2-0.5-0.4-0.6-0.7
			c-0.1-0.3-0.2-0.7-0.2-1.1c0-0.6,0.2-1.1,0.5-1.5s0.7-0.5,1.3-0.5c0.5,0,1,0.2,1.3,0.5C50.8,47.4,50.9,47.9,50.9,48.5z M47.8,48.5
			c0,0.5,0.1,1,0.4,1.3c0.2,0.3,0.6,0.5,1,0.5c0.4,0,0.8-0.2,1-0.5c0.2-0.3,0.4-0.7,0.4-1.3c0-0.5-0.1-1-0.4-1.3
			c-0.2-0.3-0.6-0.5-1-0.5c-0.4,0-0.8,0.1-1,0.4C47.9,47.5,47.8,48,47.8,48.5z"/>
		<path class="st3" d="M51.8,48.1c0-1.7,0.5-2.7,1.5-2.9c0.3-0.1,0.7-0.2,1-0.2c0.3-0.1,0.6-0.1,0.8-0.2l0.1,0.3l-0.4,0.1
			c-0.7,0.1-1.2,0.2-1.4,0.3c-0.3,0.1-0.6,0.3-0.8,0.7c-0.2,0.4-0.3,0.9-0.3,1.5h0c0.3-0.3,0.5-0.5,0.8-0.7c0.2-0.1,0.5-0.2,0.8-0.2
			c0.5,0,0.9,0.2,1.1,0.5c0.3,0.3,0.4,0.8,0.4,1.3c0,0.6-0.1,1.1-0.4,1.4c-0.3,0.3-0.7,0.5-1.2,0.5c-0.5,0-1-0.2-1.3-0.6
			C51.9,49.5,51.8,48.9,51.8,48.1z M53.5,50.2c0.4,0,0.7-0.1,1-0.4c0.2-0.3,0.3-0.7,0.3-1.2c0-0.5-0.1-0.9-0.3-1.1s-0.5-0.4-0.9-0.4
			c-0.3,0-0.6,0.1-0.8,0.3c-0.3,0.2-0.5,0.4-0.7,0.7c0,0.4,0.1,0.8,0.2,1.1c0.1,0.3,0.3,0.6,0.5,0.7C53,50.2,53.2,50.2,53.5,50.2z"
			/>
		<path class="st3" d="M58.7,50.5l-0.1-0.6h0c-0.2,0.3-0.4,0.4-0.6,0.5c-0.2,0.1-0.5,0.2-0.7,0.2c-0.4,0-0.7-0.1-0.9-0.3
			c-0.2-0.2-0.3-0.5-0.3-0.8c0-0.4,0.2-0.7,0.5-0.9c0.3-0.2,0.8-0.3,1.4-0.3l0.8,0v-0.3c0-0.4-0.1-0.7-0.2-0.9
			c-0.2-0.2-0.4-0.3-0.7-0.3c-0.4,0-0.7,0.1-1.1,0.3l-0.1-0.3c0.4-0.2,0.9-0.3,1.3-0.3c0.4,0,0.8,0.1,1,0.3c0.2,0.2,0.3,0.6,0.3,1.1
			v2.6H58.7z M57.2,50.2c0.4,0,0.8-0.1,1-0.4c0.2-0.2,0.4-0.6,0.4-1v-0.4l-0.7,0c-0.6,0-1,0.1-1.2,0.3c-0.2,0.1-0.4,0.4-0.4,0.7
			c0,0.2,0.1,0.4,0.2,0.6C56.7,50.2,57,50.2,57.2,50.2z"/>
		<path class="st3" d="M63.3,47.5c0,0.3-0.1,0.4-0.2,0.6c-0.1,0.1-0.3,0.2-0.6,0.3v0c0.3,0,0.5,0.1,0.7,0.3c0.1,0.1,0.2,0.4,0.2,0.6
			c0,0.4-0.1,0.7-0.4,0.9c-0.3,0.2-0.6,0.3-1.1,0.3h-1.7v-4h1.7c0.5,0,0.8,0.1,1,0.2C63.2,46.9,63.3,47.2,63.3,47.5z M62.9,47.5
			c0-0.2-0.1-0.4-0.2-0.5c-0.2-0.1-0.4-0.1-0.7-0.1h-1.3v1.4h1.3c0.4,0,0.6-0.1,0.8-0.2S62.9,47.8,62.9,47.5z M63,49.3
			c0-0.5-0.4-0.7-1.1-0.7h-1.3v1.6h1.3C62.6,50.2,63,49.9,63,49.3z"/>
		<path class="st3" d="M64.8,46.5v2.9l0,0.7l2.3-3.6h0.5v4h-0.3v-2.8l0-0.8l-2.3,3.6h-0.5v-4H64.8z"/>
		<path class="st3" d="M71.4,46.9h-1.3v3.6h-0.4v-3.6h-1.3v-0.3h3V46.9z"/>
		<path class="st3" d="M72.6,48.2H74c0.9,0,1.4,0.4,1.4,1.1c0,0.4-0.1,0.7-0.4,0.9c-0.3,0.2-0.6,0.3-1.1,0.3h-1.6v-4h0.4V48.2z
			 M72.6,48.5v1.6H74c0.3,0,0.6-0.1,0.8-0.2c0.2-0.1,0.3-0.4,0.3-0.6c0-0.3-0.1-0.5-0.2-0.6c-0.2-0.1-0.4-0.2-0.8-0.2H72.6z"/>
		<path class="st3" d="M81.7,48.5c0,0.6-0.2,1.1-0.5,1.5c-0.3,0.4-0.7,0.5-1.3,0.5c-0.3,0-0.7-0.1-0.9-0.3c-0.3-0.2-0.5-0.4-0.6-0.7
			c-0.1-0.3-0.2-0.7-0.2-1.1c0-0.6,0.2-1.1,0.5-1.5s0.7-0.5,1.3-0.5c0.5,0,1,0.2,1.3,0.5C81.5,47.4,81.7,47.9,81.7,48.5z M78.6,48.5
			c0,0.5,0.1,1,0.4,1.3c0.2,0.3,0.6,0.5,1,0.5c0.4,0,0.8-0.2,1-0.5c0.2-0.3,0.4-0.7,0.4-1.3c0-0.5-0.1-1-0.4-1.3
			c-0.2-0.3-0.6-0.5-1-0.5c-0.4,0-0.8,0.1-1,0.4C78.7,47.5,78.6,48,78.6,48.5z"/>
		<path class="st3" d="M83.2,50.5h-0.4v-4h3.2v4h-0.4v-3.6h-2.4V50.5z"/>
		<path class="st3" d="M87.6,46.5v2.9l0,0.7l2.3-3.6h0.5v4h-0.3v-2.8l0-0.8l-2.3,3.6h-0.5v-4H87.6z"/>
		<path class="st3" d="M93.3,50.6c-0.6,0-1-0.2-1.3-0.5c-0.3-0.4-0.5-0.9-0.5-1.5c0-0.7,0.2-1.2,0.5-1.5c0.3-0.4,0.8-0.5,1.4-0.5
			c0.3,0,0.7,0.1,1,0.2L94.3,47c-0.3-0.1-0.6-0.2-0.9-0.2c-0.5,0-0.9,0.1-1.1,0.4c-0.3,0.3-0.4,0.7-0.4,1.3c0,0.5,0.1,1,0.4,1.3
			c0.2,0.3,0.6,0.5,1,0.5c0.4,0,0.7-0.1,1-0.2v0.3C94.1,50.5,93.7,50.6,93.3,50.6z"/>
		<path class="st3" d="M97.7,50.5l-0.1-0.6h0c-0.2,0.3-0.4,0.4-0.6,0.5c-0.2,0.1-0.5,0.2-0.7,0.2c-0.4,0-0.7-0.1-0.9-0.3
			c-0.2-0.2-0.3-0.5-0.3-0.8c0-0.4,0.2-0.7,0.5-0.9c0.3-0.2,0.8-0.3,1.4-0.3l0.8,0v-0.3c0-0.4-0.1-0.7-0.2-0.9
			c-0.2-0.2-0.4-0.3-0.7-0.3c-0.4,0-0.7,0.1-1.1,0.3l-0.1-0.3c0.4-0.2,0.9-0.3,1.3-0.3c0.4,0,0.8,0.1,1,0.3c0.2,0.2,0.3,0.6,0.3,1.1
			v2.6H97.7z M96.2,50.2c0.4,0,0.8-0.1,1-0.4c0.2-0.2,0.4-0.6,0.4-1v-0.4l-0.7,0c-0.6,0-1,0.1-1.2,0.3c-0.2,0.1-0.4,0.4-0.4,0.7
			c0,0.2,0.1,0.4,0.2,0.6C95.7,50.2,96,50.2,96.2,50.2z"/>
		<path class="st3" d="M99.6,46.5v1.7h2.5v-1.7h0.4v4h-0.4v-1.9h-2.5v1.9h-0.4v-4H99.6z"/>
		<path class="st3" d="M104.1,46.5v2.9l0,0.7l2.3-3.6h0.5v4h-0.3v-2.8l0-0.8l-2.3,3.6h-0.5v-4H104.1z"/>
		<path class="st3" d="M109.9,50.6c-0.6,0-1-0.2-1.3-0.5c-0.3-0.4-0.5-0.8-0.5-1.5c0-0.6,0.2-1.1,0.5-1.5c0.3-0.4,0.7-0.6,1.3-0.6
			c0.5,0,0.8,0.2,1.1,0.5s0.4,0.8,0.4,1.3v0.3h-2.8c0,0.5,0.1,1,0.4,1.2c0.2,0.3,0.6,0.4,1.1,0.4c0.2,0,0.4,0,0.6,0
			c0.2,0,0.4-0.1,0.6-0.2v0.3c-0.2,0.1-0.4,0.2-0.6,0.2C110.3,50.5,110.1,50.6,109.9,50.6z M109.7,46.8c-0.4,0-0.7,0.1-0.9,0.4
			s-0.4,0.6-0.4,1.1h2.4c0-0.5-0.1-0.8-0.3-1.1C110.4,46.9,110.1,46.8,109.7,46.8z"/>
	</g>
</g>
<g>
	<g>
		<path class="st4" d="M26.3,29.9c-2.1,0-4.2-6.7,0-6.7C30.2,23.1,28.3,29.9,26.3,29.9z"/>
		<path class="st4" d="M21.2,33.4c-0.5-1.7,0.7-3.3,5.1-3.3c4.2,0,5.4,1.6,4.9,3.3"/>
		<line class="st4" x1="17.5" y1="22.5" x2="17.5" y2="27.5"/>
		<line class="st4" x1="15" y1="25" x2="20" y2="25"/>
	</g>
</g>
<g>
	<g>
		<rect x="17.5" y="86.5" class="st1" width="89.4" height="14.7"/>
		<g class="st2">
			<path class="st3" d="M23.1,88.8c0,0.5-0.2,0.9-0.5,1.3c-0.3,0.3-0.8,0.5-1.4,0.6v0c0.7,0.1,1.2,0.3,1.5,0.6
				c0.3,0.3,0.5,0.7,0.5,1.3c0,0.7-0.3,1.3-0.8,1.7c-0.5,0.4-1.3,0.6-2.3,0.6c-0.9,0-1.7-0.1-2.2-0.4v-0.8c0.3,0.2,0.7,0.3,1.1,0.4
				s0.8,0.1,1.2,0.1c0.7,0,1.2-0.1,1.6-0.4c0.4-0.3,0.5-0.7,0.5-1.2c0-0.5-0.2-0.8-0.6-1.1c-0.4-0.2-1-0.4-1.8-0.4h-1.2v-0.8h1.1
				c0.7,0,1.3-0.1,1.7-0.4c0.4-0.3,0.6-0.6,0.6-1.1c0-0.4-0.1-0.7-0.4-0.9c-0.3-0.2-0.7-0.3-1.2-0.3c-0.4,0-0.7,0-1.1,0.1
				c-0.3,0.1-0.7,0.3-1.1,0.5l-0.5-0.6c0.4-0.3,0.8-0.5,1.2-0.6c0.4-0.1,0.9-0.2,1.4-0.2c0.8,0,1.4,0.2,1.9,0.5S23.1,88.2,23.1,88.8
				z"/>
			<path class="st3" d="M28.4,94.8L28.3,94h0c-0.3,0.4-0.6,0.6-0.9,0.7s-0.7,0.2-1.1,0.2c-0.6,0-1-0.2-1.4-0.5
				c-0.3-0.3-0.5-0.7-0.5-1.3c0-1.2,0.9-1.8,2.8-1.9l1,0v-0.4c0-0.5-0.1-0.8-0.3-1c-0.2-0.2-0.5-0.3-1-0.3c-0.5,0-1,0.2-1.7,0.5
				L25,89.4c0.3-0.2,0.6-0.3,1-0.4s0.7-0.1,1-0.1c0.7,0,1.2,0.2,1.6,0.5s0.5,0.8,0.5,1.5v4H28.4z M26.4,94.2c0.6,0,1-0.2,1.3-0.5
				c0.3-0.3,0.5-0.7,0.5-1.3v-0.5l-0.9,0c-0.7,0-1.2,0.1-1.5,0.3s-0.5,0.5-0.5,0.9c0,0.3,0.1,0.6,0.3,0.7
				C25.8,94.1,26.1,94.2,26.4,94.2z"/>
			<path class="st3" d="M36,96.9h-0.9v-2h-4.1v2h-0.9v-2.8h0.5c0.5-0.7,0.9-1.4,1.1-2.3c0.3-0.9,0.4-1.8,0.4-2.8h3v5.1H36V96.9z
				 M34.3,94.1v-4.4H33c0,0.8-0.2,1.6-0.5,2.4c-0.3,0.8-0.6,1.5-1,2H34.3z"/>
			<path class="st3" d="M40.8,94.8L40.7,94h0c-0.3,0.4-0.6,0.6-0.9,0.7s-0.7,0.2-1.1,0.2c-0.6,0-1-0.2-1.4-0.5
				c-0.3-0.3-0.5-0.7-0.5-1.3c0-1.2,0.9-1.8,2.8-1.9l1,0v-0.4c0-0.5-0.1-0.8-0.3-1c-0.2-0.2-0.5-0.3-1-0.3c-0.5,0-1,0.2-1.7,0.5
				l-0.3-0.7c0.3-0.2,0.6-0.3,1-0.4s0.7-0.1,1-0.1c0.7,0,1.2,0.2,1.6,0.5s0.5,0.8,0.5,1.5v4H40.8z M38.8,94.2c0.6,0,1-0.2,1.3-0.5
				c0.3-0.3,0.5-0.7,0.5-1.3v-0.5l-0.9,0c-0.7,0-1.2,0.1-1.5,0.3s-0.5,0.5-0.5,0.9c0,0.3,0.1,0.6,0.3,0.7
				C38.2,94.1,38.5,94.2,38.8,94.2z"/>
			<path class="st3" d="M44.1,88.9v2.1c0,0.7,0.4,1,1.2,1c0.3,0,0.6-0.1,0.9-0.2s0.6-0.3,1-0.5v-2.5h0.9v5.9h-0.9v-2.7
				c-0.4,0.3-0.7,0.4-1,0.5s-0.7,0.2-1.1,0.2c-0.6,0-1-0.2-1.4-0.5c-0.3-0.3-0.5-0.7-0.5-1.3v-2.2H44.1z"/>
			<path class="st3" d="M53.6,94.8L53.5,94h0c-0.3,0.4-0.6,0.6-0.9,0.7s-0.7,0.2-1.1,0.2c-0.6,0-1-0.2-1.4-0.5
				c-0.3-0.3-0.5-0.7-0.5-1.3c0-1.2,0.9-1.8,2.8-1.9l1,0v-0.4c0-0.5-0.1-0.8-0.3-1c-0.2-0.2-0.5-0.3-1-0.3c-0.5,0-1,0.2-1.7,0.5
				l-0.3-0.7c0.3-0.2,0.6-0.3,1-0.4s0.7-0.1,1-0.1c0.7,0,1.2,0.2,1.6,0.5s0.5,0.8,0.5,1.5v4H53.6z M51.6,94.2c0.6,0,1-0.2,1.3-0.5
				c0.3-0.3,0.5-0.7,0.5-1.3v-0.5l-0.9,0c-0.7,0-1.2,0.1-1.5,0.3s-0.5,0.5-0.5,0.9c0,0.3,0.1,0.6,0.3,0.7
				C51,94.1,51.3,94.2,51.6,94.2z"/>
			<path class="st3" d="M64.6,94.8h-1l-3.7-6.6h0c0.1,1,0.1,1.7,0.1,2.1v4.5h-0.8V87h1l3.7,6.6h0c-0.1-0.9-0.1-1.6-0.1-2.1V87h0.8
				V94.8z M68.7,91.5c0,0.6-0.1,1-0.4,1.4c-0.3,0.3-0.7,0.5-1.2,0.5c-0.5,0-0.9-0.2-1.2-0.5c-0.3-0.3-0.4-0.8-0.4-1.4
				c0-0.6,0.1-1,0.4-1.4s0.7-0.5,1.2-0.5c0.5,0,0.9,0.2,1.2,0.5S68.7,90.9,68.7,91.5z M65.7,94.8v-0.7h2.7v0.7H65.7z M66.1,91.5
				c0,0.4,0.1,0.7,0.2,0.9s0.4,0.3,0.7,0.3c0.3,0,0.6-0.1,0.7-0.3c0.1-0.2,0.2-0.5,0.2-0.9c0-0.4-0.1-0.7-0.2-0.9
				c-0.1-0.2-0.4-0.3-0.7-0.3c-0.3,0-0.6,0.1-0.7,0.3C66.2,90.8,66.1,91.1,66.1,91.5z"/>
			<path class="st3" d="M73.1,94.8h-0.9v-5.6c0-0.5,0-0.9,0-1.3c-0.1,0.1-0.2,0.2-0.3,0.2c-0.1,0.1-0.5,0.4-1.3,1l-0.5-0.6l2.1-1.6
				h0.8V94.8z"/>
		</g>
	</g>
	<path class="st3" d="M246.3,97.9h-74.1c-1.6,0-3-1.3-3-3v-8.3c0-1.6,1.3-3,3-3h74.1c1.6,0,3,1.3,3,3v8.3
		C249.2,96.6,247.9,97.9,246.3,97.9z"/>
	<g>
		<rect x="87.1" y="86.5" class="st1" width="75.5" height="14.7"/>
		<g class="st2">
			<path class="st3" d="M94,94.8h-0.9v-7h-4v7h-0.9V87H94V94.8z"/>
			<path class="st3" d="M101.1,91.9c0,1-0.2,1.7-0.7,2.2c-0.5,0.5-1.1,0.8-2,0.8c-0.5,0-1-0.1-1.4-0.4c-0.4-0.2-0.7-0.6-0.9-1.1
				c-0.2-0.5-0.3-1-0.3-1.6c0-1,0.2-1.7,0.7-2.2c0.5-0.5,1.1-0.8,2-0.8c0.8,0,1.5,0.3,2,0.8C100.9,90.2,101.1,90.9,101.1,91.9z
				 M96.6,91.9c0,0.8,0.1,1.3,0.5,1.7c0.3,0.4,0.7,0.6,1.3,0.6c0.6,0,1-0.2,1.3-0.6c0.3-0.4,0.5-1,0.5-1.7c0-0.7-0.2-1.3-0.5-1.7
				s-0.7-0.6-1.3-0.6c-0.6,0-1,0.2-1.3,0.6C96.8,90.6,96.6,91.1,96.6,91.9z"/>
			<path class="st3" d="M107.8,96.9h-0.9v-2h-4.1v2h-0.9v-2.8h0.5c0.5-0.7,0.9-1.4,1.1-2.3c0.3-0.9,0.4-1.8,0.4-2.8h3v5.1h0.8V96.9z
				 M106.1,94.1v-4.4h-1.3c0,0.8-0.2,1.6-0.5,2.4c-0.3,0.8-0.6,1.5-1,2H106.1z"/>
			<path class="st3" d="M110.1,91.4c1.1,0,1.7-0.3,1.7-0.9c0-0.6-0.5-0.9-1.4-0.9c-0.3,0-0.5,0-0.8,0.1c-0.2,0.1-0.5,0.2-0.9,0.3
				l-0.3-0.7c0.6-0.3,1.3-0.4,2-0.4c0.7,0,1.2,0.1,1.6,0.4c0.4,0.3,0.6,0.7,0.6,1.1c0,0.7-0.4,1.1-1.1,1.3v0c0.5,0.1,0.8,0.3,1,0.6
				c0.2,0.2,0.3,0.6,0.3,0.9c0,0.5-0.2,1-0.7,1.3s-1,0.5-1.8,0.5c-0.8,0-1.5-0.1-2-0.4v-0.8c0.7,0.3,1.3,0.5,2,0.5
				c0.5,0,0.9-0.1,1.2-0.3c0.3-0.2,0.4-0.4,0.4-0.8c0-0.7-0.6-1-1.7-1h-0.8v-0.8H110.1z"/>
			<path class="st3" d="M117.9,94.8l-0.2-0.8h0c-0.3,0.4-0.6,0.6-0.9,0.7s-0.7,0.2-1.1,0.2c-0.6,0-1-0.2-1.4-0.5
				c-0.3-0.3-0.5-0.7-0.5-1.3c0-1.2,0.9-1.8,2.8-1.9l1,0v-0.4c0-0.5-0.1-0.8-0.3-1c-0.2-0.2-0.5-0.3-1-0.3c-0.5,0-1,0.2-1.7,0.5
				l-0.3-0.7c0.3-0.2,0.6-0.3,1-0.4s0.7-0.1,1-0.1c0.7,0,1.2,0.2,1.6,0.5s0.5,0.8,0.5,1.5v4H117.9z M115.9,94.2c0.6,0,1-0.2,1.3-0.5
				c0.3-0.3,0.5-0.7,0.5-1.3v-0.5l-0.9,0c-0.7,0-1.2,0.1-1.5,0.3s-0.5,0.5-0.5,0.9c0,0.3,0.1,0.6,0.3,0.7
				C115.2,94.1,115.5,94.2,115.9,94.2z"/>
			<path class="st3" d="M125.5,96.9h-0.9v-2h-4.1v2h-0.9v-2.8h0.5c0.5-0.7,0.9-1.4,1.1-2.3c0.3-0.9,0.4-1.8,0.4-2.8h3v5.1h0.8V96.9z
				 M123.8,94.1v-4.4h-1.3c0,0.8-0.2,1.6-0.5,2.4c-0.3,0.8-0.6,1.5-1,2H123.8z"/>
			<path class="st3" d="M130.3,94.8l-0.2-0.8h0c-0.3,0.4-0.6,0.6-0.9,0.7s-0.7,0.2-1.1,0.2c-0.6,0-1-0.2-1.4-0.5
				c-0.3-0.3-0.5-0.7-0.5-1.3c0-1.2,0.9-1.8,2.8-1.9l1,0v-0.4c0-0.5-0.1-0.8-0.3-1c-0.2-0.2-0.5-0.3-1-0.3c-0.5,0-1,0.2-1.7,0.5
				l-0.3-0.7c0.3-0.2,0.6-0.3,1-0.4s0.7-0.1,1-0.1c0.7,0,1.2,0.2,1.6,0.5s0.5,0.8,0.5,1.5v4H130.3z M128.2,94.2c0.6,0,1-0.2,1.3-0.5
				c0.3-0.3,0.5-0.7,0.5-1.3v-0.5l-0.9,0c-0.7,0-1.2,0.1-1.5,0.3s-0.5,0.5-0.5,0.9c0,0.3,0.1,0.6,0.3,0.7
				C127.6,94.1,127.9,94.2,128.2,94.2z"/>
			<path class="st3" d="M133.5,88.9v2.1c0,0.7,0.4,1,1.2,1c0.3,0,0.6-0.1,0.9-0.2s0.6-0.3,1-0.5v-2.5h0.9v5.9h-0.9v-2.7
				c-0.4,0.3-0.7,0.4-1,0.5s-0.7,0.2-1.1,0.2c-0.6,0-1-0.2-1.4-0.5c-0.3-0.3-0.5-0.7-0.5-1.3v-2.2H133.5z"/>
			<path class="st3" d="M143,94.8l-0.2-0.8h0c-0.3,0.4-0.6,0.6-0.9,0.7c-0.3,0.1-0.7,0.2-1.1,0.2c-0.6,0-1-0.2-1.4-0.5
				c-0.3-0.3-0.5-0.7-0.5-1.3c0-1.2,1-1.8,2.8-1.9l1,0v-0.4c0-0.5-0.1-0.8-0.3-1c-0.2-0.2-0.5-0.3-1-0.3c-0.5,0-1,0.2-1.7,0.5
				l-0.3-0.7c0.3-0.2,0.6-0.3,1-0.4c0.3-0.1,0.7-0.1,1-0.1c0.7,0,1.2,0.2,1.6,0.5s0.5,0.8,0.5,1.5v4H143z M141,94.2
				c0.6,0,1-0.2,1.3-0.5c0.3-0.3,0.5-0.7,0.5-1.3v-0.5l-0.9,0c-0.7,0-1.2,0.1-1.5,0.3c-0.3,0.2-0.5,0.5-0.5,0.9
				c0,0.3,0.1,0.6,0.3,0.7C140.4,94.1,140.7,94.2,141,94.2z"/>
			<path class="st3" d="M151.3,94.8h-0.9v-5.6c0-0.5,0-0.9,0-1.3c-0.1,0.1-0.2,0.2-0.3,0.2s-0.5,0.4-1.3,1l-0.5-0.6l2.1-1.6h0.8
				V94.8z"/>
		</g>
	</g>
	<rect x="171.5" y="86.5" class="st1" width="136.6" height="13.3"/>
	<g class="st2">
		<path class="st0" d="M178.5,94.8h-0.9v-7h-4v7h-0.9V87h5.9V94.8z"/>
		<path class="st0" d="M185.6,91.9c0,1-0.2,1.7-0.7,2.2c-0.5,0.5-1.2,0.8-2,0.8c-0.5,0-1-0.1-1.4-0.4c-0.4-0.2-0.7-0.6-0.9-1.1
			c-0.2-0.5-0.3-1-0.3-1.6c0-1,0.2-1.7,0.7-2.2c0.5-0.5,1.1-0.8,2-0.8c0.8,0,1.5,0.3,2,0.8S185.6,90.9,185.6,91.9z M181.1,91.9
			c0,0.8,0.2,1.3,0.5,1.7c0.3,0.4,0.7,0.6,1.3,0.6c0.6,0,1-0.2,1.3-0.6c0.3-0.4,0.5-1,0.5-1.7c0-0.7-0.2-1.3-0.5-1.7
			c-0.3-0.4-0.7-0.6-1.3-0.6c-0.6,0-1,0.2-1.3,0.6S181.1,91.1,181.1,91.9z"/>
		<path class="st0" d="M192.2,96.9h-0.9v-2h-4.1v2h-0.9v-2.8h0.5c0.5-0.7,0.9-1.4,1.1-2.3c0.3-0.9,0.4-1.8,0.4-2.8h3v5.1h0.8V96.9z
			 M190.5,94.1v-4.4h-1.3c0,0.8-0.2,1.6-0.5,2.4c-0.3,0.8-0.6,1.5-1,2H190.5z"/>
		<path class="st0" d="M194.5,91.4c1.1,0,1.7-0.3,1.7-0.9c0-0.6-0.5-0.9-1.4-0.9c-0.3,0-0.5,0-0.8,0.1c-0.2,0.1-0.5,0.2-0.9,0.3
			l-0.3-0.7c0.6-0.3,1.3-0.4,2-0.4c0.7,0,1.2,0.1,1.6,0.4c0.4,0.3,0.6,0.7,0.6,1.1c0,0.7-0.4,1.1-1.1,1.3v0c0.5,0.1,0.8,0.3,1,0.6
			c0.2,0.2,0.3,0.6,0.3,0.9c0,0.5-0.2,1-0.7,1.3c-0.4,0.3-1,0.5-1.8,0.5c-0.8,0-1.5-0.1-2-0.4v-0.8c0.7,0.3,1.3,0.5,2,0.5
			c0.5,0,0.9-0.1,1.2-0.3s0.4-0.4,0.4-0.8c0-0.7-0.6-1-1.7-1h-0.8v-0.8H194.5z"/>
		<path class="st0" d="M202.3,94.8l-0.2-0.8h0c-0.3,0.4-0.6,0.6-0.9,0.7c-0.3,0.1-0.7,0.2-1.1,0.2c-0.6,0-1-0.2-1.4-0.5
			c-0.3-0.3-0.5-0.7-0.5-1.3c0-1.2,0.9-1.8,2.8-1.9l1,0v-0.4c0-0.5-0.1-0.8-0.3-1c-0.2-0.2-0.5-0.3-1-0.3c-0.5,0-1,0.2-1.7,0.5
			l-0.3-0.7c0.3-0.2,0.6-0.3,1-0.4c0.3-0.1,0.7-0.1,1-0.1c0.7,0,1.2,0.2,1.6,0.5s0.5,0.8,0.5,1.5v4H202.3z M200.3,94.2
			c0.6,0,1-0.2,1.3-0.5c0.3-0.3,0.5-0.7,0.5-1.3v-0.5l-0.9,0c-0.7,0-1.2,0.1-1.5,0.3c-0.3,0.2-0.5,0.5-0.5,0.9
			c0,0.3,0.1,0.6,0.3,0.7S200,94.2,200.3,94.2z"/>
		<path class="st0" d="M209.9,96.9h-0.9v-2h-4.1v2h-0.9v-2.8h0.5c0.5-0.7,0.9-1.4,1.1-2.3c0.3-0.9,0.4-1.8,0.4-2.8h3v5.1h0.8V96.9z
			 M208.2,94.1v-4.4h-1.3c0,0.8-0.2,1.6-0.5,2.4c-0.3,0.8-0.6,1.5-1,2H208.2z"/>
		<path class="st0" d="M214.7,94.8l-0.2-0.8h0c-0.3,0.4-0.6,0.6-0.9,0.7c-0.3,0.1-0.7,0.2-1.1,0.2c-0.6,0-1-0.2-1.4-0.5
			c-0.3-0.3-0.5-0.7-0.5-1.3c0-1.2,1-1.8,2.8-1.9l1,0v-0.4c0-0.5-0.1-0.8-0.3-1c-0.2-0.2-0.5-0.3-1-0.3c-0.5,0-1,0.2-1.7,0.5
			l-0.3-0.7c0.3-0.2,0.6-0.3,1-0.4c0.3-0.1,0.7-0.1,1-0.1c0.7,0,1.2,0.2,1.6,0.5s0.5,0.8,0.5,1.5v4H214.7z M212.7,94.2
			c0.6,0,1-0.2,1.3-0.5c0.3-0.3,0.5-0.7,0.5-1.3v-0.5l-0.9,0c-0.7,0-1.2,0.1-1.5,0.3c-0.3,0.2-0.5,0.5-0.5,0.9
			c0,0.3,0.1,0.6,0.3,0.7C212.1,94.1,212.4,94.2,212.7,94.2z"/>
		<path class="st0" d="M218,88.9v2.1c0,0.7,0.4,1,1.2,1c0.3,0,0.6-0.1,0.9-0.2s0.6-0.3,1-0.5v-2.5h0.9v5.9h-0.9v-2.7
			c-0.4,0.3-0.7,0.4-1,0.5s-0.7,0.2-1.1,0.2c-0.6,0-1-0.2-1.4-0.5c-0.3-0.3-0.5-0.7-0.5-1.3v-2.2H218z"/>
		<path class="st0" d="M227.5,94.8l-0.2-0.8h0c-0.3,0.4-0.6,0.6-0.9,0.7c-0.3,0.1-0.7,0.2-1.1,0.2c-0.6,0-1-0.2-1.4-0.5
			c-0.3-0.3-0.5-0.7-0.5-1.3c0-1.2,0.9-1.8,2.8-1.9l1,0v-0.4c0-0.5-0.1-0.8-0.3-1c-0.2-0.2-0.5-0.3-1-0.3c-0.5,0-1,0.2-1.7,0.5
			l-0.3-0.7c0.3-0.2,0.6-0.3,1-0.4c0.3-0.1,0.7-0.1,1-0.1c0.7,0,1.2,0.2,1.6,0.5s0.5,0.8,0.5,1.5v4H227.5z M225.5,94.2
			c0.6,0,1-0.2,1.3-0.5c0.3-0.3,0.5-0.7,0.5-1.3v-0.5l-0.9,0c-0.7,0-1.2,0.1-1.5,0.3c-0.3,0.2-0.5,0.5-0.5,0.9
			c0,0.3,0.1,0.6,0.3,0.7S225.1,94.2,225.5,94.2z"/>
		<path class="st0" d="M235.7,94.8h-0.9v-5.6c0-0.5,0-0.9,0-1.3c-0.1,0.1-0.2,0.2-0.3,0.2c-0.1,0.1-0.5,0.4-1.3,1l-0.5-0.6L235,87
			h0.8V94.8z"/>
		<path class="st0" d="M239,94.3c0-0.2,0.1-0.4,0.2-0.5s0.3-0.2,0.5-0.2c0.2,0,0.4,0.1,0.5,0.2s0.2,0.3,0.2,0.5
			c0,0.2-0.1,0.4-0.2,0.5s-0.3,0.2-0.5,0.2c-0.2,0-0.3-0.1-0.5-0.2C239.1,94.7,239,94.5,239,94.3z"/>
		<path class="st0" d="M244.1,90c0.8,0,1.5,0.2,2,0.6c0.5,0.4,0.7,1,0.7,1.7c0,0.8-0.3,1.4-0.8,1.9c-0.5,0.5-1.2,0.7-2.1,0.7
			c-0.9,0-1.6-0.1-2-0.4v-0.9c0.3,0.2,0.6,0.3,0.9,0.4c0.4,0.1,0.7,0.1,1.1,0.1c0.6,0,1.1-0.1,1.5-0.4s0.5-0.7,0.5-1.3
			c0-1.1-0.7-1.6-2-1.6c-0.3,0-0.8,0.1-1.4,0.2l-0.5-0.3l0.3-3.7h3.9v0.8h-3.1l-0.2,2.4C243.3,90.1,243.7,90,244.1,90z"/>
	</g>
	<line class="st5" x1="159.4" y1="91" x2="163.9" y2="91"/>
	<line class="st5" x1="76.4" y1="91" x2="80.9" y2="91"/>
</g>
<g>
	<path class="st6" d="M248.8,15.2C248.7,15.2,248.7,15.2,248.8,15.2c-1-1.4-2.8-1.9-4.4-1.3c-12.1,4.8-23.3,12.1-32.8,21.2
		S194.4,55,188.5,66.8c-1.2-3.5-1.7-7.2-1.9-11.1c-0.1-3.9-6.2-3.7-6.1,0.2c0.3,7.1,1.7,13.5,5.2,19.7c0.5,0.8,1.3,1.3,2.1,1.4
		c1.2,0.4,2.5,0.1,3.2-1.4c2.3-3.6,10.4-7.3,14.5-7.4c3.9-0.1,3.9-6.4,0-6.2c-2.6,0.1-5.7,1-8.7,2.3c11.7-20.1,29-36.6,50.8-45.1
		C249.2,18.5,249.8,16.6,248.8,15.2z"/>
</g>
<g>
	<path class="st6" d="M211.7,37.9c-19.5,4-39.8,1.6-58.5-5.5c3.2-0.9,6.2-2.1,8.2-3.7c3.1-2.4-0.8-7.2-3.9-4.8
		c-3.3,2.5-12,4.8-16,3.4c-1.5-0.7-2.7-0.2-3.3,0.9c-0.6,0.6-0.9,1.5-0.7,2.4c1.2,7,4.1,12.9,8.3,18.6c2.4,3.1,7.2-0.6,4.8-3.7
		c-2.3-3.1-4.3-6.4-5.5-9.8c12,5.4,24.8,8.9,37.9,10c8.2,0.7,16.5,0.4,24.6-0.9C208.7,42.3,209.9,40,211.7,37.9z"/>
</g>
</svg>
