<?xml version="1.0" encoding="utf-8"?>
<!-- Generator: Adobe Illustrator 19.2.1, SVG Export Plug-In . SVG Version: 6.00 Build 0)  -->
<svg version="1.1" id="Слой_1" xmlns="http://www.w3.org/2000/svg" xmlns:xlink="http://www.w3.org/1999/xlink" x="0px" y="0px"
	 viewBox="0 0 374.3 37.3" style="enable-background:new 0 0 374.3 37.3;" xml:space="preserve">
<style type="text/css">
	.st0{fill:#FFFFFF;}
	.st1{fill:#EAA92A;}
	.st2{fill:none;stroke:#FFFFFF;stroke-width:0.8943;stroke-linecap:round;stroke-linejoin:round;stroke-miterlimit:10;}
	.st3{fill:none;}
	.st4{enable-background:new    ;}
	.st5{fill:#B9BBBC;}
	.st6{fill:#CDE37A;}
	.st7{fill:#D46C57;}
</style>
<rect class="st0" width="374.3" height="37.3"/>
<g id="completed_1_">
	<circle class="st1" cx="121.2" cy="19.5" r="10"/>
	<g>
		<circle class="st2" cx="121.2" cy="19" r="5.6"/>
		<line class="st2" x1="120.8" y1="20.8" x2="124.4" y2="17.3"/>
		<line class="st2" x1="120.8" y1="20.9" x2="119" y2="19.1"/>
	</g>
	<rect x="133.7" y="15.8" class="st3" width="44.7" height="16.5"/>
	<g class="st4">
		<path class="st5" d="M136.7,17.9h-2v3.7h-0.4v-4h2.4V17.9z"/>
		<path class="st5" d="M140.9,19.6c0,0.7-0.2,1.2-0.5,1.5c-0.3,0.4-0.8,0.6-1.3,0.6c-0.4,0-0.7-0.1-0.9-0.3
			c-0.3-0.2-0.5-0.4-0.6-0.7s-0.2-0.7-0.2-1.1c0-0.7,0.2-1.2,0.5-1.5c0.3-0.4,0.8-0.6,1.3-0.6c0.6,0,1,0.2,1.3,0.6
			S140.9,18.9,140.9,19.6z M137.7,19.6c0,0.6,0.1,1,0.4,1.3s0.6,0.5,1,0.5s0.8-0.2,1-0.5s0.4-0.7,0.4-1.3c0-0.6-0.1-1-0.4-1.3
			s-0.6-0.5-1-0.5c-0.4,0-0.8,0.2-1,0.5S137.7,19,137.7,19.6z"/>
		<path class="st5" d="M144.6,17.9h-1.3v3.7h-0.4v-3.7h-1.4v-0.3h3.1V17.9z"/>
		<path class="st5" d="M148.7,19.6c0,0.7-0.2,1.2-0.5,1.5c-0.3,0.4-0.8,0.6-1.3,0.6c-0.4,0-0.7-0.1-0.9-0.3
			c-0.3-0.2-0.5-0.4-0.6-0.7s-0.2-0.7-0.2-1.1c0-0.7,0.2-1.2,0.5-1.5c0.3-0.4,0.8-0.6,1.3-0.6c0.6,0,1,0.2,1.3,0.6
			S148.7,18.9,148.7,19.6z M145.6,19.6c0,0.6,0.1,1,0.4,1.3s0.6,0.5,1,0.5s0.8-0.2,1-0.5s0.4-0.7,0.4-1.3c0-0.6-0.1-1-0.4-1.3
			s-0.6-0.5-1-0.5c-0.4,0-0.8,0.2-1,0.5S145.6,19,145.6,19.6z"/>
		<path class="st5" d="M153,18.5c0,0.3-0.1,0.5-0.2,0.6c-0.1,0.1-0.3,0.2-0.6,0.3v0c0.3,0,0.6,0.1,0.7,0.3c0.1,0.1,0.2,0.4,0.2,0.6
			c0,0.4-0.1,0.7-0.4,0.9c-0.3,0.2-0.6,0.3-1.1,0.3h-1.7v-4h1.7c0.5,0,0.8,0.1,1,0.2C152.8,18,153,18.2,153,18.5z M152.6,18.5
			c0-0.2-0.1-0.4-0.3-0.5c-0.2-0.1-0.4-0.2-0.8-0.2h-1.3v1.4h1.3c0.4,0,0.6-0.1,0.8-0.2C152.5,19,152.6,18.8,152.6,18.5z
			 M152.7,20.4c0-0.5-0.4-0.7-1.1-0.7h-1.3v1.6h1.4C152.3,21.2,152.7,20.9,152.7,20.4z"/>
		<path class="st5" d="M157.5,19.6c0,0.7-0.2,1.2-0.5,1.5c-0.3,0.4-0.8,0.6-1.3,0.6c-0.4,0-0.7-0.1-0.9-0.3
			c-0.3-0.2-0.5-0.4-0.6-0.7s-0.2-0.7-0.2-1.1c0-0.7,0.2-1.2,0.5-1.5c0.3-0.4,0.8-0.6,1.3-0.6c0.6,0,1,0.2,1.3,0.6
			S157.5,18.9,157.5,19.6z M154.3,19.6c0,0.6,0.1,1,0.4,1.3s0.6,0.5,1,0.5s0.8-0.2,1-0.5s0.4-0.7,0.4-1.3c0-0.6-0.1-1-0.4-1.3
			s-0.6-0.5-1-0.5c-0.4,0-0.8,0.2-1,0.5S154.3,19,154.3,19.6z"/>
	</g>
</g>
<g id="incomplete_1_">
	<circle class="st5" cx="37.4" cy="19.5" r="10"/>
	<rect x="48.5" y="16.2" class="st3" width="44.7" height="16.5"/>
	<g class="st4">
		<path class="st5" d="M52.6,20c0,0.7-0.2,1.2-0.5,1.5c-0.3,0.4-0.8,0.6-1.3,0.6c-0.4,0-0.7-0.1-0.9-0.3c-0.3-0.2-0.5-0.4-0.6-0.7
			S49,20.4,49,20c0-0.7,0.2-1.2,0.5-1.5c0.3-0.4,0.8-0.6,1.3-0.6c0.6,0,1,0.2,1.3,0.6S52.6,19.4,52.6,20z M49.4,20
			c0,0.6,0.1,1,0.4,1.3s0.6,0.5,1,0.5s0.8-0.2,1-0.5s0.4-0.7,0.4-1.3c0-0.6-0.1-1-0.4-1.3s-0.6-0.5-1-0.5c-0.4,0-0.8,0.2-1,0.5
			S49.4,19.4,49.4,20z"/>
		<path class="st5" d="M55.4,18h0.4v2l1.7-2h0.4l-1.7,2l1.9,2.1h-0.5l-1.8-2v2h-0.4v-2l-1.8,2h-0.5l1.9-2.1l-1.7-2h0.4l1.7,2V18z"/>
		<path class="st5" d="M59.1,18v2.9l0,0.8l2.4-3.7H62v4h-0.4v-2.9l0-0.8L59.2,22h-0.5v-4H59.1z"/>
		<path class="st5" d="M66.6,23.4h-0.4V22h-3.1v1.4h-0.4v-1.7h0.3c0.3-0.5,0.6-1,0.8-1.6c0.2-0.6,0.3-1.3,0.3-2h1.9v3.7h0.5V23.4z
			 M65.7,21.7v-3.3h-1.3c-0.1,1.3-0.4,2.5-1,3.3H65.7z"/>
		<path class="st5" d="M69.9,22l-0.1-0.6h0c-0.2,0.3-0.4,0.4-0.6,0.6c-0.2,0.1-0.5,0.2-0.8,0.2c-0.4,0-0.7-0.1-0.9-0.3
			c-0.2-0.2-0.3-0.5-0.3-0.8c0-0.4,0.2-0.7,0.5-0.9c0.3-0.2,0.8-0.3,1.4-0.3l0.8,0v-0.3c0-0.4-0.1-0.7-0.2-0.9
			c-0.2-0.2-0.4-0.3-0.8-0.3c-0.4,0-0.8,0.1-1.2,0.3l-0.1-0.3c0.4-0.2,0.9-0.3,1.3-0.3c0.4,0,0.8,0.1,1,0.3c0.2,0.2,0.3,0.6,0.3,1.1
			V22H69.9z M68.4,21.8c0.4,0,0.8-0.1,1-0.4c0.2-0.2,0.4-0.6,0.4-1V20l-0.7,0c-0.6,0-1,0.1-1.2,0.3c-0.2,0.2-0.4,0.4-0.4,0.7
			c0,0.3,0.1,0.4,0.2,0.6S68.2,21.8,68.4,21.8z"/>
		<path class="st5" d="M73.1,22.1c-0.6,0-1-0.2-1.4-0.5c-0.3-0.4-0.5-0.9-0.5-1.5c0-0.6,0.2-1.2,0.5-1.5c0.3-0.4,0.7-0.6,1.3-0.6
			c0.5,0,0.9,0.2,1.1,0.5c0.3,0.3,0.4,0.8,0.4,1.4v0.3h-2.9c0,0.6,0.1,1,0.4,1.3c0.3,0.3,0.6,0.4,1.1,0.4c0.2,0,0.4,0,0.6,0
			s0.4-0.1,0.7-0.2v0.3C74.2,21.9,74,22,73.8,22S73.4,22.1,73.1,22.1z M73,18.2c-0.4,0-0.7,0.1-0.9,0.4c-0.2,0.3-0.4,0.6-0.4,1.1
			h2.5c0-0.5-0.1-0.8-0.3-1.1C73.7,18.4,73.4,18.2,73,18.2z"/>
		<path class="st5" d="M78.2,18.3h-1.3V22h-0.4v-3.7h-1.4V18h3.1V18.3z"/>
	</g>
	<g>
		<g>
			<circle class="st2" cx="37.4" cy="19.4" r="5.6"/>
		</g>
		<line class="st2" x1="37.4" y1="19.5" x2="37.3" y2="22.9"/>
		<line class="st2" x1="37.3" y1="19.5" x2="39" y2="17.6"/>
		<path class="st2" d="M36.5,13.7c0-0.6,0.5-1.1,1.1-1.1s1.1,0.5,1.1,1.1"/>
	</g>
</g>
<g id="in_prosses_1_">
	<circle class="st6" cx="204.8" cy="19.5" r="10"/>
	<rect x="218.8" y="15.8" class="st3" width="44.7" height="16.5"/>
	<g class="st4">
		<path class="st5" d="M219.9,21.6h-0.4v-4h3.2v4h-0.4v-3.7h-2.5V21.6z"/>
		<path class="st5" d="M225.8,21.6c-0.6,0-1.1-0.2-1.4-0.7h0l0,0.3c0,0.2,0,0.4,0,0.6v1.5h-0.4v-5.9h0.3l0.1,0.6h0
			c0.3-0.4,0.7-0.7,1.3-0.7c0.5,0,1,0.2,1.2,0.5s0.4,0.9,0.4,1.6c0,0.7-0.2,1.2-0.5,1.5C226.7,21.5,226.3,21.6,225.8,21.6z
			 M225.8,21.3c0.4,0,0.7-0.2,1-0.5s0.3-0.7,0.3-1.3c0-1.2-0.4-1.8-1.3-1.8c-0.5,0-0.8,0.1-1,0.4c-0.2,0.3-0.3,0.7-0.3,1.3v0.1
			c0,0.6,0.1,1.1,0.3,1.4C225,21.2,225.3,21.3,225.8,21.3z"/>
		<path class="st5" d="M231.9,19.6c0,0.7-0.2,1.2-0.5,1.5c-0.3,0.4-0.8,0.6-1.3,0.6c-0.4,0-0.7-0.1-0.9-0.3
			c-0.3-0.2-0.5-0.4-0.6-0.7s-0.2-0.7-0.2-1.1c0-0.7,0.2-1.2,0.5-1.5c0.3-0.4,0.8-0.6,1.3-0.6c0.6,0,1,0.2,1.3,0.6
			S231.9,18.9,231.9,19.6z M228.7,19.6c0,0.6,0.1,1,0.4,1.3c0.2,0.3,0.6,0.5,1,0.5s0.8-0.2,1-0.5c0.2-0.3,0.4-0.7,0.4-1.3
			c0-0.6-0.1-1-0.4-1.3s-0.6-0.5-1-0.5s-0.8,0.2-1,0.5S228.7,19,228.7,19.6z"/>
		<path class="st5" d="M236.7,22.9h-0.4v-1.4H233v-4h0.4v3.7h2.4v-3.7h0.4v3.7h0.5V22.9z"/>
		<path class="st5" d="M239.2,21.6c-0.6,0-1-0.2-1.4-0.5s-0.5-0.9-0.5-1.5c0-0.6,0.2-1.2,0.5-1.5c0.3-0.4,0.7-0.6,1.3-0.6
			c0.5,0,0.9,0.2,1.1,0.5c0.3,0.3,0.4,0.8,0.4,1.4v0.3h-2.9c0,0.6,0.1,1,0.4,1.3c0.3,0.3,0.6,0.4,1.1,0.4c0.2,0,0.4,0,0.6,0
			c0.2,0,0.4-0.1,0.7-0.2v0.3c-0.2,0.1-0.4,0.2-0.6,0.2C239.6,21.6,239.4,21.6,239.2,21.6z M239.1,17.8c-0.4,0-0.7,0.1-0.9,0.4
			c-0.2,0.3-0.4,0.6-0.4,1.1h2.5c0-0.5-0.1-0.8-0.3-1.1S239.5,17.8,239.1,17.8z"/>
		<path class="st5" d="M243.4,21.6c-0.6,0-1-0.2-1.4-0.5c-0.3-0.4-0.5-0.9-0.5-1.5c0-0.7,0.2-1.2,0.5-1.6s0.8-0.6,1.4-0.6
			c0.3,0,0.7,0.1,1,0.2l-0.1,0.3c-0.3-0.1-0.7-0.2-0.9-0.2c-0.5,0-0.9,0.2-1.1,0.5s-0.4,0.7-0.4,1.3c0,0.5,0.1,1,0.4,1.3
			c0.3,0.3,0.6,0.5,1.1,0.5c0.4,0,0.7-0.1,1-0.2v0.3C244.1,21.6,243.8,21.6,243.4,21.6z"/>
		<path class="st5" d="M247,21.6c-0.6,0-1-0.2-1.4-0.5c-0.3-0.4-0.5-0.9-0.5-1.5c0-0.7,0.2-1.2,0.5-1.6s0.8-0.6,1.4-0.6
			c0.3,0,0.7,0.1,1,0.2l-0.1,0.3c-0.3-0.1-0.7-0.2-0.9-0.2c-0.5,0-0.9,0.2-1.1,0.5s-0.4,0.7-0.4,1.3c0,0.5,0.1,1,0.4,1.3
			c0.3,0.3,0.6,0.5,1.1,0.5c0.4,0,0.7-0.1,1-0.2v0.3C247.7,21.6,247.4,21.6,247,21.6z"/>
	</g>
	<g>
		<g>
			<line class="st2" x1="207.7" y1="14.3" x2="208.6" y2="16.3"/>
			<line class="st2" x1="206.5" y1="16.5" x2="208.6" y2="16.3"/>
		</g>
		<path class="st2" d="M201,16.5c1.1-1.3,2.9-2,4.7-1.7c1.1,0.2,2.1,0.7,2.9,1.5"/>
		<g>
			<line class="st2" x1="198.8" y1="20.1" x2="200.1" y2="18.3"/>
			<line class="st2" x1="201.4" y1="20.1" x2="200.1" y2="18.3"/>
		</g>
		<path class="st2" d="M204.2,24.8c-1.7-0.3-3.2-1.5-3.9-3.2c-0.4-1.1-0.5-2.2-0.2-3.2"/>
		<g>
			<line class="st2" x1="208.3" y1="24.9" x2="206.1" y2="24.8"/>
			<line class="st2" x1="207" y1="22.7" x2="206.1" y2="24.8"/>
		</g>
		<path class="st2" d="M209.5,17.6c0.7,1.7,0.5,3.8-0.7,5.4c-0.7,0.9-1.7,1.5-2.7,1.8"/>
	</g>
</g>
<g id="expired_1_">
	<circle class="st7" cx="280.3" cy="19.5" r="10"/>
	<rect x="293.2" y="15.8" class="st3" width="75.7" height="16.5"/>
	<g class="st4">
		<path class="st5" d="M294.2,21.6h-0.4v-4h3.2v4h-0.4v-3.7h-2.5V21.6z"/>
		<path class="st5" d="M300.2,21.6c-0.6,0-1.1-0.2-1.4-0.7h0l0,0.3c0,0.2,0,0.4,0,0.6v1.5h-0.4v-5.9h0.3l0.1,0.6h0
			c0.3-0.4,0.7-0.7,1.3-0.7c0.5,0,1,0.2,1.2,0.5s0.4,0.9,0.4,1.6c0,0.7-0.2,1.2-0.5,1.5C301.1,21.5,300.7,21.6,300.2,21.6z
			 M300.2,21.3c0.4,0,0.7-0.2,1-0.5s0.3-0.7,0.3-1.3c0-1.2-0.4-1.8-1.3-1.8c-0.5,0-0.8,0.1-1,0.4c-0.2,0.3-0.3,0.7-0.3,1.3v0.1
			c0,0.6,0.1,1.1,0.3,1.4C299.3,21.2,299.7,21.3,300.2,21.3z"/>
		<path class="st5" d="M306.3,19.6c0,0.7-0.2,1.2-0.5,1.5c-0.3,0.4-0.8,0.6-1.3,0.6c-0.4,0-0.7-0.1-0.9-0.3
			c-0.3-0.2-0.5-0.4-0.6-0.7s-0.2-0.7-0.2-1.1c0-0.7,0.2-1.2,0.5-1.5c0.3-0.4,0.8-0.6,1.3-0.6c0.6,0,1,0.2,1.3,0.6
			S306.3,18.9,306.3,19.6z M303.1,19.6c0,0.6,0.1,1,0.4,1.3c0.2,0.3,0.6,0.5,1,0.5s0.8-0.2,1-0.5c0.2-0.3,0.4-0.7,0.4-1.3
			c0-0.6-0.1-1-0.4-1.3s-0.6-0.5-1-0.5s-0.8,0.2-1,0.5S303.1,19,303.1,19.6z"/>
		<path class="st5" d="M309,21.6c-0.6,0-1-0.2-1.4-0.5c-0.3-0.4-0.5-0.9-0.5-1.5c0-0.7,0.2-1.2,0.5-1.6s0.8-0.6,1.4-0.6
			c0.3,0,0.7,0.1,1,0.2L310,18c-0.3-0.1-0.7-0.2-0.9-0.2c-0.5,0-0.9,0.2-1.1,0.5s-0.4,0.7-0.4,1.3c0,0.5,0.1,1,0.4,1.3
			c0.3,0.3,0.6,0.5,1.1,0.5c0.4,0,0.7-0.1,1-0.2v0.3C309.8,21.6,309.5,21.6,309,21.6z"/>
		<path class="st5" d="M312.8,21.6c-0.6,0-1.1-0.2-1.4-0.7h0l0,0.3c0,0.2,0,0.4,0,0.6v1.5H311v-5.9h0.3l0.1,0.6h0
			c0.3-0.4,0.7-0.7,1.3-0.7c0.5,0,1,0.2,1.2,0.5s0.4,0.9,0.4,1.6c0,0.7-0.2,1.2-0.5,1.5C313.7,21.5,313.3,21.6,312.8,21.6z
			 M312.8,21.3c0.4,0,0.7-0.2,1-0.5s0.3-0.7,0.3-1.3c0-1.2-0.4-1.8-1.3-1.8c-0.5,0-0.8,0.1-1,0.4c-0.2,0.3-0.3,0.7-0.3,1.3v0.1
			c0,0.6,0.1,1.1,0.3,1.4C311.9,21.2,312.3,21.3,312.8,21.3z"/>
		<path class="st5" d="M318.9,19.6c0,0.7-0.2,1.2-0.5,1.5c-0.3,0.4-0.8,0.6-1.3,0.6c-0.4,0-0.7-0.1-0.9-0.3
			c-0.3-0.2-0.5-0.4-0.6-0.7s-0.2-0.7-0.2-1.1c0-0.7,0.2-1.2,0.5-1.5c0.3-0.4,0.8-0.6,1.3-0.6c0.6,0,1,0.2,1.3,0.6
			S318.9,18.9,318.9,19.6z M315.7,19.6c0,0.6,0.1,1,0.4,1.3c0.2,0.3,0.6,0.5,1,0.5s0.8-0.2,1-0.5c0.2-0.3,0.4-0.7,0.4-1.3
			c0-0.6-0.1-1-0.4-1.3s-0.6-0.5-1-0.5s-0.8,0.2-1,0.5S315.7,19,315.7,19.6z"/>
		<path class="st5" d="M320.3,17.5v1.4c0,0.3,0.1,0.6,0.2,0.7c0.2,0.2,0.4,0.2,0.8,0.2c0.2,0,0.5,0,0.7-0.1c0.2-0.1,0.4-0.2,0.7-0.4
			v-1.8h0.4v4h-0.4v-1.9c-0.2,0.2-0.5,0.3-0.7,0.4c-0.2,0.1-0.5,0.1-0.8,0.1c-0.4,0-0.7-0.1-0.9-0.3c-0.2-0.2-0.3-0.5-0.3-0.9v-1.4
			H320.3z"/>
		<path class="st5" d="M326,21.6c-0.6,0-1-0.2-1.4-0.5s-0.5-0.9-0.5-1.5c0-0.6,0.2-1.2,0.5-1.5c0.3-0.4,0.7-0.6,1.3-0.6
			c0.5,0,0.9,0.2,1.1,0.5c0.3,0.3,0.4,0.8,0.4,1.4v0.3h-2.9c0,0.6,0.1,1,0.4,1.3c0.3,0.3,0.6,0.4,1.1,0.4c0.2,0,0.4,0,0.6,0
			c0.2,0,0.4-0.1,0.7-0.2v0.3c-0.2,0.1-0.4,0.2-0.6,0.2C326.5,21.6,326.3,21.6,326,21.6z M325.9,17.8c-0.4,0-0.7,0.1-0.9,0.4
			c-0.2,0.3-0.4,0.6-0.4,1.1h2.5c0-0.5-0.1-0.8-0.3-1.1S326.3,17.8,325.9,17.8z"/>
		<path class="st5" d="M329,17.5v1.8h2.6v-1.8h0.4v4h-0.4v-1.9H329v1.9h-0.4v-4H329z"/>
		<path class="st5" d="M336.6,19.6c0,0.7-0.2,1.2-0.5,1.5s-0.8,0.6-1.3,0.6c-0.4,0-0.7-0.1-0.9-0.3s-0.5-0.4-0.6-0.7
			S333,20,333,19.6c0-0.7,0.2-1.2,0.5-1.5c0.3-0.4,0.8-0.6,1.3-0.6c0.6,0,1,0.2,1.3,0.6S336.6,18.9,336.6,19.6z M333.4,19.6
			c0,0.6,0.1,1,0.4,1.3c0.2,0.3,0.6,0.5,1,0.5s0.8-0.2,1-0.5c0.2-0.3,0.4-0.7,0.4-1.3c0-0.6-0.1-1-0.4-1.3s-0.6-0.5-1-0.5
			c-0.4,0-0.8,0.2-1,0.5S333.4,19,333.4,19.6z"/>
	</g>
	<g>
		<g>
			<path class="st0" d="M281.4,19.6c-0.5-1.1-0.2-1.7,0.2-2.3c0.4-0.6,0.6-1.3,0.6-1.3s0.3,0.4,0.2,1.2c0.6-0.7,0.7-1.8,0.6-2.2
				c1.4,1,2,3.1,1.2,4.6c4.2-2.4,1.1-6,0.5-6.4c0.2,0.4,0.2,1.1-0.2,1.4c-0.6-2.4-2.2-2.9-2.2-2.9c0.2,1.2-0.7,2.6-1.5,3.6
				c0-0.5-0.1-0.8-0.3-1.3c-0.1,0.9-0.7,1.6-0.9,2.5C279.3,17.8,279.7,18.7,281.4,19.6z"/>
		</g>
		<path class="st2" d="M285.1,20.5c0,0.2-0.1,0.5-0.2,0.7c-0.6,2-2.4,3.4-4.6,3.4c-2.6,0-4.8-2.1-4.8-4.8c0-2.1,1.4-3.9,3.2-4.5"/>
	</g>
</g>
</svg>
