<?xml version="1.0" encoding="utf-8"?>
<!-- Generator: Adobe Illustrator 19.2.1, SVG Export Plug-In . SVG Version: 6.00 Build 0)  -->
<svg version="1.1" id="Слой_1" xmlns="http://www.w3.org/2000/svg" xmlns:xlink="http://www.w3.org/1999/xlink" x="0px" y="0px"
	 viewBox="0 0 423.9 167" style="enable-background:new 0 0 423.9 167;" xml:space="preserve">
<style type="text/css">
	.st0{fill:#FFFFFF;}
	.st1{fill:none;stroke:#B9BBBC;stroke-width:0.8943;stroke-linecap:round;stroke-linejoin:round;stroke-miterlimit:10;}
	.st2{fill:none;}
	.st3{enable-background:new    ;}
	.st4{fill:#B9BBBC;}
	.st5{fill:#B9BBBC;stroke:#B9BBBC;stroke-width:0.8943;stroke-linecap:round;stroke-linejoin:round;stroke-miterlimit:10;}
	.st6{fill:none;stroke:#B9BBBC;stroke-linecap:round;stroke-linejoin:round;stroke-miterlimit:10;}
	.st7{fill:#F1F1F1;}
	.st8{fill:#B7B9BA;}
	.st9{fill:none;stroke:#B7B9BA;stroke-width:0.8943;stroke-linecap:round;stroke-linejoin:round;stroke-miterlimit:10;}
	.st10{fill:none;stroke:#BBBBBB;stroke-width:0.5;stroke-linecap:round;stroke-linejoin:round;stroke-miterlimit:10;}
	.st11{fill:#BBBBBB;}
	.st12{fill:none;stroke:#B7B9BA;stroke-width:0.5;stroke-linecap:round;stroke-linejoin:round;stroke-miterlimit:10;}
</style>
<rect class="st0" width="423" height="167"/>
<g id="status_x5F_menu_1_">
	<g id="completed_1_">
		<g>
			<circle class="st1" cx="121.2" cy="19" r="5.6"/>
			<line class="st1" x1="120.8" y1="20.8" x2="124.4" y2="17.3"/>
			<line class="st1" x1="120.8" y1="20.9" x2="119" y2="19.1"/>
		</g>
		<rect x="133.7" y="15.8" class="st2" width="44.7" height="16.5"/>
		<g class="st3">
			<path class="st4" d="M136.7,17.9h-2v3.7h-0.4v-4h2.4V17.9z"/>
			<path class="st4" d="M140.9,19.6c0,0.7-0.2,1.2-0.5,1.5c-0.3,0.4-0.8,0.6-1.3,0.6c-0.4,0-0.7-0.1-0.9-0.3
				c-0.3-0.2-0.5-0.4-0.6-0.7s-0.2-0.7-0.2-1.1c0-0.7,0.2-1.2,0.5-1.5c0.3-0.4,0.8-0.6,1.3-0.6c0.6,0,1,0.2,1.3,0.6
				S140.9,18.9,140.9,19.6z M137.7,19.6c0,0.6,0.1,1,0.4,1.3s0.6,0.5,1,0.5s0.8-0.2,1-0.5s0.4-0.7,0.4-1.3c0-0.6-0.1-1-0.4-1.3
				s-0.6-0.5-1-0.5c-0.4,0-0.8,0.2-1,0.5S137.7,19,137.7,19.6z"/>
			<path class="st4" d="M144.6,17.9h-1.3v3.7h-0.4v-3.7h-1.4v-0.3h3.1V17.9z"/>
			<path class="st4" d="M148.7,19.6c0,0.7-0.2,1.2-0.5,1.5c-0.3,0.4-0.8,0.6-1.3,0.6c-0.4,0-0.7-0.1-0.9-0.3
				c-0.3-0.2-0.5-0.4-0.6-0.7s-0.2-0.7-0.2-1.1c0-0.7,0.2-1.2,0.5-1.5c0.3-0.4,0.8-0.6,1.3-0.6c0.6,0,1,0.2,1.3,0.6
				S148.7,18.9,148.7,19.6z M145.6,19.6c0,0.6,0.1,1,0.4,1.3s0.6,0.5,1,0.5s0.8-0.2,1-0.5s0.4-0.7,0.4-1.3c0-0.6-0.1-1-0.4-1.3
				s-0.6-0.5-1-0.5c-0.4,0-0.8,0.2-1,0.5S145.6,19,145.6,19.6z"/>
			<path class="st4" d="M153,18.5c0,0.3-0.1,0.5-0.2,0.6c-0.1,0.1-0.3,0.2-0.6,0.3v0c0.3,0,0.6,0.1,0.7,0.3c0.1,0.1,0.2,0.4,0.2,0.6
				c0,0.4-0.1,0.7-0.4,0.9c-0.3,0.2-0.6,0.3-1.1,0.3h-1.7v-4h1.7c0.5,0,0.8,0.1,1,0.2C152.8,18,153,18.2,153,18.5z M152.6,18.5
				c0-0.2-0.1-0.4-0.3-0.5c-0.2-0.1-0.4-0.2-0.8-0.2h-1.3v1.4h1.3c0.4,0,0.6-0.1,0.8-0.2C152.5,19,152.6,18.8,152.6,18.5z
				 M152.7,20.4c0-0.5-0.4-0.7-1.1-0.7h-1.3v1.6h1.4C152.3,21.2,152.7,20.9,152.7,20.4z"/>
			<path class="st4" d="M157.5,19.6c0,0.7-0.2,1.2-0.5,1.5c-0.3,0.4-0.8,0.6-1.3,0.6c-0.4,0-0.7-0.1-0.9-0.3
				c-0.3-0.2-0.5-0.4-0.6-0.7s-0.2-0.7-0.2-1.1c0-0.7,0.2-1.2,0.5-1.5c0.3-0.4,0.8-0.6,1.3-0.6c0.6,0,1,0.2,1.3,0.6
				S157.5,18.9,157.5,19.6z M154.3,19.6c0,0.6,0.1,1,0.4,1.3s0.6,0.5,1,0.5s0.8-0.2,1-0.5s0.4-0.7,0.4-1.3c0-0.6-0.1-1-0.4-1.3
				s-0.6-0.5-1-0.5c-0.4,0-0.8,0.2-1,0.5S154.3,19,154.3,19.6z"/>
		</g>
	</g>
	<g id="incomplete_1_">
		<rect x="48.5" y="16.2" class="st2" width="44.7" height="16.5"/>
		<g class="st3">
			<path class="st4" d="M52.6,20c0,0.7-0.2,1.2-0.5,1.5c-0.3,0.4-0.8,0.6-1.3,0.6c-0.4,0-0.7-0.1-0.9-0.3c-0.3-0.2-0.5-0.4-0.6-0.7
				S49,20.4,49,20c0-0.7,0.2-1.2,0.5-1.5c0.3-0.4,0.8-0.6,1.3-0.6c0.6,0,1,0.2,1.3,0.6S52.6,19.4,52.6,20z M49.4,20
				c0,0.6,0.1,1,0.4,1.3s0.6,0.5,1,0.5s0.8-0.2,1-0.5s0.4-0.7,0.4-1.3c0-0.6-0.1-1-0.4-1.3s-0.6-0.5-1-0.5c-0.4,0-0.8,0.2-1,0.5
				S49.4,19.4,49.4,20z"/>
			<path class="st4" d="M55.4,18h0.4v2l1.7-2h0.4l-1.7,2l1.9,2.1h-0.5l-1.8-2v2h-0.4v-2l-1.8,2h-0.5l1.9-2.1l-1.7-2h0.4l1.7,2V18z"
				/>
			<path class="st4" d="M59.1,18v2.9l0,0.8l2.4-3.7H62v4h-0.4v-2.9l0-0.8L59.2,22h-0.5v-4H59.1z"/>
			<path class="st4" d="M66.6,23.4h-0.4V22h-3.1v1.4h-0.4v-1.7h0.3c0.3-0.5,0.6-1,0.8-1.6c0.2-0.6,0.3-1.3,0.3-2h1.9v3.7h0.5V23.4z
				 M65.7,21.7v-3.3h-1.3c-0.1,1.3-0.4,2.5-1,3.3H65.7z"/>
			<path class="st4" d="M69.9,22l-0.1-0.6h0c-0.2,0.3-0.4,0.4-0.6,0.6c-0.2,0.1-0.5,0.2-0.8,0.2c-0.4,0-0.7-0.1-0.9-0.3
				c-0.2-0.2-0.3-0.5-0.3-0.8c0-0.4,0.2-0.7,0.5-0.9c0.3-0.2,0.8-0.3,1.4-0.3l0.8,0v-0.3c0-0.4-0.1-0.7-0.2-0.9
				c-0.2-0.2-0.4-0.3-0.8-0.3c-0.4,0-0.8,0.1-1.2,0.3l-0.1-0.3c0.4-0.2,0.9-0.3,1.3-0.3c0.4,0,0.8,0.1,1,0.3
				c0.2,0.2,0.3,0.6,0.3,1.1V22H69.9z M68.4,21.8c0.4,0,0.8-0.1,1-0.4c0.2-0.2,0.4-0.6,0.4-1V20l-0.7,0c-0.6,0-1,0.1-1.2,0.3
				c-0.2,0.2-0.4,0.4-0.4,0.7c0,0.3,0.1,0.4,0.2,0.6S68.2,21.8,68.4,21.8z"/>
			<path class="st4" d="M76.4,20c0,0.7-0.1,1.2-0.4,1.5c-0.3,0.4-0.7,0.6-1.2,0.6c-0.5,0-0.9-0.2-1.2-0.5c-0.3-0.4-0.4-0.9-0.5-1.5
				h-1.3V22h-0.4v-4h0.4v1.8h1.3c0-0.6,0.2-1,0.5-1.4c0.3-0.3,0.7-0.5,1.2-0.5c0.5,0,0.9,0.2,1.2,0.6C76.3,18.8,76.4,19.4,76.4,20z
				 M73.6,20c0,0.6,0.1,1,0.3,1.3c0.2,0.3,0.5,0.5,0.9,0.5s0.7-0.2,0.9-0.5c0.2-0.3,0.3-0.7,0.3-1.3c0-0.6-0.1-1-0.3-1.3
				c-0.2-0.3-0.5-0.5-0.9-0.5c-0.4,0-0.7,0.2-0.9,0.5S73.6,19.4,73.6,20z"/>
			<path class="st4" d="M80.1,18.3h-1.3V22h-0.4v-3.7H77V18h3.1V18.3z"/>
		</g>
		<g>
			<g>
				<circle class="st1" cx="37.4" cy="19.4" r="5.6"/>
			</g>
			<line class="st1" x1="37.4" y1="19.5" x2="37.3" y2="22.9"/>
			<line class="st1" x1="37.3" y1="19.5" x2="39" y2="17.6"/>
			<path class="st1" d="M36.5,13.7c0-0.6,0.5-1.1,1.1-1.1s1.1,0.5,1.1,1.1"/>
		</g>
	</g>
	<g id="in_prosses_1_">
		<rect x="218.8" y="15.8" class="st2" width="44.7" height="16.5"/>
		<g class="st3">
			<path class="st4" d="M219.9,21.6h-0.4v-4h3.2v4h-0.4v-3.7h-2.5V21.6z"/>
			<path class="st4" d="M225.8,21.6c-0.6,0-1.1-0.2-1.4-0.7h0l0,0.3c0,0.2,0,0.4,0,0.6v1.5h-0.4v-5.9h0.3l0.1,0.6h0
				c0.3-0.4,0.7-0.7,1.3-0.7c0.5,0,1,0.2,1.2,0.5s0.4,0.9,0.4,1.6c0,0.7-0.2,1.2-0.5,1.5C226.7,21.5,226.3,21.6,225.8,21.6z
				 M225.8,21.3c0.4,0,0.7-0.2,1-0.5s0.3-0.7,0.3-1.3c0-1.2-0.4-1.8-1.3-1.8c-0.5,0-0.8,0.1-1,0.4c-0.2,0.3-0.3,0.7-0.3,1.3v0.1
				c0,0.6,0.1,1.1,0.3,1.4C225,21.2,225.3,21.3,225.8,21.3z"/>
			<path class="st4" d="M231.9,19.6c0,0.7-0.2,1.2-0.5,1.5c-0.3,0.4-0.8,0.6-1.3,0.6c-0.4,0-0.7-0.1-0.9-0.3
				c-0.3-0.2-0.5-0.4-0.6-0.7s-0.2-0.7-0.2-1.1c0-0.7,0.2-1.2,0.5-1.5c0.3-0.4,0.8-0.6,1.3-0.6c0.6,0,1,0.2,1.3,0.6
				S231.9,18.9,231.9,19.6z M228.7,19.6c0,0.6,0.1,1,0.4,1.3c0.2,0.3,0.6,0.5,1,0.5s0.8-0.2,1-0.5c0.2-0.3,0.4-0.7,0.4-1.3
				c0-0.6-0.1-1-0.4-1.3s-0.6-0.5-1-0.5s-0.8,0.2-1,0.5S228.7,19,228.7,19.6z"/>
			<path class="st4" d="M236.7,22.9h-0.4v-1.4H233v-4h0.4v3.7h2.4v-3.7h0.4v3.7h0.5V22.9z"/>
			<path class="st4" d="M239.2,21.6c-0.6,0-1-0.2-1.4-0.5s-0.5-0.9-0.5-1.5c0-0.6,0.2-1.2,0.5-1.5c0.3-0.4,0.7-0.6,1.3-0.6
				c0.5,0,0.9,0.2,1.1,0.5c0.3,0.3,0.4,0.8,0.4,1.4v0.3h-2.9c0,0.6,0.1,1,0.4,1.3c0.3,0.3,0.6,0.4,1.1,0.4c0.2,0,0.4,0,0.6,0
				c0.2,0,0.4-0.1,0.7-0.2v0.3c-0.2,0.1-0.4,0.2-0.6,0.2C239.6,21.6,239.4,21.6,239.2,21.6z M239.1,17.8c-0.4,0-0.7,0.1-0.9,0.4
				c-0.2,0.3-0.4,0.6-0.4,1.1h2.5c0-0.5-0.1-0.8-0.3-1.1S239.5,17.8,239.1,17.8z"/>
			<path class="st4" d="M243.4,21.6c-0.6,0-1-0.2-1.4-0.5c-0.3-0.4-0.5-0.9-0.5-1.5c0-0.7,0.2-1.2,0.5-1.6s0.8-0.6,1.4-0.6
				c0.3,0,0.7,0.1,1,0.2l-0.1,0.3c-0.3-0.1-0.7-0.2-0.9-0.2c-0.5,0-0.9,0.2-1.1,0.5s-0.4,0.7-0.4,1.3c0,0.5,0.1,1,0.4,1.3
				c0.3,0.3,0.6,0.5,1.1,0.5c0.4,0,0.7-0.1,1-0.2v0.3C244.1,21.6,243.8,21.6,243.4,21.6z"/>
			<path class="st4" d="M247,21.6c-0.6,0-1-0.2-1.4-0.5c-0.3-0.4-0.5-0.9-0.5-1.5c0-0.7,0.2-1.2,0.5-1.6s0.8-0.6,1.4-0.6
				c0.3,0,0.7,0.1,1,0.2l-0.1,0.3c-0.3-0.1-0.7-0.2-0.9-0.2c-0.5,0-0.9,0.2-1.1,0.5s-0.4,0.7-0.4,1.3c0,0.5,0.1,1,0.4,1.3
				c0.3,0.3,0.6,0.5,1.1,0.5c0.4,0,0.7-0.1,1-0.2v0.3C247.7,21.6,247.4,21.6,247,21.6z"/>
		</g>
		<g>
			<g>
				<line class="st1" x1="207.7" y1="13.3" x2="208.6" y2="15.3"/>
				<line class="st1" x1="206.5" y1="15.5" x2="208.6" y2="15.3"/>
			</g>
			<path class="st1" d="M201,15.5c1.1-1.3,2.9-2,4.7-1.7c1.1,0.2,2.1,0.7,2.9,1.5"/>
			<g>
				<line class="st1" x1="198.8" y1="19.1" x2="200.1" y2="17.3"/>
				<line class="st1" x1="201.4" y1="19.1" x2="200.1" y2="17.3"/>
			</g>
			<path class="st1" d="M204.2,23.8c-1.7-0.3-3.2-1.5-3.9-3.2c-0.4-1.1-0.5-2.2-0.2-3.2"/>
			<g>
				<line class="st1" x1="208.3" y1="23.9" x2="206.1" y2="23.8"/>
				<line class="st1" x1="207" y1="21.7" x2="206.1" y2="23.8"/>
			</g>
			<path class="st1" d="M209.5,16.6c0.7,1.7,0.5,3.8-0.7,5.4c-0.7,0.9-1.7,1.5-2.7,1.8"/>
		</g>
	</g>
	<g id="expired_1_">
		<rect x="293.2" y="15.8" class="st2" width="55.7" height="16.5"/>
		<g class="st3">
			<path class="st4" d="M294.2,21.6h-0.4v-4h3.2v4h-0.4v-3.7h-2.5V21.6z"/>
			<path class="st4" d="M300.2,21.6c-0.6,0-1.1-0.2-1.4-0.7h0l0,0.3c0,0.2,0,0.4,0,0.6v1.5h-0.4v-5.9h0.3l0.1,0.6h0
				c0.3-0.4,0.7-0.7,1.3-0.7c0.5,0,1,0.2,1.2,0.5s0.4,0.9,0.4,1.6c0,0.7-0.2,1.2-0.5,1.5C301.1,21.5,300.7,21.6,300.2,21.6z
				 M300.2,21.3c0.4,0,0.7-0.2,1-0.5s0.3-0.7,0.3-1.3c0-1.2-0.4-1.8-1.3-1.8c-0.5,0-0.8,0.1-1,0.4c-0.2,0.3-0.3,0.7-0.3,1.3v0.1
				c0,0.6,0.1,1.1,0.3,1.4C299.3,21.2,299.7,21.3,300.2,21.3z"/>
			<path class="st4" d="M306.3,19.6c0,0.7-0.2,1.2-0.5,1.5c-0.3,0.4-0.8,0.6-1.3,0.6c-0.4,0-0.7-0.1-0.9-0.3
				c-0.3-0.2-0.5-0.4-0.6-0.7s-0.2-0.7-0.2-1.1c0-0.7,0.2-1.2,0.5-1.5c0.3-0.4,0.8-0.6,1.3-0.6c0.6,0,1,0.2,1.3,0.6
				S306.3,18.9,306.3,19.6z M303.1,19.6c0,0.6,0.1,1,0.4,1.3c0.2,0.3,0.6,0.5,1,0.5s0.8-0.2,1-0.5c0.2-0.3,0.4-0.7,0.4-1.3
				c0-0.6-0.1-1-0.4-1.3s-0.6-0.5-1-0.5s-0.8,0.2-1,0.5S303.1,19,303.1,19.6z"/>
			<path class="st4" d="M309,21.6c-0.6,0-1-0.2-1.4-0.5c-0.3-0.4-0.5-0.9-0.5-1.5c0-0.7,0.2-1.2,0.5-1.6s0.8-0.6,1.4-0.6
				c0.3,0,0.7,0.1,1,0.2L310,18c-0.3-0.1-0.7-0.2-0.9-0.2c-0.5,0-0.9,0.2-1.1,0.5s-0.4,0.7-0.4,1.3c0,0.5,0.1,1,0.4,1.3
				c0.3,0.3,0.6,0.5,1.1,0.5c0.4,0,0.7-0.1,1-0.2v0.3C309.8,21.6,309.5,21.6,309,21.6z"/>
			<path class="st4" d="M312.8,21.6c-0.6,0-1.1-0.2-1.4-0.7h0l0,0.3c0,0.2,0,0.4,0,0.6v1.5H311v-5.9h0.3l0.1,0.6h0
				c0.3-0.4,0.7-0.7,1.3-0.7c0.5,0,1,0.2,1.2,0.5s0.4,0.9,0.4,1.6c0,0.7-0.2,1.2-0.5,1.5C313.7,21.5,313.3,21.6,312.8,21.6z
				 M312.8,21.3c0.4,0,0.7-0.2,1-0.5s0.3-0.7,0.3-1.3c0-1.2-0.4-1.8-1.3-1.8c-0.5,0-0.8,0.1-1,0.4c-0.2,0.3-0.3,0.7-0.3,1.3v0.1
				c0,0.6,0.1,1.1,0.3,1.4C311.9,21.2,312.3,21.3,312.8,21.3z"/>
			<path class="st4" d="M318.9,19.6c0,0.7-0.2,1.2-0.5,1.5c-0.3,0.4-0.8,0.6-1.3,0.6c-0.4,0-0.7-0.1-0.9-0.3
				c-0.3-0.2-0.5-0.4-0.6-0.7s-0.2-0.7-0.2-1.1c0-0.7,0.2-1.2,0.5-1.5c0.3-0.4,0.8-0.6,1.3-0.6c0.6,0,1,0.2,1.3,0.6
				S318.9,18.9,318.9,19.6z M315.7,19.6c0,0.6,0.1,1,0.4,1.3c0.2,0.3,0.6,0.5,1,0.5s0.8-0.2,1-0.5c0.2-0.3,0.4-0.7,0.4-1.3
				c0-0.6-0.1-1-0.4-1.3s-0.6-0.5-1-0.5s-0.8,0.2-1,0.5S315.7,19,315.7,19.6z"/>
			<path class="st4" d="M320.3,17.5v1.4c0,0.3,0.1,0.6,0.2,0.7c0.2,0.2,0.4,0.2,0.8,0.2c0.2,0,0.5,0,0.7-0.1
				c0.2-0.1,0.4-0.2,0.7-0.4v-1.8h0.4v4h-0.4v-1.9c-0.2,0.2-0.5,0.3-0.7,0.4c-0.2,0.1-0.5,0.1-0.8,0.1c-0.4,0-0.7-0.1-0.9-0.3
				c-0.2-0.2-0.3-0.5-0.3-0.9v-1.4H320.3z"/>
			<path class="st4" d="M326,21.6c-0.6,0-1-0.2-1.4-0.5s-0.5-0.9-0.5-1.5c0-0.6,0.2-1.2,0.5-1.5c0.3-0.4,0.7-0.6,1.3-0.6
				c0.5,0,0.9,0.2,1.1,0.5c0.3,0.3,0.4,0.8,0.4,1.4v0.3h-2.9c0,0.6,0.1,1,0.4,1.3c0.3,0.3,0.6,0.4,1.1,0.4c0.2,0,0.4,0,0.6,0
				c0.2,0,0.4-0.1,0.7-0.2v0.3c-0.2,0.1-0.4,0.2-0.6,0.2C326.5,21.6,326.3,21.6,326,21.6z M325.9,17.8c-0.4,0-0.7,0.1-0.9,0.4
				c-0.2,0.3-0.4,0.6-0.4,1.1h2.5c0-0.5-0.1-0.8-0.3-1.1S326.3,17.8,325.9,17.8z"/>
			<path class="st4" d="M329,17.5v1.8h2.6v-1.8h0.4v4h-0.4v-1.9H329v1.9h-0.4v-4H329z"/>
			<path class="st4" d="M333.6,17.5v1.8h2.6v-1.8h0.4v4h-0.4v-1.9h-2.6v1.9h-0.4v-4H333.6z"/>
			<path class="st4" d="M338.2,19.2h1.3c0.9,0,1.4,0.4,1.4,1.1c0,0.4-0.1,0.7-0.4,0.9s-0.6,0.3-1.1,0.3h-1.5v-4h0.4V19.2z
				 M338.2,19.6v1.6h1.2c0.3,0,0.6-0.1,0.8-0.2c0.2-0.1,0.3-0.4,0.3-0.7c0-0.3-0.1-0.5-0.2-0.6s-0.5-0.2-0.9-0.2H338.2z M342,21.6
				h-0.4v-4h0.4V21.6z"/>
			<path class="st4" d="M345,21.6c-0.6,0-1-0.2-1.4-0.5c-0.3-0.4-0.5-0.9-0.5-1.5c0-0.6,0.2-1.2,0.5-1.5c0.3-0.4,0.7-0.6,1.3-0.6
				c0.5,0,0.8,0.2,1.1,0.5c0.3,0.3,0.4,0.8,0.4,1.4v0.3h-2.9c0,0.6,0.1,1,0.4,1.3c0.3,0.3,0.6,0.4,1.1,0.4c0.2,0,0.4,0,0.6,0
				c0.2,0,0.4-0.1,0.7-0.2v0.3c-0.2,0.1-0.4,0.2-0.6,0.2C345.4,21.6,345.2,21.6,345,21.6z M344.9,17.8c-0.4,0-0.7,0.1-0.9,0.4
				c-0.2,0.3-0.4,0.6-0.4,1.1h2.5c0-0.5-0.1-0.8-0.3-1.1C345.5,17.9,345.3,17.8,344.9,17.8z"/>
		</g>
		<g>
			<g>
				<path class="st5" d="M281.4,19.6c-0.5-1.1-0.2-1.7,0.2-2.3c0.4-0.6,0.6-1.3,0.6-1.3s0.3,0.4,0.2,1.2c0.6-0.7,0.7-1.8,0.6-2.2
					c1.4,1,2,3.1,1.2,4.6c4.2-2.4,1.1-6,0.5-6.4c0.2,0.4,0.2,1.1-0.2,1.4c-0.6-2.4-2.2-2.9-2.2-2.9c0.2,1.2-0.7,2.6-1.5,3.6
					c0-0.5-0.1-0.8-0.3-1.3c-0.1,0.9-0.7,1.6-0.9,2.5C279.3,17.8,279.7,18.7,281.4,19.6z"/>
			</g>
			<path class="st1" d="M285.1,20.5c0,0.2-0.1,0.5-0.2,0.7c-0.6,2-2.4,3.4-4.6,3.4c-2.6,0-4.8-2.1-4.8-4.8c0-2.1,1.4-3.9,3.2-4.5"/>
		</g>
	</g>
	<g id="all_1_">
		<g>
			<rect x="371.2" y="15.3" class="st2" width="44.7" height="16.5"/>
			<g class="st3">
				<path class="st4" d="M375,18.1c0,0.3-0.1,0.5-0.2,0.6c-0.1,0.1-0.3,0.2-0.6,0.3v0c0.3,0,0.6,0.1,0.7,0.3
					c0.1,0.1,0.2,0.4,0.2,0.6c0,0.4-0.1,0.7-0.4,0.9c-0.3,0.2-0.6,0.3-1.1,0.3h-1.7v-4h1.7c0.5,0,0.8,0.1,1,0.2
					C374.9,17.5,375,17.7,375,18.1z M374.6,18.1c0-0.2-0.1-0.4-0.3-0.5c-0.2-0.1-0.4-0.2-0.8-0.2h-1.3v1.4h1.3
					c0.4,0,0.6-0.1,0.8-0.2C374.5,18.5,374.6,18.3,374.6,18.1z M374.7,19.9c0-0.5-0.4-0.7-1.1-0.7h-1.3v1.6h1.4
					C374.4,20.8,374.7,20.5,374.7,19.9z"/>
				<path class="st4" d="M377.8,21.2c-0.6,0-1-0.2-1.4-0.5c-0.3-0.4-0.5-0.9-0.5-1.5c0-0.7,0.2-1.2,0.5-1.6s0.8-0.6,1.4-0.6
					c0.3,0,0.7,0.1,1,0.2l-0.1,0.3c-0.3-0.1-0.7-0.2-0.9-0.2c-0.5,0-0.9,0.2-1.1,0.5s-0.4,0.7-0.4,1.3c0,0.5,0.1,1,0.4,1.3
					c0.3,0.3,0.6,0.5,1.1,0.5c0.4,0,0.7-0.1,1-0.2V21C378.6,21.1,378.2,21.2,377.8,21.2z"/>
				<path class="st4" d="M381.4,21.2c-0.6,0-1-0.2-1.4-0.5c-0.3-0.4-0.5-0.9-0.5-1.5c0-0.6,0.2-1.2,0.5-1.5c0.3-0.4,0.7-0.6,1.3-0.6
					c0.5,0,0.8,0.2,1.1,0.5c0.3,0.3,0.4,0.8,0.4,1.4v0.3H380c0,0.6,0.1,1,0.4,1.3c0.3,0.3,0.6,0.4,1.1,0.4c0.2,0,0.4,0,0.6,0
					c0.2,0,0.4-0.1,0.7-0.2v0.3c-0.2,0.1-0.4,0.2-0.6,0.2C381.9,21.2,381.7,21.2,381.4,21.2z M381.3,17.3c-0.4,0-0.7,0.1-0.9,0.4
					c-0.2,0.3-0.4,0.6-0.4,1.1h2.5c0-0.5-0.1-0.8-0.3-1.1C382,17.5,381.7,17.3,381.3,17.3z"/>
			</g>
		</g>
		<g>
			<g>
				<circle class="st1" cx="363.2" cy="15.9" r="2"/>
				<circle class="st1" cx="366.7" cy="21.3" r="2"/>
				<circle class="st1" cx="359.6" cy="21.3" r="2"/>
			</g>
		</g>
	</g>
</g>
<g>
	<rect x="20" y="121.6" class="st2" width="204.7" height="18.5"/>
	<g class="st3">
		<path class="st4" d="M27.5,132.9h-0.6v-2.2h-6.2v2.2h-0.6v-2.7h0.6c0.6-1,1.1-2.3,1.5-3.8s0.7-2.9,0.7-4.2h3.6v8h0.9V132.9z
			 M26,130.1v-7.4h-2.5c-0.1,1.2-0.3,2.6-0.7,4s-0.9,2.6-1.4,3.5H26z"/>
		<path class="st4" d="M34.2,127.5c0,1-0.3,1.9-0.8,2.4s-1.2,0.9-2.1,0.9c-0.6,0-1.1-0.1-1.5-0.4s-0.8-0.7-1-1.2s-0.3-1.1-0.3-1.7
			c0-1,0.3-1.8,0.8-2.4s1.2-0.9,2.1-0.9c0.9,0,1.6,0.3,2.1,0.9S34.2,126.5,34.2,127.5z M29.1,127.5c0,0.9,0.2,1.6,0.6,2
			s0.9,0.7,1.6,0.7s1.2-0.2,1.6-0.7s0.6-1.2,0.6-2c0-0.9-0.2-1.6-0.6-2s-0.9-0.7-1.6-0.7s-1.2,0.2-1.6,0.7S29.1,126.6,29.1,127.5z"
			/>
		<path class="st4" d="M35.6,126.9c0-2.8,0.8-4.3,2.3-4.7c0.5-0.1,1.1-0.3,1.6-0.3s0.9-0.2,1.3-0.3l0.1,0.5l-0.7,0.1
			c-1.2,0.2-1.9,0.4-2.3,0.5c-0.5,0.2-0.9,0.5-1.2,1.1s-0.5,1.4-0.5,2.4h0c0.4-0.5,0.8-0.9,1.2-1.1s0.8-0.3,1.2-0.3
			c0.8,0,1.4,0.3,1.8,0.8s0.6,1.2,0.6,2.2c0,1-0.2,1.8-0.7,2.3s-1.1,0.8-2,0.8c-0.9,0-1.6-0.3-2-1S35.6,128.1,35.6,126.9z
			 M38.4,130.3c0.7,0,1.2-0.2,1.5-0.7s0.5-1.1,0.5-1.9c0-0.8-0.2-1.4-0.5-1.8s-0.8-0.6-1.4-0.6c-0.5,0-0.9,0.1-1.3,0.4
			s-0.8,0.7-1.1,1.2c0,0.7,0.1,1.3,0.3,1.8s0.4,0.9,0.8,1.2S37.9,130.3,38.4,130.3z"/>
		<path class="st4" d="M46.7,130.7l-0.1-1h0c-0.3,0.4-0.6,0.7-1,0.9s-0.7,0.3-1.2,0.3c-0.6,0-1.1-0.2-1.5-0.5s-0.5-0.8-0.5-1.3
			c0-0.6,0.3-1.1,0.8-1.4s1.3-0.5,2.2-0.5l1.2,0v-0.4c0-0.6-0.1-1.1-0.4-1.4s-0.6-0.5-1.2-0.5c-0.6,0-1.2,0.2-1.8,0.5l-0.2-0.5
			c0.7-0.3,1.4-0.5,2.1-0.5c0.7,0,1.2,0.2,1.6,0.5s0.5,0.9,0.5,1.7v4.2H46.7z M44.3,130.3c0.7,0,1.2-0.2,1.6-0.6s0.6-0.9,0.6-1.6
			v-0.6l-1.1,0c-0.9,0-1.5,0.2-1.9,0.4s-0.6,0.6-0.6,1.1c0,0.4,0.1,0.7,0.4,0.9S43.9,130.3,44.3,130.3z"/>
		<path class="st4" d="M54.1,125.9c0,0.4-0.1,0.7-0.3,0.9s-0.5,0.4-1,0.5v0c0.5,0.1,0.9,0.2,1.1,0.4s0.3,0.6,0.3,1
			c0,0.6-0.2,1.1-0.6,1.4s-1,0.5-1.8,0.5h-2.7v-6.4h2.7c0.7,0,1.3,0.1,1.6,0.4S54.1,125.4,54.1,125.9z M53.5,125.9
			c0-0.4-0.1-0.6-0.4-0.8s-0.7-0.2-1.2-0.2h-2.1v2.2h2c0.6,0,1-0.1,1.3-0.3S53.5,126.3,53.5,125.9z M53.6,128.8
			c0-0.8-0.6-1.2-1.8-1.2h-2.1v2.5h2.2C53.1,130.2,53.6,129.7,53.6,128.8z"/>
		<path class="st4" d="M56.5,124.3v4.6l0,1.2l3.8-5.8H61v6.4h-0.6v-4.6l0-1.2l-3.8,5.8H56v-6.4H56.5z"/>
		<path class="st4" d="M67.2,124.8h-2.1v5.9h-0.6v-5.9h-2.2v-0.5h4.9V124.8z"/>
		<path class="st4" d="M69.1,127h2.2c1.5,0,2.2,0.6,2.2,1.8c0,0.6-0.2,1.1-0.6,1.4s-1,0.5-1.8,0.5h-2.6v-6.4h0.6V127z M69.1,127.6
			v2.6h2.2c0.6,0,1-0.1,1.3-0.4s0.4-0.6,0.4-1c0-0.4-0.1-0.7-0.4-0.9s-0.7-0.3-1.4-0.3H69.1z"/>
		<path class="st4" d="M79.7,127.1c1.2,0,1.7-0.4,1.7-1.2c0-0.4-0.1-0.7-0.4-0.9s-0.6-0.3-1.1-0.3c-0.3,0-0.6,0-0.9,0.1
			s-0.6,0.2-0.9,0.3l-0.2-0.5c0.7-0.3,1.3-0.5,2-0.5c0.7,0,1.2,0.1,1.6,0.4s0.5,0.7,0.5,1.2c0,0.7-0.4,1.2-1.1,1.4v0
			c0.5,0.1,0.8,0.3,1,0.6s0.3,0.6,0.3,1c0,0.6-0.2,1.1-0.6,1.4s-1,0.5-1.8,0.5c-0.4,0-0.8,0-1.1-0.1s-0.6-0.2-0.8-0.3v-0.6
			c0.4,0.2,0.8,0.3,1,0.4s0.6,0.1,0.9,0.1c0.6,0,1-0.1,1.4-0.4s0.5-0.6,0.5-1c0-0.4-0.2-0.8-0.5-1s-0.8-0.3-1.4-0.3h-0.9v-0.5H79.7z
			"/>
		<path class="st4" d="M87.8,130.7l-0.1-1h0c-0.3,0.4-0.6,0.7-1,0.9s-0.7,0.3-1.2,0.3c-0.6,0-1.1-0.2-1.5-0.5s-0.5-0.8-0.5-1.3
			c0-0.6,0.3-1.1,0.8-1.4s1.3-0.5,2.2-0.5l1.2,0v-0.4c0-0.6-0.1-1.1-0.4-1.4s-0.6-0.5-1.2-0.5c-0.6,0-1.2,0.2-1.8,0.5l-0.2-0.5
			c0.7-0.3,1.4-0.5,2.1-0.5c0.7,0,1.2,0.2,1.6,0.5s0.5,0.9,0.5,1.7v4.2H87.8z M85.4,130.3c0.7,0,1.2-0.2,1.6-0.6s0.6-0.9,0.6-1.6
			v-0.6l-1.1,0c-0.9,0-1.5,0.2-1.9,0.4S84,128.5,84,129c0,0.4,0.1,0.7,0.4,0.9S85,130.3,85.4,130.3z"/>
		<path class="st4" d="M95.4,132.9h-0.6v-2.2H90v2.2h-0.6v-2.7h0.4c0.5-0.7,0.9-1.6,1.2-2.6s0.4-2.1,0.5-3.2h3.1v5.8h0.8V132.9z
			 M94,130.2v-5.3h-2c-0.1,2.1-0.6,3.9-1.5,5.3H94z"/>
		<path class="st4" d="M100.7,130.7l-0.1-1h0c-0.3,0.4-0.6,0.7-1,0.9s-0.7,0.3-1.2,0.3c-0.6,0-1.1-0.2-1.5-0.5s-0.5-0.8-0.5-1.3
			c0-0.6,0.3-1.1,0.8-1.4s1.3-0.5,2.2-0.5l1.2,0v-0.4c0-0.6-0.1-1.1-0.4-1.4s-0.6-0.5-1.2-0.5c-0.6,0-1.2,0.2-1.8,0.5l-0.2-0.5
			c0.7-0.3,1.4-0.5,2.1-0.5c0.7,0,1.2,0.2,1.6,0.5s0.5,0.9,0.5,1.7v4.2H100.7z M98.3,130.3c0.7,0,1.2-0.2,1.6-0.6s0.6-0.9,0.6-1.6
			v-0.6l-1.1,0c-0.9,0-1.5,0.2-1.9,0.4s-0.6,0.6-0.6,1.1c0,0.4,0.1,0.7,0.4,0.9S97.9,130.3,98.3,130.3z"/>
		<path class="st4" d="M103.6,124.3v2.1c0,0.5,0.1,0.9,0.4,1.2s0.7,0.4,1.2,0.4c0.4,0,0.7-0.1,1.1-0.2s0.7-0.4,1.1-0.7v-2.8h0.6v6.4
			h-0.6v-3c-0.4,0.3-0.8,0.5-1.2,0.6s-0.8,0.2-1.2,0.2c-0.7,0-1.1-0.2-1.5-0.5s-0.5-0.8-0.5-1.5v-2.2H103.6z"/>
		<path class="st4" d="M109.1,124.3h0.6l1.3,3.6c0.4,1.1,0.7,1.8,0.8,2.2h0c0.2-0.5,0.4-1.3,0.8-2.3l1.3-3.5h0.6l-2.9,7.4
			c-0.2,0.6-0.4,1-0.6,1.2s-0.3,0.4-0.5,0.5s-0.5,0.2-0.8,0.2c-0.2,0-0.5,0-0.7-0.1V133c0.2,0.1,0.5,0.1,0.7,0.1
			c0.2,0,0.4,0,0.5-0.1s0.3-0.2,0.4-0.4s0.3-0.5,0.4-0.9s0.3-0.7,0.3-0.8L109.1,124.3z"/>
	</g>
	<g id="del_2px_small_11_">
		<line class="st6" x1="13.7" y1="136.5" x2="407.9" y2="136.5"/>
	</g>
	<g>
		<line class="st6" x1="401.9" y1="127.1" x2="389.1" y2="127.1"/>
		<polyline class="st6" points="398.5,130.7 402.1,127.1 398.5,123.6 		"/>
	</g>
</g>
<polygon class="st7" points="423.9,72.8 0.5,72.4 0.5,43.8 423.9,44.2 "/>
<g>
	<rect x="34.9" y="51.6" class="st2" width="183" height="16.5"/>
	<g class="st3">
		<path class="st8" d="M40.2,53.9c0,1-0.5,1.6-1.6,1.8v0c1.2,0.2,1.7,0.9,1.7,1.9c0,0.7-0.2,1.2-0.7,1.6c-0.5,0.4-1.2,0.6-2.1,0.6
			c-0.8,0-1.6-0.1-2.1-0.5v-0.5c0.3,0.2,0.7,0.3,1.1,0.4c0.4,0.1,0.7,0.1,1.1,0.1c0.7,0,1.2-0.2,1.7-0.5c0.4-0.3,0.6-0.7,0.6-1.3
			c0-0.5-0.2-0.9-0.6-1.2c-0.4-0.3-1-0.4-1.8-0.4h-1.1v-0.5h1.2c0.7,0,1.3-0.1,1.6-0.4s0.5-0.7,0.5-1.2c0-0.4-0.2-0.8-0.5-1
			c-0.3-0.3-0.7-0.4-1.3-0.4c-0.4,0-0.7,0.1-1.1,0.2c-0.3,0.1-0.7,0.3-1.1,0.6l-0.3-0.4c0.7-0.5,1.5-0.8,2.4-0.8
			c0.7,0,1.3,0.2,1.7,0.5C40,52.8,40.2,53.3,40.2,53.9z"/>
		<path class="st8" d="M45.4,59.7l-0.1-0.9h0c-0.3,0.4-0.6,0.6-0.9,0.8s-0.7,0.2-1.1,0.2c-0.6,0-1-0.1-1.3-0.4
			c-0.3-0.3-0.5-0.7-0.5-1.2c0-0.6,0.2-1,0.7-1.3c0.5-0.3,1.1-0.5,2-0.5l1.1,0V56c0-0.5-0.1-1-0.3-1.2c-0.2-0.3-0.6-0.4-1.1-0.4
			c-0.5,0-1.1,0.1-1.6,0.4L42,54.4c0.6-0.3,1.2-0.4,1.9-0.4c0.6,0,1.1,0.2,1.4,0.5c0.3,0.3,0.5,0.8,0.5,1.5v3.8H45.4z M43.3,59.4
			c0.6,0,1.1-0.2,1.4-0.5s0.5-0.8,0.5-1.4v-0.6l-1,0c-0.8,0-1.4,0.2-1.7,0.4c-0.3,0.2-0.5,0.5-0.5,1c0,0.4,0.1,0.6,0.3,0.8
			S42.9,59.4,43.3,59.4z"/>
		<path class="st8" d="M52.2,61.7h-0.5v-1.9h-4.4v1.9h-0.5v-2.4h0.4c0.5-0.7,0.8-1.4,1.1-2.3c0.3-0.9,0.4-1.8,0.4-2.9h2.7v5.2h0.8
			V61.7z M51,59.2v-4.7h-1.8c-0.1,1.9-0.5,3.5-1.4,4.7H51z"/>
		<path class="st8" d="M56.9,59.7l-0.1-0.9h0c-0.3,0.4-0.6,0.6-0.9,0.8s-0.7,0.2-1.1,0.2c-0.6,0-1-0.1-1.3-0.4
			c-0.3-0.3-0.5-0.7-0.5-1.2c0-0.6,0.2-1,0.7-1.3c0.5-0.3,1.1-0.5,2-0.5l1.1,0V56c0-0.5-0.1-1-0.3-1.2c-0.2-0.3-0.6-0.4-1.1-0.4
			c-0.5,0-1.1,0.1-1.6,0.4l-0.2-0.5c0.6-0.3,1.2-0.4,1.9-0.4c0.6,0,1.1,0.2,1.4,0.5c0.3,0.3,0.5,0.8,0.5,1.5v3.8H56.9z M54.8,59.4
			c0.6,0,1.1-0.2,1.4-0.5s0.5-0.8,0.5-1.4v-0.6l-1,0c-0.8,0-1.4,0.2-1.7,0.4c-0.3,0.2-0.5,0.5-0.5,1c0,0.4,0.1,0.6,0.3,0.8
			S54.4,59.4,54.8,59.4z"/>
		<path class="st8" d="M59.5,54V56c0,0.5,0.1,0.8,0.4,1c0.2,0.2,0.6,0.3,1.1,0.3c0.3,0,0.7-0.1,1-0.2s0.6-0.3,1-0.6V54h0.5v5.7h-0.5
			V57c-0.3,0.3-0.7,0.5-1,0.6c-0.3,0.1-0.7,0.2-1.1,0.2c-0.6,0-1-0.2-1.3-0.5C59.2,57,59,56.6,59,56v-2H59.5z"/>
		<path class="st8" d="M68.8,59.7l-0.1-0.9h0c-0.3,0.4-0.6,0.6-0.9,0.8s-0.7,0.2-1.1,0.2c-0.6,0-1-0.1-1.3-0.4
			c-0.3-0.3-0.5-0.7-0.5-1.2c0-0.6,0.2-1,0.7-1.3c0.5-0.3,1.1-0.5,2-0.5l1.1,0V56c0-0.5-0.1-1-0.3-1.2c-0.2-0.3-0.6-0.4-1.1-0.4
			c-0.5,0-1.1,0.1-1.6,0.4l-0.2-0.5c0.6-0.3,1.2-0.4,1.9-0.4c0.6,0,1.1,0.2,1.4,0.5c0.3,0.3,0.5,0.8,0.5,1.5v3.8H68.8z M66.7,59.4
			c0.6,0,1.1-0.2,1.4-0.5s0.5-0.8,0.5-1.4v-0.6l-1,0c-0.8,0-1.4,0.2-1.7,0.4c-0.3,0.2-0.5,0.5-0.5,1c0,0.4,0.1,0.6,0.3,0.8
			S66.3,59.4,66.7,59.4z"/>
		<path class="st8" d="M79.2,59.7h-0.5L74.4,53h0c0,0.8,0.1,1.4,0.1,1.8v5H74v-7.7h0.5l4.2,6.8h0c0-0.8,0-1.4,0-1.8v-5h0.5V59.7z
			 M83.1,56.5c0,0.6-0.1,1-0.4,1.3c-0.3,0.3-0.7,0.4-1.1,0.4c-0.5,0-0.8-0.1-1.1-0.4s-0.4-0.7-0.4-1.3c0-0.6,0.1-1,0.4-1.3
			c0.3-0.3,0.7-0.5,1.1-0.5c0.5,0,0.9,0.2,1.1,0.5C83,55.5,83.1,56,83.1,56.5z M80.3,59.7v-0.5h2.5v0.5H80.3z M80.6,56.5
			c0,0.4,0.1,0.8,0.3,1c0.2,0.2,0.4,0.3,0.8,0.3c0.3,0,0.6-0.1,0.8-0.3s0.3-0.5,0.3-1c0-0.4-0.1-0.8-0.3-1c-0.2-0.2-0.4-0.3-0.8-0.3
			C80.9,55.2,80.6,55.7,80.6,56.5z"/>
		<path class="st8" d="M87.3,59.7h-0.5v-5.6c0-0.5,0-1,0.1-1.6c-0.1,0.1-0.1,0.1-0.2,0.2s-0.6,0.5-1.6,1.3l-0.3-0.4l2.1-1.6h0.5
			V59.7z"/>
	</g>
</g>
<g>
	<g>
		<circle class="st9" cx="18.5" cy="58.4" r="5.6"/>
	</g>
	<line class="st9" x1="18.4" y1="58.5" x2="18.4" y2="61.9"/>
	<line class="st9" x1="18.4" y1="58.5" x2="20.1" y2="56.6"/>
	<path class="st9" d="M17.5,52.3c0-0.6,0.5-1.1,1.1-1.1s1.1,0.5,1.1,1.1"/>
</g>
<g>
	<g>
		<circle class="st9" cx="18.5" cy="86.4" r="5.6"/>
	</g>
	<line class="st9" x1="18.4" y1="86.5" x2="18.4" y2="89.9"/>
	<line class="st9" x1="18.4" y1="86.5" x2="20.1" y2="84.6"/>
	<path class="st9" d="M17.5,80.3c0-0.6,0.5-1.1,1.1-1.1s1.1,0.5,1.1,1.1"/>
</g>
<g>
	<rect x="34.9" y="80.6" class="st2" width="183" height="16.5"/>
	<g class="st3">
		<path class="st8" d="M40.2,82.9c0,1-0.5,1.6-1.6,1.8v0c1.2,0.2,1.7,0.9,1.7,1.9c0,0.7-0.2,1.2-0.7,1.6c-0.5,0.4-1.2,0.6-2.1,0.6
			c-0.8,0-1.6-0.1-2.1-0.5v-0.5c0.3,0.2,0.7,0.3,1.1,0.4c0.4,0.1,0.7,0.1,1.1,0.1c0.7,0,1.2-0.2,1.7-0.5c0.4-0.3,0.6-0.7,0.6-1.3
			c0-0.5-0.2-0.9-0.6-1.2c-0.4-0.3-1-0.4-1.8-0.4h-1.1v-0.5h1.2c0.7,0,1.3-0.1,1.6-0.4s0.5-0.7,0.5-1.2c0-0.4-0.2-0.8-0.5-1
			c-0.3-0.3-0.7-0.4-1.3-0.4c-0.4,0-0.7,0.1-1.1,0.2c-0.3,0.1-0.7,0.3-1.1,0.6l-0.3-0.4c0.7-0.5,1.5-0.8,2.4-0.8
			c0.7,0,1.3,0.2,1.7,0.5C40,81.9,40.2,82.4,40.2,82.9z"/>
		<path class="st8" d="M45.4,88.8l-0.1-0.9h0c-0.3,0.4-0.6,0.6-0.9,0.8s-0.7,0.2-1.1,0.2c-0.6,0-1-0.1-1.3-0.4
			c-0.3-0.3-0.5-0.7-0.5-1.2c0-0.6,0.2-1,0.7-1.3c0.5-0.3,1.1-0.5,2-0.5l1.1,0v-0.4c0-0.5-0.1-1-0.3-1.2c-0.2-0.3-0.6-0.4-1.1-0.4
			c-0.5,0-1.1,0.1-1.6,0.4L42,83.4c0.6-0.3,1.2-0.4,1.9-0.4c0.6,0,1.1,0.2,1.4,0.5c0.3,0.3,0.5,0.8,0.5,1.5v3.8H45.4z M43.3,88.4
			c0.6,0,1.1-0.2,1.4-0.5s0.5-0.8,0.5-1.4v-0.6l-1,0c-0.8,0-1.4,0.2-1.7,0.4c-0.3,0.2-0.5,0.5-0.5,1c0,0.4,0.1,0.6,0.3,0.8
			S42.9,88.4,43.3,88.4z"/>
		<path class="st8" d="M52.2,90.7h-0.5v-1.9h-4.4v1.9h-0.5v-2.4h0.4c0.5-0.7,0.8-1.4,1.1-2.3c0.3-0.9,0.4-1.8,0.4-2.9h2.7v5.2h0.8
			V90.7z M51,88.3v-4.7h-1.8c-0.1,1.9-0.5,3.5-1.4,4.7H51z"/>
		<path class="st8" d="M56.9,88.8l-0.1-0.9h0c-0.3,0.4-0.6,0.6-0.9,0.8s-0.7,0.2-1.1,0.2c-0.6,0-1-0.1-1.3-0.4
			c-0.3-0.3-0.5-0.7-0.5-1.2c0-0.6,0.2-1,0.7-1.3c0.5-0.3,1.1-0.5,2-0.5l1.1,0v-0.4c0-0.5-0.1-1-0.3-1.2c-0.2-0.3-0.6-0.4-1.1-0.4
			c-0.5,0-1.1,0.1-1.6,0.4l-0.2-0.5c0.6-0.3,1.2-0.4,1.9-0.4c0.6,0,1.1,0.2,1.4,0.5c0.3,0.3,0.5,0.8,0.5,1.5v3.8H56.9z M54.8,88.4
			c0.6,0,1.1-0.2,1.4-0.5s0.5-0.8,0.5-1.4v-0.6l-1,0c-0.8,0-1.4,0.2-1.7,0.4c-0.3,0.2-0.5,0.5-0.5,1c0,0.4,0.1,0.6,0.3,0.8
			S54.4,88.4,54.8,88.4z"/>
		<path class="st8" d="M59.5,83.1V85c0,0.5,0.1,0.8,0.4,1c0.2,0.2,0.6,0.3,1.1,0.3c0.3,0,0.7-0.1,1-0.2s0.6-0.3,1-0.6v-2.5h0.5v5.7
			h-0.5v-2.7c-0.3,0.3-0.7,0.5-1,0.6c-0.3,0.1-0.7,0.2-1.1,0.2c-0.6,0-1-0.2-1.3-0.5c-0.3-0.3-0.4-0.7-0.4-1.3v-2H59.5z"/>
		<path class="st8" d="M68.8,88.8l-0.1-0.9h0c-0.3,0.4-0.6,0.6-0.9,0.8s-0.7,0.2-1.1,0.2c-0.6,0-1-0.1-1.3-0.4
			c-0.3-0.3-0.5-0.7-0.5-1.2c0-0.6,0.2-1,0.7-1.3c0.5-0.3,1.1-0.5,2-0.5l1.1,0v-0.4c0-0.5-0.1-1-0.3-1.2c-0.2-0.3-0.6-0.4-1.1-0.4
			c-0.5,0-1.1,0.1-1.6,0.4l-0.2-0.5c0.6-0.3,1.2-0.4,1.9-0.4c0.6,0,1.1,0.2,1.4,0.5c0.3,0.3,0.5,0.8,0.5,1.5v3.8H68.8z M66.7,88.4
			c0.6,0,1.1-0.2,1.4-0.5s0.5-0.8,0.5-1.4v-0.6l-1,0c-0.8,0-1.4,0.2-1.7,0.4c-0.3,0.2-0.5,0.5-0.5,1c0,0.4,0.1,0.6,0.3,0.8
			S66.3,88.4,66.7,88.4z"/>
		<path class="st8" d="M79.2,88.8h-0.5L74.4,82h0c0,0.8,0.1,1.4,0.1,1.8v5H74v-7.7h0.5l4.2,6.8h0c0-0.8,0-1.4,0-1.8v-5h0.5V88.8z
			 M83.1,85.6c0,0.6-0.1,1-0.4,1.3c-0.3,0.3-0.7,0.4-1.1,0.4c-0.5,0-0.8-0.1-1.1-0.4s-0.4-0.7-0.4-1.3c0-0.6,0.1-1,0.4-1.3
			c0.3-0.3,0.7-0.5,1.1-0.5c0.5,0,0.9,0.2,1.1,0.5C83,84.6,83.1,85,83.1,85.6z M80.3,88.8v-0.5h2.5v0.5H80.3z M80.6,85.6
			c0,0.4,0.1,0.8,0.3,1c0.2,0.2,0.4,0.3,0.8,0.3c0.3,0,0.6-0.1,0.8-0.3s0.3-0.5,0.3-1c0-0.4-0.1-0.8-0.3-1c-0.2-0.2-0.4-0.3-0.8-0.3
			C80.9,84.3,80.6,84.7,80.6,85.6z"/>
		<path class="st8" d="M89.1,88.8h-4.8v-0.5l2-2.1c0.6-0.6,1-1,1.2-1.4s0.4-0.6,0.5-0.9c0.1-0.3,0.2-0.6,0.2-0.9
			c0-0.5-0.2-0.8-0.5-1.1c-0.3-0.3-0.7-0.4-1.2-0.4c-0.6,0-1.3,0.2-1.8,0.7l-0.3-0.4c0.6-0.5,1.3-0.8,2.1-0.8c0.7,0,1.2,0.2,1.6,0.5
			s0.6,0.8,0.6,1.5c0,0.5-0.1,1-0.4,1.5c-0.3,0.5-0.7,1.1-1.4,1.8l-2,2v0h4.1V88.8z"/>
	</g>
</g>
<rect x="300.5" y="81.7" class="st2" width="72.8" height="16.5"/>
<g class="st3">
	<path class="st8" d="M301.6,87.5l2.2-4.9h-3v-0.6h3.6v0.5l-2.2,4.9H301.6z"/>
	<path class="st8" d="M311,88.9h-0.6v-1.4h-2.8v1.4H307V87h0.3c0.3-0.5,0.6-1,0.8-1.6c0.2-0.6,0.3-1.3,0.3-2h2.1V87h0.6V88.9z
		 M309.8,87v-3.1h-0.9c0,0.5-0.1,1.1-0.3,1.7c-0.2,0.6-0.4,1-0.7,1.4H309.8z"/>
	<path class="st8" d="M312.4,83.5v1.7h2.3v-1.7h0.6v4.1h-0.6v-1.8h-2.3v1.8h-0.6v-4.1H312.4z"/>
	<path class="st8" d="M316.8,87.5h-0.7l1.2-1.7c-0.3-0.1-0.6-0.2-0.7-0.4s-0.3-0.5-0.3-0.8c0-0.4,0.1-0.7,0.4-0.9s0.6-0.3,1-0.3h1.8
		v4.1h-0.6v-1.6h-1L316.8,87.5z M316.9,84.7c0,0.5,0.3,0.7,1,0.7h1V84h-1.1C317.2,84,316.9,84.2,316.9,84.7z"/>
	<path class="st8" d="M320.5,85.4c0-0.7,0.1-1.3,0.3-1.8c0.2-0.6,0.5-1.1,0.8-1.5h0.6c-0.4,0.5-0.6,1-0.8,1.6s-0.3,1.2-0.3,1.8
		c0,0.6,0.1,1.2,0.3,1.7c0.2,0.6,0.4,1.1,0.8,1.6h-0.6c-0.4-0.4-0.6-0.9-0.8-1.5C320.6,86.7,320.5,86.1,320.5,85.4z"/>
	<path class="st8" d="M322.8,85.8v-0.6h1.8v0.6H322.8z"/>
	<path class="st8" d="M327.3,87.6c-0.6,0-1.1-0.2-1.4-0.5s-0.5-0.9-0.5-1.5c0-0.7,0.2-1.2,0.5-1.6c0.3-0.4,0.8-0.6,1.3-0.6
		c0.5,0,0.9,0.2,1.2,0.5c0.3,0.3,0.4,0.8,0.4,1.3v0.4H326c0,0.5,0.1,0.8,0.4,1.1c0.2,0.2,0.6,0.4,1,0.4c0.4,0,0.9-0.1,1.3-0.3v0.5
		c-0.2,0.1-0.4,0.2-0.6,0.2C327.8,87.6,327.5,87.6,327.3,87.6z M327.1,83.9c-0.3,0-0.6,0.1-0.8,0.3s-0.3,0.5-0.3,0.9h2.1
		c0-0.4-0.1-0.7-0.3-0.9C327.7,84,327.4,83.9,327.1,83.9z"/>
	<path class="st8" d="M330.4,83.5V86l0,0.7l0,0.2l2.2-3.5h0.8v4.1h-0.6V85l0-0.5l0-0.5l-2.2,3.5h-0.8v-4.1H330.4z M331.6,82.9
		c-0.5,0-0.8-0.1-1-0.3c-0.2-0.2-0.3-0.5-0.4-0.9h0.6c0,0.3,0.1,0.4,0.2,0.5c0.1,0.1,0.3,0.2,0.6,0.2c0.3,0,0.4-0.1,0.6-0.2
		c0.1-0.1,0.2-0.3,0.2-0.5h0.6c0,0.4-0.2,0.7-0.4,0.9C332.4,82.8,332,82.9,331.6,82.9z"/>
	<path class="st8" d="M335.9,85.4c0,0.7-0.1,1.3-0.3,1.8c-0.2,0.6-0.5,1.1-0.8,1.5h-0.6c0.3-0.5,0.6-1,0.8-1.5
		c0.2-0.6,0.3-1.1,0.3-1.7c0-0.6-0.1-1.2-0.3-1.8s-0.4-1.1-0.8-1.6h0.6c0.4,0.4,0.6,0.9,0.8,1.5C335.8,84.2,335.9,84.8,335.9,85.4z"
		/>
	<path class="st8" d="M342.4,85.5c0,0.7-0.2,1.2-0.5,1.6s-0.8,0.6-1.4,0.6c-0.4,0-0.7-0.1-1-0.3c-0.3-0.2-0.5-0.4-0.7-0.7
		s-0.2-0.7-0.2-1.1c0-0.7,0.2-1.2,0.5-1.5c0.3-0.4,0.8-0.6,1.4-0.6c0.6,0,1,0.2,1.4,0.6C342.2,84.3,342.4,84.8,342.4,85.5z
		 M339.3,85.5c0,0.5,0.1,0.9,0.3,1.2c0.2,0.3,0.5,0.4,0.9,0.4c0.4,0,0.7-0.1,0.9-0.4c0.2-0.3,0.3-0.7,0.3-1.2c0-0.5-0.1-0.9-0.3-1.2
		s-0.5-0.4-0.9-0.4c-0.4,0-0.7,0.1-0.9,0.4C339.4,84.6,339.3,85,339.3,85.5z"/>
	<path class="st8" d="M345.1,87.6c-0.6,0-1-0.2-1.4-0.5s-0.5-0.9-0.5-1.5c0-0.7,0.2-1.2,0.5-1.6c0.3-0.4,0.8-0.6,1.4-0.6
		c0.2,0,0.4,0,0.6,0.1s0.3,0.1,0.5,0.1l-0.2,0.5c-0.1-0.1-0.3-0.1-0.4-0.1c-0.2,0-0.3-0.1-0.4-0.1c-0.8,0-1.2,0.5-1.2,1.6
		c0,0.5,0.1,0.9,0.3,1.2c0.2,0.3,0.5,0.4,0.9,0.4c0.3,0,0.7-0.1,1-0.2v0.5C345.8,87.5,345.5,87.6,345.1,87.6z"/>
	<path class="st8" d="M349.8,84h-1.3v3.5h-0.6V84h-1.3v-0.5h3.2V84z"/>
	<path class="st8" d="M353.1,87.5l-0.1-0.6h0c-0.2,0.3-0.4,0.4-0.6,0.5c-0.2,0.1-0.5,0.1-0.8,0.1c-0.4,0-0.7-0.1-0.9-0.3
		s-0.3-0.5-0.3-0.9c0-0.8,0.7-1.3,2-1.3l0.7,0v-0.3c0-0.3-0.1-0.6-0.2-0.7c-0.1-0.2-0.4-0.2-0.7-0.2c-0.3,0-0.7,0.1-1.2,0.3
		l-0.2-0.5c0.2-0.1,0.4-0.2,0.7-0.3c0.2-0.1,0.5-0.1,0.7-0.1c0.5,0,0.8,0.1,1.1,0.3c0.2,0.2,0.4,0.6,0.4,1v2.8H353.1z M351.7,87.1
		c0.4,0,0.7-0.1,0.9-0.3c0.2-0.2,0.3-0.5,0.3-0.9v-0.4l-0.6,0c-0.5,0-0.8,0.1-1.1,0.2s-0.3,0.3-0.3,0.6c0,0.2,0.1,0.4,0.2,0.5
		C351.3,87,351.5,87.1,351.7,87.1z"/>
	<path class="st8" d="M357.9,87.5h-0.6V84H356c-0.1,0.9-0.2,1.6-0.3,2.1c-0.1,0.5-0.3,0.9-0.5,1.1c-0.2,0.2-0.4,0.4-0.7,0.4
		c-0.1,0-0.2,0-0.3,0v-0.5c0.1,0,0.1,0,0.2,0c0.3,0,0.5-0.3,0.7-0.9c0.2-0.6,0.3-1.5,0.4-2.7h2.4V87.5z"/>
	<path class="st8" d="M362.7,85.5c0,0.7-0.2,1.2-0.5,1.6s-0.8,0.6-1.4,0.6c-0.4,0-0.7-0.1-1-0.3c-0.3-0.2-0.5-0.4-0.7-0.7
		c-0.2-0.3-0.2-0.7-0.2-1.1c0-0.7,0.2-1.2,0.5-1.5c0.3-0.4,0.8-0.6,1.4-0.6c0.6,0,1,0.2,1.4,0.6C362.5,84.3,362.7,84.8,362.7,85.5z
		 M359.6,85.5c0,0.5,0.1,0.9,0.3,1.2c0.2,0.3,0.5,0.4,0.9,0.4s0.7-0.1,0.9-0.4c0.2-0.3,0.3-0.7,0.3-1.2c0-0.5-0.1-0.9-0.3-1.2
		s-0.5-0.4-0.9-0.4c-0.4,0-0.7,0.1-0.9,0.4C359.7,84.6,359.6,85,359.6,85.5z"/>
	<path class="st8" d="M365.4,87.6c-0.6,0-1-0.2-1.4-0.5c-0.3-0.4-0.5-0.9-0.5-1.5c0-0.7,0.2-1.2,0.5-1.6c0.3-0.4,0.8-0.6,1.4-0.6
		c0.2,0,0.4,0,0.6,0.1s0.3,0.1,0.5,0.1l-0.2,0.5c-0.1-0.1-0.3-0.1-0.4-0.1c-0.2,0-0.3-0.1-0.4-0.1c-0.8,0-1.2,0.5-1.2,1.6
		c0,0.5,0.1,0.9,0.3,1.2c0.2,0.3,0.5,0.4,0.9,0.4c0.3,0,0.7-0.1,1-0.2v0.5C366.2,87.5,365.8,87.6,365.4,87.6z"/>
	<path class="st8" d="M368,85.1h1.3c1,0,1.6,0.4,1.6,1.1c0,0.4-0.1,0.7-0.4,0.9c-0.3,0.2-0.7,0.3-1.2,0.3h-1.8v-4.1h0.6V85.1z
		 M368,85.7V87h1.2c0.3,0,0.6-0.1,0.8-0.2c0.2-0.1,0.3-0.3,0.3-0.5c0-0.2-0.1-0.4-0.2-0.5c-0.2-0.1-0.4-0.2-0.8-0.2H368z"/>
</g>
<rect x="300.5" y="54.6" class="st2" width="72.8" height="16.5"/>
<g class="st3">
	<path class="st8" d="M301.6,60.4l2.2-4.9h-3v-0.6h3.6v0.5l-2.2,4.9H301.6z"/>
	<path class="st8" d="M311,61.8h-0.6v-1.4h-2.8v1.4H307v-1.9h0.3c0.3-0.5,0.6-1,0.8-1.6c0.2-0.6,0.3-1.3,0.3-2h2.1v3.5h0.6V61.8z
		 M309.8,59.8v-3.1h-0.9c0,0.5-0.1,1.1-0.3,1.7c-0.2,0.6-0.4,1-0.7,1.4H309.8z"/>
	<path class="st8" d="M312.4,56.3V58h2.3v-1.7h0.6v4.1h-0.6v-1.8h-2.3v1.8h-0.6v-4.1H312.4z"/>
	<path class="st8" d="M316.8,60.4h-0.7l1.2-1.7c-0.3-0.1-0.6-0.2-0.7-0.4s-0.3-0.5-0.3-0.8c0-0.4,0.1-0.7,0.4-0.9s0.6-0.3,1-0.3h1.8
		v4.1h-0.6v-1.6h-1L316.8,60.4z M316.9,57.5c0,0.5,0.3,0.7,1,0.7h1v-1.4h-1.1C317.2,56.8,316.9,57,316.9,57.5z"/>
	<path class="st8" d="M320.5,58.3c0-0.7,0.1-1.3,0.3-1.8c0.2-0.6,0.5-1.1,0.8-1.5h0.6c-0.4,0.5-0.6,1-0.8,1.6s-0.3,1.2-0.3,1.8
		c0,0.6,0.1,1.2,0.3,1.7c0.2,0.6,0.4,1.1,0.8,1.6h-0.6c-0.4-0.4-0.6-0.9-0.8-1.5C320.6,59.5,320.5,58.9,320.5,58.3z"/>
	<path class="st8" d="M322.8,58.6V58h1.8v0.6H322.8z"/>
	<path class="st8" d="M327.3,60.4c-0.6,0-1.1-0.2-1.4-0.5s-0.5-0.9-0.5-1.5c0-0.7,0.2-1.2,0.5-1.6c0.3-0.4,0.8-0.6,1.3-0.6
		c0.5,0,0.9,0.2,1.2,0.5c0.3,0.3,0.4,0.8,0.4,1.3v0.4H326c0,0.5,0.1,0.8,0.4,1.1c0.2,0.2,0.6,0.4,1,0.4c0.4,0,0.9-0.1,1.3-0.3v0.5
		c-0.2,0.1-0.4,0.2-0.6,0.2C327.8,60.4,327.5,60.4,327.3,60.4z M327.1,56.7c-0.3,0-0.6,0.1-0.8,0.3s-0.3,0.5-0.3,0.9h2.1
		c0-0.4-0.1-0.7-0.3-0.9C327.7,56.8,327.4,56.7,327.1,56.7z"/>
	<path class="st8" d="M330.4,56.3v2.6l0,0.7l0,0.2l2.2-3.5h0.8v4.1h-0.6v-2.5l0-0.5l0-0.5l-2.2,3.5h-0.8v-4.1H330.4z M331.6,55.7
		c-0.5,0-0.8-0.1-1-0.3c-0.2-0.2-0.3-0.5-0.4-0.9h0.6c0,0.3,0.1,0.4,0.2,0.5c0.1,0.1,0.3,0.2,0.6,0.2c0.3,0,0.4-0.1,0.6-0.2
		c0.1-0.1,0.2-0.3,0.2-0.5h0.6c0,0.4-0.2,0.7-0.4,0.9C332.4,55.7,332,55.7,331.6,55.7z"/>
	<path class="st8" d="M335.9,58.3c0,0.7-0.1,1.3-0.3,1.8c-0.2,0.6-0.5,1.1-0.8,1.5h-0.6c0.3-0.5,0.6-1,0.8-1.5
		c0.2-0.6,0.3-1.1,0.3-1.7c0-0.6-0.1-1.2-0.3-1.8s-0.4-1.1-0.8-1.6h0.6c0.4,0.4,0.6,0.9,0.8,1.5C335.8,57,335.9,57.6,335.9,58.3z"/>
	<path class="st8" d="M342.4,58.3c0,0.7-0.2,1.2-0.5,1.6s-0.8,0.6-1.4,0.6c-0.4,0-0.7-0.1-1-0.3c-0.3-0.2-0.5-0.4-0.7-0.7
		s-0.2-0.7-0.2-1.1c0-0.7,0.2-1.2,0.5-1.5c0.3-0.4,0.8-0.6,1.4-0.6c0.6,0,1,0.2,1.4,0.6C342.2,57.2,342.4,57.7,342.4,58.3z
		 M339.3,58.3c0,0.5,0.1,0.9,0.3,1.2c0.2,0.3,0.5,0.4,0.9,0.4c0.4,0,0.7-0.1,0.9-0.4c0.2-0.3,0.3-0.7,0.3-1.2c0-0.5-0.1-0.9-0.3-1.2
		s-0.5-0.4-0.9-0.4c-0.4,0-0.7,0.1-0.9,0.4C339.4,57.4,339.3,57.8,339.3,58.3z"/>
	<path class="st8" d="M345.1,60.4c-0.6,0-1-0.2-1.4-0.5s-0.5-0.9-0.5-1.5c0-0.7,0.2-1.2,0.5-1.6c0.3-0.4,0.8-0.6,1.4-0.6
		c0.2,0,0.4,0,0.6,0.1s0.3,0.1,0.5,0.1l-0.2,0.5c-0.1-0.1-0.3-0.1-0.4-0.1c-0.2,0-0.3-0.1-0.4-0.1c-0.8,0-1.2,0.5-1.2,1.6
		c0,0.5,0.1,0.9,0.3,1.2c0.2,0.3,0.5,0.4,0.9,0.4c0.3,0,0.7-0.1,1-0.2v0.5C345.8,60.4,345.5,60.4,345.1,60.4z"/>
	<path class="st8" d="M349.8,56.8h-1.3v3.5h-0.6v-3.5h-1.3v-0.5h3.2V56.8z"/>
	<path class="st8" d="M353.1,60.4l-0.1-0.6h0c-0.2,0.3-0.4,0.4-0.6,0.5c-0.2,0.1-0.5,0.1-0.8,0.1c-0.4,0-0.7-0.1-0.9-0.3
		s-0.3-0.5-0.3-0.9c0-0.8,0.7-1.3,2-1.3l0.7,0v-0.3c0-0.3-0.1-0.6-0.2-0.7c-0.1-0.2-0.4-0.2-0.7-0.2c-0.3,0-0.7,0.1-1.2,0.3
		l-0.2-0.5c0.2-0.1,0.4-0.2,0.7-0.3c0.2-0.1,0.5-0.1,0.7-0.1c0.5,0,0.8,0.1,1.1,0.3c0.2,0.2,0.4,0.6,0.4,1v2.8H353.1z M351.7,59.9
		c0.4,0,0.7-0.1,0.9-0.3c0.2-0.2,0.3-0.5,0.3-0.9v-0.4l-0.6,0c-0.5,0-0.8,0.1-1.1,0.2s-0.3,0.3-0.3,0.6c0,0.2,0.1,0.4,0.2,0.5
		C351.3,59.9,351.5,59.9,351.7,59.9z"/>
	<path class="st8" d="M357.9,60.4h-0.6v-3.5H356c-0.1,0.9-0.2,1.6-0.3,2.1c-0.1,0.5-0.3,0.9-0.5,1.1c-0.2,0.2-0.4,0.4-0.7,0.4
		c-0.1,0-0.2,0-0.3,0v-0.5c0.1,0,0.1,0,0.2,0c0.3,0,0.5-0.3,0.7-0.9c0.2-0.6,0.3-1.5,0.4-2.7h2.4V60.4z"/>
	<path class="st8" d="M362.7,58.3c0,0.7-0.2,1.2-0.5,1.6s-0.8,0.6-1.4,0.6c-0.4,0-0.7-0.1-1-0.3c-0.3-0.2-0.5-0.4-0.7-0.7
		c-0.2-0.3-0.2-0.7-0.2-1.1c0-0.7,0.2-1.2,0.5-1.5c0.3-0.4,0.8-0.6,1.4-0.6c0.6,0,1,0.2,1.4,0.6C362.5,57.2,362.7,57.7,362.7,58.3z
		 M359.6,58.3c0,0.5,0.1,0.9,0.3,1.2c0.2,0.3,0.5,0.4,0.9,0.4s0.7-0.1,0.9-0.4c0.2-0.3,0.3-0.7,0.3-1.2c0-0.5-0.1-0.9-0.3-1.2
		s-0.5-0.4-0.9-0.4c-0.4,0-0.7,0.1-0.9,0.4C359.7,57.4,359.6,57.8,359.6,58.3z"/>
	<path class="st8" d="M365.4,60.4c-0.6,0-1-0.2-1.4-0.5c-0.3-0.4-0.5-0.9-0.5-1.5c0-0.7,0.2-1.2,0.5-1.6c0.3-0.4,0.8-0.6,1.4-0.6
		c0.2,0,0.4,0,0.6,0.1s0.3,0.1,0.5,0.1l-0.2,0.5c-0.1-0.1-0.3-0.1-0.4-0.1c-0.2,0-0.3-0.1-0.4-0.1c-0.8,0-1.2,0.5-1.2,1.6
		c0,0.5,0.1,0.9,0.3,1.2c0.2,0.3,0.5,0.4,0.9,0.4c0.3,0,0.7-0.1,1-0.2v0.5C366.2,60.4,365.8,60.4,365.4,60.4z"/>
	<path class="st8" d="M368,58h1.3c1,0,1.6,0.4,1.6,1.1c0,0.4-0.1,0.7-0.4,0.9c-0.3,0.2-0.7,0.3-1.2,0.3h-1.8v-4.1h0.6V58z M368,58.5
		v1.3h1.2c0.3,0,0.6-0.1,0.8-0.2c0.2-0.1,0.3-0.3,0.3-0.5c0-0.2-0.1-0.4-0.2-0.5c-0.2-0.1-0.4-0.2-0.8-0.2H368z"/>
</g>
<g>
	<circle class="st7" cx="388.4" cy="86.9" r="12.1"/>
</g>
<g>
	<line class="st10" x1="405" y1="84.4" x2="410" y2="84.4"/>
	<polyline class="st10" points="404.8,81.7 404.9,91.4 404.9,91.4 410,91.4 	"/>
	<circle class="st10" cx="413.6" cy="84" r="3.4"/>
	<circle class="st10" cx="412.5" cy="91.1" r="2.2"/>
	<rect x="409.8" y="82.1" class="st2" width="7.5" height="5.2"/>
	<g class="st3">
		<path class="st11" d="M414.7,83.9c0,0.6-0.1,1-0.3,1.2s-0.5,0.4-0.8,0.4c-0.4,0-0.6-0.1-0.8-0.4c-0.2-0.3-0.3-0.7-0.3-1.2
			c0-0.6,0.1-1,0.3-1.2c0.2-0.3,0.4-0.4,0.8-0.4c0.4,0,0.6,0.1,0.8,0.4S414.7,83.4,414.7,83.9z M413,83.9c0,0.4,0,0.7,0.1,0.9
			c0.1,0.2,0.2,0.3,0.4,0.3c0.2,0,0.3-0.1,0.4-0.3c0.1-0.2,0.1-0.5,0.1-0.9c0-0.4,0-0.7-0.1-0.9c-0.1-0.2-0.2-0.3-0.4-0.3
			c-0.2,0-0.3,0.1-0.4,0.3C413.1,83.2,413,83.5,413,83.9z"/>
	</g>
</g>
<g>
	<line class="st10" x1="405" y1="54.9" x2="410" y2="54.9"/>
	<polyline class="st10" points="404.8,52.3 404.9,61.9 404.9,61.9 410,61.9 	"/>
	<circle class="st10" cx="413.6" cy="54.6" r="3.4"/>
	<circle class="st10" cx="412.5" cy="61.7" r="2.2"/>
	<rect x="409.8" y="52.7" class="st2" width="7.5" height="5.2"/>
	<g class="st3">
		<path class="st11" d="M414.7,54.5c0,0.6-0.1,1-0.3,1.2s-0.5,0.4-0.8,0.4c-0.4,0-0.6-0.1-0.8-0.4c-0.2-0.3-0.3-0.7-0.3-1.2
			c0-0.6,0.1-1,0.3-1.2c0.2-0.3,0.4-0.4,0.8-0.4c0.4,0,0.6,0.1,0.8,0.4S414.7,53.9,414.7,54.5z M413,54.5c0,0.4,0,0.7,0.1,0.9
			c0.1,0.2,0.2,0.3,0.4,0.3c0.2,0,0.3-0.1,0.4-0.3c0.1-0.2,0.1-0.5,0.1-0.9c0-0.4,0-0.7-0.1-0.9c-0.1-0.2-0.2-0.3-0.4-0.3
			c-0.2,0-0.3,0.1-0.4,0.3C413.1,53.7,413,54,413,54.5z"/>
	</g>
</g>
<g>
	<g>
		<path class="st12" d="M390.5,88.1c-2,0-4-6,0-6S392.5,88.1,390.5,88.1z"/>
		<path class="st12" d="M386.9,91.8c-0.4-1.7,0.5-3.4,3.8-3.4c3.2,0,4,1.7,3.7,3.4"/>
		<line class="st12" x1="384.7" y1="81.4" x2="384.7" y2="86.4"/>
		<line class="st12" x1="382.2" y1="83.9" x2="387.2" y2="83.9"/>
	</g>
</g>
<g>
	<g>
		<path class="st12" d="M390.5,59.1c-2,0-4-6,0-6S392.5,59.1,390.5,59.1z"/>
		<path class="st12" d="M386.9,62.8c-0.4-1.7,0.5-3.4,3.8-3.4c3.2,0,4,1.7,3.7,3.4"/>
		<line class="st12" x1="384.7" y1="52.4" x2="384.7" y2="57.4"/>
		<line class="st12" x1="382.2" y1="54.9" x2="387.2" y2="54.9"/>
	</g>
</g>
</svg>
