<?xml version="1.0" encoding="utf-8"?>
<!-- Generator: Adobe Illustrator 19.2.1, SVG Export Plug-In . SVG Version: 6.00 Build 0)  -->
<svg version="1.1" id="Слой_1" xmlns="http://www.w3.org/2000/svg" xmlns:xlink="http://www.w3.org/1999/xlink" x="0px" y="0px"
	 viewBox="0 0 747.5 295" style="enable-background:new 0 0 747.5 295;" xml:space="preserve">
<style type="text/css">
	.st0{fill:#3A3A3A;}
	.st1{fill:#FFFFFF;}
	.st2{fill:#97CFFD;}
	.st3{fill:none;stroke:#FFFFFF;stroke-width:1.7668;stroke-linecap:round;stroke-miterlimit:10;}
	.st4{fill:none;stroke:#FFFFFF;stroke-width:1.7668;stroke-linecap:round;stroke-linejoin:round;stroke-miterlimit:10;}
	.st5{fill:#F7AA47;stroke:#FFFFFF;stroke-width:1.7668;stroke-linecap:round;stroke-linejoin:round;stroke-miterlimit:10;}
	.st6{fill:#85D0FE;}
	
		.st7{clip-path:url(#SVGID_10_);fill:#F7AA47;stroke:#FFFFFF;stroke-width:1.7668;stroke-linecap:round;stroke-linejoin:round;stroke-miterlimit:10;}
	
		.st8{clip-path:url(#SVGID_13_);fill:#F7AA47;stroke:#FFFFFF;stroke-width:1.7668;stroke-linecap:round;stroke-linejoin:round;stroke-miterlimit:10;}
	
		.st9{clip-path:url(#SVGID_17_);fill:#F7AA47;stroke:#FFFFFF;stroke-width:1.7668;stroke-linecap:round;stroke-linejoin:round;stroke-miterlimit:10;}
	
		.st10{clip-path:url(#SVGID_19_);fill:none;stroke:#FFFFFF;stroke-width:1.7668;stroke-linecap:round;stroke-linejoin:round;stroke-miterlimit:10;}
	.st11{fill:#FFFFFF;stroke:#FFFFFF;stroke-width:1.7668;stroke-linecap:round;stroke-linejoin:round;stroke-miterlimit:10;}
	
		.st12{clip-path:url(#SVGID_23_);fill:#F7AA47;stroke:#FFFFFF;stroke-width:1.7668;stroke-linecap:round;stroke-linejoin:round;stroke-miterlimit:10;}
	.st13{opacity:0.5;enable-background:new    ;}
	.st14{fill:none;}
	.st15{enable-background:new    ;}
	.st16{fill:none;stroke:#FFFFFF;stroke-width:1.2978;stroke-miterlimit:10;}
	.st17{fill:none;stroke:#FFFFFF;stroke-width:0.9982;stroke-linecap:round;stroke-miterlimit:10;}
	
		.st18{clip-path:url(#SVGID_25_);fill:#F7AA47;stroke:#FFFFFF;stroke-width:1.7668;stroke-linecap:round;stroke-linejoin:round;stroke-miterlimit:10;}
	
		.st19{clip-path:url(#SVGID_27_);fill:#F7AA47;stroke:#FFFFFF;stroke-width:1.7668;stroke-linecap:round;stroke-linejoin:round;stroke-miterlimit:10;}
	
		.st20{clip-path:url(#SVGID_29_);fill:#F7AA47;stroke:#FFFFFF;stroke-width:1.7668;stroke-linecap:round;stroke-linejoin:round;stroke-miterlimit:10;}
	
		.st21{clip-path:url(#SVGID_31_);fill:none;stroke:#FFFFFF;stroke-width:1.7668;stroke-linecap:round;stroke-linejoin:round;stroke-miterlimit:10;}
	
		.st22{clip-path:url(#SVGID_33_);fill:#F7AA47;stroke:#FFFFFF;stroke-width:1.7668;stroke-linecap:round;stroke-linejoin:round;stroke-miterlimit:10;}
	
		.st23{opacity:0.5;fill:#FFFFFF;stroke:#FFFFFF;stroke-linecap:round;stroke-linejoin:round;stroke-miterlimit:10;enable-background:new    ;}
	.st24{fill:none;stroke:#FFFFFF;stroke-linecap:round;stroke-linejoin:round;stroke-miterlimit:10;}
</style>
<rect class="st0" width="366" height="295"/>
<rect x="380.1" class="st0" width="366" height="295"/>
<rect x="26" y="23" class="st1" width="340" height="246"/>
<rect x="407.5" y="23" class="st1" width="340" height="246"/>
<g>
	<g id="_x30_9_1_">
		<circle id="SVGID_21_" class="st2" cx="680.7" cy="195.5" r="44.2"/>
		<line class="st3" x1="667" y1="226.4" x2="694.3" y2="226.4"/>
		<line class="st3" x1="651.7" y1="176.2" x2="656.2" y2="214.9"/>
		<line class="st3" x1="710.9" y1="176.2" x2="706.3" y2="214.9"/>
		<path class="st3" d="M656.2,214.9c2.3,11.4,6.8,11.4,11.4,11.4"/>
		<path class="st3" d="M706.3,214.9c-2.3,11.4-6.8,11.4-11.4,11.4"/>
		<path class="st3" d="M710.9,176.2c0-6.8-4.5-6.8-11.4-6.8h-36.4c-6.9,0-11.4,0-11.4,6.8"/>
		<path class="st4" d="M690.8,190.2c1.1-1.1,2.7-1.8,4.1-1.8c1.6,0,3.1,0.7,4.2,1.9"/>
		<path class="st4" d="M693.1,200.3c-3,3-6.7,4.6-10.9,4.6c-4,0-8-1.9-11.1-4.9"/>
		<ellipse class="st4" cx="669.8" cy="190.8" rx="3.4" ry="3"/>
		<path class="st4" d="M675.7,212.4c-15.5-2.6-27.5-16.1-27.5-32.4h4"/>
		<path class="st4" d="M710.4,180h3.4c0,16.2-11.7,29.6-27.1,32.3"/>
		<path class="st5" d="M688.3,169.6v12.1c0,1.6-1.3,2.9-2.9,2.9s-2.9-1.3-2.9-2.9v-12.1H688.3z"/>
		<path class="st5" d="M670.9,169.6v0.2h-5.5h-5.9v7.2c0,1.6,1.3,2.9,2.9,2.9s2.9-1.3,2.9-2.9v3.6c0,1.6,1.3,2.9,2.9,2.9
			c1.6,0,2.9-1.3,2.9-2.9v-6.8c0.5,0.9,1.4,1.5,2.6,1.5c1.6,0,2.9-1.3,2.9-2.9v-2.7L670.9,169.6L670.9,169.6z"/>
		<path class="st4" d="M684.8,214.9h-7.1c-1.1,0-2-0.9-2-2l0,0c0-1.1,0.9-2,2-2h7.1c1.1,0,2,0.9,2,2l0,0
			C686.8,214,685.9,214.9,684.8,214.9z"/>
	</g>
	<g id="_x30_8_1_">
		<circle id="SVGID_20_" class="st2" cx="576.2" cy="195.5" r="44.2"/>
		<polyline class="st4" points="544.9,226 544.9,171.7 607,171.7 607,226 		"/>
		<line class="st4" x1="544.9" y1="187.3" x2="607" y2="187.3"/>
		<path class="st4" d="M601.5,171.6v-2.7c0-2-1.7-3.7-3.7-3.7s-3.7,1.7-3.7,3.7v5.6c0,2,1.7,3.7,3.7,3.7"/>
		<path class="st4" d="M591.2,171.6v-2.7c0-2-1.7-3.7-3.7-3.7s-3.7,1.7-3.7,3.7v5.6c0,2,1.7,3.7,3.7,3.7"/>
		<path class="st4" d="M580.9,171.6v-2.7c0-2-1.7-3.7-3.7-3.7s-3.7,1.7-3.7,3.7v5.6c0,2,1.7,3.7,3.7,3.7"/>
		<path class="st4" d="M570.5,171.6v-2.7c0-2-1.7-3.7-3.7-3.7s-3.7,1.7-3.7,3.7v5.6c0,2,1.7,3.7,3.7,3.7"/>
		<path class="st4" d="M560.3,171.6v-2.7c0-2-1.7-3.7-3.7-3.7s-3.7,1.7-3.7,3.7v5.6c0,2,1.7,3.7,3.7,3.7"/>
		<ellipse class="st4" cx="560.9" cy="207.2" rx="4.9" ry="4.7"/>
		<ellipse class="st4" cx="591.9" cy="207.2" rx="4.9" ry="4.7"/>
		<path class="st4" d="M588.1,223.4c-3.4,3.1-7.6,5.1-11.7,5.1c-4.4,0-8.5-1.8-11.6-4.9"/>
		<path class="st5" d="M602.5,205.9c1.1,0,2-0.9,2-1.9c0-1.1-1.2-1.9-2.7-1.9L598,202c-1.4-0.1-2.7-0.9-2.7-1.8
			c-0.1-1-1.3-1.7-2.7-1.7h-9.3c-1.4,0-2.7,0.9-2.7,1.9c0,1.1,1.2,1.9,2.7,1.9h0.4c1.4,0,2.7,0.8,2.7,1.8s-1.2,1.8-2.7,1.8H579
			c-1.4,0-2.7,0.9-2.7,1.9c0,1.1,1.2,1.9,2.7,1.9l4.7,0.1c1.4,0,2.7,1.2,2.7,2.7v1.9c0,1.4,1.2,2.7,2.7,2.7h1c1.4,0,2.7-0.9,2.7-1.9
			c0-1.1,1.2-1.9,2.7-1.9h2.7c1.4,0,2.7-1.2,2.7-2.7v-1.9C600.5,207.1,601.5,205.9,602.5,205.9z"/>
	</g>
	<g id="_x30_7_1_">
		<circle id="SVGID_16_" class="st2" cx="474.5" cy="195.5" r="44.2"/>
		<line class="st4" x1="474.4" y1="166.6" x2="474.4" y2="160.1"/>
		<line class="st4" x1="474.4" y1="194.4" x2="474.4" y2="179"/>
		<ellipse class="st4" cx="465" cy="206.5" rx="3.1" ry="4"/>
		<ellipse class="st4" cx="483.7" cy="206.5" rx="3.1" ry="4"/>
		<path class="st4" d="M480.4,220.1c-1.7,1.7-3.7,2.6-6,2.6c-2.2,0-4.4-1.1-6.1-2.7"/>
		<path class="st4" d="M474.4,231.7L474.4,231.7c-12.2,0-22.1-9.9-22.1-22.1v-27.5c0-12.2,9.9-22.1,22.1-22.1l0,0
			c12.2,0,22.1,9.9,22.1,22.1v27.4C496.5,221.8,486.5,231.7,474.4,231.7z"/>
		<path class="st5" d="M474.3,179L474.3,179c-1.9,0-3.5-1.6-3.5-3.5v-4.9c0-1.9,1.6-3.5,3.5-3.5l0,0c1.9,0,3.5,1.6,3.5,3.5v4.9
			C477.9,177.4,476.3,179,474.3,179z"/>
	</g>
	<g id="_x30_6_1_">
		<circle id="SVGID_14_" class="st6" cx="674.6" cy="86.5" r="44.2"/>
		<g>
			<g>
				<circle id="SVGID_47_" class="st2" cx="674.6" cy="86.5" r="44.2"/>
			</g>
			<g>
				<g>
					<g>
						<defs>
							<circle id="SVGID_9_" cx="674.6" cy="86.5" r="44.2"/>
						</defs>
						<clipPath id="SVGID_10_">
							<use xlink:href="#SVGID_9_"  style="overflow:visible;"/>
						</clipPath>
						<rect x="677.9" y="99.6" class="st7" width="7.2" height="38.4"/>
					</g>
				</g>
			</g>
			<g>
				<g>
					<g>
						<defs>
							<circle id="SVGID_12_" cx="674.6" cy="86.5" r="44.2"/>
						</defs>
						<clipPath id="SVGID_13_">
							<use xlink:href="#SVGID_12_"  style="overflow:visible;"/>
						</clipPath>
						<rect x="699.8" y="99.6" class="st8" width="7.2" height="38.4"/>
					</g>
				</g>
			</g>
			<g>
				<g>
					<g>
						<defs>
							<circle id="SVGID_15_" cx="674.6" cy="86.5" r="44.2"/>
						</defs>
						<clipPath id="SVGID_17_">
							<use xlink:href="#SVGID_15_"  style="overflow:visible;"/>
						</clipPath>
						<rect x="685" y="99.6" class="st9" width="14.6" height="38.4"/>
					</g>
				</g>
			</g>
			<g>
				<g>
					<g>
						<defs>
							<circle id="SVGID_18_" cx="674.6" cy="86.5" r="44.2"/>
						</defs>
						<clipPath id="SVGID_19_">
							<use xlink:href="#SVGID_18_"  style="overflow:visible;"/>
						</clipPath>
						<rect x="644.8" y="60.2" class="st10" width="29.1" height="83.7"/>
					</g>
				</g>
			</g>
		</g>
		<path class="st4" d="M699.3,93.4c-1.3,0.9-3.4,1.2-4.7,1.3c-1.2,0.1-4.9,0-4.9,0"/>
		<polygon class="st4" points="692.5,47.6 707,99.6 677.9,99.6 		"/>
		<ellipse class="st4" cx="687.1" cy="85.6" rx="1.9" ry="2.7"/>
		<ellipse class="st4" cx="696.2" cy="85.6" rx="1.9" ry="2.7"/>
		<polygon class="st11" points="692.5,47.6 697.8,66.9 687.1,66.9 		"/>
		<ellipse class="st4" cx="659.5" cy="85.6" rx="1.9" ry="2.7"/>
		<ellipse class="st4" cx="668.6" cy="85.6" rx="1.9" ry="2.7"/>
		<line class="st4" x1="645.1" y1="60.3" x2="649.3" y2="60.3"/>
		<line class="st4" x1="645.1" y1="69.7" x2="651.5" y2="69.7"/>
		<line class="st4" x1="645.1" y1="78.3" x2="649.3" y2="78.3"/>
		<line class="st4" x1="645.1" y1="87.6" x2="651.5" y2="87.6"/>
		<line class="st4" x1="645.1" y1="96.2" x2="649.3" y2="96.2"/>
		<line class="st4" x1="645.1" y1="105.6" x2="651.5" y2="105.6"/>
		<line class="st4" x1="645.1" y1="114.2" x2="649.3" y2="114.2"/>
		<path class="st4" d="M667.6,95c-1.7,1.6-3.8,2.6-6,2.6c-2.3,0-4.5-1.1-6.2-2.7L667.6,95z"/>
	</g>
	<g id="_x30_5_1_">
		<circle id="SVGID_11_" class="st2" cx="573.1" cy="86.5" r="44.2"/>
		<ellipse class="st4" cx="559.3" cy="89.7" rx="3.4" ry="3.3"/>
		<ellipse class="st4" cx="587.2" cy="89.7" rx="3.4" ry="3.3"/>
		<path class="st4" d="M577.5,91.3c-1.2,1.1-2.7,1.9-4.2,1.9c-1.6,0-3-0.6-4.2-1.8"/>
		<path class="st5" d="M555,83.6c1.7-8.7,9.3-15.4,18.5-15.4s16.9,6.6,18.5,15.4h16.3C606.5,65.9,591.6,52,573.4,52
			c-18.2,0-33.1,13.9-34.9,31.6H555z"/>
		<rect x="534.9" y="83.6" class="st4" width="77.1" height="16.2"/>
		<line class="st4" x1="573.5" y1="52.4" x2="573.5" y2="60"/>
		<line class="st4" x1="545.3" y1="91.8" x2="545.3" y2="99.4"/>
		<line class="st4" x1="554.9" y1="95.9" x2="554.9" y2="99.6"/>
		<line class="st4" x1="585.7" y1="54.9" x2="583.8" y2="58.1"/>
		<line class="st4" x1="563.1" y1="58.1" x2="561.3" y2="54.9"/>
		<line class="st4" x1="592.3" y1="95.9" x2="592.3" y2="99.6"/>
		<line class="st4" x1="601.2" y1="91.8" x2="601.2" y2="99.4"/>
		<line class="st4" x1="595.9" y1="60.4" x2="590.5" y2="65.8"/>
		<line class="st4" x1="551.5" y1="60.9" x2="556.9" y2="66.2"/>
	</g>
	<g id="_x30_4_1_">
		<circle id="SVGID_7_" class="st2" cx="471.6" cy="86.5" r="44.2"/>
		<g>
			<g>
				<g>
					<g>
						<defs>
							<circle id="SVGID_22_" cx="471.6" cy="86.5" r="44.2"/>
						</defs>
						<clipPath id="SVGID_23_">
							<use xlink:href="#SVGID_22_"  style="overflow:visible;"/>
						</clipPath>
						<path class="st12" d="M471.5,278.3c0,0,8.7,1,10.3-3.7c2-5.7,3.1-17.5,3.1-35.4c0-40.5-6.4-121.6-6.4-121.6h-14
							c0,0-6.4,81.1-6.4,121.6c0,17.9,1.1,29.8,3.1,35.4C463,279.1,471.5,278.3,471.5,278.3z"/>
					</g>
				</g>
			</g>
		</g>
		<ellipse class="st4" cx="483.7" cy="86.9" rx="3.1" ry="2.2"/>
		<ellipse class="st4" cx="466.3" cy="86.9" rx="3.1" ry="2.2"/>
		<path class="st5" d="M479.4,108.4h-15.7c0,0,0.4,7-0.4,17.9h16.3C478.9,115.3,479.4,108.4,479.4,108.4z"/>
		<path class="st4" d="M473.5,47.6c0,0,35,36.1,5.7,60.8h-15.5c0,0-17.2-10.5-9.3-30.4C461.6,59.7,473.5,62,473.5,47.6z"/>
		<path class="st4" d="M480.6,98.6c-1.7,1.7-3.7,2.6-6,2.6c-2.2,0-4.4-1.1-6.1-2.7L480.6,98.6z"/>
		<path class="st4" d="M469.8,64.1c1.2-1.3,6.5-7.7,4.8-14.1c-0.2-0.6-0.4-1.3-0.8-2"/>
	</g>
	<g>
		<rect x="471.5" y="61" class="st13" width="259.6" height="163.5"/>
		<rect x="494.7" y="197.1" class="st14" width="272.5" height="43.9"/>
		<g class="st15">
			<path class="st1" d="M504.1,202.5c0,1.5-0.4,2.7-1.1,3.6c-0.8,0.9-1.8,1.3-3.1,1.3c-1.3,0-2.3-0.4-3.1-1.3
				c-0.7-0.9-1.1-2.1-1.1-3.6c0-1.5,0.4-2.7,1.1-3.6c0.8-0.9,1.8-1.3,3.1-1.3c1.3,0,2.4,0.4,3.1,1.3
				C503.7,199.8,504.1,201,504.1,202.5z M496.4,202.5c0,1.4,0.3,2.4,0.9,3.1s1.5,1.1,2.6,1.1c1.1,0,2-0.4,2.6-1.1
				c0.6-0.7,0.9-1.8,0.9-3.1c0-1.4-0.3-2.4-0.9-3.1c-0.6-0.7-1.5-1.1-2.6-1.1c-1.1,0-2,0.4-2.6,1.1S496.4,201.2,496.4,202.5z"/>
			<path class="st1" d="M510.6,200.8h-2.3v6.5h-0.6v-6.5h-2.4v-0.6h5.4V200.8z"/>
			<path class="st1" d="M511.9,201c0-0.4,0.2-0.6,0.5-0.6c0.4,0,0.5,0.2,0.5,0.6c0,0.2,0,0.4-0.2,0.5c-0.1,0.1-0.2,0.1-0.4,0.1
				c-0.1,0-0.3,0-0.4-0.1C511.9,201.4,511.9,201.2,511.9,201z M511.9,206.7c0-0.4,0.2-0.6,0.5-0.6c0.4,0,0.5,0.2,0.5,0.6
				c0,0.4-0.2,0.6-0.5,0.6C512.1,207.4,511.9,207.2,511.9,206.7z"/>
		</g>
		<g class="st15">
		</g>
		<g class="st15">
			<path class="st1" d="M524,207.2h-5.3v-9.4h5.3v1.3h-3.8v2.6h3.6v1.3h-3.6v3h3.8V207.2z"/>
			<path class="st1" d="M531.8,207.2h-1.5v-6h-2c-0.1,1.5-0.3,2.7-0.5,3.6c-0.2,0.9-0.5,1.5-0.8,1.9c-0.3,0.4-0.8,0.6-1.3,0.6
				c-0.3,0-0.6,0-0.8-0.1V206c0.2,0.1,0.3,0.1,0.5,0.1c0.4,0,0.8-0.5,1-1.5c0.3-1,0.4-2.5,0.6-4.5h4.8V207.2z"/>
			<path class="st1" d="M537,207.4c-1.1,0-2-0.3-2.6-1s-0.9-1.5-0.9-2.7c0-1.2,0.3-2.1,0.9-2.8c0.6-0.7,1.4-1,2.4-1
				c0.9,0,1.7,0.3,2.2,0.9s0.8,1.4,0.8,2.4v0.8h-4.8c0,0.7,0.2,1.2,0.6,1.6c0.4,0.4,0.9,0.6,1.5,0.6c0.4,0,0.8,0,1.2-0.1
				s0.8-0.2,1.2-0.4v1.2c-0.4,0.2-0.7,0.3-1.1,0.4S537.5,207.4,537,207.4z M536.8,201.1c-0.5,0-0.9,0.2-1.2,0.5
				c-0.3,0.3-0.5,0.8-0.5,1.3h3.2c0-0.6-0.2-1-0.4-1.3S537.2,201.1,536.8,201.1z"/>
			<path class="st1" d="M543.1,200.1v2.9h3.4v-2.9h1.5v7.1h-1.5v-3.1h-3.4v3.1h-1.5v-7.1H543.1z"/>
			<path class="st1" d="M554.6,207.2l-0.3-1h-0.1c-0.3,0.4-0.7,0.7-1,0.9c-0.3,0.2-0.8,0.2-1.3,0.2c-0.7,0-1.3-0.2-1.6-0.6
				c-0.4-0.4-0.6-0.9-0.6-1.6c0-0.7,0.3-1.3,0.8-1.7c0.5-0.4,1.4-0.6,2.5-0.6l1.2,0v-0.4c0-0.5-0.1-0.8-0.3-1
				c-0.2-0.2-0.5-0.3-1-0.3c-0.4,0-0.7,0.1-1.1,0.2c-0.3,0.1-0.7,0.2-1,0.4l-0.5-1.1c0.4-0.2,0.8-0.4,1.3-0.5
				c0.5-0.1,0.9-0.2,1.3-0.2c0.9,0,1.6,0.2,2.1,0.6c0.5,0.4,0.7,1,0.7,1.9v4.8H554.6z M552.3,206.2c0.6,0,1-0.2,1.3-0.5
				c0.3-0.3,0.5-0.7,0.5-1.3v-0.6l-0.9,0c-0.7,0-1.2,0.1-1.6,0.4c-0.3,0.2-0.5,0.5-0.5,1c0,0.3,0.1,0.6,0.3,0.7
				S552,206.2,552.3,206.2z"/>
			<path class="st1" d="M565.5,207.2l-2.7-7.9h-0.1c0.1,1.2,0.1,2.3,0.1,3.3v4.6h-1.4v-9.4h2.2l2.6,7.5h0l2.7-7.5h2.2v9.4h-1.5v-4.7
				c0-0.5,0-1.1,0-1.8c0-0.8,0-1.2,0.1-1.4h-0.1l-2.8,7.9H565.5z"/>
			<path class="st1" d="M579.8,203.7c0,1.2-0.3,2.1-0.9,2.7c-0.6,0.7-1.4,1-2.5,1c-0.7,0-1.3-0.2-1.8-0.5s-0.9-0.7-1.2-1.3
				c-0.3-0.6-0.4-1.2-0.4-2c0-1.2,0.3-2.1,0.9-2.7c0.6-0.7,1.4-1,2.5-1c1,0,1.9,0.3,2.5,1S579.8,202.5,579.8,203.7z M574.6,203.7
				c0,1.7,0.6,2.5,1.8,2.5c1.2,0,1.8-0.8,1.8-2.5c0-1.6-0.6-2.5-1.8-2.5c-0.6,0-1.1,0.2-1.4,0.6
				C574.7,202.3,574.6,202.9,574.6,203.7z"/>
			<path class="st1" d="M587.4,207.2h-1.5v-6h-2c-0.1,1.5-0.3,2.7-0.5,3.6c-0.2,0.9-0.5,1.5-0.8,1.9c-0.3,0.4-0.8,0.6-1.3,0.6
				c-0.3,0-0.6,0-0.8-0.1V206c0.2,0.1,0.3,0.1,0.5,0.1c0.4,0,0.8-0.5,1-1.5c0.3-1,0.4-2.5,0.6-4.5h4.8V207.2z"/>
			<path class="st1" d="M591.1,203h1.8c2,0,3,0.7,3,2.1c0,0.7-0.3,1.3-0.8,1.7s-1.3,0.6-2.2,0.6h-3.3v-7.1h1.5V203z M594.4,205.1
				c0-0.4-0.1-0.6-0.4-0.8c-0.3-0.1-0.7-0.2-1.2-0.2h-1.7v2h1.7c0.5,0,0.9-0.1,1.1-0.3C594.2,205.7,594.4,205.4,594.4,205.1z"/>
			<path class="st1" d="M597.2,203c0-1.6,0.3-2.8,0.8-3.7s1.4-1.4,2.6-1.7c0.9-0.2,1.9-0.4,3.1-0.5l0.2,1.3
				c-1.4,0.2-2.4,0.4-3.1,0.5c-0.7,0.1-1.2,0.4-1.5,0.8c-0.3,0.4-0.5,1.1-0.5,1.9h0.1c0.2-0.4,0.6-0.6,1-0.8s0.8-0.3,1.3-0.3
				c0.9,0,1.6,0.3,2.1,0.8c0.5,0.6,0.7,1.3,0.7,2.3c0,1.2-0.3,2-0.9,2.7c-0.6,0.6-1.4,0.9-2.5,0.9c-1,0-1.9-0.4-2.5-1.2
				S597.2,204.3,597.2,203z M600.6,206.1c1.1,0,1.7-0.7,1.7-2.2c0-1.4-0.5-2.1-1.5-2.1c-0.3,0-0.6,0.1-0.8,0.2
				c-0.3,0.1-0.5,0.3-0.7,0.5s-0.4,0.4-0.5,0.6c0,1,0.2,1.8,0.5,2.3C599.5,205.9,600,206.1,600.6,206.1z"/>
			<path class="st1" d="M608.8,207.4c-1.1,0-2-0.3-2.6-1s-0.9-1.5-0.9-2.7c0-1.2,0.3-2.1,0.9-2.8c0.6-0.7,1.4-1,2.4-1
				c0.9,0,1.7,0.3,2.2,0.9s0.8,1.4,0.8,2.4v0.8h-4.8c0,0.7,0.2,1.2,0.6,1.6c0.4,0.4,0.9,0.6,1.5,0.6c0.4,0,0.8,0,1.2-0.1
				s0.8-0.2,1.2-0.4v1.2c-0.4,0.2-0.7,0.3-1.1,0.4S609.2,207.4,608.8,207.4z M608.5,201.1c-0.5,0-0.9,0.2-1.2,0.5
				c-0.3,0.3-0.5,0.8-0.5,1.3h3.2c0-0.6-0.2-1-0.4-1.3S609,201.1,608.5,201.1z"/>
			<path class="st1" d="M616.9,207.4c-0.9,0-1.6-0.3-2.1-1h-0.1c0.1,0.6,0.1,1,0.1,1.1v2.9h-1.5v-10.3h1.2c0,0.1,0.1,0.5,0.2,1h0.1
				c0.5-0.7,1.2-1.1,2.1-1.1c0.9,0,1.6,0.3,2.1,1s0.7,1.6,0.7,2.7c0,1.2-0.3,2.1-0.8,2.7C618.5,207,617.8,207.4,616.9,207.4z
				 M616.5,201.2c-0.6,0-1,0.2-1.3,0.5c-0.3,0.4-0.4,0.9-0.4,1.7v0.2c0,0.9,0.1,1.5,0.4,1.9c0.3,0.4,0.7,0.6,1.4,0.6
				c0.5,0,0.9-0.2,1.2-0.6c0.3-0.4,0.4-1,0.4-1.8c0-0.8-0.1-1.4-0.4-1.8C617.5,201.4,617.1,201.2,616.5,201.2z"/>
			<path class="st1" d="M623,200.1v3.7c0,0.4,0,1.1-0.1,1.9l3.6-5.5h1.9v7.1h-1.5v-3.6c0-0.2,0-0.5,0-1c0-0.4,0-0.8,0.1-1l-3.6,5.5
				h-1.9v-7.1H623z"/>
			<path class="st1" d="M635.8,200.1v1.2h-2.3v6H632v-6h-2.3v-1.2H635.8z"/>
			<path class="st1" d="M638.7,200.1v2.9h3.4v-2.9h1.5v7.1h-1.5v-3.1h-3.4v3.1h-1.5v-7.1H638.7z"/>
			<path class="st1" d="M650.3,207.2l-0.3-1h-0.1c-0.3,0.4-0.7,0.7-1,0.9c-0.3,0.2-0.8,0.2-1.3,0.2c-0.7,0-1.3-0.2-1.6-0.6
				c-0.4-0.4-0.6-0.9-0.6-1.6c0-0.7,0.3-1.3,0.8-1.7c0.5-0.4,1.4-0.6,2.5-0.6l1.2,0v-0.4c0-0.5-0.1-0.8-0.3-1
				c-0.2-0.2-0.5-0.3-1-0.3c-0.4,0-0.7,0.1-1.1,0.2c-0.3,0.1-0.7,0.2-1,0.4l-0.5-1.1c0.4-0.2,0.8-0.4,1.3-0.5
				c0.5-0.1,0.9-0.2,1.3-0.2c0.9,0,1.6,0.2,2.1,0.6c0.5,0.4,0.7,1,0.7,1.9v4.8H650.3z M648,206.2c0.6,0,1-0.2,1.3-0.5
				c0.3-0.3,0.5-0.7,0.5-1.3v-0.6l-0.9,0c-0.7,0-1.2,0.1-1.6,0.4c-0.3,0.2-0.5,0.5-0.5,1c0,0.3,0.1,0.6,0.3,0.7
				S647.6,206.2,648,206.2z"/>
		</g>
		<rect x="498.8" y="103.3" class="st14" width="274.5" height="107.8"/>
		<g class="st15">
			<path class="st1" d="M508.1,108.7c0,1.5-0.4,2.7-1.1,3.6c-0.8,0.9-1.8,1.3-3.1,1.3c-1.3,0-2.3-0.4-3.1-1.3
				c-0.7-0.9-1.1-2.1-1.1-3.6c0-1.5,0.4-2.7,1.1-3.6c0.8-0.9,1.8-1.3,3.1-1.3c1.3,0,2.4,0.4,3.1,1.3
				C507.7,106,508.1,107.2,508.1,108.7z M500.4,108.7c0,1.4,0.3,2.4,0.9,3.1c0.6,0.7,1.5,1.1,2.6,1.1c1.1,0,2-0.4,2.6-1.1
				c0.6-0.7,0.9-1.8,0.9-3.1c0-1.4-0.3-2.4-0.9-3.1c-0.6-0.7-1.5-1.1-2.6-1.1c-1.1,0-2,0.4-2.6,1.1
				C500.7,106.3,500.4,107.3,500.4,108.7z"/>
			<path class="st1" d="M514.6,106.9h-2.3v6.5h-0.6v-6.5h-2.4v-0.6h5.4V106.9z"/>
			<path class="st1" d="M520.9,113.4h-0.6V107h-2.5c-0.1,1.7-0.3,3-0.5,3.9c-0.2,0.9-0.4,1.6-0.7,2c-0.3,0.4-0.7,0.6-1.1,0.6
				c-0.2,0-0.3,0-0.4-0.1v-0.6c0.1,0,0.2,0,0.3,0c0.5,0,0.9-0.5,1.2-1.5c0.3-1,0.5-2.7,0.7-5h3.7V113.4z"/>
			<path class="st1" d="M523.8,106.4v5.1l0,1.3l4.2-6.4h0.9v7h-0.6v-5l0-1.4l-4.2,6.4h-0.8v-7H523.8z"/>
			<path class="st1" d="M531.7,106.4v2.4c0,0.6,0.1,1,0.4,1.3c0.3,0.3,0.7,0.4,1.3,0.4c0.4,0,0.8-0.1,1.2-0.2
				c0.4-0.2,0.8-0.4,1.2-0.7v-3.1h0.6v7h-0.6v-3.3c-0.4,0.3-0.9,0.6-1.3,0.7c-0.4,0.1-0.9,0.2-1.3,0.2c-0.7,0-1.3-0.2-1.6-0.6
				c-0.4-0.4-0.6-0.9-0.6-1.6v-2.4H531.7z"/>
			<path class="st1" d="M539.5,106.4v3.1h4.5v-3.1h0.6v7h-0.6V110h-4.5v3.4h-0.6v-7H539.5z"/>
			<path class="st1" d="M551.2,113.4l-0.2-1.1H551c-0.4,0.5-0.7,0.8-1.1,1c-0.4,0.2-0.8,0.3-1.3,0.3c-0.7,0-1.2-0.2-1.6-0.5
				c-0.4-0.4-0.6-0.8-0.6-1.5c0-0.7,0.3-1.2,0.9-1.6c0.6-0.4,1.4-0.6,2.5-0.6l1.3,0v-0.5c0-0.7-0.1-1.2-0.4-1.5s-0.7-0.5-1.3-0.5
				c-0.7,0-1.3,0.2-2,0.5l-0.2-0.6c0.8-0.4,1.5-0.5,2.3-0.5c0.8,0,1.3,0.2,1.7,0.6c0.4,0.4,0.6,1,0.6,1.9v4.7H551.2z M548.6,113
				c0.8,0,1.3-0.2,1.8-0.6c0.4-0.4,0.6-1,0.6-1.8v-0.7l-1.2,0.1c-1,0-1.7,0.2-2.1,0.5s-0.6,0.7-0.6,1.2c0,0.4,0.1,0.8,0.4,1
				C547.7,112.8,548.1,113,548.6,113z"/>
			<path class="st1" d="M553.8,113.4H553l2.1-3c-0.6-0.1-1.1-0.3-1.4-0.7c-0.3-0.3-0.4-0.7-0.4-1.3c0-0.6,0.2-1.1,0.6-1.5
				c0.4-0.4,1-0.6,1.7-0.6h2.9v7H558v-3h-2.1L553.8,113.4z M554,108.4c0,0.5,0.2,0.8,0.5,1.1s0.8,0.4,1.4,0.4h2.1V107h-2.3
				c-0.5,0-0.9,0.1-1.2,0.4C554.1,107.6,554,107.9,554,108.4z"/>
			<path class="st1" d="M567.4,113.5c-1.1,0-1.9-0.4-2.4-1.2h0l0,0.5c0,0.3,0,0.7,0,1v2.7h-0.6v-10.2h0.5l0.1,1h0
				c0.5-0.8,1.3-1.1,2.3-1.1c0.9,0,1.7,0.3,2.2,0.9s0.7,1.5,0.7,2.7c0,1.2-0.3,2.1-0.8,2.7C569,113.2,568.3,113.5,567.4,113.5z
				 M567.4,113c0.7,0,1.3-0.3,1.7-0.8c0.4-0.5,0.6-1.3,0.6-2.2c0-2.1-0.7-3.1-2.2-3.1c-0.8,0-1.4,0.2-1.8,0.7s-0.6,1.2-0.6,2.2v0.2
				c0,1.1,0.2,1.9,0.6,2.4C565.9,112.7,566.5,113,567.4,113z"/>
			<path class="st1" d="M576.5,113.4l-0.2-1.1h-0.1c-0.4,0.5-0.7,0.8-1.1,1c-0.4,0.2-0.8,0.3-1.3,0.3c-0.7,0-1.2-0.2-1.6-0.5
				c-0.4-0.4-0.6-0.8-0.6-1.5c0-0.7,0.3-1.2,0.9-1.6c0.6-0.4,1.4-0.6,2.5-0.6l1.3,0v-0.5c0-0.7-0.1-1.2-0.4-1.5s-0.7-0.5-1.3-0.5
				c-0.7,0-1.3,0.2-2,0.5l-0.2-0.6c0.8-0.4,1.5-0.5,2.3-0.5c0.8,0,1.3,0.2,1.7,0.6c0.4,0.4,0.6,1,0.6,1.9v4.7H576.5z M573.9,113
				c0.8,0,1.3-0.2,1.8-0.6c0.4-0.4,0.6-1,0.6-1.8v-0.7l-1.2,0.1c-1,0-1.7,0.2-2.1,0.5s-0.6,0.7-0.6,1.2c0,0.4,0.1,0.8,0.4,1
				C573.1,112.8,573.4,113,573.9,113z"/>
			<path class="st1" d="M578.9,109.2c0-3.1,0.9-4.8,2.6-5.2c0.6-0.2,1.2-0.3,1.7-0.4s1-0.2,1.5-0.3l0.1,0.6L584,104
				c-1.3,0.2-2.1,0.4-2.5,0.6c-0.6,0.2-1,0.6-1.4,1.2c-0.3,0.6-0.5,1.5-0.6,2.6h0c0.5-0.5,0.9-0.9,1.3-1.2c0.4-0.2,0.9-0.4,1.3-0.4
				c0.9,0,1.5,0.3,2,0.8c0.5,0.6,0.7,1.3,0.7,2.4c0,1.1-0.3,1.9-0.8,2.5c-0.5,0.6-1.3,0.9-2.2,0.9c-1,0-1.7-0.4-2.2-1.1
				C579.2,111.6,578.9,110.6,578.9,109.2z M582,113c0.7,0,1.3-0.2,1.7-0.7s0.6-1.2,0.6-2.1c0-0.9-0.2-1.5-0.5-2
				c-0.3-0.4-0.9-0.7-1.5-0.7c-0.5,0-1,0.2-1.5,0.5s-0.9,0.7-1.2,1.3c0,0.8,0.1,1.4,0.3,2c0.2,0.6,0.5,1,0.8,1.3
				C581,112.8,581.5,113,582,113z"/>
			<path class="st1" d="M592.7,109.9c0,1.1-0.3,2-0.8,2.7s-1.3,1-2.3,1c-0.6,0-1.2-0.1-1.6-0.4s-0.8-0.7-1.1-1.3
				c-0.2-0.6-0.4-1.2-0.4-1.9c0-1.1,0.3-2,0.8-2.7c0.6-0.6,1.3-1,2.3-1c1,0,1.7,0.3,2.3,1C592.4,107.9,592.7,108.8,592.7,109.9z
				 M587.1,109.9c0,1,0.2,1.7,0.6,2.3c0.4,0.5,1,0.8,1.8,0.8s1.4-0.3,1.8-0.8c0.4-0.5,0.6-1.3,0.6-2.3c0-1-0.2-1.7-0.6-2.3
				s-1-0.8-1.8-0.8s-1.4,0.3-1.8,0.8C587.3,108.2,587.1,108.9,587.1,109.9z"/>
			<path class="st1" d="M599.1,106.9h-2.3v6.5h-0.6v-6.5h-2.4v-0.6h5.4V106.9z"/>
			<path class="st1" d="M604.8,113.4l-0.2-1.1h-0.1c-0.4,0.5-0.7,0.8-1.1,1c-0.4,0.2-0.8,0.3-1.3,0.3c-0.7,0-1.2-0.2-1.6-0.5
				c-0.4-0.4-0.6-0.8-0.6-1.5c0-0.7,0.3-1.2,0.9-1.6c0.6-0.4,1.4-0.6,2.5-0.6l1.3,0v-0.5c0-0.7-0.1-1.2-0.4-1.5s-0.7-0.5-1.3-0.5
				c-0.7,0-1.3,0.2-2,0.5l-0.2-0.6c0.8-0.4,1.5-0.5,2.3-0.5c0.8,0,1.3,0.2,1.7,0.6c0.4,0.4,0.6,1,0.6,1.9v4.7H604.8z M602.2,113
				c0.8,0,1.3-0.2,1.8-0.6c0.4-0.4,0.6-1,0.6-1.8v-0.7l-1.2,0.1c-1,0-1.7,0.2-2.1,0.5s-0.6,0.7-0.6,1.2c0,0.4,0.1,0.8,0.4,1
				C601.3,112.8,601.7,113,602.2,113z"/>
			<path class="st1" d="M608.3,111.9l0.1,0.1c-0.3,1.1-0.7,2.2-1.1,3.1h-0.4c0.3-1.2,0.6-2.3,0.7-3.2H608.3z"/>
			<path class="st1" d="M616.6,113.5c-1,0-1.8-0.3-2.4-1c-0.6-0.6-0.9-1.5-0.9-2.6c0-1.2,0.3-2.1,0.9-2.7c0.6-0.6,1.4-1,2.4-1
				c0.6,0,1.2,0.1,1.7,0.3l-0.2,0.6c-0.6-0.2-1.1-0.3-1.6-0.3c-0.9,0-1.5,0.3-2,0.8c-0.4,0.5-0.7,1.3-0.7,2.3c0,0.9,0.2,1.7,0.7,2.2
				c0.4,0.5,1.1,0.8,1.9,0.8c0.6,0,1.2-0.1,1.8-0.3v0.6C617.9,113.4,617.4,113.5,616.6,113.5z"/>
			<path class="st1" d="M620.8,113.4h-0.6v-7h5.6v7h-0.6V107h-4.3V113.4z"/>
			<path class="st1" d="M632.3,113.4l-0.2-1.1h-0.1c-0.4,0.5-0.7,0.8-1.1,1c-0.4,0.2-0.8,0.3-1.3,0.3c-0.7,0-1.2-0.2-1.6-0.5
				c-0.4-0.4-0.6-0.8-0.6-1.5c0-0.7,0.3-1.2,0.9-1.6c0.6-0.4,1.4-0.6,2.5-0.6l1.3,0v-0.5c0-0.7-0.1-1.2-0.4-1.5s-0.7-0.5-1.3-0.5
				c-0.7,0-1.3,0.2-2,0.5l-0.2-0.6c0.8-0.4,1.5-0.5,2.3-0.5c0.8,0,1.3,0.2,1.7,0.6c0.4,0.4,0.6,1,0.6,1.9v4.7H632.3z M629.7,113
				c0.8,0,1.3-0.2,1.8-0.6c0.4-0.4,0.6-1,0.6-1.8v-0.7l-1.2,0.1c-1,0-1.7,0.2-2.1,0.5s-0.6,0.7-0.6,1.2c0,0.4,0.1,0.8,0.4,1
				C628.9,112.8,629.3,113,629.7,113z"/>
			<path class="st1" d="M637.9,113.5c-1,0-1.8-0.3-2.4-1c-0.6-0.6-0.9-1.5-0.9-2.6c0-1.2,0.3-2.1,0.9-2.7c0.6-0.6,1.4-1,2.4-1
				c0.6,0,1.2,0.1,1.7,0.3l-0.2,0.6c-0.6-0.2-1.1-0.3-1.6-0.3c-0.9,0-1.5,0.3-2,0.8c-0.4,0.5-0.7,1.3-0.7,2.3c0,0.9,0.2,1.7,0.7,2.2
				c0.4,0.5,1.1,0.8,1.9,0.8c0.6,0,1.2-0.1,1.8-0.3v0.6C639.2,113.4,638.6,113.5,637.9,113.5z"/>
			<path class="st1" d="M642,106.4v5.1l0,1.3l4.2-6.4h0.9v7h-0.6v-5l0-1.4l-4.2,6.4h-0.8v-7H642z"/>
			<path class="st1" d="M648.9,109.2c0-3.1,0.9-4.8,2.6-5.2c0.6-0.2,1.2-0.3,1.7-0.4s1-0.2,1.5-0.3l0.1,0.6l-0.8,0.1
				c-1.3,0.2-2.1,0.4-2.5,0.6c-0.6,0.2-1,0.6-1.4,1.2c-0.3,0.6-0.5,1.5-0.6,2.6h0c0.5-0.5,0.9-0.9,1.3-1.2c0.4-0.2,0.9-0.4,1.3-0.4
				c0.9,0,1.5,0.3,2,0.8c0.5,0.6,0.7,1.3,0.7,2.4c0,1.1-0.3,1.9-0.8,2.5c-0.5,0.6-1.3,0.9-2.2,0.9c-1,0-1.7-0.4-2.2-1.1
				C649.2,111.6,648.9,110.6,648.9,109.2z M652,113c0.7,0,1.3-0.2,1.7-0.7s0.6-1.2,0.6-2.1c0-0.9-0.2-1.5-0.5-2
				c-0.3-0.4-0.9-0.7-1.5-0.7c-0.5,0-1,0.2-1.5,0.5s-0.9,0.7-1.2,1.3c0,0.8,0.1,1.4,0.3,2c0.2,0.6,0.5,1,0.8,1.3
				C651.1,112.8,651.5,113,652,113z"/>
			<path class="st1" d="M662.7,109.9c0,1.1-0.3,2-0.8,2.7s-1.3,1-2.3,1c-0.6,0-1.2-0.1-1.6-0.4s-0.8-0.7-1.1-1.3
				c-0.2-0.6-0.4-1.2-0.4-1.9c0-1.1,0.3-2,0.8-2.7c0.6-0.6,1.3-1,2.3-1c1,0,1.7,0.3,2.3,1C662.5,107.9,662.7,108.8,662.7,109.9z
				 M657.2,109.9c0,1,0.2,1.7,0.6,2.3c0.4,0.5,1,0.8,1.8,0.8s1.4-0.3,1.8-0.8c0.4-0.5,0.6-1.3,0.6-2.3c0-1-0.2-1.7-0.6-2.3
				s-1-0.8-1.8-0.8s-1.4,0.3-1.8,0.8C657.4,108.2,657.2,108.9,657.2,109.9z"/>
			<path class="st1" d="M664.6,112.9c0-0.4,0.2-0.6,0.5-0.6c0.4,0,0.5,0.2,0.5,0.6c0,0.4-0.2,0.6-0.5,0.6
				C664.7,113.5,664.6,113.3,664.6,112.9z M665.3,111h-0.4l-0.2-7h0.8L665.3,111z"/>
		</g>
		<line class="st16" x1="493.6" y1="182.3" x2="715.5" y2="182.3"/>
		<g>
			<line class="st17" x1="490.4" y1="82.8" x2="496.8" y2="76.4"/>
			<line class="st17" x1="490.4" y1="76.4" x2="496.8" y2="82.8"/>
		</g>
		<circle class="st17" cx="493.8" cy="79.4" r="9"/>
	</g>
</g>
<g>
	<g id="_x30_9_2_">
		<circle id="SVGID_8_" class="st2" cx="305.2" cy="195.5" r="44.2"/>
		<line class="st3" x1="291.5" y1="226.4" x2="318.8" y2="226.4"/>
		<line class="st3" x1="276.2" y1="176.2" x2="280.7" y2="214.9"/>
		<line class="st3" x1="335.4" y1="176.2" x2="330.8" y2="214.9"/>
		<path class="st3" d="M280.7,214.9c2.3,11.4,6.8,11.4,11.4,11.4"/>
		<path class="st3" d="M330.8,214.9c-2.3,11.4-6.8,11.4-11.4,11.4"/>
		<path class="st3" d="M335.4,176.2c0-6.8-4.5-6.8-11.4-6.8h-36.4c-6.9,0-11.4,0-11.4,6.8"/>
		<path class="st4" d="M315.3,190.2c1.1-1.1,2.7-1.8,4.1-1.8c1.6,0,3.1,0.7,4.2,1.9"/>
		<path class="st4" d="M317.6,200.3c-3,3-6.7,4.6-10.9,4.6c-4,0-8-1.9-11.1-4.9"/>
		<ellipse class="st4" cx="294.3" cy="190.8" rx="3.4" ry="3"/>
		<path class="st4" d="M300.2,212.4c-15.5-2.6-27.5-16.1-27.5-32.4h4"/>
		<path class="st4" d="M334.9,180h3.4c0,16.2-11.7,29.6-27.1,32.3"/>
		<path class="st5" d="M312.8,169.6v12.1c0,1.6-1.3,2.9-2.9,2.9s-2.9-1.3-2.9-2.9v-12.1H312.8z"/>
		<path class="st5" d="M295.4,169.6v0.2h-5.5H284v7.2c0,1.6,1.3,2.9,2.9,2.9s2.9-1.3,2.9-2.9v3.6c0,1.6,1.3,2.9,2.9,2.9
			s2.9-1.3,2.9-2.9v-6.8c0.5,0.9,1.4,1.5,2.6,1.5c1.6,0,2.9-1.3,2.9-2.9v-2.7L295.4,169.6L295.4,169.6z"/>
		<path class="st4" d="M309.3,214.9h-7.1c-1.1,0-2-0.9-2-2l0,0c0-1.1,0.9-2,2-2h7.1c1.1,0,2,0.9,2,2l0,0
			C311.3,214,310.4,214.9,309.3,214.9z"/>
	</g>
	<g id="_x30_8_2_">
		<circle id="SVGID_6_" class="st2" cx="200.7" cy="195.5" r="44.2"/>
		<polyline class="st4" points="169.4,226 169.4,171.7 231.5,171.7 231.5,226 		"/>
		<line class="st4" x1="169.4" y1="187.3" x2="231.5" y2="187.3"/>
		<path class="st4" d="M226,171.6v-2.7c0-2-1.7-3.7-3.7-3.7s-3.7,1.7-3.7,3.7v5.6c0,2,1.7,3.7,3.7,3.7"/>
		<path class="st4" d="M215.7,171.6v-2.7c0-2-1.7-3.7-3.7-3.7s-3.7,1.7-3.7,3.7v5.6c0,2,1.7,3.7,3.7,3.7"/>
		<path class="st4" d="M205.4,171.6v-2.7c0-2-1.7-3.7-3.7-3.7s-3.7,1.7-3.7,3.7v5.6c0,2,1.7,3.7,3.7,3.7"/>
		<path class="st4" d="M195,171.6v-2.7c0-2-1.7-3.7-3.7-3.7s-3.7,1.7-3.7,3.7v5.6c0,2,1.7,3.7,3.7,3.7"/>
		<path class="st4" d="M184.8,171.6v-2.7c0-2-1.7-3.7-3.7-3.7s-3.7,1.7-3.7,3.7v5.6c0,2,1.7,3.7,3.7,3.7"/>
		<ellipse class="st4" cx="185.4" cy="207.2" rx="4.9" ry="4.7"/>
		<ellipse class="st4" cx="216.4" cy="207.2" rx="4.9" ry="4.7"/>
		<path class="st4" d="M212.6,223.4c-3.4,3.1-7.6,5.1-11.7,5.1c-4.4,0-8.5-1.8-11.6-4.9"/>
		<path class="st5" d="M227,205.9c1.1,0,2-0.9,2-1.9c0-1.1-1.2-1.9-2.7-1.9l-3.8-0.1c-1.4-0.1-2.7-0.9-2.7-1.8
			c-0.1-1-1.3-1.7-2.7-1.7h-9.3c-1.4,0-2.7,0.9-2.7,1.9c0,1.1,1.2,1.9,2.7,1.9h0.4c1.4,0,2.7,0.8,2.7,1.8s-1.2,1.8-2.7,1.8h-4.7
			c-1.4,0-2.7,0.9-2.7,1.9c0,1.1,1.2,1.9,2.7,1.9l4.7,0.1c1.4,0,2.7,1.2,2.7,2.7v1.9c0,1.4,1.2,2.7,2.7,2.7h1c1.4,0,2.7-0.9,2.7-1.9
			c0-1.1,1.2-1.9,2.7-1.9h2.7c1.4,0,2.7-1.2,2.7-2.7v-1.9C225,207.1,226,205.9,227,205.9z"/>
	</g>
	<g id="_x30_7_2_">
		<circle id="SVGID_5_" class="st2" cx="99" cy="195.5" r="44.2"/>
		<line class="st4" x1="98.9" y1="166.6" x2="98.9" y2="160.1"/>
		<line class="st4" x1="98.9" y1="194.4" x2="98.9" y2="179"/>
		<ellipse class="st4" cx="89.5" cy="206.5" rx="3.1" ry="4"/>
		<ellipse class="st4" cx="108.2" cy="206.5" rx="3.1" ry="4"/>
		<path class="st4" d="M104.9,220.1c-1.7,1.7-3.7,2.6-6,2.6c-2.2,0-4.4-1.1-6.1-2.7"/>
		<path class="st4" d="M98.9,231.7L98.9,231.7c-12.2,0-22.1-9.9-22.1-22.1v-27.5c0-12.2,9.9-22.1,22.1-22.1l0,0
			c12.2,0,22.1,9.9,22.1,22.1v27.4C121,221.8,111,231.7,98.9,231.7z"/>
		<path class="st5" d="M98.8,179L98.8,179c-1.9,0-3.5-1.6-3.5-3.5v-4.9c0-1.9,1.6-3.5,3.5-3.5l0,0c1.9,0,3.5,1.6,3.5,3.5v4.9
			C102.4,177.4,100.8,179,98.8,179z"/>
	</g>
	<g id="_x30_6_2_">
		<circle id="SVGID_4_" class="st6" cx="299.1" cy="86.5" r="44.2"/>
		<g>
			<g>
				<circle id="SVGID_3_" class="st2" cx="299.1" cy="86.5" r="44.2"/>
			</g>
			<g>
				<g>
					<g>
						<defs>
							<circle id="SVGID_24_" cx="299.1" cy="86.5" r="44.2"/>
						</defs>
						<clipPath id="SVGID_25_">
							<use xlink:href="#SVGID_24_"  style="overflow:visible;"/>
						</clipPath>
						<rect x="302.4" y="99.6" class="st18" width="7.2" height="38.4"/>
					</g>
				</g>
			</g>
			<g>
				<g>
					<g>
						<defs>
							<circle id="SVGID_26_" cx="299.1" cy="86.5" r="44.2"/>
						</defs>
						<clipPath id="SVGID_27_">
							<use xlink:href="#SVGID_26_"  style="overflow:visible;"/>
						</clipPath>
						<rect x="324.3" y="99.6" class="st19" width="7.2" height="38.4"/>
					</g>
				</g>
			</g>
			<g>
				<g>
					<g>
						<defs>
							<circle id="SVGID_28_" cx="299.1" cy="86.5" r="44.2"/>
						</defs>
						<clipPath id="SVGID_29_">
							<use xlink:href="#SVGID_28_"  style="overflow:visible;"/>
						</clipPath>
						<rect x="309.5" y="99.6" class="st20" width="14.6" height="38.4"/>
					</g>
				</g>
			</g>
			<g>
				<g>
					<g>
						<defs>
							<circle id="SVGID_30_" cx="299.1" cy="86.5" r="44.2"/>
						</defs>
						<clipPath id="SVGID_31_">
							<use xlink:href="#SVGID_30_"  style="overflow:visible;"/>
						</clipPath>
						<rect x="269.3" y="60.2" class="st21" width="29.1" height="83.7"/>
					</g>
				</g>
			</g>
		</g>
		<path class="st4" d="M323.8,93.4c-1.3,0.9-3.4,1.2-4.7,1.3c-1.2,0.1-4.9,0-4.9,0"/>
		<polygon class="st4" points="317,47.6 331.5,99.6 302.4,99.6 		"/>
		<ellipse class="st4" cx="311.6" cy="85.6" rx="1.9" ry="2.7"/>
		<ellipse class="st4" cx="320.7" cy="85.6" rx="1.9" ry="2.7"/>
		<polygon class="st11" points="317,47.6 322.3,66.9 311.6,66.9 		"/>
		<ellipse class="st4" cx="284" cy="85.6" rx="1.9" ry="2.7"/>
		<ellipse class="st4" cx="293.1" cy="85.6" rx="1.9" ry="2.7"/>
		<line class="st4" x1="269.6" y1="60.3" x2="273.8" y2="60.3"/>
		<line class="st4" x1="269.6" y1="69.7" x2="276" y2="69.7"/>
		<line class="st4" x1="269.6" y1="78.3" x2="273.8" y2="78.3"/>
		<line class="st4" x1="269.6" y1="87.6" x2="276" y2="87.6"/>
		<line class="st4" x1="269.6" y1="96.2" x2="273.8" y2="96.2"/>
		<line class="st4" x1="269.6" y1="105.6" x2="276" y2="105.6"/>
		<line class="st4" x1="269.6" y1="114.2" x2="273.8" y2="114.2"/>
		<path class="st4" d="M292.1,95c-1.7,1.6-3.8,2.6-6,2.6c-2.3,0-4.5-1.1-6.2-2.7L292.1,95z"/>
	</g>
	<g id="_x30_5_2_">
		<circle id="SVGID_2_" class="st2" cx="197.6" cy="86.5" r="44.2"/>
		<ellipse class="st4" cx="183.8" cy="89.7" rx="3.4" ry="3.3"/>
		<ellipse class="st4" cx="211.7" cy="89.7" rx="3.4" ry="3.3"/>
		<path class="st4" d="M202,91.3c-1.2,1.1-2.7,1.9-4.2,1.9c-1.6,0-3-0.6-4.2-1.8"/>
		<path class="st5" d="M179.5,83.6c1.7-8.7,9.3-15.4,18.5-15.4s16.9,6.6,18.5,15.4h16.3C231,65.9,216.1,52,197.9,52
			S164.8,65.9,163,83.6H179.5z"/>
		<rect x="159.4" y="83.6" class="st4" width="77.1" height="16.2"/>
		<line class="st4" x1="198" y1="52.4" x2="198" y2="60"/>
		<line class="st4" x1="169.8" y1="91.8" x2="169.8" y2="99.4"/>
		<line class="st4" x1="179.4" y1="95.9" x2="179.4" y2="99.6"/>
		<line class="st4" x1="210.2" y1="54.9" x2="208.3" y2="58.1"/>
		<line class="st4" x1="187.6" y1="58.1" x2="185.8" y2="54.9"/>
		<line class="st4" x1="216.8" y1="95.9" x2="216.8" y2="99.6"/>
		<line class="st4" x1="225.7" y1="91.8" x2="225.7" y2="99.4"/>
		<line class="st4" x1="220.4" y1="60.4" x2="215" y2="65.8"/>
		<line class="st4" x1="176" y1="60.9" x2="181.4" y2="66.2"/>
	</g>
	<g id="_x30_4_2_">
		<circle id="SVGID_1_" class="st2" cx="96.1" cy="86.5" r="44.2"/>
		<g>
			<g>
				<g>
					<g>
						<defs>
							<circle id="SVGID_32_" cx="96.1" cy="86.5" r="44.2"/>
						</defs>
						<clipPath id="SVGID_33_">
							<use xlink:href="#SVGID_32_"  style="overflow:visible;"/>
						</clipPath>
						<path class="st22" d="M96,278.3c0,0,8.7,1,10.3-3.7c2-5.7,3.1-17.5,3.1-35.4c0-40.5-6.4-121.6-6.4-121.6H89
							c0,0-6.4,81.1-6.4,121.6c0,17.9,1.1,29.8,3.1,35.4C87.5,279.1,96,278.3,96,278.3z"/>
					</g>
				</g>
			</g>
		</g>
		<ellipse class="st4" cx="108.2" cy="86.9" rx="3.1" ry="2.2"/>
		<ellipse class="st4" cx="90.8" cy="86.9" rx="3.1" ry="2.2"/>
		<path class="st5" d="M103.9,108.4H88.2c0,0,0.4,7-0.4,17.9h16.3C103.4,115.3,103.9,108.4,103.9,108.4z"/>
		<path class="st4" d="M98,47.6c0,0,35,36.1,5.7,60.8H88.2c0,0-17.2-10.5-9.3-30.4C86.1,59.7,98,62,98,47.6z"/>
		<path class="st4" d="M105.1,98.6c-1.7,1.7-3.7,2.6-6,2.6c-2.2,0-4.4-1.1-6.1-2.7L105.1,98.6z"/>
		<path class="st4" d="M94.3,64.1c1.2-1.3,6.5-7.7,4.8-14.1c-0.2-0.6-0.4-1.3-0.8-2"/>
	</g>
	<g>
		<g>
			<circle class="st13" cx="112.8" cy="78" r="16"/>
		</g>
		<g>
			<polygon class="st23" points="106.3,81.9 104.8,80.9 116.8,68.9 117.8,70.9 120.8,71.4 121.8,74.9 109.8,86.9 108.8,83.4 
				106.8,83.9 			"/>
			<g>
				<polygon class="st24" points="106.3,81.9 104.8,80.9 116.8,68.9 117.8,70.9 120.8,71.4 121.8,74.9 109.8,86.9 108.8,83.4 
					106.8,83.9 				"/>
			</g>
		</g>
	</g>
</g>
</svg>
