<?xml version="1.0" encoding="utf-8"?>
<!-- Generator: Adobe Illustrator 19.2.1, SVG Export Plug-In . SVG Version: 6.00 Build 0)  -->
<svg version="1.1" id="Слой_1" xmlns="http://www.w3.org/2000/svg" xmlns:xlink="http://www.w3.org/1999/xlink" x="0px" y="0px"
	 viewBox="0 0 538 206" style="enable-background:new 0 0 538 206;" xml:space="preserve">
<style type="text/css">
	.st0{fill:#88B7F3;}
	.st1{fill:none;stroke:#FFFFFF;stroke-miterlimit:10;}
	.st2{fill:none;}
	.st3{enable-background:new    ;}
	.st4{fill:#FFFDFC;}
	.st5{fill:none;stroke:#FFFFFF;stroke-width:0.5904;stroke-linecap:round;stroke-miterlimit:10;}
	.st6{display:none;}
	.st7{display:inline;fill:none;stroke:#9F4443;stroke-width:0.5904;stroke-miterlimit:10;}
	.st8{display:inline;fill:#B7B15C;}
	.st9{display:inline;fill:none;}
	.st10{display:inline;enable-background:new    ;}
	.st11{fill:#9F4443;}
	.st12{fill:#B7B15C;}
	.st13{fill:#E6A955;stroke:#FFFFFF;stroke-width:0.5904;stroke-miterlimit:10;}
	.st14{fill:none;stroke:#FFFFFF;stroke-width:0.5904;stroke-miterlimit:10;}
	.st15{fill:none;stroke:#FFFFFF;stroke-width:0.5904;stroke-linecap:round;stroke-linejoin:round;stroke-miterlimit:10;}
	.st16{fill:#FFFFFF;}
	.st17{fill:#0067D0;}
</style>
<g id="выбрать_файлы1_5_">
	<rect x="128" y="6" class="st0" width="283" height="200"/>
	<g id="share_6_">
	</g>
	<g>
		<line class="st1" x1="391" y1="139.5" x2="148" y2="139.5"/>
		<g>
			<g>
				<polygon class="st2" points="341.6,144.1 148.6,144.1 148.6,120 342,120 				"/>
				<g class="st3">
					<path class="st4" d="M153.8,128.1h-4.1v-7.6h4.1v0.5h-3.6v2.9h3.4v0.5h-3.4v3.3h3.6V128.1z"/>
					<path class="st4" d="M159.3,128.1v-3.7c0-0.6-0.1-1-0.4-1.2c-0.2-0.3-0.6-0.4-1.1-0.4c-0.7,0-1.2,0.2-1.5,0.5s-0.5,0.9-0.5,1.7
						v3.1h-0.5v-5.6h0.4l0.1,0.8h0c0.4-0.6,1-0.9,2-0.9c1.3,0,1.9,0.7,1.9,2.1v3.7H159.3z"/>
					<path class="st4" d="M163.1,127.7c0.3,0,0.6,0,0.9-0.1v0.4c-0.2,0.1-0.5,0.1-0.9,0.1c-0.5,0-0.9-0.1-1.1-0.4
						c-0.2-0.3-0.4-0.7-0.4-1.3v-3.6h-0.8v-0.3l0.8-0.2l0.3-1.3h0.3v1.4h1.7v0.4h-1.7v3.6c0,0.4,0.1,0.8,0.2,1
						C162.6,127.6,162.8,127.7,163.1,127.7z"/>
					<path class="st4" d="M167.5,128.2c-0.8,0-1.5-0.3-1.9-0.8c-0.5-0.5-0.7-1.2-0.7-2.1c0-0.9,0.2-1.6,0.7-2.2s1-0.8,1.8-0.8
						c0.7,0,1.2,0.2,1.6,0.7c0.4,0.5,0.6,1.1,0.6,1.9v0.4h-4.1c0,0.8,0.2,1.4,0.5,1.8c0.4,0.4,0.9,0.6,1.5,0.6c0.3,0,0.6,0,0.8-0.1
						c0.2,0,0.6-0.1,0.9-0.3v0.5c-0.3,0.1-0.6,0.2-0.9,0.3C168.1,128.2,167.8,128.2,167.5,128.2z M167.3,122.8c-0.5,0-1,0.2-1.3,0.5
						s-0.5,0.9-0.6,1.5h3.5c0-0.7-0.1-1.2-0.4-1.5S167.8,122.8,167.3,122.8z"/>
					<path class="st4" d="M173.3,122.3c0.2,0,0.5,0,0.8,0.1l-0.1,0.5c-0.2-0.1-0.5-0.1-0.7-0.1c-0.5,0-0.9,0.2-1.2,0.6
						c-0.3,0.4-0.5,0.9-0.5,1.5v3.1H171v-5.6h0.4l0.1,1h0c0.2-0.4,0.5-0.7,0.7-0.9C172.6,122.4,172.9,122.3,173.3,122.3z"/>
					<path class="st4" d="M180.2,128.2c-0.8,0-1.5-0.3-1.9-0.8c-0.5-0.5-0.7-1.2-0.7-2.1c0-0.9,0.2-1.6,0.7-2.2s1-0.8,1.8-0.8
						c0.7,0,1.2,0.2,1.6,0.7c0.4,0.5,0.6,1.1,0.6,1.9v0.4h-4.1c0,0.8,0.2,1.4,0.5,1.8c0.4,0.4,0.9,0.6,1.5,0.6c0.3,0,0.6,0,0.8-0.1
						c0.2,0,0.6-0.1,0.9-0.3v0.5c-0.3,0.1-0.6,0.2-0.9,0.3C180.8,128.2,180.5,128.2,180.2,128.2z M180.1,122.8c-0.5,0-1,0.2-1.3,0.5
						s-0.5,0.9-0.6,1.5h3.5c0-0.7-0.1-1.2-0.4-1.5S180.6,122.8,180.1,122.8z"/>
					<path class="st4" d="M183.3,125.4V125h2.5v0.4H183.3z"/>
					<path class="st4" d="M194.2,128.1v-3.7c0-0.5-0.1-1-0.3-1.2c-0.2-0.3-0.5-0.4-1-0.4c-0.6,0-1,0.2-1.3,0.5
						c-0.3,0.3-0.4,0.8-0.4,1.5v3.3h-0.5v-3.9c0-1-0.4-1.4-1.3-1.4c-0.6,0-1,0.2-1.3,0.5c-0.3,0.3-0.4,0.9-0.4,1.7v3.1h-0.5v-5.6
						h0.4l0.1,0.8h0c0.2-0.3,0.4-0.5,0.7-0.7c0.3-0.2,0.6-0.2,0.9-0.2c0.9,0,1.5,0.3,1.7,1h0c0.2-0.3,0.4-0.6,0.7-0.7
						s0.7-0.3,1.1-0.3c0.6,0,1.1,0.2,1.4,0.5c0.3,0.3,0.5,0.9,0.5,1.6v3.7H194.2z"/>
					<path class="st4" d="M200,128.1l-0.1-0.9h0c-0.3,0.4-0.6,0.6-0.9,0.8s-0.7,0.2-1.1,0.2c-0.6,0-1-0.1-1.3-0.4
						c-0.3-0.3-0.5-0.7-0.5-1.2c0-0.5,0.2-1,0.7-1.3c0.5-0.3,1.1-0.5,2-0.5l1.1,0v-0.4c0-0.5-0.1-0.9-0.3-1.2
						c-0.2-0.3-0.6-0.4-1.1-0.4c-0.5,0-1.1,0.1-1.6,0.4l-0.2-0.4c0.6-0.3,1.2-0.4,1.8-0.4c0.6,0,1.1,0.2,1.4,0.5
						c0.3,0.3,0.5,0.8,0.5,1.5v3.8H200z M197.9,127.7c0.6,0,1.1-0.2,1.4-0.5c0.3-0.3,0.5-0.8,0.5-1.4v-0.6l-1,0
						c-0.8,0-1.4,0.2-1.7,0.4c-0.3,0.2-0.5,0.5-0.5,1c0,0.4,0.1,0.6,0.3,0.8C197.2,127.6,197.5,127.7,197.9,127.7z"/>
					<path class="st4" d="M202.1,120.9c0-0.3,0.1-0.5,0.3-0.5c0.1,0,0.2,0,0.3,0.1c0.1,0.1,0.1,0.2,0.1,0.4c0,0.2,0,0.3-0.1,0.4
						c-0.1,0.1-0.1,0.1-0.3,0.1C202.2,121.4,202.1,121.2,202.1,120.9z M202.7,128.1h-0.5v-5.6h0.5V128.1z"/>
					<path class="st4" d="M205.1,128.1h-0.5V120h0.5V128.1z"/>
				</g>
			</g>
		</g>
		<g>
			<polyline class="st5" points="384.1,124.3 387.4,126.9 390.6,124.3 			"/>
		</g>
	</g>
	<g class="st6">
		<rect x="260.5" y="241.5" class="st7" width="23.6" height="23.6"/>
		<rect x="260.5" y="153.2" class="st7" width="23.6" height="23.6"/>
		<rect x="260.5" y="194.9" class="st7" width="23.6" height="23.6"/>
		<rect x="260.5" y="106.1" class="st7" width="23.6" height="23.6"/>
		<rect x="260.5" y="58.5" class="st7" width="23.6" height="23.6"/>
		<rect x="260.5" y="6.1" class="st7" width="23.6" height="23.6"/>
		<rect x="263" y="82" class="st8" width="17" height="17"/>
		<rect x="263" y="129" class="st8" width="17" height="17"/>
		<rect x="263" y="219" class="st8" width="17" height="16"/>
		<rect x="394" y="311" class="st8" width="17" height="16"/>
		<rect x="128" y="265" class="st8" width="16" height="17"/>
		<rect x="292.3" y="13.7" class="st9" width="94.9" height="32.7"/>
		<g class="st10">
			<path class="st11" d="M295.7,21.2v-1.9h-3.2v-0.6l3.1-4.4h1v4.3h1v0.7h-1v1.9H295.7z M295.7,18.6v-2.3c0-0.4,0-0.7,0-1.1h0
				c-0.2,0.4-0.4,0.7-0.6,1l-1.7,2.3v0H295.7z"/>
			<path class="st11" d="M302.8,17.7c0,2.3-0.9,3.6-2.4,3.6c-1.3,0-2.3-1.3-2.3-3.5c0-2.3,1-3.6,2.4-3.6
				C302,14.2,302.8,15.5,302.8,17.7z M299.1,17.8c0,1.8,0.6,2.8,1.4,2.8c1,0,1.4-1.1,1.4-2.9c0-1.7-0.4-2.8-1.4-2.8
				C299.7,14.9,299.1,15.9,299.1,17.8z"/>
			<path class="st11" d="M304,17.8c0-0.7,0-1.2,0-1.7h0.8l0,0.9h0c0.4-0.6,1-1,1.8-1c1.2,0,2.2,1.1,2.2,2.6c0,1.8-1.1,2.8-2.3,2.8
				c-0.7,0-1.3-0.3-1.6-0.8h0v2.8H304V17.8z M304.9,19.1c0,0.1,0,0.3,0,0.4c0.2,0.6,0.7,1.1,1.4,1.1c1,0,1.6-0.8,1.6-2
				c0-1-0.5-1.9-1.5-1.9c-0.6,0-1.2,0.5-1.4,1.2c0,0.1-0.1,0.3-0.1,0.4V19.1z"/>
			<path class="st11" d="M310.3,16.1l0.7,1.1c0.2,0.3,0.4,0.6,0.5,0.8h0c0.2-0.3,0.3-0.6,0.5-0.8l0.7-1.1h1l-1.8,2.5l1.8,2.7h-1.1
				l-0.8-1.2c-0.2-0.3-0.4-0.6-0.6-0.9h0c-0.2,0.3-0.4,0.6-0.5,0.9l-0.7,1.2h-1l1.8-2.6l-1.7-2.5H310.3z"/>
		</g>
		<rect x="292.3" y="66" class="st9" width="94.9" height="32.7"/>
		<g class="st10">
			<path class="st11" d="M295.7,73.6v-1.9h-3.2v-0.6l3.1-4.4h1V71h1v0.7h-1v1.9H295.7z M295.7,71v-2.3c0-0.4,0-0.7,0-1.1h0
				c-0.2,0.4-0.4,0.7-0.6,1l-1.7,2.3v0H295.7z"/>
			<path class="st11" d="M302.8,70c0,2.3-0.9,3.6-2.4,3.6c-1.3,0-2.3-1.3-2.3-3.5c0-2.3,1-3.6,2.4-3.6C302,66.6,302.8,67.8,302.8,70
				z M299.1,70.2c0,1.8,0.6,2.8,1.4,2.8c1,0,1.4-1.1,1.4-2.9c0-1.7-0.4-2.8-1.4-2.8C299.7,67.3,299.1,68.3,299.1,70.2z"/>
			<path class="st11" d="M304,70.1c0-0.7,0-1.2,0-1.7h0.8l0,0.9h0c0.4-0.6,1-1,1.8-1c1.2,0,2.2,1.1,2.2,2.6c0,1.8-1.1,2.8-2.3,2.8
				c-0.7,0-1.3-0.3-1.6-0.8h0v2.8H304V70.1z M304.9,71.5c0,0.1,0,0.3,0,0.4c0.2,0.6,0.7,1.1,1.4,1.1c1,0,1.6-0.8,1.6-2
				c0-1-0.5-1.9-1.5-1.9c-0.6,0-1.2,0.5-1.4,1.2c0,0.1-0.1,0.3-0.1,0.4V71.5z"/>
			<path class="st11" d="M310.3,68.4l0.7,1.1c0.2,0.3,0.4,0.6,0.5,0.8h0c0.2-0.3,0.3-0.6,0.5-0.8l0.7-1.1h1l-1.8,2.5l1.8,2.7h-1.1
				l-0.8-1.2c-0.2-0.3-0.4-0.6-0.6-0.9h0c-0.2,0.3-0.4,0.6-0.5,0.9l-0.7,1.2h-1l1.8-2.6l-1.7-2.5H310.3z"/>
		</g>
		<rect x="292.3" y="115.2" class="st9" width="94.9" height="32.7"/>
		<g class="st10">
			<path class="st11" d="M295.7,122.8v-1.9h-3.2v-0.6l3.1-4.4h1v4.3h1v0.7h-1v1.9H295.7z M295.7,120.2v-2.3c0-0.4,0-0.7,0-1.1h0
				c-0.2,0.4-0.4,0.7-0.6,1l-1.7,2.3v0H295.7z"/>
			<path class="st11" d="M302.8,119.2c0,2.3-0.9,3.6-2.4,3.6c-1.3,0-2.3-1.3-2.3-3.5c0-2.3,1-3.6,2.4-3.6
				C302,115.8,302.8,117,302.8,119.2z M299.1,119.4c0,1.8,0.6,2.8,1.4,2.8c1,0,1.4-1.1,1.4-2.9c0-1.7-0.4-2.8-1.4-2.8
				C299.7,116.5,299.1,117.5,299.1,119.4z"/>
			<path class="st11" d="M304,119.3c0-0.7,0-1.2,0-1.7h0.8l0,0.9h0c0.4-0.6,1-1,1.8-1c1.2,0,2.2,1.1,2.2,2.6c0,1.8-1.1,2.8-2.3,2.8
				c-0.7,0-1.3-0.3-1.6-0.8h0v2.8H304V119.3z M304.9,120.7c0,0.1,0,0.3,0,0.4c0.2,0.6,0.7,1.1,1.4,1.1c1,0,1.6-0.8,1.6-2
				c0-1-0.5-1.9-1.5-1.9c-0.6,0-1.2,0.5-1.4,1.2c0,0.1-0.1,0.3-0.1,0.4V120.7z"/>
			<path class="st11" d="M310.3,117.6l0.7,1.1c0.2,0.3,0.4,0.6,0.5,0.8h0c0.2-0.3,0.3-0.6,0.5-0.8l0.7-1.1h1l-1.8,2.5l1.8,2.7h-1.1
				l-0.8-1.2c-0.2-0.3-0.4-0.6-0.6-0.9h0c-0.2,0.3-0.4,0.6-0.5,0.9l-0.7,1.2h-1l1.8-2.6l-1.7-2.5H310.3z"/>
		</g>
		<rect x="292.3" y="85.3" class="st9" width="94.9" height="13.8"/>
		<g class="st10">
			<path class="st12" d="M292.8,92.9v-0.6l0.7-0.7c1.8-1.7,2.6-2.6,2.6-3.6c0-0.7-0.3-1.3-1.4-1.3c-0.6,0-1.1,0.3-1.5,0.6l-0.3-0.7
				c0.5-0.4,1.2-0.7,2-0.7c1.5,0,2.1,1,2.1,2c0,1.3-0.9,2.3-2.4,3.7l-0.6,0.5v0h3.1v0.8H292.8z"/>
			<path class="st12" d="M298.1,91.1c0-0.9,0.5-1.5,1.4-1.8l0,0c-0.8-0.4-1.1-1-1.1-1.6c0-1.1,0.9-1.8,2.1-1.8c1.3,0,2,0.8,2,1.7
				c0,0.6-0.3,1.2-1.1,1.6v0c0.9,0.3,1.4,0.9,1.4,1.8c0,1.2-1,2-2.3,2C299,93,298.1,92.1,298.1,91.1z M301.8,91.1
				c0-0.8-0.6-1.2-1.5-1.5c-0.8,0.2-1.2,0.8-1.2,1.4c0,0.7,0.5,1.3,1.4,1.3C301.3,92.3,301.8,91.8,301.8,91.1z M299.3,87.6
				c0,0.7,0.5,1.1,1.3,1.3c0.6-0.2,1.1-0.6,1.1-1.3c0-0.6-0.3-1.1-1.2-1.1C299.7,86.5,299.3,87,299.3,87.6z"/>
			<path class="st12" d="M304,89.4c0-0.7,0-1.2,0-1.7h0.8l0,0.9h0c0.4-0.6,1-1,1.8-1c1.2,0,2.2,1.1,2.2,2.6c0,1.8-1.1,2.8-2.3,2.8
				c-0.7,0-1.3-0.3-1.6-0.8h0V95H304V89.4z M304.9,90.8c0,0.1,0,0.3,0,0.4c0.2,0.6,0.7,1.1,1.4,1.1c1,0,1.6-0.8,1.6-2
				c0-1-0.5-1.9-1.5-1.9c-0.6,0-1.2,0.5-1.4,1.2c0,0.1-0.1,0.3-0.1,0.4V90.8z"/>
			<path class="st12" d="M310.3,87.7l0.7,1.1c0.2,0.3,0.4,0.6,0.5,0.8h0c0.2-0.3,0.3-0.6,0.5-0.8l0.7-1.1h1l-1.8,2.5l1.8,2.7h-1.1
				l-0.8-1.2c-0.2-0.3-0.4-0.6-0.6-0.9h0c-0.2,0.3-0.4,0.6-0.5,0.9l-0.7,1.2h-1l1.8-2.6l-1.7-2.5H310.3z"/>
		</g>
		<rect x="99.4" y="269.9" class="st9" width="94.9" height="13.8"/>
		<g class="st10">
			<path class="st12" d="M99.9,277.5v-0.6l0.7-0.7c1.8-1.7,2.6-2.6,2.6-3.6c0-0.7-0.3-1.3-1.4-1.3c-0.6,0-1.1,0.3-1.5,0.6l-0.3-0.7
				c0.5-0.4,1.2-0.7,2-0.7c1.5,0,2.1,1,2.1,2c0,1.3-0.9,2.3-2.4,3.7l-0.6,0.5v0h3.1v0.8H99.9z"/>
			<path class="st12" d="M105.3,275.7c0-0.9,0.5-1.5,1.4-1.8l0,0c-0.8-0.4-1.1-1-1.1-1.6c0-1.1,0.9-1.8,2.1-1.8c1.3,0,2,0.8,2,1.7
				c0,0.6-0.3,1.2-1.1,1.6v0c0.9,0.3,1.4,0.9,1.4,1.8c0,1.2-1,2-2.3,2C106.1,277.6,105.3,276.7,105.3,275.7z M109,275.7
				c0-0.8-0.6-1.2-1.5-1.5c-0.8,0.2-1.2,0.8-1.2,1.4c0,0.7,0.5,1.3,1.4,1.3C108.4,276.9,109,276.4,109,275.7z M106.4,272.2
				c0,0.7,0.5,1.1,1.3,1.3c0.6-0.2,1.1-0.6,1.1-1.3c0-0.6-0.3-1.1-1.2-1.1C106.8,271.1,106.4,271.6,106.4,272.2z"/>
			<path class="st12" d="M111.1,274c0-0.7,0-1.2,0-1.7h0.8l0,0.9h0c0.4-0.6,1-1,1.8-1c1.2,0,2.2,1.1,2.2,2.6c0,1.8-1.1,2.8-2.3,2.8
				c-0.7,0-1.3-0.3-1.6-0.8h0v2.8h-0.9V274z M112,275.4c0,0.1,0,0.3,0,0.4c0.2,0.6,0.7,1.1,1.4,1.1c1,0,1.6-0.8,1.6-2
				c0-1-0.5-1.9-1.5-1.9c-0.6,0-1.2,0.5-1.4,1.2c0,0.1-0.1,0.3-0.1,0.4V275.4z"/>
			<path class="st12" d="M117.4,272.3l0.7,1.1c0.2,0.3,0.4,0.6,0.5,0.8h0c0.2-0.3,0.3-0.6,0.5-0.8l0.7-1.1h1l-1.8,2.5l1.8,2.7h-1.1
				l-0.8-1.2c-0.2-0.3-0.4-0.6-0.6-0.9h0c-0.2,0.3-0.4,0.6-0.5,0.9l-0.7,1.2h-1l1.8-2.6l-1.7-2.5H117.4z"/>
		</g>
		<rect x="417.5" y="314.8" class="st9" width="94.9" height="13.8"/>
		<g class="st10">
			<path class="st12" d="M417.9,322.3v-0.6l0.7-0.7c1.8-1.7,2.6-2.6,2.6-3.6c0-0.7-0.3-1.3-1.4-1.3c-0.6,0-1.1,0.3-1.5,0.6l-0.3-0.7
				c0.5-0.4,1.2-0.7,2-0.7c1.5,0,2.1,1,2.1,2c0,1.3-0.9,2.3-2.4,3.7l-0.6,0.5v0h3.1v0.8H417.9z"/>
			<path class="st12" d="M423.3,320.6c0-0.9,0.5-1.5,1.4-1.8l0,0c-0.8-0.4-1.1-1-1.1-1.6c0-1.1,0.9-1.8,2.1-1.8c1.3,0,2,0.8,2,1.7
				c0,0.6-0.3,1.2-1.1,1.6v0c0.9,0.3,1.4,0.9,1.4,1.8c0,1.2-1,2-2.3,2C424.2,322.5,423.3,321.6,423.3,320.6z M427,320.5
				c0-0.8-0.6-1.2-1.5-1.5c-0.8,0.2-1.2,0.8-1.2,1.4c0,0.7,0.5,1.3,1.4,1.3C426.5,321.8,427,321.3,427,320.5z M424.4,317.1
				c0,0.7,0.5,1.1,1.3,1.3c0.6-0.2,1.1-0.6,1.1-1.3c0-0.6-0.3-1.1-1.2-1.1C424.9,316,424.4,316.5,424.4,317.1z"/>
			<path class="st12" d="M429.1,318.9c0-0.7,0-1.2,0-1.7h0.8l0,0.9h0c0.4-0.6,1-1,1.8-1c1.2,0,2.2,1.1,2.2,2.6
				c0,1.8-1.1,2.8-2.3,2.8c-0.7,0-1.3-0.3-1.6-0.8h0v2.8h-0.9V318.9z M430.1,320.2c0,0.1,0,0.3,0,0.4c0.2,0.6,0.7,1.1,1.4,1.1
				c1,0,1.6-0.8,1.6-2c0-1-0.5-1.9-1.5-1.9c-0.6,0-1.2,0.5-1.4,1.2c0,0.1-0.1,0.3-0.1,0.4V320.2z"/>
			<path class="st12" d="M435.5,317.2l0.7,1.1c0.2,0.3,0.4,0.6,0.5,0.8h0c0.2-0.3,0.3-0.6,0.5-0.8l0.7-1.1h1l-1.8,2.5l1.8,2.7H438
				l-0.8-1.2c-0.2-0.3-0.4-0.6-0.6-0.9h0c-0.2,0.3-0.4,0.6-0.5,0.9l-0.7,1.2h-1l1.8-2.6l-1.7-2.5H435.5z"/>
		</g>
	</g>
	<g>
		<circle class="st13" cx="369.2" cy="94.4" r="8.9"/>
		<circle class="st14" cx="348" cy="94.4" r="8.9"/>
		<g>
			<g>
				<path class="st14" d="M373.4,90.8c-0.5-0.5-1.5-0.4-2.2,0.3l-3.5,3.5c-0.7,0.7-1.6,2-2.1,2.8l-0.5,0.9c-0.4,0.9-0.1,1.2,0.8,0.8
					l0.9-0.5c0.9-0.4,2.1-1.4,2.8-2.1l3.5-3.5C373.8,92.3,373.9,91.3,373.4,90.8z"/>
			</g>
			<line class="st14" x1="371" y1="91.2" x2="373" y2="93.2"/>
			<line class="st14" x1="366.1" y1="96.9" x2="367.3" y2="98.1"/>
		</g>
		<g>
			<g>
				<polygon class="st2" points="376.4,113.4 148,113.4 148,89.3 376.8,89.3 				"/>
				<g class="st3">
					<path class="st4" d="M151,91.6c0.4,0,0.8,0.1,1.1,0.2s0.6,0.4,0.8,0.8h0c0-0.4,0-0.9,0-1.3v-2h0.5v8.1H153l-0.1-0.9h0
						c-0.4,0.6-1,1-1.8,1c-0.8,0-1.4-0.2-1.8-0.7s-0.6-1.2-0.6-2.1c0-1,0.2-1.7,0.6-2.2S150.2,91.6,151,91.6z M151,92.1
						c-0.6,0-1.1,0.2-1.4,0.6s-0.5,1.1-0.5,1.9c0,1.6,0.6,2.4,1.9,2.4c0.6,0,1.1-0.2,1.4-0.6c0.3-0.4,0.4-1,0.4-1.8v-0.1
						c0-0.9-0.1-1.5-0.4-1.9C152.1,92.3,151.6,92.1,151,92.1z"/>
					<path class="st4" d="M157.5,97.5c-0.8,0-1.5-0.3-1.9-0.8c-0.5-0.5-0.7-1.2-0.7-2.1c0-0.9,0.2-1.6,0.7-2.2s1-0.8,1.8-0.8
						c0.7,0,1.2,0.2,1.6,0.7c0.4,0.5,0.6,1.1,0.6,1.9v0.4h-4.1c0,0.8,0.2,1.4,0.5,1.8c0.4,0.4,0.9,0.6,1.5,0.6c0.3,0,0.6,0,0.8-0.1
						c0.2,0,0.6-0.1,0.9-0.3v0.5c-0.3,0.1-0.6,0.2-0.9,0.3C158.2,97.5,157.9,97.5,157.5,97.5z M157.4,92.1c-0.5,0-1,0.2-1.3,0.5
						s-0.5,0.9-0.6,1.5h3.5c0-0.7-0.1-1.2-0.4-1.5S157.9,92.1,157.4,92.1z"/>
					<path class="st4" d="M164.6,95.9c0,0.5-0.2,0.9-0.6,1.2c-0.4,0.3-0.9,0.4-1.6,0.4c-0.8,0-1.4-0.1-1.8-0.3v-0.6
						c0.6,0.3,1.2,0.4,1.8,0.4c0.6,0,1-0.1,1.3-0.3c0.3-0.2,0.4-0.4,0.4-0.7c0-0.3-0.1-0.5-0.3-0.7c-0.2-0.2-0.6-0.4-1.1-0.6
						c-0.6-0.2-1-0.4-1.2-0.5c-0.2-0.1-0.4-0.3-0.5-0.5c-0.1-0.2-0.2-0.4-0.2-0.7c0-0.4,0.2-0.8,0.5-1c0.4-0.2,0.9-0.4,1.5-0.4
						c0.6,0,1.2,0.1,1.7,0.3l-0.2,0.5c-0.6-0.2-1.1-0.3-1.5-0.3c-0.5,0-0.8,0.1-1.1,0.2c-0.3,0.2-0.4,0.4-0.4,0.6
						c0,0.3,0.1,0.5,0.3,0.7c0.2,0.2,0.6,0.4,1.2,0.6c0.5,0.2,0.9,0.3,1.1,0.5c0.2,0.1,0.4,0.3,0.5,0.5
						C164.5,95.4,164.6,95.7,164.6,95.9z"/>
					<path class="st4" d="M166,90.2c0-0.3,0.1-0.5,0.3-0.5c0.1,0,0.2,0,0.3,0.1c0.1,0.1,0.1,0.2,0.1,0.4c0,0.2,0,0.3-0.1,0.4
						c-0.1,0.1-0.1,0.1-0.3,0.1C166.1,90.7,166,90.5,166,90.2z M166.5,97.4H166v-5.6h0.5V97.4z"/>
					<path class="st4" d="M172.8,91.7v0.4l-1.2,0.1c0.3,0.4,0.5,0.8,0.5,1.3c0,0.5-0.2,1-0.5,1.3c-0.4,0.3-0.8,0.5-1.5,0.5
						c-0.3,0-0.4,0-0.5,0c-0.2,0.1-0.4,0.2-0.5,0.4c-0.1,0.1-0.2,0.3-0.2,0.5c0,0.2,0.1,0.3,0.2,0.4c0.1,0.1,0.4,0.1,0.7,0.1h1
						c0.6,0,1.1,0.1,1.4,0.4s0.5,0.6,0.5,1.1c0,0.6-0.2,1.1-0.7,1.4c-0.5,0.3-1.2,0.5-2.1,0.5c-0.7,0-1.3-0.1-1.6-0.4
						c-0.4-0.3-0.6-0.7-0.6-1.1c0-0.4,0.1-0.7,0.4-1c0.2-0.3,0.6-0.4,1-0.5c-0.2-0.1-0.3-0.2-0.4-0.3c-0.1-0.1-0.2-0.3-0.2-0.5
						c0-0.4,0.2-0.7,0.7-1c-0.3-0.1-0.6-0.3-0.8-0.6c-0.2-0.3-0.3-0.6-0.3-1c0-0.6,0.2-1,0.5-1.4c0.4-0.3,0.8-0.5,1.5-0.5
						c0.4,0,0.7,0,0.9,0.1H172.8z M168.3,98.3c0,0.8,0.6,1.2,1.7,1.2c1.5,0,2.2-0.5,2.2-1.4c0-0.3-0.1-0.6-0.3-0.7
						c-0.2-0.2-0.6-0.2-1.1-0.2h-0.9C168.8,97.1,168.3,97.5,168.3,98.3z M168.7,93.5c0,0.4,0.1,0.8,0.4,1s0.6,0.4,1.1,0.4
						c0.5,0,0.8-0.1,1.1-0.4c0.3-0.2,0.4-0.6,0.4-1c0-0.5-0.1-0.8-0.4-1.1s-0.6-0.4-1.1-0.4c-0.4,0-0.8,0.1-1.1,0.4
						S168.7,93,168.7,93.5z"/>
					<path class="st4" d="M177.9,97.4v-3.7c0-0.6-0.1-1-0.4-1.2c-0.2-0.3-0.6-0.4-1.1-0.4c-0.7,0-1.2,0.2-1.5,0.5s-0.5,0.9-0.5,1.7
						v3.1H174v-5.6h0.4l0.1,0.8h0c0.4-0.6,1-0.9,2-0.9c1.3,0,1.9,0.7,1.9,2.1v3.7H177.9z"/>
					<path class="st4" d="M187.3,97.4v-3.7c0-0.5-0.1-1-0.3-1.2c-0.2-0.3-0.5-0.4-1-0.4c-0.6,0-1,0.2-1.3,0.5
						c-0.3,0.3-0.4,0.8-0.4,1.5v3.3h-0.5v-3.9c0-1-0.4-1.4-1.3-1.4c-0.6,0-1,0.2-1.3,0.5c-0.3,0.3-0.4,0.9-0.4,1.7v3.1h-0.5v-5.6
						h0.4l0.1,0.8h0c0.2-0.3,0.4-0.5,0.7-0.7c0.3-0.2,0.6-0.2,0.9-0.2c0.9,0,1.5,0.3,1.7,1h0c0.2-0.3,0.4-0.6,0.7-0.7
						s0.7-0.3,1.1-0.3c0.6,0,1.1,0.2,1.4,0.5c0.3,0.3,0.5,0.9,0.5,1.6v3.7H187.3z"/>
					<path class="st4" d="M193.1,97.4l-0.1-0.9h0c-0.3,0.4-0.6,0.6-0.9,0.8s-0.7,0.2-1.1,0.2c-0.6,0-1-0.1-1.3-0.4
						c-0.3-0.3-0.5-0.7-0.5-1.2c0-0.5,0.2-1,0.7-1.3c0.5-0.3,1.1-0.5,2-0.5l1.1,0v-0.4c0-0.5-0.1-0.9-0.3-1.2
						c-0.2-0.3-0.6-0.4-1.1-0.4c-0.5,0-1.1,0.1-1.6,0.4l-0.2-0.4c0.6-0.3,1.2-0.4,1.8-0.4c0.6,0,1.1,0.2,1.4,0.5
						c0.3,0.3,0.5,0.8,0.5,1.5v3.8H193.1z M191,97c0.6,0,1.1-0.2,1.4-0.5c0.3-0.3,0.5-0.8,0.5-1.4v-0.6l-1,0c-0.8,0-1.4,0.2-1.7,0.4
						c-0.3,0.2-0.5,0.5-0.5,1c0,0.4,0.1,0.6,0.3,0.8C190.3,96.9,190.6,97,191,97z"/>
					<path class="st4" d="M197.7,97.5c-0.9,0-1.5-0.3-1.9-1h0l0,0.4c0,0.3,0,0.5,0,0.8v2.1h-0.5v-8.2h0.4l0.1,0.8h0
						c0.4-0.6,1-0.9,1.9-0.9c0.8,0,1.3,0.3,1.7,0.8s0.6,1.2,0.6,2.2c0,0.9-0.2,1.6-0.6,2.2C199,97.2,198.4,97.5,197.7,97.5z
						 M197.7,97c0.6,0,1-0.2,1.3-0.6s0.5-1,0.5-1.8c0-1.7-0.6-2.5-1.8-2.5c-0.7,0-1.1,0.2-1.4,0.5c-0.3,0.4-0.5,1-0.5,1.8v0.2
						c0,0.9,0.1,1.5,0.4,1.9C196.5,96.8,197,97,197.7,97z"/>
					<path class="st4" d="M201.5,97c0-0.3,0.1-0.5,0.4-0.5c0.3,0,0.4,0.2,0.4,0.5c0,0.3-0.1,0.5-0.4,0.5
						C201.6,97.5,201.5,97.3,201.5,97z"/>
					<path class="st4" d="M206.4,91.6c0.2,0,0.5,0,0.8,0.1l-0.1,0.5c-0.2-0.1-0.5-0.1-0.7-0.1c-0.5,0-0.9,0.2-1.2,0.6
						c-0.3,0.4-0.5,0.9-0.5,1.5v3.1h-0.5v-5.6h0.4l0.1,1h0c0.2-0.4,0.5-0.7,0.7-0.9C205.7,91.7,206,91.6,206.4,91.6z"/>
					<path class="st4" d="M208.7,91.7v3.7c0,0.6,0.1,1,0.4,1.2c0.2,0.3,0.6,0.4,1.1,0.4c0.7,0,1.2-0.2,1.5-0.5
						c0.3-0.3,0.5-0.9,0.5-1.7v-3.1h0.5v5.6h-0.4l-0.1-0.8h0c-0.4,0.6-1,0.9-2,0.9c-1.3,0-1.9-0.7-1.9-2.1v-3.7H208.7z"/>
					<path class="st4" d="M222.4,93.6c0,0.8-0.2,1.4-0.5,1.9c-0.3,0.5-0.7,0.7-1.3,0.7c-0.3,0-0.6-0.1-0.7-0.3
						c-0.2-0.2-0.3-0.4-0.3-0.8h0c-0.1,0.3-0.4,0.6-0.6,0.8s-0.6,0.3-1,0.3c-0.5,0-0.9-0.2-1.2-0.5c-0.3-0.3-0.4-0.8-0.4-1.4
						c0-0.7,0.2-1.3,0.6-1.7c0.4-0.4,1-0.7,1.6-0.7c0.5,0,1,0.1,1.5,0.2l-0.1,2.4v0.2c0,0.4,0.1,0.6,0.2,0.8s0.3,0.3,0.6,0.3
						c0.4,0,0.6-0.2,0.9-0.6s0.3-0.9,0.3-1.6c0-0.7-0.1-1.3-0.4-1.8c-0.3-0.5-0.7-0.9-1.2-1.2c-0.5-0.3-1.1-0.4-1.7-0.4
						c-0.8,0-1.5,0.2-2.1,0.5c-0.6,0.3-1.1,0.8-1.4,1.5s-0.5,1.4-0.5,2.2c0,1.1,0.3,2,0.9,2.6c0.6,0.6,1.4,0.9,2.5,0.9
						c0.3,0,0.6,0,1-0.1c0.3-0.1,0.7-0.2,1.2-0.4V98c-0.7,0.3-1.4,0.4-2.1,0.4c-1.2,0-2.1-0.3-2.8-1c-0.7-0.7-1-1.7-1-2.9
						c0-0.9,0.2-1.7,0.6-2.4s0.9-1.3,1.6-1.6c0.7-0.4,1.5-0.6,2.3-0.6c0.7,0,1.4,0.2,2,0.5c0.6,0.3,1,0.7,1.3,1.3
						C222.3,92.2,222.4,92.9,222.4,93.6z M216.9,94.3c0,0.5,0.1,0.9,0.3,1.1c0.2,0.2,0.5,0.4,0.9,0.4c0.9,0,1.4-0.6,1.4-1.8l0.1-1.5
						c-0.3-0.1-0.6-0.1-1-0.1c-0.5,0-0.9,0.2-1.2,0.5C217,93.2,216.9,93.7,216.9,94.3z"/>
					<path class="st4" d="M228.4,91.7v0.4l-1.2,0.1c0.3,0.4,0.5,0.8,0.5,1.3c0,0.5-0.2,1-0.5,1.3c-0.4,0.3-0.8,0.5-1.5,0.5
						c-0.3,0-0.4,0-0.5,0c-0.2,0.1-0.4,0.2-0.5,0.4c-0.1,0.1-0.2,0.3-0.2,0.5c0,0.2,0.1,0.3,0.2,0.4c0.1,0.1,0.4,0.1,0.7,0.1h1
						c0.6,0,1.1,0.1,1.4,0.4s0.5,0.6,0.5,1.1c0,0.6-0.2,1.1-0.7,1.4c-0.5,0.3-1.2,0.5-2.1,0.5c-0.7,0-1.3-0.1-1.6-0.4
						c-0.4-0.3-0.6-0.7-0.6-1.1c0-0.4,0.1-0.7,0.4-1c0.2-0.3,0.6-0.4,1-0.5c-0.2-0.1-0.3-0.2-0.4-0.3c-0.1-0.1-0.2-0.3-0.2-0.5
						c0-0.4,0.2-0.7,0.7-1c-0.3-0.1-0.6-0.3-0.8-0.6c-0.2-0.3-0.3-0.6-0.3-1c0-0.6,0.2-1,0.5-1.4c0.4-0.3,0.8-0.5,1.5-0.5
						c0.4,0,0.7,0,0.9,0.1H228.4z M223.8,98.3c0,0.8,0.6,1.2,1.7,1.2c1.5,0,2.2-0.5,2.2-1.4c0-0.3-0.1-0.6-0.3-0.7
						c-0.2-0.2-0.6-0.2-1.1-0.2h-0.9C224.3,97.1,223.8,97.5,223.8,98.3z M224.2,93.5c0,0.4,0.1,0.8,0.4,1s0.6,0.4,1.1,0.4
						c0.5,0,0.8-0.1,1.1-0.4c0.3-0.2,0.4-0.6,0.4-1c0-0.5-0.1-0.8-0.4-1.1s-0.6-0.4-1.1-0.4c-0.4,0-0.8,0.1-1.1,0.4
						S224.2,93,224.2,93.5z"/>
					<path class="st4" d="M236.6,97.4v-3.7c0-0.5-0.1-1-0.3-1.2c-0.2-0.3-0.5-0.4-1-0.4c-0.6,0-1,0.2-1.3,0.5
						c-0.3,0.3-0.4,0.8-0.4,1.5v3.3H233v-3.9c0-1-0.4-1.4-1.3-1.4c-0.6,0-1,0.2-1.3,0.5c-0.3,0.3-0.4,0.9-0.4,1.7v3.1h-0.5v-5.6h0.4
						l0.1,0.8h0c0.2-0.3,0.4-0.5,0.7-0.7c0.3-0.2,0.6-0.2,0.9-0.2c0.9,0,1.5,0.3,1.7,1h0c0.2-0.3,0.4-0.6,0.7-0.7s0.7-0.3,1.1-0.3
						c0.6,0,1.1,0.2,1.4,0.5c0.3,0.3,0.5,0.9,0.5,1.6v3.7H236.6z"/>
					<path class="st4" d="M242.3,97.4l-0.1-0.9h0c-0.3,0.4-0.6,0.6-0.9,0.8s-0.7,0.2-1.1,0.2c-0.6,0-1-0.1-1.3-0.4
						c-0.3-0.3-0.5-0.7-0.5-1.2c0-0.5,0.2-1,0.7-1.3c0.5-0.3,1.1-0.5,2-0.5l1.1,0v-0.4c0-0.5-0.1-0.9-0.3-1.2
						c-0.2-0.3-0.6-0.4-1.1-0.4c-0.5,0-1.1,0.1-1.6,0.4l-0.2-0.4c0.6-0.3,1.2-0.4,1.8-0.4c0.6,0,1.1,0.2,1.4,0.5
						c0.3,0.3,0.5,0.8,0.5,1.5v3.8H242.3z M240.2,97c0.6,0,1.1-0.2,1.4-0.5c0.3-0.3,0.5-0.8,0.5-1.4v-0.6l-1,0
						c-0.8,0-1.4,0.2-1.7,0.4c-0.3,0.2-0.5,0.5-0.5,1c0,0.4,0.1,0.6,0.3,0.8C239.5,96.9,239.8,97,240.2,97z"/>
					<path class="st4" d="M244.5,90.2c0-0.3,0.1-0.5,0.3-0.5c0.1,0,0.2,0,0.3,0.1c0.1,0.1,0.1,0.2,0.1,0.4c0,0.2,0,0.3-0.1,0.4
						c-0.1,0.1-0.1,0.1-0.3,0.1C244.6,90.7,244.5,90.5,244.5,90.2z M245,97.4h-0.5v-5.6h0.5V97.4z"/>
					<path class="st4" d="M247.4,97.4h-0.5v-8.1h0.5V97.4z"/>
					<path class="st4" d="M249.2,97c0-0.3,0.1-0.5,0.4-0.5c0.3,0,0.4,0.2,0.4,0.5c0,0.3-0.1,0.5-0.4,0.5
						C249.4,97.5,249.2,97.3,249.2,97z"/>
					<path class="st4" d="M254.1,97.5c-0.8,0-1.4-0.3-1.9-0.8c-0.5-0.5-0.7-1.2-0.7-2.1c0-0.9,0.2-1.7,0.7-2.2
						c0.5-0.5,1.1-0.8,1.9-0.8c0.5,0,1,0.1,1.4,0.3l-0.1,0.5c-0.5-0.2-0.9-0.2-1.3-0.2c-0.7,0-1.2,0.2-1.6,0.6
						c-0.4,0.4-0.5,1-0.5,1.8c0,0.8,0.2,1.4,0.5,1.8c0.4,0.4,0.9,0.6,1.5,0.6c0.5,0,1-0.1,1.4-0.3v0.5
						C255.2,97.4,254.7,97.5,254.1,97.5z"/>
					<path class="st4" d="M261.6,94.5c0,0.9-0.2,1.6-0.7,2.2c-0.4,0.5-1.1,0.8-1.8,0.8c-0.5,0-0.9-0.1-1.3-0.4
						c-0.4-0.2-0.7-0.6-0.9-1c-0.2-0.4-0.3-1-0.3-1.5c0-0.9,0.2-1.6,0.7-2.2s1.1-0.8,1.8-0.8c0.8,0,1.4,0.3,1.8,0.8
						C261.3,92.9,261.6,93.6,261.6,94.5z M257.1,94.5c0,0.8,0.2,1.4,0.5,1.8c0.3,0.4,0.8,0.7,1.4,0.7c0.6,0,1.1-0.2,1.4-0.7
						c0.3-0.4,0.5-1,0.5-1.8c0-0.8-0.2-1.4-0.5-1.8c-0.3-0.4-0.8-0.6-1.5-0.6c-0.6,0-1.1,0.2-1.4,0.6
						C257.3,93.2,257.1,93.8,257.1,94.5z"/>
					<path class="st4" d="M270.2,97.4v-3.7c0-0.5-0.1-1-0.3-1.2c-0.2-0.3-0.5-0.4-1-0.4c-0.6,0-1,0.2-1.3,0.5
						c-0.3,0.3-0.4,0.8-0.4,1.5v3.3h-0.5v-3.9c0-1-0.4-1.4-1.3-1.4c-0.6,0-1,0.2-1.3,0.5c-0.3,0.3-0.4,0.9-0.4,1.7v3.1h-0.5v-5.6
						h0.4l0.1,0.8h0c0.2-0.3,0.4-0.5,0.7-0.7c0.3-0.2,0.6-0.2,0.9-0.2c0.9,0,1.5,0.3,1.7,1h0c0.2-0.3,0.4-0.6,0.7-0.7
						s0.7-0.3,1.1-0.3c0.6,0,1.1,0.2,1.4,0.5c0.3,0.3,0.5,0.9,0.5,1.6v3.7H270.2z"/>
				</g>
			</g>
		</g>
		<g id="eye_4_">
			<path class="st15" d="M348.5,98.1c-2.1,0-4.1-1.2-5.1-3c1-1.8,3-3,5.1-3s4.1,1.2,5.1,3C352.6,96.9,350.5,98.1,348.5,98.1z"/>
			<path class="st15" d="M348.5,93.6L348.5,93.6c-0.8,0-1.5,0.7-1.5,1.5"/>
			<path class="st15" d="M348.5,97.3c-1.2,0-2.2-1-2.2-2.2s1-2.2,2.2-2.2s2.2,1,2.2,2.2S349.7,97.3,348.5,97.3z"/>
		</g>
		<g>
			<line class="st5" x1="390.6" y1="90" x2="382.2" y2="98.4"/>
			<line class="st5" x1="382.2" y1="90" x2="390.5" y2="98.4"/>
		</g>
	</g>
	<g>
		<g>
			<g>
				<polygon class="st2" points="257.6,207.3 145.2,207.3 145.2,171.9 257.8,171.9 				"/>
				<g class="st3">
					<path class="st4" d="M176.2,176.6c0,1.3-0.3,2.4-1,3.1s-1.6,1.2-2.7,1.2c-1.2,0-2.1-0.4-2.7-1.2s-1-1.8-1-3.2
						c0-1.3,0.3-2.4,1-3.1c0.7-0.8,1.6-1.1,2.7-1.1c1.2,0,2.1,0.4,2.7,1.2C175.9,174.2,176.2,175.2,176.2,176.6z M169.4,176.6
						c0,1.2,0.3,2.1,0.8,2.8c0.5,0.7,1.3,1,2.3,1c1,0,1.8-0.3,2.3-1c0.5-0.6,0.8-1.6,0.8-2.8c0-1.2-0.3-2.1-0.8-2.8
						c-0.5-0.6-1.3-1-2.3-1c-1,0-1.8,0.3-2.3,1C169.6,174.4,169.4,175.4,169.4,176.6z"/>
					<path class="st4" d="M180.6,180.9c-1,0-1.7-0.4-2.1-1.1h0l0,0.5c0,0.3,0,0.6,0,0.9v2.4H178v-9h0.5l0.1,0.9h0c0.4-0.7,1.1-1,2-1
						c0.8,0,1.5,0.3,1.9,0.8s0.7,1.4,0.7,2.4c0,1-0.2,1.8-0.7,2.4C182.1,180.6,181.4,180.9,180.6,180.9z M180.6,180.4
						c0.6,0,1.1-0.2,1.5-0.7c0.3-0.5,0.5-1.1,0.5-2c0-1.8-0.7-2.7-2-2.7c-0.7,0-1.3,0.2-1.6,0.6c-0.3,0.4-0.5,1-0.5,1.9v0.2
						c0,1,0.2,1.7,0.5,2.1C179.4,180.2,179.9,180.4,180.6,180.4z"/>
					<path class="st4" d="M187.5,180.9c-0.9,0-1.6-0.3-2.1-0.8s-0.8-1.3-0.8-2.3c0-1,0.2-1.8,0.7-2.4c0.5-0.6,1.1-0.9,2-0.9
						c0.7,0,1.3,0.3,1.7,0.8c0.4,0.5,0.6,1.2,0.6,2.1v0.5h-4.5c0,0.9,0.2,1.5,0.6,2c0.4,0.5,1,0.7,1.7,0.7c0.4,0,0.7,0,0.9-0.1
						c0.3,0,0.6-0.2,1-0.3v0.5c-0.4,0.2-0.7,0.3-1,0.3C188.1,180.8,187.8,180.9,187.5,180.9z M187.3,174.9c-0.6,0-1.1,0.2-1.4,0.6
						c-0.4,0.4-0.6,1-0.6,1.7h3.8c0-0.7-0.2-1.3-0.5-1.7C188.3,175.1,187.8,174.9,187.3,174.9z"/>
					<path class="st4" d="M195.7,180.8v-4c0-0.6-0.1-1.1-0.4-1.4s-0.7-0.4-1.2-0.4c-0.7,0-1.3,0.2-1.6,0.6s-0.5,1-0.5,1.8v3.4h-0.6
						v-6.2h0.5l0.1,0.9h0c0.4-0.6,1.1-1,2.2-1c1.4,0,2.1,0.8,2.1,2.3v4.1H195.7z"/>
					<path class="st4" d="M205.1,180.8l-0.1-1h0c-0.3,0.4-0.6,0.7-1,0.8c-0.3,0.2-0.7,0.2-1.2,0.2c-0.6,0-1.1-0.2-1.4-0.5
						s-0.5-0.7-0.5-1.3c0-0.6,0.3-1.1,0.8-1.4c0.5-0.3,1.2-0.5,2.2-0.5l1.2,0v-0.4c0-0.6-0.1-1-0.4-1.3c-0.2-0.3-0.6-0.5-1.2-0.5
						c-0.6,0-1.2,0.2-1.8,0.5l-0.2-0.5c0.7-0.3,1.4-0.5,2-0.5c0.7,0,1.2,0.2,1.5,0.5s0.5,0.9,0.5,1.7v4.1H205.1z M202.8,180.4
						c0.7,0,1.2-0.2,1.6-0.6c0.4-0.4,0.6-0.9,0.6-1.6v-0.6l-1.1,0c-0.9,0-1.5,0.2-1.9,0.4c-0.4,0.2-0.6,0.6-0.6,1.1
						c0,0.4,0.1,0.7,0.4,0.9S202.4,180.4,202.8,180.4z"/>
					<path class="st4" d="M210,180.9c-0.9,0-1.6-0.3-2.1-0.8s-0.8-1.3-0.8-2.3c0-1,0.3-1.8,0.8-2.4c0.5-0.6,1.2-0.9,2.1-0.9
						c0.5,0,1.1,0.1,1.5,0.3l-0.2,0.5c-0.5-0.2-1-0.3-1.4-0.3c-0.8,0-1.3,0.2-1.7,0.7c-0.4,0.5-0.6,1.1-0.6,2c0,0.8,0.2,1.5,0.6,2
						c0.4,0.5,0.9,0.7,1.6,0.7c0.6,0,1.1-0.1,1.6-0.3v0.5C211.2,180.8,210.7,180.9,210,180.9z"/>
					<path class="st4" d="M215.6,180.9c-0.9,0-1.6-0.3-2.1-0.8s-0.8-1.3-0.8-2.3c0-1,0.3-1.8,0.8-2.4c0.5-0.6,1.2-0.9,2.1-0.9
						c0.5,0,1.1,0.1,1.5,0.3l-0.2,0.5c-0.5-0.2-1-0.3-1.4-0.3c-0.8,0-1.3,0.2-1.7,0.7c-0.4,0.5-0.6,1.1-0.6,2c0,0.8,0.2,1.5,0.6,2
						c0.4,0.5,0.9,0.7,1.6,0.7c0.6,0,1.1-0.1,1.6-0.3v0.5C216.8,180.8,216.2,180.9,215.6,180.9z"/>
					<path class="st4" d="M221.2,180.9c-0.9,0-1.6-0.3-2.1-0.8s-0.8-1.3-0.8-2.3c0-1,0.2-1.8,0.7-2.4c0.5-0.6,1.1-0.9,2-0.9
						c0.7,0,1.3,0.3,1.7,0.8c0.4,0.5,0.6,1.2,0.6,2.1v0.5h-4.5c0,0.9,0.2,1.5,0.6,2c0.4,0.5,1,0.7,1.7,0.7c0.4,0,0.7,0,0.9-0.1
						c0.3,0,0.6-0.2,1-0.3v0.5c-0.4,0.2-0.7,0.3-1,0.3C221.9,180.8,221.5,180.9,221.2,180.9z M221,174.9c-0.6,0-1.1,0.2-1.4,0.6
						c-0.4,0.4-0.6,1-0.6,1.7h3.8c0-0.7-0.2-1.3-0.5-1.7C222,175.1,221.6,174.9,221,174.9z"/>
					<path class="st4" d="M229,179.1c0,0.6-0.2,1-0.6,1.3c-0.4,0.3-1,0.4-1.8,0.4c-0.8,0-1.5-0.1-2-0.4v-0.6c0.6,0.3,1.3,0.5,2,0.5
						c0.6,0,1.1-0.1,1.4-0.3s0.5-0.5,0.5-0.8c0-0.3-0.1-0.6-0.4-0.8c-0.3-0.2-0.7-0.4-1.3-0.6c-0.6-0.2-1.1-0.4-1.3-0.6
						c-0.3-0.2-0.4-0.3-0.6-0.5c-0.1-0.2-0.2-0.5-0.2-0.7c0-0.5,0.2-0.8,0.6-1.1c0.4-0.3,0.9-0.4,1.6-0.4c0.7,0,1.3,0.1,1.9,0.4
						l-0.2,0.5c-0.6-0.3-1.2-0.4-1.7-0.4c-0.5,0-0.9,0.1-1.2,0.3c-0.3,0.2-0.4,0.4-0.4,0.7c0,0.3,0.1,0.6,0.3,0.8
						c0.2,0.2,0.7,0.4,1.4,0.7c0.6,0.2,1,0.4,1.2,0.5c0.3,0.2,0.4,0.3,0.6,0.6C228.9,178.6,229,178.9,229,179.1z"/>
					<path class="st4" d="M234.4,179.1c0,0.6-0.2,1-0.6,1.3c-0.4,0.3-1,0.4-1.8,0.4c-0.8,0-1.5-0.1-2-0.4v-0.6
						c0.6,0.3,1.3,0.5,2,0.5c0.6,0,1.1-0.1,1.4-0.3s0.5-0.5,0.5-0.8c0-0.3-0.1-0.6-0.4-0.8c-0.3-0.2-0.7-0.4-1.3-0.6
						c-0.6-0.2-1.1-0.4-1.3-0.6c-0.3-0.2-0.4-0.3-0.6-0.5c-0.1-0.2-0.2-0.5-0.2-0.7c0-0.5,0.2-0.8,0.6-1.1c0.4-0.3,0.9-0.4,1.6-0.4
						c0.7,0,1.3,0.1,1.9,0.4l-0.2,0.5c-0.6-0.3-1.2-0.4-1.7-0.4c-0.5,0-0.9,0.1-1.2,0.3c-0.3,0.2-0.4,0.4-0.4,0.7
						c0,0.3,0.1,0.6,0.3,0.8c0.2,0.2,0.7,0.4,1.4,0.7c0.6,0.2,1,0.4,1.2,0.5c0.3,0.2,0.4,0.3,0.6,0.6
						C234.3,178.6,234.4,178.9,234.4,179.1z"/>
				</g>
			</g>
		</g>
		<g>
			<g>
				<polygon class="st2" points="391.6,207.3 280,207.3 280,171.9 391.8,171.9 				"/>
				<g class="st3">
					<path class="st4" d="M322.7,172.8c-1.1,0-1.9,0.3-2.6,1c-0.6,0.7-0.9,1.6-0.9,2.8c0,1.2,0.3,2.1,0.9,2.8c0.6,0.7,1.4,1,2.5,1
						c0.7,0,1.4-0.1,2-0.3v0.5c-0.6,0.2-1.3,0.3-2.1,0.3c-1.2,0-2.2-0.4-2.9-1.1c-0.7-0.8-1-1.8-1-3.2c0-0.9,0.2-1.6,0.5-2.2
						c0.3-0.6,0.8-1.1,1.4-1.5s1.3-0.5,2.2-0.5c0.8,0,1.6,0.2,2.3,0.5l-0.2,0.5C324.1,173,323.4,172.8,322.7,172.8z"/>
					<path class="st4" d="M330.3,180.8l-0.1-1h0c-0.3,0.4-0.7,0.7-1,0.8c-0.3,0.2-0.7,0.2-1.2,0.2c-0.6,0-1.1-0.2-1.5-0.5
						c-0.3-0.3-0.5-0.7-0.5-1.3c0-0.6,0.3-1.1,0.8-1.4c0.5-0.3,1.3-0.5,2.3-0.5l1.2,0v-0.4c0-0.6-0.1-1-0.4-1.3
						c-0.2-0.3-0.6-0.5-1.2-0.5c-0.6,0-1.2,0.2-1.8,0.5l-0.2-0.5c0.7-0.3,1.4-0.5,2.1-0.5c0.7,0,1.2,0.2,1.6,0.5
						c0.3,0.4,0.5,0.9,0.5,1.7v4.1H330.3z M327.9,180.4c0.7,0,1.2-0.2,1.6-0.6c0.4-0.4,0.6-0.9,0.6-1.6v-0.6l-1.1,0
						c-0.9,0-1.5,0.2-1.9,0.4c-0.4,0.2-0.6,0.6-0.6,1.1c0,0.4,0.1,0.7,0.4,0.9C327.1,180.2,327.5,180.4,327.9,180.4z"/>
					<path class="st4" d="M337.3,180.8v-4c0-0.6-0.1-1.1-0.4-1.4s-0.7-0.4-1.3-0.4c-0.8,0-1.3,0.2-1.7,0.6c-0.4,0.4-0.5,1-0.5,1.8
						v3.4h-0.6v-6.2h0.5l0.1,0.9h0c0.4-0.6,1.2-1,2.2-1c1.5,0,2.2,0.8,2.2,2.3v4.1H337.3z"/>
					<path class="st4" d="M342.5,180.9c-0.9,0-1.6-0.3-2.2-0.8s-0.8-1.3-0.8-2.3c0-1,0.3-1.8,0.8-2.4c0.5-0.6,1.3-0.9,2.2-0.9
						c0.6,0,1.1,0.1,1.6,0.3l-0.2,0.5c-0.6-0.2-1-0.3-1.4-0.3c-0.8,0-1.4,0.2-1.8,0.7c-0.4,0.5-0.6,1.1-0.6,2c0,0.8,0.2,1.5,0.6,2
						c0.4,0.5,1,0.7,1.7,0.7c0.6,0,1.1-0.1,1.6-0.3v0.5C343.7,180.8,343.1,180.9,342.5,180.9z"/>
					<path class="st4" d="M348.2,180.9c-0.9,0-1.7-0.3-2.2-0.8s-0.8-1.3-0.8-2.3c0-1,0.3-1.8,0.8-2.4c0.5-0.6,1.2-0.9,2-0.9
						c0.8,0,1.4,0.3,1.8,0.8c0.4,0.5,0.7,1.2,0.7,2.1v0.5h-4.6c0,0.9,0.2,1.5,0.6,2s1,0.7,1.7,0.7c0.4,0,0.7,0,1-0.1
						c0.3,0,0.6-0.2,1.1-0.3v0.5c-0.4,0.2-0.7,0.3-1,0.3C349,180.8,348.6,180.9,348.2,180.9z M348.1,174.9c-0.6,0-1.1,0.2-1.5,0.6
						c-0.4,0.4-0.6,1-0.7,1.7h4c0-0.7-0.2-1.3-0.5-1.7S348.6,174.9,348.1,174.9z"/>
					<path class="st4" d="M352.9,180.8h-0.6v-8.9h0.6V180.8z"/>
				</g>
			</g>
		</g>
		<g>
			<g>
				<path class="st16" d="M258,163v27H144v-27H258 M259,162H143v29h116V162L259,162z"/>
			</g>
		</g>
		<g>
			<g>
				<path class="st16" d="M393,163v27H280v-27H393 M394,162H279v29h115V162L394,162z"/>
			</g>
		</g>
	</g>
</g>
<path class="st17" d="M509.1,62.9C494.9,77,477.2,87.5,457.6,93c-15.2,4.3-31,6-46.7,5.1c3,3.4,6.5,6.3,10.4,8.6
	c4,2.5,0.2,8.7-3.8,6.2c-7.1-4.2-13.1-10.1-17.3-17.2c-0.5-0.9-0.6-2-0.2-3c0.3-1.6,1.8-2.7,3.3-2.4l0,0c5.1-0.2,13.8-6.4,16.4-10.7
	s9-0.2,6.5,3.7c-2.1,3-4.6,5.6-7.6,7.7c31.5,0,62.6-10.4,85.5-33C511,51.3,515.1,57,509.1,62.9z"/>
<path class="st17" d="M32.7,93.7c22.9,22.6,54,33,85.5,33c-3-2.1-5.6-4.7-7.6-7.7c-2.5-4,3.9-8,6.5-3.7s11.3,10.5,16.4,10.7l0,0
	c1.6-0.3,3.1,0.8,3.3,2.4c0.4,1,0.3,2.1-0.2,3c-4.3,7.1-10.2,13-17.3,17.2c-4,2.5-7.8-3.7-3.8-6.2c3.9-2.3,7.4-5.2,10.4-8.6
	c-15.7,1-31.5-0.8-46.7-5.1c-19.6-5.5-37.2-15.9-51.5-30.1C21.6,92.8,25.7,87.1,32.7,93.7z"/>
<g>
	<g>
		<path class="st17" d="M11.5,53.9c0.2-6.2,9-2.6,7.1,3.3c-1.3,3.8-5.8,5.3-8.9,7.3C5.6,67.2-3.1,74.1-0.5,80
			c1.7,3.8,7.3,3.3,10.7,3.3c5.1,0.1,10.4,0.2,15.4-0.9c5.6-1.3,3.3-10-2.4-8.7c-3.3,0.8-6.9,0.7-10.3,0.7c-1.7,0-3.4,0-5.1-0.1
			c-0.6,0-1.8-0.3-2.4-0.1c-0.9,0.2-0.4-0.4,0.5,0.3c0.7,1.3,1.5,2.6,2.2,3.9c-0.5,1.4-0.4,1.3,0.4-0.3c0.6-0.9,1.2-1.8,2-2.6
			c1.1-1.2,2.4-2.2,3.8-3.1c2.9-1.9,6.2-3.3,8.8-5.8c4.3-4.1,6.1-10.5,4-16.2C22.3,37.2,3,39.9,2.5,53.9
			C2.3,59.7,11.3,59.7,11.5,53.9L11.5,53.9z"/>
	</g>
</g>
<g>
	<g>
		<path class="st17" d="M498.7,36.9c0.2,6.2,4.6,11.9,11.2,12.4c6.4,0.4,11.6-4.3,14-9.9c3.6-8.3-0.6-14.2-8.2-17.5
			c-0.1-0.1-1.4-0.3-0.8-0.3c-0.2-0.1-0.5-0.2-0.7-0.3c-1.2,5.6-0.6,7.4,1.5,5.3c2.3-1.2,4.5-3.7,6.2-5.5c2.8-2.9,7.9-9.1,2.6-12.4
			c-2.7-1.7-7.4-1.2-10.5-1.2c-4.5,0-9.3-0.1-13.8,1c-5.6,1.3-3.3,10,2.4,8.7c3.3-0.8,6.9-0.7,10.3-0.7c1.7,0,3.4,0,5.1,0.1
			c0.6,0,1.8,0.3,2.4,0.1c0.9-0.2,0.4,0.4-0.5-0.3c-0.7-1.3-1.5-2.6-2.2-3.9c0.5-1.3,0.4-1.3-0.2-0.2c-0.5,0.6-1,1.2-1.6,1.8
			c-0.9,1-1.9,1.9-2.9,2.8c-1.7,1.5-4.3,2.9-5.5,4.8c-1.8,2.8-0.3,5.8,2.3,7.3c1.7,0.9,4.9,1.3,6,3.1c2.7,4.5-8,12.2-8.3,4.5
			C507.5,31.2,498.5,31.1,498.7,36.9L498.7,36.9z"/>
	</g>
</g>
<polygon class="st2" points="381.7,74.2 153.9,74.2 153.9,28.7 382.1,28.7 "/>
<g class="st3">
	<path class="st4" d="M230.7,40.3l-1.1-3h-4.2l-1.1,3h-1.9l4.1-11h1.9l4.1,11H230.7z M229.1,35.8l-1-3c-0.1-0.2-0.2-0.5-0.3-0.9
		c-0.1-0.4-0.2-0.7-0.3-0.9c-0.1,0.6-0.3,1.3-0.6,2l-1,2.9H229.1z"/>
	<path class="st4" d="M237.2,40.5c-1.3,0-2.2-0.4-2.9-1.1c-0.7-0.7-1-1.8-1-3.2c0-1.4,0.3-2.5,1-3.2c0.7-0.8,1.7-1.1,3-1.1
		c0.9,0,1.7,0.2,2.4,0.5l-0.5,1.4c-0.7-0.3-1.4-0.4-1.8-0.4c-1.4,0-2.2,1-2.2,2.9c0,0.9,0.2,1.6,0.5,2.1c0.4,0.5,0.9,0.7,1.6,0.7
		c0.8,0,1.5-0.2,2.2-0.6V40c-0.3,0.2-0.7,0.3-1,0.4C238.2,40.5,237.7,40.5,237.2,40.5z"/>
	<path class="st4" d="M244.8,40.5c-1.3,0-2.2-0.4-2.9-1.1c-0.7-0.7-1-1.8-1-3.2c0-1.4,0.3-2.5,1-3.2c0.7-0.8,1.7-1.1,3-1.1
		c0.9,0,1.7,0.2,2.4,0.5l-0.5,1.4c-0.7-0.3-1.4-0.4-1.8-0.4c-1.4,0-2.2,1-2.2,2.9c0,0.9,0.2,1.6,0.5,2.1c0.4,0.5,0.9,0.7,1.6,0.7
		c0.8,0,1.5-0.2,2.2-0.6V40c-0.3,0.2-0.7,0.3-1,0.4C245.8,40.5,245.3,40.5,244.8,40.5z"/>
	<path class="st4" d="M252.7,40.5c-1.3,0-2.3-0.4-3-1.1c-0.7-0.8-1.1-1.8-1.1-3.1c0-1.4,0.3-2.4,1-3.2c0.7-0.8,1.6-1.2,2.8-1.2
		c1.1,0,2,0.3,2.6,1c0.6,0.7,1,1.6,1,2.7v1h-5.5c0,0.8,0.2,1.4,0.7,1.9s1,0.6,1.7,0.6c0.5,0,0.9,0,1.4-0.1s0.9-0.2,1.4-0.5v1.4
		c-0.4,0.2-0.9,0.3-1.3,0.4C253.8,40.4,253.3,40.5,252.7,40.5z M252.4,33.2c-0.6,0-1,0.2-1.3,0.5c-0.3,0.4-0.5,0.9-0.6,1.6h3.8
		c0-0.7-0.2-1.2-0.5-1.6C253.4,33.4,252.9,33.2,252.4,33.2z"/>
	<path class="st4" d="M263.5,38c0,0.8-0.3,1.4-0.9,1.9c-0.6,0.4-1.4,0.6-2.5,0.6c-1.1,0-2-0.2-2.7-0.5v-1.5c1,0.5,1.9,0.7,2.7,0.7
		c1.1,0,1.6-0.3,1.6-1c0-0.2-0.1-0.4-0.2-0.5c-0.1-0.1-0.3-0.3-0.6-0.4c-0.3-0.2-0.7-0.3-1.1-0.5c-1-0.4-1.6-0.7-1.9-1.1
		c-0.3-0.4-0.5-0.8-0.5-1.4c0-0.7,0.3-1.3,0.9-1.7s1.4-0.6,2.3-0.6c1,0,1.9,0.2,2.8,0.6l-0.6,1.3c-0.9-0.4-1.6-0.6-2.3-0.6
		c-0.9,0-1.4,0.3-1.4,0.8c0,0.3,0.1,0.5,0.4,0.7c0.2,0.2,0.8,0.4,1.6,0.7c0.7,0.3,1.2,0.5,1.5,0.7c0.3,0.2,0.5,0.5,0.7,0.8
		S263.5,37.6,263.5,38z"/>
	<path class="st4" d="M271,38c0,0.8-0.3,1.4-0.9,1.9c-0.6,0.4-1.4,0.6-2.5,0.6c-1.1,0-2-0.2-2.7-0.5v-1.5c1,0.5,1.9,0.7,2.7,0.7
		c1.1,0,1.6-0.3,1.6-1c0-0.2-0.1-0.4-0.2-0.5c-0.1-0.1-0.3-0.3-0.6-0.4c-0.3-0.2-0.7-0.3-1.1-0.5c-1-0.4-1.6-0.7-1.9-1.1
		c-0.3-0.4-0.5-0.8-0.5-1.4c0-0.7,0.3-1.3,0.9-1.7s1.4-0.6,2.3-0.6c1,0,1.9,0.2,2.8,0.6l-0.6,1.3c-0.9-0.4-1.6-0.6-2.3-0.6
		c-0.9,0-1.4,0.3-1.4,0.8c0,0.3,0.1,0.5,0.4,0.7c0.2,0.2,0.8,0.4,1.6,0.7c0.7,0.3,1.2,0.5,1.5,0.7c0.3,0.2,0.5,0.5,0.7,0.8
		C270.9,37.2,271,37.6,271,38z"/>
	<path class="st4" d="M276.5,40.5c-1.3,0-2.3-0.4-3-1.1c-0.7-0.8-1.1-1.8-1.1-3.1c0-1.4,0.3-2.4,1-3.2s1.6-1.2,2.8-1.2
		c1.1,0,2,0.3,2.6,1c0.6,0.7,1,1.6,1,2.7v1h-5.5c0,0.8,0.2,1.4,0.7,1.9s1,0.6,1.7,0.6c0.5,0,0.9,0,1.4-0.1s0.9-0.2,1.4-0.5v1.4
		c-0.4,0.2-0.9,0.3-1.3,0.4C277.5,40.4,277,40.5,276.5,40.5z M276.2,33.2c-0.6,0-1,0.2-1.3,0.5c-0.3,0.4-0.5,0.9-0.6,1.6h3.8
		c0-0.7-0.2-1.2-0.5-1.6C277.2,33.4,276.7,33.2,276.2,33.2z"/>
	<path class="st4" d="M287.3,38c0,0.8-0.3,1.4-0.9,1.9c-0.6,0.4-1.4,0.6-2.5,0.6c-1.1,0-2-0.2-2.7-0.5v-1.5c1,0.5,1.9,0.7,2.7,0.7
		c1.1,0,1.6-0.3,1.6-1c0-0.2-0.1-0.4-0.2-0.5c-0.1-0.1-0.3-0.3-0.6-0.4c-0.3-0.2-0.7-0.3-1.1-0.5c-1-0.4-1.6-0.7-1.9-1.1
		c-0.3-0.4-0.5-0.8-0.5-1.4c0-0.7,0.3-1.3,0.9-1.7s1.4-0.6,2.3-0.6c1,0,1.9,0.2,2.8,0.6l-0.6,1.3c-0.9-0.4-1.6-0.6-2.3-0.6
		c-0.9,0-1.4,0.3-1.4,0.8c0,0.3,0.1,0.5,0.4,0.7c0.2,0.2,0.8,0.4,1.6,0.7c0.7,0.3,1.2,0.5,1.5,0.7s0.5,0.5,0.7,0.8
		S287.3,37.6,287.3,38z"/>
	<path class="st4" d="M297.3,33.4h-2v7h-1.8v-7h-1.4v-0.8l1.4-0.5v-0.5c0-1,0.2-1.7,0.7-2.2c0.5-0.5,1.2-0.7,2.1-0.7
		c0.6,0,1.2,0.1,1.8,0.3l-0.5,1.3c-0.4-0.1-0.8-0.2-1.2-0.2c-0.4,0-0.7,0.1-0.9,0.4c-0.2,0.2-0.3,0.6-0.3,1.1v0.5h2V33.4z"/>
	<path class="st4" d="M306.1,36.2c0,1.4-0.3,2.4-1,3.2c-0.7,0.8-1.7,1.1-2.9,1.1c-0.8,0-1.5-0.2-2.1-0.5c-0.6-0.3-1.1-0.9-1.4-1.5
		c-0.3-0.7-0.5-1.4-0.5-2.3c0-1.3,0.3-2.4,1-3.1c0.7-0.8,1.7-1.1,2.9-1.1c1.2,0,2.1,0.4,2.8,1.2C305.7,33.8,306.1,34.9,306.1,36.2z
		 M300.1,36.2c0,1.9,0.7,2.9,2.1,2.9c1.4,0,2.1-1,2.1-2.9c0-1.9-0.7-2.8-2.1-2.8c-0.7,0-1.3,0.2-1.6,0.7
		C300.2,34.6,300.1,35.3,300.1,36.2z"/>
	<path class="st4" d="M312.3,31.9c0.4,0,0.6,0,0.9,0.1l-0.2,1.6c-0.3-0.1-0.5-0.1-0.8-0.1c-0.7,0-1.3,0.2-1.7,0.7
		c-0.4,0.5-0.7,1.1-0.7,1.8v4.3h-1.8v-8.3h1.4l0.2,1.5h0.1c0.3-0.5,0.6-0.9,1.1-1.2C311.3,32,311.8,31.9,312.3,31.9z"/>
</g>
<g class="st3">
	<path class="st4" d="M214.3,55.6l2.7-3.2l1.3,0.7l-2.1,2.6l2.1,2.6L217,59l-2.7-3.2V55.6z M217.7,55.6l2.7-3.2l1.3,0.7l-2.1,2.6
		l2.1,2.6l-1.3,0.7l-2.7-3.2V55.6z"/>
	<path class="st4" d="M228.4,59.8l-3.2-9.2h-0.1c0.1,1.4,0.1,2.6,0.1,3.8v5.3h-1.6v-11h2.5l3,8.7l0,0l3.1-8.7h2.5v11H233v-5.4
		c0-0.5,0-1.3,0-2.1c0-0.9,0.1-1.4,0.1-1.6H233l-3.3,9.1h-1.3V59.8z"/>
	<path class="st4" d="M244.6,59.8l-1.1-3h-4.2l-1.1,3h-1.9l4.1-11h1.9l4.1,11H244.6z M243,55.3l-1-3c-0.1-0.2-0.2-0.5-0.3-0.9
		s-0.2-0.7-0.3-0.9c-0.1,0.6-0.3,1.3-0.6,2l-1,2.9L243,55.3L243,55.3z"/>
	<path class="st4" d="M251.7,59.8H250v-9.4h-3.2v-1.5h8.2v1.5h-3.2v9.4H251.7z"/>
	<path class="st4" d="M258.4,55.5v4.4h-1.8v-11h3.1c1.4,0,2.5,0.3,3.1,0.8c0.7,0.5,1,1.3,1,2.4c0,1.4-0.7,2.3-2.1,2.9l3.1,4.8h-2
		l-2.6-4.4L258.4,55.5L258.4,55.5z M258.4,54h1.2c0.8,0,1.4-0.2,1.8-0.5s0.6-0.8,0.6-1.4c0-0.6-0.2-1.1-0.6-1.3
		c-0.4-0.3-1-0.4-1.8-0.4h-1.2V54z"/>
	<path class="st4" d="M272.7,59.8h-6.2v-11h6.2v1.5h-4.4v3h4.1v1.5h-4.1v3.4h4.4V59.8z"/>
	<path class="st4" d="M281.3,56.9c0,1-0.4,1.7-1.1,2.3s-1.7,0.8-2.9,0.8s-2.3-0.2-3-0.6v-1.7c0.5,0.2,1,0.4,1.6,0.6s1.1,0.2,1.6,0.2
		c0.7,0,1.2-0.1,1.6-0.4c0.3-0.3,0.5-0.6,0.5-1.1c0-0.4-0.2-0.8-0.5-1c-0.3-0.3-0.9-0.6-1.9-1s-1.7-0.9-2.1-1.4s-0.6-1.1-0.6-1.9
		c0-0.9,0.3-1.6,1-2.2s1.5-0.8,2.6-0.8c1,0,2.1,0.2,3.1,0.7l-0.6,1.5c-1-0.4-1.8-0.6-2.6-0.6c-0.6,0-1,0.1-1.3,0.4
		c-0.3,0.3-0.5,0.6-0.5,1c0,0.3,0.1,0.5,0.2,0.7s0.3,0.4,0.6,0.6c0.3,0.2,0.8,0.4,1.5,0.7c0.8,0.3,1.4,0.6,1.8,0.9s0.6,0.6,0.8,1
		C281.3,55.9,281.3,56.4,281.3,56.9z"/>
	<path class="st4" d="M292.1,59.8h-1.8v-4.9h-5.1v4.9h-1.8v-11h1.8v4.5h5.1v-4.5h1.8V59.8z"/>
	<path class="st4" d="M303.4,59.8h-2.1l-3.4-5l-1.1,0.9v4.1H295v-11h1.8V54c0.5-0.6,1-1.2,1.5-1.7l3-3.5h2c-1.9,2.2-3.3,3.9-4.1,4.8
		L303.4,59.8z"/>
	<path class="st4" d="M311.6,59.8l-1.1-3h-4.2l-1.1,3h-1.9l4.1-11h1.9l4.1,11H311.6z M310,55.3l-1-3c-0.1-0.2-0.2-0.5-0.3-0.9
		c-0.1-0.4-0.2-0.7-0.3-0.9c-0.1,0.6-0.3,1.3-0.6,2l-1,2.9L310,55.3L310,55.3z"/>
	<path class="st4" d="M318.1,55.8l-2.7,3.2l-1.3-0.7l2.1-2.6l-2.1-2.6l1.3-0.7l2.7,3.2V55.8z M321.4,55.8l-2.7,3.2l-1.3-0.7l2.1-2.6
		l-2.1-2.6l1.3-0.7l2.7,3.2V55.8z"/>
</g>
</svg>
