<?xml version="1.0" encoding="utf-8"?>
<!-- Generator: Adobe Illustrator 19.2.1, SVG Export Plug-In . SVG Version: 6.00 Build 0)  -->
<svg version="1.1" id="Слой_1" xmlns="http://www.w3.org/2000/svg" xmlns:xlink="http://www.w3.org/1999/xlink" x="0px" y="0px"
	 viewBox="0 0 542.3 205" style="enable-background:new 0 0 542.3 205;" xml:space="preserve">
<rect x="55.3" y="44.5" style="fill:#FFFFFF;" width="423" height="117"/>
<g>
	<g>
		
			<path id="paperclip_30_1px_4_" style="fill:none;stroke:#B9BBBC;stroke-width:0.8768;stroke-linecap:round;stroke-linejoin:round;stroke-miterlimit:10;" d="
			M446.4,73.1l-3.3,5.7c-0.7,1.2-2.3,1.5-3.6,0.8c-1.3-0.7-1.7-2.4-1.1-3.4L442,70c0.5-0.9,1.8-1.1,2.7-0.6c0.9,0.5,1.4,1.7,0.9,2.6
			l-3.1,5.2c-0.4,0.7-1.3,1-2,0.6s-0.9-1.3-0.5-2l0,0l1.7-3"/>
		
			<line style="fill:none;stroke:#B9BBBC;stroke-linecap:round;stroke-linejoin:round;stroke-miterlimit:10;" x1="436.8" y1="67.5" x2="436.8" y2="72.5"/>
		
			<line style="fill:none;stroke:#B9BBBC;stroke-linecap:round;stroke-linejoin:round;stroke-miterlimit:10;" x1="434.3" y1="70" x2="438.3" y2="70"/>
	</g>
</g>
<g>
	<path style="fill:none;stroke:#B9BBBC;stroke-width:0.8768;stroke-linecap:round;stroke-linejoin:round;stroke-miterlimit:10;" d="
		M412.3,68.9v8.6c0,1.2-1,1.7-2.3,1.7h-7.6c-1.3,0-2.3-0.4-2.3-1.7v-8.6H412.3z"/>
	
		<line style="fill:none;stroke:#B9BBBC;stroke-linecap:round;stroke-linejoin:round;stroke-miterlimit:10;" x1="400.3" y1="68" x2="412.3" y2="68"/>
	
		<line style="fill:none;stroke:#B9BBBC;stroke-linecap:round;stroke-linejoin:round;stroke-miterlimit:10;" x1="404.3" y1="72" x2="406.3" y2="72"/>
	
		<line style="fill:none;stroke:#B9BBBC;stroke-linecap:round;stroke-linejoin:round;stroke-miterlimit:10;" x1="401.3" y1="72" x2="403.3" y2="72"/>
	
		<line style="fill:none;stroke:#B9BBBC;stroke-linecap:round;stroke-linejoin:round;stroke-miterlimit:10;" x1="409.3" y1="72" x2="410.3" y2="72"/>
	
		<line style="fill:none;stroke:#B9BBBC;stroke-linecap:round;stroke-linejoin:round;stroke-miterlimit:10;" x1="404.3" y1="74" x2="406.3" y2="74"/>
	
		<line style="fill:none;stroke:#B9BBBC;stroke-linecap:round;stroke-linejoin:round;stroke-miterlimit:10;" x1="401.3" y1="74" x2="403.3" y2="74"/>
	
		<line style="fill:none;stroke:#B9BBBC;stroke-linecap:round;stroke-linejoin:round;stroke-miterlimit:10;" x1="409.3" y1="74" x2="410.3" y2="74"/>
	
		<line style="fill:none;stroke:#B9BBBC;stroke-linecap:round;stroke-linejoin:round;stroke-miterlimit:10;" x1="404.3" y1="76" x2="406.3" y2="76"/>
	
		<line style="fill:none;stroke:#B9BBBC;stroke-linecap:round;stroke-linejoin:round;stroke-miterlimit:10;" x1="401.3" y1="76" x2="403.3" y2="76"/>
	
		<line style="fill:none;stroke:#B9BBBC;stroke-linecap:round;stroke-linejoin:round;stroke-miterlimit:10;" x1="409.3" y1="76" x2="410.3" y2="76"/>
	
		<line style="fill:none;stroke:#B9BBBC;stroke-linecap:round;stroke-linejoin:round;stroke-miterlimit:10;" x1="401.8" y1="66.5" x2="401.8" y2="68.5"/>
	
		<line style="fill:none;stroke:#B9BBBC;stroke-linecap:round;stroke-linejoin:round;stroke-miterlimit:10;" x1="410.8" y1="66.5" x2="410.8" y2="68.5"/>
</g>
<g>
	<g>
		<rect x="98.3" y="65.6" style="fill:none;" width="284.6" height="20"/>
		<g style="enable-background:new    ;">
			<path style="fill:#A0CAFC;" d="M102.4,75.3h-1.1v-8.1h-2.9v-0.9h6.8v0.9h-2.9L102.4,75.3L102.4,75.3z"/>
			<path style="fill:#A0CAFC;" d="M110.6,75.3l-0.2-1l0,0c-0.3,0.4-0.7,0.7-1,0.9s-0.8,0.2-1.3,0.2c-0.7,0-1.2-0.2-1.6-0.5
				s-0.6-0.8-0.6-1.5c0-1.4,1.1-2.1,3.3-2.2h1.2v-0.4c0-0.5-0.1-0.9-0.3-1.2c-0.2-0.3-0.6-0.4-1.1-0.4c-0.6,0-1.2,0.2-1.9,0.5
				l-0.3-0.8c0.3-0.2,0.7-0.3,1.1-0.4s0.8-0.2,1.2-0.2c0.8,0,1.4,0.2,1.8,0.5c0.4,0.4,0.6,0.9,0.6,1.7v4.6h-0.9
				C110.6,75.1,110.6,75.3,110.6,75.3z M108.3,74.5c0.6,0,1.1-0.2,1.5-0.5s0.5-0.8,0.5-1.5v-0.6h-1c-0.8,0-1.4,0.2-1.8,0.4
				c-0.4,0.2-0.5,0.6-0.5,1.1c0,0.4,0.1,0.7,0.3,0.9C107.6,74.4,107.9,74.5,108.3,74.5z"/>
			<path style="fill:#A0CAFC;" d="M117.9,73.4c0,0.6-0.2,1.1-0.7,1.5c-0.5,0.3-1.1,0.5-2,0.5s-1.6-0.1-2.1-0.4v-1
				c0.3,0.2,0.7,0.3,1.1,0.4s0.7,0.1,1.1,0.1c0.5,0,1-0.1,1.2-0.3c0.3-0.2,0.4-0.4,0.4-0.8c0-0.3-0.1-0.5-0.3-0.7
				c-0.2-0.2-0.7-0.4-1.3-0.7c-0.6-0.2-1.1-0.4-1.4-0.6s-0.5-0.4-0.6-0.6s-0.2-0.5-0.2-0.8c0-0.6,0.2-1,0.7-1.3s1.1-0.5,1.9-0.5
				c0.7,0,1.4,0.1,2.1,0.4l-0.4,0.8c-0.7-0.3-1.3-0.4-1.9-0.4c-0.5,0-0.9,0.1-1.1,0.2c-0.2,0.2-0.4,0.4-0.4,0.6s0,0.3,0.1,0.5
				c0.1,0.1,0.2,0.3,0.5,0.4s0.6,0.3,1.2,0.5c0.8,0.3,1.4,0.6,1.6,0.9C117.8,72.6,117.9,73,117.9,73.4z"/>
			<path style="fill:#A0CAFC;" d="M120.6,71.8c0.2-0.3,0.4-0.6,0.8-1l2.2-2.3h1.2l-2.8,2.9l2.9,3.9h-1.2l-2.4-3.2l-0.8,0.7v2.5h-1
				v-9.7h1v5.1C120.6,70.9,120.6,71.3,120.6,71.8L120.6,71.8z"/>
			<path style="fill:#A0CAFC;" d="M136.1,75.3h-1.2l-4.3-7.6l0,0c0.1,1.2,0.1,2,0.1,2.5v5.2h-0.9v-9.1h1.2l4.2,7.6l0,0
				c-0.1-1-0.1-1.8-0.1-2.4v-5.2h0.9v9H136.1z M140.8,71.4c0,0.7-0.2,1.2-0.5,1.6s-0.8,0.6-1.4,0.6c-0.6,0-1-0.2-1.4-0.6
				c-0.3-0.4-0.5-0.9-0.5-1.6s0.2-1.2,0.5-1.6s0.8-0.6,1.4-0.6c0.6,0,1,0.2,1.4,0.6C140.6,70.2,140.8,70.8,140.8,71.4z M137.3,75.3
				v-0.8h3.2v0.8H137.3z M137.8,71.4c0,0.5,0.1,0.8,0.3,1.1s0.4,0.4,0.8,0.4c0.4,0,0.6-0.1,0.8-0.4c0.2-0.2,0.2-0.6,0.2-1.1
				s-0.1-0.8-0.2-1.1c-0.2-0.2-0.4-0.3-0.8-0.3c-0.4,0-0.7,0.1-0.8,0.3C137.9,70.6,137.8,70.9,137.8,71.4z"/>
			<path style="fill:#A0CAFC;" d="M145.9,75.3h-1v-6.5c0-0.5,0-1,0-1.5c-0.1,0.1-0.2,0.2-0.3,0.3c-0.1,0.1-0.6,0.5-1.5,1.2l-0.5-0.7
				l2.4-1.9h0.9L145.9,75.3L145.9,75.3z"/>
		</g>
	</g>
</g>
<g>
	<rect x="97.4" y="88.8" style="fill:none;" width="284.6" height="20"/>
	<g style="enable-background:new    ;">
		<path style="fill:#A0CAFC;" d="M100.8,92.6h-2.2l-0.7,1.9h-0.4l2.1-5.3h0.2l2.1,5.3h-0.4L100.8,92.6z M98.7,92.3h1.9l-0.7-1.9
			c-0.1-0.2-0.1-0.4-0.2-0.6c-0.1,0.2-0.1,0.4-0.2,0.6L98.7,92.3z"/>
		<path style="fill:#A0CAFC;" d="M104,90.5c0.3,0,0.5,0.1,0.7,0.2s0.4,0.3,0.6,0.5l0,0c0-0.3,0-0.6,0-0.9v-1.4h0.4v5.7h-0.2
			l-0.1-0.6l0,0c-0.3,0.5-0.7,0.7-1.3,0.7c-0.5,0-1-0.2-1.3-0.5s-0.4-0.8-0.4-1.5s0.1-1.2,0.4-1.6C103.1,90.6,103.5,90.5,104,90.5z
			 M104,90.8c-0.4,0-0.8,0.2-1,0.5s-0.3,0.7-0.3,1.3c0,1.1,0.4,1.7,1.3,1.7c0.4,0,0.8-0.1,1-0.4s0.3-0.7,0.3-1.3v-0.1
			c0-0.6-0.1-1.1-0.3-1.3C104.8,90.9,104.5,90.8,104,90.8z"/>
		<path style="fill:#A0CAFC;" d="M108.5,90.5c0.3,0,0.5,0.1,0.7,0.2s0.4,0.3,0.6,0.5l0,0c0-0.3,0-0.6,0-0.9v-1.4h0.4v5.7H110
			l-0.1-0.6l0,0c-0.3,0.5-0.7,0.7-1.3,0.7c-0.5,0-1-0.2-1.3-0.5s-0.4-0.8-0.4-1.5s0.1-1.2,0.4-1.6C107.5,90.6,107.9,90.5,108.5,90.5
			z M108.5,90.8c-0.4,0-0.8,0.2-1,0.5s-0.3,0.7-0.3,1.3c0,1.1,0.4,1.7,1.3,1.7c0.4,0,0.8-0.1,1-0.4s0.3-0.7,0.3-1.3v-0.1
			c0-0.6-0.1-1.1-0.3-1.3C109.3,90.9,108.9,90.8,108.5,90.8z"/>
		<path style="fill:#A0CAFC;" d="M114.8,90.5c0.3,0,0.5,0.1,0.7,0.2s0.4,0.3,0.6,0.5l0,0c0-0.3,0-0.6,0-0.9v-1.4h0.4v5.7h-0.2
			l-0.1-0.6l0,0c-0.3,0.5-0.7,0.7-1.3,0.7c-0.5,0-1-0.2-1.3-0.5s-0.4-0.8-0.4-1.5s0.1-1.2,0.4-1.6C113.9,90.6,114.3,90.5,114.8,90.5
			z M114.8,90.8c-0.4,0-0.8,0.2-1,0.5s-0.3,0.7-0.3,1.3c0,1.1,0.4,1.7,1.3,1.7c0.4,0,0.8-0.1,1-0.4s0.3-0.7,0.3-1.3v-0.1
			c0-0.6-0.1-1.1-0.3-1.3C115.6,90.9,115.3,90.8,114.8,90.8z"/>
		<path style="fill:#A0CAFC;" d="M119.4,94.6c-0.6,0-1-0.2-1.3-0.5c-0.3-0.4-0.5-0.8-0.5-1.5c0-0.6,0.2-1.1,0.5-1.5s0.7-0.6,1.3-0.6
			c0.5,0,0.8,0.2,1.1,0.5s0.4,0.8,0.4,1.3v0.3H118c0,0.5,0.1,1,0.4,1.2c0.2,0.3,0.6,0.4,1.1,0.4c0.2,0,0.4,0,0.6,0s0.4-0.1,0.6-0.2
			v0.3c-0.2,0.1-0.4,0.2-0.6,0.2C119.9,94.5,119.7,94.6,119.4,94.6z M119.3,90.8c-0.4,0-0.7,0.1-0.9,0.4s-0.4,0.6-0.4,1.1h2.4
			c0-0.5-0.1-0.8-0.3-1.1C119.9,90.9,119.7,90.8,119.3,90.8z"/>
		<path style="fill:#A0CAFC;" d="M124.4,93.5c0,0.4-0.1,0.6-0.4,0.8c-0.3,0.2-0.7,0.3-1.1,0.3c-0.5,0-0.9-0.1-1.3-0.2V94
			c0.4,0.2,0.8,0.3,1.3,0.3c0.4,0,0.7-0.1,0.9-0.2c0.2-0.1,0.3-0.3,0.3-0.5s-0.1-0.4-0.2-0.5c-0.2-0.1-0.4-0.3-0.8-0.4
			s-0.7-0.3-0.8-0.4s-0.3-0.2-0.4-0.3c-0.1-0.1-0.1-0.3-0.1-0.5c0-0.3,0.1-0.5,0.4-0.7s0.6-0.3,1-0.3s0.8,0.1,1.2,0.2l-0.1,0.3
			c-0.4-0.2-0.7-0.2-1.1-0.2c-0.3,0-0.6,0.1-0.8,0.2c-0.2,0.1-0.3,0.3-0.3,0.4c0,0.2,0.1,0.4,0.2,0.5s0.4,0.3,0.9,0.4
			c0.4,0.1,0.6,0.2,0.8,0.3c0.2,0.1,0.3,0.2,0.4,0.4C124.3,93.1,124.4,93.3,124.4,93.5z"/>
		<path style="fill:#A0CAFC;" d="M127,94.6c-0.6,0-1-0.2-1.3-0.5c-0.3-0.4-0.5-0.9-0.5-1.5c0-0.7,0.2-1.2,0.5-1.5
			c0.3-0.4,0.8-0.5,1.4-0.5c0.3,0,0.7,0.1,1,0.2l-0.1,0.3c-0.3-0.1-0.6-0.2-0.9-0.2c-0.5,0-0.9,0.1-1.1,0.4
			c-0.3,0.3-0.4,0.7-0.4,1.3c0,0.5,0.1,1,0.4,1.3c0.2,0.3,0.6,0.5,1,0.5s0.7-0.1,1-0.2v0.3C127.7,94.5,127.4,94.6,127,94.6z"/>
		<path style="fill:#A0CAFC;" d="M130.5,90.5c0.2,0,0.3,0,0.5,0.1l-0.1,0.3c-0.2,0-0.3-0.1-0.5-0.1c-0.3,0-0.6,0.1-0.8,0.4
			s-0.3,0.6-0.3,1.1v2.2h-0.4v-4h0.3v0.7l0,0c0.2-0.3,0.3-0.5,0.5-0.6C130,90.5,130.2,90.5,130.5,90.5z"/>
		<path style="fill:#A0CAFC;" d="M131.8,89.4c0-0.2,0.1-0.3,0.2-0.3c0.1,0,0.1,0,0.2,0.1s0.1,0.1,0.1,0.3c0,0.1,0,0.2-0.1,0.3
			c0,0.1-0.1,0.1-0.2,0.1C131.9,89.8,131.8,89.7,131.8,89.4z M132.2,94.5h-0.4v-4h0.4V94.5z"/>
		<path style="fill:#A0CAFC;" d="M135.2,94.6c-0.6,0-1.1-0.2-1.3-0.7l0,0v0.3c0,0.2,0,0.4,0,0.6v1.5h-0.4v-5.7h0.3l0.1,0.6l0,0
			c0.3-0.4,0.7-0.6,1.3-0.6c0.5,0,0.9,0.2,1.2,0.5s0.4,0.9,0.4,1.5s-0.1,1.2-0.4,1.5C136.1,94.4,135.7,94.6,135.2,94.6z M135.2,94.2
			c0.4,0,0.7-0.2,0.9-0.5s0.3-0.7,0.3-1.3c0-1.2-0.4-1.7-1.3-1.7c-0.5,0-0.8,0.1-1,0.4s-0.3,0.7-0.3,1.2v0.1c0,0.6,0.1,1.1,0.3,1.3
			C134.4,94.1,134.7,94.2,135.2,94.2z"/>
		<path style="fill:#A0CAFC;" d="M139,94.2c0.2,0,0.4,0,0.6-0.1v0.3c-0.2,0.1-0.4,0.1-0.6,0.1c-0.3,0-0.6-0.1-0.8-0.3
			c-0.2-0.2-0.2-0.5-0.2-0.9v-2.6h-0.6v-0.2l0.6-0.2l0.2-0.9h0.2v1h1.2v0.3h-1.2v2.5c0,0.3,0.1,0.5,0.2,0.7
			C138.6,94.2,138.8,94.2,139,94.2z"/>
		<path style="fill:#A0CAFC;" d="M140.4,89.4c0-0.2,0.1-0.3,0.2-0.3c0.1,0,0.1,0,0.2,0.1s0.1,0.1,0.1,0.3c0,0.1,0,0.2-0.1,0.3
			c0,0.1-0.1,0.1-0.2,0.1C140.5,89.8,140.4,89.7,140.4,89.4z M140.8,94.5h-0.4v-4h0.4V94.5z"/>
		<path style="fill:#A0CAFC;" d="M145.4,92.5c0,0.6-0.2,1.1-0.5,1.5s-0.7,0.5-1.3,0.5c-0.3,0-0.7-0.1-0.9-0.3
			c-0.3-0.2-0.5-0.4-0.6-0.7c-0.1-0.3-0.2-0.7-0.2-1.1c0-0.6,0.2-1.1,0.5-1.5s0.7-0.5,1.3-0.5c0.5,0,1,0.2,1.3,0.5
			C145.2,91.4,145.4,91.9,145.4,92.5z M142.3,92.5c0,0.5,0.1,1,0.4,1.3c0.2,0.3,0.6,0.5,1,0.5s0.8-0.2,1-0.5s0.4-0.7,0.4-1.3
			c0-0.5-0.1-1-0.4-1.3c-0.2-0.3-0.6-0.5-1-0.5s-0.8,0.1-1,0.4C142.4,91.5,142.3,92,142.3,92.5z"/>
		<path style="fill:#A0CAFC;" d="M149.3,94.5v-2.6c0-0.4-0.1-0.7-0.3-0.9s-0.4-0.3-0.8-0.3c-0.5,0-0.8,0.1-1,0.4
			c-0.2,0.2-0.3,0.6-0.3,1.2v2.2h-0.4v-4h0.3l0.1,0.5l0,0c0.3-0.4,0.7-0.6,1.4-0.6c0.9,0,1.3,0.5,1.3,1.4v2.6h-0.3V94.5z"/>
	</g>
</g>
<g id="del_2px_small_35_">
	
		<line style="fill:none;stroke:#B9BBBC;stroke-linecap:round;stroke-linejoin:round;stroke-miterlimit:10;" x1="465.3" y1="67" x2="477.3" y2="67"/>
	<path style="fill:none;stroke:#B9BBBC;stroke-linecap:round;stroke-linejoin:round;stroke-miterlimit:10;" d="M477.6,70.2
		c0-1.5-1-1.2-2.5-1.2h-7.3c-1.5,0-2.5-0.4-2.5,1.1l0.8,8.2c0.4,2.3,1.3,2.7,2.3,2.7h5.7c1,0,2.5,0.3,2.9-2.8L477.6,70.2z"/>
	<path style="fill:none;stroke:#B9BBBC;stroke-width:0.8768;stroke-linecap:round;stroke-linejoin:round;stroke-miterlimit:10;" d="
		M473.2,66.6c0-1-0.8-1.8-1.8-1.8s-1.8,0.8-1.8,1.8"/>
	
		<line style="fill:none;stroke:#B9BBBC;stroke-width:0.8768;stroke-linecap:round;stroke-linejoin:round;stroke-miterlimit:10;" x1="469.6" y1="76.4" x2="473.2" y2="72.8"/>
	
		<line style="fill:none;stroke:#B9BBBC;stroke-width:0.8768;stroke-linecap:round;stroke-linejoin:round;stroke-miterlimit:10;" x1="469.6" y1="72.8" x2="473.2" y2="76.4"/>
</g>
<g>
	<g>
		<path style="fill:none;stroke:#B9BBBC;stroke-linecap:round;stroke-linejoin:round;stroke-miterlimit:10;" d="M81.6,73.9
			c-2.1,0-4.2-6.7,0-6.7C85.6,67.1,83.7,73.9,81.6,73.9z"/>
		<path style="fill:none;stroke:#B9BBBC;stroke-linecap:round;stroke-linejoin:round;stroke-miterlimit:10;" d="M76.5,77.4
			c-0.5-1.7,0.7-3.3,5.1-3.3c4.2,0,5.4,1.6,4.9,3.3"/>
		
			<line style="fill:none;stroke:#B9BBBC;stroke-linecap:round;stroke-linejoin:round;stroke-miterlimit:10;" x1="72.8" y1="66.5" x2="72.8" y2="71.5"/>
		
			<line style="fill:none;stroke:#B9BBBC;stroke-linecap:round;stroke-linejoin:round;stroke-miterlimit:10;" x1="70.3" y1="69" x2="75.3" y2="69"/>
	</g>
</g>
<g>
	<rect x="96.6" y="125.1" style="fill:none;" width="204.7" height="18.5"/>
	<g style="enable-background:new    ;">
		<path style="fill:#B9BBBC;" d="M102,131.2h-3.5l-1.2,3h-0.7l3.4-8.6h0.4l3.4,8.6h-0.7L102,131.2z M98.7,130.6h3.1l-1.2-3.1
			c-0.1-0.2-0.2-0.6-0.4-1c-0.1,0.4-0.2,0.7-0.3,1L98.7,130.6z"/>
		<path style="fill:#B9BBBC;" d="M107.2,127.7c0.5,0,0.9,0.1,1.2,0.3c0.3,0.2,0.6,0.5,0.9,0.9l0,0c0-0.5,0-1,0-1.4v-2.3h0.6v9.1
			h-0.4l-0.1-1l0,0c-0.5,0.7-1.2,1.1-2.1,1.1s-1.6-0.3-2-0.8s-0.7-1.3-0.7-2.4c0-1.1,0.2-1.9,0.7-2.5S106.4,127.7,107.2,127.7z
			 M107.2,128.2c-0.7,0-1.2,0.2-1.6,0.7s-0.5,1.2-0.5,2.1c0,1.8,0.7,2.7,2.1,2.7c0.7,0,1.2-0.2,1.6-0.6s0.5-1.1,0.5-2.1l0,0
			c0-1-0.2-1.7-0.5-2.1S108,128.2,107.2,128.2z"/>
		<path style="fill:#B9BBBC;" d="M114.4,127.7c0.5,0,0.9,0.1,1.2,0.3c0.3,0.2,0.6,0.5,0.9,0.9l0,0c0-0.5,0-1,0-1.4v-2.3h0.6v9.1
			h-0.4l-0.1-1l0,0c-0.5,0.7-1.2,1.1-2.1,1.1s-1.6-0.3-2-0.8s-0.7-1.3-0.7-2.4c0-1.1,0.2-1.9,0.7-2.5S113.5,127.7,114.4,127.7z
			 M114.4,128.2c-0.7,0-1.2,0.2-1.6,0.7s-0.5,1.2-0.5,2.1c0,1.8,0.7,2.7,2.1,2.7c0.7,0,1.2-0.2,1.6-0.6s0.5-1.1,0.5-2.1l0,0
			c0-1-0.2-1.7-0.5-2.1S115.1,128.2,114.4,128.2z"/>
		<path style="fill:#B9BBBC;" d="M126.3,132.5c0,0.6-0.2,1-0.7,1.3s-1,0.5-1.8,0.5c-0.9,0-1.5-0.1-2-0.4v-0.6c0.6,0.3,1.3,0.5,2,0.5
			c0.6,0,1.1-0.1,1.4-0.3s0.5-0.5,0.5-0.8s-0.1-0.6-0.4-0.8s-0.7-0.4-1.3-0.6c-0.6-0.2-1.1-0.4-1.3-0.6s-0.5-0.4-0.6-0.6
			s-0.2-0.5-0.2-0.8c0-0.5,0.2-0.9,0.6-1.1s1-0.4,1.7-0.4s1.3,0.1,2,0.4l-0.2,0.5c-0.6-0.3-1.2-0.4-1.7-0.4s-0.9,0.1-1.2,0.3
			s-0.5,0.4-0.5,0.7s0.1,0.6,0.4,0.8s0.7,0.4,1.4,0.7c0.6,0.2,1,0.4,1.3,0.6s0.5,0.4,0.6,0.6S126.3,132.3,126.3,132.5z"/>
		<path style="fill:#B9BBBC;" d="M128.4,127.8v4.1c0,0.6,0.1,1.1,0.4,1.4s0.7,0.4,1.3,0.4c0.8,0,1.3-0.2,1.7-0.6s0.5-1,0.5-1.9v-3.5
			h0.6v6.4h-0.6l-0.1-0.9l0,0c-0.4,0.7-1.2,1-2.2,1c-1.4,0-2.2-0.8-2.2-2.3v-4.2h0.6V127.8z"/>
		<path style="fill:#B9BBBC;" d="M137.7,127.7c0.9,0,1.6,0.3,2,0.8s0.7,1.4,0.7,2.5s-0.2,1.9-0.7,2.4s-1.1,0.9-2,0.9
			c-0.5,0-0.9-0.1-1.2-0.3s-0.7-0.5-0.9-0.8h-0.1l-0.2,1h-0.4v-9.1h0.6v2.3c0,0.3,0,0.7,0,0.9v0.5l0,0c0.2-0.4,0.5-0.7,0.9-0.8
			C136.8,127.9,137.2,127.7,137.7,127.7z M137.7,128.2c-0.8,0-1.3,0.2-1.6,0.6c-0.3,0.4-0.5,1.1-0.5,2.1v0.1c0,1,0.2,1.7,0.5,2.1
			s0.9,0.6,1.6,0.6s1.2-0.2,1.6-0.7c0.4-0.5,0.5-1.2,0.5-2.1C139.7,129.2,139,128.2,137.7,128.2z"/>
		<path style="fill:#B9BBBC;" d="M143.8,133.8c0.4,0,0.7,0,1-0.1v0.5c-0.3,0.1-0.6,0.1-1,0.1c-0.6,0-1-0.2-1.2-0.5s-0.4-0.8-0.4-1.4
			v-4.1h-0.9V128l0.9-0.3l0.3-1.4h0.3v1.5h1.9v0.5h-1.9v4c0,0.5,0.1,0.8,0.3,1.1C143.3,133.7,143.4,133.8,143.8,133.8z"/>
		<path style="fill:#B9BBBC;" d="M150,134.2l-0.1-1l0,0c-0.3,0.4-0.6,0.7-1,0.9s-0.7,0.3-1.2,0.3c-0.6,0-1.1-0.2-1.5-0.5
			s-0.5-0.8-0.5-1.3c0-0.6,0.3-1.1,0.8-1.4s1.3-0.5,2.2-0.5h1.2v-0.4c0-0.6-0.1-1.1-0.4-1.4s-0.6-0.5-1.2-0.5
			c-0.6,0-1.2,0.2-1.8,0.5l-0.2-0.5c0.7-0.3,1.4-0.5,2.1-0.5c0.7,0,1.2,0.2,1.6,0.5s0.5,0.9,0.5,1.7v4.2H150V134.2z M147.7,133.8
			c0.7,0,1.2-0.2,1.6-0.6s0.6-0.9,0.6-1.6V131h-1.1c-0.9,0-1.5,0.2-1.9,0.4s-0.6,0.6-0.6,1.1c0,0.4,0.1,0.7,0.4,0.9
			S147.2,133.8,147.7,133.8z"/>
		<path style="fill:#B9BBBC;" d="M156.4,132.5c0,0.6-0.2,1-0.7,1.3s-1,0.5-1.8,0.5c-0.9,0-1.5-0.1-2-0.4v-0.6c0.6,0.3,1.3,0.5,2,0.5
			c0.6,0,1.1-0.1,1.4-0.3s0.5-0.5,0.5-0.8s-0.1-0.6-0.4-0.8s-0.7-0.4-1.3-0.6c-0.6-0.2-1.1-0.4-1.3-0.6s-0.5-0.4-0.6-0.6
			s-0.2-0.5-0.2-0.8c0-0.5,0.2-0.9,0.6-1.1s1-0.4,1.7-0.4s1.3,0.1,2,0.4l-0.2,0.5c-0.6-0.3-1.2-0.4-1.7-0.4s-0.9,0.1-1.2,0.3
			s-0.5,0.4-0.5,0.7s0.1,0.6,0.4,0.8s0.7,0.4,1.4,0.7c0.6,0.2,1,0.4,1.3,0.6s0.5,0.4,0.6,0.6S156.4,132.3,156.4,132.5z"/>
		<path style="fill:#B9BBBC;" d="M158.7,131.4l3.3-3.6h0.7l-2.5,2.7l2.7,3.7h-0.7l-2.4-3.2l-1,0.9v2.3h-0.6v-9.1h0.6v4.6
			L158.7,131.4L158.7,131.4z"/>
	</g>
</g>
<g>
	<g>
		<path style="fill:#0067D0;" d="M78.4,40c5.5-4.1,7.6-9.9,9.3-16.3c-2-0.3-3.9-0.5-5.9-0.8c-1,9.5-2.9,18.9-4,28.3
			c-0.4,3.8,5.6,3.8,6,0c1-9.5,2.9-18.9,4-28.3c0.4-3.4-5-4-5.9-0.8c-1.2,4.7-2.5,9.8-6.5,12.8C72.4,37.2,75.3,42.4,78.4,40L78.4,40
			z"/>
	</g>
</g>
<g>
	<g>
		<path style="fill:#0067D0;" d="M123.4,32.5c0.2-3.6,6-1.3,3.9,2.7c-1,1.8-3.4,2.7-5.1,3.8c-2.9,1.8-6,4.6-6.8,8.1
			c-0.3,1.3,0.2,2.7,1.4,3.4c1.7,1.1,4.6,0.8,6.6,0.8c2.9,0,6,0,8.8-0.6c3.8-0.8,2.2-6.6-1.6-5.8c-2.1,0.3-4.3,0.3-6.4,0.3
			c-1.1,0-2.3-0.1-3.4-0.1c-0.4,0-1.9-0.4-1,0.1c0.5,1.1,0.9,2.3,1.4,3.4c1-4.5,7.7-5.8,10.4-9.1c2.5-3.1,3-7.6,0.9-10.9
			c-4.4-7-14.6-4.1-15,3.9C117.2,36.3,123.2,36.3,123.4,32.5L123.4,32.5z"/>
	</g>
</g>
<path style="fill:#0067D0;" d="M65.5,120.9c5-9.9,8-12.6,16-20.1c-3.2-0.1-6.3,0.4-9.3,1.2c-3.2,0.9-4.5-4-1.3-4.9
	c5.5-1.6,11.4-1.8,17.1-0.6c0.8,0.1,1.4,0.7,1.7,1.4c0.7,0.8,0.5,2.2-0.3,2.9l0,0c-2.3,2.7-3.3,10.2-2.4,13.5c0.9,3.4-4.2,4.7-5,1.6
	c-0.6-2.5-0.7-5-0.3-7.6c-5.6,6-6.8,6.6-10.6,13.8c-0.9,1.8-2.1,3.4-3.8,4.4C65.6,127.2,63,125.1,65.5,120.9z"/>
<g>
	<g>
		<path style="fill:#0067D0;" d="M407.9,33.9c-0.8,7.7-2.4,15.3-3.2,23c-0.4,3.8,5.6,3.8,6,0c0.8-7.7,2.4-15.3,3.2-23
			C414.4,30.1,408.4,30.1,407.9,33.9L407.9,33.9z"/>
	</g>
</g>
<g>
	<g>
		<path style="fill:#0067D0;" d="M44.9,153.2c0.1,4.1,3.1,8,7.5,8.3c4.3,0.3,7.8-2.9,9.4-6.6c2.4-5.5-0.4-9.5-5.5-11.7
			c-0.1-0.1-0.9-0.2-0.5-0.2c-0.1-0.1-0.3-0.1-0.5-0.2c-0.8,3.7-0.4,4.9,1,3.5c1.5-0.8,3-2.5,4.1-3.7c1.9-1.9,5.3-6.1,1.7-8.3
			c-1.8-1.1-4.9-0.8-7-0.8c-3,0-6.2-0.1-9.2,0.7c-3.7,0.9-2.2,6.7,1.6,5.8c2.2-0.5,4.6-0.5,6.9-0.5c1.1,0,2.3,0,3.4,0.1
			c0.4,0,1.2,0.2,1.6,0.1c0.6-0.1,0.3,0.3-0.3-0.2c-0.5-0.9-1-1.7-1.5-2.6c0.3-0.9,0.3-0.9-0.1-0.1c-0.3,0.4-0.7,0.8-1.1,1.2
			c-0.6,0.7-1.3,1.3-1.9,1.9c-1.1,1-2.9,1.9-3.7,3.2c-1.2,1.9-0.2,3.9,1.5,4.9c1.1,0.6,3.3,0.9,4,2.1c1.8,3-5.3,8.2-5.5,3
			C50.8,149.4,44.8,149.4,44.9,153.2L44.9,153.2z"/>
	</g>
</g>
<g>
	<g>
		<path style="fill:#0067D0;" d="M406.5,36.2c-0.1,0.2-0.3,0.4-0.4,0.6c-1.7-1-3.3-1.9-5-2.9c-0.8,2.4-1.5,4.7-2.3,7.1
			c-0.6,1.9-1.8,4.3-1.9,6.3c-0.2,4.9,5.8,4.2,9,4.2c3.9,0,3.9-6,0-6c-0.9,0-1.8,0-2.7,0c-0.4,0-0.7,0-1.1,0c-0.7-0.1-0.7,0,0,0.2
			c0.3,0.7,0.6,1.4,0.9,2.1c-0.1-1.6,1.3-4.2,1.8-5.7c0.7-2.2,1.4-4.4,2.1-6.6c0.9-2.9-3-5-5-2.9c-0.6,0.6-1,1.2-1.1,2
			C400.1,38.4,405.9,40,406.5,36.2L406.5,36.2z"/>
	</g>
</g>
<g>
	<g>
		<path style="fill:#0067D0;" d="M433.8,36.2c-0.5,2.3-0.7,4.7-0.9,7.1c-0.2,1.9,2.1,3.5,3.8,2.9c1.4-0.4,4-0.5,4.2,1.6
			c0.2,2.5-5.1,3.1-6.6,3.3c-3.8,0.5-2.2,6.3,1.6,5.8c5.3-0.7,12.4-4.1,10.8-10.7c-1.2-5.1-6.9-7.3-11.5-5.7c1.3,1,2.5,1.9,3.8,2.9
			c0.2-1.8,0.3-3.7,0.7-5.5C440.4,34,434.6,32.4,433.8,36.2L433.8,36.2z"/>
	</g>
</g>
<g>
	<g>
		<path style="fill:#0067D0;" d="M444.5,32c-2.4,0.6-5,0.2-7.5,0.4c-3.8,0.2-3.9,6.2,0,6c3.1-0.2,6.1,0.2,9.1-0.6
			C449.8,36.8,448.2,31.1,444.5,32L444.5,32z"/>
	</g>
</g>
<g>
	<g>
		<path style="fill:#0067D0;" d="M478.6,30.8C464,25.4,452.5,57.5,470,59c6.7,0.6,11.9-6.6,8.9-12.7c-3.3-6.7-11.8-6.3-15.7-0.5
			c-2.1,3.2,3.1,6.2,5.2,3c2.1-3.1,6.9-0.5,5.1,2.7c-2.2,3.9-6.2-0.2-6.4-3.1c-0.3-4.1,4.9-13.7,9.9-11.8
			C480.6,38,482.2,32.2,478.6,30.8L478.6,30.8z"/>
	</g>
</g>
<g>
	<g>
		<g>
			<path style="fill:#0067D0;" d="M207.5,158.7c2.2-1.2,4.2,0.1,6.4,0.6c2.5,0.5,4.8,0.3,7.3-0.3c-1.2-1.2-2.5-2.5-3.7-3.7
				c-2.2,9.6-7.6,18.7-9,28.3c-0.5,3.8,5.3,5.4,5.8,1.6c1.4-9.7,6.8-18.8,9-28.4c0.5-2.3-1.4-4.2-3.7-3.7c-5.5,1.3-9.8-2.7-15.1,0.3
				C201.1,155.4,204.1,160.5,207.5,158.7L207.5,158.7z"/>
		</g>
	</g>
	<g>
		<g>
			<path style="fill:#0067D0;" d="M205.4,174.9c1.2,2.1,4.1,1.6,6.1,1.5c2.1-0.1,4.2-0.3,6.3-0.3c3.9,0,3.9-6,0-6
				c-1.7,0-3.4,0.2-5.1,0.3c-1,0.1-2,0.1-2.9,0.1c-0.4,0-0.8,0-1.1,0c-0.7,0.1,0,0,0.1,0c0.6,0.5,1.2,0.9,1.8,1.4l0,0
				C208.7,168.5,203.5,171.5,205.4,174.9L205.4,174.9z"/>
		</g>
	</g>
</g>
<path style="fill:#0067D0;" d="M193.5,163.1c-9.9-5-12.6-8-20.1-16c-0.1,3.2,0.4,6.3,1.2,9.3c0.9,3.2-4,4.5-4.9,1.3
	c-1.6-5.5-1.8-11.4-0.6-17.1c0.1-0.8,0.7-1.4,1.4-1.7c0.8-0.7,2.2-0.5,2.9,0.3l0,0c2.7,2.3,10.2,3.3,13.5,2.4c3.4-0.9,4.7,4.2,1.6,5
	c-2.5,0.6-5,0.7-7.6,0.3c6,5.6,6.6,6.8,13.8,10.6c1.8,0.9,3.4,2.1,4.4,3.8C199.8,163,197.7,165.7,193.5,163.1z"/>
<g>
	<path style="fill:#B9BBBC;" d="M541.3,1v203H1V1H541.3 M542.3,0H0v205h542.3V0L542.3,0z"/>
</g>
</svg>
