<?xml version="1.0" encoding="utf-8"?>
<!-- Generator: Adobe Illustrator 19.2.1, SVG Export Plug-In . SVG Version: 6.00 Build 0)  -->
<svg version="1.1" id="Слой_1" xmlns="http://www.w3.org/2000/svg" xmlns:xlink="http://www.w3.org/1999/xlink" x="0px" y="0px"
	 viewBox="0 0 632.4 112.3" style="enable-background:new 0 0 632.4 112.3;" xml:space="preserve">
<g>
	<g>
		<path style="fill:#0067D0;" d="M384.9,78.5c7.6-5.1,12.2-10.8,14.6-19.7c-2.9-0.4-5.9-0.8-8.8-1.2c-1.3,11.8-4.9,23.2-6.3,35
			c-0.7,5.7,8.3,5.7,9,0c1.3-11.8,4.9-23.2,6.3-35c0.6-5.1-7.5-6-8.8-1.2c-1.9,6.7-4.8,10.5-10.6,14.3
			C375.6,73.9,380.1,81.7,384.9,78.5L384.9,78.5z"/>
	</g>
</g>
<g>
	<g>
		<path style="fill:#0067D0;" d="M443.5,67.9c0.2-6.2,9-2.6,7.1,3.3c-1.3,3.8-5.8,5.3-8.9,7.3c-4.1,2.7-12.8,9.6-10.3,15.5
			c1.7,3.8,7.3,3.3,10.7,3.3c5.1,0.1,10.4,0.2,15.4-0.9c5.6-1.3,3.3-10-2.4-8.7c-3.3,0.8-6.9,0.7-10.3,0.7c-1.7,0-3.4,0-5.1-0.1
			c-0.6,0-1.8-0.3-2.4-0.1c-0.9,0.2-0.4-0.4,0.5,0.3c0.7,1.3,1.5,2.6,2.2,3.9c-0.5,1.4-0.4,1.3,0.4-0.3c0.6-0.9,1.2-1.8,2-2.6
			c1.1-1.2,2.4-2.2,3.8-3.1c2.9-1.9,6.2-3.3,8.8-5.8c4.3-4.1,6.1-10.5,4-16.2c-4.8-13.1-24-10.4-24.6,3.6
			C434.3,73.7,443.3,73.7,443.5,67.9L443.5,67.9z"/>
	</g>
</g>
<g>
	<g>
		<path style="fill:#0067D0;" d="M554,85.9c0.2,6.2,4.6,11.9,11.2,12.4c6.4,0.4,11.6-4.3,14-9.9c3.6-8.3-0.6-14.2-8.2-17.5
			c-0.1-0.1-1.4-0.3-0.8-0.3c-0.2-0.1-0.5-0.2-0.7-0.3c-1.2,5.6-0.6,7.4,1.5,5.3c2.3-1.2,4.5-3.7,6.2-5.5c2.8-2.9,7.9-9.1,2.6-12.4
			c-2.7-1.7-7.4-1.2-10.5-1.2c-4.5,0-9.3-0.1-13.8,1c-5.6,1.3-3.3,10,2.4,8.7c3.3-0.8,6.9-0.7,10.3-0.7c1.7,0,3.4,0,5.1,0.1
			c0.6,0,1.8,0.3,2.4,0.1c0.9-0.2,0.4,0.4-0.5-0.3c-0.7-1.3-1.5-2.6-2.2-3.9c0.5-1.3,0.4-1.3-0.2-0.2c-0.5,0.6-1,1.2-1.6,1.8
			c-0.9,1-1.9,1.9-2.9,2.8c-1.7,1.5-4.3,2.9-5.5,4.8c-1.8,2.8-0.3,5.8,2.3,7.3c1.7,0.9,4.9,1.3,6,3.1c2.7,4.5-8,12.2-8.3,4.5
			C562.8,80.2,553.8,80.1,554,85.9L554,85.9z"/>
	</g>
</g>
<g>
	<path style="fill:#6EBAF9;" d="M85.4,37.2h-1.6l-8.5-8.7v8.7h-1.2V20.1h1.2v8.3l8.2-8.3h1.6l-8.3,8.3L85.4,37.2z"/>
	<path style="fill:#6EBAF9;" d="M98.1,30.9c0,2.1-0.5,3.7-1.5,4.9s-2.4,1.8-4.2,1.8c-1.1,0-2.1-0.3-3-0.8s-1.5-1.3-2-2.3
		s-0.7-2.2-0.7-3.5c0-2.1,0.5-3.7,1.5-4.9s2.4-1.7,4.1-1.7c1.8,0,3.1,0.6,4.1,1.8S98.1,28.8,98.1,30.9z M88,30.9
		c0,1.8,0.4,3.1,1.2,4.1s1.9,1.5,3.3,1.5S95,36,95.8,35s1.2-2.3,1.2-4.1c0-1.8-0.4-3.1-1.2-4.1s-1.9-1.5-3.3-1.5s-2.5,0.5-3.3,1.4
		S88,29.1,88,30.9z"/>
	<path style="fill:#6EBAF9;" d="M107,37.5c-2,0-3.4-0.7-4.3-2.2h-0.1v1c0,0.6,0,1.2,0,1.9V43h-1.2V24.5h1l0.2,1.8h0.1
		c0.9-1.4,2.3-2.1,4.2-2.1c1.7,0,3,0.6,3.9,1.7s1.4,2.8,1.4,4.9s-0.5,3.7-1.4,4.9S108.7,37.5,107,37.5z M107,36.4
		c1.3,0,2.3-0.5,3-1.5s1.1-2.3,1.1-4.1c0-3.7-1.4-5.6-4.1-5.6c-1.5,0-2.6,0.4-3.3,1.2s-1,2.1-1,4v0.4c0,2,0.3,3.4,1,4.3
		S105.5,36.4,107,36.4z"/>
	<path style="fill:#6EBAF9;" d="M118.3,30c2.3,0,3.5-0.8,3.5-2.4c0-0.8-0.3-1.3-0.8-1.7s-1.3-0.6-2.3-0.6c-0.6,0-1.2,0.1-1.7,0.2
		s-1.1,0.4-1.7,0.6l-0.4-1c1.4-0.6,2.7-0.9,4-0.9c1.4,0,2.4,0.3,3.2,0.9s1.1,1.4,1.1,2.4c0,1.5-0.8,2.4-2.3,2.8v0.1
		c0.9,0.2,1.6,0.6,2.1,1.2s0.6,1.2,0.6,2.1c0,1.2-0.4,2.1-1.3,2.8s-2.1,1-3.6,1c-0.8,0-1.6-0.1-2.3-0.2s-1.2-0.4-1.7-0.6v-1.2
		c0.8,0.4,1.5,0.6,2.1,0.8s1.2,0.2,1.9,0.2c1.2,0,2.1-0.2,2.7-0.7s1-1.2,1-2.1c0-0.9-0.3-1.5-0.9-2s-1.5-0.6-2.8-0.6h-1.8v-1h1.4V30
		z"/>
	<path style="fill:#6EBAF9;" d="M127.8,24.5v9.2l-0.1,2.4l7.6-11.6h1.5v12.7h-1.1V28v-2.5l-7.6,11.6h-1.5V24.5H127.8z"/>
	<path style="fill:#6EBAF9;" d="M142.3,24.5v5.6h8.1v-5.6h1.1v12.7h-1.1v-6.1h-8.1v6.1h-1.2V24.5H142.3z"/>
	<path style="fill:#6EBAF9;" d="M163.5,37.2l-0.3-2h-0.1c-0.6,0.8-1.3,1.4-2,1.7s-1.5,0.5-2.4,0.5c-1.3,0-2.2-0.3-2.9-1
		s-1-1.5-1-2.7s0.5-2.2,1.6-2.9s2.5-1.1,4.5-1.1l2.4-0.1V29c0-1.2-0.2-2.1-0.7-2.7s-1.3-0.9-2.4-0.9c-1.2,0-2.4,0.3-3.7,1l-0.4-1
		c1.4-0.7,2.8-1,4.1-1c1.4,0,2.4,0.4,3.1,1.1s1,1.9,1,3.4v8.5h-0.8V37.2z M158.8,36.4c1.4,0,2.4-0.4,3.2-1.2s1.2-1.9,1.2-3.2v-1.3
		l-2.2,0.1c-1.8,0.1-3.1,0.4-3.8,0.8s-1.1,1.2-1.1,2.2c0,0.8,0.2,1.4,0.7,1.9S157.9,36.4,158.8,36.4z"/>
	<path style="fill:#6EBAF9;" d="M185.1,41.6H184v-4.3h-9.8v4.3h-1.1v-5.4h0.8c1.1-1.5,1.9-3.2,2.5-5.2s0.9-4.1,0.9-6.4h6.1v11.6h1.7
		L185.1,41.6L185.1,41.6z M182.3,36.1V25.6h-4c-0.2,4.2-1.2,7.7-3.1,10.6h7.1V36.1z"/>
	<path style="fill:#6EBAF9;" d="M196.6,37.2h-1.1V25.6H191c-0.2,3.1-0.5,5.4-0.9,7.1s-0.8,2.8-1.3,3.6s-1.2,1.1-2.1,1.1
		c-0.3,0-0.6,0-0.8-0.1v-1.1c0.1,0,0.4,0.1,0.6,0.1c0.9,0,1.6-0.9,2.1-2.8s1-4.9,1.2-9h6.7v12.7H196.6z"/>
	<path style="fill:#6EBAF9;" d="M200.7,37.2h-1.5l3.8-5.5c-1.2-0.2-2-0.6-2.5-1.2s-0.8-1.4-0.8-2.3c0-1.2,0.4-2.1,1.2-2.7
		s1.8-1,3.1-1h5.3v12.7h-1.1v-5.4h-3.9L200.7,37.2z M201,28.2c0,0.9,0.3,1.5,0.8,2s1.4,0.6,2.6,0.6h3.8v-5.2h-4.1
		c-1,0-1.7,0.2-2.3,0.7S201,27.3,201,28.2z"/>
	<path style="fill:#6EBAF9;" d="M218.7,30.9l3.6-4.6l0.7,0.5l-3,4.3l3,4.2l-0.7,0.5l-3.6-4.6V30.9z M222.9,30.9l3.6-4.6l0.7,0.5
		l-3,4.3l3,4.2l-0.7,0.5l-3.6-4.6V30.9z"/>
	<path style="fill:#6EBAF9;" d="M238,37.2l-6.4-15.8h-0.1c0.1,1,0.1,2,0.1,3v12.8h-1.1V20.1h1.9l6.1,15.1h0.1l6.1-15.1h1.8v17.1
		h-1.2v-13c0-0.9,0-1.8,0.1-2.8h-0.1l-6.4,15.8H238z"/>
	<path style="fill:#6EBAF9;" d="M261.5,30.9c0,2.1-0.5,3.7-1.5,4.9s-2.4,1.8-4.2,1.8c-1.1,0-2.1-0.3-3-0.8s-1.5-1.3-2-2.3
		s-0.7-2.2-0.7-3.5c0-2.1,0.5-3.7,1.5-4.9s2.4-1.7,4.1-1.7c1.8,0,3.1,0.6,4.1,1.8S261.5,28.8,261.5,30.9z M251.4,30.9
		c0,1.8,0.4,3.1,1.2,4.1s1.9,1.5,3.3,1.5c1.4,0,2.5-0.5,3.3-1.5s1.2-2.3,1.2-4.1c0-1.8-0.4-3.1-1.2-4.1s-1.9-1.5-3.3-1.5
		s-2.5,0.5-3.3,1.4S251.4,29.1,251.4,30.9z"/>
	<path style="fill:#6EBAF9;" d="M266.1,24.5v9.2l-0.1,2.4l7.6-11.6h1.5v12.7H274V28v-2.5l-7.6,11.6H265V24.5H266.1z M270.1,22.7
		c-1.2,0-2.1-0.3-2.7-0.8s-1-1.4-1.1-2.5h1c0.1,0.9,0.4,1.5,0.8,1.8s1.1,0.5,1.9,0.5c0.9,0,1.5-0.2,1.9-0.6s0.7-1,0.8-1.8h1
		C273.6,21.6,272.4,22.7,270.1,22.7z"/>
	<path style="fill:#6EBAF9;" d="M298.2,37.2H297v-16h-9.9v16h-1.2V20.1h12.3L298.2,37.2L298.2,37.2z"/>
	<path style="fill:#6EBAF9;" d="M308.2,37.5c-2,0-3.4-0.7-4.3-2.2h-0.1v1c0,0.6,0,1.2,0,1.9V43h-1.2V24.5h1l0.2,1.8h0.1
		c0.9-1.4,2.3-2.1,4.2-2.1c1.7,0,3,0.6,3.9,1.7s1.4,2.8,1.4,4.9s-0.5,3.7-1.4,4.9S309.8,37.5,308.2,37.5z M308.2,36.4
		c1.3,0,2.3-0.5,3-1.5s1.1-2.3,1.1-4.1c0-3.7-1.4-5.6-4.1-5.6c-1.5,0-2.6,0.4-3.3,1.2s-1,2.1-1,4v0.4c0,2,0.3,3.4,1,4.3
		S306.7,36.4,308.2,36.4z"/>
	<path style="fill:#6EBAF9;" d="M327.6,30.9c0,2.1-0.5,3.7-1.5,4.9s-2.4,1.8-4.2,1.8c-1.1,0-2.1-0.3-3-0.8s-1.5-1.3-2-2.3
		s-0.7-2.2-0.7-3.5c0-2.1,0.5-3.7,1.5-4.9s2.4-1.7,4.1-1.7c1.8,0,3.1,0.6,4.1,1.8S327.6,28.8,327.6,30.9z M317.5,30.9
		c0,1.8,0.4,3.1,1.2,4.1s1.9,1.5,3.3,1.5s2.5-0.5,3.3-1.5s1.2-2.3,1.2-4.1c0-1.8-0.4-3.1-1.2-4.1s-1.9-1.5-3.3-1.5s-2.5,0.5-3.3,1.4
		S317.5,29.1,317.5,30.9z"/>
	<path style="fill:#6EBAF9;" d="M336.2,37.5c-1.9,0-3.3-0.6-4.3-1.7s-1.6-2.7-1.6-4.8c0-2,0.5-3.7,1.5-4.9s2.3-1.8,4-1.8
		c1.5,0,2.7,0.5,3.6,1.6s1.3,2.5,1.3,4.3V31h-9.2c0,1.8,0.4,3.1,1.2,4s1.9,1.4,3.4,1.4c0.7,0,1.4-0.1,1.9-0.2s1.2-0.3,2.1-0.7v1.1
		c-0.7,0.3-1.4,0.5-2,0.6S337,37.5,336.2,37.5z M335.9,25.3c-1.2,0-2.2,0.4-3,1.2s-1.2,2-1.3,3.5h7.9c0-1.5-0.3-2.6-1-3.5
		S337,25.3,335.9,25.3z"/>
	<path style="fill:#6EBAF9;" d="M351.2,24.5h1.4l-5.7,6.2l6.1,6.6h-1.6l-6-6.5v6.5h-1.2V24.5h1.2v6.2L351.2,24.5z"/>
	<path style="fill:#6EBAF9;" d="M363.4,25.5h-4.2v11.7H358V25.5h-4.3v-1h9.7L363.4,25.5L363.4,25.5z"/>
	<path style="fill:#6EBAF9;" d="M369,31.2l-3.6,4.6l-0.7-0.5l3-4.2l-3-4.3l0.7-0.5l3.6,4.6V31.2z M373.3,31.2l-3.6,4.6l-0.7-0.5
		l3-4.2l-3-4.3l0.7-0.5l3.6,4.6V31.2z"/>
</g>
<line style="fill:none;stroke:#69BFFF;stroke-width:2;stroke-linecap:round;stroke-linejoin:round;stroke-miterlimit:10;" x1="27.7" y1="38" x2="19.6" y2="30"/>
<line style="fill:none;stroke:#69BFFF;stroke-width:2;stroke-linecap:round;stroke-linejoin:round;stroke-miterlimit:10;" x1="20" y1="30.3" x2="42" y2="30.3"/>
<line style="fill:none;stroke:#69BFFF;stroke-width:2;stroke-linecap:round;stroke-linejoin:round;stroke-miterlimit:10;" x1="19.6" y1="30.1" x2="27.6" y2="22"/>
<g>
	
		<line style="fill:none;stroke:#69BFFF;stroke-width:2;stroke-linecap:round;stroke-linejoin:round;stroke-miterlimit:10;" x1="390" y1="21" x2="407" y2="21"/>
	<path style="fill:#69BFFF;stroke:#69BFFF;stroke-width:2;stroke-linecap:round;stroke-linejoin:round;stroke-miterlimit:10;" d="
		M407.6,27c0-2.1-1.4-3-3.6-3h-11.4c-2.2,0-3.6,0.8-3.6,3l1.1,8.8c0.5,3.2,2.5,4.3,3.9,4.3h8.5c1.4,0,3.5-0.1,4-4.4L407.6,27z"/>
	<path style="fill:#FFFFFF;stroke:#69BFFF;stroke-width:2;stroke-linecap:round;stroke-linejoin:round;stroke-miterlimit:10;" d="
		M400.8,20.1c0-1.4-1.1-2.5-2.5-2.5s-2.5,1.1-2.5,2.5"/>
	
		<line style="fill:none;stroke:#FFFFFF;stroke-width:2;stroke-linecap:round;stroke-linejoin:round;stroke-miterlimit:10;" x1="402" y1="28" x2="395.2" y2="35"/>
	
		<line style="fill:none;stroke:#FFFFFF;stroke-width:2;stroke-linecap:round;stroke-linejoin:round;stroke-miterlimit:10;" x1="395" y1="28.1" x2="402" y2="35"/>
	<g>
		
			<line style="fill:none;stroke:#69BFFF;stroke-width:2;stroke-linecap:round;stroke-linejoin:round;stroke-miterlimit:10;" x1="440" y1="21.3" x2="457" y2="21.3"/>
		<path style="fill:#69BFFF;stroke:#69BFFF;stroke-width:2;stroke-linecap:round;stroke-linejoin:round;stroke-miterlimit:10;" d="
			M457.6,26.7c0-2.1-1.4-2.4-3.6-2.4h-11.4c-2.2,0-3.6,0.2-3.6,2.3l1.1,9.3c0.5,3.2,2.5,4.4,3.9,4.4h8.5c1.4,0,3.5-0.2,4-4.5
			L457.6,26.7z"/>
		<path style="fill:#FFFFFF;stroke:#69BFFF;stroke-width:2;stroke-linecap:round;stroke-linejoin:round;stroke-miterlimit:10;" d="
			M450.8,20.1c0-1.4-1.1-2.5-2.5-2.5s-2.5,1.1-2.5,2.5"/>
		
			<line style="fill:none;stroke:#FFFFFF;stroke-width:2;stroke-linecap:round;stroke-linejoin:round;stroke-miterlimit:10;" x1="449" y1="28.3" x2="445" y2="28.3"/>
		
			<line style="fill:none;stroke:#FFFFFF;stroke-width:2;stroke-linecap:round;stroke-linejoin:round;stroke-miterlimit:10;" x1="445" y1="28.1" x2="452" y2="35"/>
		
			<line style="fill:none;stroke:#FFFFFF;stroke-width:2;stroke-linecap:round;stroke-linejoin:round;stroke-miterlimit:10;" x1="445" y1="32.3" x2="445" y2="28.3"/>
	</g>
</g>
<g id="info_17_">
	
		<line style="fill:none;stroke:#70B9F6;stroke-width:2;stroke-linecap:round;stroke-linejoin:round;stroke-miterlimit:10;" x1="618" y1="19.3" x2="618" y2="32.3"/>
	<circle style="fill:#70B9F6;" cx="618.1" cy="15" r="1.5"/>
</g>
<g>
	
		<polyline style="fill:none;stroke:#70B9F6;stroke-width:2;stroke-linecap:round;stroke-linejoin:round;stroke-miterlimit:10;" points="
		573.6,31.7 566.1,14.7 566.1,14.7 558.6,31.7 	"/>
	
		<line style="fill:none;stroke:#70B9F6;stroke-width:2;stroke-linecap:round;stroke-linejoin:round;stroke-miterlimit:10;" x1="561" y1="27.3" x2="571" y2="27.3"/>
	
		<polyline style="fill:none;stroke:#70B9F6;stroke-width:2;stroke-linecap:round;stroke-linejoin:round;stroke-miterlimit:10;" points="
		578,19.3 585.9,19.3 577.3,31.3 586,31.3 	"/>
</g>
</svg>
