<?xml version="1.0" encoding="utf-8"?>
<!-- Generator: Adobe Illustrator 19.2.1, SVG Export Plug-In . SVG Version: 6.00 Build 0)  -->
<svg version="1.1" id="Layer_1" xmlns="http://www.w3.org/2000/svg" xmlns:xlink="http://www.w3.org/1999/xlink" x="0px" y="0px"
	 viewBox="0 0 100 100" style="enable-background:new 0 0 100 100;" xml:space="preserve">
<g id="_x30_9_3_">
	<circle id="SVGID_69_" style="fill:#F2F2F2;stroke:#828282;stroke-miterlimit:10;" cx="50" cy="50" r="49.5"/>
	<line style="fill:none;stroke:#828282;stroke-miterlimit:10;" x1="35.3" y1="84.6" x2="65.9" y2="84.6"/>
	<line style="fill:none;stroke:#828282;stroke-miterlimit:10;" x1="17.4" y1="28.5" x2="22.6" y2="71.8"/>
	<line style="fill:none;stroke:#828282;stroke-miterlimit:10;" x1="83.8" y1="28.5" x2="78.7" y2="71.8"/>
	<path style="fill:none;stroke:#828282;stroke-miterlimit:10;" d="M22.6,71.8c2.5,12.8,7.6,12.8,12.8,12.8"/>
	<path style="fill:none;stroke:#828282;stroke-miterlimit:10;" d="M78.7,71.8C76.1,84.6,71,84.6,65.9,84.6"/>
	<path style="fill:none;stroke:#828282;stroke-miterlimit:10;" d="M83.8,28.5c0-7.7-5-7.7-12.8-7.7H30.2c-7.8,0-12.8,0-12.8,7.7"/>
	<path style="fill:none;stroke:#828282;stroke-miterlimit:10;" d="M61.2,44c1.2-1.2,2.9-2,4.6-2c1.8,0,3.4,0.8,4.7,2.1"/>
	<path style="fill:none;stroke:#828282;stroke-miterlimit:10;" d="M63.8,55.4c-3.3,3.3-7.5,5.1-12.2,5.1c-4.5,0-8.9-2.1-12.4-5.4"/>
	<ellipse style="fill:none;stroke:#828282;stroke-miterlimit:10;" cx="37.8" cy="44.8" rx="3.8" ry="3.4"/>
	<path style="fill:none;stroke:#828282;stroke-miterlimit:10;" d="M44.3,69c-17.5-2.9-30.8-18-30.8-36.3h4.4"/>
	<path style="fill:none;stroke:#828282;stroke-miterlimit:10;" d="M83.3,32.7h3.8C87.1,50.9,74,65.9,56.7,69"/>
	<path style="fill:#97CFFD;stroke:#828282;stroke-miterlimit:10;" d="M58.5,21v13.6c0,1.8-1.5,3.3-3.3,3.3s-3.3-1.5-3.3-3.3V21H58.5
		z"/>
	<path style="fill:#97CFFD;stroke:#828282;stroke-miterlimit:10;" d="M26.2,21.2v8.1c0,1.8,1.5,3.3,3.3,3.3s3.3-1.5,3.3-3.3v4.1
		c0,1.8,1.5,3.3,3.3,3.3c1.8,0,3.3-1.5,3.3-3.3v-7.6c0.6,1,1.6,1.7,2.9,1.7c1.8,0,3.3-1.5,3.3-3.3V21L26.2,21.2z"/>
	<path style="fill:none;stroke:#828282;stroke-miterlimit:10;" d="M54.5,71.8h-7.9c-1.3,0-2.3-1-2.3-2.3l0,0c0-1.3,1-2.3,2.3-2.3
		h7.9c1.3,0,2.3,1,2.3,2.3l0,0C56.8,70.8,55.8,71.8,54.5,71.8z"/>
</g>
</svg>
