<?xml version="1.0" encoding="utf-8"?>
<!-- Generator: Adobe Illustrator 19.2.1, SVG Export Plug-In . SVG Version: 6.00 Build 0)  -->
<svg version="1.1" id="Layer_1" xmlns="http://www.w3.org/2000/svg" xmlns:xlink="http://www.w3.org/1999/xlink" x="0px" y="0px"
	 viewBox="0 0 100 100" style="enable-background:new 0 0 100 100;" xml:space="preserve">
<g id="_x30_7_3_">
	<circle id="SVGID_65_" style="fill:#F2F2F2;stroke:#828282;stroke-miterlimit:10;" cx="50" cy="50" r="49.5"/>
	<line style="fill:none;stroke:#828282;stroke-miterlimit:10;" x1="49.9" y1="17.6" x2="49.9" y2="10.4"/>
	<line style="fill:none;stroke:#828282;stroke-miterlimit:10;" x1="49.9" y1="48.8" x2="49.9" y2="31.5"/>
	<ellipse style="fill:#F2F2F2;stroke:#828282;stroke-miterlimit:10;" cx="39.4" cy="62.4" rx="3.5" ry="4.5"/>
	<ellipse style="fill:#F2F2F2;stroke:#828282;stroke-miterlimit:10;" cx="60.3" cy="62.4" rx="3.5" ry="4.5"/>
	<path style="fill:none;stroke:#828282;stroke-miterlimit:10;" d="M56.6,77.7c-1.8,1.8-4.1,2.8-6.7,2.8c-2.5,0-4.9-1.2-6.9-3"/>
	<path style="fill:none;stroke:#828282;stroke-miterlimit:10;" d="M49.9,90.6L49.9,90.6c-13.7,0-24.8-11.1-24.8-24.8V35.1
		c0-13.7,11.1-24.8,24.8-24.8l0,0c13.7,0,24.7,11.1,24.7,24.8v30.7C74.6,79.5,63.5,90.6,49.9,90.6z"/>
	<path style="fill:#97CFFD;stroke:#828282;stroke-miterlimit:10;" d="M49.8,31.5L49.8,31.5c-2.2,0-4-1.8-4-4v-5.5c0-2.2,1.8-4,4-4
		l0,0c2.2,0,4,1.8,4,4v5.5C53.8,29.7,52,31.5,49.8,31.5z"/>
</g>
</svg>
