<?xml version="1.0" encoding="utf-8"?>
<!-- Generator: Adobe Illustrator 19.2.1, SVG Export Plug-In . SVG Version: 6.00 Build 0)  -->
<svg version="1.1" id="Layer_1" xmlns="http://www.w3.org/2000/svg" xmlns:xlink="http://www.w3.org/1999/xlink" x="0px" y="0px"
	 viewBox="0 0 100 100" style="enable-background:new 0 0 100 100;" xml:space="preserve">
<g id="_x31_0_1_">
	<circle id="SVGID_71_" style="fill:#F2F2F2;stroke:#828282;stroke-miterlimit:10;" cx="50" cy="50" r="49.5"/>
	<circle style="fill:none;" cx="50" cy="50" r="49.5"/>
	<path style="fill:none;stroke:#828282;stroke-miterlimit:10;" d="M58.4,59c1-1,2.3-1.6,3.6-1.6c1.4,0,2.7,0.6,3.8,1.7"/>
	<path style="fill:none;stroke:#828282;stroke-miterlimit:10;" d="M36,59c1-1,2.3-1.6,3.6-1.6c1.4,0,2.7,0.6,3.8,1.7"/>
	<path style="fill:none;stroke:#828282;stroke-miterlimit:10;" d="M60.5,71.1c-2.6,2.6-5.9,4.1-9.6,4.1c-3.5,0-7.1-1.7-9.9-4.3"/>
	<path style="fill:#97CFFD;stroke:#828282;stroke-miterlimit:10;" d="M64.5,17c-3.3-0.6-6-1.7-7-2.7l0,27.6h10.7L72.8,16
		C72.6,17.3,68.9,17.7,64.5,17z"/>
	<line style="fill:none;stroke:#828282;stroke-miterlimit:10;" x1="46.9" y1="24.1" x2="46.9" y2="15.6"/>
	<ellipse style="fill:none;stroke:#828282;stroke-miterlimit:10;" cx="38.9" cy="15.6" rx="8" ry="2.4"/>
	<ellipse style="fill:none;stroke:#828282;stroke-miterlimit:10;" cx="49.5" cy="6" rx="8" ry="2.4"/>
	<path style="fill:none;stroke:#828282;stroke-miterlimit:10;" d="M57.5,12.6c1.2-0.8,4.3-0.9,7.8-0.3c4.4,0.8,7.7,2.4,7.5,3.7
		c-0.2,1.3-4,1.7-8.3,0.9c-3.3-0.6-6-1.7-7-2.7"/>
	<path style="fill:#97CFFD;stroke:#828282;stroke-miterlimit:10;" d="M30.8,15.6v25.9L52,41.6V24.1C52,24.1,33.2,25.4,30.8,15.6"/>
	<line style="fill:none;stroke:#828282;stroke-miterlimit:10;" x1="57.5" y1="41.8" x2="57.5" y2="6.5"/>
	<line style="fill:none;stroke:#828282;stroke-miterlimit:10;" x1="72.6" y1="16.7" x2="68.2" y2="41.8"/>
	<line style="fill:none;stroke:#828282;stroke-miterlimit:10;" x1="41.4" y1="6" x2="41.4" y2="13.1"/>
	<line style="fill:none;stroke:#828282;stroke-miterlimit:10;" x1="37.9" y1="92.7" x2="62.1" y2="92.7"/>
	<line style="fill:none;stroke:#828282;stroke-miterlimit:10;" x1="23.7" y1="48.2" x2="27.8" y2="82.6"/>
	<line style="fill:none;stroke:#828282;stroke-miterlimit:10;" x1="76.3" y1="48.2" x2="72.2" y2="82.6"/>
	<path style="fill:none;stroke:#828282;stroke-miterlimit:10;" d="M27.8,82.6c2,10.1,6.1,10.1,10.1,10.1"/>
	<path style="fill:none;stroke:#828282;stroke-miterlimit:10;" d="M72.2,82.6c-2,10.1-6.1,10.1-10.1,10.1"/>
	<path style="fill:none;stroke:#828282;stroke-miterlimit:10;" d="M76.3,48.2c0-6.1-4-6.1-10.1-6.1H33.8c-6.1,0-10.1,0-10.1,6.1"/>
</g>
</svg>
