<?xml version="1.0" encoding="utf-8"?>
<!-- Generator: Adobe Illustrator 19.2.1, SVG Export Plug-In . SVG Version: 6.00 Build 0)  -->
<svg version="1.1" id="Layer_1" xmlns="http://www.w3.org/2000/svg" xmlns:xlink="http://www.w3.org/1999/xlink" x="0px" y="0px"
	 viewBox="0 0 100 100" style="enable-background:new 0 0 100 100;" xml:space="preserve">
<g id="SVGID_57_">
	<path style="fill:#F2F2F2;" d="M50,99.5C22.7,99.5,0.5,77.3,0.5,50C0.5,22.7,22.7,0.5,50,0.5c27.3,0,49.5,22.2,49.5,49.5
		C99.5,77.3,77.3,99.5,50,99.5z"/>
	<path style="fill:#828282;" d="M50,1c27,0,49,22,49,49S77,99,50,99S1,77,1,50S23,1,50,1 M50,0C22.4,0,0,22.4,0,50s22.4,50,50,50
		s50-22.4,50-50S77.6,0,50,0L50,0z"/>
</g>
<ellipse style="fill:#F2F2F2;stroke:#828282;stroke-miterlimit:10;" cx="33.6" cy="57.3" rx="3.8" ry="3.7"/>
<ellipse style="fill:#F2F2F2;stroke:#828282;stroke-miterlimit:10;" cx="65.2" cy="57.3" rx="3.8" ry="3.7"/>
<path style="fill:none;stroke:#828282;stroke-miterlimit:10;" d="M54.2,59.1c-1.4,1.3-3.1,2.1-4.8,2.1c-1.8,0-3.4-0.7-4.7-2"/>
<path style="fill:#97CFFD;stroke:#828282;stroke-miterlimit:10;" d="M28.7,50.4C30.6,40.5,39.2,33,49.6,33s19.1,7.5,20.9,17.4h18.5
	c-2-20.1-18.9-35.8-39.5-35.8S12.1,30.3,10.2,50.4H28.7z"/>
<rect x="6" y="50.4" style="fill:none;stroke:#828282;stroke-miterlimit:10;" width="87.3" height="18.3"/>
<line style="fill:none;stroke:#828282;stroke-miterlimit:10;" x1="49.6" y1="15" x2="49.6" y2="23.6"/>
<line style="fill:none;stroke:#828282;stroke-miterlimit:10;" x1="17.7" y1="59.5" x2="17.7" y2="68.2"/>
<line style="fill:none;stroke:#828282;stroke-miterlimit:10;" x1="28.7" y1="64.3" x2="28.7" y2="68.5"/>
<line style="fill:none;stroke:#828282;stroke-miterlimit:10;" x1="63.5" y1="17.9" x2="61.3" y2="21.5"/>
<line style="fill:none;stroke:#828282;stroke-miterlimit:10;" x1="37.9" y1="21.5" x2="35.9" y2="17.9"/>
<line style="fill:none;stroke:#828282;stroke-miterlimit:10;" x1="70.9" y1="64.3" x2="70.9" y2="68.5"/>
<line style="fill:none;stroke:#828282;stroke-miterlimit:10;" x1="81" y1="59.5" x2="81" y2="68.2"/>
<line style="fill:none;stroke:#828282;stroke-miterlimit:10;" x1="75" y1="24.1" x2="68.9" y2="30.2"/>
<line style="fill:none;stroke:#828282;stroke-miterlimit:10;" x1="24.7" y1="24.6" x2="30.8" y2="30.7"/>
</svg>
