<?xml version="1.0" encoding="utf-8"?>
<!-- Generator: Adobe Illustrator 19.2.1, SVG Export Plug-In . SVG Version: 6.00 Build 0)  -->
<svg version="1.1" id="Layer_1" xmlns="http://www.w3.org/2000/svg" xmlns:xlink="http://www.w3.org/1999/xlink" x="0px" y="0px"
	 viewBox="0 0 100 100" style="enable-background:new 0 0 100 100;" xml:space="preserve">
<g id="_x31_2_3_">
	<circle id="SVGID_75_" style="fill:#F2F2F2;stroke:#828282;stroke-miterlimit:10;" cx="50" cy="50" r="49.5"/>
	<path style="fill:#97CFFD;stroke:#828282;stroke-miterlimit:10;" d="M54.2,51.3v35.3c0,3.4-0.3,6.5-2.6,8.9L51,96.1l-0.5-0.5
		c-2.4-2.4-2.6-5.5-2.6-8.9l0-35.3L54.2,51.3z"/>
	<path style="fill:#F2F2F2;stroke:#828282;stroke-miterlimit:10;" d="M56.5,9.9l5.7,23.6c-3.5-1.2-7.3-1.8-11.1-1.8
		c-3.9,0-7.6,0.6-11.1,1.8l5.7-23.6L56.5,9.9z"/>
	<path style="fill:#F2F2F2;stroke:#828282;stroke-miterlimit:10;" d="M51,31.6c9.5,0,18.2,4.1,24.3,11c3,3.4,0.5,8.7-4,8.7l-40.6,0
		c-4.5,0-7-5.3-4-8.7C32.8,35.8,41.6,31.6,51,31.6z"/>
	<path style="fill:#F2F2F2;stroke:#828282;stroke-miterlimit:10;" d="M51,5.1c3.3,0,6.4,0.9,8.5,2.5c1,0.8,0.2,2-1.4,2L44,9.5
		c-1.6,0-2.4-1.2-1.4-2C44.7,6,47.8,5.1,51,5.1z"/>
	<ellipse style="fill:#F2F2F2;stroke:#828282;stroke-miterlimit:10;" cx="41.4" cy="40.9" rx="3" ry="2.7"/>
	<ellipse style="fill:#F2F2F2;stroke:#828282;stroke-miterlimit:10;" cx="60.6" cy="40.9" rx="3" ry="2.7"/>
	<path style="fill:#F2F2F2;stroke:#828282;stroke-miterlimit:10;" d="M54.7,46.8c-1,0.9-2.3,1.4-3.7,1.4c-1.3,0-2.7-0.6-3.7-1.5"/>
</g>
</svg>
