<?xml version="1.0" encoding="utf-8"?>
<!-- Generator: Adobe Illustrator 19.2.1, SVG Export Plug-In . SVG Version: 6.00 Build 0)  -->
<svg version="1.1" id="Layer_1" xmlns="http://www.w3.org/2000/svg" xmlns:xlink="http://www.w3.org/1999/xlink" x="0px" y="0px"
	 viewBox="0 0 100 100" style="enable-background:new 0 0 100 100;" xml:space="preserve">
<g id="_x30_8_3_">
	<circle id="SVGID_67_" style="fill:#F2F2F2;stroke:#828282;stroke-miterlimit:10;" cx="50" cy="50" r="49.5"/>
	<polyline style="fill:#F2F2F2;stroke:#828282;stroke-miterlimit:10;" points="15,84.1 15,23.4 84.6,23.4 84.6,84.1 	"/>
	<line style="fill:#F2F2F2;stroke:#828282;stroke-miterlimit:10;" x1="15" y1="40.8" x2="84.6" y2="40.8"/>
	<path style="fill:#F2F2F2;stroke:#828282;stroke-miterlimit:10;" d="M78.4,23.3v-3.1c0-2.3-1.9-4.1-4.1-4.1c-2.3,0-4.1,1.9-4.1,4.1
		v6.2c0,2.3,1.9,4.1,4.1,4.1"/>
	<path style="fill:#F2F2F2;stroke:#828282;stroke-miterlimit:10;" d="M66.8,23.3v-3.1c0-2.3-1.9-4.1-4.1-4.1c-2.3,0-4.1,1.9-4.1,4.1
		v6.2c0,2.3,1.9,4.1,4.1,4.1"/>
	<path style="fill:#F2F2F2;stroke:#828282;stroke-miterlimit:10;" d="M55.2,23.3v-3.1c0-2.3-1.9-4.1-4.1-4.1c-2.3,0-4.1,1.9-4.1,4.1
		v6.2c0,2.3,1.9,4.1,4.1,4.1"/>
	<path style="fill:#F2F2F2;stroke:#828282;stroke-miterlimit:10;" d="M43.7,23.3v-3.1c0-2.3-1.9-4.1-4.1-4.1c-2.3,0-4.1,1.9-4.1,4.1
		v6.2c0,2.3,1.9,4.1,4.1,4.1"/>
	<path style="fill:#F2F2F2;stroke:#828282;stroke-miterlimit:10;" d="M32.2,23.3v-3.1c0-2.3-1.9-4.1-4.1-4.1c-2.3,0-4.1,1.9-4.1,4.1
		v6.2c0,2.3,1.9,4.1,4.1,4.1"/>
	<ellipse style="fill:#F2F2F2;stroke:#828282;stroke-miterlimit:10;" cx="33" cy="63.2" rx="5.4" ry="5.3"/>
	<ellipse style="fill:#F2F2F2;stroke:#828282;stroke-miterlimit:10;" cx="67.6" cy="63.2" rx="5.4" ry="5.3"/>
	<path style="fill:#F2F2F2;stroke:#828282;stroke-miterlimit:10;" d="M63.4,81.3c-3.8,3.5-8.5,5.7-13.2,5.7c-5,0-9.5-2-13-5.5"/>
	<path style="fill:#97CFFD;stroke:#828282;stroke-miterlimit:10;" d="M79.5,61.7c1.2,0,2.3-0.9,2.3-2.1c0-1.2-1.4-2.1-3-2.2
		l-4.3-0.1c-1.6-0.1-3-0.9-3.1-2c-0.1-1-1.5-1.9-3.1-1.9H57.8c-1.6,0-3,0.9-3,2.1c0,1.2,1.4,2.1,3,2.1h0.5c1.6,0,3,0.9,3,1.9
		c0,1-1.4,1.9-3,1.9H53c-1.6,0-3,0.9-3,2.1c0,1.2,1.4,2.1,3,2.1l5.3,0.1c1.6,0,3,1.4,3,3v2.1c0,1.6,1.4,3,3,3h1.1c1.6,0,3-0.9,3-2.1
		c0-1.2,1.4-2.1,3-2.1h2.9c1.6,0,3-1.4,3-3v-2.1C77.3,63.1,78.3,61.7,79.5,61.7z"/>
</g>
</svg>
