<?xml version="1.0" encoding="utf-8"?>
<!-- Generator: Adobe Illustrator 19.2.1, SVG Export Plug-In . SVG Version: 6.00 Build 0)  -->
<svg version="1.1" id="Layer_1" xmlns="http://www.w3.org/2000/svg" xmlns:xlink="http://www.w3.org/1999/xlink" x="0px" y="0px"
	 viewBox="0 0 100 100" style="enable-background:new 0 0 100 100;" xml:space="preserve">
<g id="_x30_2_2_">
	<g id="SVGID_55_">
		<path style="fill:#F2F2F2;" d="M50,99.5C22.7,99.5,0.5,77.3,0.5,50C0.5,22.7,22.7,0.5,50,0.5c27.3,0,49.5,22.2,49.5,49.5
			C99.5,77.3,77.3,99.5,50,99.5z"/>
		<path style="fill:#828282;" d="M50,1c27,0,49,22,49,49S77,99,50,99S1,77,1,50S23,1,50,1 M50,0C22.4,0,0,22.4,0,50s22.4,50,50,50
			s50-22.4,50-50S77.6,0,50,0L50,0z"/>
	</g>
	<g>
		<path style="fill:#97CFFD;" d="M50,99.5c-3.4,0-6.8-0.4-10.1-1.1L39,86.7h21.5l-0.8,11.8C56.6,99.2,53.3,99.5,50,99.5z"/>
		<g>
			<path style="fill:#828282;" d="M60.1,87.2l-0.8,10.9C56.2,98.7,53.1,99,50,99c-3.2,0-6.5-0.3-9.7-1l-0.8-10.8H60.1 M61.1,86.2
				H38.5l0.9,12.6c3.4,0.7,7,1.1,10.6,1.1c3.5,0,6.9-0.4,10.2-1.1L61.1,86.2L61.1,86.2z"/>
		</g>
	</g>
	<g>
		<defs>
			<circle id="SVGID_1_" cx="50" cy="50" r="50"/>
		</defs>
		<clipPath id="SVGID_3_">
			<use xlink:href="#SVGID_1_"  style="overflow:visible;"/>
		</clipPath>
	</g>
	<path style="fill:none;stroke:#828282;stroke-miterlimit:10;" d="M42.6,43.9C41.9,44.5,41,45,40.1,45c-1,0-1.9-0.4-2.6-1.2"/>
	<path style="fill:none;stroke:#828282;stroke-miterlimit:10;" d="M62.1,43.9c-0.7,0.7-1.6,1.1-2.5,1.1c-1,0-1.9-0.4-2.6-1.2"/>
	<path style="fill:none;stroke:#828282;stroke-miterlimit:10;" d="M56.9,54.8c-1.9,1.8-4.3,2.9-6.8,2.9c-2.6,0-5.1-1.2-7-3.1"/>
	<path style="fill:none;stroke:#828282;stroke-miterlimit:10;" d="M57.9,70.8c2.1-10.3,6-14.5,9-16.3c2.5-1.4,3.9-4.2,3.9-7v-0.1
		c0-1.9-0.5-3.7-1.3-5.3L54.4,13.4H45l-15,28.7c-0.8,1.6-1.3,3.4-1.3,5.3v0.5c0,2.6,1.9,5.8,4.2,7.2c3,1.7,6.6,5.8,8.7,15.7
		L57.9,70.8L57.9,70.8z"/>
	<circle style="fill:none;stroke:#828282;stroke-miterlimit:10;" cx="49.6" cy="33.6" r="4.8"/>
	<line style="fill:none;stroke:#828282;stroke-miterlimit:10;" x1="49.6" y1="28.8" x2="49.6" y2="13.3"/>
	<path style="fill:#97CFFD;stroke:#828282;stroke-miterlimit:10;" d="M61.3,88.9H38c-2.4,0-4.1-2.2-3.6-4.5l2.4-10.8
		c0.4-1.7,1.9-2.9,3.6-2.9h18.4c1.7,0,3.2,1.2,3.6,2.9l2.4,10.8C65.4,86.7,63.6,88.9,61.3,88.9z"/>
</g>
</svg>
