<?xml version="1.0" encoding="utf-8"?>
<!-- Generator: Adobe Illustrator 19.2.1, SVG Export Plug-In . SVG Version: 6.00 Build 0)  -->
<svg version="1.1" id="Layer_1" xmlns="http://www.w3.org/2000/svg" xmlns:xlink="http://www.w3.org/1999/xlink" x="0px" y="0px"
	 viewBox="0 0 100 100" style="enable-background:new 0 0 100 100;" xml:space="preserve">
<g id="_x30_6_3_">
	<circle id="SVGID_63_" style="fill:none;stroke:#828282;stroke-miterlimit:10;" cx="50" cy="50" r="49.5"/>
	<g>
		<defs>
			<circle id="SVGID_1_" cx="50" cy="50" r="49.5"/>
		</defs>
		<use xlink:href="#SVGID_1_"  style="overflow:visible;fill:#F2F2F2;"/>
		<clipPath id="SVGID_3_">
			<use xlink:href="#SVGID_1_"  style="overflow:visible;"/>
		</clipPath>
		
			<rect x="53.6" y="64.8" style="clip-path:url(#SVGID_3_);fill:#97CFFD;stroke:#828282;stroke-miterlimit:10;" width="8.1" height="43.1"/>
		
			<rect x="78.2" y="64.8" style="clip-path:url(#SVGID_3_);fill:#97CFFD;stroke:#828282;stroke-miterlimit:10;" width="8.1" height="43.1"/>
		
			<rect x="61.7" y="64.8" style="clip-path:url(#SVGID_3_);fill:#97CFFD;stroke:#828282;stroke-miterlimit:10;" width="16.4" height="43.1"/>
		
			<rect x="16.6" y="20.6" style="clip-path:url(#SVGID_3_);fill:none;stroke:#828282;stroke-miterlimit:10;" width="32.6" height="93.7"/>
		<use xlink:href="#SVGID_1_"  style="overflow:visible;fill:none;stroke:#828282;stroke-miterlimit:10;"/>
	</g>
	<path style="fill:none;stroke:#828282;stroke-miterlimit:10;" d="M77.6,57.8c-1.5,0.9-3.8,1.4-5.2,1.5c-1.4,0.1-5.4,0-5.4,0"/>
	<polygon style="fill:none;stroke:#828282;stroke-miterlimit:10;" points="69.9,6.4 86.3,64.8 53.6,64.8 	"/>
	<ellipse style="fill:none;stroke:#828282;stroke-miterlimit:10;" cx="63.9" cy="49.1" rx="2.1" ry="3"/>
	<ellipse style="fill:none;stroke:#828282;stroke-miterlimit:10;" cx="74.2" cy="49.1" rx="2.1" ry="3"/>
	<polygon style="fill:#97CFFD;stroke:#828282;stroke-miterlimit:10;" points="69.9,6.4 76,28 63.9,28 	"/>
	<ellipse style="fill:none;stroke:#828282;stroke-miterlimit:10;" cx="30.9" cy="49.1" rx="2.1" ry="3"/>
	<ellipse style="fill:none;stroke:#828282;stroke-miterlimit:10;" cx="41.1" cy="49.1" rx="2.1" ry="3"/>
	<line style="fill:none;stroke:#828282;stroke-miterlimit:10;" x1="16.9" y1="31.2" x2="24" y2="31.2"/>
	<line style="fill:none;stroke:#828282;stroke-miterlimit:10;" x1="16.9" y1="40.8" x2="21.6" y2="40.8"/>
	<line style="fill:none;stroke:#828282;stroke-miterlimit:10;" x1="16.9" y1="51.3" x2="24" y2="51.3"/>
	<line style="fill:none;stroke:#828282;stroke-miterlimit:10;" x1="16.9" y1="61" x2="21.6" y2="61"/>
	<line style="fill:none;stroke:#828282;stroke-miterlimit:10;" x1="16.9" y1="71.4" x2="24" y2="71.4"/>
	<line style="fill:none;stroke:#828282;stroke-miterlimit:10;" x1="16.9" y1="81.1" x2="21.6" y2="81.1"/>
	<path style="fill:none;stroke:#828282;stroke-miterlimit:10;" d="M42.2,59.6c-1.9,1.8-4.2,2.9-6.8,2.9c-2.6,0-5-1.2-7-3L42.2,59.6z
		"/>
</g>
</svg>
