<?xml version="1.0" encoding="utf-8"?>
<!-- Generator: Adobe Illustrator 19.2.1, SVG Export Plug-In . SVG Version: 6.00 Build 0)  -->
<svg version="1.1" id="Layer_1" xmlns="http://www.w3.org/2000/svg" xmlns:xlink="http://www.w3.org/1999/xlink" x="0px" y="0px"
	 viewBox="0 0 100 100" style="enable-background:new 0 0 100 100;" xml:space="preserve">
<g id="_x31_1_3_">
	<circle id="SVGID_73_" style="fill:#F2F2F2;stroke:#828282;stroke-miterlimit:10;" cx="50" cy="50" r="49.5"/>
	
		<rect x="30.8" y="12.7" transform="matrix(5.738083e-011 -1 1 5.738083e-011 7.6819 94.0485)" style="fill:none;stroke:#828282;stroke-miterlimit:10;" width="40.1" height="60.9"/>
	<path style="fill:#97CFFD;stroke:#828282;stroke-miterlimit:10;" d="M74,63.5H27.9c-1.6,0-3,1.3-3,3v0c0,1.6,1.3,3,3,3H74
		c1.6,0,3-1.3,3-3v0C77,64.8,75.6,63.5,74,63.5z"/>
	<polygon style="fill:#97CFFD;stroke:#828282;stroke-miterlimit:10;" points="64.8,69.4 71.1,81.2 64.1,81 57.9,69.4 	"/>
	<polygon style="fill:#97CFFD;stroke:#828282;stroke-miterlimit:10;" points="35.9,69.4 29.5,81.4 36.5,81.2 42.7,69.4 	"/>
	<path style="fill:#97CFFD;stroke:#828282;stroke-miterlimit:10;" d="M48,17.2v5.7h5.9v-5.7c0-1.6-1.3-3-3-3h0
		C49.3,14.2,48,15.5,48,17.2z"/>
	<ellipse style="fill:none;stroke:#828282;stroke-miterlimit:10;" cx="40.4" cy="42.7" rx="2.1" ry="3"/>
	<ellipse style="fill:none;stroke:#828282;stroke-miterlimit:10;" cx="61.4" cy="42.7" rx="2.1" ry="3"/>
	<path style="fill:none;stroke:#828282;stroke-miterlimit:10;" d="M57.7,53.3c-1.9,1.8-4.2,5.5-6.8,5.5c-2.6,0-5-3.8-7-5.7
		L57.7,53.3z"/>
</g>
</svg>
