<?xml version="1.0" encoding="utf-8"?>
<!-- Generator: Adobe Illustrator 19.2.1, SVG Export Plug-In . SVG Version: 6.00 Build 0)  -->
<svg version="1.1" id="Layer_1" xmlns="http://www.w3.org/2000/svg" xmlns:xlink="http://www.w3.org/1999/xlink" x="0px" y="0px"
	 viewBox="0 0 100 100" style="enable-background:new 0 0 100 100;" xml:space="preserve">
<g id="_x30_1_2_">
	<g>
		<defs>
			<circle id="SVGID_1_" cx="50" cy="50" r="50"/>
		</defs>
		<clipPath id="SVGID_4_">
			<use xlink:href="#SVGID_1_"  style="overflow:visible;"/>
		</clipPath>
		<g id="SVGID_3_" style="clip-path:url(#SVGID_4_);">
			<path style="fill:#F2F2F2;" d="M50,99.5C22.7,99.5,0.5,77.3,0.5,50C0.5,22.7,22.7,0.5,50,0.5c27.3,0,49.5,22.2,49.5,49.5
				C99.5,77.3,77.3,99.5,50,99.5z"/>
			<path style="fill:#828282;" d="M50,1c27,0,49,22,49,49S77,99,50,99S1,77,1,50S23,1,50,1 M50,0C22.4,0,0,22.4,0,50s22.4,50,50,50
				s50-22.4,50-50S77.6,0,50,0L50,0z"/>
		</g>
		<path style="clip-path:url(#SVGID_4_);fill:none;stroke:#828282;stroke-miterlimit:10;" d="M72,119.9H28.5
			c-5.6,0-10.2-4.6-10.2-10.2V31.5c0-5.6,4.6-10.2,10.2-10.2H72c5.6,0,10.2,4.6,10.2,10.2v78.2C82.2,115.3,77.6,119.9,72,119.9z"/>
		
			<rect x="22.7" y="35.4" style="clip-path:url(#SVGID_4_);fill:none;stroke:#828282;stroke-miterlimit:10;" width="55.1" height="85.1"/>
	</g>
	<path style="fill:none;stroke:#828282;stroke-miterlimit:10;" d="M57.7,66.7c-1.7,1.6-3.9,2.6-6.2,2.6c-2.4,0-4.7-1.1-6.5-2.8"/>
	<circle style="fill:none;stroke:#828282;stroke-miterlimit:10;" cx="60.5" cy="27.1" r="0.9"/>
	<circle style="fill:none;stroke:#828282;stroke-miterlimit:10;" cx="65.8" cy="27.1" r="0.9"/>
	<circle style="fill:none;stroke:#828282;stroke-miterlimit:10;" cx="71.1" cy="27.1" r="0.9"/>
	<line style="fill:none;stroke:#828282;stroke-miterlimit:10;" x1="18.4" y1="31.5" x2="82.2" y2="31.5"/>
	<rect x="41.4" y="18.5" style="fill:#97CFFD;stroke:#828282;stroke-miterlimit:10;" width="20.4" height="2.9"/>
	<path style="fill:#97CFFD;stroke:#828282;stroke-miterlimit:10;" d="M78.9,34.8H22.8c-5.2,0-9.5,4.1-9.5,9.3c0,0.1,0,0.1,0,0.1
		c0,8.6,7,15.6,15.6,15.6c8.6,0,17.2-8.6,17.2-17.2h9.8c0,8.6,8.6,17.2,17.2,17.2s15.6-7,15.6-15.6c0-0.1,0-0.1,0-0.1
		C88.5,38.9,84.1,34.8,78.9,34.8z"/>
</g>
</svg>
