<?xml version="1.0" encoding="utf-8"?>
<!-- Generator: Adobe Illustrator 19.2.1, SVG Export Plug-In . SVG Version: 6.00 Build 0)  -->
<svg version="1.1" id="Layer_1" xmlns="http://www.w3.org/2000/svg" xmlns:xlink="http://www.w3.org/1999/xlink" x="0px" y="0px"
	 viewBox="0 0 100 100" style="enable-background:new 0 0 100 100;" xml:space="preserve">
<g id="SVGID_57_">
	<path style="fill:#F2F2F2;" d="M50,99.5C22.7,99.5,0.5,77.3,0.5,50C0.5,22.7,22.7,0.5,50,0.5c27.3,0,49.5,22.2,49.5,49.5
		C99.5,77.3,77.3,99.5,50,99.5z"/>
	<path style="fill:#828282;" d="M50,1c27,0,49,22,49,49S77,99,50,99S1,77,1,50S23,1,50,1 M50,0C22.4,0,0,22.4,0,50s22.4,50,50,50
		s50-22.4,50-50S77.6,0,50,0L50,0z"/>
</g>
<g id="_x30_4_3_">
	<path style="fill:#97CFFD;stroke:#828282;stroke-miterlimit:10;" d="M40.9,98.2c3,0.5,6,0.8,9.1,0.8c3,0,6-0.3,8.9-0.8
		c-0.6-8.7-1.1-14-1.1-14H41.9C41.9,84.2,41.5,89.5,40.9,98.2z"/>
	<ellipse style="fill:#97CFFD;stroke:#828282;stroke-miterlimit:10;" cx="49.4" cy="50.5" rx="3.5" ry="3.5"/>
	<path style="fill:#97CFFD;stroke:#828282;stroke-miterlimit:10;" d="M58.8,74.8H41c0,0,0.5,7.9-0.4,20.3h18.5
		C58.3,82.6,58.8,74.8,58.8,74.8z"/>
	<path style="fill:none;stroke:#828282;stroke-miterlimit:10;" d="M52.1,6c0,0,39.6,40.9,6.4,68.8H41c0,0-19.5-11.9-10.5-34.4
		C38.7,19.7,52.1,22.4,52.1,6z"/>
	<path style="fill:none;stroke:#828282;stroke-miterlimit:10;" d="M65.6,61.5c-1.9,1.9-4.2,2.9-6.8,2.9c-2.5,0-5-1.2-6.9-3
		L65.6,61.5z"/>
	<path style="fill:none;stroke:#828282;stroke-miterlimit:10;" d="M48,24.7c1.4-1.5,7.4-8.7,5.4-16c-0.2-0.7-0.5-1.5-0.9-2.3"/>
	<line style="fill:none;stroke:#828282;stroke-miterlimit:10;" x1="65.6" y1="50.5" x2="53.3" y2="50.5"/>
	<path style="fill:none;stroke:#828282;stroke-miterlimit:10;" d="M45.9,49.9c0,0-15.4-4.9-18.9-6s-6.1,2.6-2,6.5"/>
	<ellipse style="fill:#97CFFD;stroke:#828282;stroke-miterlimit:10;" cx="69.1" cy="50.5" rx="3.5" ry="3.5"/>
</g>
</svg>
