<?xml version="1.0" encoding="utf-8"?>
<!-- Generator: Adobe Illustrator 19.2.1, SVG Export Plug-In . SVG Version: 6.00 Build 0)  -->
<svg version="1.1" id="Layer_1" xmlns="http://www.w3.org/2000/svg" xmlns:xlink="http://www.w3.org/1999/xlink" x="0px" y="0px"
	 viewBox="0 0 100 100" style="enable-background:new 0 0 100 100;" xml:space="preserve">
<g id="SVGID_61_">
	<path style="fill:#F2F2F2;" d="M50,99.5C22.7,99.5,0.5,77.3,0.5,50C0.5,22.7,22.7,0.5,50,0.5c27.3,0,49.5,22.2,49.5,49.5
		C99.5,77.3,77.3,99.5,50,99.5z"/>
	<path style="fill:#828282;" d="M50,1c27,0,49,22,49,49S77,99,50,99S1,77,1,50S23,1,50,1 M50,0C22.4,0,0,22.4,0,50s22.4,50,50,50
		s50-22.4,50-50S77.6,0,50,0L50,0z"/>
</g>
<g id="_x30_3_3_">
	<g>
		<g>
			<path style="fill:#97CFFD;" d="M50,99.5c-4.1,0-8.1-0.5-12-1.5l-0.3-4.7c0-0.7,0.2-1.3,0.6-1.8c0.4-0.5,1-0.7,1.7-0.7h19.5
				c0.7,0,1.3,0.3,1.7,0.7c0.4,0.5,0.7,1.1,0.6,1.8l-0.3,4.8C57.8,99,53.9,99.5,50,99.5z"/>
			<path style="fill:#828282;" d="M59.5,91.3c0.5,0,1,0.2,1.3,0.6c0.3,0.4,0.5,0.9,0.5,1.4l-0.3,4.5C57.5,98.6,53.7,99,50,99
				c-3.9,0-7.8-0.5-11.5-1.4l-0.2-4.4c0-0.5,0.1-1,0.5-1.4c0.3-0.4,0.8-0.6,1.3-0.6H59.5 M59.5,90.3H40c-1.6,0-2.9,1.4-2.8,3
				l0.3,5.1c4,1,8.2,1.6,12.5,1.6c4.2,0,8.2-0.5,12-1.5l0.3-5.2C62.4,91.6,61.2,90.3,59.5,90.3L59.5,90.3z"/>
		</g>
	</g>
	<g>
		<g>
			<g>
				<path style="fill:#F2F2F2;" d="M37.3,82.8c-1.4,0-2.5-1.2-2.5-2.5v-9.7c0-1.6,0.6-4.1,1.3-5.5L63.5,8.4c0.1-0.3,0.2-0.4,0.3-0.6
					c0,0.1,0,0.3,0,0.7v59.7l-12.7-0.6l0.5,0.8c2.8,4.3,10.2,5.2,12.2,5.4v6.4c0,1.4-1.2,2.5-2.5,2.5H37.3z"/>
				<path style="fill:#828282;" d="M63.4,9.8v57.9l-11.2-0.5L50.2,67l1.1,1.6c2.7,4.2,9.6,5.3,12.1,5.6v6c0,1.1-0.9,2-2,2h-24
					c-1.1,0-2-0.9-2-2v-9.7c0-1.5,0.6-4,1.2-5.3L63.4,9.8 M63.9,7.1c-0.2,0-0.5,0.3-0.9,1L35.6,64.8c-0.7,1.5-1.3,4.1-1.3,5.7v9.7
					c0,1.6,1.4,3,3,3h24c1.6,0,3-1.4,3-3v-6.9c0,0-9.2-0.6-12.2-5.2l12.2,0.6V8.5C64.4,7.6,64.2,7.1,63.9,7.1L63.9,7.1z"/>
			</g>
		</g>
	</g>
	<g>
		<path style="fill:#97CFFD;" d="M41.4,90.7c-0.6,0-1.2-0.3-1.6-0.8c-0.4-0.5-0.6-1.2-0.5-1.9l1.7-7.7c0.3-1,1.1-1.7,2.1-1.7h13.2
			c1,0,1.9,0.7,2.1,1.7l1.7,7.7c0.1,0.6-0.1,1.3-0.5,1.8c-0.4,0.5-1,0.8-1.6,0.8H41.4z"/>
		<path style="fill:#828282;" d="M56.4,79.2c0.8,0,1.5,0.5,1.6,1.3l1.7,7.7c0.1,0.5,0,1-0.4,1.4c-0.3,0.4-0.8,0.6-1.2,0.6H41.4
			c-0.5,0-0.9-0.2-1.3-0.6c-0.3-0.4-0.5-0.9-0.4-1.4l1.7-7.7c0.2-0.8,0.8-1.3,1.6-1.3H56.4 M56.4,78.2H43.2c-1.3,0-2.3,0.8-2.6,2.1
			L38.8,88c-0.3,1.7,0.9,3.2,2.6,3.2h16.7c1.6,0,2.9-1.6,2.6-3.2L59,80.2C58.7,79,57.6,78.2,56.4,78.2L56.4,78.2z"/>
	</g>
	<g>
		<circle style="fill:#F2F2F2;" cx="57.5" cy="53.2" r="3.1"/>
		<path style="fill:#828282;" d="M57.5,50.6c1.4,0,2.6,1.2,2.6,2.6s-1.2,2.6-2.6,2.6s-2.6-1.2-2.6-2.6S56.1,50.6,57.5,50.6
			 M57.5,49.6c-2,0-3.6,1.6-3.6,3.6s1.6,3.6,3.6,3.6s3.6-1.6,3.6-3.6S59.5,49.6,57.5,49.6L57.5,49.6z"/>
	</g>
	<polyline style="fill:none;stroke:#828282;stroke-miterlimit:10;" points="63.5,15.8 37.6,69 34.8,67.6 	"/>
</g>
</svg>
